<?xml version="1.0" encoding="UTF-8" standalone="no"?>
<!-- Created with Inkscape (http://www.inkscape.org/) -->

<svg
   width="68"
   height="100"
   viewBox="0 0 17.991666 26.458332"
   version="1.1"
   id="svg1"
   sodipodi:docname="2.svg"
   inkscape:version="1.3.2 (091e20e, 2023-11-25, custom)"
   xmlns:inkscape="http://www.inkscape.org/namespaces/inkscape"
   xmlns:sodipodi="http://sodipodi.sourceforge.net/DTD/sodipodi-0.dtd"
   xmlns="http://www.w3.org/2000/svg"
   xmlns:svg="http://www.w3.org/2000/svg">
  <sodipodi:namedview
     id="namedview1"
     pagecolor="#505050"
     bordercolor="#ffffff"
     borderopacity="1"
     inkscape:showpageshadow="0"
     inkscape:pageopacity="0"
     inkscape:pagecheckerboard="1"
     inkscape:deskcolor="#d1d1d1"
     inkscape:document-units="mm"
     inkscape:zoom="2.8578563"
     inkscape:cx="-10.847291"
     inkscape:cy="-27.293185"
     inkscape:window-width="1920"
     inkscape:window-height="1009"
     inkscape:window-x="1912"
     inkscape:window-y="-8"
     inkscape:window-maximized="1"
     inkscape:current-layer="layer1" />
  <defs
     id="defs1">
    <rect
       x="-92.37693"
       y="-45.138729"
       width="151.16225"
       height="87.828072"
       id="rect7" />
    <rect
       x="24.14397"
       y="21.169714"
       width="129.64262"
       height="62.634357"
       id="rect6" />
    <rect
       x="4.1989512"
       y="9.9725094"
       width="86.953285"
       height="82.229469"
       id="rect1" />
  </defs>
  <g
     inkscape:label="Layer 1"
     inkscape:groupmode="layer"
     id="layer1">
    <path
       style="font-weight:bold;font-size:32.6359px;line-height:0.45;font-family:'Helvetica Neue';-inkscape-font-specification:'Helvetica Neue Bold';stroke-width:0.593378"
       d="M 17.366939,20.637516 H 6.5644581 c 0.228452,-0.358995 0.5221747,-0.71799 0.8811694,-1.076985 0.326359,-0.358995 0.7506247,-0.717989 1.2401634,-1.10962 0.4569017,-0.358995 0.8811684,-0.652718 1.2075274,-0.88117 0.3263587,-0.261087 0.8158967,-0.55481 1.4033437,-0.946441 0.587446,-0.39163 0.979077,-0.652718 1.207528,-0.815897 1.631795,-1.109621 2.806687,-2.153969 3.589949,-3.165682 0.750625,-0.979077 1.142256,-2.317149 1.142256,-4.0142157 0,-2.0560616 -0.71799,-3.7204925 -2.153969,-5.0259284 C 13.646446,2.296141 11.753564,1.643423 9.4690516,1.643423 c -2.5455988,0 -4.5690237,0.7832616 -6.0702751,2.3171488 -1.5012513,1.5338872 -2.251877,3.5899488 -2.251877,6.1681852 v 0.489538 H 5.5853817 C 5.7159253,7.3220693 6.9560888,5.6576385 9.3058726,5.6576385 c 0.9790764,0 1.7623374,0.326359 2.3497834,0.9138052 0.587447,0.5874461 0.913806,1.4033436 0.913806,2.3824206 0,0.4569025 -0.09791,0.9138051 -0.261088,1.3380717 -0.195815,0.424267 -0.358994,0.783262 -0.55481,1.044349 -0.195815,0.293723 -0.489538,0.620082 -0.913805,1.011713 -0.456903,0.391631 -0.783262,0.652718 -0.9790767,0.815897 -0.228451,0.130544 -0.6200817,0.391631 -1.1748914,0.783262 -0.5874457,0.358995 -0.9138044,0.587446 -1.0443484,0.685354 -1.0443484,0.685353 -1.8276091,1.240164 -2.3497839,1.631795 -0.5221743,0.39163 -1.1422564,0.913805 -1.8276103,1.566523 -0.7179898,0.652718 -1.2401641,1.2728 -1.5665231,1.860246 -0.326359,0.587446 -0.6200821,1.305436 -0.8811693,2.153969 -0.26108717,0.848534 -0.39163077,1.794975 -0.39163077,2.839323 H 17.366939 Z"
       id="text7"
       aria-label="2" />
  </g>
</svg>
