<?xml version="1.0" encoding="UTF-8" standalone="no"?>
<!-- Created with Inkscape (http://www.inkscape.org/) -->

<svg
   width="70"
   height="100"
   viewBox="0 0 18.520833 26.458332"
   version="1.1"
   id="svg1"
   sodipodi:docname="3.svg"
   inkscape:version="1.3.2 (091e20e, 2023-11-25, custom)"
   xmlns:inkscape="http://www.inkscape.org/namespaces/inkscape"
   xmlns:sodipodi="http://sodipodi.sourceforge.net/DTD/sodipodi-0.dtd"
   xmlns="http://www.w3.org/2000/svg"
   xmlns:svg="http://www.w3.org/2000/svg">
  <sodipodi:namedview
     id="namedview1"
     pagecolor="#505050"
     bordercolor="#ffffff"
     borderopacity="1"
     inkscape:showpageshadow="0"
     inkscape:pageopacity="0"
     inkscape:pagecheckerboard="1"
     inkscape:deskcolor="#d1d1d1"
     inkscape:document-units="mm"
     inkscape:zoom="2.8578563"
     inkscape:cx="-10.847291"
     inkscape:cy="-27.293185"
     inkscape:window-width="1920"
     inkscape:window-height="1009"
     inkscape:window-x="1912"
     inkscape:window-y="-8"
     inkscape:window-maximized="1"
     inkscape:current-layer="layer1" />
  <defs
     id="defs1">
    <rect
       x="-92.37693"
       y="-45.138729"
       width="151.16225"
       height="87.828072"
       id="rect7" />
    <rect
       x="24.14397"
       y="21.169714"
       width="129.64262"
       height="62.634357"
       id="rect6" />
    <rect
       x="4.1989512"
       y="9.9725094"
       width="86.953285"
       height="82.229469"
       id="rect1" />
  </defs>
  <g
     inkscape:label="Layer 1"
     inkscape:groupmode="layer"
     id="layer1">
    <path
       style="font-weight:bold;font-size:32.6359px;line-height:0.45;font-family:'Helvetica Neue';-inkscape-font-specification:'Helvetica Neue Bold';stroke-width:0.593378"
       d="m 1.7087021,9.2802233 h 4.4058463 c 0,-1.2401642 0.3263587,-2.2192411 0.9138044,-2.904595 0.5874467,-0.652718 1.4359791,-1.0117129 2.5129635,-1.0117129 0.9790767,0 1.7297017,0.2610872 2.3171477,0.7832616 0.587447,0.5221744 0.848534,1.2401641 0.848534,2.0886975 0,1.9255185 -1.305436,2.8719595 -3.9815791,2.8719595 -0.261087,0 -0.5221737,0 -0.7832607,-0.03264 v 3.26359 c 0.326359,0 0.6853537,-0.03264 1.1422554,-0.03264 1.2401634,0 2.2192404,0.293723 3.0025024,0.815897 0.783261,0.522174 1.142256,1.403344 1.142256,2.578236 0,1.044349 -0.326359,1.860246 -1.044349,2.512964 -0.685353,0.652718 -1.599159,0.946441 -2.7414144,0.946441 -1.2401634,0 -2.1866038,-0.358995 -2.8393215,-1.10962 C 5.9513689,19.299444 5.592374,18.222459 5.5597381,16.78648 H 1.08862 v 0.326359 c 0,2.447692 0.7832616,4.37321 2.2845129,5.80919 1.5338873,1.435979 3.5899489,2.153969 6.1681834,2.153969 2.5129637,0 4.5690247,-0.685354 6.1355487,-2.056061 1.566523,-1.370708 2.349784,-3.165683 2.349784,-5.352288 0,-1.338072 -0.358995,-2.480328 -1.076984,-3.394133 -0.71799,-0.913805 -1.697067,-1.533887 -2.969867,-1.827611 0.979077,-0.261087 1.762338,-0.815897 2.349785,-1.631795 0.587446,-0.8158967 0.848533,-1.762338 0.848533,-2.8719586 0,-1.8602462 -0.685354,-3.3614975 -2.088698,-4.5363899 C 13.686075,2.2308692 11.858464,1.643423 9.5739523,1.643423 c -2.3824195,0 -4.2753013,0.6853539 -5.678645,2.0560616 -1.3707077,1.3707077 -2.1213334,3.230954 -2.1866052,5.5807387 z"
       id="text7"
       aria-label="3" />
  </g>
</svg>
