<?xml version="1.0" encoding="UTF-8" standalone="no"?>
<!-- Created with Inkscape (http://www.inkscape.org/) -->

<svg
   width="100"
   height="80"
   viewBox="0 0 26.458332 21.166666"
   version="1.1"
   id="svg1"
   sodipodi:docname="35.svg"
   inkscape:version="1.3.2 (091e20e, 2023-11-25, custom)"
   xmlns:inkscape="http://www.inkscape.org/namespaces/inkscape"
   xmlns:sodipodi="http://sodipodi.sourceforge.net/DTD/sodipodi-0.dtd"
   xmlns="http://www.w3.org/2000/svg"
   xmlns:svg="http://www.w3.org/2000/svg">
  <sodipodi:namedview
     id="namedview1"
     pagecolor="#505050"
     bordercolor="#ffffff"
     borderopacity="1"
     inkscape:showpageshadow="0"
     inkscape:pageopacity="0"
     inkscape:pagecheckerboard="1"
     inkscape:deskcolor="#d1d1d1"
     inkscape:document-units="mm"
     inkscape:zoom="2.8578563"
     inkscape:cx="-10.847291"
     inkscape:cy="-27.643097"
     inkscape:window-width="1920"
     inkscape:window-height="1009"
     inkscape:window-x="1912"
     inkscape:window-y="-8"
     inkscape:window-maximized="1"
     inkscape:current-layer="layer1" />
  <defs
     id="defs1">
    <rect
       x="-92.37693"
       y="-45.138729"
       width="151.16225"
       height="87.828072"
       id="rect7" />
    <rect
       x="24.14397"
       y="21.169714"
       width="129.64262"
       height="62.634357"
       id="rect6" />
    <rect
       x="4.1989512"
       y="9.9725094"
       width="86.953285"
       height="82.229469"
       id="rect1" />
  </defs>
  <g
     inkscape:label="Layer 1"
     inkscape:groupmode="layer"
     id="layer1">
    <path
       style="font-weight:bold;font-size:55px;line-height:0.45;font-family:'Helvetica Neue';-inkscape-font-specification:'Helvetica Neue Bold';white-space:pre"
       d="m -90.616953,-43.109462 h 7.425 c 0,-2.09 0.55,-3.74 1.54,-4.895 0.99,-1.1 2.42,-1.705 4.235,-1.705 1.65,0 2.915,0.44 3.905,1.32 0.99,0.88 1.43,2.09 1.43,3.52 0,3.245 -2.2,4.84 -6.71,4.84 -0.44,0 -0.88,0 -1.32,-0.055 v 5.5 c 0.55,0 1.155,-0.055 1.925,-0.055 2.09,0 3.74,0.495 5.06,1.375 1.32,0.88 1.925,2.365 1.925,4.345 0,1.76 -0.55,3.135 -1.76,4.235 -1.155,1.1 -2.695,1.595 -4.62,1.595 -2.09,0 -3.685,-0.605 -4.785,-1.87 -1.1,-1.265 -1.705,-3.08 -1.76,-5.5 h -7.535 v 0.55 c 0,4.125 1.32,7.37 3.85,9.79 2.585,2.42 6.05,3.63 10.395,3.63 4.235,0 7.7,-1.155 10.34,-3.465 2.64,-2.31 3.96,-5.335 3.96,-9.02 0,-2.255 -0.605,-4.18 -1.815,-5.72 -1.21,-1.54 -2.86,-2.585 -5.005,-3.08 1.65,-0.44 2.97,-1.375 3.96,-2.75 0.99,-1.375 1.43,-2.97 1.43,-4.84 0,-3.135 -1.155,-5.665 -3.52,-7.645 -2.365,-1.98 -5.445,-2.97 -9.295,-2.97 -4.015,0 -7.205,1.155 -9.57,3.465 -2.31,2.31 -3.575,5.445 -3.685,9.405 z m 55.879986,-12.265 h -21.505 l -3.74,21.175 h 6.985 c 1.375,-2.09 3.3,-3.19 5.775,-3.19 2.035,0 3.685,0.66 4.895,1.925 1.21,1.32 1.815,3.025 1.815,5.17 0,2.2 -0.66,3.96 -1.87,5.335 -1.265,1.375 -2.86,2.035 -4.785,2.035 -1.76,0 -3.19,-0.495 -4.345,-1.54 -1.155,-1.045 -1.815,-2.42 -1.98,-4.125 h -7.7 c 0.22,3.85 1.595,6.82 4.125,8.91 2.53,2.09 5.83,3.08 9.845,3.08 4.29,0 7.755,-1.265 10.45,-3.905 2.75,-2.585 4.07,-5.885 4.07,-9.955 0,-3.74 -1.1,-6.82 -3.355,-9.13 -2.2,-2.31 -5.17,-3.465 -8.91,-3.465 -2.915,0 -5.28,0.935 -7.095,2.695 l 1.485,-8.36 h 15.785 z"
       id="text7"
       transform="matrix(0.40635194,0,0,0.40635194,38.418704,25.318452)"
       aria-label="35" />
  </g>
</svg>
