<?xml version="1.0" encoding="UTF-8" standalone="no"?>
<!-- Created with Inkscape (http://www.inkscape.org/) -->

<svg
   width="100"
   height="100"
   viewBox="0 0 26.458332 26.458332"
   version="1.1"
   id="svg1"
   sodipodi:docname="6.svg"
   inkscape:version="1.3.2 (091e20e, 2023-11-25, custom)"
   xmlns:inkscape="http://www.inkscape.org/namespaces/inkscape"
   xmlns:sodipodi="http://sodipodi.sourceforge.net/DTD/sodipodi-0.dtd"
   xmlns="http://www.w3.org/2000/svg"
   xmlns:svg="http://www.w3.org/2000/svg">
  <sodipodi:namedview
     id="namedview1"
     pagecolor="#505050"
     bordercolor="#ffffff"
     borderopacity="1"
     inkscape:showpageshadow="0"
     inkscape:pageopacity="0"
     inkscape:pagecheckerboard="1"
     inkscape:deskcolor="#d1d1d1"
     inkscape:document-units="mm"
     inkscape:zoom="2.8578563"
     inkscape:cx="-10.847291"
     inkscape:cy="-27.293184"
     inkscape:window-width="1920"
     inkscape:window-height="1009"
     inkscape:window-x="1912"
     inkscape:window-y="-8"
     inkscape:window-maximized="1"
     inkscape:current-layer="layer1" />
  <defs
     id="defs1">
    <rect
       x="-92.37693"
       y="-45.138729"
       width="151.16225"
       height="87.828072"
       id="rect7" />
    <rect
       x="24.14397"
       y="21.169714"
       width="129.64262"
       height="62.634357"
       id="rect6" />
    <rect
       x="4.1989512"
       y="9.9725094"
       width="86.953285"
       height="82.229469"
       id="rect1" />
  </defs>
  <g
     inkscape:label="Layer 1"
     inkscape:groupmode="layer"
     id="layer1">
    <path
       style="font-weight:bold;font-size:32.6359px;line-height:0.45;font-family:'Helvetica Neue';-inkscape-font-specification:'Helvetica Neue Bold';stroke-width:0.593378"
       d="M 21.469731,7.746336 C 21.176008,5.820818 20.392746,4.3195667 19.087311,3.242582 17.781875,2.1982333 16.117444,1.643423 14.028746,1.643423 c -2.741415,0 -4.9280204,1.0769846 -6.5271795,3.2309539 -1.5665231,2.1539694 -2.3824206,5.0912002 -2.3824206,8.8443281 0,3.589949 0.7832616,6.364001 2.2845129,8.354791 1.5338873,1.990789 3.6552202,2.969866 6.3313642,2.969866 2.382421,0 4.340575,-0.750625 5.874462,-2.284513 1.533887,-1.501251 2.284513,-3.459405 2.251877,-5.841825 0,-2.186606 -0.652718,-3.98158 -1.99079,-5.41756 C 18.5325,10.096121 16.802798,9.378131 14.7141,9.378131 c -2.121333,0 -3.8184,0.881169 -5.0912001,2.578236 C 9.9818948,7.4526129 11.417874,5.1681 13.963474,5.1681 c 1.631795,0 2.643508,0.8811693 3.067775,2.578236 z m -7.832616,5.0912 c 1.109621,0 1.99079,0.424267 2.676144,1.207528 0.71799,0.783262 1.044349,1.794975 1.044349,3.002503 0,1.240164 -0.326359,2.251877 -1.044349,3.035139 -0.685354,0.815897 -1.566523,1.207528 -2.643508,1.207528 -1.044348,0 -1.925518,-0.391631 -2.610872,-1.174892 -0.652718,-0.783262 -1.011712,-1.794975 -1.011712,-3.035139 0,-1.207528 0.358994,-2.219241 1.011712,-3.035139 0.685354,-0.783261 1.533888,-1.207528 2.578236,-1.207528 z"
       id="text7"
       aria-label="6" />
  </g>
</svg>
