<?xml version="1.0" encoding="UTF-8" standalone="no"?>
<!-- Created with Inkscape (http://www.inkscape.org/) -->

<svg
   width="70"
   height="100"
   viewBox="0 0 18.520833 26.458332"
   version="1.1"
   id="svg1"
   sodipodi:docname="6.svg"
   inkscape:version="1.3.2 (091e20e, 2023-11-25, custom)"
   xmlns:inkscape="http://www.inkscape.org/namespaces/inkscape"
   xmlns:sodipodi="http://sodipodi.sourceforge.net/DTD/sodipodi-0.dtd"
   xmlns="http://www.w3.org/2000/svg"
   xmlns:svg="http://www.w3.org/2000/svg">
  <sodipodi:namedview
     id="namedview1"
     pagecolor="#505050"
     bordercolor="#ffffff"
     borderopacity="1"
     inkscape:showpageshadow="0"
     inkscape:pageopacity="0"
     inkscape:pagecheckerboard="1"
     inkscape:deskcolor="#d1d1d1"
     inkscape:document-units="mm"
     inkscape:zoom="2.8578563"
     inkscape:cx="-10.847291"
     inkscape:cy="-27.293185"
     inkscape:window-width="1920"
     inkscape:window-height="1009"
     inkscape:window-x="1912"
     inkscape:window-y="-8"
     inkscape:window-maximized="1"
     inkscape:current-layer="layer1" />
  <defs
     id="defs1">
    <rect
       x="-92.37693"
       y="-45.138729"
       width="151.16225"
       height="87.828072"
       id="rect7" />
    <rect
       x="24.14397"
       y="21.169714"
       width="129.64262"
       height="62.634357"
       id="rect6" />
    <rect
       x="4.1989512"
       y="9.9725094"
       width="86.953285"
       height="82.229469"
       id="rect1" />
  </defs>
  <g
     inkscape:label="Layer 1"
     inkscape:groupmode="layer"
     id="layer1">
    <path
       style="font-weight:bold;font-size:32.6359px;line-height:0.45;font-family:'Helvetica Neue';-inkscape-font-specification:'Helvetica Neue Bold';stroke-width:0.593378"
       d="M 17.236395,7.746336 C 16.942672,5.820818 16.15941,4.3195667 14.853975,3.242582 13.548539,2.1982333 11.884108,1.643423 9.7954103,1.643423 c -2.7414135,0 -4.9280183,1.0769846 -6.5271774,3.2309539 -1.5665231,2.1539694 -2.38242057,5.0912002 -2.38242057,8.8443281 0,3.589949 0.78326157,6.364001 2.28451287,8.354791 1.5338873,1.990789 3.6552196,2.969866 6.3313621,2.969866 2.3824207,0 4.3405747,-0.750625 5.8744617,-2.284513 1.533887,-1.501251 2.284513,-3.459405 2.251877,-5.841825 0,-2.186606 -0.652718,-3.98158 -1.99079,-5.41756 -1.338072,-1.403343 -3.067774,-2.121333 -5.156472,-2.121333 -2.1213318,0 -3.8183979,0.881169 -5.0911977,2.578236 C 5.7485612,7.4526129 7.1845398,5.1681 9.7301383,5.1681 c 1.6317947,0 2.6435077,0.8811693 3.0677747,2.578236 z m -7.8326154,5.0912 c 1.1096204,0 1.9907894,0.424267 2.6761434,1.207528 0.71799,0.783262 1.044349,1.794975 1.044349,3.002503 0,1.240164 -0.326359,2.251877 -1.044349,3.035139 -0.685354,0.815897 -1.566523,1.207528 -2.6435074,1.207528 -1.0443474,0 -1.9255171,-0.391631 -2.6108708,-1.174892 -0.6527174,-0.783262 -1.0117114,-1.794975 -1.0117114,-3.035139 0,-1.207528 0.358994,-2.219241 1.0117114,-3.035139 0.6853537,-0.783261 1.5338874,-1.207528 2.5782348,-1.207528 z"
       id="text7"
       aria-label="6" />
  </g>
</svg>
