<?xml version="1.0" encoding="UTF-8" standalone="no"?>
<!-- Created with Inkscape (http://www.inkscape.org/) -->

<svg
   width="70"
   height="100"
   viewBox="0 0 18.520833 26.458332"
   version="1.1"
   id="svg1"
   sodipodi:docname="8.svg"
   inkscape:version="1.3.2 (091e20e, 2023-11-25, custom)"
   xmlns:inkscape="http://www.inkscape.org/namespaces/inkscape"
   xmlns:sodipodi="http://sodipodi.sourceforge.net/DTD/sodipodi-0.dtd"
   xmlns="http://www.w3.org/2000/svg"
   xmlns:svg="http://www.w3.org/2000/svg">
  <sodipodi:namedview
     id="namedview1"
     pagecolor="#505050"
     bordercolor="#ffffff"
     borderopacity="1"
     inkscape:showpageshadow="0"
     inkscape:pageopacity="0"
     inkscape:pagecheckerboard="1"
     inkscape:deskcolor="#d1d1d1"
     inkscape:document-units="mm"
     inkscape:zoom="2.8578563"
     inkscape:cx="-10.847291"
     inkscape:cy="-27.293185"
     inkscape:window-width="1920"
     inkscape:window-height="1009"
     inkscape:window-x="1912"
     inkscape:window-y="-8"
     inkscape:window-maximized="1"
     inkscape:current-layer="layer1" />
  <defs
     id="defs1">
    <rect
       x="-92.37693"
       y="-45.138729"
       width="151.16225"
       height="87.828072"
       id="rect7" />
    <rect
       x="24.14397"
       y="21.169714"
       width="129.64262"
       height="62.634357"
       id="rect6" />
    <rect
       x="4.1989512"
       y="9.9725094"
       width="86.953285"
       height="82.229469"
       id="rect1" />
  </defs>
  <g
     inkscape:label="Layer 1"
     inkscape:groupmode="layer"
     id="layer1">
    <path
       style="font-weight:bold;font-size:32.6359px;line-height:0.45;font-family:'Helvetica Neue';-inkscape-font-specification:'Helvetica Neue Bold';stroke-width:0.593378"
       d="m 4.9000279,12.511177 c -1.3380719,0.326359 -2.3824206,1.011713 -3.1330463,1.99079 -0.78326157,0.979077 -1.14225647,2.186605 -1.14225647,3.589949 0,2.088697 0.78326157,3.785764 2.34978467,5.058564 1.5665232,1.2728 3.6225843,1.892882 6.2334548,1.892882 2.5782354,0 4.6669334,-0.620082 6.2334564,-1.892882 1.566523,-1.2728 2.349784,-2.969867 2.349784,-5.058564 0,-1.403344 -0.358994,-2.610872 -1.142256,-3.589949 -0.750626,-0.979077 -1.794974,-1.664431 -3.133046,-1.99079 2.219241,-0.71799 3.328861,-2.317149 3.328861,-4.7322051 0,-1.7623385 -0.717989,-3.2309539 -2.153969,-4.4058463 -1.43598,-1.1748923 -3.296226,-1.7623385 -5.5154664,-1.7623385 -2.1866038,0 -4.0142136,0.5874462 -5.482829,1.7623385 -1.4359795,1.1748924 -2.1866052,2.6435078 -2.1866052,4.4058463 0,1.1748924 0.2937231,2.1539693 0.8811693,2.9698671 0.5874461,0.815897 1.4033436,1.403343 2.5129642,1.762338 z M 9.1753286,5.1028282 c 1.1096204,0 1.9581534,0.2610872 2.5782354,0.7832616 0.620082,0.5221744 0.913805,1.2728 0.913805,2.1866052 0,0.9464411 -0.293723,1.6970667 -0.913805,2.251877 -0.620082,0.55481 -1.468615,0.815897 -2.5455994,0.815897 -1.0443484,0 -1.8602448,-0.261087 -2.5129625,-0.815897 C 6.0749204,9.7697617 5.7485612,9.0191361 5.7485612,8.072695 c 0,-0.8811693 0.3263592,-1.599159 0.9464409,-2.1539693 C 7.3477198,5.3965513 8.1636162,5.1028282 9.1753286,5.1028282 Z m -0.09791,9.0727798 c 1.2401644,0 2.2192414,0.358995 2.9698664,1.011713 0.750626,0.685354 1.109621,1.566523 1.109621,2.643508 0,1.10962 -0.358995,2.023425 -1.076985,2.676143 -0.71799,0.685354 -1.697067,1.011713 -2.9045944,1.011713 -1.1748914,0 -2.1213318,-0.326359 -2.8393215,-1.011713 -0.7179895,-0.685354 -1.1096203,-1.599159 -1.1096203,-2.708779 0,-1.044349 0.3589949,-1.925518 1.0769843,-2.610872 0.7179897,-0.652718 1.6644301,-1.011713 2.7740495,-1.011713 z"
       id="text7"
       aria-label="8" />
  </g>
</svg>
