<?xml version="1.0" encoding="UTF-8" standalone="no"?>
<!-- Created with Inkscape (http://www.inkscape.org/) -->

<svg
   width="100"
   height="100"
   viewBox="0 0 26.458332 26.458332"
   version="1.1"
   id="svg1"
   sodipodi:docname="8.svg"
   inkscape:version="1.3.2 (091e20e, 2023-11-25, custom)"
   xmlns:inkscape="http://www.inkscape.org/namespaces/inkscape"
   xmlns:sodipodi="http://sodipodi.sourceforge.net/DTD/sodipodi-0.dtd"
   xmlns="http://www.w3.org/2000/svg"
   xmlns:svg="http://www.w3.org/2000/svg">
  <sodipodi:namedview
     id="namedview1"
     pagecolor="#505050"
     bordercolor="#ffffff"
     borderopacity="1"
     inkscape:showpageshadow="0"
     inkscape:pageopacity="0"
     inkscape:pagecheckerboard="1"
     inkscape:deskcolor="#d1d1d1"
     inkscape:document-units="mm"
     inkscape:zoom="2.8578563"
     inkscape:cx="-10.847291"
     inkscape:cy="-27.293184"
     inkscape:window-width="1920"
     inkscape:window-height="1009"
     inkscape:window-x="1912"
     inkscape:window-y="-8"
     inkscape:window-maximized="1"
     inkscape:current-layer="layer1" />
  <defs
     id="defs1">
    <rect
       x="-92.37693"
       y="-45.138729"
       width="151.16225"
       height="87.828072"
       id="rect7" />
    <rect
       x="24.14397"
       y="21.169714"
       width="129.64262"
       height="62.634357"
       id="rect6" />
    <rect
       x="4.1989512"
       y="9.9725094"
       width="86.953285"
       height="82.229469"
       id="rect1" />
  </defs>
  <g
     inkscape:label="Layer 1"
     inkscape:groupmode="layer"
     id="layer1">
    <path
       style="font-weight:bold;font-size:32.6359px;line-height:0.45;font-family:'Helvetica Neue';-inkscape-font-specification:'Helvetica Neue Bold';stroke-width:0.593378"
       d="m 9.1333615,12.511177 c -1.3380719,0.326359 -2.3824206,1.011713 -3.1330463,1.99079 -0.7832616,0.979077 -1.1422565,2.186605 -1.1422565,3.589949 0,2.088697 0.7832616,3.785764 2.3497847,5.058564 1.5665232,1.2728 3.6225846,1.892882 6.2334566,1.892882 2.578236,0 4.666934,-0.620082 6.233457,-1.892882 1.566523,-1.2728 2.349784,-2.969867 2.349784,-5.058564 0,-1.403344 -0.358994,-2.610872 -1.142256,-3.589949 -0.750626,-0.979077 -1.794974,-1.664431 -3.133046,-1.99079 2.219241,-0.71799 3.328861,-2.317149 3.328861,-4.7322051 0,-1.7623385 -0.717989,-3.2309539 -2.153969,-4.4058463 -1.43598,-1.1748923 -3.296226,-1.7623385 -5.515467,-1.7623385 -2.186605,0 -4.0142154,0.5874462 -5.4828308,1.7623385 C 6.4898537,4.548018 5.739228,6.0166334 5.739228,7.7789719 c 0,1.1748924 0.2937231,2.1539693 0.8811693,2.9698671 0.5874461,0.815897 1.4033436,1.403343 2.5129642,1.762338 z M 13.408664,5.1028282 c 1.109621,0 1.958154,0.2610872 2.578236,0.7832616 0.620082,0.5221744 0.913805,1.2728 0.913805,2.1866052 0,0.9464411 -0.293723,1.6970667 -0.913805,2.251877 -0.620082,0.55481 -1.468615,0.815897 -2.5456,0.815897 -1.044349,0 -1.860246,-0.261087 -2.512964,-0.815897 C 10.308254,9.7697617 9.9818948,9.0191361 9.9818948,8.072695 c 0,-0.8811693 0.3263592,-1.599159 0.9464412,-2.1539693 0.652718,-0.5221744 1.468615,-0.8158975 2.480328,-0.8158975 z m -0.09791,9.0727798 c 1.240165,0 2.219242,0.358995 2.969867,1.011713 0.750626,0.685354 1.109621,1.566523 1.109621,2.643508 0,1.10962 -0.358995,2.023425 -1.076985,2.676143 -0.71799,0.685354 -1.697067,1.011713 -2.904595,1.011713 -1.174892,0 -2.121333,-0.326359 -2.839323,-1.011713 -0.7179898,-0.685354 -1.1096206,-1.599159 -1.1096206,-2.708779 0,-1.044349 0.3589949,-1.925518 1.0769846,-2.610872 0.71799,-0.652718 1.664431,-1.011713 2.774051,-1.011713 z"
       id="text7"
       aria-label="8" />
  </g>
</svg>
