<?xml version="1.0" encoding="UTF-8" standalone="no"?>
<!-- Created with Inkscape (http://www.inkscape.org/) -->

<svg
   width="70"
   height="100"
   viewBox="0 0 18.520833 26.458332"
   version="1.1"
   id="svg1"
   sodipodi:docname="9.svg"
   inkscape:version="1.3.2 (091e20e, 2023-11-25, custom)"
   xmlns:inkscape="http://www.inkscape.org/namespaces/inkscape"
   xmlns:sodipodi="http://sodipodi.sourceforge.net/DTD/sodipodi-0.dtd"
   xmlns="http://www.w3.org/2000/svg"
   xmlns:svg="http://www.w3.org/2000/svg">
  <sodipodi:namedview
     id="namedview1"
     pagecolor="#505050"
     bordercolor="#ffffff"
     borderopacity="1"
     inkscape:showpageshadow="0"
     inkscape:pageopacity="0"
     inkscape:pagecheckerboard="1"
     inkscape:deskcolor="#d1d1d1"
     inkscape:document-units="mm"
     inkscape:zoom="2.8578563"
     inkscape:cx="-10.847291"
     inkscape:cy="-27.293185"
     inkscape:window-width="1920"
     inkscape:window-height="1009"
     inkscape:window-x="1912"
     inkscape:window-y="-8"
     inkscape:window-maximized="1"
     inkscape:current-layer="layer1" />
  <defs
     id="defs1">
    <rect
       x="-92.37693"
       y="-45.138729"
       width="151.16225"
       height="87.828072"
       id="rect7" />
    <rect
       x="24.14397"
       y="21.169714"
       width="129.64262"
       height="62.634357"
       id="rect6" />
    <rect
       x="4.1989512"
       y="9.9725094"
       width="86.953285"
       height="82.229469"
       id="rect1" />
  </defs>
  <g
     inkscape:label="Layer 1"
     inkscape:groupmode="layer"
     id="layer1">
    <path
       style="font-weight:bold;font-size:32.6359px;line-height:0.45;font-family:'Helvetica Neue';-inkscape-font-specification:'Helvetica Neue Bold';stroke-width:0.593378"
       d="m 1.0816277,18.907813 c 0.2284513,1.892882 1.0117129,3.361498 2.3497847,4.471118 1.3707078,1.109621 3.0677737,1.664431 5.1564705,1.664431 1.5991581,0 3.0025021,-0.358995 4.2100301,-1.10962 1.174892,-0.750626 2.088697,-1.762339 2.741415,-3.002503 0.652718,-1.240164 1.109621,-2.5456 1.43598,-3.916308 0.293723,-1.370708 0.456903,-2.774051 0.456903,-4.275302 0,-1.43598 -0.16318,-2.7740519 -0.456903,-4.0468519 C 16.648949,7.4526129 16.192046,6.2777206 15.571964,5.1681 14.919246,4.0911154 14.038077,3.242582 12.895821,2.589864 11.753564,1.9371461 10.415492,1.6107871 8.9142419,1.6107871 c -2.3497838,0 -4.3079371,0.7832616 -5.8744603,2.3497847 -1.5665231,1.5665231 -2.34978467,3.4920411 -2.34978467,5.8091899 0,2.2192413 0.65271797,4.0142153 2.02342567,5.4175593 1.3707078,1.435979 3.1004108,2.121333 5.2217426,2.121333 2.0234251,0 3.6552198,-0.881169 4.8953838,-2.643507 -0.06527,0.848533 -0.16318,1.599159 -0.293723,2.251877 -0.130544,0.652717 -0.358995,1.338071 -0.620082,2.121333 -0.293723,0.783261 -0.71799,1.403344 -1.2728,1.82761 -0.554811,0.456903 -1.2401644,0.652718 -2.0234251,0.652718 -1.7297021,0 -2.7740495,-0.848533 -3.1330449,-2.610872 z M 8.8163339,5.4291872 c 1.0443484,0 1.8928811,0.4242667 2.6108711,1.2075283 0.685354,0.8158974 1.044349,1.8276103 1.044349,3.0025026 0,1.2075279 -0.358995,2.1866049 -1.044349,2.9698669 -0.685354,0.783261 -1.5338867,1.174892 -2.5782351,1.174892 -1.0769834,0 -1.9581531,-0.391631 -2.6108705,-1.174892 -0.6853536,-0.783262 -1.0117126,-1.762339 -1.0117126,-3.0025028 0,-1.1748923 0.326359,-2.1866052 1.0117126,-2.9698667 C 6.9234528,5.8534539 7.7719865,5.4291872 8.8163339,5.4291872 Z"
       id="text7"
       aria-label="9" />
  </g>
</svg>
