<?xml version="1.0" encoding="UTF-8" standalone="no"?>
<!-- Created with Inkscape (http://www.inkscape.org/) -->

<svg
   width="250"
   height="80"
   viewBox="0 0 66.145824 21.166666"
   version="1.1"
   id="svg1"
   sodipodi:docname="amm_ins.svg"
   inkscape:version="1.4.2 (f4327f4, 2025-05-13)"
   xmlns:inkscape="http://www.inkscape.org/namespaces/inkscape"
   xmlns:sodipodi="http://sodipodi.sourceforge.net/DTD/sodipodi-0.dtd"
   xmlns="http://www.w3.org/2000/svg"
   xmlns:svg="http://www.w3.org/2000/svg">
  <sodipodi:namedview
     id="namedview1"
     pagecolor="#ffffff"
     bordercolor="#ffffff"
     borderopacity="1"
     inkscape:showpageshadow="0"
     inkscape:pageopacity="0"
     inkscape:pagecheckerboard="1"
     inkscape:deskcolor="#d1d1d1"
     inkscape:document-units="mm"
     inkscape:zoom="2.0208096"
     inkscape:cx="107.13528"
     inkscape:cy="146.72337"
     inkscape:window-width="1920"
     inkscape:window-height="1111"
     inkscape:window-x="-9"
     inkscape:window-y="-9"
     inkscape:window-maximized="1"
     inkscape:current-layer="layer1" />
  <defs
     id="defs1">
    <clipPath
       id="clip_0">
      <path
         transform="matrix(1,0,0,-1,0,841.92)"
         d="M 8.871e-6,0 H 595.32 V 841.92 H 8.871e-6 Z"
         fill-rule="evenodd"
         id="path1" />
    </clipPath>
    <clipPath
       id="clip_2">
      <path
         transform="matrix(1,0,0,-1,0,841.92)"
         d="M 8.871e-6,0 H 595.32 V 841.92 H 8.871e-6 Z"
         fill-rule="evenodd"
         id="path2" />
    </clipPath>
    <clipPath
       id="clip_3">
      <path
         transform="matrix(1,0,0,-1,0,841.92)"
         d="M 8.871e-6,0 H 595.32 V 841.92 H 8.871e-6 Z"
         fill-rule="evenodd"
         id="path3" />
    </clipPath>
    <clipPath
       id="clip_4">
      <path
         transform="matrix(1,0,0,-1,0,841.92)"
         d="M 8.871e-6,0 H 595.32 V 841.92 H 8.871e-6 Z"
         fill-rule="evenodd"
         id="path4" />
    </clipPath>
    <clipPath
       id="clip_5">
      <path
         transform="matrix(1,0,0,-1,0,841.92)"
         d="M 8.871e-6,0 H 595.32 V 841.92 H 8.871e-6 Z"
         fill-rule="evenodd"
         id="path5" />
    </clipPath>
    <clipPath
       id="clip_14">
      <path
         transform="matrix(1,0,0,-1,0,841.92)"
         d="M 8.871e-6,0 H 595.32 V 841.92 H 8.871e-6 Z"
         fill-rule="evenodd"
         id="path12" />
    </clipPath>
    <clipPath
       id="clip_7">
      <path
         transform="matrix(1,0,0,-1,0,841.92)"
         d="M 8.871e-6,0 H 595.32 V 841.92 H 8.871e-6 Z"
         fill-rule="evenodd"
         id="path6" />
    </clipPath>
    <clipPath
       id="clip_23">
      <path
         transform="matrix(1,0,0,-1,0,841.92)"
         d="M 8.871e-6,0 H 595.32 V 841.92 H 8.871e-6 Z"
         fill-rule="evenodd"
         id="path19" />
    </clipPath>
    <clipPath
       id="clip_10">
      <path
         transform="matrix(1,0,0,-1,0,841.92)"
         d="M 8.871e-6,0 H 595.32 V 841.92 H 8.871e-6 Z"
         fill-rule="evenodd"
         id="path8" />
    </clipPath>
    <clipPath
       id="clip_25">
      <path
         transform="matrix(1,0,0,-1,0,841.92)"
         d="M 8.871e-6,0 H 595.32 V 841.92 H 8.871e-6 Z"
         fill-rule="evenodd"
         id="path21" />
    </clipPath>
    <clipPath
       id="clip_12">
      <path
         transform="matrix(1,0,0,-1,0,841.92)"
         d="M 8.871e-6,0 H 595.32 V 841.92 H 8.871e-6 Z"
         fill-rule="evenodd"
         id="path10" />
    </clipPath>
    <clipPath
       id="clip_20">
      <path
         transform="matrix(1,0,0,-1,0,841.92)"
         d="M 8.871e-6,0 H 595.32 V 841.92 H 8.871e-6 Z"
         fill-rule="evenodd"
         id="path16" />
    </clipPath>
    <clipPath
       id="clip_18">
      <path
         transform="matrix(1,0,0,-1,0,841.92)"
         d="M 8.871e-6,0 H 595.32 V 841.92 H 8.871e-6 Z"
         fill-rule="evenodd"
         id="path14" />
    </clipPath>
    <clipPath
       id="clip_21">
      <path
         transform="matrix(1,0,0,-1,0,841.92)"
         d="M 8.871e-6,0 H 595.32 V 841.92 H 8.871e-6 Z"
         fill-rule="evenodd"
         id="path17" />
    </clipPath>
  </defs>
  <g
     inkscape:label="Layer 1"
     inkscape:groupmode="layer"
     id="layer1">
    <path
       style="font-size:12.3088px;line-height:1;font-family:'Noto Sans TC';-inkscape-font-specification:'Noto Sans TC';fill:#282472;stroke-width:0.307721"
       d="m 2.4912871,4.4044716 h 0.9354687 v 6.2036354 q 0,0.393881 0.123088,0.603131 0.1353968,0.209249 0.4800432,0.295411 0.3569552,0.07385 1.0339392,0.07385 0.184632,0 0.6400576,0 0.4554256,0 1.0339392,0 0.5908224,0 1.1816448,0 0.6031311,0 1.0831743,0 0.492352,0 0.7508368,0 0.5046611,0 0.8123811,-0.09847 0.320028,-0.09847 0.492352,-0.356955 0.172323,-0.270793 0.258484,-0.738528 0.09847,-0.4800429 0.160015,-1.2185709 0.123088,0.086162 0.283102,0.1600144 0.172323,0.073853 0.344647,0.1353968 0.172323,0.061544 0.30772,0.086162 -0.08616,0.8493071 -0.233868,1.4155121 -0.147705,0.566205 -0.430808,0.898542 -0.270793,0.332338 -0.763145,0.480043 -0.480043,0.147706 -1.2431889,0.147706 -0.123088,0 -0.4800432,0 -0.3446464,0 -0.8369984,0 -0.4800431,0 -1.0093215,0 -0.5292784,0 -1.0093216,0 -0.4800432,0 -0.8246896,0 -0.3446464,0 -0.4677344,0 -0.9970128,0 -1.5755264,-0.160014 Q 2.9590215,12.171324 2.7251543,11.765134 2.4912871,11.358943 2.4912871,10.595798 Z m 0.5046608,2.030952 H 10.25814 V 7.3462748 H 2.9959479 Z M 1.8389207,2.2750493 H 10.848962 V 7.9617148 H 9.8888757 V 3.1982093 H 1.8389207 Z M 13.421501,8.0232588 q 0.750837,-0.184632 1.784776,-0.4677344 1.033939,-0.2954112 2.104805,-0.6031312 l 0.123088,0.8493072 q -0.972395,0.2954111 -1.957099,0.5908223 -0.984704,0.2831024 -1.784776,0.5292784 z m 0.147706,-4.0249776 h 4.123448 V 4.872206 h -4.123448 z m 1.686305,-2.4863775 h 0.898543 V 11.666663 q 0,0.381573 -0.09847,0.590823 -0.09847,0.209249 -0.344646,0.320029 -0.246176,0.09847 -0.652366,0.123088 -0.406191,0.03693 -1.03394,0.03693 -0.02462,-0.172323 -0.110779,-0.418499 -0.07385,-0.246176 -0.172323,-0.430808 0.430808,0.01231 0.787763,0.01231 0.369264,0 0.480043,0 0.135397,-0.01231 0.184632,-0.06154 0.06154,-0.04924 0.06154,-0.172324 z m 3.80342,0.4431168 h 3.224905 v 0.861616 h -3.224905 z m -1.427821,4.9973727 h 5.674356 v 0.861616 h -5.674356 z m 5.354328,0 h 0.184632 l 0.172323,-0.036926 0.603131,0.2584848 q -0.418499,1.2185711 -1.107792,2.1540399 -0.689293,0.9354685 -1.587835,1.6247615 -0.898543,0.689293 -1.957099,1.157027 -1.046248,0.467735 -2.178658,0.750837 -0.02462,-0.135397 -0.110779,-0.295411 -0.07385,-0.147706 -0.172323,-0.30772 -0.08616,-0.147706 -0.184632,-0.246176 1.058557,-0.221559 2.043261,-0.627749 0.997012,-0.40619 1.834011,-1.009321 0.849307,-0.6154405 1.477056,-1.4278213 0.640057,-0.8246896 0.984704,-1.8463199 z m -4.20961,0.6277488 q 0.504661,1.1201007 1.366277,2.0186431 0.861616,0.8862339 2.043261,1.5016739 1.181644,0.603131 2.621774,0.898542 -0.09847,0.09847 -0.221558,0.246176 -0.11078,0.160014 -0.20925,0.320029 -0.09847,0.160014 -0.160014,0.283102 -2.227893,-0.529278 -3.80342,-1.797085 -1.575526,-1.2678059 -2.437142,-3.1756698 z m 0.04923,-5.6251215 h 0.873925 V 3.333606 q 0,0.5662048 -0.147705,1.169336 -0.147706,0.5908224 -0.553896,1.1570272 -0.393882,0.553896 -1.157028,0.984704 -0.06154,-0.09847 -0.172323,-0.2215584 Q 17.557258,6.287718 17.43417,6.16463 17.311082,6.0292332 17.22492,5.9676892 17.926522,5.5861164 18.25886,5.1429996 18.603506,4.687574 18.714285,4.2198396 18.825064,3.7521052 18.825064,3.3089884 Z m 3.027965,0 h 0.886234 V 4.810662 q 0,0.2584848 0.03693,0.369264 0.04924,0.09847 0.196941,0.09847 0.08616,0 0.283102,0 0.196941,0 0.393882,0 0.196941,0 0.270793,0 0.147706,0 0.320029,-0.012309 0.172323,-0.024618 0.295411,-0.049235 0.02462,0.1723232 0.03693,0.4061904 0.01231,0.2338672 0.04923,0.3938816 -0.123088,0.036926 -0.30772,0.049235 -0.184632,0.012309 -0.369264,0.012309 -0.09847,0 -0.320029,0 -0.221558,0 -0.430808,0 -0.196941,0 -0.283102,0 -0.430808,0 -0.664675,-0.123088 Q 22.013043,5.8322924 21.926882,5.54919 21.853029,5.2660876 21.853029,4.7860444 Z m 6.425194,3.2372143 h 6.363649 v 0.8739248 h -6.363649 z m -1.575527,2.5479216 h 9.53932 v 0.8493071 h -9.53932 z M 26.1488,11.629737 h 10.659421 v 0.849307 H 26.1488 Z m 4.800432,-6.0436206 h 0.972395 V 12.048236 H 30.949232 Z M 27.748944,9.1679771 28.51209,8.8725659 q 0.233867,0.3323376 0.467734,0.738528 0.233867,0.4061901 0.418499,0.7877631 0.196941,0.381573 0.295411,0.689293 l -0.800071,0.344646 Q 28.807501,11.137385 28.622869,10.743503 28.438237,10.349622 28.20437,9.9311227 27.982811,9.5126235 27.748944,9.1679771 Z m 6.585208,-0.30772 0.873925,0.3446464 q -0.344647,0.5785136 -0.738528,1.2062625 -0.393882,0.61544 -0.726219,1.033939 l -0.701602,-0.295411 q 0.221558,-0.30772 0.455426,-0.701602 0.233867,-0.40619 0.455425,-0.8246893 0.221559,-0.4184992 0.381573,-0.7631456 z M 31.823157,2.0288733 q 0.443117,0.5169696 1.070865,1.0339392 0.627749,0.5046607 1.353968,0.9600863 0.738528,0.4431168 1.513983,0.8123808 0.775454,0.3569552 1.513982,0.5908224 -0.110779,0.09847 -0.233867,0.246176 Q 36.919,5.8076748 36.808221,5.9553804 36.697442,6.103086 36.623589,6.226174 35.885061,5.9553804 35.109606,5.54919 34.346461,5.1429996 33.595624,4.6383388 32.857096,4.133678 32.20473,3.5674732 31.552363,3.0012685 31.060011,2.4104461 Z M 31.453893,1.4011245 32.315509,1.7826973 Q 31.650834,2.7920189 30.703056,3.6536348 29.767587,4.502942 28.647487,5.1676172 27.527386,5.8322924 26.321123,6.2754092 26.210344,6.0661596 26.038021,5.8322924 25.865698,5.5861164 25.681066,5.426102 26.850402,5.0445292 27.945885,4.4537068 29.041368,3.8628844 29.952219,3.0874301 30.875379,2.3119757 31.453893,1.4011245 Z m 6.929854,1.292424 h 5.206622 V 4.7737356 H 42.851841 V 3.456694 h -3.766492 v 1.3170416 h -0.701602 z m 0.750837,6.3390318 h 3.852654 V 12.774455 H 42.15024 V 9.7834171 h -2.215584 v 3.0033469 h -0.800072 z m 0.30772,2.6094657 h 3.249523 v 0.750837 H 39.442304 Z M 40.143905,3.8751932 40.894742,4.01059 Q 40.599331,4.8229708 40.09467,5.5984252 39.590009,6.3615708 38.789938,6.9770108 38.703776,6.8169964 38.55607,6.6323644 38.420674,6.4477324 38.297586,6.3615708 39.023805,5.8446012 39.47923,5.179926 39.934656,4.5152508 40.143905,3.8751932 Z m 0.08616,0.8493072 h 2.203275 v 0.7262192 h -2.510995 z m 2.006334,0 h 0.160015 l 0.147705,-0.036926 0.467735,0.3446464 q -0.418499,1.107792 -1.13241,1.969408 -0.71391,0.8493072 -1.587835,1.4647471 -0.861616,0.6031312 -1.784776,0.984704 Q 38.4576,9.3403003 38.371438,9.1925947 38.285277,9.0448891 38.199115,8.9094923 38.112954,8.7740955 38.026792,8.6879339 38.925334,8.3679051 39.750024,7.826318 q 0.836998,-0.5415872 1.489365,-1.2801152 0.652366,-0.738528 0.997012,-1.661688 z m -1.969408,-2.9294943 0.72622,-0.2831024 q 0.172323,0.3446464 0.344646,0.7508368 0.184632,0.4061904 0.283102,0.676984 L 40.833198,3.272062 Q 40.759345,2.9889597 40.587022,2.5704605 40.414699,2.1396525 40.266993,1.7950061 Z m 3.704949,0.30772 h 5.391254 v 0.800072 h -5.391254 z m 1.218571,4.6404175 V 7.887862 h 2.892568 V 6.7431436 Z m 0,1.8463199 v 1.1816448 h 2.892568 V 8.5894635 Z m 0,-3.7172575 v 1.1324096 h 2.892568 V 4.872206 Z M 44.353515,4.1090604 h 4.6158 v 6.4128846 h -4.6158 z m 1.907864,-1.6124527 0.873925,0.1600144 q -0.135397,0.5046608 -0.283103,1.0339391 -0.135396,0.5169696 -0.258484,0.8985424 l -0.701602,-0.184632 q 0.09847,-0.4061904 0.20925,-0.9477776 0.110779,-0.5415871 0.160014,-0.9600863 z m -0.590822,8.2222783 0.627748,0.578513 q -0.541587,0.430808 -1.255497,0.861616 -0.701602,0.443117 -1.304733,0.738528 -0.07385,-0.147705 -0.196941,-0.356955 -0.123088,-0.196941 -0.221558,-0.332337 0.381573,-0.184632 0.824689,-0.430808 0.443117,-0.258485 0.849308,-0.529279 0.40619,-0.283102 0.676984,-0.529278 z m 1.255497,0.541587 0.492352,-0.590822 q 0.344647,0.221558 0.726219,0.492352 0.393882,0.270793 0.738528,0.553896 0.356955,0.270793 0.590823,0.50466 l -0.541588,0.652367 q -0.209249,-0.233867 -0.553895,-0.529279 -0.344647,-0.283102 -0.72622,-0.566204 -0.381572,-0.295412 -0.726219,-0.51697 z M 39.491539,6.7677612 40.020817,6.2015564 q 0.430808,0.2584848 0.92316,0.553896 0.492352,0.2831024 0.984704,0.5908224 0.492352,0.30772 0.92316,0.5908224 0.443117,0.2707935 0.763146,0.4923519 l -0.553896,0.676984 Q 42.667209,8.7987131 42.051769,8.3925227 41.436329,7.9863324 40.759345,7.5555244 40.09467,7.1247164 39.491539,6.7677612 Z M 56.083801,5.1553084 q -0.369264,0 -0.652366,-0.246176 -0.283103,-0.2584848 -0.283103,-0.676984 0,-0.4184992 0.283103,-0.6646752 0.283102,-0.2584848 0.652366,-0.2584848 0.369264,0 0.652367,0.2584848 0.283102,0.246176 0.283102,0.6646752 0,0.4184992 -0.283102,0.676984 -0.283103,0.246176 -0.652367,0.246176 z m 0,6.0313116 q -0.369264,0 -0.652366,-0.246176 -0.283103,-0.258485 -0.283103,-0.676984 0,-0.4308077 0.283103,-0.6769837 0.283102,-0.2584848 0.652366,-0.2584848 0.369264,0 0.652367,0.2584848 0.283102,0.246176 0.283102,0.6769837 0,0.418499 -0.283102,0.676984 -0.283103,0.246176 -0.652367,0.246176 z"
       id="text1"
       aria-label="已投金額：" />
    <path
       style="font-weight:bold;font-size:5.78226px;line-height:1;font-family:Helvetica;-inkscape-font-specification:'Helvetica Bold';fill:#282472;stroke-width:0.144557"
       d="m 2.4813071,17.728859 h 1.05594 L 3.0177472,16.091305 Z m 0.053644,-2.58903 h 0.9825324 l 1.4737987,4.161647 H 4.0482769 l -0.26822,-0.855481 H 2.2469674 L 1.9589838,19.301476 H 1.0498589 Z m 0.4856195,0 z m 5.8726079,1.016413 q 0.2032826,0 0.4009185,0.07906 0.1976358,0.07905 0.3585678,0.27669 0.129875,0.160932 0.1750489,0.395272 0.028234,0.155285 0.028234,0.454562 l -0.00565,1.939655 H 9.0258769 v -1.959419 q 0,-0.175049 -0.056467,-0.287983 -0.107288,-0.214576 -0.3952717,-0.214576 -0.3331575,0 -0.4602091,0.27669 -0.064938,0.146815 -0.064938,0.352921 v 1.832367 h -0.810307 v -1.832367 q 0,-0.273867 -0.056467,-0.398095 -0.1016413,-0.223046 -0.3980951,-0.223046 -0.344451,0 -0.4630325,0.223046 -0.064938,0.127052 -0.064938,0.378331 v 1.852131 H 5.4401981 V 16.22965 h 0.7820733 v 0.448916 q 0.1496385,-0.239987 0.2823369,-0.341628 0.2343396,-0.180696 0.6070243,-0.180696 0.3529212,0 0.5703206,0.155286 0.1750489,0.143991 0.2653967,0.369861 0.1581087,-0.271043 0.3924483,-0.398095 0.2484565,-0.127052 0.5533803,-0.127052 z m 3.0831185,2.577736 q 0.352921,0 0.542087,-0.25128 0.189166,-0.251279 0.189166,-0.714312 0,-0.463032 -0.189166,-0.711489 -0.189166,-0.25128 -0.542087,-0.25128 -0.352921,0 -0.54491,0.25128 -0.189166,0.248457 -0.189166,0.711489 0,0.463033 0.189166,0.714312 0.191989,0.25128 0.54491,0.25128 z m 1.57544,-0.965592 q 0,0.677609 -0.389625,1.160405 -0.389625,0.479973 -1.182992,0.479973 -0.793366,0 -1.182991,-0.479973 -0.389625,-0.482796 -0.389625,-1.160405 0,-0.666315 0.389625,-1.154758 0.389625,-0.488443 1.182991,-0.488443 0.793367,0 1.182992,0.488443 0.389625,0.488443 0.389625,1.154758 z M 11.97912,16.142125 Z m 2.950422,0.08188 v 1.854954 q 0,0.262573 0.06211,0.395271 0.110112,0.23434 0.431976,0.23434 0.412212,0 0.564674,-0.333158 0.07905,-0.180695 0.07905,-0.477149 v -1.674258 h 0.815954 v 3.077473 H 16.10124 v -0.434799 q -0.01129,0.01412 -0.05647,0.0847 -0.04517,0.07058 -0.107288,0.124228 -0.189166,0.169402 -0.367038,0.231516 -0.175049,0.06211 -0.412212,0.06211 -0.683255,0 -0.920418,-0.491266 -0.132699,-0.271043 -0.132699,-0.799013 v -1.854954 z m 0.564674,-0.08188 z m 3.870838,0.0085 q 0.47715,0 0.77925,0.251279 0.304924,0.248457 0.304924,0.827248 v 2.072353 h -0.824424 v -1.871894 q 0,-0.24281 -0.06494,-0.372685 -0.118582,-0.237163 -0.451739,-0.237163 -0.409389,0 -0.561851,0.347274 -0.07905,0.183519 -0.07905,0.46868 v 1.665788 H 17.665386 V 16.22965 h 0.776427 v 0.448916 q 0.155285,-0.237163 0.29363,-0.341628 0.248456,-0.186342 0.629611,-0.186342 z m -0.296454,-0.0085 z m 1.806958,0.683256 v -0.573144 h 0.429152 v -0.858304 h 0.79619 v 0.858304 h 0.499736 v 0.573144 H 22.1009 v 1.62626 q 0,0.189166 0.048,0.237163 0.048,0.04517 0.293631,0.04517 0.0367,0 0.07623,0 0.04235,-0.0028 0.08188,-0.0056 v 0.601377 l -0.381155,0.01412 Q 21.649161,19.36359 21.440232,19.14619 21.30471,19.007845 21.30471,18.719861 v -1.89448 z m 4.709379,2.476095 h -0.863951 v -4.161647 h 0.863951 z m -0.431976,-4.243524 z m 2.88266,1.092644 q 0.477149,0 0.77925,0.251279 0.304924,0.248457 0.304924,0.827248 v 2.072353 h -0.824424 v -1.871894 q 0,-0.24281 -0.06494,-0.372685 -0.118581,-0.237163 -0.451739,-0.237163 -0.409388,0 -0.56185,0.347274 -0.07905,0.183519 -0.07905,0.46868 v 1.665788 H 26.335953 V 16.22965 h 0.776426 v 0.448916 q 0.155285,-0.237163 0.29363,-0.341628 0.248457,-0.186342 0.629612,-0.186342 z m -0.296454,-0.0085 z m 2.749963,2.176818 q 0.02541,0.214576 0.110111,0.304924 0.149639,0.160932 0.55338,0.160932 0.237163,0 0.375508,-0.07058 0.141169,-0.07058 0.141169,-0.211753 0,-0.135522 -0.112935,-0.206106 -0.112935,-0.07058 -0.83854,-0.24281 -0.522324,-0.129875 -0.7369,-0.324687 -0.214576,-0.191989 -0.214576,-0.55338 0,-0.426329 0.333158,-0.731253 0.335981,-0.307747 0.943005,-0.307747 0.575967,0 0.937358,0.231516 0.364215,0.228693 0.417859,0.793367 h -0.80466 q -0.01694,-0.155286 -0.08753,-0.245633 -0.132698,-0.163756 -0.451739,-0.163756 -0.262573,0 -0.375508,0.08188 -0.110111,0.08188 -0.110111,0.191989 0,0.138345 0.118581,0.200459 0.118582,0.06494 0.838541,0.223046 0.479973,0.112935 0.719959,0.341628 0.237163,0.231516 0.237163,0.578791 0,0.457386 -0.341627,0.748193 -0.338805,0.287983 -1.050294,0.287983 -0.725606,0 -1.07288,-0.304924 -0.344451,-0.307747 -0.344451,-0.782073 z m 0.615494,-2.176818 z m 3.187583,0.663492 q -0.279514,0 -0.434799,0.175049 -0.152462,0.175049 -0.191989,0.474326 h 1.250752 q -0.01976,-0.319041 -0.194812,-0.482796 -0.172226,-0.166579 -0.429152,-0.166579 z m 0,-0.663492 q 0.383978,0 0.691725,0.143992 0.307748,0.143992 0.508207,0.454563 0.180695,0.273867 0.234339,0.635258 0.03106,0.211752 0.02541,0.609848 h -2.106234 q 0.01694,0.463032 0.290807,0.649374 0.166579,0.115759 0.400919,0.115759 0.248456,0 0.403742,-0.141169 0.0847,-0.07623 0.149638,-0.211753 h 0.821601 q -0.03106,0.273867 -0.285161,0.556204 -0.395271,0.448916 -1.10676,0.448916 -0.587261,0 -1.036177,-0.378332 -0.448916,-0.378331 -0.448916,-1.230989 0,-0.799013 0.403742,-1.225342 0.406565,-0.426329 1.053117,-0.426329 z m 0.05647,0 z m 3.616735,0.0085 q 0.02259,0 0.0367,0.0028 0.01694,0 0.07058,0.0028 v 0.824424 q -0.07623,-0.0085 -0.135522,-0.01129 -0.05929,-0.0028 -0.09599,-0.0028 -0.48562,0 -0.652198,0.316218 -0.09317,0.177872 -0.09317,0.547733 v 1.470976 h -0.810306 v -3.077473 h 0.767956 v 0.53644 q 0.186342,-0.307747 0.324687,-0.420682 0.22587,-0.189165 0.587261,-0.189165 z m 0.262573,0.674785 v -0.573144 h 0.429152 v -0.858304 h 0.796191 v 0.858304 h 0.499736 v 0.573144 h -0.499736 v 1.62626 q 0,0.189166 0.048,0.237163 0.048,0.04517 0.29363,0.04517 0.0367,0 0.07623,0 0.04235,-0.0028 0.08188,-0.0056 v 0.601377 l -0.381155,0.01412 q -0.57032,0.01976 -0.77925,-0.197636 -0.135522,-0.138345 -0.135522,-0.426329 v -1.89448 z m 3.455807,-0.01976 q -0.279513,0 -0.434798,0.175049 -0.152462,0.175049 -0.19199,0.474326 h 1.250753 q -0.01976,-0.319041 -0.194813,-0.482796 -0.172225,-0.166579 -0.429152,-0.166579 z m 0,-0.663492 q 0.383979,0 0.691726,0.143992 0.307747,0.143992 0.508206,0.454563 0.180696,0.273867 0.23434,0.635258 0.03106,0.211752 0.02541,0.609848 h -2.106233 q 0.01694,0.463032 0.290807,0.649374 0.166579,0.115759 0.400918,0.115759 0.248457,0 0.403742,-0.141169 0.0847,-0.07623 0.149639,-0.211753 h 0.8216 q -0.03106,0.273867 -0.28516,0.556204 -0.395272,0.448916 -1.106761,0.448916 -0.587261,0 -1.036176,-0.378332 -0.448916,-0.378331 -0.448916,-1.230989 0,-0.799013 0.403742,-1.225342 0.406565,-0.426329 1.053116,-0.426329 z m 0.05647,0 z m 3.080295,0.0085 q 0.279513,0 0.496912,0.124228 0.2174,0.121405 0.352922,0.338804 v -1.468152 h 0.815953 v 4.156 h -0.782073 v -0.426329 q -0.172225,0.273867 -0.392448,0.398095 -0.220223,0.124228 -0.547734,0.124228 -0.539263,0 -0.909125,-0.434799 -0.367038,-0.437622 -0.367038,-1.120877 0,-0.78772 0.361392,-1.239459 0.364214,-0.451739 0.971239,-0.451739 z m 0.175048,2.569265 q 0.341628,0 0.5195,-0.254103 0.177873,-0.254103 0.177873,-0.657845 0,-0.564674 -0.285161,-0.807483 -0.175049,-0.146815 -0.406565,-0.146815 -0.352921,0 -0.5195,0.26822 -0.163755,0.265396 -0.163755,0.660668 0,0.426329 0.166579,0.683255 0.169402,0.254103 0.511029,0.254103 z"
       id="text2"
       transform="scale(1.023827,0.97672751)"
       aria-label="Amount Inserted" />
  </g>
</svg>
