<?xml version="1.0" encoding="UTF-8" standalone="no"?>
<!-- Created with Inkscape (http://www.inkscape.org/) -->

<svg
   width="400"
   height="300"
   viewBox="0 0 105.83334 79.374998"
   version="1.1"
   id="svg1"
   xml:space="preserve"
   inkscape:version="1.4.2 (f4327f4, 2025-05-13)"
   sodipodi:docname="bg_tpass_success.svg"
   xmlns:inkscape="http://www.inkscape.org/namespaces/inkscape"
   xmlns:sodipodi="http://sodipodi.sourceforge.net/DTD/sodipodi-0.dtd"
   xmlns="http://www.w3.org/2000/svg"
   xmlns:svg="http://www.w3.org/2000/svg"><sodipodi:namedview
     id="namedview1"
     pagecolor="#505050"
     bordercolor="#ffffff"
     borderopacity="1"
     inkscape:showpageshadow="0"
     inkscape:pageopacity="0"
     inkscape:pagecheckerboard="1"
     inkscape:deskcolor="#d1d1d1"
     inkscape:document-units="mm"
     inkscape:zoom="1.0104048"
     inkscape:cx="106.88785"
     inkscape:cy="119.25913"
     inkscape:window-width="1920"
     inkscape:window-height="1009"
     inkscape:window-x="1912"
     inkscape:window-y="-8"
     inkscape:window-maximized="1"
     inkscape:current-layer="layer1" /><defs
     id="defs1"><rect
       x="42.06235"
       y="112.33122"
       width="239.5051"
       height="43.052053"
       id="rect5" /><clipPath
       clipPathUnits="userSpaceOnUse"
       id="clipPath2"><rect
         style="fill:#ffffff;fill-opacity:1;stroke:none;stroke-width:0.789001;stroke-opacity:1;paint-order:fill markers stroke"
         id="rect3"
         width="30.960047"
         height="19.408892"
         x="66.249504"
         y="27.129927"
         ry="2.3567305" /></clipPath></defs><g
     inkscape:label="Layer 1"
     inkscape:groupmode="layer"
     id="layer1"><path
       id="rect4"
       style="fill:#49b4e2;stroke-width:1.54469"
       d="M 0,0 H 105.83334 V 79.375 H 0 Z" /><g
       id="g8"
       transform="matrix(1.0721986,0,0,1.0721986,-14.421118,-1.0247359)"><path
         style="font-size:5.02047px;line-height:1;font-family:'Noto Sans TC';-inkscape-font-specification:'Noto Sans TC';fill:#ff0000;stroke-width:0.125512"
         d="m 28.263535,61.191189 h 2.701013 v 0.291188 h -2.701013 z m 0.125512,0.602457 h 2.480112 v 0.276126 h -2.480112 z m -0.185758,0.612497 h 2.806443 v 0.291187 h -2.806443 z m 1.194872,-1.621612 h 0.366494 v 1.777247 h -0.366494 z m 0.968951,2.214028 h 0.351433 v 2.013208 c 0,0.09037 -0.01171,0.160655 -0.03514,0.21086 -0.02008,0.05021 -0.06359,0.0887 -0.130532,0.115471 -0.06694,0.02677 -0.153961,0.04183 -0.261064,0.04518 -0.103757,0.0067 -0.235962,0.01004 -0.396617,0.01004 -0.0067,-0.04686 -0.02008,-0.100412 -0.04016,-0.160655 -0.02008,-0.0569 -0.04351,-0.107105 -0.07029,-0.150614 0.117145,0.0033 0.220901,0.005 0.311269,0.005 h 0.190778 c 0.03347,0 0.05522,-0.0067 0.06527,-0.02008 0.01004,-0.01004 0.01506,-0.02845 0.01506,-0.05523 z m -1.676837,0.667722 h 1.852553 v 0.271105 h -1.852553 z m 0,0.647641 h 1.852553 v 0.266085 H 28.690255 Z M 28.499477,62.99858 h 0.346412 v 0.933807 c 0,0.153961 -0.01004,0.322984 -0.03012,0.507067 -0.02008,0.184084 -0.06024,0.364821 -0.120491,0.542211 -0.0569,0.17739 -0.145595,0.338045 -0.266085,0.481965 -0.01673,-0.02677 -0.04184,-0.0569 -0.07531,-0.09037 -0.03012,-0.03012 -0.06192,-0.06024 -0.09539,-0.09037 -0.03347,-0.03012 -0.06359,-0.05188 -0.09037,-0.06527 0.100409,-0.127185 0.174043,-0.264411 0.220901,-0.411678 0.04686,-0.150614 0.07698,-0.301228 0.09037,-0.451843 0.01339,-0.153961 0.02008,-0.297881 0.02008,-0.43176 z m 0.205839,0 h 1.782267 v 0.296207 h -1.782267 z m -2.173863,-0.732989 h 1.470997 v 0.301228 h -1.470997 z m 0.205839,1.375609 h 1.255117 v 1.465977 h -1.255117 v -0.311269 h 0.923766 v -0.838419 h -0.923766 z m -0.180737,0 h 0.331351 v 1.696919 h -0.331351 z m -0.02008,-0.687805 h 1.470998 v 0.301229 h -1.470998 z m -0.120491,-1.325404 h 1.737082 v 0.311269 h -1.737082 z m 0.597436,-0.732988 0.316289,-0.10543 c 0.05021,0.107103 0.100411,0.222574 0.150614,0.346412 0.05021,0.123839 0.0887,0.230942 0.115471,0.32131 l -0.336371,0.115471 c -0.02008,-0.09037 -0.05522,-0.199146 -0.10543,-0.326331 -0.04686,-0.130532 -0.09372,-0.247676 -0.140573,-0.351432 z m 6.762573,0.582374 h 1.857573 v 0.366494 h -1.857573 z m -2.324478,-0.381556 h 2.449989 v 0.356454 h -2.449989 z m 0.587395,1.024176 h 1.300302 v 0.341392 H 32.03891 Z m 0,1.044258 h 1.300302 v 0.341392 H 32.03891 Z m 3.479186,-1.686878 h 0.07029 l 0.06527,-0.01506 0.240983,0.06527 c -0.08033,0.669396 -0.21588,1.250097 -0.406658,1.742103 -0.190778,0.488659 -0.428414,0.903685 -0.712907,1.245077 -0.281146,0.338045 -0.602456,0.610823 -0.96393,0.818336 -0.03012,-0.04686 -0.06861,-0.102085 -0.115471,-0.165675 -0.04686,-0.06025 -0.09037,-0.108778 -0.130532,-0.145594 0.331351,-0.170696 0.630905,-0.415026 0.898664,-0.732989 0.267759,-0.317963 0.492006,-0.704539 0.672743,-1.159728 0.184084,-0.455189 0.311269,-0.977318 0.381556,-1.566387 z m -1.285241,0.386576 c 0.09037,0.481965 0.217554,0.930461 0.381556,1.345486 0.164002,0.415026 0.368168,0.779847 0.612497,1.094463 0.247677,0.311269 0.543885,0.555599 0.888624,0.732988 -0.02677,0.02343 -0.0569,0.05355 -0.09037,0.09037 -0.03347,0.03682 -0.06526,0.07364 -0.09539,0.11045 -0.03012,0.04017 -0.05522,0.07698 -0.07531,0.110451 -0.364821,-0.204166 -0.67609,-0.471925 -0.933807,-0.803276 -0.254371,-0.334698 -0.466904,-0.721274 -0.6376,-1.159728 -0.167349,-0.441801 -0.304575,-0.92544 -0.411679,-1.450916 z m -2.394764,-0.632579 h 0.361474 v 3.258285 h -0.361474 z m 1.345486,0 h 0.366494 v 4.16197 h -0.366494 z m -1.837492,3.152855 c 0.167349,-0.02343 0.358127,-0.04853 0.572334,-0.07531 0.214207,-0.03012 0.441801,-0.06192 0.682784,-0.09539 0.244329,-0.03681 0.488659,-0.07363 0.732988,-0.11045 l 0.02008,0.346412 c -0.344739,0.0569 -0.689478,0.113799 -1.034217,0.170696 -0.341392,0.05355 -0.64262,0.09874 -0.903684,0.135553 z M 38.10866,62.491512 V 63.6412 h 1.224994 V 62.491512 Z M 37.752204,62.15012 h 1.952963 v 1.827451 H 37.752204 Z M 36.64268,60.990391 h 4.202134 v 4.407973 h -0.401638 v -4.031437 h -3.413919 v 4.031437 H 36.64268 Z m 0.220901,3.780415 h 3.810537 v 0.356453 h -3.810537 z m 7.631114,-0.306249 0.271106,-0.190778 c 0.137226,0.07029 0.281146,0.152288 0.43176,0.246003 0.153961,0.09371 0.299555,0.187431 0.436781,0.281146 0.140573,0.09372 0.256044,0.179063 0.346412,0.256044 l -0.291187,0.225921 c -0.08367,-0.07698 -0.192451,-0.164001 -0.32633,-0.261064 -0.133879,-0.09372 -0.2778,-0.190778 -0.431761,-0.291187 -0.150614,-0.100409 -0.296208,-0.189104 -0.436781,-0.266085 z M 42.130054,63.169276 H 45.4034 v 0.301228 h -3.273346 z m -0.607477,0.64764 h 4.493321 v 0.31629 h -4.493321 z m 0.05523,-2.831545 h 4.337686 v 0.311269 h -4.337686 z m 1.034217,3.273347 0.351433,0.120491 c -0.100409,0.117144 -0.217554,0.234288 -0.351433,0.351433 -0.133879,0.113797 -0.274453,0.219227 -0.42172,0.316289 -0.14392,0.09706 -0.286167,0.182411 -0.42674,0.256044 -0.01673,-0.02343 -0.04351,-0.05188 -0.08033,-0.08535 -0.03682,-0.03347 -0.07364,-0.06526 -0.11045,-0.09539 -0.03347,-0.03012 -0.06526,-0.05522 -0.09539,-0.07531 0.214207,-0.09372 0.423393,-0.209186 0.627558,-0.346412 0.207513,-0.140573 0.376536,-0.28784 0.507068,-0.441801 z m -0.381556,-2.284314 v 0.577354 h 3.072528 V 61.974404 Z M 41.87903,61.683216 h 3.795476 v 1.159729 H 41.87903 Z m 1.114545,-0.582374 h 0.346412 v 1.60655 h -0.346412 z m 1.144667,0 h 0.356453 v 1.60655 h -0.356453 z m -0.562293,2.801422 h 0.371515 v 1.511162 h -0.371515 z m 2.957057,-1.270179 h 4.503361 V 63.0036 h -4.503361 z m 2.178884,-1.134626 h 1.81741 v 0.361474 h -1.81741 z m -0.235962,-0.712907 h 0.391596 v 2.02325 h -0.391596 z m 0.01506,2.103577 h 0.391597 v 2.515256 h -0.391597 z m 0.461883,0.948869 0.195799,-0.291187 c 0.130532,0.05021 0.271105,0.105432 0.421719,0.165675 0.153961,0.06025 0.306249,0.122166 0.456863,0.185758 0.153961,0.06359 0.297881,0.125512 0.43176,0.185757 0.137227,0.06025 0.254371,0.115472 0.351433,0.165676 l -0.205839,0.331351 c -0.09371,-0.05021 -0.207513,-0.107105 -0.341392,-0.170696 -0.130532,-0.06359 -0.272779,-0.12886 -0.42674,-0.195799 -0.150614,-0.06694 -0.302902,-0.132205 -0.456863,-0.195798 -0.150614,-0.06694 -0.292861,-0.127185 -0.42674,-0.180737 z"
         id="text7"
         aria-label="加值成功  請取回票卡"
         sodipodi:nodetypes="ccccccccccccccccccccccscsccccsscscccccccccccccssccsscccscccccccccccccccccccccccccccccccccccccscccccccccccccccccccccccccccccccccsccccsccscccccccccccccccccccccccccccccccccccccccccccccccccccccccccccccccccccccccccccccscccsccccccccccccccccccccccccccccccccccccccccccccccccccccccccc" /><path
         style="font-weight:bold;font-size:2.22872px;line-height:1;font-family:Helvetica;-inkscape-font-specification:'Helvetica Bold';fill:#ff0000;stroke-width:0.0557182"
         d="m 25.477282,67.023625 c 0,-0.08343 -0.02213,-0.142923 -0.06638,-0.178472 -0.04353,-0.03555 -0.104831,-0.05332 -0.183913,-0.05332 h -0.312326 v 0.472297 h 0.312326 c 0.07908,0 0.140383,-0.01923 0.183913,-0.05768 0.04425,-0.03845 0.06638,-0.0994 0.06638,-0.182825 z m 0.331914,-0.0022 c 0,0.189354 -0.04788,0.323208 -0.143648,0.401561 -0.09577,0.07835 -0.232521,0.11753 -0.410267,0.11753 h -0.34062 v 0.576768 h -0.333002 v -1.604068 h 0.698652 c 0.161059,0 0.289472,0.04135 0.385237,0.124059 0.09577,0.08271 0.143648,0.210757 0.143648,0.38415 z m 0.543034,1.095859 h -0.310149 v -1.604068 h 0.310149 z m 0.770475,-0.962006 c -0.07182,0 -0.127687,0.02249 -0.167589,0.06747 -0.03918,0.04498 -0.06385,0.105922 -0.074,0.182825 h 0.482092 c -0.0051,-0.08198 -0.0301,-0.14401 -0.07509,-0.186089 -0.04425,-0.04281 -0.09939,-0.06421 -0.165413,-0.06421 z m 0,-0.255737 c 0.09867,0 0.18754,0.0185 0.266619,0.0555 0.07908,0.037 0.144374,0.0954 0.195884,0.175207 0.04643,0.07037 0.07654,0.151991 0.09032,0.244854 0.008,0.05441 0.01125,0.132767 0.0098,0.235061 H 26.8735 c 0.0043,0.118981 0.0417,0.202412 0.112089,0.250295 0.04281,0.02975 0.09432,0.04462 0.15453,0.04462 0.06385,0 0.11572,-0.01814 0.155619,-0.05441 0.02177,-0.01959 0.04099,-0.04679 0.05768,-0.08162 h 0.316679 c -0.008,0.07037 -0.04462,0.141834 -0.109913,0.214384 -0.101569,0.115353 -0.243765,0.17303 -0.42659,0.17303 -0.150903,0 -0.284032,-0.04861 -0.399385,-0.145824 -0.115354,-0.09722 -0.173031,-0.255375 -0.173031,-0.474474 0,-0.205315 0.05187,-0.362747 0.155619,-0.472297 0.104471,-0.10955 0.239776,-0.164325 0.405914,-0.164325 z m 1.425592,0.640975 c -0.01959,0.01233 -0.03954,0.02249 -0.05985,0.03047 -0.01959,0.0073 -0.04679,0.01415 -0.08162,0.02068 l -0.06965,0.01306 c -0.06529,0.01161 -0.112088,0.02575 -0.140383,0.04244 -0.04788,0.02829 -0.07182,0.07219 -0.07182,0.131677 0,0.05296 0.01451,0.09141 0.04353,0.115354 0.02975,0.02321 0.06566,0.03482 0.107736,0.03482 0.06675,0 0.12805,-0.01959 0.183913,-0.05877 0.05659,-0.03917 0.08597,-0.110634 0.08815,-0.214383 z M 28.360031,67.39578 c 0.05731,-0.0073 0.0983,-0.01632 0.122972,-0.02721 0.04425,-0.01886 0.06638,-0.04824 0.06638,-0.08815 0,-0.04861 -0.01705,-0.08198 -0.05115,-0.100118 -0.03337,-0.01886 -0.08271,-0.02829 -0.148001,-0.02829 -0.07327,0 -0.125148,0.01814 -0.155619,0.05441 -0.02177,0.02685 -0.03628,0.06312 -0.04353,0.108824 h -0.299267 c 0.0065,-0.103746 0.03555,-0.188992 0.08706,-0.255737 0.08198,-0.104471 0.222727,-0.156707 0.422238,-0.156707 0.129863,0 0.245217,0.02575 0.346061,0.07726 0.100843,0.05151 0.151265,0.14873 0.151265,0.291649 v 0.544121 c 0,0.03773 7.33e-4,0.08343 0.0022,0.137119 0.0022,0.04063 0.0084,0.0682 0.0185,0.08271 0.01016,0.01451 0.0254,0.02648 0.04571,0.03591 v 0.04571 h -0.337355 c -0.0094,-0.02394 -0.01596,-0.04643 -0.01959,-0.06747 -0.0036,-0.02104 -0.0065,-0.04498 -0.0087,-0.07182 -0.04281,0.04643 -0.09214,0.08597 -0.148001,0.118619 -0.06675,0.03845 -0.142198,0.05768 -0.226355,0.05768 -0.107373,0 -0.196246,-0.03047 -0.266619,-0.09141 -0.06965,-0.06167 -0.104471,-0.148726 -0.104471,-0.261178 0,-0.145824 0.05623,-0.251383 0.168677,-0.316678 0.06167,-0.03555 0.152354,-0.06094 0.272061,-0.07618 z m 1.015326,0.342796 c 0.0065,0.05514 0.02068,0.09432 0.04244,0.11753 0.03845,0.04135 0.109552,0.06203 0.213295,0.06203 0.06094,0 0.109185,-0.0091 0.144736,-0.02721 0.03627,-0.01814 0.05441,-0.04535 0.05441,-0.08162 0,-0.03483 -0.01451,-0.06131 -0.04353,-0.07944 -0.02902,-0.01814 -0.136756,-0.04934 -0.323208,-0.09359 -0.134217,-0.03337 -0.228894,-0.07509 -0.284032,-0.125147 -0.05514,-0.04933 -0.08271,-0.120432 -0.08271,-0.213296 0,-0.109549 0.0428,-0.203501 0.128413,-0.281855 0.08633,-0.07908 0.207491,-0.118618 0.363473,-0.118618 0.148001,0 0.268433,0.02975 0.361296,0.08924 0.09359,0.05877 0.147275,0.160699 0.16106,0.305796 h -0.310149 c -0.0043,-0.0399 -0.01558,-0.07146 -0.03374,-0.09468 -0.0341,-0.04208 -0.09214,-0.06312 -0.174118,-0.06312 -0.06747,0 -0.115717,0.01052 -0.144737,0.03156 -0.02829,0.02104 -0.04244,0.04571 -0.04244,0.074 0,0.03555 0.01524,0.0613 0.04571,0.07727 0.03047,0.01669 0.138209,0.04534 0.323208,0.08597 0.123334,0.02902 0.215835,0.07291 0.277502,0.131677 0.06094,0.05949 0.09141,0.133857 0.09141,0.22309 0,0.11753 -0.04389,0.213658 -0.131677,0.288384 -0.08706,0.074 -0.222001,0.111 -0.404826,0.111 -0.186453,0 -0.324297,-0.03918 -0.413532,-0.11753 -0.08851,-0.07908 -0.132766,-0.17956 -0.132766,-0.301443 z m 1.465862,-0.583298 c -0.07182,0 -0.127687,0.02249 -0.167589,0.06747 -0.03917,0.04498 -0.06384,0.105922 -0.074,0.182825 h 0.482092 c -0.0051,-0.08198 -0.0301,-0.14401 -0.07509,-0.186089 -0.04425,-0.04281 -0.09939,-0.06421 -0.165413,-0.06421 z m 0,-0.255737 c 0.09867,0 0.18754,0.0185 0.266619,0.0555 0.07908,0.037 0.144374,0.0954 0.195884,0.175207 0.04643,0.07037 0.07654,0.151991 0.09032,0.244854 0.008,0.05441 0.01125,0.132767 0.0098,0.235061 h -0.811828 c 0.0043,0.118981 0.0417,0.202412 0.112089,0.250295 0.04281,0.02975 0.09432,0.04462 0.15453,0.04462 0.06385,0 0.11572,-0.01814 0.155619,-0.05441 0.02177,-0.01959 0.04099,-0.04679 0.05768,-0.08162 h 0.316679 c -0.008,0.07037 -0.04462,0.141834 -0.109913,0.214384 -0.101569,0.115353 -0.243765,0.17303 -0.42659,0.17303 -0.150903,0 -0.284032,-0.04861 -0.399385,-0.145824 -0.115354,-0.09722 -0.173031,-0.255375 -0.173031,-0.474474 0,-0.205315 0.05187,-0.362747 0.155619,-0.472297 0.104471,-0.10955 0.239776,-0.164325 0.405914,-0.164325 z m 1.268885,0.263355 v -0.220913 h 0.165413 v -0.330826 h 0.306884 v 0.330826 h 0.192643 v 0.220913 h -0.192619 v 0.626828 c 0,0.04861 0.0062,0.07908 0.0185,0.09141 0.01233,0.01161 0.05006,0.01741 0.113177,0.01741 h 0.02938 c 0.01088,-7.33e-4 0.0214,-0.0015 0.03156,-0.0022 v 0.231796 l -0.146913,0.0054 c -0.14655,0.0051 -0.246668,-0.02033 -0.300355,-0.07618 -0.03482,-0.03555 -0.05223,-0.09032 -0.05223,-0.164324 v -0.730211 z m 1.518098,0.37762 c -0.01959,0.01233 -0.03954,0.02249 -0.05985,0.03047 -0.01959,0.0073 -0.04679,0.01415 -0.08162,0.02068 l -0.06965,0.01306 c -0.06529,0.01161 -0.112088,0.02575 -0.140383,0.04244 -0.04788,0.02829 -0.07182,0.07219 -0.07182,0.131677 0,0.05296 0.01451,0.09141 0.04353,0.115354 0.02975,0.02321 0.06566,0.03482 0.107736,0.03482 0.06675,0 0.12805,-0.01959 0.183913,-0.05877 0.05659,-0.03917 0.08597,-0.110634 0.08815,-0.214383 z M 33.439936,67.39578 c 0.05731,-0.0073 0.0983,-0.01632 0.122972,-0.02721 0.04425,-0.01886 0.06638,-0.04824 0.06638,-0.08815 0,-0.04861 -0.01705,-0.08198 -0.05115,-0.100118 -0.03337,-0.01886 -0.08271,-0.02829 -0.148001,-0.02829 -0.07327,0 -0.125147,0.01814 -0.155618,0.05441 -0.02177,0.02685 -0.03628,0.06312 -0.04353,0.108824 h -0.299267 c 0.0065,-0.103746 0.03555,-0.188992 0.08706,-0.255737 0.08198,-0.104471 0.222727,-0.156707 0.422238,-0.156707 0.129863,0 0.245217,0.02575 0.346061,0.07726 0.100843,0.05151 0.151265,0.14873 0.151265,0.291649 v 0.544121 c 0,0.03773 7.33e-4,0.08343 0.0022,0.137119 0.0022,0.04063 0.0084,0.0682 0.0185,0.08271 0.01015,0.01451 0.02539,0.02648 0.04571,0.03591 v 0.04571 h -0.337355 c -0.0094,-0.02394 -0.01596,-0.04643 -0.01959,-0.06747 -0.0036,-0.02104 -0.0065,-0.04498 -0.0087,-0.07182 -0.04281,0.04643 -0.09214,0.08597 -0.148001,0.118619 -0.06675,0.03845 -0.142198,0.05768 -0.226355,0.05768 -0.107373,0 -0.196246,-0.03047 -0.266619,-0.09141 -0.06965,-0.06167 -0.104471,-0.148726 -0.104471,-0.261178 0,-0.145824 0.05623,-0.251383 0.168677,-0.316678 0.06167,-0.03555 0.152354,-0.06094 0.272061,-0.07618 z m 0.770472,-0.877123 h 0.304707 v 0.864064 l 0.386326,-0.446179 h 0.38415 l -0.41462,0.453797 0.430944,0.726945 h -0.374356 l -0.284031,-0.50712 -0.128413,0.133853 v 0.373267 h -0.304707 z m 1.710716,0.636621 c -0.07182,0 -0.127687,0.02249 -0.167589,0.06747 -0.03918,0.04498 -0.06385,0.105922 -0.074,0.182825 h 0.482092 c -0.0051,-0.08198 -0.0301,-0.14401 -0.07509,-0.186089 -0.04425,-0.04281 -0.09939,-0.06421 -0.165413,-0.06421 z m 0,-0.255737 c 0.09867,0 0.187541,0.0185 0.26662,0.0555 0.07908,0.037 0.144373,0.0954 0.195883,0.175207 0.04643,0.07037 0.07654,0.151991 0.09032,0.244854 0.008,0.05441 0.01125,0.132767 0.0098,0.235061 h -0.811828 c 0.0043,0.118981 0.0417,0.202412 0.112089,0.250295 0.04281,0.02975 0.09432,0.04462 0.15453,0.04462 0.06385,0 0.11572,-0.01814 0.155619,-0.05441 0.02177,-0.01959 0.04099,-0.04679 0.05768,-0.08162 h 0.316678 c -0.008,0.07037 -0.04462,0.141834 -0.109912,0.214384 -0.101569,0.115353 -0.243766,0.17303 -0.426591,0.17303 -0.150903,0 -0.284032,-0.04861 -0.399385,-0.145824 -0.115354,-0.09722 -0.173031,-0.255375 -0.173031,-0.474474 0,-0.205315 0.05187,-0.362747 0.155619,-0.472297 0.104471,-0.10955 0.239776,-0.164325 0.405914,-0.164325 z m 2.031755,0.0054 c 0.155981,0 0.277864,0.05623 0.365649,0.168677 0.08851,0.112452 0.132766,0.257551 0.132766,0.435297 0,0.184276 -0.04353,0.336993 -0.13059,0.45815 -0.08706,0.121157 -0.20858,0.181736 -0.364561,0.181736 -0.09794,0 -0.176657,-0.01959 -0.236148,-0.05877 -0.03555,-0.02321 -0.074,-0.06384 -0.115354,-0.121883 v 0.149089 H 37.301045 V 66.51544 h 0.30906 v 0.570239 c 0.03918,-0.05514 0.08235,-0.09722 0.129501,-0.126236 0.05586,-0.03627 0.126959,-0.05441 0.213296,-0.05441 z m -0.07944,0.988124 c 0.07981,0 0.141834,-0.03228 0.186089,-0.09685 0.04425,-0.06457 0.06638,-0.14945 0.06638,-0.254649 0,-0.08416 -0.01088,-0.153805 -0.03265,-0.208942 -0.04135,-0.104471 -0.11753,-0.156707 -0.228531,-0.156707 -0.112452,0 -0.189717,0.05115 -0.231796,0.153442 -0.02177,0.05441 -0.03265,0.124786 -0.03265,0.211119 0,0.101569 0.02249,0.185727 0.06747,0.252472 0.04498,0.06675 0.113539,0.100119 0.205678,0.100119 z m 1.453892,-0.352591 c -0.01959,0.01233 -0.03954,0.02249 -0.05985,0.03047 -0.01959,0.0073 -0.04679,0.01415 -0.08162,0.02068 l -0.06965,0.01306 c -0.06529,0.01161 -0.112088,0.02575 -0.140384,0.04244 -0.04788,0.02829 -0.07182,0.07219 -0.07182,0.131677 0,0.05296 0.01451,0.09141 0.04353,0.115354 0.02975,0.02321 0.06566,0.03482 0.107736,0.03482 0.06674,0 0.12805,-0.01959 0.183913,-0.05877 0.05659,-0.03917 0.08597,-0.110634 0.08815,-0.214383 z m -0.188266,-0.144736 c 0.05731,-0.0073 0.0983,-0.01632 0.122971,-0.02721 0.04425,-0.01886 0.06638,-0.04824 0.06638,-0.08815 0,-0.04861 -0.01705,-0.08198 -0.05115,-0.100118 -0.03337,-0.01886 -0.08271,-0.02829 -0.148001,-0.02829 -0.07327,0 -0.125147,0.01814 -0.155618,0.05441 -0.02177,0.02685 -0.03628,0.06312 -0.04353,0.108824 h -0.299266 c 0.0065,-0.103746 0.03555,-0.188992 0.08706,-0.255737 0.08198,-0.104471 0.222727,-0.156707 0.422238,-0.156707 0.129863,0 0.245217,0.02575 0.346061,0.07726 0.100844,0.05151 0.151266,0.14873 0.151266,0.291649 v 0.544121 c 0,0.03773 7.33e-4,0.08343 0.0022,0.137119 0.0022,0.04063 0.0084,0.0682 0.0185,0.08271 0.01016,0.01451 0.0254,0.02648 0.04571,0.03591 v 0.04571 h -0.337355 c -0.0094,-0.02394 -0.01596,-0.04643 -0.01959,-0.06747 -0.0036,-0.02104 -0.0065,-0.04498 -0.0087,-0.07182 -0.04281,0.04643 -0.09214,0.08597 -0.148001,0.118619 -0.06674,0.03845 -0.142197,0.05768 -0.226354,0.05768 -0.107373,0 -0.196247,-0.03047 -0.26662,-0.09141 -0.06965,-0.06167 -0.104471,-0.148726 -0.104471,-0.261178 0,-0.145824 0.05623,-0.251383 0.168678,-0.316678 0.06167,-0.03555 0.152353,-0.06094 0.27206,-0.07618 z m 1.48218,-0.03918 c -0.0058,-0.04425 -0.02067,-0.08415 -0.04462,-0.119706 -0.03483,-0.04788 -0.08888,-0.07182 -0.162149,-0.07182 -0.104471,0 -0.175932,0.05187 -0.214383,0.155618 -0.02031,0.05514 -0.03047,0.128415 -0.03047,0.219825 0,0.08706 0.01016,0.15707 0.03047,0.210031 0.037,0.09867 0.106647,0.148001 0.208942,0.148001 0.07255,0 0.12406,-0.01959 0.154531,-0.05876 0.03047,-0.03918 0.04897,-0.08996 0.0555,-0.152354 h 0.316678 c -0.0073,0.09431 -0.04135,0.18355 -0.102294,0.267707 -0.09722,0.135668 -0.241227,0.203502 -0.432032,0.203502 -0.190805,0 -0.331189,-0.05659 -0.42115,-0.169766 -0.08996,-0.113177 -0.134942,-0.26009 -0.134942,-0.440738 0,-0.203864 0.0497,-0.362385 0.149089,-0.475562 0.09939,-0.113177 0.236511,-0.169766 0.411355,-0.169766 0.148727,0 0.270247,0.03337 0.364562,0.100118 0.09504,0.06675 0.151265,0.184639 0.168677,0.353679 z m 0.5278,-0.837946 h 0.304707 v 0.864064 L 41.840078,66.9365 h 0.38415 l -0.41462,0.453797 0.430944,0.726945 h -0.374356 l -0.284031,-0.50712 -0.128413,0.133853 v 0.373267 h -0.304707 z m 1.909862,1.82607 0.03918,0.0022 c 0.03047,0.0015 0.05949,3.67e-4 0.08706,-0.0033 0.02757,-0.0036 0.05078,-0.01194 0.06965,-0.02503 0.01814,-0.01233 0.03483,-0.03809 0.05006,-0.07726 0.01596,-0.03918 0.02249,-0.06312 0.01959,-0.07182 L 42.88915,66.931053 h 0.344973 l 0.259002,0.874946 0.244854,-0.874946 h 0.329738 l -0.407003,1.166595 c -0.07835,0.224903 -0.140383,0.364198 -0.186089,0.417885 -0.04571,0.05441 -0.137119,0.08162 -0.274237,0.08162 -0.02757,0 -0.04969,-3.67e-4 -0.06638,-0.0011 -0.01669,0 -0.04172,-0.0011 -0.07509,-0.0033 z m 1.723777,-0.446179 c 0.09069,0 0.160335,-0.03228 0.208943,-0.09685 0.04861,-0.06457 0.07291,-0.156342 0.07291,-0.275325 0,-0.118981 -0.0243,-0.210394 -0.07291,-0.274237 -0.04861,-0.06457 -0.118254,-0.09685 -0.208943,-0.09685 -0.09069,0 -0.160697,0.03228 -0.21003,0.09685 -0.04861,0.06385 -0.07291,0.155259 -0.07291,0.274237 0,0.118981 0.0243,0.210756 0.07291,0.275325 0.04933,0.06457 0.119343,0.09685 0.21003,0.09685 z m 0.60724,-0.372179 c 0,0.174119 -0.05006,0.323208 -0.150178,0.447267 -0.100118,0.123335 -0.252109,0.185002 -0.455973,0.185002 -0.203864,0 -0.355855,-0.06167 -0.455974,-0.185002 -0.100118,-0.124059 -0.150177,-0.273148 -0.150177,-0.447267 0,-0.171217 0.05006,-0.31958 0.150177,-0.445091 0.100119,-0.125511 0.25211,-0.188266 0.455974,-0.188266 0.203864,0 0.355855,0.06275 0.455973,0.188266 0.100119,0.125511 0.150178,0.273874 0.150178,0.445091 z m 0.53106,-0.595268 v 0.714975 c 0,0.06747 0.008,0.118255 0.02394,0.152354 0.02829,0.06021 0.08379,0.09032 0.166501,0.09032 0.105923,0 0.178472,-0.0428 0.217649,-0.128413 0.02031,-0.04643 0.03047,-0.107738 0.03047,-0.183913 v -0.645327 h 0.314502 v 1.186183 h -0.301444 v -0.167589 c -0.0029,0.0036 -0.01019,0.01448 -0.02176,0.03265 -0.01161,0.01814 -0.02539,0.0341 -0.04135,0.04788 -0.04861,0.04353 -0.09576,0.07328 -0.141471,0.08924 -0.04498,0.01596 -0.09794,0.02394 -0.158883,0.02394 -0.17557,0 -0.293826,-0.06312 -0.354767,-0.189354 -0.0341,-0.06965 -0.05115,-0.172305 -0.05115,-0.307972 v -0.714975 z m 1.696572,-0.02826 c 0.0058,0 0.01052,3.67e-4 0.01415,0.0011 0.0043,0 0.0134,3.67e-4 0.02721,0.0011 v 0.317766 c -0.01959,-0.0022 -0.037,-0.0037 -0.05224,-0.0044 -0.01523,-7.33e-4 -0.02757,-0.0011 -0.037,-0.0011 -0.124785,0 -0.20858,0.04063 -0.251384,0.121883 -0.02394,0.04571 -0.03591,0.11608 -0.03591,0.211119 v 0.566974 h -0.312326 v -1.186183 h 0.296002 v 0.206766 c 0.04788,-0.07908 0.0896,-0.133129 0.125148,-0.162149 0.05804,-0.04861 0.133492,-0.07291 0.226355,-0.07291 z m 1.550744,0.453797 c -0.0058,-0.04425 -0.02067,-0.08415 -0.04462,-0.119706 -0.03483,-0.04788 -0.08888,-0.07182 -0.162148,-0.07182 -0.104471,0 -0.175933,0.05187 -0.214384,0.155618 -0.02031,0.05514 -0.03047,0.128415 -0.03047,0.219825 0,0.08706 0.01016,0.15707 0.03047,0.210031 0.037,0.09867 0.106648,0.148001 0.208943,0.148001 0.07255,0 0.124059,-0.01959 0.15453,-0.05876 0.03047,-0.03918 0.04897,-0.08997 0.0555,-0.152354 H 49.4828 c -0.0073,0.09431 -0.04135,0.18355 -0.102295,0.267707 -0.09722,0.135668 -0.241227,0.203502 -0.432032,0.203502 -0.190805,0 -0.331189,-0.05659 -0.42115,-0.169766 -0.08996,-0.113177 -0.134942,-0.26009 -0.134942,-0.440738 0,-0.203864 0.0497,-0.362385 0.149089,-0.475562 0.09939,-0.113177 0.236511,-0.169766 0.411356,-0.169766 0.148726,0 0.270246,0.03337 0.364561,0.100118 0.09504,0.06675 0.151266,0.184639 0.168677,0.353679 z m 1.185097,0.183913 c -0.01959,0.01233 -0.03954,0.02249 -0.05985,0.03047 -0.01959,0.0073 -0.04679,0.01415 -0.08162,0.02068 l -0.06965,0.01306 c -0.06529,0.01161 -0.112088,0.02575 -0.140383,0.04244 -0.04788,0.02829 -0.07182,0.07219 -0.07182,0.131677 0,0.05296 0.01451,0.09141 0.04353,0.115354 0.02975,0.02321 0.06566,0.03482 0.107736,0.03482 0.06675,0 0.12805,-0.01959 0.183913,-0.05877 0.05659,-0.03917 0.08597,-0.110634 0.08815,-0.214383 z M 50.165131,67.39577 c 0.05731,-0.0073 0.0983,-0.01632 0.122972,-0.02721 0.04425,-0.01886 0.06638,-0.04824 0.06638,-0.08815 0,-0.04861 -0.01705,-0.08198 -0.05115,-0.100118 -0.03337,-0.01886 -0.08271,-0.02829 -0.148001,-0.02829 -0.07328,0 -0.125147,0.01814 -0.155618,0.05441 -0.02177,0.02685 -0.03628,0.06312 -0.04353,0.108824 h -0.299267 c 0.0065,-0.103746 0.03555,-0.188992 0.08706,-0.255737 0.08198,-0.104471 0.222727,-0.156707 0.422238,-0.156707 0.129863,0 0.245217,0.02575 0.346061,0.07726 0.100843,0.05151 0.151265,0.14873 0.151265,0.291649 v 0.544121 c 0,0.03773 7.33e-4,0.08343 0.0022,0.137119 0.0022,0.04063 0.0084,0.0682 0.0185,0.08271 0.01015,0.01451 0.02539,0.02648 0.04571,0.03591 v 0.04571 h -0.337355 c -0.0094,-0.02394 -0.01596,-0.04643 -0.01959,-0.06747 -0.0036,-0.02104 -0.0065,-0.04498 -0.0087,-0.07182 -0.04281,0.04643 -0.09214,0.08597 -0.148001,0.118619 -0.06675,0.03845 -0.142198,0.05768 -0.226355,0.05768 -0.107373,0 -0.196246,-0.03047 -0.266619,-0.09141 -0.06965,-0.06167 -0.104471,-0.148726 -0.104471,-0.261178 0,-0.145824 0.05623,-0.251383 0.168677,-0.316678 0.06167,-0.03555 0.152354,-0.06094 0.272061,-0.07618 z m 1.417974,-0.492939 c 0.0058,0 0.01052,3.67e-4 0.01415,0.0011 0.0043,0 0.0134,3.67e-4 0.02721,0.0011 V 67.2228 c -0.01959,-0.0022 -0.037,-0.0037 -0.05224,-0.0044 -0.01523,-7.33e-4 -0.02757,-0.0011 -0.037,-0.0011 -0.124785,0 -0.20858,0.04063 -0.251384,0.121883 -0.02394,0.04571 -0.03591,0.11608 -0.03591,0.211119 v 0.566974 h -0.312325 v -1.186183 h 0.296002 v 0.206766 c 0.04788,-0.07908 0.0896,-0.133129 0.125147,-0.162149 0.05804,-0.04861 0.133492,-0.07291 0.226355,-0.07291 z m 0.660562,0 c 0.07182,0 0.135668,0.01596 0.191531,0.04788 0.05587,0.03119 0.10121,0.07472 0.13603,0.130589 v -0.56586 h 0.314502 v 1.601892 h -0.301443 v -0.164324 c -0.04425,0.07037 -0.09467,0.12152 -0.151265,0.153442 -0.05659,0.03192 -0.12696,0.04788 -0.211119,0.04788 -0.13857,0 -0.255375,-0.05586 -0.350414,-0.16759 -0.09431,-0.112451 -0.141472,-0.256462 -0.141472,-0.432032 0,-0.202413 0.04643,-0.361659 0.139295,-0.477738 0.09359,-0.116079 0.218374,-0.174119 0.374355,-0.174119 z m 0.06747,0.990301 c 0.08778,0 0.154531,-0.03265 0.200237,-0.09794 0.04571,-0.06529 0.06856,-0.149814 0.06856,-0.253561 0,-0.145099 -0.03664,-0.248844 -0.109912,-0.311237 -0.04498,-0.03773 -0.09722,-0.05659 -0.156707,-0.05659 -0.09069,0 -0.157432,0.03446 -0.200237,0.103383 -0.04208,0.0682 -0.06312,0.153079 -0.06312,0.254648 0,0.10955 0.0214,0.197335 0.06421,0.263355 0.04353,0.06529 0.109184,0.09794 0.196971,0.09794 z m 0.851008,-0.100119 h 0.329737 v 0.324296 h -0.329708 z"
         id="text8"
         aria-label="Action complete. Please take back your card."
         sodipodi:nodetypes="scsccscssssccccssscccccsccccsssscccccsccccssscssccsccscscccccscsccccssssccccccccscscccccscssccscsccccscscccscscccsccccsssscccccsccccssscsscccccccccscscccccsccccsccscscccccscsccccssssccccccccscsccccccccccccccccsccccsssscccccsccccssscssccsssccccccccccssscscssssccsccscscccccscsccccssssccccccccscscccccscscsscccssssscccccccccccccccccccccccccccccscccssscscscsscscssssscscscsccccccccscsccccccsscsccccccccccscscsscccssssscccccsccscscccccscsccccsssscsccccccscscccccccsscsccccccccccccccccsscscccssscscscssccccc" /></g></g></svg>
