<?xml version="1.0" encoding="UTF-8" standalone="no"?>
<!-- Created with Inkscape (http://www.inkscape.org/) -->

<svg
   width="400"
   height="300"
   viewBox="0 0 105.83334 79.374998"
   version="1.1"
   id="svg1"
   xml:space="preserve"
   inkscape:version="1.4.2 (f4327f4, 2025-05-13)"
   sodipodi:docname="bg_topup_success.svg"
   xmlns:inkscape="http://www.inkscape.org/namespaces/inkscape"
   xmlns:sodipodi="http://sodipodi.sourceforge.net/DTD/sodipodi-0.dtd"
   xmlns="http://www.w3.org/2000/svg"
   xmlns:svg="http://www.w3.org/2000/svg"><sodipodi:namedview
     id="namedview1"
     pagecolor="#505050"
     bordercolor="#ffffff"
     borderopacity="1"
     inkscape:showpageshadow="0"
     inkscape:pageopacity="0"
     inkscape:pagecheckerboard="1"
     inkscape:deskcolor="#d1d1d1"
     inkscape:document-units="mm"
     inkscape:zoom="1.4289282"
     inkscape:cx="168.65788"
     inkscape:cy="177.4057"
     inkscape:window-width="1920"
     inkscape:window-height="1111"
     inkscape:window-x="-9"
     inkscape:window-y="-9"
     inkscape:window-maximized="1"
     inkscape:current-layer="layer1" /><defs
     id="defs1"><rect
       x="42.06235"
       y="112.33122"
       width="239.5051"
       height="43.052053"
       id="rect5" /><clipPath
       clipPathUnits="userSpaceOnUse"
       id="clipPath2"><rect
         style="fill:#ffffff;fill-opacity:1;stroke:none;stroke-width:0.789001;stroke-opacity:1;paint-order:fill markers stroke"
         id="rect3"
         width="30.960047"
         height="19.408892"
         x="66.249504"
         y="27.129927"
         ry="2.3567305" /></clipPath></defs><g
     inkscape:label="Layer 1"
     inkscape:groupmode="layer"
     id="layer1"><path
       id="rect4"
       style="fill:#49b4e2;stroke-width:1.54469"
       d="M 0,0 H 105.83334 V 79.375 H 0 Z" /><g
       id="g8"
       transform="matrix(1.0051638,0,0,1.0051638,-0.02065296,-0.35422129)"><path
         style="font-size:5.02047px;line-height:1;font-family:'Noto Sans TC';-inkscape-font-specification:'Noto Sans TC';fill:#ff0000;stroke-width:0.125512"
         d="m 6.8963846,64.595089 h 1.3655679 v 0.361474 H 6.8963846 Z M 4.1250851,61.733421 h 1.932881 v 0.371515 h -1.932881 z m 2.605624,-0.32633 h 1.7119803 v 3.880823 H 8.0661542 V 61.773585 H 7.092183 v 3.554493 H 6.7307091 Z m -0.7731524,0.32633 h 0.3614739 q 0,0 0,0.04016 0,0.03514 0,0.08535 0,0.04518 0,0.07029 -0.015061,0.838419 -0.030123,1.410753 -0.015061,0.572333 -0.040164,0.938827 -0.025102,0.361474 -0.065266,0.557273 -0.035143,0.195798 -0.095389,0.276125 -0.070286,0.09539 -0.1455936,0.135553 -0.075307,0.04518 -0.1857574,0.06025 -0.1054299,0.01506 -0.2711054,0.01004 -0.160655,0 -0.3263305,-0.01004 -0.00502,-0.08535 -0.035143,-0.190778 -0.025102,-0.10543 -0.075307,-0.185757 0.1757165,0.01506 0.3263306,0.02008 0.1506141,0 0.2158802,0 0.055225,0.005 0.095389,-0.01004 0.040164,-0.02008 0.075307,-0.07029 0.040164,-0.05523 0.070287,-0.235962 0.030123,-0.185758 0.055225,-0.53719 0.025102,-0.351433 0.040164,-0.908706 0.015061,-0.562292 0.030123,-1.365567 z M 4.8379919,60.849818 h 0.3715148 q -0.00502,0.697846 -0.025102,1.360548 -0.020082,0.662702 -0.1054298,1.255117 -0.080328,0.592416 -0.2711054,1.089442 -0.1857574,0.492006 -0.5171085,0.85348 -0.030123,-0.04518 -0.080327,-0.09539 -0.050205,-0.04518 -0.1054299,-0.09037 -0.055225,-0.04518 -0.1054298,-0.07531 0.2510235,-0.261065 0.4066581,-0.612498 0.160655,-0.351433 0.2510235,-0.768132 0.090368,-0.421719 0.1255117,-0.893643 0.040164,-0.476945 0.045184,-0.984012 0.010041,-0.512088 0.010041,-1.039238 z m 5.6932131,0.446822 h 3.007262 v 0.336372 h -3.007262 z m -0.21588,3.634821 h 3.373756 v 0.32633 h -3.373756 z m 0.481965,-2.831546 h 2.444969 v 2.921914 h -0.351433 v -2.625706 h -1.752144 v 2.625706 H 10.79729 Z m 0.235962,0.717928 h 1.937902 v 0.281146 h -1.937902 z m -0.005,0.712906 h 2.018229 v 0.271106 h -2.018229 z m 0,0.707887 h 1.952962 v 0.276126 h -1.952962 z m 0.8585,-3.454084 0.401638,0.0251 q -0.04016,0.235962 -0.09539,0.502047 -0.05523,0.261064 -0.110451,0.502047 -0.05523,0.235962 -0.11045,0.411678 l -0.326331,-0.03514 q 0.04519,-0.180737 0.09037,-0.431761 0.05021,-0.251023 0.09037,-0.507067 0.04016,-0.256044 0.06025,-0.466904 z m -1.681858,0.005 0.346413,0.11045 q -0.155635,0.42172 -0.361474,0.838419 -0.2008188,0.411678 -0.4418013,0.778172 -0.2409826,0.366495 -0.4970266,0.652662 -0.020082,-0.04519 -0.060246,-0.115471 -0.035143,-0.07029 -0.075307,-0.140573 -0.040164,-0.07531 -0.075307,-0.120492 0.2309416,-0.246003 0.4468218,-0.567313 0.2158803,-0.32131 0.4016376,-0.687804 0.1857575,-0.366495 0.3162895,-0.74805 z m -0.5271489,1.315363 0.3464129,-0.356454 0.005,0.005 v 3.649882 H 9.6777251 Z m 5.0807159,0.562293 h 1.245076 v 0.351432 h -1.245076 z m 1.099483,0 h 0.366494 q 0,0 0,0.03012 0,0.0251 -0.005,0.06527 0,0.04016 0,0.06527 -0.01004,0.562292 -0.03012,0.913725 -0.01506,0.346413 -0.04518,0.527149 -0.0251,0.180737 -0.08033,0.251024 -0.06025,0.07029 -0.130532,0.100409 -0.06527,0.03012 -0.170696,0.04518 -0.100409,0.01004 -0.261065,0.01004 -0.160655,-0.005 -0.346412,-0.01506 -0.005,-0.08033 -0.03514,-0.175716 -0.0251,-0.10041 -0.07029,-0.175717 0.170696,0.02008 0.32131,0.0251 0.150614,0 0.21086,0 0.05523,0 0.09037,-0.01004 0.04016,-0.01004 0.07029,-0.04518 0.03514,-0.04518 0.05523,-0.200818 0.0251,-0.160655 0.03514,-0.481966 0.01506,-0.32633 0.0251,-0.868541 z m 1.410752,-1.631653 0.225921,-0.230942 q 0.160655,0.07531 0.331351,0.180737 0.175717,0.100409 0.326331,0.205839 0.150614,0.10041 0.251023,0.185758 l -0.235962,0.261064 q -0.09539,-0.09037 -0.246003,-0.195798 -0.150614,-0.110451 -0.32131,-0.21588 -0.170696,-0.10543 -0.331351,-0.190778 z m 0.722948,1.360547 0.376535,0.09539 q -0.32131,0.984012 -0.878582,1.70696 -0.557273,0.722948 -1.325404,1.17981 -0.03012,-0.04016 -0.08033,-0.100409 -0.05021,-0.05522 -0.10543,-0.115471 -0.05021,-0.05523 -0.09037,-0.09539 0.763111,-0.401637 1.29026,-1.079401 0.52715,-0.682784 0.813317,-1.591489 z m -3.20306,-0.758091 h 3.885844 v 0.366494 h -3.885844 z m -0.246003,0 h 0.391596 v 1.415773 q 0,0.266085 -0.02008,0.577354 -0.02008,0.311269 -0.07531,0.632579 -0.05523,0.32131 -0.160655,0.627559 -0.10543,0.301228 -0.281146,0.547231 -0.03012,-0.04016 -0.09037,-0.09037 -0.05523,-0.0502 -0.120492,-0.09539 -0.06025,-0.04518 -0.10543,-0.06527 0.21086,-0.31127 0.306249,-0.682784 0.100409,-0.371515 0.125512,-0.74805 0.03012,-0.381556 0.03012,-0.707887 z m 2.088515,-0.848459 h 0.391597 q -0.005,0.697845 0.0502,1.325404 0.05523,0.627559 0.155634,1.154708 0.10041,0.522129 0.240983,0.908705 0.145593,0.381556 0.316289,0.592416 0.175717,0.210859 0.366495,0.210859 0.11045,0 0.160655,-0.210859 0.05523,-0.215881 0.07531,-0.717928 0.06527,0.06025 0.155634,0.120492 0.09539,0.06024 0.170696,0.08535 -0.03514,0.43176 -0.100409,0.672743 -0.06025,0.240982 -0.180737,0.336371 -0.115471,0.100409 -0.311269,0.100409 -0.251024,0 -0.461883,-0.170696 -0.21086,-0.170696 -0.376536,-0.481965 -0.160655,-0.311269 -0.281146,-0.732988 -0.120491,-0.42674 -0.205839,-0.938828 -0.08033,-0.512088 -0.120492,-1.079401 -0.04016,-0.572334 -0.04518,-1.17479 z m 2.545379,0.587395 h 1.847533 v 0.361474 h -1.847533 z m 1.882676,0.557272 h 2.389744 v 0.361474 H 21.059151 Z M 19.919505,61.51752 h 0.371514 v 2.515255 h -0.371514 z m 3.353674,0.416699 h 0.366494 q 0,0 0,0.03514 0,0.03514 0,0.08033 0,0.04518 0,0.07029 -0.03012,0.778173 -0.06025,1.320384 -0.03012,0.542211 -0.07029,0.888623 -0.04016,0.346413 -0.09037,0.542211 -0.0502,0.195798 -0.120491,0.281146 -0.08033,0.10543 -0.170696,0.145594 -0.09037,0.04016 -0.220901,0.0502 -0.120491,0.01004 -0.32131,0.01004 -0.200818,0 -0.416699,-0.01506 -0.005,-0.08033 -0.03514,-0.190778 -0.03012,-0.10543 -0.08535,-0.180737 0.235962,0.02008 0.42674,0.0251 0.195798,0.005 0.276126,0.005 0.08033,0 0.125512,-0.01506 0.04518,-0.01506 0.08535,-0.06527 0.06024,-0.06527 0.105429,-0.246003 0.04519,-0.180737 0.08033,-0.522129 0.03514,-0.341392 0.06527,-0.863521 0.03012,-0.52715 0.06025,-1.2752 z m -4.16197,2.153782 q 0.246003,-0.05523 0.572334,-0.135553 0.32633,-0.08535 0.687804,-0.180737 0.361474,-0.100409 0.727968,-0.200819 l 0.04518,0.356454 q -0.507067,0.145593 -1.024176,0.291187 -0.512087,0.145593 -0.918746,0.256044 z m 2.806443,-3.223142 h 0.376535 q -0.005,0.582374 -0.0251,1.134626 -0.01506,0.552252 -0.09037,1.054299 -0.07029,0.502047 -0.235962,0.943848 -0.160655,0.436781 -0.456863,0.793234 -0.291187,0.356454 -0.75307,0.617518 -0.0251,-0.0502 -0.07029,-0.10543 -0.04518,-0.05523 -0.100409,-0.11045 -0.0502,-0.05021 -0.10041,-0.08033 0.441802,-0.235962 0.717928,-0.567313 0.276126,-0.331351 0.42674,-0.738009 0.155634,-0.406658 0.21588,-0.878582 0.06527,-0.471924 0.07531,-0.989033 0.01506,-0.522129 0.02008,-1.07438 z m 6.345883,0.32633 h 2.701013 v 0.291188 h -2.701013 z m 0.125512,0.602457 h 2.480112 v 0.276126 h -2.480112 z m -0.185758,0.612497 h 2.806443 v 0.291187 h -2.806443 z m 1.194872,-1.621612 h 0.366494 v 1.777247 h -0.366494 z m 0.968951,2.214028 h 0.351433 v 2.013208 q 0,0.135553 -0.03514,0.21086 -0.03012,0.07531 -0.130532,0.115471 -0.100409,0.04016 -0.261064,0.04518 -0.155635,0.01004 -0.396617,0.01004 -0.01004,-0.07029 -0.04016,-0.160655 -0.03012,-0.08535 -0.07029,-0.150614 0.175717,0.005 0.311269,0.005 0.140574,0 0.190778,0 0.0502,0 0.06527,-0.02008 0.01506,-0.01506 0.01506,-0.05523 z m -1.676837,0.667722 h 1.852553 v 0.271105 h -1.852553 z m 0,0.647641 h 1.852553 v 0.266085 H 28.690255 Z M 28.499477,62.99858 h 0.346412 v 0.933807 q 0,0.230942 -0.03012,0.507067 -0.03012,0.276126 -0.120491,0.542211 -0.08535,0.266085 -0.266085,0.481965 -0.0251,-0.04016 -0.07531,-0.09037 -0.04518,-0.04518 -0.09539,-0.09037 -0.0502,-0.04518 -0.09037,-0.06527 0.150614,-0.190778 0.220901,-0.411678 0.07029,-0.225921 0.09037,-0.451843 0.02008,-0.230941 0.02008,-0.43176 z m 0.205839,0 h 1.782267 v 0.296207 h -1.782267 z m -2.173863,-0.732989 h 1.470997 v 0.301228 h -1.470997 z m 0.205839,1.375609 h 1.255117 v 1.465977 h -1.255117 v -0.311269 h 0.923766 v -0.838419 h -0.923766 z m -0.180737,0 h 0.331351 v 1.696919 h -0.331351 z m -0.02008,-0.687805 h 1.470998 v 0.301229 h -1.470998 z m -0.120491,-1.325404 h 1.737082 v 0.311269 h -1.737082 z m 0.597436,-0.732988 0.316289,-0.10543 q 0.07531,0.160655 0.150614,0.346412 0.07531,0.185758 0.115471,0.32131 l -0.336371,0.115471 q -0.03012,-0.135553 -0.10543,-0.326331 -0.07029,-0.195798 -0.140573,-0.351432 z m 6.762573,0.582374 h 1.857573 v 0.366494 h -1.857573 z m -2.324478,-0.381556 h 2.449989 v 0.356454 h -2.449989 z m 0.587395,1.024176 h 1.300302 v 0.341392 H 32.03891 Z m 0,1.044258 h 1.300302 v 0.341392 H 32.03891 Z m 3.479186,-1.686878 h 0.07029 l 0.06527,-0.01506 0.240983,0.06527 q -0.120491,1.004094 -0.406658,1.742103 -0.286167,0.732989 -0.712907,1.245077 -0.421719,0.507067 -0.96393,0.818336 -0.04518,-0.07029 -0.115471,-0.165675 -0.07029,-0.09037 -0.130532,-0.145594 0.497026,-0.256044 0.898664,-0.732989 0.401638,-0.476944 0.672743,-1.159728 0.276126,-0.682784 0.381556,-1.566387 z m -1.285241,0.386576 q 0.135553,0.722948 0.381556,1.345486 0.246003,0.622539 0.612497,1.094463 0.371515,0.466904 0.888624,0.732988 -0.04016,0.03514 -0.09037,0.09037 -0.0502,0.05523 -0.09539,0.11045 -0.04518,0.06025 -0.07531,0.110451 -0.547231,-0.306249 -0.933807,-0.803276 -0.381556,-0.502047 -0.6376,-1.159728 -0.251023,-0.662702 -0.411679,-1.450916 z m -2.394764,-0.632579 h 0.361474 v 3.258285 h -0.361474 z m 1.345486,0 h 0.366494 v 4.16197 h -0.366494 z m -1.837492,3.152855 q 0.251023,-0.03514 0.572334,-0.07531 0.32131,-0.04518 0.682784,-0.09539 0.366494,-0.05522 0.732988,-0.11045 l 0.02008,0.346412 q -0.517108,0.08535 -1.034217,0.170696 -0.512088,0.08033 -0.903684,0.135553 z M 38.10866,62.491512 V 63.6412 h 1.224994 V 62.491512 Z M 37.752204,62.15012 h 1.952963 v 1.827451 H 37.752204 Z M 36.64268,60.990391 h 4.202134 v 4.407973 h -0.401638 v -4.031437 h -3.413919 v 4.031437 H 36.64268 Z m 0.220901,3.780415 h 3.810537 v 0.356453 h -3.810537 z m 7.631114,-0.306249 0.271106,-0.190778 q 0.205839,0.10543 0.43176,0.246003 0.230942,0.140573 0.436781,0.281146 0.21086,0.140573 0.346412,0.256044 l -0.291187,0.225921 q -0.125512,-0.11547 -0.32633,-0.261064 -0.200819,-0.140573 -0.431761,-0.291187 -0.225921,-0.150614 -0.436781,-0.266085 z M 42.130054,63.169276 H 45.4034 v 0.301228 h -3.273346 z m -0.607477,0.64764 h 4.493321 v 0.31629 h -4.493321 z m 0.05523,-2.831545 h 4.337686 v 0.311269 h -4.337686 z m 1.034217,3.273347 0.351433,0.120491 q -0.150614,0.175716 -0.351433,0.351433 -0.200819,0.170696 -0.42172,0.316289 -0.21588,0.145594 -0.42674,0.256044 -0.0251,-0.03514 -0.08033,-0.08535 -0.05523,-0.0502 -0.11045,-0.09539 -0.0502,-0.04518 -0.09539,-0.07531 0.32131,-0.140573 0.627558,-0.346412 0.31127,-0.21086 0.507068,-0.441801 z m -0.381556,-2.284314 v 0.577354 h 3.072528 V 61.974404 Z M 41.87903,61.683216 h 3.795476 v 1.159729 H 41.87903 Z m 1.114545,-0.582374 h 0.346412 v 1.60655 h -0.346412 z m 1.144667,0 h 0.356453 v 1.60655 h -0.356453 z m -0.562293,2.801422 h 0.371515 v 1.511162 h -0.371515 z m 2.957057,-1.270179 h 4.503361 V 63.0036 h -4.503361 z m 2.178884,-1.134626 h 1.81741 v 0.361474 h -1.81741 z m -0.235962,-0.712907 h 0.391596 v 2.02325 h -0.391596 z m 0.01506,2.103577 h 0.391597 v 2.515256 h -0.391597 z m 0.461883,0.948869 0.195799,-0.291187 q 0.195798,0.07531 0.421719,0.165675 0.230942,0.09037 0.456863,0.185758 0.230941,0.09539 0.43176,0.185757 0.20584,0.09037 0.351433,0.165676 l -0.205839,0.331351 q -0.140573,-0.07531 -0.341392,-0.170696 -0.195798,-0.09539 -0.42674,-0.195799 -0.225921,-0.100409 -0.456863,-0.195798 -0.225921,-0.100409 -0.42674,-0.180737 z"
         id="text7"
         aria-label="加值成功  請取回票卡" /><path
         style="font-weight:bold;font-size:2.22872px;line-height:1;font-family:Helvetica;-inkscape-font-specification:'Helvetica Bold';stroke-width:0.0557182"
         d="M 4.8580642,67.511182 H 5.2650667 L 5.0648302,66.880001 Z m 0.020677,-0.997918 H 5.257449 l 0.5680624,1.604068 H 5.4620386 L 5.3586555,67.787595 H 4.7677401 l -0.1110007,0.329737 h -0.350414 z m 0.1871776,0 z m 1.6465104,0.843387 q -0.00871,-0.06638 -0.044618,-0.119706 -0.052236,-0.07182 -0.1621481,-0.07182 -0.1567069,0 -0.2143837,0.155618 -0.030471,0.08271 -0.030471,0.219825 0,0.130589 0.030471,0.210031 0.0555,0.148001 0.2089425,0.148001 0.1088242,0 0.1545304,-0.05876 0.045706,-0.05877 0.0555,-0.152354 h 0.3166785 q -0.010882,0.141471 -0.1022948,0.267707 -0.1458244,0.203502 -0.4320321,0.203502 -0.2862077,0 -0.4211497,-0.169766 -0.134942,-0.169766 -0.134942,-0.440738 0,-0.305796 0.1490891,-0.475562 0.1490892,-0.169766 0.4113556,-0.169766 0.2230896,0 0.3645611,0.100118 0.1425597,0.100119 0.1686775,0.353679 z M 6.5023981,66.899589 Z m 0.6192099,0.263355 v -0.220913 h 0.1654128 v -0.330826 h 0.3068843 v 0.330826 h 0.1926188 v 0.220913 H 7.5939051 v 0.626828 q 0,0.07291 0.0185,0.09141 0.0185,0.01741 0.1131772,0.01741 0.014147,0 0.029382,0 0.016324,-0.0011 0.031559,-0.0022 v 0.231796 l -0.1469127,0.0054 q -0.2198249,0.0076 -0.3003548,-0.07618 -0.052236,-0.05332 -0.052236,-0.164324 v -0.730211 z m 1.1829191,-0.373267 h -0.314502 v -0.286208 h 0.314502 z m -0.314502,0.141472 h 0.314502 v 1.186183 h -0.314502 z m 1.1470075,0.967447 q 0.1360302,0 0.2089425,-0.09685 0.072912,-0.09685 0.072912,-0.275325 0,-0.178472 -0.072912,-0.274237 -0.072912,-0.09685 -0.2089425,-0.09685 -0.1360303,0 -0.2100308,0.09685 -0.072912,0.09577 -0.072912,0.274237 0,0.178472 0.072912,0.275325 0.074001,0.09685 0.2100308,0.09685 z m 0.6072391,-0.372179 q 0,0.261178 -0.1501774,0.447267 -0.1501774,0.185002 -0.4559735,0.185002 -0.305796,0 -0.4559734,-0.185002 -0.1501775,-0.186089 -0.1501775,-0.447267 0,-0.256825 0.1501775,-0.445091 0.1501774,-0.188266 0.4559734,-0.188266 0.3057961,0 0.4559735,0.188266 0.1501774,0.188266 0.1501774,0.445091 z M 9.1381208,66.899589 Z m 1.4854502,0.0033 q 0.183913,0 0.300355,0.09685 0.11753,0.09577 0.11753,0.318855 v 0.798769 h -0.317767 v -0.721504 q 0,-0.09359 -0.02503,-0.143648 -0.04571,-0.09141 -0.174119,-0.09141 -0.157795,0 -0.21656,0.133853 -0.03047,0.07074 -0.03047,0.180649 v 0.642062 H 9.9684492 v -1.184007 h 0.2992668 v 0.17303 q 0.05985,-0.09141 0.113177,-0.131677 0.09577,-0.07182 0.242678,-0.07182 z m -0.114265,-0.0033 z m 2.146013,0.457062 q -0.0087,-0.06638 -0.04462,-0.119706 -0.05224,-0.07182 -0.162148,-0.07182 -0.156707,0 -0.214383,0.155618 -0.03047,0.08271 -0.03047,0.219825 0,0.130589 0.03047,0.210031 0.0555,0.148001 0.208942,0.148001 0.108824,0 0.15453,-0.05876 0.04571,-0.05877 0.0555,-0.152354 h 0.316678 q -0.01088,0.141471 -0.102295,0.267707 -0.145824,0.203502 -0.432032,0.203502 -0.286207,0 -0.421149,-0.169766 -0.134942,-0.169766 -0.134942,-0.440738 0,-0.305796 0.149089,-0.475562 0.149089,-0.169766 0.411355,-0.169766 0.22309,0 0.364561,0.100118 0.14256,0.100119 0.168678,0.353679 z m -0.210031,-0.457062 z m 1.273244,0.999007 q 0.13603,0 0.208942,-0.09685 0.07291,-0.09685 0.07291,-0.275325 0,-0.178472 -0.07291,-0.274237 -0.07291,-0.09685 -0.208942,-0.09685 -0.136031,0 -0.210031,0.09685 -0.07291,0.09577 -0.07291,0.274237 0,0.178472 0.07291,0.275325 0.074,0.09685 0.210031,0.09685 z m 0.607239,-0.372179 q 0,0.261178 -0.150178,0.447267 -0.150177,0.185002 -0.455973,0.185002 -0.305796,0 -0.455974,-0.185002 -0.150177,-0.186089 -0.150177,-0.447267 0,-0.256825 0.150177,-0.445091 0.150178,-0.188266 0.455974,-0.188266 0.305796,0 0.455973,0.188266 0.150178,0.188266 0.150178,0.445091 z M 13.71962,66.899589 Z m 2.153631,0.0054 q 0.07835,0 0.154531,0.03047 0.07618,0.03047 0.138206,0.106648 0.05006,0.06203 0.06747,0.152354 0.01088,0.05985 0.01088,0.175207 l -0.0022,0.747622 h -0.317766 v -0.75524 q 0,-0.06747 -0.02176,-0.111 -0.04135,-0.08271 -0.152354,-0.08271 -0.128413,0 -0.177384,0.106648 -0.02503,0.05659 -0.02503,0.13603 v 0.706269 h -0.312326 v -0.706269 q 0,-0.105559 -0.02176,-0.153442 -0.03918,-0.08597 -0.153443,-0.08597 -0.132765,0 -0.178471,0.08597 -0.02503,0.04897 -0.02503,0.145825 v 0.713886 H 14.542312 V 66.93328 h 0.301443 v 0.17303 q 0.05768,-0.0925 0.108824,-0.131677 0.09032,-0.06965 0.233972,-0.06965 0.136031,0 0.219825,0.05985 0.06747,0.0555 0.102295,0.14256 0.06094,-0.104472 0.151266,-0.153442 0.09577,-0.04897 0.213295,-0.04897 z m 1.473481,0.619209 q 0,-0.137118 -0.06312,-0.242678 -0.06203,-0.105559 -0.202413,-0.105559 -0.168678,0 -0.231796,0.159972 -0.03265,0.08488 -0.03265,0.215472 0,0.206766 0.109912,0.29056 0.06529,0.04897 0.154531,0.04897 0.1295,0 0.196971,-0.100118 0.06856,-0.100118 0.06856,-0.26662 z m -0.176296,-0.619209 q 0.207855,0 0.351503,0.153442 0.144736,0.153442 0.144736,0.450532 0,0.313414 -0.141472,0.477738 -0.140383,0.164325 -0.362384,0.164325 -0.141472,0 -0.235061,-0.07074 -0.05115,-0.03918 -0.100118,-0.114265 v 0.618121 h -0.306884 v -1.653039 h 0.29709 v 0.175206 q 0.05006,-0.07726 0.106648,-0.121883 0.103383,-0.07944 0.245942,-0.07944 z m 1.037094,1.212301 h -0.310149 v -1.604068 h 0.310149 z m 0.770476,-0.962006 q -0.107736,0 -0.167589,0.06747 -0.05877,0.06747 -0.074,0.182825 h 0.482091 q -0.0076,-0.122971 -0.07509,-0.186089 -0.06638,-0.06421 -0.165413,-0.06421 z m 0,-0.255737 q 0.148001,0 0.26662,0.0555 0.118618,0.0555 0.195883,0.175207 0.06965,0.105559 0.09032,0.244854 0.01197,0.08162 0.0098,0.235061 h -0.811828 q 0.0065,0.178471 0.112089,0.250295 0.06421,0.04462 0.15453,0.04462 0.09577,0 0.155619,-0.05441 0.03265,-0.02938 0.05768,-0.08162 h 0.316678 q -0.01197,0.105559 -0.109912,0.214384 -0.152354,0.17303 -0.426591,0.17303 -0.226355,0 -0.399385,-0.145824 -0.173031,-0.145825 -0.173031,-0.474474 0,-0.307972 0.155619,-0.472297 0.156707,-0.164325 0.405914,-0.164325 z m 0.02176,0 z m 0.627916,0.263355 v -0.220913 h 0.165412 v -0.330826 h 0.306885 v 0.330826 h 0.192619 v 0.220913 h -0.192619 v 0.626828 q 0,0.07291 0.0185,0.09141 0.0185,0.01741 0.113177,0.01741 0.01415,0 0.02938,0 0.01632,-0.0011 0.03156,-0.0022 v 0.231796 l -0.146913,0.0054 q -0.219825,0.0076 -0.300355,-0.07618 -0.05224,-0.05332 -0.05224,-0.164324 v -0.730211 z m 1.332009,-0.0076 q -0.107736,0 -0.16759,0.06747 -0.05877,0.06747 -0.074,0.182825 h 0.482091 q -0.0076,-0.122971 -0.07509,-0.186089 -0.06638,-0.06421 -0.165413,-0.06421 z m 0,-0.255737 q 0.148001,0 0.266619,0.0555 0.118618,0.0555 0.195884,0.175207 0.06965,0.105559 0.09032,0.244854 0.01197,0.08162 0.0098,0.235061 h -0.811829 q 0.0065,0.178471 0.112089,0.250295 0.06421,0.04462 0.154531,0.04462 0.09577,0 0.155618,-0.05441 0.03265,-0.02938 0.05768,-0.08162 h 0.316679 q -0.01197,0.105559 -0.109913,0.214384 -0.152354,0.17303 -0.426591,0.17303 -0.226354,0 -0.399385,-0.145824 -0.17303,-0.145825 -0.17303,-0.474474 0,-0.307972 0.155618,-0.472297 0.156707,-0.164325 0.405915,-0.164325 z m 0.02176,0 z m 0.744357,0.893447 h 0.329737 v 0.324296 h -0.329737 z m 2.17213,-0.769387 q 0,-0.125148 -0.06638,-0.178472 -0.06529,-0.05332 -0.183913,-0.05332 h -0.312326 v 0.472297 h 0.312326 q 0.118618,0 0.183913,-0.05768 0.06638,-0.05768 0.06638,-0.182825 z m 0.331914,-0.0022 q 0,0.284031 -0.143648,0.401561 -0.143648,0.11753 -0.410267,0.11753 h -0.34062 v 0.576768 h -0.333002 v -1.604068 h 0.698652 q 0.241589,0 0.385237,0.124059 0.143648,0.12406 0.143648,0.38415 z m 0.543034,1.095859 h -0.310149 v -1.604068 h 0.310149 z m 0.770475,-0.962006 q -0.107736,0 -0.167589,0.06747 -0.05877,0.06747 -0.074,0.182825 h 0.482092 q -0.0076,-0.122971 -0.07509,-0.186089 -0.06638,-0.06421 -0.165413,-0.06421 z m 0,-0.255737 q 0.148001,0 0.266619,0.0555 0.118619,0.0555 0.195884,0.175207 0.06965,0.105559 0.09032,0.244854 0.01197,0.08162 0.0098,0.235061 h -0.811828 q 0.0065,0.178471 0.112089,0.250295 0.06421,0.04462 0.15453,0.04462 0.09577,0 0.155619,-0.05441 0.03265,-0.02938 0.05768,-0.08162 h 0.316679 q -0.01197,0.105559 -0.109913,0.214384 -0.152353,0.17303 -0.42659,0.17303 -0.226355,0 -0.399385,-0.145824 -0.173031,-0.145825 -0.173031,-0.474474 0,-0.307972 0.155619,-0.472297 0.156707,-0.164325 0.405914,-0.164325 z m 0.02176,0 z m 1.403832,0.640975 q -0.02938,0.0185 -0.05985,0.03047 -0.02938,0.01088 -0.08162,0.02068 l -0.06965,0.01306 q -0.09794,0.01741 -0.140383,0.04244 -0.07182,0.04244 -0.07182,0.131677 0,0.07944 0.04353,0.115354 0.04462,0.03482 0.107736,0.03482 0.100118,0 0.183913,-0.05877 0.08488,-0.05876 0.08815,-0.214383 z M 26.780687,67.39578 q 0.08597,-0.01088 0.122972,-0.02721 0.06638,-0.02829 0.06638,-0.08815 0,-0.07291 -0.05115,-0.100118 -0.05006,-0.02829 -0.148001,-0.02829 -0.109912,0 -0.155619,0.05441 -0.03265,0.04027 -0.04353,0.108824 h -0.299267 q 0.0098,-0.155619 0.08706,-0.255737 0.122971,-0.156707 0.422238,-0.156707 0.194795,0 0.346061,0.07726 0.151265,0.07727 0.151265,0.291649 v 0.544121 q 0,0.05659 0.0022,0.137119 0.0033,0.06094 0.0185,0.08271 0.01524,0.02177 0.04571,0.03591 v 0.04571 h -0.337355 q -0.01415,-0.03591 -0.01959,-0.06747 -0.0054,-0.03156 -0.0087,-0.07182 -0.06421,0.06965 -0.148001,0.118619 -0.100119,0.05768 -0.226355,0.05768 -0.16106,0 -0.266619,-0.09141 -0.104471,-0.0925 -0.104471,-0.261178 0,-0.218736 0.168677,-0.316678 0.0925,-0.05332 0.272061,-0.07618 z m 0.01632,-0.496239 z m 0.999006,0.839035 q 0.0098,0.08271 0.04244,0.11753 0.05768,0.06203 0.213295,0.06203 0.09141,0 0.144736,-0.02721 0.05441,-0.02721 0.05441,-0.08162 0,-0.05224 -0.04353,-0.07944 -0.04353,-0.02721 -0.323208,-0.09359 -0.201325,-0.05006 -0.284032,-0.125147 -0.08271,-0.074 -0.08271,-0.213296 0,-0.164324 0.128413,-0.281855 0.1295,-0.118618 0.363473,-0.118618 0.222001,0 0.361296,0.08924 0.140383,0.08815 0.16106,0.305796 h -0.310149 q -0.0065,-0.05985 -0.03374,-0.09468 -0.05115,-0.06312 -0.174118,-0.06312 -0.101207,0 -0.144737,0.03156 -0.04244,0.03156 -0.04244,0.074 0,0.05332 0.04571,0.07727 0.04571,0.02503 0.323208,0.08597 0.185001,0.04353 0.277502,0.131677 0.09141,0.08924 0.09141,0.22309 0,0.176295 -0.131677,0.288384 -0.130589,0.111 -0.404826,0.111 -0.279679,0 -0.413532,-0.11753 -0.132766,-0.118618 -0.132766,-0.301443 z m 0.237237,-0.839035 z m 1.228625,0.255737 q -0.107736,0 -0.167589,0.06747 -0.05876,0.06747 -0.074,0.182825 h 0.482092 q -0.0076,-0.122971 -0.07509,-0.186089 -0.06638,-0.06421 -0.165413,-0.06421 z m 0,-0.255737 q 0.148001,0 0.266619,0.0555 0.118619,0.0555 0.195884,0.175207 0.06965,0.105559 0.09032,0.244854 0.01197,0.08162 0.0098,0.235061 H 29.01267 q 0.0065,0.178471 0.112089,0.250295 0.06421,0.04462 0.15453,0.04462 0.09577,0 0.155619,-0.05441 0.03265,-0.02938 0.05768,-0.08162 h 0.316679 q -0.01197,0.105559 -0.109913,0.214384 -0.152353,0.17303 -0.42659,0.17303 -0.226355,0 -0.399385,-0.145824 -0.173031,-0.145825 -0.173031,-0.474474 0,-0.307972 0.155619,-0.472297 0.156707,-0.164325 0.405914,-0.164325 z m 0.02176,0 z m 1.247125,0.263355 v -0.220913 h 0.165413 v -0.330826 h 0.306884 v 0.330826 H 31.1957 v 0.220913 h -0.192619 v 0.626828 q 0,0.07291 0.0185,0.09141 0.0185,0.01741 0.113177,0.01741 0.01415,0 0.02938,0 0.01632,-0.0011 0.03156,-0.0022 v 0.231796 l -0.146913,0.0054 Q 30.82896,68.14114 30.74843,68.05736 30.6962,68.00404 30.6962,67.893036 v -0.730211 z m 1.518098,0.37762 q -0.02938,0.0185 -0.05985,0.03047 -0.02938,0.01088 -0.08162,0.02068 l -0.06965,0.01306 q -0.09794,0.01741 -0.140383,0.04244 -0.07182,0.04244 -0.07182,0.131677 0,0.07944 0.04353,0.115354 0.04462,0.03482 0.107736,0.03482 0.100118,0 0.183913,-0.05877 0.08488,-0.05876 0.08815,-0.214383 z M 31.860592,67.39578 q 0.08597,-0.01088 0.122972,-0.02721 0.06638,-0.02829 0.06638,-0.08815 0,-0.07291 -0.05115,-0.100118 -0.05006,-0.02829 -0.148001,-0.02829 -0.109912,0 -0.155618,0.05441 -0.03265,0.04027 -0.04353,0.108824 h -0.299267 q 0.0098,-0.155619 0.08706,-0.255737 0.122971,-0.156707 0.422238,-0.156707 0.194795,0 0.346061,0.07726 0.151265,0.07727 0.151265,0.291649 v 0.544121 q 0,0.05659 0.0022,0.137119 0.0033,0.06094 0.0185,0.08271 0.01523,0.02177 0.04571,0.03591 v 0.04571 h -0.337355 q -0.01415,-0.03591 -0.01959,-0.06747 -0.0054,-0.03156 -0.0087,-0.07182 -0.06421,0.06965 -0.148001,0.118619 -0.100119,0.05768 -0.226355,0.05768 -0.161059,0 -0.266619,-0.09141 -0.104471,-0.0925 -0.104471,-0.261178 0,-0.218736 0.168677,-0.316678 0.0925,-0.05332 0.272061,-0.07618 z m 0.01632,-0.496239 z m 0.754152,-0.380884 h 0.304707 v 0.864064 l 0.386326,-0.446179 h 0.38415 l -0.41462,0.453797 0.430944,0.726945 h -0.374356 l -0.284031,-0.50712 -0.128413,0.133853 v 0.373267 h -0.304707 z m 1.710716,0.636621 q -0.107736,0 -0.167589,0.06747 -0.05877,0.06747 -0.074,0.182825 h 0.482092 q -0.0076,-0.122971 -0.07509,-0.186089 -0.06638,-0.06421 -0.165413,-0.06421 z m 0,-0.255737 q 0.148001,0 0.26662,0.0555 0.118618,0.0555 0.195883,0.175207 0.06965,0.105559 0.09032,0.244854 0.01197,0.08162 0.0098,0.235061 h -0.811828 q 0.0065,0.178471 0.112089,0.250295 0.06421,0.04462 0.15453,0.04462 0.09577,0 0.155619,-0.05441 0.03265,-0.02938 0.05768,-0.08162 h 0.316678 q -0.01197,0.105559 -0.109912,0.214384 -0.152354,0.17303 -0.426591,0.17303 -0.226355,0 -0.399385,-0.145824 -0.173031,-0.145825 -0.173031,-0.474474 0,-0.307972 0.155619,-0.472297 0.156707,-0.164325 0.405914,-0.164325 z m 0.02177,0 z m 2.009985,0.0054 q 0.233972,0 0.365649,0.168677 0.132766,0.168678 0.132766,0.435297 0,0.276414 -0.13059,0.45815 -0.130589,0.181736 -0.364561,0.181736 -0.146912,0 -0.236148,-0.05877 -0.05332,-0.03482 -0.115354,-0.121883 v 0.149089 H 35.721701 V 66.51544 h 0.30906 v 0.570239 q 0.05877,-0.08271 0.129501,-0.126236 0.08379,-0.05441 0.213296,-0.05441 z m -0.07944,0.988124 q 0.119707,0 0.186089,-0.09685 0.06638,-0.09685 0.06638,-0.254649 0,-0.126236 -0.03265,-0.208942 -0.06203,-0.156707 -0.228531,-0.156707 -0.168678,0 -0.231796,0.153442 -0.03265,0.08162 -0.03265,0.211119 0,0.152354 0.06747,0.252472 0.06747,0.100119 0.205678,0.100119 z m 1.453892,-0.352591 q -0.02938,0.0185 -0.05985,0.03047 -0.02938,0.01088 -0.08162,0.02068 l -0.06965,0.01306 q -0.09794,0.01741 -0.140384,0.04244 -0.07182,0.04244 -0.07182,0.131677 0,0.07944 0.04353,0.115354 0.04462,0.03482 0.107736,0.03482 0.100118,0 0.183913,-0.05877 0.08488,-0.05876 0.08815,-0.214383 z m -0.188266,-0.144736 q 0.08597,-0.01088 0.122971,-0.02721 0.06638,-0.02829 0.06638,-0.08815 0,-0.07291 -0.05115,-0.100118 -0.05006,-0.02829 -0.148001,-0.02829 -0.109912,0 -0.155618,0.05441 -0.03265,0.04027 -0.04353,0.108824 h -0.299266 q 0.0098,-0.155619 0.08706,-0.255737 0.122971,-0.156707 0.422238,-0.156707 0.194795,0 0.346061,0.07726 0.151266,0.07727 0.151266,0.291649 v 0.544121 q 0,0.05659 0.0022,0.137119 0.0033,0.06094 0.0185,0.08271 0.01524,0.02177 0.04571,0.03591 v 0.04571 h -0.337355 q -0.01415,-0.03591 -0.01959,-0.06747 -0.0054,-0.03156 -0.0087,-0.07182 -0.06421,0.06965 -0.148001,0.118619 -0.100118,0.05768 -0.226354,0.05768 -0.16106,0 -0.26662,-0.09141 -0.104471,-0.0925 -0.104471,-0.261178 0,-0.218736 0.168678,-0.316678 0.0925,-0.05332 0.27206,-0.07618 z m 0.01632,-0.496239 z m 1.46586,0.457062 q -0.0087,-0.06638 -0.04462,-0.119706 -0.05224,-0.07182 -0.162149,-0.07182 -0.156706,0 -0.214383,0.155618 -0.03047,0.08271 -0.03047,0.219825 0,0.130589 0.03047,0.210031 0.0555,0.148001 0.208942,0.148001 0.108824,0 0.154531,-0.05876 0.04571,-0.05877 0.0555,-0.152354 H 39.3564 q -0.01088,0.141471 -0.102294,0.267707 -0.145825,0.203502 -0.432032,0.203502 -0.286208,0 -0.42115,-0.169766 -0.134942,-0.169766 -0.134942,-0.440738 0,-0.305796 0.149089,-0.475562 0.149089,-0.169766 0.411355,-0.169766 0.22309,0 0.364562,0.100118 0.142559,0.100119 0.168677,0.353679 z m -0.21003,-0.457062 z m 0.73783,-0.380884 h 0.304707 v 0.864064 L 40.260734,66.9365 h 0.38415 l -0.41462,0.453797 0.430944,0.726945 h -0.374356 l -0.284031,-0.50712 -0.128413,0.133853 v 0.373267 h -0.304707 z m 1.909862,1.82607 0.03918,0.0022 q 0.04571,0.0022 0.08706,-0.0033 0.04135,-0.0054 0.06965,-0.02503 0.02721,-0.0185 0.05006,-0.07726 0.02394,-0.05877 0.01959,-0.07182 l -0.435297,-1.238419 h 0.344973 l 0.259002,0.874946 0.244854,-0.874946 h 0.329738 l -0.407003,1.166595 q -0.11753,0.337355 -0.186089,0.417885 -0.06856,0.08162 -0.274237,0.08162 -0.04135,0 -0.06638,-0.0011 -0.02503,0 -0.07509,-0.0033 z m 0.420062,-1.445186 z m 1.303715,0.999007 q 0.136031,0 0.208943,-0.09685 0.07291,-0.09685 0.07291,-0.275325 0,-0.178472 -0.07291,-0.274237 -0.07291,-0.09685 -0.208943,-0.09685 -0.13603,0 -0.21003,0.09685 -0.07291,0.09577 -0.07291,0.274237 0,0.178472 0.07291,0.275325 0.074,0.09685 0.21003,0.09685 z m 0.60724,-0.372179 q 0,0.261178 -0.150178,0.447267 -0.150177,0.185002 -0.455973,0.185002 -0.305796,0 -0.455974,-0.185002 -0.150177,-0.186089 -0.150177,-0.447267 0,-0.256825 0.150177,-0.445091 0.150178,-0.188266 0.455974,-0.188266 0.305796,0 0.455973,0.188266 0.150178,0.188266 0.150178,0.445091 z m -0.606151,-0.626828 z m 1.137211,0.03156 v 0.714975 q 0,0.101206 0.02394,0.152354 0.04244,0.09032 0.166501,0.09032 0.158884,0 0.217649,-0.128413 0.03047,-0.06965 0.03047,-0.183913 v -0.645327 h 0.314502 v 1.186183 h -0.301444 v -0.167589 q -0.0044,0.0054 -0.02176,0.03265 -0.01741,0.02721 -0.04135,0.04788 -0.07291,0.0653 -0.141471,0.08924 -0.06747,0.02394 -0.158883,0.02394 -0.263355,0 -0.354767,-0.189354 -0.05115,-0.104471 -0.05115,-0.307972 v -0.714975 z m 0.217648,-0.03156 z m 1.478924,0.0033 q 0.0087,0 0.01415,0.0011 0.0065,0 0.02721,0.0011 v 0.317766 q -0.02938,-0.0033 -0.05224,-0.0044 -0.02285,-0.0011 -0.037,-0.0011 -0.187178,0 -0.251384,0.121883 -0.03591,0.06856 -0.03591,0.211119 v 0.566974 h -0.312326 v -1.186183 h 0.296002 v 0.206766 q 0.07182,-0.118619 0.125148,-0.162149 0.08706,-0.07291 0.226355,-0.07291 z m 1.550744,0.453797 q -0.0087,-0.06638 -0.04462,-0.119706 -0.05224,-0.07182 -0.162148,-0.07182 -0.156707,0 -0.214384,0.155618 -0.03047,0.08271 -0.03047,0.219825 0,0.130589 0.03047,0.210031 0.0555,0.148001 0.208943,0.148001 0.108824,0 0.15453,-0.05876 0.04571,-0.05877 0.0555,-0.152354 h 0.316679 q -0.01088,0.141471 -0.102295,0.267707 -0.145824,0.203502 -0.432032,0.203502 -0.286208,0 -0.42115,-0.169766 -0.134942,-0.169766 -0.134942,-0.440738 0,-0.305796 0.149089,-0.475562 0.149089,-0.169766 0.411356,-0.169766 0.223089,0 0.364561,0.100118 0.14256,0.100119 0.168677,0.353679 z m -0.210031,-0.457062 z m 1.395128,0.640975 q -0.02938,0.0185 -0.05985,0.03047 -0.02938,0.01088 -0.08162,0.02068 l -0.06965,0.01306 q -0.09794,0.01741 -0.140383,0.04244 -0.07182,0.04244 -0.07182,0.131677 0,0.07944 0.04353,0.115354 0.04462,0.03482 0.107736,0.03482 0.100118,0 0.183913,-0.05877 0.08488,-0.05876 0.08815,-0.214383 z m -0.188266,-0.144736 q 0.08597,-0.01088 0.122972,-0.02721 0.06638,-0.02829 0.06638,-0.08815 0,-0.07291 -0.05115,-0.100118 -0.05006,-0.02829 -0.148001,-0.02829 -0.109912,0 -0.155618,0.05441 -0.03265,0.04027 -0.04353,0.108824 h -0.299267 q 0.0098,-0.155619 0.08706,-0.255737 0.122971,-0.156707 0.422238,-0.156707 0.194795,0 0.346061,0.07726 0.151265,0.07727 0.151265,0.291649 v 0.544121 q 0,0.05659 0.0022,0.137119 0.0033,0.06094 0.0185,0.08271 0.01523,0.02177 0.04571,0.03591 v 0.04571 h -0.337355 q -0.01415,-0.03591 -0.01959,-0.06747 -0.0054,-0.03156 -0.0087,-0.07182 -0.06421,0.06965 -0.148001,0.118619 -0.100119,0.05768 -0.226355,0.05768 -0.16106,0 -0.266619,-0.09141 -0.104471,-0.0925 -0.104471,-0.261178 0,-0.218736 0.168677,-0.316678 0.0925,-0.05332 0.272061,-0.07618 z m 0.01632,-0.496239 z m 1.401654,0.0033 q 0.0087,0 0.01415,0.0011 0.0065,0 0.02721,0.0011 V 67.2228 q -0.02938,-0.0033 -0.05224,-0.0044 -0.02285,-0.0011 -0.037,-0.0011 -0.187178,0 -0.251384,0.121883 -0.03591,0.06856 -0.03591,0.211119 v 0.566974 h -0.312325 v -1.186183 h 0.296002 v 0.206766 q 0.07182,-0.118619 0.125147,-0.162149 0.08706,-0.07291 0.226355,-0.07291 z m 0.660562,0 q 0.107736,0 0.191531,0.04788 0.0838,0.04679 0.13603,0.130589 V 66.51544 h 0.314502 v 1.601892 h -0.301443 v -0.164324 q -0.06638,0.105559 -0.151265,0.153442 -0.08488,0.04788 -0.211119,0.04788 -0.207855,0 -0.350414,-0.16759 -0.141472,-0.168677 -0.141472,-0.432032 0,-0.303619 0.139295,-0.477738 0.140383,-0.174119 0.374355,-0.174119 z m 0.06747,0.990301 q 0.131678,0 0.200237,-0.09794 0.06856,-0.09794 0.06856,-0.253561 0,-0.217648 -0.109912,-0.311237 -0.06747,-0.05659 -0.156707,-0.05659 -0.13603,0 -0.200237,0.103383 -0.06312,0.102294 -0.06312,0.254648 0,0.164325 0.06421,0.263355 0.06529,0.09794 0.196971,0.09794 z m 0.851008,-0.100119 h 0.329737 v 0.324296 H 51.58283 Z"
         id="text8"
         aria-label="Action complete. Please take back your card." /></g></g></svg>
