<?xml version="1.0" encoding="UTF-8" standalone="no"?>
<!-- Created with Inkscape (http://www.inkscape.org/) -->

<svg
   width="400"
   height="300"
   viewBox="0 0 105.83334 79.374998"
   version="1.1"
   id="svg1"
   xml:space="preserve"
   inkscape:version="1.4.2 (f4327f4, 2025-05-13)"
   sodipodi:docname="bg_topping.svg"
   xmlns:inkscape="http://www.inkscape.org/namespaces/inkscape"
   xmlns:sodipodi="http://sodipodi.sourceforge.net/DTD/sodipodi-0.dtd"
   xmlns="http://www.w3.org/2000/svg"
   xmlns:svg="http://www.w3.org/2000/svg"><sodipodi:namedview
     id="namedview1"
     pagecolor="#505050"
     bordercolor="#ffffff"
     borderopacity="1"
     inkscape:showpageshadow="0"
     inkscape:pageopacity="0"
     inkscape:pagecheckerboard="1"
     inkscape:deskcolor="#d1d1d1"
     inkscape:document-units="mm"
     inkscape:zoom="1.4289282"
     inkscape:cx="190.35247"
     inkscape:cy="40.939777"
     inkscape:window-width="1920"
     inkscape:window-height="1111"
     inkscape:window-x="-9"
     inkscape:window-y="-9"
     inkscape:window-maximized="1"
     inkscape:current-layer="layer1" /><defs
     id="defs1"><rect
       x="42.06235"
       y="112.33122"
       width="239.5051"
       height="43.052053"
       id="rect5" /><clipPath
       clipPathUnits="userSpaceOnUse"
       id="clipPath2"><rect
         style="fill:#ffffff;fill-opacity:1;stroke:none;stroke-width:0.789001;stroke-opacity:1;paint-order:fill markers stroke"
         id="rect3"
         width="30.960047"
         height="19.408892"
         x="66.249504"
         y="27.129927"
         ry="2.3567305" /></clipPath></defs><g
     inkscape:label="Layer 1"
     inkscape:groupmode="layer"
     id="layer1"><path
       id="rect4"
       style="fill:#49b4e2;stroke-width:1.54469"
       d="M 0,0 H 105.83334 V 79.375 H 0 Z" /><path
       id="rect1"
       style="fill:none;stroke:#ffffff;stroke-width:0.948386;paint-order:fill markers stroke"
       d="M 7.4722709,10.540613 H 96.61658 c 1.629302,0 2.94098,1.901508 2.94098,4.263471 v 26.907198 c 0,2.36196 -1.311678,4.263469 -2.94098,4.263469 H 7.4722709 c -1.6293027,0 -2.9409797,-1.901509 -2.9409797,-4.263469 V 14.804084 c 0,-2.361963 1.311677,-4.263471 2.9409797,-4.263471 z" /><path
       style="font-size:8.62543px;line-height:1;font-family:'Noto Sans TC';-inkscape-font-specification:'Noto Sans TC';fill:#ff0000;stroke-width:0.215635"
       d="m 10.51038,57.268988 h 2.346117 v 0.621031 H 10.51038 Z M 5.7491428,52.352493 h 3.3207906 v 0.638281 H 5.7491428 Z M 10.225741,51.79184 h 2.941272 v 6.667457 h -0.646908 v -6.037801 h -1.673333 v 6.106805 h -0.621031 z m -1.3283162,0.560653 h 0.621031 q 0,0 0,0.069 0,0.06038 0,0.146632 0,0.07763 0,0.120756 -0.025876,1.440447 -0.051753,2.423746 -0.025876,0.983299 -0.069003,1.612956 -0.043127,0.621031 -0.1121306,0.957422 -0.060378,0.336392 -0.1638832,0.474399 -0.120756,0.163883 -0.2501375,0.232887 -0.1293814,0.07763 -0.3191409,0.103505 -0.181134,0.02588 -0.4657732,0.01725 -0.2760138,0 -0.560653,-0.01725 -0.00863,-0.146633 -0.060378,-0.327767 -0.043127,-0.181134 -0.1293814,-0.31914 0.30189,0.02588 0.5606529,0.0345 0.2587629,0 0.3708935,0 0.09488,0.0086 0.1638832,-0.01725 0.069003,-0.0345 0.1293815,-0.120756 0.069003,-0.09488 0.120756,-0.405395 0.051753,-0.319141 0.09488,-0.922921 0.043127,-0.60378 0.069004,-1.561203 0.025876,-0.966048 0.051752,-2.346117 z M 6.9739539,50.834417 h 0.6382818 q -0.00863,1.198935 -0.043127,2.337491 -0.034502,1.138557 -0.181134,2.156358 -0.1380069,1.017801 -0.4657733,1.871718 -0.3191409,0.845292 -0.8884193,1.466323 -0.051753,-0.07763 -0.1380068,-0.163883 -0.086254,-0.07763 -0.1811341,-0.155258 -0.09488,-0.07763 -0.181134,-0.129381 0.4312715,-0.448522 0.6986598,-1.052302 0.2760138,-0.603781 0.4312715,-1.319691 0.1552578,-0.724536 0.2156358,-1.535327 0.069003,-0.819416 0.077629,-1.690584 0.017251,-0.879794 0.017251,-1.785464 z m 9.7812381,0.767663 h 5.166632 v 0.577904 h -5.166632 z m -0.370894,6.244812 h 5.796289 v 0.560652 h -5.796289 z m 0.828041,-4.864743 h 4.200585 v 5.02 h -0.60378 v -4.5111 h -3.010275 v 4.5111 h -0.58653 z m 0.405396,1.233436 h 3.329416 v 0.483025 h -3.329416 z m -0.0086,1.224812 h 3.467423 v 0.465773 h -3.467423 z m 0,1.216185 h 3.355293 v 0.474399 h -3.355293 z m 1.474949,-5.934296 0.690034,0.04313 q -0.069,0.405396 -0.163883,0.862543 -0.09488,0.448523 -0.189759,0.862543 -0.09488,0.405396 -0.18976,0.707286 l -0.560653,-0.06038 q 0.07763,-0.310516 0.155258,-0.741787 0.08625,-0.431272 0.155258,-0.871169 0.069,-0.439897 0.103505,-0.802165 z m -2.889519,0.0086 0.595154,0.189759 q -0.267388,0.724536 -0.621031,1.440447 -0.345017,0.707285 -0.759037,1.336942 -0.414021,0.629656 -0.853918,1.121306 -0.0345,-0.07763 -0.103505,-0.198385 -0.06038,-0.120756 -0.129382,-0.241512 -0.069,-0.129382 -0.129381,-0.207011 0.39677,-0.422646 0.767663,-0.974673 0.370894,-0.552028 0.690035,-1.181684 0.319141,-0.629657 0.543402,-1.285189 z m -0.90567,2.259862 0.595154,-0.612405 0.0086,0.0086 v 6.270688 h -0.60378 z m 8.082028,-0.724536 h 6.952096 v 4.053952 h -0.664158 v -3.424295 h -5.641031 v 3.467423 h -0.646907 z m 0.345017,2.924021 h 6.331065 v 0.638282 h -6.331065 z m 2.777388,-4.467973 h 0.681409 v 7.926771 h -0.681409 z m 7.806023,7.357492 q -0.232886,0 -0.405395,-0.163883 -0.163883,-0.172509 -0.163883,-0.431272 0,-0.276013 0.163883,-0.439896 0.172509,-0.163884 0.405395,-0.163884 0.232887,0 0.39677,0.163884 0.172509,0.163883 0.172509,0.439896 0,0.258763 -0.172509,0.431272 -0.163883,0.163883 -0.39677,0.163883 z m 2.397867,0 q -0.232886,0 -0.405395,-0.163883 -0.163883,-0.172509 -0.163883,-0.431272 0,-0.276013 0.163883,-0.439896 0.172509,-0.163884 0.405395,-0.163884 0.232887,0 0.39677,0.163884 0.172509,0.163883 0.172509,0.439896 0,0.258763 -0.172509,0.431272 -0.163883,0.163883 -0.39677,0.163883 z m 2.397871,0 q -0.232886,0 -0.405395,-0.163883 -0.163883,-0.172509 -0.163883,-0.431272 0,-0.276013 0.163883,-0.439896 0.172509,-0.163884 0.405395,-0.163884 0.232887,0 0.39677,0.163884 0.172509,0.163883 0.172509,0.439896 0,0.258763 -0.172509,0.431272 -0.163883,0.163883 -0.39677,0.163883 z m 6.69334,-6.658832 h 4.640481 v 0.500275 h -4.640481 z m 0.215635,1.035052 h 4.260963 v 0.474398 H 46.004038 Z M 45.684897,53.5083 h 4.821616 v 0.500275 h -4.821616 z m 2.052853,-2.786014 h 0.629656 v 3.053403 H 47.73775 Z m 1.664708,3.803815 h 0.60378 v 3.458797 q 0,0.232887 -0.06038,0.362268 -0.05175,0.129382 -0.224261,0.198385 -0.172509,0.069 -0.448523,0.07763 -0.267388,0.01725 -0.681409,0.01725 -0.01725,-0.120756 -0.069,-0.276014 -0.05175,-0.146632 -0.120756,-0.258763 0.30189,0.0086 0.534777,0.0086 0.241512,0 0.327766,0 0.08625,0 0.112131,-0.0345 0.02588,-0.02588 0.02588,-0.09488 z m -2.880894,1.147182 h 3.182784 v 0.465773 h -3.182784 z m 0,1.112681 h 3.182784 v 0.457147 h -3.182784 z m -0.327766,-2.259863 h 0.595154 v 1.60433 q 0,0.39677 -0.05175,0.871168 -0.05175,0.474399 -0.20701,0.931547 -0.146633,0.457148 -0.457148,0.828041 -0.04313,-0.069 -0.129382,-0.155258 -0.07763,-0.07763 -0.163883,-0.155257 -0.08625,-0.07763 -0.155258,-0.112131 0.258763,-0.327766 0.379519,-0.707285 0.120756,-0.388145 0.155258,-0.776289 0.0345,-0.39677 0.0345,-0.741787 z m 0.353642,0 h 3.062028 v 0.5089 H 46.54744 Z m -3.734811,-1.259313 h 2.527251 v 0.517526 h -2.527251 z m 0.353643,2.363368 h 2.156357 v 2.518626 h -2.156357 v -0.534777 h 1.587079 v -1.440447 h -1.587079 z m -0.310516,0 h 0.569279 v 2.915395 h -0.569279 z m -0.0345,-1.181684 h 2.527251 v 0.517526 h -2.527251 z m -0.207011,-2.277113 h 2.984399 v 0.534776 h -2.984399 z m 1.026427,-1.259313 0.543402,-0.181134 q 0.129381,0.276013 0.258763,0.595154 0.129381,0.319141 0.198384,0.552028 l -0.577903,0.198385 q -0.05175,-0.232887 -0.181134,-0.560653 -0.120756,-0.336392 -0.241512,-0.60378 z m 9.246462,1.164433 h 5.494399 v 0.638282 h -5.494399 z m 5.304639,0 h 0.664158 q 0,0 -0.0086,0.069 0,0.06038 0,0.146633 0,0.07763 -0.0086,0.129381 -0.06038,1.492199 -0.129381,2.535876 -0.069,1.035052 -0.146632,1.69921 -0.07763,0.664158 -0.181134,1.035052 -0.103506,0.362268 -0.232887,0.526151 -0.146632,0.198385 -0.310516,0.267388 -0.155257,0.069 -0.379519,0.09488 -0.215635,0.02588 -0.560652,0.01725 -0.345018,0 -0.707286,-0.02588 -0.0086,-0.146633 -0.06038,-0.327767 -0.05175,-0.181134 -0.138007,-0.319141 0.39677,0.0345 0.724537,0.04313 0.327766,0 0.483024,0 0.120756,0.0086 0.20701,-0.01725 0.08625,-0.02588 0.155258,-0.120756 0.11213,-0.120756 0.20701,-0.474399 0.09488,-0.353643 0.163883,-1.009175 0.07763,-0.655533 0.138007,-1.664708 0.069,-1.009176 0.120756,-2.458248 z m -4.985499,-1.345567 0.672784,0.146632 q -0.250137,0.802165 -0.595155,1.552577 -0.336391,0.750413 -0.741787,1.39732 -0.405395,0.638282 -0.853917,1.129931 -0.06038,-0.06038 -0.172509,-0.138006 -0.103505,-0.07763 -0.215636,-0.155258 -0.103505,-0.07763 -0.189759,-0.129382 0.457148,-0.439897 0.853918,-1.043677 0.396769,-0.60378 0.707285,-1.311065 0.319141,-0.707285 0.534776,-1.449072 z m 1.276564,1.552577 0.646907,0.138007 q -0.319141,1.11268 -0.767663,2.09598 -0.439897,0.974673 -1.017801,1.785464 -0.569278,0.802165 -1.267938,1.405945 -0.05175,-0.06038 -0.155258,-0.146633 -0.103505,-0.08625 -0.20701,-0.172508 -0.103505,-0.08626 -0.181134,-0.129382 0.707285,-0.552027 1.267938,-1.311065 0.569279,-0.767663 0.983299,-1.69921 0.422646,-0.931546 0.69866,-1.966598 z m 1.90622,0.01725 0.655533,0.09488 q -0.241512,1.354192 -0.612406,2.51 -0.362268,1.155807 -0.90567,2.087354 -0.534777,0.922921 -1.285189,1.60433 -0.05175,-0.05175 -0.163883,-0.138007 -0.103505,-0.07763 -0.215636,-0.163883 -0.103505,-0.07763 -0.181134,-0.120756 0.750413,-0.629657 1.276564,-1.50945 0.526151,-0.88842 0.871168,-1.992475 0.353643,-1.104055 0.560653,-2.371993 z m 8.625431,-1.578454 0.646907,0.120756 q -0.370893,0.629657 -0.966048,1.224811 -0.595154,0.595155 -1.466323,1.078179 -0.04313,-0.07763 -0.120756,-0.155258 -0.069,-0.08625 -0.146632,-0.163883 -0.07763,-0.08625 -0.146632,-0.129381 0.802165,-0.405395 1.354192,-0.940172 0.560653,-0.534777 0.845292,-1.035052 z m -0.198385,0.750413 h 2.087354 v 0.543402 h -2.475498 z m 1.863093,0 h 0.120756 l 0.120756,-0.02588 0.405395,0.198385 q -0.250137,0.672784 -0.672783,1.216186 -0.414021,0.534777 -0.948797,0.940172 -0.526152,0.405395 -1.138557,0.69866 -0.612406,0.293264 -1.267938,0.474398 -0.04313,-0.120756 -0.146633,-0.276013 -0.09488,-0.155258 -0.189759,-0.241513 0.60378,-0.146632 1.173058,-0.405395 0.577904,-0.258763 1.078179,-0.612405 0.500275,-0.362268 0.879794,-0.828042 0.379519,-0.465773 0.586529,-1.026426 z m -2.768763,1.155807 0.414021,-0.336391 q 0.241512,0.138006 0.491649,0.31914 0.250138,0.181134 0.465774,0.362269 0.224261,0.181134 0.362268,0.345017 l -0.431272,0.370893 q -0.129381,-0.163883 -0.353643,-0.353642 -0.215635,-0.18976 -0.465773,-0.379519 -0.241512,-0.18976 -0.483024,-0.327767 z m 1.569828,1.345567 0.646908,0.112131 q -0.405396,0.69866 -1.09543,1.362818 -0.681409,0.664158 -1.69921,1.181684 -0.0345,-0.069 -0.11213,-0.155258 -0.069,-0.08625 -0.146633,-0.163883 -0.07763,-0.08625 -0.146632,-0.129381 0.629657,-0.301891 1.121306,-0.664159 0.500275,-0.370893 0.862543,-0.767663 0.362268,-0.405395 0.569278,-0.776289 z m -0.241512,0.810791 h 2.061478 v 0.552027 h -2.449622 z m 1.871719,0 h 0.129381 l 0.120756,-0.02588 0.414021,0.181134 q -0.276014,0.828041 -0.741787,1.449072 -0.465773,0.612405 -1.086804,1.060928 -0.612406,0.439897 -1.336942,0.733161 -0.715911,0.30189 -1.500825,0.474399 -0.04313,-0.112131 -0.138007,-0.284639 -0.09488,-0.163883 -0.189759,-0.267389 0.733161,-0.138006 1.405945,-0.396769 0.681409,-0.258763 1.250687,-0.655533 0.577904,-0.39677 1.009176,-0.931546 0.431271,-0.534777 0.664158,-1.224812 z m -3.010275,1.30244 0.448522,-0.370894 q 0.267388,0.155258 0.560653,0.353643 0.293265,0.198385 0.543402,0.405395 0.250138,0.20701 0.405395,0.379519 l -0.465773,0.405395 q -0.146632,-0.181134 -0.39677,-0.388144 -0.241512,-0.20701 -0.526151,-0.414021 -0.284639,-0.215635 -0.569278,-0.370893 z m -2.79464,-4.649107 h 0.638282 v 7.202234 h -0.638282 z m -1.405945,1.716461 h 3.122406 v 0.60378 h -3.122406 z m 1.440447,0.232886 0.405395,0.172509 q -0.129381,0.457148 -0.319141,0.948797 -0.189759,0.483024 -0.41402,0.966048 -0.215636,0.474399 -0.465774,0.897045 -0.241512,0.414021 -0.491649,0.707285 -0.05175,-0.129381 -0.155258,-0.30189 -0.09488,-0.172508 -0.181134,-0.293264 0.241512,-0.258763 0.474399,-0.621031 0.232886,-0.362268 0.448522,-0.784915 0.224261,-0.422646 0.405395,-0.853917 0.181134,-0.439897 0.293265,-0.836667 z m 1.250687,-2.544502 0.448523,0.500275 q -0.39677,0.155258 -0.90567,0.293265 -0.508901,0.138007 -1.052303,0.241512 -0.534777,0.09488 -1.043677,0.163883 -0.01725,-0.103505 -0.07763,-0.241512 -0.06038,-0.146632 -0.11213,-0.250137 0.483024,-0.08626 0.991924,-0.18976 0.517526,-0.103505 0.974674,-0.232887 0.457147,-0.138006 0.776288,-0.284639 z m -0.681409,3.415671 q 0.08626,0.07763 0.250138,0.250137 0.172508,0.163883 0.370893,0.362268 0.198385,0.18976 0.353643,0.362268 0.163883,0.172509 0.232887,0.250138 l -0.388145,0.5089 q -0.07763,-0.129381 -0.224261,-0.327766 -0.138007,-0.198385 -0.310515,-0.422646 -0.172509,-0.224262 -0.327767,-0.414021 -0.155258,-0.189759 -0.258763,-0.30189 z m 6.788211,2.095979 h 3.933196 v 0.500275 h -3.933196 z m -0.232887,-4.157457 h 4.312715 v 0.5089 h -4.312715 z m 1.871719,-0.776289 h 0.595154 v 6.339691 h -0.595154 z m -1.871719,6.356942 q 0.526152,-0.05175 1.207561,-0.112131 0.690034,-0.06038 1.457697,-0.138006 0.776289,-0.07763 1.535327,-0.163884 l 0.0086,0.508901 q -0.733161,0.08625 -1.474948,0.172508 -0.741787,0.09488 -1.423196,0.163884 -0.672784,0.07763 -1.224811,0.138006 z m 0.79354,-3.027526 v 0.629657 h 2.803265 v -0.629657 z m 0,-1.052302 v 0.621031 h 2.803265 V 53.69806 Z M 68.72342,53.249537 h 3.890069 v 2.579004 H 68.72342 Z m 3.579554,-2.440996 0.319141,0.500275 q -0.508901,0.103505 -1.173059,0.189759 -0.664158,0.08625 -1.380069,0.146632 -0.707285,0.05175 -1.354192,0.069 -0.01725,-0.103505 -0.069,-0.241512 -0.04313,-0.138007 -0.08625,-0.241512 0.483024,-0.02588 0.991925,-0.06038 0.517525,-0.04313 1.0178,-0.09488 0.508901,-0.05175 0.948798,-0.120756 0.448522,-0.069 0.784914,-0.146632 z m 0.405395,1.932096 h 3.11378 v 0.595155 h -3.11378 z m 2.863643,0 h 0.621031 q 0,0 0,0.069 0,0.06038 0,0.138007 0,0.069 0,0.112131 -0.0345,1.371443 -0.07763,2.311615 -0.0345,0.931547 -0.08625,1.526701 -0.05175,0.595155 -0.129382,0.922921 -0.069,0.319141 -0.181134,0.457148 -0.11213,0.172509 -0.250137,0.241512 -0.138007,0.069 -0.327767,0.08625 -0.181134,0.02588 -0.465773,0.01725 -0.284639,0 -0.595155,-0.0086 -0.0086,-0.138007 -0.06038,-0.319141 -0.05175,-0.172509 -0.129381,-0.30189 0.319141,0.02588 0.586529,0.02588 0.267389,0.0086 0.388145,0.0086 0.103505,0 0.172508,-0.02588 0.069,-0.02588 0.129382,-0.103505 0.08625,-0.103505 0.146632,-0.405395 0.06038,-0.310516 0.103505,-0.888419 0.04313,-0.577904 0.07763,-1.4922 0.04313,-0.914295 0.07763,-2.225361 z m -1.819966,-1.90622 h 0.629656 q -0.0086,1.026426 -0.0345,1.983849 -0.01725,0.957423 -0.112131,1.819966 -0.09488,0.862543 -0.319141,1.612955 -0.215636,0.750412 -0.612405,1.371443 -0.388145,0.612406 -1.009176,1.078179 -0.04313,-0.07763 -0.129381,-0.163883 -0.08625,-0.08625 -0.181134,-0.172509 -0.08625,-0.07763 -0.163883,-0.129381 0.586529,-0.422646 0.957422,-0.991925 0.370894,-0.577903 0.569279,-1.276563 0.20701,-0.707286 0.284639,-1.518076 0.08625,-0.819416 0.103505,-1.725086 0.01725,-0.914296 0.01725,-1.888969 z m 3.424293,3.062028 h 7.737011 v 0.638281 h -7.737011 z m 3.743437,-1.949348 h 3.122405 v 0.621031 H 80.919776 Z M 80.51438,50.722286 h 0.672784 v 3.476049 H 80.51438 Z m 0.02588,3.614055 h 0.672783 v 4.321341 h -0.672783 z m 0.793539,1.630207 0.336392,-0.500275 q 0.336392,0.129381 0.724536,0.284639 0.39677,0.155258 0.784914,0.319141 0.39677,0.163883 0.741787,0.319141 0.353643,0.155258 0.60378,0.284639 l -0.353642,0.569278 Q 83.930051,57.11373 83.585034,56.949847 83.248642,56.785964 82.851872,56.613455 82.463728,56.440946 82.066958,56.277063 81.678813,56.104555 81.333796,55.966548 Z m 5.994679,-3.105155 h 4.364468 V 53.5083 h -4.364468 z m 3.700309,-2.130481 h 0.664159 v 2.527251 h -0.664159 z m -3.907319,0.07763 h 0.646907 v 2.941271 q 0,0.655533 -0.04313,1.311066 -0.04313,0.655532 -0.181134,1.293814 -0.138007,0.629657 -0.414021,1.224811 -0.276014,0.586529 -0.741787,1.104055 -0.05175,-0.07763 -0.138007,-0.172508 -0.08625,-0.08625 -0.181134,-0.181134 -0.08625,-0.08625 -0.163883,-0.129382 0.552028,-0.638282 0.802165,-1.371443 0.258763,-0.733162 0.336392,-1.518076 0.07763,-0.784914 0.07763,-1.561203 z m 0.181134,4.097079 h 4.692234 v 3.752062 h -0.664158 v -3.11378 h -4.028076 z m 10.704156,0.974673 -0.172509,-3.346666 -0.01725,-1.017801 h 0.948797 l -0.01725,1.017801 -0.172509,3.346666 z m 0.284639,2.130482 q -0.232887,0 -0.39677,-0.155258 -0.155258,-0.155258 -0.155258,-0.414021 0,-0.258763 0.163883,-0.41402 0.163884,-0.163884 0.388145,-0.163884 0.224261,0 0.388144,0.163884 0.163883,0.155257 0.163883,0.41402 0,0.258763 -0.163883,0.414021 -0.163883,0.155258 -0.388144,0.155258 z"
       id="text1"
       aria-label="加值中 ... 請勿移動卡片！" /><path
       style="font-weight:bold;font-size:5.69688px;line-height:1;font-family:Arial;-inkscape-font-specification:'Arial Bold';fill:#ff0000;stroke-width:0.142422"
       d="M 6.1380811,67.137512 V 63.05957 H 7.459379 q 0.7510535,0 0.9791512,0.0612 0.3504916,0.09179 0.5869344,0.400562 0.2364428,0.305984 0.2364428,0.792778 0,0.375527 -0.1363023,0.631442 -0.1363023,0.255914 -0.34771,0.403343 -0.208626,0.144648 -0.425597,0.191936 -0.294858,0.05841 -0.8539756,0.05841 H 6.9614583 v 1.538269 z m 0.8233772,-3.388086 v 1.157179 h 0.4506321 q 0.4867939,0 0.650913,-0.06398 0.1641191,-0.06398 0.2559146,-0.200281 0.094577,-0.136303 0.094577,-0.317112 0,-0.222534 -0.130739,-0.367182 -0.1307389,-0.144647 -0.3310198,-0.180809 -0.1474291,-0.02782 -0.5924978,-0.02782 z m 3.7191057,3.388086 H 9.898912 v -2.954144 h 0.726018 v 0.420034 q 0.186373,-0.29764 0.333802,-0.392217 0.150211,-0.09458 0.339365,-0.09458 0.267041,0 0.514611,0.147429 l -0.242007,0.681512 q -0.197499,-0.127958 -0.367181,-0.127958 -0.164119,0 -0.278168,0.0918 -0.114049,0.08901 -0.180809,0.325456 -0.06398,0.236443 -0.06398,0.990278 z m 1.287918,-1.518797 q 0,-0.389435 0.191936,-0.753835 0.191936,-0.3644 0.542427,-0.556336 0.353274,-0.191936 0.787216,-0.191936 0.670384,0 1.098763,0.436724 0.428379,0.433942 0.428379,1.098763 0,0.670385 -0.433942,1.112672 -0.431161,0.439506 -1.087637,0.439506 -0.406125,0 -0.776089,-0.183591 -0.367181,-0.183591 -0.559117,-0.536865 -0.191936,-0.356054 -0.191936,-0.865102 z m 0.801124,0.04172 q 0,0.439506 0.208626,0.673167 0.208626,0.233661 0.51461,0.233661 0.305985,0 0.511829,-0.233661 0.208626,-0.233661 0.208626,-0.67873 0,-0.433942 -0.208626,-0.667603 -0.205844,-0.233661 -0.511829,-0.233661 -0.305984,0 -0.51461,0.233661 -0.208626,0.233661 -0.208626,0.673166 z m 5.435402,-0.603624 -0.770526,0.139084 q -0.03894,-0.23088 -0.178027,-0.34771 -0.136302,-0.116831 -0.356055,-0.116831 -0.292076,0 -0.467322,0.203063 -0.172464,0.200281 -0.172464,0.673166 0,0.525738 0.175245,0.742709 0.178028,0.216971 0.475668,0.216971 0.222534,0 0.3644,-0.125176 0.141865,-0.127957 0.200281,-0.436723 l 0.767743,0.130739 q -0.119612,0.528519 -0.458977,0.798342 -0.339365,0.269823 -0.909609,0.269823 -0.648132,0 -1.034785,-0.408907 -0.383872,-0.408907 -0.383872,-1.132144 0,-0.731582 0.386654,-1.137707 0.386653,-0.408907 1.045911,-0.408907 0.539646,0 0.856757,0.233661 0.319894,0.23088 0.458978,0.706547 z m 2.30323,1.140488 0.778871,0.130739 q -0.150211,0.428379 -0.475668,0.653695 -0.322674,0.222535 -0.809468,0.222535 -0.770526,0 -1.140489,-0.503484 -0.292076,-0.403344 -0.292076,-1.018095 0,-0.734364 0.383871,-1.148834 0.383872,-0.417252 0.970807,-0.417252 0.659258,0 1.040348,0.436724 0.38109,0.433942 0.3644,1.332424 h -1.958303 q 0.0083,0.34771 0.189155,0.542428 0.180809,0.191936 0.450632,0.191936 0.183591,0 0.308766,-0.100141 0.125176,-0.10014 0.189154,-0.322675 z m 0.04451,-0.789997 q -0.0083,-0.339364 -0.175246,-0.51461 -0.1669,-0.178028 -0.406125,-0.178028 -0.255914,0 -0.422815,0.186373 -0.166901,0.186372 -0.164119,0.506265 z m 1.137707,0.887356 0.784434,-0.119612 q 0.05007,0.228098 0.203062,0.34771 0.152993,0.116831 0.428379,0.116831 0.303203,0 0.456196,-0.111268 0.102922,-0.07789 0.102922,-0.208626 0,-0.08901 -0.05563,-0.147429 -0.05842,-0.05563 -0.261478,-0.102922 -0.945771,-0.208626 -1.198904,-0.38109 -0.350491,-0.239224 -0.350491,-0.664821 0,-0.383872 0.303203,-0.64535 0.303203,-0.261478 0.940207,-0.261478 0.606407,0 0.901265,0.197499 0.294858,0.1975 0.406125,0.584153 l -0.737145,0.136302 q -0.04729,-0.172464 -0.180809,-0.264259 -0.130739,-0.0918 -0.375527,-0.0918 -0.308767,0 -0.442287,0.08623 -0.08901,0.0612 -0.08901,0.158556 0,0.08345 0.07789,0.141866 0.105704,0.07789 0.7288,0.219753 0.625878,0.141865 0.873447,0.34771 0.244788,0.208626 0.244788,0.581371 0,0.406125 -0.339365,0.698201 -0.339365,0.292077 -1.004186,0.292077 -0.603624,0 -0.956898,-0.244788 -0.350491,-0.244788 -0.458977,-0.664822 z m 3.168333,0 0.784434,-0.119612 q 0.05007,0.228098 0.203062,0.34771 0.152993,0.116831 0.428379,0.116831 0.303203,0 0.456196,-0.111268 0.102922,-0.07789 0.102922,-0.208626 0,-0.08901 -0.05563,-0.147429 -0.05842,-0.05563 -0.261478,-0.102922 -0.945771,-0.208626 -1.198904,-0.38109 -0.350491,-0.239224 -0.350491,-0.664821 0,-0.383872 0.303203,-0.64535 0.303203,-0.261478 0.940207,-0.261478 0.606407,0 0.901265,0.197499 0.294858,0.1975 0.406125,0.584153 l -0.737145,0.136302 q -0.04729,-0.172464 -0.180809,-0.264259 -0.130739,-0.0918 -0.375527,-0.0918 -0.308767,0 -0.442287,0.08623 -0.08901,0.0612 -0.08901,0.158556 0,0.08345 0.07789,0.141866 0.105704,0.07789 0.7288,0.219753 0.625878,0.141865 0.873448,0.34771 0.244787,0.208626 0.244787,0.581371 0,0.406125 -0.339365,0.698201 -0.339364,0.292077 -1.004186,0.292077 -0.603624,0 -0.956898,-0.244788 -0.350491,-0.244788 -0.458977,-0.664822 z m 3.44372,-2.511856 V 63.05957 h 0.781651 v 0.723237 z m 0,3.354705 v -2.954144 h 0.781651 v 2.954144 z m 4.269877,0 H 31.79073 v -1.50767 q 0,-0.478449 -0.05007,-0.617533 -0.05007,-0.141866 -0.164119,-0.219753 -0.111267,-0.07789 -0.269823,-0.07789 -0.203063,0 -0.3644,0.111267 -0.161338,0.111268 -0.222534,0.294858 -0.05842,0.183591 -0.05842,0.67873 v 1.337988 h -0.781652 v -2.954144 h 0.726019 v 0.433942 q 0.386653,-0.500702 0.973588,-0.500702 0.258696,0 0.472885,0.09458 0.214189,0.0918 0.322675,0.236443 0.111267,0.144647 0.152992,0.328238 0.04451,0.183591 0.04451,0.525738 z m 0.720455,0.194718 0.892919,0.108485 q 0.02225,0.155774 0.102923,0.21419 0.111267,0.08345 0.350491,0.08345 0.305985,0 0.458977,-0.0918 0.102922,-0.0612 0.155774,-0.1975 0.03616,-0.09736 0.03616,-0.358836 v -0.431161 q -0.350491,0.478449 -0.884574,0.478449 -0.595279,0 -0.942989,-0.503484 -0.272605,-0.39778 -0.272605,-0.990278 0,-0.742708 0.356055,-1.134925 0.358837,-0.392217 0.890138,-0.392217 0.54799,0 0.904045,0.481231 v -0.414471 h 0.731582 v 2.650941 q 0,0.522956 -0.08623,0.781652 -0.08623,0.258696 -0.242006,0.406125 -0.155774,0.147429 -0.417252,0.23088 -0.258696,0.08345 -0.656476,0.08345 -0.751054,0 -1.065384,-0.258696 -0.314329,-0.255915 -0.314329,-0.650913 0,-0.03894 0.0028,-0.09458 z m 0.698202,-1.732987 q 0,0.470104 0.180809,0.689857 0.183591,0.216971 0.450632,0.216971 0.286513,0 0.484012,-0.222534 0.1975,-0.225316 0.1975,-0.664822 0,-0.458977 -0.189155,-0.681511 -0.189154,-0.222535 -0.478449,-0.222535 -0.280949,0 -0.46454,0.219753 -0.180809,0.216971 -0.180809,0.664821 z m 2.834531,0.756617 h 0.781652 v 0.559118 q 0,0.339365 -0.05842,0.534082 -0.05841,0.1975 -0.222534,0.353274 -0.161338,0.155774 -0.411689,0.244787 l -0.152992,-0.322674 q 0.236443,-0.07789 0.336583,-0.21419 0.100141,-0.136302 0.105704,-0.372745 H 36.82557 Z m 1.605029,-3.29629 h 1.504889 q 0.509047,0 0.776088,0.07789 0.358837,0.105704 0.614751,0.375527 0.255915,0.269823 0.389436,0.662039 0.13352,0.389436 0.13352,0.962462 0,0.503484 -0.125175,0.867884 -0.152993,0.445068 -0.436724,0.720455 -0.214189,0.208626 -0.578589,0.325456 -0.272605,0.08623 -0.7288,0.08623 h -1.549396 z m 0.823377,0.689856 v 2.701011 h 0.614751 q 0.344929,0 0.497921,-0.03894 0.200281,-0.05007 0.33102,-0.169683 0.133521,-0.119612 0.216971,-0.392216 0.08345,-0.275387 0.08345,-0.748272 0,-0.472886 -0.08345,-0.726019 -0.08345,-0.253133 -0.233661,-0.394998 -0.150211,-0.141866 -0.38109,-0.191936 -0.172464,-0.03894 -0.675948,-0.03894 z m 3.107137,1.869289 q 0,-0.389435 0.191936,-0.753835 0.191936,-0.3644 0.542428,-0.556336 0.353273,-0.191936 0.787215,-0.191936 0.670385,0 1.098764,0.436724 0.428378,0.433942 0.428378,1.098763 0,0.670385 -0.433942,1.112672 -0.43116,0.439506 -1.087637,0.439506 -0.406125,0 -0.776088,-0.183591 -0.367182,-0.183591 -0.559118,-0.536865 -0.191936,-0.356054 -0.191936,-0.865102 z m 0.801124,0.04172 q 0,0.439506 0.208626,0.673167 0.208626,0.233661 0.514611,0.233661 0.305985,0 0.511829,-0.233661 0.208626,-0.233661 0.208626,-0.67873 0,-0.433942 -0.208626,-0.667603 -0.205844,-0.233661 -0.511829,-0.233661 -0.305985,0 -0.514611,0.233661 -0.208626,0.233661 -0.208626,0.673166 z m 7.129444,1.477072 h -0.781652 v -1.50767 q 0,-0.478449 -0.05007,-0.617533 -0.05007,-0.141866 -0.164119,-0.219753 -0.111267,-0.07789 -0.269823,-0.07789 -0.203062,0 -0.3644,0.111267 -0.161337,0.111268 -0.222534,0.294858 -0.05841,0.183591 -0.05841,0.67873 v 1.337988 h -0.781652 v -2.954144 h 0.726018 v 0.433942 q 0.386653,-0.500702 0.973588,-0.500702 0.258696,0 0.472885,0.09458 0.21419,0.0918 0.322675,0.236443 0.111267,0.144647 0.152993,0.328238 0.04451,0.183591 0.04451,0.525738 z m 0.61197,-1.518797 q 0,-0.389435 0.191936,-0.753835 0.191936,-0.3644 0.542427,-0.556336 0.353274,-0.191936 0.787216,-0.191936 0.670385,0 1.098763,0.436724 0.428379,0.433942 0.428379,1.098763 0,0.670385 -0.433942,1.112672 -0.43116,0.439506 -1.087637,0.439506 -0.406125,0 -0.776088,-0.183591 -0.367182,-0.183591 -0.559118,-0.536865 -0.191936,-0.356054 -0.191936,-0.865102 z m 0.801124,0.04172 q 0,0.439506 0.208626,0.673167 0.208626,0.233661 0.51461,0.233661 0.305985,0 0.51183,-0.233661 0.208626,-0.233661 0.208626,-0.67873 0,-0.433942 -0.208626,-0.667603 -0.205845,-0.233661 -0.51183,-0.233661 -0.305984,0 -0.51461,0.233661 -0.208626,0.233661 -0.208626,0.673166 z m 4.214244,-1.477072 v 0.623097 h -0.534082 v 1.190559 q 0,0.361618 0.01391,0.422815 0.01669,0.05842 0.06954,0.09736 0.05563,0.03894 0.133521,0.03894 0.108486,0 0.31433,-0.0751 l 0.06676,0.606406 q -0.272604,0.116831 -0.617533,0.116831 -0.211407,0 -0.38109,-0.06954 -0.169682,-0.07232 -0.250351,-0.183591 -0.07789,-0.114049 -0.108486,-0.305985 -0.02503,-0.136302 -0.02503,-0.550773 v -1.287917 h -0.358836 v -0.623097 h 0.358836 v -0.586934 l 0.784434,-0.456195 v 1.043129 z m 2.066789,0 h 0.720455 v 0.403344 q 0.386653,-0.470104 0.920736,-0.470104 0.283731,0 0.492357,0.116831 0.208626,0.11683 0.342146,0.353273 0.194718,-0.236443 0.420034,-0.353273 0.225316,-0.116831 0.481231,-0.116831 0.325456,0 0.550772,0.133521 0.225316,0.130739 0.336583,0.386653 0.08067,0.189154 0.08067,0.61197 v 1.88876 h -0.781652 v -1.688479 q 0,-0.439506 -0.08067,-0.567463 -0.108485,-0.166901 -0.333801,-0.166901 -0.164119,0 -0.308767,0.100141 -0.144647,0.10014 -0.208626,0.294858 -0.06398,0.191936 -0.06398,0.609188 v 1.418656 h -0.781652 v -1.618937 q 0,-0.431161 -0.04172,-0.556336 -0.04173,-0.125176 -0.130739,-0.186373 -0.08623,-0.0612 -0.236443,-0.0612 -0.180809,0 -0.325457,0.09736 -0.144647,0.09736 -0.208626,0.28095 -0.0612,0.183591 -0.0612,0.609188 v 1.435346 h -0.781652 z m 4.943043,1.435347 q 0,-0.389435 0.191936,-0.753835 0.191936,-0.3644 0.542427,-0.556336 0.353274,-0.191936 0.787216,-0.191936 0.670384,0 1.098763,0.436724 0.428379,0.433942 0.428379,1.098763 0,0.670385 -0.433942,1.112672 -0.431161,0.439506 -1.087637,0.439506 -0.406125,0 -0.776089,-0.183591 -0.367181,-0.183591 -0.559117,-0.536865 -0.191936,-0.356054 -0.191936,-0.865102 z m 0.801124,0.04172 q 0,0.439506 0.208626,0.673167 0.208626,0.233661 0.51461,0.233661 0.305985,0 0.511829,-0.233661 0.208626,-0.233661 0.208626,-0.67873 0,-0.433942 -0.208626,-0.667603 -0.205844,-0.233661 -0.511829,-0.233661 -0.305984,0 -0.51461,0.233661 -0.208626,0.233661 -0.208626,0.673166 z m 3.671817,1.477072 -1.190559,-2.954144 h 0.820595 l 0.556336,1.507671 0.161338,0.503484 q 0.06398,-0.191936 0.08067,-0.253133 0.03894,-0.125176 0.08345,-0.250351 l 0.561899,-1.507671 h 0.803906 l -1.173869,2.954144 z m 4.066817,-0.940208 0.778871,0.130739 q -0.150211,0.428379 -0.475668,0.653695 -0.322674,0.222535 -0.809468,0.222535 -0.770526,0 -1.140489,-0.503484 -0.292076,-0.403344 -0.292076,-1.018095 0,-0.734364 0.383871,-1.148834 0.383872,-0.417252 0.970807,-0.417252 0.659258,0 1.040348,0.436724 0.38109,0.433942 0.3644,1.332424 h -1.958303 q 0.0083,0.34771 0.189155,0.542428 0.180809,0.191936 0.450632,0.191936 0.183591,0 0.308766,-0.100141 0.125176,-0.10014 0.189154,-0.322675 z m 0.04451,-0.789997 q -0.0083,-0.339364 -0.175246,-0.51461 -0.1669,-0.178028 -0.406125,-0.178028 -0.255914,0 -0.422815,0.186373 -0.166901,0.186372 -0.164119,0.506265 z m 4.350545,-1.223939 v 0.623097 h -0.534083 v 1.190559 q 0,0.361618 0.01391,0.422815 0.01669,0.05842 0.06954,0.09736 0.05563,0.03894 0.13352,0.03894 0.108486,0 0.31433,-0.0751 l 0.06676,0.606406 q -0.272604,0.116831 -0.617533,0.116831 -0.211407,0 -0.38109,-0.06954 -0.169682,-0.07232 -0.250351,-0.183591 -0.07789,-0.114049 -0.108485,-0.305985 -0.02504,-0.136302 -0.02504,-0.550773 v -1.287917 h -0.358836 v -0.623097 h 0.358836 v -0.586934 l 0.784434,-0.456195 v 1.043129 z m 1.321302,-1.123798 v 1.499325 q 0.378308,-0.442287 0.904046,-0.442287 0.269823,0 0.486794,0.100141 0.216971,0.10014 0.325456,0.255914 0.111267,0.155774 0.150211,0.344928 0.04172,0.189155 0.04172,0.586935 v 1.732986 H 78.311543 V 65.57699 q 0,-0.464541 -0.04451,-0.589716 -0.04451,-0.125176 -0.158555,-0.197499 -0.111268,-0.07511 -0.28095,-0.07511 -0.194718,0 -0.34771,0.09458 -0.152992,0.09458 -0.225316,0.286513 -0.06954,0.189155 -0.06954,0.5619 v 1.479853 H 76.403311 V 63.05957 Z m 4.411744,3.137734 0.77887,0.130739 q -0.150211,0.428379 -0.475667,0.653695 -0.322675,0.222535 -0.809469,0.222535 -0.770525,0 -1.140488,-0.503484 -0.292077,-0.403344 -0.292077,-1.018095 0,-0.734364 0.383872,-1.148834 0.383872,-0.417252 0.970806,-0.417252 0.659258,0 1.040348,0.436724 0.38109,0.433942 0.3644,1.332424 H 80.459 q 0.0083,0.34771 0.189154,0.542428 0.180809,0.191936 0.450632,0.191936 0.183591,0 0.308767,-0.100141 0.125175,-0.10014 0.189154,-0.322675 z m 0.04451,-0.789997 q -0.0083,-0.339364 -0.175246,-0.51461 -0.166901,-0.178028 -0.406125,-0.178028 -0.255915,0 -0.422816,0.186373 -0.1669,0.186372 -0.164119,0.506265 z M 87.212915,65.056816 86.44239,65.1959 q -0.03894,-0.23088 -0.178027,-0.34771 -0.136303,-0.116831 -0.356055,-0.116831 -0.292077,0 -0.467322,0.203063 -0.172465,0.200281 -0.172465,0.673166 0,0.525738 0.175246,0.742709 0.178028,0.216971 0.475667,0.216971 0.222535,0 0.3644,-0.125176 0.141866,-0.127957 0.200281,-0.436723 l 0.767744,0.130739 q -0.119612,0.528519 -0.458977,0.798342 -0.339365,0.269823 -0.909609,0.269823 -0.648132,0 -1.034785,-0.408907 -0.383872,-0.408907 -0.383872,-1.132144 0,-0.731582 0.386653,-1.137707 0.386654,-0.408907 1.045912,-0.408907 0.539646,0 0.856757,0.233661 0.319894,0.23088 0.458977,0.706547 z m 1.176653,0.02782 -0.709328,-0.127958 q 0.119612,-0.428378 0.411688,-0.634223 0.292076,-0.205844 0.867884,-0.205844 0.522956,0 0.77887,0.125176 0.255915,0.122394 0.358837,0.31433 0.105704,0.189154 0.105704,0.698201 l -0.0083,0.912391 q 0,0.389435 0.03616,0.575808 0.03894,0.183591 0.141865,0.394998 h -0.773307 q -0.0306,-0.07789 -0.0751,-0.230879 -0.01947,-0.06954 -0.02782,-0.0918 -0.200281,0.194718 -0.428378,0.292077 -0.228098,0.09736 -0.486794,0.09736 -0.456196,0 -0.720455,-0.24757 -0.261478,-0.247569 -0.261478,-0.625878 0,-0.250351 0.119612,-0.445069 0.119612,-0.197499 0.333802,-0.300421 0.216971,-0.105704 0.623096,-0.183591 0.547991,-0.102922 0.759398,-0.191936 v -0.07789 q 0,-0.225316 -0.111267,-0.319893 -0.111267,-0.09736 -0.420033,-0.09736 -0.208626,0 -0.325457,0.08345 -0.11683,0.08067 -0.189154,0.286513 z m 1.045911,0.634223 q -0.15021,0.05007 -0.475667,0.119612 -0.325456,0.06954 -0.425597,0.136302 -0.152992,0.108486 -0.152992,0.275386 0,0.16412 0.122394,0.283732 0.122394,0.119612 0.311548,0.119612 0.211407,0 0.403343,-0.139084 0.141866,-0.105704 0.186373,-0.258696 0.0306,-0.100141 0.0306,-0.38109 z m 2.286543,1.418656 H 90.94037 v -2.954144 h 0.726018 v 0.420034 q 0.186373,-0.29764 0.333802,-0.392217 0.150211,-0.09458 0.339365,-0.09458 0.267041,0 0.514611,0.147429 l -0.242007,0.681512 q -0.197499,-0.127958 -0.367181,-0.127958 -0.164119,0 -0.278168,0.0918 -0.114049,0.08901 -0.180809,0.325456 -0.06398,0.236443 -0.06398,0.990278 z m 4.178079,0 H 95.174083 V 66.70357 q -0.180809,0.253133 -0.428379,0.378309 -0.244788,0.122394 -0.495139,0.122394 -0.509047,0 -0.873447,-0.408907 -0.361618,-0.411689 -0.361618,-1.146052 0,-0.751054 0.353273,-1.140489 0.353273,-0.392217 0.892919,-0.392217 0.495139,0 0.856757,0.411689 V 63.05957 h 0.781652 z m -2.086259,-1.54105 q 0,0.472885 0.130738,0.684293 0.189155,0.305985 0.52852,0.305985 0.269823,0 0.458977,-0.228098 0.189154,-0.230879 0.189154,-0.687075 0,-0.509047 -0.183591,-0.731582 -0.183591,-0.225316 -0.470104,-0.225316 -0.278168,0 -0.467322,0.222535 -0.186372,0.219752 -0.186372,0.659258 z m 2.856785,1.54105 V 66.35586 h 0.781652 v 0.781652 z"
       id="text2"
       aria-label="Processing,Do not move the card." /><g
       id="g2"
       transform="matrix(0.31564971,0.12117818,-0.12117818,0.31564971,22.362427,12.989649)"><g
         id="g3"
         transform="translate(-31.876774,-9.8767252)"><path
           id="rect1-8"
           style="fill:#0000ae;fill-opacity:1;stroke:#0000ae;stroke-width:4;stroke-opacity:1;paint-order:fill markers stroke"
           d="m 32.860222,16.05154 h 66.571224 c 1.082094,0 1.953234,0.871143 1.953234,1.953234 v 30.136284 c 0,1.082092 -0.87114,1.953234 -1.953234,1.953234 H 32.860222 c -1.082092,0 -1.953234,-0.871142 -1.953234,-1.953234 V 18.004774 c 0,-1.082091 0.871142,-1.953234 1.953234,-1.953234 z" /><path
           id="rect2"
           style="fill:#ffffff;stroke-width:4;paint-order:fill markers stroke"
           d="M 34.863308,17.15563 H 97.42836 V 48.990202 H 34.863308 Z" /><path
           id="path3"
           style="fill:#0000ae;stroke-width:3.54779;paint-order:fill markers stroke"
           transform="rotate(-21.001837,42.58102,-81.049787)"
           d="M 46.799441,60.242474 A 12.800006,12.800006 0 0 1 33.999435,73.04248 12.800006,12.800006 0 0 1 21.19943,60.242474 12.800006,12.800006 0 0 1 33.999435,47.442468 12.800006,12.800006 0 0 1 46.799441,60.242474 Z" /><path
           style="font-weight:bold;font-size:29.3412px;line-height:1;font-family:Helvetica;-inkscape-font-specification:'Helvetica Bold';fill:#0000ae;stroke-width:0.73353"
           d="m 68.165836,39.93776 q 1.131814,-0.143268 1.647577,-0.515764 0.902586,-0.659031 0.902586,-2.277954 0,-1.232101 -0.845279,-1.948439 -0.501436,-0.415476 -1.704884,-0.859606 z M 66.804794,24.966298 q -1.246428,0.02865 -1.848152,0.673357 -0.601724,0.630378 -0.601724,1.733538 0,1.203448 0.902586,1.905459 0.501437,0.386822 1.54729,0.716338 z M 68.19449,46.012305 H 66.804794 V 43.16128 Q 63.982423,42.846091 62.592727,41.929179 60.142852,40.281602 60.185832,36.31309 h 3.868225 q 0.200574,1.805171 0.558743,2.421222 0.558744,0.959893 2.191994,1.246428 v -6.117526 l -1.160467,-0.343842 q -2.736411,-0.802298 -3.868225,-2.234974 -1.117487,-1.432676 -1.117487,-3.452749 0,-1.332388 0.429803,-2.421222 0.444129,-1.088833 1.232101,-1.876805 1.0172,-1.0172 2.263628,-1.404022 0.759318,-0.243555 2.220647,-0.358169 v -1.905459 h 1.361042 v 1.934112 q 2.335262,0.186248 3.66765,1.146141 2.421222,1.532963 2.507183,4.971385 h -3.767938 q -0.114614,-1.275082 -0.429802,-1.862479 -0.544417,-1.0172 -1.977093,-1.117487 v 5.458495 q 3.409768,1.174794 4.584563,2.07738 1.934112,1.504309 1.934112,4.24072 0,3.610343 -2.65045,5.243593 -1.618924,1.002873 -3.839571,1.174795 z"
           id="text3"
           transform="rotate(-0.00747371)"
           aria-label="$" /><path
           style="font-weight:bold;font-size:23.6151px;line-height:1;font-family:Helvetica;-inkscape-font-specification:'Helvetica Bold';fill:#ffffff;stroke-width:0.590377"
           d="m 85.540815,59.845249 q 0.910934,-0.115308 1.326044,-0.415109 0.726441,-0.530418 0.726441,-1.833399 0,-0.99165 -0.680318,-1.56819 -0.403579,-0.334394 -1.372167,-0.691849 z M 84.445388,47.795552 q -1.00318,0.02306 -1.487474,0.541948 -0.484294,0.507355 -0.484294,1.395228 0,0.968588 0.726441,1.533598 0.403578,0.311332 1.245327,0.57654 z m 1.118489,16.938761 h -1.118489 v -2.294632 q -2.27157,-0.253677 -3.390058,-0.991649 -1.971769,-1.326044 -1.937176,-4.520078 h 3.113319 q 0.161431,1.452882 0.449701,1.948707 0.449702,0.772564 1.764214,1.00318 V 54.956185 L 83.511393,54.679446 Q 81.309008,54.03372 80.398074,52.880639 79.49867,51.727558 79.49867,50.101714 q 0,-1.072366 0.345925,-1.948707 0.357455,-0.876342 0.991649,-1.510537 0.818688,-0.818687 1.821869,-1.130019 0.611132,-0.196024 1.787275,-0.28827 v -1.533598 h 1.095427 v 1.556659 q 1.879522,0.149901 2.951888,0.922465 1.948707,1.233797 2.017892,4.001192 h -3.032604 q -0.09225,-1.026243 -0.345924,-1.499006 -0.438171,-0.818687 -1.591252,-0.899403 v 4.393239 q 2.744333,0.945526 3.68986,1.671967 1.556659,1.210736 1.556659,3.413121 0,2.905764 -2.1332,4.220276 -1.302981,0.807157 -3.090257,0.945527 z"
           id="text3-5"
           transform="rotate(-0.00747371)"
           aria-label="$" /></g></g><path
       style="fill:#ff0000;stroke:none;stroke-width:0.264584px;stroke-linecap:butt;stroke-linejoin:miter;stroke-opacity:1"
       d="M 46.863582,26.539679 C 48.427709,17.522951 60.55102,20.738257 60.55102,20.738257 l 3.513195,-4.293897 3.643307,13.662407 -10.669693,0.260234 2.862599,-5.334845 c 0,0 -7.14837,-3.184856 -13.036846,1.507523 z"
       id="path4"
       sodipodi:nodetypes="ccccccc" /><g
       id="g7"
       transform="rotate(20.848921,82.435668,27.043173)"><path
         id="rect6"
         style="fill:#ffffff;stroke:#808080;stroke-width:0.582;paint-order:fill markers stroke"
         d="m 76.518235,19.580891 h 10.646819 c 1.179669,0 2.129365,0.949696 2.129365,2.129365 v 17.127493 c 0,1.179668 -0.949696,2.129364 -2.129365,2.129364 H 76.518235 c -1.179668,0 -2.129365,-0.949696 -2.129365,-2.129364 V 21.710256 c 0,-1.179669 0.949697,-2.129365 2.129365,-2.129365 z" /><path
         style="font-weight:500;font-size:10.5833px;line-height:1;font-family:'Helvetica Neue';-inkscape-font-specification:'Helvetica Neue Medium';stroke-width:0.264583"
         d="M 78.609766,24.583965 H 77.27627 v 7.535309 h 1.333496 z m 8.053889,4.667235 h -1.322912 c -0.169333,1.291162 -0.804331,1.92616 -1.926161,1.92616 -0.391582,0 -0.730247,-0.07408 -1.02658,-0.243415 -0.296332,-0.15875 -0.518581,-0.370416 -0.687914,-0.645582 -0.169333,-0.275165 -0.296333,-0.571498 -0.380999,-0.89958 -0.08467,-0.317499 -0.126999,-0.666748 -0.126999,-1.037164 0,-0.486831 0.0635,-0.93133 0.211665,-1.344079 0.148167,-0.412748 0.391583,-0.761997 0.740831,-1.047746 0.349249,-0.275166 0.772581,-0.423332 1.28058,-0.423332 0.486832,0 0.888997,0.137583 1.227662,0.391582 0.328083,0.253999 0.539749,0.613831 0.634998,1.05833 h 1.31233 c -0.127,-0.825498 -0.476249,-1.460496 -1.068914,-1.904994 -0.592664,-0.444499 -1.291162,-0.666748 -2.08491,-0.666748 -0.740831,0 -1.386412,0.190499 -1.936744,0.550332 -0.550331,0.359832 -0.96308,0.83608 -1.238246,1.428745 -0.275165,0.592665 -0.412748,1.238246 -0.412748,1.95791 0,1.195913 0.317499,2.14841 0.96308,2.868075 0.634998,0.719664 1.492245,1.079496 2.561159,1.079496 0.93133,0 1.693327,-0.275166 2.285992,-0.825497 0.592665,-0.550332 0.920747,-1.291163 0.99483,-2.222493 z"
         id="text6"
         aria-label="IC" /><path
         style="font-weight:bold;font-size:4.47065px;line-height:1;font-family:'Helvetica Neue';-inkscape-font-specification:'Helvetica Neue Bold';stroke-width:0.111766"
         d="m 79.581554,35.00457 h -0.612479 c -0.05365,0.312946 -0.214591,0.464948 -0.491771,0.464948 -0.169885,0 -0.304005,-0.06259 -0.397888,-0.187767 -0.09388,-0.125178 -0.13859,-0.304004 -0.13859,-0.532008 0,-0.236944 0.04471,-0.420241 0.14306,-0.55436 0.09835,-0.13412 0.232474,-0.201179 0.40683,-0.201179 0.254827,0 0.406829,0.134119 0.456006,0.397887 h 0.62142 c -0.02682,-0.268239 -0.13859,-0.478359 -0.330828,-0.634832 -0.196708,-0.156473 -0.447065,-0.236944 -0.751069,-0.236944 -0.357652,0 -0.648244,0.116237 -0.862836,0.339769 -0.214591,0.228003 -0.321886,0.527537 -0.321886,0.898601 0,0.362122 0.107295,0.652715 0.321886,0.871777 0.214592,0.214591 0.496243,0.326357 0.853895,0.326357 0.304004,0 0.55436,-0.08494 0.751069,-0.250356 0.196708,-0.169885 0.312945,-0.402359 0.353181,-0.701893 z m 2.512503,0.88966 c -0.05365,-0.125178 -0.08047,-0.330828 -0.08047,-0.625891 v -0.996955 c 0,-0.500713 -0.335298,-0.751069 -1.005896,-0.751069 -0.679539,0 -1.03272,0.259297 -1.068485,0.777893 H 80.5338 c 0.01788,-0.129649 0.06259,-0.219062 0.13412,-0.27271 0.06706,-0.05365 0.174355,-0.08047 0.321886,-0.08047 0.277181,0 0.415771,0.102825 0.415771,0.308475 0,0.08941 -0.04024,0.152002 -0.116237,0.183297 -0.076,0.03576 -0.223532,0.06706 -0.447065,0.09388 -0.102825,0.01341 -0.183297,0.02682 -0.241415,0.03576 -0.05365,0.0089 -0.129649,0.02682 -0.223533,0.04471 -0.08941,0.02235 -0.160943,0.04918 -0.214591,0.08047 -0.05365,0.03576 -0.107295,0.076 -0.165414,0.125178 -0.05812,0.05365 -0.09835,0.116237 -0.125178,0.187767 -0.02682,0.076 -0.04024,0.160944 -0.04024,0.259298 0,0.219062 0.076,0.388947 0.219062,0.514125 0.147531,0.125178 0.348711,0.183297 0.603538,0.183297 0.304004,0 0.55436,-0.09388 0.746598,-0.290593 0.0089,0.08941 0.02682,0.165414 0.04471,0.223533 z m -0.697421,-1.122133 v 0.259297 c 0,0.160944 -0.04918,0.290593 -0.152002,0.380006 -0.102825,0.08941 -0.241416,0.134119 -0.4113,0.134119 -0.107296,0 -0.192238,-0.02682 -0.254827,-0.08047 -0.06259,-0.05365 -0.09388,-0.129648 -0.09388,-0.223532 0,-0.09835 0.03576,-0.178826 0.09835,-0.232474 0.05812,-0.04471 0.178826,-0.08494 0.366594,-0.111766 0.223532,-0.03576 0.375534,-0.08047 0.447065,-0.125178 z m 2.615327,-1.224958 c -0.06259,-0.0089 -0.111766,-0.01341 -0.13859,-0.01341 -0.34871,0 -0.594596,0.160943 -0.746598,0.478359 v -0.424712 h -0.603538 v 2.306856 h 0.634832 v -1.055074 c 0,-0.223532 0.04918,-0.397887 0.147532,-0.532007 0.09835,-0.134119 0.250356,-0.201179 0.460477,-0.201179 0.07153,0 0.156472,0.0089 0.245885,0.02682 z m 2.409682,2.347091 v -3.183103 h -0.630362 v 1.162369 c -0.07153,-0.111766 -0.174355,-0.196709 -0.299533,-0.254827 -0.125178,-0.06259 -0.259298,-0.08941 -0.402359,-0.08941 -0.308475,0 -0.55436,0.107296 -0.737657,0.330828 -0.183297,0.219062 -0.27271,0.509654 -0.27271,0.871777 0,0.375534 0.09388,0.670597 0.281651,0.89413 0.187768,0.223532 0.442595,0.330828 0.760011,0.330828 0.312945,0 0.545419,-0.116237 0.697421,-0.357652 v 0.295063 z m -0.612479,-1.157899 c 0,0.228004 -0.04471,0.402359 -0.143061,0.527537 -0.09388,0.125178 -0.228003,0.187768 -0.402358,0.187768 -0.169885,0 -0.304005,-0.06706 -0.402359,-0.192238 -0.09835,-0.125179 -0.143061,-0.299534 -0.143061,-0.523067 0,-0.223532 0.04471,-0.393417 0.143061,-0.518595 0.09388,-0.125178 0.228003,-0.187767 0.402359,-0.187767 0.169884,0 0.304004,0.06259 0.402358,0.187767 0.09835,0.125178 0.143061,0.295063 0.143061,0.518595 z"
         id="text7"
         aria-label="card" /></g></g></svg>
