<?xml version="1.0" encoding="UTF-8" standalone="no"?>
<!-- Created with Inkscape (http://www.inkscape.org/) -->

<svg
   width="1000"
   height="300"
   viewBox="0 0 264.58333 79.374998"
   version="1.1"
   id="svg1"
   sodipodi:docname="bills_acc.svg"
   inkscape:version="1.3.2 (091e20e, 2023-11-25, custom)"
   xmlns:inkscape="http://www.inkscape.org/namespaces/inkscape"
   xmlns:sodipodi="http://sodipodi.sourceforge.net/DTD/sodipodi-0.dtd"
   xmlns="http://www.w3.org/2000/svg"
   xmlns:svg="http://www.w3.org/2000/svg">
  <sodipodi:namedview
     id="namedview1"
     pagecolor="#505050"
     bordercolor="#ffffff"
     borderopacity="1"
     inkscape:showpageshadow="0"
     inkscape:pageopacity="0"
     inkscape:pagecheckerboard="1"
     inkscape:deskcolor="#d1d1d1"
     inkscape:document-units="mm"
     inkscape:zoom="2.8578563"
     inkscape:cx="543.06439"
     inkscape:cy="180.205"
     inkscape:window-width="1920"
     inkscape:window-height="1009"
     inkscape:window-x="1912"
     inkscape:window-y="-8"
     inkscape:window-maximized="1"
     inkscape:current-layer="layer1" />
  <defs
     id="defs1">
    <rect
       x="53.886543"
       y="25.893534"
       width="496.87592"
       height="237.94058"
       id="rect8" />
    <rect
       x="-92.37693"
       y="-45.138729"
       width="151.16225"
       height="87.828072"
       id="rect7" />
    <rect
       x="24.14397"
       y="21.169714"
       width="129.64262"
       height="62.634357"
       id="rect6" />
    <rect
       x="4.1989512"
       y="9.9725094"
       width="86.953285"
       height="82.229469"
       id="rect1" />
    <rect
       x="53.886543"
       y="25.893534"
       width="496.87592"
       height="237.94058"
       id="rect8-0" />
  </defs>
  <g
     inkscape:label="Layer 1"
     inkscape:groupmode="layer"
     id="layer1">
    <path
       style="font-size:55px;line-height:0.45;font-family:'Noto Sans TC';-inkscape-font-specification:'Noto Sans TC';white-space:pre;stroke-width:0.725313"
       d="m 88.969214,9.1858083 h 3.111591 V 37.868293 q 0,1.595688 -0.478706,2.433424 -0.438814,0.877628 -1.63558,1.27655 -1.156873,0.398922 -3.271159,0.438814 -2.074394,0.07978 -5.066309,0.07978 -0.07978,-0.438814 -0.319137,-1.037197 -0.199461,-0.55849 -0.438814,-1.156873 -0.239353,-0.598383 -0.478707,-1.037197 1.595688,0.07978 3.111591,0.119676 1.555796,0 2.672777,0 1.156874,0 1.63558,0 0.638275,-0.07978 0.877628,-0.279245 0.279245,-0.239353 0.279245,-0.877628 z m -23.4965,7.9784377 h 2.91213 v 18.111055 h -2.91213 z m 1.236658,0 h 15.11914 V 32.083925 H 66.709372 V 29.211688 H 78.87649 V 20.036484 H 66.709372 Z M 61.40371,8.3081801 H 96.987545 V 11.300094 H 61.40371 Z m 38.77521,18.3504079 q 2.31376,-0.638275 5.58494,-1.63558 3.27118,-0.997305 6.66203,-2.074394 l 0.39893,2.752561 q -3.07172,0.997305 -6.22322,2.034502 -3.11161,1.037197 -5.66473,1.874933 z m 0.5186,-13.124531 h 12.36665 v 2.792453 h -12.36665 z m 5.14612,-8.0183302 h 2.79247 V 38.586352 q 0,1.196766 -0.31914,1.874933 -0.27924,0.678168 -1.0372,1.037197 -0.67817,0.35903 -1.87494,0.478707 -1.19678,0.119676 -3.07172,0.07978 -0.0798,-0.558491 -0.31914,-1.396227 -0.23935,-0.797843 -0.5186,-1.396226 1.27656,0.03989 2.27387,0.03989 1.0372,0 1.39623,0 0.67817,0 0.67817,-0.71806 z m 8.9758,4.1487877 h 21.34243 v 2.5929925 h -21.34243 z m -0.99731,9.3347725 h 23.13759 v 2.592992 h -23.13759 z m 3.94934,-5.345553 2.51323,-0.997305 q 0.87763,1.156873 1.71536,2.5531 0.83774,1.396227 1.23667,2.433424 l -2.55311,1.116981 q -0.39892,-0.997305 -1.23666,-2.473316 -0.79785,-1.476011 -1.67549,-2.632884 z m 12.56611,-0.917521 2.87225,0.837736 q -0.87763,1.675472 -1.83505,3.430729 -0.95742,1.755256 -1.83505,3.031806 l -2.43344,-0.797844 q 0.5585,-0.877628 1.15688,-2.034501 0.63828,-1.156874 1.19677,-2.313748 0.5585,-1.196765 0.87764,-2.154178 z m -17.03405,13.2841 h 24.1349 v 2.592992 h -24.1349 z m 18.03136,-2.393532 2.91214,0.518599 q -0.67817,4.029111 -2.0744,7.060917 -1.39624,2.991915 -3.71,5.106201 -2.31376,2.114286 -5.74451,3.510512 -3.39084,1.436119 -8.09815,2.273855 -0.15956,-0.638275 -0.55849,-1.356334 -0.39892,-0.71806 -0.79785,-1.196766 4.42806,-0.678167 7.57956,-1.874933 3.15149,-1.196766 5.26579,-3.071699 2.1143,-1.914825 3.35096,-4.627494 1.23667,-2.712669 1.87495,-6.342858 z M 122.8378,5.8348643 126.0292,5.2763736 q 0.75795,1.1967657 1.39623,2.6727768 0.67817,1.4361188 0.99731,2.5132076 l -3.35096,0.71806 q -0.27925,-1.077089 -0.91753,-2.5929926 -0.63828,-1.5159032 -1.31645,-2.7525611 z m -7.22052,27.4458267 q 1.15688,-1.476011 2.43344,-3.390836 1.27656,-1.914825 2.39355,-3.989219 1.15687,-2.074394 1.95472,-3.909435 l 2.79247,0.558491 q -0.79785,1.914825 -1.95473,3.949327 -1.15688,2.034502 -2.35365,3.909434 -1.19677,1.835041 -2.23397,3.191376 z m 0,0 1.99463,-1.874933 q 2.35365,0.797844 4.94665,1.835041 2.6329,0.997305 5.2259,2.154178 2.6329,1.156874 4.90677,2.313747 2.31376,1.156874 4.02913,2.194071 l -2.15419,2.154178 q -1.5558,-1.037197 -3.78978,-2.19407 -2.19408,-1.156874 -4.78708,-2.35364 -2.59301,-1.196765 -5.2658,-2.273855 -2.67279,-1.116981 -5.10623,-1.954717 z m 26.20931,-16.276013 h 34.18768 v 8.138006 h -2.95203 v -5.505122 h -28.40328 v 5.505122 h -2.83237 z m 4.86688,7.140702 h 22.29977 v 2.792453 h -22.29977 z m 24.97255,-18.8291142 2.07439,2.4334236 q -2.99191,0.5983829 -6.70189,1.1169813 -3.70997,0.5185985 -7.81887,0.9175204 -4.069,0.3590299 -8.25769,0.6382749 -4.14881,0.279245 -8.05827,0.438814 -0.0399,-0.598383 -0.27925,-1.316442 -0.19946,-0.7579516 -0.39892,-1.2765501 3.86956,-0.1595688 7.93859,-0.4388141 4.10891,-0.2792453 8.05824,-0.6382751 3.98922,-0.3590297 7.41995,-0.8377359 3.43072,-0.4787063 6.02372,-1.037197 z m -26.08954,6.3827502 2.59301,-0.757951 q 0.87763,1.196765 1.67548,2.712669 0.79785,1.515903 1.11699,2.5531 l -2.71269,0.91752 q -0.31914,-1.116981 -1.11698,-2.632884 -0.75796,-1.555796 -1.55581,-2.792454 z m 10.61137,-0.877628 2.67277,-0.598383 q 0.71806,1.396227 1.31645,3.031807 0.63827,1.595687 0.79784,2.792453 l -2.79245,0.718059 q -0.19946,-1.156873 -0.75796,-2.832345 -0.55849,-1.715364 -1.23665,-3.111591 z m 13.60323,-0.678167 3.0717,0.91752 q -0.71806,1.27655 -1.55579,2.632885 -0.79785,1.316442 -1.63558,2.5531 -0.83774,1.236658 -1.5558,2.19407 l -2.39353,-0.837736 q 0.67817,-0.997304 1.43612,-2.273854 0.75795,-1.316443 1.47601,-2.672777 0.71806,-1.396227 1.15687,-2.513208 z m -1.87493,14.002159 h 0.63828 l 0.55849,-0.119677 1.99461,1.27655 q -1.83504,3.789758 -4.78707,6.622104 -2.91213,2.832345 -6.66199,4.826955 -3.74987,1.954717 -8.05823,3.231267 -4.26849,1.316442 -8.85612,2.074394 -0.15957,-0.35903 -0.47871,-0.877628 -0.27925,-0.518599 -0.63828,-0.997305 -0.31914,-0.478706 -0.59839,-0.797844 4.46795,-0.638275 8.61677,-1.755256 4.1887,-1.156874 7.7391,-2.91213 3.55041,-1.755256 6.26308,-4.228572 2.71267,-2.513208 4.26846,-5.82426 z m -17.35312,1.874933 q 2.31376,3.670081 6.14342,6.38275 3.86954,2.672777 8.93585,4.388141 5.1062,1.715364 11.12992,2.473316 -0.31914,0.319137 -0.67817,0.797844 -0.31914,0.518598 -0.63828,1.037196 -0.31913,0.518599 -0.51859,0.957413 -6.06362,-0.91752 -11.20971,-2.832345 -5.14609,-1.914826 -9.1752,-4.946632 -3.98924,-3.031807 -6.58225,-7.180594 z M 206.53179,9.8240833 h 2.87224 q -0.0399,5.0264157 0.15957,9.4943417 0.19946,4.428033 0.59838,8.01833 0.39892,3.590297 0.9973,6.183289 0.59839,2.592993 1.31645,3.989219 0.75795,1.396227 1.63558,1.396227 0.5186,0 0.79784,-1.515903 0.27925,-1.515903 0.39892,-4.747171 0.43882,0.438814 1.11698,0.837736 0.67817,0.35903 1.19677,0.598383 -0.15957,2.952022 -0.59838,4.627494 -0.43882,1.63558 -1.19677,2.313747 -0.71806,0.71806 -1.99461,0.71806 -1.63558,0 -2.87224,-1.63558 -1.19676,-1.595688 -2.0345,-4.507818 -0.83773,-2.952022 -1.35633,-6.941241 -0.47871,-4.029111 -0.71806,-8.776282 -0.23935,-4.787063 -0.31914,-10.0528317 z m -7.73908,11.3692747 h 17.95148 v 2.792453 h -17.95148 z m 15.19892,-15.198925 2.15418,2.3935315 q -2.43343,0.7579516 -5.50512,1.3962266 -3.03181,0.6382749 -6.30297,1.1568739 -3.23127,0.478706 -6.26307,0.797843 -0.0798,-0.518598 -0.35903,-1.196765 -0.27925,-0.7180597 -0.55849,-1.1568738 2.99191,-0.4388141 6.1035,-0.9574126 3.11159,-0.5584906 5.90405,-1.1568735 2.83234,-0.638275 4.82695,-1.2765501 z m -16.8345,36.341785 -0.31914,-2.632884 1.31644,-1.156874 8.49704,-2.632884 q 0.0798,0.598383 0.15957,1.356334 0.0798,0.757952 0.19946,1.236658 -2.99192,1.037197 -4.82696,1.675472 -1.83504,0.678167 -2.83234,1.077089 -0.99731,0.398922 -1.47601,0.638275 -0.43882,0.239353 -0.71806,0.438814 z m -6.38275,-21.14286 2.27385,-0.757952 q 0.63828,1.27655 1.19677,2.752561 0.55849,1.436119 1.03719,2.792453 0.47871,1.356335 0.71806,2.393532 l -2.47331,0.957412 q -0.19946,-1.037197 -0.63828,-2.433423 -0.43881,-1.396227 -0.9973,-2.872238 -0.5186,-1.515903 -1.11698,-2.832345 z m -3.90944,10.172508 2.43342,-0.438814 q 0.35903,2.034502 0.67817,4.428033 0.31914,2.353639 0.43882,4.069003 l -2.5531,0.518599 q -0.0798,-1.755256 -0.35903,-4.148788 -0.27925,-2.393531 -0.63828,-4.428033 z m -4.66739,-0.239353 2.63289,0.438814 q -0.31914,2.632885 -0.87763,5.265769 -0.55849,2.632885 -1.19676,4.507818 -0.27925,-0.199461 -0.75796,-0.35903 -0.43881,-0.159569 -0.91752,-0.35903 -0.4787,-0.159569 -0.79784,-0.239353 0.71806,-1.835041 1.15687,-4.308357 0.47871,-2.513207 0.75795,-4.946631 z m -0.9973,-10.730999 q -0.0798,-0.279246 -0.23935,-0.797844 -0.15957,-0.518599 -0.35903,-1.037197 -0.15957,-0.518599 -0.31914,-0.877628 0.5186,-0.119677 1.07709,-0.678167 0.59838,-0.598383 1.23666,-1.515904 0.35903,-0.438814 1.03719,-1.436119 0.67817,-1.037196 1.47601,-2.433423 0.83774,-1.436119 1.67548,-3.0318066 0.87762,-1.6355798 1.55579,-3.2312674 l 2.71267,1.1568735 q -1.11698,2.2339627 -2.43342,4.4679255 -1.31644,2.233962 -2.75256,4.228572 -1.39623,1.99461 -2.79246,3.630189 v 0.03989 q 0,0 -0.27924,0.159569 -0.27925,0.159569 -0.67817,0.398922 -0.35903,0.239353 -0.63827,0.478706 -0.27925,0.239354 -0.27925,0.478707 z m 0,0 -0.0798,-2.154179 1.47601,-0.877628 7.26038,-0.638275 q -0.0798,0.558491 -0.15957,1.236658 -0.0399,0.678167 -0.0399,1.156874 -2.5132,0.239353 -4.069,0.478706 -1.55579,0.199461 -2.43342,0.35903 -0.83774,0.119676 -1.27655,0.239353 -0.43882,0.07978 -0.67817,0.199461 z m 0.27925,9.015635 q -0.0798,-0.319138 -0.27925,-0.797844 -0.15957,-0.518599 -0.35903,-1.037197 -0.15957,-0.558491 -0.31914,-0.91752 0.63828,-0.159569 1.39623,-0.877629 0.75795,-0.718059 1.75526,-1.795148 0.51859,-0.558491 1.5159,-1.795149 1.0372,-1.236658 2.31375,-2.952022 1.27655,-1.755256 2.5531,-3.749866 1.31644,-1.994609 2.39353,-4.029111 l 2.5531,1.555796 q -1.67547,2.712668 -3.5903,5.425337 -1.91482,2.672777 -3.94933,5.066309 -2.0345,2.393531 -4.069,4.348248 v 0.07978 q 0,0 -0.31914,0.159568 -0.27924,0.119677 -0.63827,0.35903 -0.35903,0.199461 -0.67817,0.478706 -0.27924,0.239354 -0.27924,0.478707 z m 0,0 -0.11968,-2.233963 1.47601,-0.997305 11.01024,-1.515903 q -0.0399,0.558491 -0.0798,1.27655 -0.0399,0.71806 0,1.156874 -3.82965,0.598383 -6.1434,0.997304 -2.27385,0.35903 -3.51051,0.598383 -1.23666,0.239353 -1.79515,0.398922 -0.55849,0.159569 -0.83773,0.319138 z m 9.89326,1.116981 2.23396,-0.718059 q 0.63828,1.675472 1.23666,3.670081 0.63827,1.954717 0.91752,3.350944 l -2.39353,0.837736 q -0.23936,-1.436119 -0.83774,-3.430728 -0.59838,-2.034502 -1.15687,-3.709974 z m 5.78437,11.808088 q -0.15957,-0.359029 -0.39893,-0.797843 -0.19946,-0.438815 -0.4787,-0.877629 -0.27925,-0.398922 -0.55849,-0.638275 0.4787,-0.359029 0.95741,-1.077089 0.47871,-0.718059 0.47871,-1.994609 V 9.3852692 h 2.79245 V 39.26452 q 0,0 -0.43881,0.319137 -0.39893,0.319138 -0.95742,0.797844 -0.55849,0.518599 -0.9973,1.037197 -0.39892,0.518598 -0.39892,0.91752 z m 26.36873,-26.687875 h 10.93046 v 2.5531 h -10.93046 z m -2.39353,6.941241 h 14.52076 v 2.592993 h -14.52076 z m 0.83774,5.265769 2.11428,-0.518598 q 0.59839,1.755256 1.07709,3.82965 0.5186,2.034502 0.67817,3.510513 l -2.27385,0.638275 q -0.11968,-1.555796 -0.55849,-3.590297 -0.43882,-2.074394 -1.0372,-3.869543 z m -1.35634,10.252293 q 1.87494,-0.319137 4.34825,-0.757951 2.51321,-0.478707 5.34556,-1.037197 2.83234,-0.558491 5.66469,-1.116982 l 0.19946,2.433424 q -3.94933,0.837736 -7.89866,1.675472 -3.90943,0.837736 -6.94124,1.515903 z m 12.96497,-11.249597 2.43342,0.718059 q -0.59838,1.835041 -1.23666,3.869542 -0.63827,1.99461 -1.23666,3.390837 l -1.91482,-0.638275 q 0.35903,-0.997305 0.71806,-2.273855 0.35903,-1.316443 0.67817,-2.632885 0.35902,-1.356334 0.55849,-2.433423 z m -5.82426,-10.092725 h 2.67277 v 21.30243 l -2.67277,0.438814 z m 1.15687,-11.5288426 2.51321,1.037197 q -1.19677,2.313747 -2.83235,4.5078176 -1.63558,2.19407 -3.51051,4.108895 -1.83504,1.874933 -3.70997,3.311052 -0.11968,-0.319137 -0.35903,-0.877628 -0.23936,-0.598383 -0.5186,-1.156873 -0.27925,-0.598383 -0.5186,-0.957413 2.5531,-1.755256 4.94663,-4.388141 2.43342,-2.6328845 3.98922,-5.5849066 z m -1.07709,4.1487878 1.43612,-2.1541783 q 1.35633,0.9175204 2.71267,1.9946096 1.35633,1.0770895 2.5531,2.1541785 1.19676,1.037197 2.07439,1.954717 l -1.5159,2.433424 q -0.83774,-0.997305 -2.07439,-2.114286 -1.19677,-1.116982 -2.55311,-2.233963 -1.35633,-1.116981 -2.63288,-2.0345018 z m 11.12992,2.8722378 2.75256,0.598383 q -0.43881,2.273855 -0.9973,4.587602 -0.55849,2.273854 -1.23666,4.348248 -0.63828,2.074394 -1.31644,3.709974 -0.27925,-0.199461 -0.75795,-0.398922 -0.47871,-0.239353 -0.95742,-0.438814 -0.4787,-0.239353 -0.83773,-0.35903 0.71806,-1.555795 1.31644,-3.550405 0.63827,-1.994609 1.15687,-4.148787 0.5186,-2.194071 0.87763,-4.348249 z m 10.97035,0.319137 2.593,-0.877628 q 0.9973,1.715364 1.87493,3.670082 0.91752,1.954717 1.63558,3.82965 0.75795,1.874933 1.11698,3.350944 l -2.75256,0.997305 q -0.31914,-1.476011 -1.0372,-3.390836 -0.67817,-1.914826 -1.59569,-3.869543 -0.87762,-1.994609 -1.83504,-3.709974 z m 2.19407,12.406472 2.79246,0.877628 q -1.5558,4.268464 -4.22857,7.459839 -2.67278,3.151483 -6.54232,5.345554 -3.86955,2.19407 -8.97575,3.510513 -0.23935,-0.598383 -0.71806,-1.396227 -0.4787,-0.757952 -0.95741,-1.236658 4.82696,-1.077089 8.49704,-2.991914 3.67008,-1.954718 6.18329,-4.787063 2.5531,-2.872238 3.94932,-6.781672 z m -7.6194,-19.5072814 h 2.83234 V 29.889855 h -2.83234 z"
       id="text7"
       aria-label="可接受紙鈔" />
    <path
       style="font-weight:500;font-size:23.6634px;line-height:0.45;font-family:'Helvetica Neue';-inkscape-font-specification:'Helvetica Neue Medium';stroke-width:0.430243"
       d="m 85.476815,50.19288 v 16.848342 h 8.589815 c 1.561784,0 2.839608,-0.449605 3.833471,-1.372478 0.993862,-0.899209 1.490794,-2.106042 1.490794,-3.596837 0,-1.064853 -0.283961,-1.964062 -0.851883,-2.673964 -0.567921,-0.709902 -1.348813,-1.18317 -2.319013,-1.419804 0.709902,-0.283961 1.301487,-0.733565 1.751092,-1.372477 0.425941,-0.638912 0.662575,-1.372477 0.662575,-2.177033 0,-1.277824 -0.473268,-2.319013 -1.419804,-3.076242 -0.946536,-0.757229 -2.29535,-1.159507 -4.046442,-1.159507 z m 2.886935,2.390004 h 4.117432 c 1.017526,0 1.798418,0.165644 2.36634,0.449604 0.567922,0.307625 0.851882,0.922873 0.851882,1.869409 0,0.851883 -0.28396,1.443468 -0.804555,1.798419 -0.544258,0.354951 -1.372477,0.520594 -2.508321,0.520594 H 88.36375 Z m 0,6.767732 h 4.377729 c 0.520595,0 0.993863,0.04733 1.396141,0.09465 0.378614,0.07099 0.757229,0.189307 1.135843,0.354951 0.378615,0.189307 0.662575,0.449605 0.851883,0.828219 0.189307,0.378614 0.307624,0.828219 0.307624,1.372477 0,0.993863 -0.331288,1.680102 -0.9702,2.058716 -0.662575,0.378615 -1.538121,0.567922 -2.673964,0.567922 H 88.36375 Z m 16.20947,-9.228726 h -2.69765 v 2.650301 h 2.69765 z m 0,4.709017 h -2.69765 v 12.210315 h 2.69765 z m 5.70289,-4.638027 h -2.67398 v 16.848342 h 2.67398 z m 5.70289,0 h -2.67397 v 16.848342 h 2.67397 z m 12.61264,8.187537 c 0,-1.301487 -0.49693,-2.271686 -1.44347,-2.934262 -0.94655,-0.638912 -2.17705,-0.970199 -3.66785,-0.970199 -1.5618,0 -2.79229,0.331287 -3.66784,0.993863 -0.89922,0.662575 -1.32516,1.561784 -1.32516,2.697627 0,1.254161 0.54426,2.15337 1.68011,2.673965 0.47327,0.236634 1.56179,0.567921 3.31289,0.993862 0.0473,0.02366 0.0947,0.04733 0.14198,0.04733 0.0473,0 0.071,0.02366 0.11832,0.02366 l 0.14198,0.02366 c 0.40228,0.09465 0.73357,0.189307 0.9702,0.260297 0.23664,0.07099 0.49694,0.165644 0.7809,0.307625 0.2603,0.14198 0.44961,0.283961 0.56792,0.473268 0.11832,0.189307 0.18931,0.425941 0.18931,0.686238 0,0.544259 -0.2603,0.9702 -0.73357,1.301487 -0.47327,0.331288 -1.11218,0.473268 -1.89308,0.473268 -1.84576,0 -2.81595,-0.757228 -2.95793,-2.295349 h -2.57933 c 0.0473,1.39614 0.54426,2.460993 1.49081,3.170895 0.92287,0.733566 2.24802,1.088517 3.99912,1.088517 1.60912,0 2.91062,-0.354951 3.88082,-1.088517 0.94654,-0.709902 1.44348,-1.703765 1.44348,-2.934261 0,-0.520595 -0.11832,-0.9702 -0.33129,-1.372478 -0.21297,-0.402278 -0.44961,-0.709902 -0.68625,-0.946536 -0.26029,-0.236634 -0.66257,-0.449604 -1.18317,-0.662575 -0.5206,-0.212971 -0.92288,-0.354951 -1.20684,-0.425941 -0.28396,-0.07099 -0.70991,-0.189307 -1.32516,-0.331288 -0.14198,-0.02366 -0.35495,-0.07099 -0.61525,-0.118317 -0.28396,-0.04733 -0.47327,-0.09465 -0.59159,-0.14198 -0.11832,-0.02366 -0.28396,-0.07099 -0.47327,-0.118317 -0.21297,-0.04733 -0.35495,-0.09465 -0.44961,-0.141981 -0.0947,-0.04733 -0.18931,-0.09465 -0.33129,-0.165643 -0.14198,-0.04733 -0.2603,-0.118317 -0.30762,-0.189308 -0.0473,-0.04733 -0.11832,-0.118317 -0.18931,-0.21297 -0.071,-0.09465 -0.11832,-0.189307 -0.14198,-0.307624 -0.0237,-0.09465 -0.0237,-0.236634 -0.0237,-0.378615 0,-0.425941 0.18931,-0.780892 0.56792,-1.041189 0.37862,-0.236634 0.89922,-0.378615 1.60912,-0.378615 1.60912,0 2.48467,0.662575 2.65032,1.940399 z m 9.06311,0.212971 h 2.55566 c 0.0947,-0.780893 0.35495,-1.348814 0.7809,-1.680102 0.40228,-0.331287 1.04119,-0.496931 1.94041,-0.496931 1.65644,0 2.50833,0.615248 2.50833,1.845745 0,0.473268 -0.071,0.757229 -0.16564,0.875546 -0.14198,0.189307 -0.37862,0.307624 -0.70991,0.402278 -0.35495,0.09465 -1.01753,0.189307 -1.96407,0.307624 -0.42595,0.04733 -0.70991,0.09465 -0.85189,0.118317 -0.14198,0.02366 -0.40228,0.07099 -0.80456,0.118317 -0.42594,0.07099 -0.70991,0.14198 -0.87555,0.189307 -0.16565,0.04733 -0.42595,0.14198 -0.75723,0.236634 -0.33129,0.118317 -0.59159,0.236634 -0.73358,0.354951 -0.14198,0.14198 -0.33128,0.283961 -0.56792,0.473268 -0.23663,0.189307 -0.40228,0.402278 -0.49693,0.615248 -0.0946,0.236634 -0.18931,0.496932 -0.2603,0.780893 -0.0946,0.307624 -0.11832,0.638912 -0.11832,0.970199 0,1.135843 0.35495,2.011389 1.11219,2.673964 0.73357,0.662576 1.72743,0.9702 3.00526,0.9702 1.8221,0 3.24191,-0.473268 4.28311,-1.467131 0.16564,0.993863 0.82822,1.467131 1.98773,1.467131 0.47327,0 1.0412,-0.07099 1.7511,-0.260298 v -1.893072 c -0.23663,0.04733 -0.42594,0.04733 -0.61525,0.04733 -0.2603,0 -0.42594,-0.04733 -0.5206,-0.189307 -0.0947,-0.118317 -0.11831,-0.354951 -0.11831,-0.709902 v -6.199811 c 0,-1.25416 -0.47328,-2.177033 -1.37249,-2.792281 -0.89921,-0.591585 -2.12972,-0.89921 -3.64418,-0.89921 -3.28923,0 -5.064,1.396141 -5.34796,4.141096 z m 7.76164,2.319013 v 1.443467 c 0,1.04119 -0.18931,1.751092 -0.54427,2.106043 -0.66257,0.662575 -1.58545,0.970199 -2.76863,0.970199 -0.7099,0 -1.25416,-0.14198 -1.63278,-0.473268 -0.37862,-0.307624 -0.56793,-0.757228 -0.56793,-1.348813 0,-0.307625 0.0473,-0.567922 0.16565,-0.804556 0.0947,-0.236634 0.23663,-0.402278 0.37862,-0.544258 0.14198,-0.141981 0.35495,-0.260298 0.63891,-0.354951 0.28396,-0.09465 0.5206,-0.141981 0.7099,-0.189308 0.18932,-0.04733 0.44961,-0.09465 0.7809,-0.14198 0.0946,0 0.33129,-0.04733 0.68624,-0.09465 0.35496,-0.04733 0.61526,-0.07099 0.7809,-0.09465 0.16565,-0.02366 0.37862,-0.07099 0.66258,-0.165644 0.2603,-0.09465 0.49694,-0.189307 0.70991,-0.307624 z m 16.58808,1.514457 h -2.6503 c -0.14198,0.89921 -0.47327,1.609112 -0.99386,2.08238 -0.5206,0.473268 -1.15951,0.709902 -1.96406,0.709902 -1.04119,0 -1.84575,-0.378615 -2.41367,-1.135843 -0.56793,-0.757229 -0.85189,-1.798419 -0.85189,-3.170896 0,-1.348814 0.28396,-2.413667 0.89922,-3.194559 0.59158,-0.780892 1.4198,-1.18317 2.46099,-1.18317 0.7099,0 1.32515,0.21297 1.79842,0.615248 0.47327,0.425941 0.78089,1.017526 0.94653,1.774755 h 2.67397 c -0.16564,-1.39614 -0.73357,-2.484657 -1.6801,-3.289212 -0.94654,-0.780893 -2.2007,-1.183171 -3.76248,-1.183171 -1.86941,0 -3.36021,0.615249 -4.44873,1.798419 -1.08852,1.18317 -1.63279,2.792281 -1.63279,4.80367 0,1.893072 0.54427,3.40753 1.63279,4.567037 1.08852,1.159506 2.53199,1.727428 4.37774,1.727428 1.51445,0 2.79228,-0.425941 3.8098,-1.325151 0.99387,-0.899209 1.60912,-2.082379 1.79842,-3.596837 z m 13.15685,0 h -2.6503 c -0.14198,0.89921 -0.47327,1.609112 -0.99387,2.08238 -0.52059,0.473268 -1.1595,0.709902 -1.96406,0.709902 -1.04119,0 -1.84574,-0.378615 -2.41366,-1.135843 -0.56793,-0.757229 -0.85189,-1.798419 -0.85189,-3.170896 0,-1.348814 0.28396,-2.413667 0.89921,-3.194559 0.59159,-0.780892 1.41981,-1.18317 2.461,-1.18317 0.7099,0 1.32515,0.21297 1.79841,0.615248 0.47327,0.425941 0.7809,1.017526 0.94654,1.774755 h 2.67396 c -0.16564,-1.39614 -0.73356,-2.484657 -1.6801,-3.289212 -0.94653,-0.780893 -2.20069,-1.183171 -3.76248,-1.183171 -1.86941,0 -3.3602,0.615249 -4.44872,1.798419 -1.08851,1.18317 -1.63277,2.792281 -1.63277,4.80367 0,1.893072 0.54426,3.40753 1.63277,4.567037 1.08852,1.159506 2.53199,1.727428 4.37773,1.727428 1.51446,0 2.79228,-0.425941 3.80981,-1.325151 0.99386,-0.899209 1.60911,-2.082379 1.79842,-3.596837 z m 13.01486,0.804556 h -2.57931 c -0.28396,0.780892 -0.63891,1.348814 -1.11218,1.703765 -0.47327,0.354951 -1.06485,0.520595 -1.79842,0.520595 -1.04119,0 -1.8694,-0.331288 -2.43733,-0.993863 -0.59158,-0.662575 -0.89921,-1.632775 -0.92287,-2.863272 h 9.01576 v -0.28396 c 0,-2.106043 -0.5206,-3.762481 -1.56179,-4.992978 -1.04119,-1.230497 -2.46099,-1.845745 -4.23575,-1.845745 -1.72742,0 -3.14723,0.638912 -4.25941,1.869409 -1.11218,1.25416 -1.65644,2.839608 -1.65644,4.73268 0,1.869408 0.5206,3.407529 1.60911,4.590699 1.08852,1.18317 2.55565,1.774755 4.4014,1.774755 1.37247,0 2.57931,-0.354951 3.57317,-1.112179 0.99386,-0.733566 1.65644,-1.774755 1.96406,-3.099906 z m -2.53198,-3.431193 h -6.2708 c 0.11831,-1.064853 0.4496,-1.893072 0.99386,-2.460994 0.54426,-0.567921 1.25416,-0.851882 2.15337,-0.851882 0.87555,0 1.58545,0.307624 2.15337,0.899209 0.56792,0.591585 0.87555,1.396141 0.9702,2.413667 z m 7.33565,-4.969314 h -2.53199 v 16.730024 h 2.67397 V 65.43211 c 0.89921,1.277824 2.22436,1.916736 3.97545,1.916736 1.63277,0 2.93426,-0.567922 3.92812,-1.727428 0.99387,-1.159507 1.4908,-2.697628 1.4908,-4.638027 0,-1.964062 -0.5206,-3.54951 -1.51446,-4.73268 -1.01753,-1.18317 -2.36634,-1.774755 -4.04644,-1.774755 -1.84575,0 -3.1709,0.662575 -3.97545,1.987726 z m 3.43119,1.822082 c 1.04119,0 1.84575,0.402278 2.46099,1.18317 0.61525,0.780892 0.92288,1.822082 0.92288,3.147232 0,1.301487 -0.30763,2.319013 -0.89921,3.076242 -0.61525,0.757229 -1.41981,1.135843 -2.43733,1.135843 -1.08852,0 -1.91674,-0.378614 -2.53199,-1.135843 -0.61525,-0.757229 -0.89921,-1.798418 -0.89921,-3.123569 0,-1.32515 0.28396,-2.390003 0.89921,-3.147232 0.59159,-0.757229 1.41981,-1.135843 2.48466,-1.135843 z m 14.41102,-1.822082 h -2.461 V 51.16308 h -2.69762 v 3.667827 h -2.03506 v 1.964062 h 2.03506 v 5.821197 0.165644 0.14198 0.14198 1.04119 c 0,0.189307 0,0.473268 0.0473,0.851882 0.0473,0.378615 0.0947,0.662576 0.18931,0.804556 0.0947,0.14198 0.21297,0.331288 0.37861,0.567922 0.14198,0.236634 0.35496,0.378614 0.59159,0.473268 0.23663,0.09465 0.52059,0.189307 0.87555,0.260297 0.35495,0.07099 0.78089,0.09465 1.25416,0.09465 0.66257,0 1.27782,-0.02366 1.82208,-0.09465 v -2.129706 c -0.28396,0.04733 -0.63891,0.04733 -1.06486,0.04733 -0.35495,0 -0.63891,-0.02366 -0.82821,-0.09465 -0.18931,-0.04733 -0.33129,-0.165644 -0.40228,-0.354951 -0.0947,-0.189307 -0.14198,-0.354951 -0.14198,-0.496931 -0.0237,-0.141981 -0.0237,-0.425941 -0.0237,-0.804556 v -6.436445 h 2.461 z m 1.79842,3.762481 h 2.55564 c 0.0947,-0.780893 0.35495,-1.348814 0.7809,-1.680102 0.40227,-0.331287 1.04119,-0.496931 1.94039,-0.496931 1.65644,0 2.50833,0.615248 2.50833,1.845745 0,0.473268 -0.071,0.757229 -0.16565,0.875546 -0.14198,0.189307 -0.37861,0.307624 -0.7099,0.402278 -0.35495,0.09465 -1.01753,0.189307 -1.96406,0.307624 -0.42594,0.04733 -0.7099,0.09465 -0.85189,0.118317 -0.14198,0.02366 -0.40227,0.07099 -0.80455,0.118317 -0.42594,0.07099 -0.7099,0.14198 -0.87555,0.189307 -0.16564,0.04733 -0.42594,0.14198 -0.75723,0.236634 -0.33128,0.118317 -0.59158,0.236634 -0.73356,0.354951 -0.14198,0.14198 -0.33129,0.283961 -0.56792,0.473268 -0.23664,0.189307 -0.40228,0.402278 -0.49693,0.615248 -0.0947,0.236634 -0.18931,0.496932 -0.2603,0.780893 -0.0947,0.307624 -0.11832,0.638912 -0.11832,0.970199 0,1.135843 0.35495,2.011389 1.11218,2.673964 0.73357,0.662576 1.72743,0.9702 3.00525,0.9702 1.82209,0 3.24189,-0.473268 4.28308,-1.467131 0.16564,0.993863 0.82822,1.467131 1.98772,1.467131 0.47327,0 1.04119,-0.07099 1.7511,-0.260298 v -1.893072 c -0.23664,0.04733 -0.42595,0.04733 -0.61525,0.04733 -0.2603,0 -0.42594,-0.04733 -0.5206,-0.189307 -0.0947,-0.118317 -0.11831,-0.354951 -0.11831,-0.709902 v -6.199811 c 0,-1.25416 -0.47327,-2.177033 -1.37248,-2.792281 -0.89921,-0.591585 -2.12971,-0.89921 -3.64416,-0.89921 -3.28922,0 -5.06397,1.396141 -5.34793,4.141096 z m 7.76159,2.319013 v 1.443467 c 0,1.04119 -0.18931,1.751092 -0.54426,2.106043 -0.66257,0.662575 -1.58544,0.970199 -2.76861,0.970199 -0.70991,0 -1.25416,-0.14198 -1.63278,-0.473268 -0.37861,-0.307624 -0.56792,-0.757228 -0.56792,-1.348813 0,-0.307625 0.0473,-0.567922 0.16564,-0.804556 0.0947,-0.236634 0.23664,-0.402278 0.37862,-0.544258 0.14198,-0.141981 0.35495,-0.260298 0.63891,-0.354951 0.28396,-0.09465 0.52059,-0.141981 0.7099,-0.189308 0.18931,-0.04733 0.44961,-0.09465 0.78089,-0.14198 0.0947,0 0.33129,-0.04733 0.68624,-0.09465 0.35495,-0.04733 0.61525,-0.07099 0.78089,-0.09465 0.16565,-0.02366 0.37862,-0.07099 0.66258,-0.165644 0.2603,-0.09465 0.49693,-0.189307 0.7099,-0.307624 z m 8.2112,-10.719521 h -2.67397 v 16.848342 h 2.53199 v -1.656438 c 0.80455,1.32515 2.15337,1.987725 3.99911,1.987725 1.65644,0 3.00525,-0.591585 4.02278,-1.774755 0.99386,-1.18317 1.51446,-2.768618 1.51446,-4.756343 0,-1.893072 -0.49694,-3.431193 -1.4908,-4.5907 -0.99386,-1.135843 -2.29535,-1.727428 -3.90446,-1.727428 -1.77475,0 -3.0999,0.638911 -3.99911,1.893072 z m 3.31287,6.483772 c 1.01753,0 1.82208,0.378615 2.43733,1.135843 0.61525,0.757229 0.92288,1.798419 0.92288,3.076242 0,1.325151 -0.30763,2.366341 -0.92288,3.147233 -0.61525,0.780892 -1.44346,1.159506 -2.43733,1.159506 -1.06485,0 -1.89307,-0.378614 -2.50832,-1.135843 -0.61525,-0.757229 -0.89921,-1.774755 -0.89921,-3.099905 0,-1.325151 0.28396,-2.390004 0.89921,-3.147233 0.61525,-0.757228 1.44347,-1.135843 2.50832,-1.135843 z M 243.1226,50.19288 h -2.67396 v 16.848342 h 2.67396 z m 13.86674,13.038534 h -2.57931 c -0.28396,0.780892 -0.63891,1.348814 -1.11218,1.703765 -0.47327,0.354951 -1.06485,0.520595 -1.79842,0.520595 -1.04119,0 -1.86941,-0.331288 -2.43733,-0.993863 -0.59159,-0.662575 -0.89921,-1.632775 -0.92287,-2.863272 h 9.01575 v -0.28396 c 0,-2.106043 -0.52059,-3.762481 -1.56178,-4.992978 -1.04119,-1.230497 -2.461,-1.845745 -4.23575,-1.845745 -1.72743,0 -3.14723,0.638912 -4.25941,1.869409 -1.11218,1.25416 -1.65644,2.839608 -1.65644,4.73268 0,1.869408 0.52059,3.407529 1.60911,4.590699 1.08852,1.18317 2.55565,1.774755 4.40139,1.774755 1.37248,0 2.57931,-0.354951 3.57318,-1.112179 0.99386,-0.733566 1.65643,-1.774755 1.96406,-3.099906 z m -2.53199,-3.431193 h -6.2708 c 0.11832,-1.064853 0.44961,-1.893072 0.99387,-2.460994 0.54425,-0.567921 1.25416,-0.851882 2.15337,-0.851882 0.87554,0 1.58544,0.307624 2.15337,0.899209 0.56792,0.591585 0.87554,1.396141 0.97019,2.413667 z"
       id="text9"
       aria-label="Bills acceptable" />
    <path
       style="font-size:55px;line-height:0.45;font-family:'Noto Sans TC';-inkscape-font-specification:'Noto Sans TC';white-space:pre;fill:#efd344;stroke-width:0.725313"
       d="m 87.495378,8.1209852 h 3.111591 V 36.80347 q 0,1.595688 -0.478706,2.433424 -0.438814,0.877628 -1.63558,1.27655 -1.156873,0.398922 -3.271159,0.438814 -2.074394,0.07978 -5.066309,0.07978 -0.07978,-0.438814 -0.319137,-1.037197 -0.199461,-0.55849 -0.438814,-1.156873 -0.239353,-0.598383 -0.478707,-1.037197 1.595688,0.07978 3.111591,0.119676 1.555796,0 2.672777,0 1.156874,0 1.63558,0 0.638275,-0.07978 0.877628,-0.279245 0.279245,-0.239353 0.279245,-0.877628 z m -23.4965,7.9784378 h 2.91213 v 18.111055 h -2.91213 z m 1.236658,0 h 15.11914 V 31.019102 H 65.235536 V 28.146865 H 77.402654 V 18.971661 H 65.235536 Z M 59.929873,7.243357 h 35.583836 v 2.991914 H 59.929873 Z m 38.775212,18.350407 q 2.313755,-0.638275 5.584925,-1.635579 3.27118,-0.997305 6.66204,-2.074394 l 0.39892,2.752561 q -3.07172,0.997305 -6.22322,2.034502 -3.11161,1.037197 -5.664717,1.874933 z m 0.518598,-13.12453 h 12.366647 v 2.792453 H 99.223683 Z M 104.3698,4.4509037 h 2.79247 V 37.521529 q 0,1.196766 -0.31914,1.874933 -0.27925,0.678168 -1.0372,1.037197 -0.67818,0.35903 -1.87495,0.478707 -1.19677,0.119676 -3.07171,0.07978 -0.0798,-0.558491 -0.31914,-1.396227 -0.23936,-0.797844 -0.5186,-1.396226 1.27655,0.03989 2.27386,0.03989 1.03721,0 1.39624,0 0.67817,0 0.67817,-0.71806 z m 8.97579,4.1487877 h 21.34244 v 2.5929926 h -21.34244 z m -0.99731,9.3347726 h 23.1376 v 2.592992 h -23.1376 z m 3.94935,-5.345554 2.51322,-0.997304 q 0.87764,1.156873 1.71537,2.5531 0.83774,1.396227 1.23666,2.433423 l -2.5531,1.116982 q -0.39893,-0.997305 -1.23667,-2.473316 -0.79785,-1.476011 -1.67548,-2.632885 z m 12.5661,-0.91752 2.87226,0.837736 q -0.87764,1.675472 -1.83505,3.430728 -0.95742,1.755257 -1.83505,3.031807 l -2.43344,-0.797844 q 0.55849,-0.877628 1.15688,-2.034502 0.63828,-1.156873 1.19677,-2.313747 0.5585,-1.196765 0.87763,-2.154178 z m -17.03405,13.284099 h 24.1349 v 2.592993 h -24.1349 z m 18.03136,-2.393531 2.91215,0.518599 q -0.67817,4.029111 -2.0744,7.060917 -1.39624,2.991914 -3.71,5.106201 -2.31376,2.114286 -5.74451,3.510512 -3.39085,1.436119 -8.09815,2.273855 -0.15957,-0.638275 -0.55849,-1.356334 -0.39893,-0.71806 -0.79785,-1.196766 4.42806,-0.678167 7.57956,-1.874933 3.15149,-1.196766 5.26579,-3.071699 2.11429,-1.914825 3.35096,-4.627494 1.23667,-2.712669 1.87494,-6.342858 z m -8.49708,-17.7919168 3.19139,-0.5584907 q 0.75796,1.1967657 1.39624,2.6727768 0.67817,1.4361188 0.99731,2.5132079 l -3.35097,0.7180598 q -0.27924,-1.0770895 -0.91752,-2.5929927 -0.63828,-1.5159032 -1.31645,-2.7525611 z m -7.22052,27.4458268 q 1.15688,-1.476011 2.43344,-3.390836 1.27655,-1.914825 2.39354,-3.989219 1.15688,-2.074394 1.95472,-3.909435 l 2.79247,0.558491 q -0.79785,1.914825 -1.95473,3.949327 -1.15688,2.034501 -2.35364,3.909434 -1.19677,1.835041 -2.23398,3.191376 z m 0,0 1.99462,-1.874933 q 2.35366,0.797844 4.94665,1.835041 2.6329,0.997305 5.22591,2.154178 2.6329,1.156874 4.90677,2.313747 2.31376,1.156874 4.02913,2.194071 l -2.15419,2.154178 q -1.55581,-1.037197 -3.78978,-2.194071 -2.19408,-1.156873 -4.78709,-2.353639 -2.59301,-1.196765 -5.26579,-2.273855 -2.67279,-1.116981 -5.10623,-1.954717 z m 26.20931,-16.276014 h 34.18768 v 8.138007 h -2.95203 v -5.505122 h -28.40329 v 5.505122 h -2.83236 z m 4.86687,7.140703 h 22.29978 v 2.792453 h -22.29978 z m 24.97256,-18.8291143 2.07439,2.4334236 q -2.99191,0.5983829 -6.70189,1.1169813 -3.70997,0.5185985 -7.81887,0.9175204 -4.069,0.3590297 -8.2577,0.6382751 -4.14881,0.2792453 -8.05827,0.4388139 -0.0399,-0.5983827 -0.27924,-1.3164421 -0.19946,-0.7579516 -0.39893,-1.2765501 3.86957,-0.1595688 7.9386,-0.4388141 4.10891,-0.2792453 8.05824,-0.6382751 3.98922,-0.3590297 7.41995,-0.8377359 3.43073,-0.4787063 6.02372,-1.037197 z m -26.08954,6.3827503 2.593,-0.757951 q 0.87764,1.196765 1.67548,2.712668 0.79785,1.515904 1.11699,2.553101 l -2.71268,0.91752 q -0.31914,-1.116981 -1.11699,-2.632885 -0.75796,-1.555795 -1.5558,-2.792453 z m 10.61137,-0.877628 2.67277,-0.5983829 q 0.71806,1.3962269 1.31645,3.0318069 0.63827,1.595687 0.79784,2.792453 l -2.79245,0.718059 q -0.19946,-1.156873 -0.75795,-2.832345 -0.5585,-1.715364 -1.23666,-3.111591 z m 13.60323,-0.6781673 3.0717,0.9175203 q -0.71806,1.27655 -1.55579,2.632885 -0.79785,1.316442 -1.63558,2.5531 -0.83774,1.236658 -1.5558,2.19407 l -2.39353,-0.837736 q 0.67817,-0.997304 1.43612,-2.273855 0.75795,-1.316442 1.47601,-2.672776 0.71806,-1.396227 1.15687,-2.5132083 z m -1.87493,14.0021593 h 0.63828 l 0.55849,-0.119677 1.99461,1.27655 q -1.83504,3.789758 -4.78707,6.622104 -2.91213,2.832345 -6.66199,4.826955 -3.74987,1.954717 -8.05824,3.231267 -4.26849,1.316442 -8.85611,2.074394 -0.15958,-0.35903 -0.47871,-0.877628 -0.27925,-0.518599 -0.63828,-0.997305 -0.31914,-0.478706 -0.59839,-0.797844 4.46795,-0.638275 8.61676,-1.755256 4.18871,-1.156874 7.73911,-2.91213 3.55041,-1.755256 6.26308,-4.228572 2.71267,-2.513208 4.26846,-5.82426 z m -17.35312,1.874932 q 2.31376,3.670082 6.14342,6.382751 3.86954,2.672777 8.93585,4.388141 5.1062,1.715364 11.12992,2.473316 -0.31914,0.319137 -0.67817,0.797843 -0.31914,0.518599 -0.63827,1.037197 -0.31914,0.518599 -0.5186,0.957413 -6.06362,-0.91752 -11.20971,-2.832346 -5.14609,-1.914825 -9.1752,-4.946631 -3.98924,-3.031807 -6.58225,-7.180594 z M 205.05795,8.7592602 h 2.87224 q -0.0399,5.0264158 0.15957,9.4943408 0.19946,4.428034 0.59838,8.018331 0.39892,3.590297 0.99731,6.183289 0.59838,2.592993 1.31644,3.989219 0.75795,1.396227 1.63558,1.396227 0.5186,0 0.79784,-1.515903 0.27925,-1.515904 0.39892,-4.747171 0.43882,0.438814 1.11698,0.837736 0.67817,0.35903 1.19677,0.598383 -0.15957,2.952022 -0.59838,4.627494 -0.43882,1.63558 -1.19677,2.313747 -0.71806,0.718059 -1.99461,0.718059 -1.63558,0 -2.87224,-1.635579 -1.19676,-1.595688 -2.0345,-4.507818 -0.83773,-2.952022 -1.35633,-6.941241 -0.47871,-4.029111 -0.71806,-8.776282 -0.23935,-4.787063 -0.31914,-10.0528318 z m -7.73908,11.3692738 h 17.95148 v 2.792454 h -17.95148 z m 15.19892,-15.1989241 2.15418,2.3935315 q -2.43342,0.7579516 -5.50512,1.3962266 -3.03181,0.6382751 -6.30297,1.156874 -3.23127,0.478706 -6.26307,0.797843 -0.0798,-0.518598 -0.35903,-1.1967654 -0.27925,-0.7180594 -0.55849,-1.1568735 2.99191,-0.4388141 6.1035,-0.9574126 3.11159,-0.5584906 5.90405,-1.1568735 2.83234,-0.638275 4.82695,-1.2765501 z m -16.8345,36.3417851 -0.31914,-2.632884 1.31644,-1.156874 8.49704,-2.632884 q 0.0798,0.598382 0.15957,1.356334 0.0798,0.757952 0.19946,1.236658 -2.99192,1.037197 -4.82696,1.675472 -1.83504,0.678167 -2.83234,1.077089 -0.99731,0.398922 -1.47601,0.638275 -0.43882,0.239353 -0.71806,0.438814 z m -6.38275,-21.142861 2.27385,-0.757951 q 0.63828,1.27655 1.19677,2.752561 0.55849,1.436119 1.03719,2.792453 0.47871,1.356335 0.71806,2.393532 l -2.47331,0.957412 q -0.19946,-1.037197 -0.63828,-2.433423 -0.43881,-1.396227 -0.9973,-2.872238 -0.5186,-1.515903 -1.11698,-2.832346 z m -3.90944,10.172509 2.43343,-0.438814 q 0.35903,2.034502 0.67816,4.428033 0.31914,2.353639 0.43882,4.069003 l -2.5531,0.518599 q -0.0798,-1.755257 -0.35903,-4.148788 -0.27925,-2.393531 -0.63828,-4.428033 z m -4.66738,-0.239353 2.63288,0.438814 q -0.31914,2.632884 -0.87763,5.265769 -0.55849,2.632885 -1.19676,4.507818 -0.27925,-0.199461 -0.75796,-0.35903 -0.43881,-0.159569 -0.91752,-0.35903 -0.4787,-0.159569 -0.79784,-0.239353 0.71806,-1.835041 1.15687,-4.308357 0.47871,-2.513208 0.75796,-4.946631 z m -0.99731,-10.730999 q -0.0798,-0.279246 -0.23935,-0.797844 -0.15957,-0.518599 -0.35903,-1.037197 -0.15957,-0.518599 -0.31914,-0.877628 0.5186,-0.119677 1.07709,-0.678168 0.59838,-0.598382 1.23666,-1.515903 0.35903,-0.438814 1.03719,-1.436119 0.67817,-1.037197 1.47602,-2.433423 0.83773,-1.4361191 1.67547,-3.0318067 0.87763,-1.6355798 1.55579,-3.2312674 l 2.71267,1.1568735 q -1.11698,2.2339627 -2.43342,4.4679256 -1.31644,2.233962 -2.75256,4.228572 -1.39623,1.994609 -2.79246,3.630189 v 0.03989 q 0,0 -0.27924,0.159569 -0.27925,0.159569 -0.67817,0.398922 -0.35903,0.239353 -0.63827,0.478706 -0.27925,0.239353 -0.27925,0.478707 z m 0,0 -0.0798,-2.154179 1.47601,-0.877628 7.26038,-0.638275 q -0.0798,0.558491 -0.15957,1.236658 -0.0399,0.678167 -0.0399,1.156874 -2.51321,0.239353 -4.06901,0.478706 -1.55579,0.199461 -2.43342,0.35903 -0.83774,0.119676 -1.27655,0.239353 -0.43882,0.07978 -0.67817,0.199461 z m 0.27925,9.015635 q -0.0798,-0.319138 -0.27925,-0.797844 -0.15957,-0.518599 -0.35903,-1.037197 -0.15957,-0.558491 -0.31914,-0.917521 0.63828,-0.159568 1.39623,-0.877628 0.75795,-0.718059 1.75526,-1.795148 0.5186,-0.558491 1.5159,-1.795149 1.0372,-1.236658 2.31375,-2.952022 1.27655,-1.755256 2.5531,-3.749866 1.31644,-1.994609 2.39353,-4.029111 l 2.5531,1.555795 q -1.67547,2.712669 -3.5903,5.425338 -1.91482,2.672777 -3.94933,5.066308 -2.0345,2.393532 -4.069,4.348249 v 0.07979 q 0,0 -0.31914,0.159568 -0.27924,0.119677 -0.63827,0.35903 -0.35903,0.199461 -0.67817,0.478706 -0.27924,0.239353 -0.27924,0.478707 z m 0,0 -0.11968,-2.233963 1.47601,-0.997305 11.01025,-1.515903 q -0.0399,0.558491 -0.0798,1.27655 -0.0399,0.718059 0,1.156874 -3.82965,0.598382 -6.1434,0.997304 -2.27385,0.35903 -3.51051,0.598383 -1.23666,0.239353 -1.79515,0.398922 -0.55849,0.159569 -0.83773,0.319138 z m 9.89326,1.116981 2.23396,-0.718059 q 0.63828,1.675472 1.23666,3.670081 0.63828,1.954717 0.91752,3.350944 l -2.39353,0.837736 q -0.23935,-1.436119 -0.83774,-3.430728 -0.59838,-2.034502 -1.15687,-3.709974 z m 5.78437,11.808088 q -0.15957,-0.359029 -0.39892,-0.797844 -0.19947,-0.438814 -0.47871,-0.877628 -0.27925,-0.398922 -0.55849,-0.638275 0.4787,-0.359029 0.95741,-1.077089 0.47871,-0.718059 0.47871,-1.994609 V 8.3204461 h 2.79245 V 38.199697 q 0,0 -0.43881,0.319137 -0.39893,0.319138 -0.95742,0.797844 -0.55849,0.518598 -0.9973,1.037197 -0.39892,0.518598 -0.39892,0.91752 z M 222.05202,14.58352 h 10.93046 v 2.5531 h -10.93046 z m -2.39353,6.941241 h 14.52076 v 2.592992 h -14.52076 z m 0.83774,5.265769 2.11429,-0.518598 q 0.59838,1.755256 1.07708,3.82965 0.5186,2.034502 0.67817,3.510513 l -2.27385,0.638275 q -0.11968,-1.555796 -0.55849,-3.590297 -0.43882,-2.074394 -1.0372,-3.869543 z m -1.35634,10.252293 q 1.87494,-0.319137 4.34825,-0.757952 2.51321,-0.478706 5.34556,-1.037196 2.83234,-0.558491 5.66469,-1.116982 l 0.19946,2.433424 q -3.94933,0.837736 -7.89865,1.675472 -3.90944,0.837736 -6.94125,1.515903 z m 12.96497,-11.249598 2.43342,0.71806 q -0.59838,1.835041 -1.23666,3.869542 -0.63827,1.99461 -1.23666,3.390836 l -1.91482,-0.638275 q 0.35903,-0.997304 0.71806,-2.273854 0.35903,-1.316443 0.67817,-2.632885 0.35903,-1.356334 0.55849,-2.433424 z M 226.2806,15.700501 h 2.67277 v 21.30243 l -2.67277,0.438814 z m 1.15687,-11.5288427 2.51321,1.037197 q -1.19677,2.313747 -2.83235,4.5078177 -1.63558,2.19407 -3.51051,4.108895 -1.83504,1.874933 -3.70997,3.311052 -0.11968,-0.319137 -0.35903,-0.877628 -0.23936,-0.598383 -0.5186,-1.156874 -0.27925,-0.598382 -0.5186,-0.957412 2.5531,-1.755256 4.94663,-4.388141 2.43343,-2.6328846 3.98922,-5.5849067 z m -1.07709,4.1487878 1.43612,-2.1541783 q 1.35633,0.9175204 2.71267,1.9946096 1.35633,1.0770891 2.5531,2.1541786 1.19677,1.037197 2.07439,1.954717 l -1.5159,2.433424 q -0.83774,-0.997305 -2.07439,-2.114287 -1.19677,-1.116981 -2.5531,-2.233962 -1.35634,-1.1169815 -2.63289,-2.0345019 z m 11.12992,2.8722379 2.75256,0.598383 q -0.43881,2.273855 -0.9973,4.587602 -0.55849,2.273854 -1.23666,4.348248 -0.63827,2.074394 -1.31644,3.709974 -0.27925,-0.199461 -0.75795,-0.398922 -0.47871,-0.239353 -0.95742,-0.438814 -0.4787,-0.239353 -0.83773,-0.35903 0.71806,-1.555795 1.31644,-3.550405 0.63828,-1.994609 1.15687,-4.148787 0.5186,-2.194071 0.87763,-4.348249 z m 10.97035,0.319137 2.593,-0.877628 q 0.9973,1.715364 1.87493,3.670082 0.91752,1.954717 1.63558,3.82965 0.75795,1.874933 1.11698,3.350944 l -2.75256,0.997305 q -0.31914,-1.476011 -1.0372,-3.390837 -0.67816,-1.914825 -1.59568,-3.869542 -0.87763,-1.994609 -1.83505,-3.709974 z m 2.19408,12.406471 2.79245,0.877629 q -1.5558,4.268464 -4.22857,7.459839 -2.67278,3.151483 -6.54232,5.345554 -3.86955,2.19407 -8.97575,3.510512 -0.23935,-0.598382 -0.71806,-1.396226 -0.4787,-0.757952 -0.95741,-1.236658 4.82696,-1.077089 8.49704,-2.991914 3.67008,-1.954718 6.18329,-4.787063 2.5531,-2.872238 3.94933,-6.781673 z M 243.03532,4.4110115 h 2.83234 V 28.825032 h -2.83234 z"
       id="text7-5"
       aria-label="可接受紙鈔" />
    <path
       style="font-weight:500;font-size:23.6634px;line-height:0.45;font-family:'Helvetica Neue';-inkscape-font-specification:'Helvetica Neue Medium';fill:#efd344;stroke-width:0.430243"
       d="m 84.002978,49.128062 v 16.848341 h 8.589814 c 1.561784,0 2.839608,-0.449604 3.833471,-1.372477 0.993863,-0.899209 1.490794,-2.106043 1.490794,-3.596837 0,-1.064853 -0.283961,-1.964062 -0.851882,-2.673964 -0.567922,-0.709902 -1.348814,-1.18317 -2.319014,-1.419804 0.709902,-0.283961 1.301487,-0.733566 1.751092,-1.372478 0.425941,-0.638911 0.662575,-1.372477 0.662575,-2.177032 0,-1.277824 -0.473268,-2.319014 -1.419804,-3.076242 -0.946536,-0.757229 -2.29535,-1.159507 -4.046441,-1.159507 z m 2.886934,2.390003 h 4.117432 c 1.017526,0 1.798419,0.165644 2.36634,0.449605 0.567922,0.307624 0.851883,0.922873 0.851883,1.869409 0,0.851882 -0.283961,1.443467 -0.804556,1.798418 -0.544258,0.354951 -1.372477,0.520595 -2.508321,0.520595 h -4.022778 z m 0,6.767733 h 4.37773 c 0.520594,0 0.993862,0.04733 1.39614,0.09465 0.378615,0.07099 0.757229,0.189307 1.135843,0.354951 0.378615,0.189307 0.662576,0.449604 0.851883,0.828219 0.189307,0.378614 0.307624,0.828219 0.307624,1.372477 0,0.993863 -0.331288,1.680101 -0.970199,2.058716 -0.662576,0.378614 -1.538121,0.567921 -2.673965,0.567921 h -4.425056 z m 16.209458,-9.228726 h -2.69764 v 2.650301 h 2.69764 z m 0,4.709016 h -2.69764 v 12.210315 h 2.69764 z m 5.70289,-4.638026 h -2.67398 v 16.848341 h 2.67398 z m 5.7029,0 h -2.67398 v 16.848341 h 2.67398 z m 12.61264,8.187536 c 0,-1.301487 -0.49694,-2.271686 -1.44348,-2.934261 -0.94654,-0.638912 -2.17705,-0.9702 -3.66785,-0.9702 -1.56179,0 -2.79229,0.331288 -3.66784,0.993863 -0.89921,0.662575 -1.32515,1.561785 -1.32515,2.697628 0,1.25416 0.54426,2.153369 1.68011,2.673964 0.47327,0.236634 1.56179,0.567922 3.31288,0.993863 0.0473,0.02366 0.0947,0.04733 0.14198,0.04733 0.0473,0 0.071,0.02366 0.11832,0.02366 l 0.14198,0.02366 c 0.40228,0.09465 0.73357,0.189307 0.97021,0.260297 0.23663,0.07099 0.49693,0.165644 0.78089,0.307624 0.2603,0.141981 0.44961,0.283961 0.56793,0.473268 0.11832,0.189307 0.18931,0.425941 0.18931,0.686239 0,0.544258 -0.2603,0.970199 -0.73357,1.301487 -0.47327,0.331287 -1.11219,0.473268 -1.89308,0.473268 -1.84576,0 -2.81596,-0.757229 -2.95794,-2.29535 h -2.57932 c 0.0473,1.396141 0.54426,2.460994 1.4908,3.170896 0.92288,0.733565 2.24803,1.088516 3.99913,1.088516 1.60912,0 2.91061,-0.354951 3.88082,-1.088516 0.94654,-0.709902 1.44347,-1.703765 1.44347,-2.934262 0,-0.520595 -0.11831,-0.970199 -0.33129,-1.372477 -0.21297,-0.402278 -0.4496,-0.709902 -0.68624,-0.946536 -0.2603,-0.236634 -0.66258,-0.449605 -1.18317,-0.662575 -0.5206,-0.212971 -0.92288,-0.354951 -1.20685,-0.425942 -0.28396,-0.07099 -0.7099,-0.189307 -1.32515,-0.331287 -0.14198,-0.02366 -0.35496,-0.07099 -0.61526,-0.118317 -0.28396,-0.04733 -0.47327,-0.09465 -0.59158,-0.141981 -0.11832,-0.02366 -0.28397,-0.07099 -0.47327,-0.118317 -0.21298,-0.04733 -0.35496,-0.09465 -0.44961,-0.14198 -0.0947,-0.04733 -0.1893,-0.09465 -0.33129,-0.165644 -0.14198,-0.04733 -0.26029,-0.118317 -0.30762,-0.189307 -0.0473,-0.04733 -0.11832,-0.118317 -0.18931,-0.212971 -0.071,-0.09465 -0.11831,-0.189307 -0.14198,-0.307624 -0.0237,-0.09465 -0.0237,-0.236634 -0.0237,-0.378614 0,-0.425942 0.18931,-0.780893 0.56792,-1.04119 0.37861,-0.236634 0.89921,-0.378614 1.60912,-0.378614 1.60912,0 2.48467,0.662575 2.65031,1.940398 z m 9.0631,0.212971 h 2.55566 c 0.0947,-0.780892 0.35496,-1.348814 0.7809,-1.680101 0.40228,-0.331288 1.0412,-0.496932 1.94041,-0.496932 1.65645,0 2.50834,0.615249 2.50834,1.845745 0,0.473269 -0.071,0.757229 -0.16565,0.875546 -0.14198,0.189308 -0.37862,0.307625 -0.70991,0.402278 -0.35495,0.09465 -1.01753,0.189307 -1.96407,0.307624 -0.42594,0.04733 -0.70991,0.09465 -0.85189,0.118317 -0.14198,0.02366 -0.40228,0.07099 -0.80456,0.118317 -0.42594,0.07099 -0.7099,0.141981 -0.87555,0.189308 -0.16564,0.04733 -0.42594,0.14198 -0.75723,0.236634 -0.33129,0.118317 -0.59159,0.236634 -0.73357,0.354951 -0.14198,0.14198 -0.33129,0.28396 -0.56792,0.473268 -0.23664,0.189307 -0.40228,0.402277 -0.49694,0.615248 -0.0946,0.236634 -0.18931,0.496931 -0.2603,0.780892 -0.0947,0.307624 -0.11832,0.638912 -0.11832,0.9702 0,1.135843 0.35496,2.011389 1.11219,2.673964 0.73357,0.662575 1.72744,0.970199 3.00527,0.970199 1.82209,0 3.2419,-0.473268 4.2831,-1.46713 0.16564,0.993862 0.82822,1.46713 1.98774,1.46713 0.47327,0 1.04119,-0.07099 1.7511,-0.260297 v -1.893072 c -0.23664,0.04733 -0.42595,0.04733 -0.61525,0.04733 -0.2603,0 -0.42595,-0.04733 -0.5206,-0.189308 -0.0947,-0.118317 -0.11832,-0.354951 -0.11832,-0.709902 v -6.199811 c 0,-1.25416 -0.47327,-2.177032 -1.37248,-2.792281 -0.89922,-0.591585 -2.12972,-0.899209 -3.64419,-0.899209 -3.28923,0 -5.06399,1.396141 -5.34796,4.141095 z m 7.76164,2.319013 v 1.443468 c 0,1.041189 -0.18931,1.751091 -0.54426,2.106042 -0.66258,0.662576 -1.58546,0.9702 -2.76863,0.9702 -0.70991,0 -1.25417,-0.141981 -1.63279,-0.473268 -0.37861,-0.307624 -0.56792,-0.757229 -0.56792,-1.348814 0,-0.307624 0.0473,-0.567922 0.16564,-0.804556 0.0947,-0.236634 0.23664,-0.402277 0.37862,-0.544258 0.14198,-0.14198 0.35495,-0.260297 0.63891,-0.354951 0.28397,-0.09465 0.5206,-0.14198 0.70991,-0.189307 0.18931,-0.04733 0.44961,-0.09465 0.7809,-0.14198 0.0947,0 0.33129,-0.04733 0.68624,-0.09465 0.35495,-0.04733 0.61525,-0.07099 0.7809,-0.09465 0.16564,-0.02366 0.37861,-0.07099 0.66257,-0.165643 0.2603,-0.09465 0.49694,-0.189308 0.70991,-0.307625 z m 16.58809,1.514458 h -2.6503 c -0.14198,0.899209 -0.47327,1.609111 -0.99386,2.082379 -0.5206,0.473268 -1.15951,0.709902 -1.96406,0.709902 -1.04119,0 -1.84575,-0.378614 -2.41367,-1.135843 -0.56793,-0.757229 -0.85189,-1.798418 -0.85189,-3.170896 0,-1.348813 0.28396,-2.413666 0.89921,-3.194559 0.59159,-0.780892 1.41981,-1.18317 2.461,-1.18317 0.7099,0 1.32515,0.212971 1.79842,0.615249 0.47327,0.425941 0.78089,1.017526 0.94653,1.774755 h 2.67397 c -0.16565,-1.396141 -0.73357,-2.484657 -1.6801,-3.289213 -0.94654,-0.780892 -2.2007,-1.18317 -3.76248,-1.18317 -1.86941,0 -3.36022,0.615248 -4.44874,1.798418 -1.08852,1.18317 -1.63278,2.792282 -1.63278,4.803671 0,1.893072 0.54426,3.407529 1.63278,4.567036 1.08852,1.159507 2.532,1.727428 4.37775,1.727428 1.51445,0 2.79228,-0.425941 3.8098,-1.32515 0.99387,-0.899209 1.60911,-2.082379 1.79842,-3.596837 z m 13.15685,0 h -2.6503 c -0.14198,0.899209 -0.47327,1.609111 -0.99387,2.082379 -0.52059,0.473268 -1.1595,0.709902 -1.96406,0.709902 -1.04119,0 -1.84574,-0.378614 -2.41367,-1.135843 -0.56792,-0.757229 -0.85188,-1.798418 -0.85188,-3.170896 0,-1.348813 0.28396,-2.413666 0.89921,-3.194559 0.59159,-0.780892 1.41981,-1.18317 2.46099,-1.18317 0.70991,0 1.32516,0.212971 1.79842,0.615249 0.47327,0.425941 0.7809,1.017526 0.94654,1.774755 h 2.67396 c -0.16564,-1.396141 -0.73356,-2.484657 -1.6801,-3.289213 -0.94653,-0.780892 -2.20069,-1.18317 -3.76248,-1.18317 -1.86941,0 -3.3602,0.615248 -4.44872,1.798418 -1.08851,1.18317 -1.63277,2.792282 -1.63277,4.803671 0,1.893072 0.54426,3.407529 1.63277,4.567036 1.08852,1.159507 2.53199,1.727428 4.37773,1.727428 1.51446,0 2.79228,-0.425941 3.80981,-1.32515 0.99386,-0.899209 1.60911,-2.082379 1.79842,-3.596837 z m 13.01486,0.804556 h -2.57931 c -0.28396,0.780892 -0.63891,1.348813 -1.11218,1.703764 -0.47327,0.354951 -1.06485,0.520595 -1.79842,0.520595 -1.04119,0 -1.86941,-0.331287 -2.43733,-0.993863 -0.59158,-0.662575 -0.89921,-1.632774 -0.92287,-2.863271 h 9.01576 V 60.24986 c 0,-2.106042 -0.5206,-3.762481 -1.56179,-4.992977 -1.04119,-1.230497 -2.46099,-1.845746 -4.23575,-1.845746 -1.72743,0 -3.14723,0.638912 -4.25941,1.869409 -1.11218,1.25416 -1.65644,2.839608 -1.65644,4.73268 0,1.869409 0.5206,3.40753 1.60911,4.5907 1.08852,1.18317 2.55565,1.774755 4.4014,1.774755 1.37247,0 2.57931,-0.354951 3.57317,-1.11218 0.99386,-0.733565 1.65644,-1.774755 1.96406,-3.099905 z m -2.53198,-3.431193 h -6.2708 c 0.11831,-1.064853 0.4496,-1.893073 0.99386,-2.460994 0.54426,-0.567922 1.25416,-0.851883 2.15337,-0.851883 0.87554,0 1.58545,0.307625 2.15337,0.89921 0.56792,0.591585 0.87554,1.39614 0.9702,2.413667 z m 7.33565,-4.969315 h -2.53199 v 16.730025 h 2.67397 v -6.128821 c 0.89921,1.277824 2.22436,1.916735 3.97545,1.916735 1.63277,0 2.93426,-0.567921 3.92812,-1.727428 0.99387,-1.159507 1.4908,-2.697628 1.4908,-4.638026 0,-1.964063 -0.5206,-3.549511 -1.51446,-4.732681 -1.01753,-1.18317 -2.36634,-1.774755 -4.04644,-1.774755 -1.84575,0 -3.1709,0.662576 -3.97545,1.987726 z m 3.43119,1.822082 c 1.04119,0 1.84574,0.402278 2.46099,1.18317 0.61525,0.780893 0.92288,1.822082 0.92288,3.147233 0,1.301487 -0.30763,2.319013 -0.89921,3.076242 -0.61525,0.757228 -1.41981,1.135843 -2.43733,1.135843 -1.08852,0 -1.91674,-0.378615 -2.53199,-1.135843 -0.61525,-0.757229 -0.89921,-1.798419 -0.89921,-3.123569 0,-1.325151 0.28396,-2.390004 0.89921,-3.147233 0.59159,-0.757228 1.41981,-1.135843 2.48466,-1.135843 z m 14.41102,-1.822082 h -2.461 v -3.667827 h -2.69763 v 3.667827 h -2.03505 v 1.964063 h 2.03505 v 5.821196 0.165644 0.14198 0.141981 1.041189 c 0,0.189308 0,0.473268 0.0473,0.851883 0.0473,0.378614 0.0947,0.662575 0.18931,0.804556 0.0947,0.14198 0.21297,0.331287 0.37861,0.567921 0.14198,0.236634 0.35495,0.378615 0.59159,0.473268 0.23663,0.09465 0.52059,0.189307 0.87554,0.260298 0.35496,0.07099 0.7809,0.09465 1.25416,0.09465 0.66258,0 1.27783,-0.02366 1.82209,-0.09465 V 63.87036 c -0.28396,0.04733 -0.63892,0.04733 -1.06486,0.04733 -0.35495,0 -0.63891,-0.02366 -0.82822,-0.09465 -0.1893,-0.04733 -0.33128,-0.165644 -0.40227,-0.354951 -0.0947,-0.189308 -0.14198,-0.354951 -0.14198,-0.496932 -0.0237,-0.14198 -0.0237,-0.425941 -0.0237,-0.804555 v -6.436445 h 2.461 z m 1.79842,3.762481 h 2.55564 c 0.0947,-0.780892 0.35495,-1.348814 0.7809,-1.680101 0.40227,-0.331288 1.04118,-0.496932 1.94039,-0.496932 1.65644,0 2.50832,0.615249 2.50832,1.845745 0,0.473269 -0.071,0.757229 -0.16564,0.875546 -0.14198,0.189308 -0.37861,0.307625 -0.7099,0.402278 -0.35495,0.09465 -1.01753,0.189307 -1.96406,0.307624 -0.42594,0.04733 -0.70991,0.09465 -0.85189,0.118317 -0.14198,0.02366 -0.40227,0.07099 -0.80455,0.118317 -0.42594,0.07099 -0.7099,0.141981 -0.87555,0.189308 -0.16564,0.04733 -0.42594,0.14198 -0.75723,0.236634 -0.33128,0.118317 -0.59158,0.236634 -0.73356,0.354951 -0.14198,0.14198 -0.33129,0.28396 -0.56792,0.473268 -0.23664,0.189307 -0.40228,0.402277 -0.49693,0.615248 -0.0947,0.236634 -0.18931,0.496931 -0.2603,0.780892 -0.0947,0.307624 -0.11832,0.638912 -0.11832,0.9702 0,1.135843 0.35495,2.011389 1.11218,2.673964 0.73357,0.662575 1.72743,0.970199 3.00525,0.970199 1.82208,0 3.24189,-0.473268 4.28308,-1.46713 0.16564,0.993862 0.82822,1.46713 1.98772,1.46713 0.47327,0 1.04119,-0.07099 1.7511,-0.260297 v -1.893072 c -0.23664,0.04733 -0.42595,0.04733 -0.61525,0.04733 -0.2603,0 -0.42594,-0.04733 -0.5206,-0.189308 -0.0947,-0.118317 -0.11831,-0.354951 -0.11831,-0.709902 v -6.199811 c 0,-1.25416 -0.47327,-2.177032 -1.37248,-2.792281 -0.89921,-0.591585 -2.12971,-0.899209 -3.64417,-0.899209 -3.28921,0 -5.06396,1.396141 -5.34792,4.141095 z m 7.76159,2.319013 v 1.443468 c 0,1.041189 -0.18931,1.751091 -0.54426,2.106042 -0.66257,0.662576 -1.58544,0.9702 -2.76861,0.9702 -0.70991,0 -1.25417,-0.141981 -1.63278,-0.473268 -0.37861,-0.307624 -0.56792,-0.757229 -0.56792,-1.348814 0,-0.307624 0.0473,-0.567922 0.16564,-0.804556 0.0947,-0.236634 0.23664,-0.402277 0.37862,-0.544258 0.14198,-0.14198 0.35495,-0.260297 0.63891,-0.354951 0.28396,-0.09465 0.52059,-0.14198 0.7099,-0.189307 0.18931,-0.04733 0.44961,-0.09465 0.78089,-0.14198 0.0947,0 0.33129,-0.04733 0.68624,-0.09465 0.35495,-0.04733 0.61525,-0.07099 0.78089,-0.09465 0.16565,-0.02366 0.37862,-0.07099 0.66258,-0.165643 0.2603,-0.09465 0.49693,-0.189308 0.7099,-0.307625 z m 8.2112,-10.71952 h -2.67397 v 16.848341 h 2.53199 v -1.656438 c 0.80455,1.325151 2.15336,1.987726 3.99911,1.987726 1.65644,0 3.00525,-0.591585 4.02278,-1.774755 0.99386,-1.18317 1.51446,-2.768618 1.51446,-4.756344 0,-1.893072 -0.49694,-3.431193 -1.4908,-4.5907 -0.99386,-1.135843 -2.29535,-1.727428 -3.90446,-1.727428 -1.77475,0 -3.09991,0.638912 -3.99911,1.893072 z m 3.31287,6.483772 c 1.01753,0 1.82208,0.378614 2.43733,1.135843 0.61525,0.757229 0.92287,1.798418 0.92287,3.076242 0,1.32515 -0.30762,2.36634 -0.92287,3.147232 -0.61525,0.780892 -1.44347,1.159507 -2.43733,1.159507 -1.06485,0 -1.89307,-0.378615 -2.50832,-1.135843 -0.61525,-0.757229 -0.89921,-1.774755 -0.89921,-3.099906 0,-1.32515 0.28396,-2.390003 0.89921,-3.147232 0.61525,-0.757229 1.44347,-1.135843 2.50832,-1.135843 z m 11.21646,-6.483772 h -2.67397 v 16.848341 h 2.67397 z m 13.86674,13.038534 h -2.57931 c -0.28396,0.780892 -0.63891,1.348813 -1.11218,1.703764 -0.47327,0.354951 -1.06486,0.520595 -1.79842,0.520595 -1.04119,0 -1.86941,-0.331287 -2.43733,-0.993863 -0.59159,-0.662575 -0.89921,-1.632774 -0.92287,-2.863271 h 9.01575 V 60.24986 c 0,-2.106042 -0.52059,-3.762481 -1.56178,-4.992977 -1.04119,-1.230497 -2.461,-1.845746 -4.23575,-1.845746 -1.72743,0 -3.14723,0.638912 -4.25941,1.869409 -1.11218,1.25416 -1.65644,2.839608 -1.65644,4.73268 0,1.869409 0.52059,3.40753 1.60911,4.5907 1.08852,1.18317 2.55565,1.774755 4.40139,1.774755 1.37248,0 2.57931,-0.354951 3.57318,-1.11218 0.99386,-0.733565 1.65643,-1.774755 1.96406,-3.099905 z m -2.53199,-3.431193 h -6.2708 c 0.11832,-1.064853 0.44961,-1.893073 0.99387,-2.460994 0.54425,-0.567922 1.25416,-0.851883 2.15337,-0.851883 0.87554,0 1.58544,0.307625 2.15336,0.89921 0.56793,0.591585 0.87555,1.39614 0.9702,2.413667 z"
       id="text9-3"
       aria-label="Bills acceptable" />
  </g>
</svg>
