<?xml version="1.0" encoding="UTF-8" standalone="no"?>
<!-- Created with Inkscape (http://www.inkscape.org/) -->

<svg
   width="100"
   height="100"
   viewBox="0 0 26.458333 26.458333"
   version="1.1"
   id="svg1"
   inkscape:version="1.3.2 (091e20e, 2023-11-25, custom)"
   sodipodi:docname="cancel_btn_prs.svg"
   xmlns:inkscape="http://www.inkscape.org/namespaces/inkscape"
   xmlns:sodipodi="http://sodipodi.sourceforge.net/DTD/sodipodi-0.dtd"
   xmlns:xlink="http://www.w3.org/1999/xlink"
   xmlns="http://www.w3.org/2000/svg"
   xmlns:svg="http://www.w3.org/2000/svg">
  <sodipodi:namedview
     id="namedview1"
     pagecolor="#505050"
     bordercolor="#ffffff"
     borderopacity="1"
     inkscape:showpageshadow="0"
     inkscape:pageopacity="0"
     inkscape:pagecheckerboard="1"
     inkscape:deskcolor="#d1d1d1"
     inkscape:document-units="mm"
     inkscape:zoom="5.7157127"
     inkscape:cx="79.080252"
     inkscape:cy="48.987767"
     inkscape:window-width="1920"
     inkscape:window-height="1009"
     inkscape:window-x="1912"
     inkscape:window-y="-8"
     inkscape:window-maximized="1"
     inkscape:current-layer="layer1" />
  <defs
     id="defs1">
    <linearGradient
       id="linearGradient2"
       inkscape:collect="always">
      <stop
         style="stop-color:#ffffff;stop-opacity:1;"
         offset="0"
         id="stop3" />
      <stop
         style="stop-color:#a63025;stop-opacity:1;"
         offset="1"
         id="stop4" />
    </linearGradient>
    <linearGradient
       id="linearGradient1"
       inkscape:collect="always">
      <stop
         style="stop-color:#ffffff;stop-opacity:1;"
         offset="0"
         id="stop1" />
      <stop
         style="stop-color:#a63025;stop-opacity:1;"
         offset="1"
         id="stop2" />
    </linearGradient>
    <radialGradient
       inkscape:collect="always"
       xlink:href="#linearGradient1"
       id="radialGradient2"
       cx="5.9615526"
       cy="6.7022047"
       fx="5.9615526"
       fy="6.7022047"
       r="13.229167"
       gradientUnits="userSpaceOnUse" />
    <radialGradient
       inkscape:collect="always"
       xlink:href="#linearGradient2"
       id="radialGradient4"
       cx="22.298092"
       cy="22.453941"
       fx="22.298092"
       fy="22.453941"
       r="13.229132"
       gradientUnits="userSpaceOnUse"
       gradientTransform="matrix(1.3673914,-0.00242022,0.00230984,1.3050278,-7.8822263,-6.6021759)" />
  </defs>
  <g
     inkscape:label="Layer 1"
     inkscape:groupmode="layer"
     id="layer1">
    <ellipse
       style="fill:url(#radialGradient4);stroke:url(#radialGradient2);stroke-width:2.869;stroke-dasharray:none"
       id="path1"
       cx="13.229165"
       cy="13.229168"
       rx="11.794632"
       ry="11.794633" />
    <path
       style="font-size:6.54587px;line-height:0.45;font-family:'Noto Sans TC';-inkscape-font-specification:'Noto Sans TC';fill:#ffff00;stroke-width:0.119016"
       d="m 10.152605,7.9743508 h 2.421972 V 8.4521993 H 10.152605 Z M 7.1218671,7.4768647 H 10.316252 V 7.9416215 H 7.1218671 Z M 7.8877339,8.8122222 H 9.5831142 V 9.2573413 H 7.8877339 Z m 0,1.3615408 h 1.6953803 v 0.445119 H 7.8877339 Z M 12.424022,7.9743508 h 0.09164 l 0.0851,-0.019638 0.314202,0.085096 q -0.157101,1.309174 -0.530216,2.2714165 -0.373114,0.955697 -0.929513,1.623376 -0.549853,0.661133 -1.256807,1.066977 -0.05891,-0.09164 -0.150555,-0.216014 -0.091642,-0.117825 -0.1701927,-0.18983 0.6480407,-0.333839 1.1717107,-0.955697 0.52367,-0.621858 0.877147,-1.512096 0.360022,-0.8902383 0.497486,-2.0423114 z m -1.675743,0.504032 q 0.176738,0.9426053 0.497486,1.7542932 0.320748,0.811688 0.798596,1.427 0.484395,0.608765 1.158619,0.955697 -0.05237,0.04582 -0.117825,0.117825 -0.06546,0.07201 -0.124372,0.144009 -0.05891,0.07855 -0.09819,0.144009 -0.7135,-0.399298 -1.217532,-1.047339 Q 11.147577,11.31929 10.813738,10.461781 10.486444,9.5977266 10.276976,8.570025 Z M 7.6258991,7.6536032 H 8.0972017 V 11.901873 H 7.6258991 Z m 1.7542931,0 H 9.8580407 V 13.080129 H 9.3801922 Z M 6.9844038,11.764409 q 0.3272935,-0.04582 0.7462292,-0.09819 0.4189357,-0.05891 0.8902383,-0.124371 0.4778485,-0.07201 0.955697,-0.144009 l 0.026184,0.451665 Q 8.9285272,11.960786 8.2543026,12.072065 7.5866239,12.176799 7.076046,12.248804 Z M 16.056979,8.9431396 h 2.867091 v 0.451665 h -2.867091 z m -0.229105,0 h 0.458211 v 1.8132064 q 0,0.360022 -0.03273,0.785504 -0.02618,0.425481 -0.124372,0.837871 -0.09819,0.41239 -0.294564,0.739684 -0.03927,-0.04582 -0.11128,-0.104734 -0.06546,-0.05237 -0.137463,-0.104734 -0.07201,-0.05237 -0.130918,-0.07855 0.170193,-0.30111 0.248743,-0.661133 0.07855,-0.360022 0.09819,-0.726591 0.02618,-0.366569 0.02618,-0.687316 z m 0.543307,2.4154264 q 0.314202,-0.06546 0.720046,-0.150555 0.41239,-0.09164 0.870601,-0.196377 0.464756,-0.104733 0.916421,-0.209467 l 0.04582,0.392752 q -0.628403,0.157101 -1.256807,0.314202 -0.628403,0.1571 -1.132435,0.274926 z m 0.117826,-1.217532 0.18983,-0.3207479 q 0.288018,0.058913 0.608766,0.150555 0.320748,0.091642 0.615312,0.1963759 0.294564,0.104734 0.484394,0.202922 l -0.196376,0.360023 q -0.18983,-0.104734 -0.477849,-0.216014 -0.288018,-0.111279 -0.608765,-0.209467 -0.320748,-0.104734 -0.615312,-0.163647 z m 2.513614,-2.8867288 0.471302,0.1832843 Q 19.303731,7.764883 19.100809,8.1052682 18.904433,8.4391076 18.727694,8.6747589 L 18.308759,8.4980204 Q 18.426584,8.3278278 18.550956,8.11836 18.681873,7.9023463 18.799699,7.6732408 18.92407,7.4441354 19.002621,7.2543052 Z m -3.351486,0.2225595 0.41239,-0.1898302 q 0.144009,0.1832844 0.281473,0.3992981 0.137463,0.2160137 0.242197,0.4254815 0.11128,0.2094678 0.163647,0.3796605 L 16.312268,8.7074883 Q 16.266447,8.5438415 16.161713,8.3278278 16.056979,8.1118141 15.926062,7.8892545 15.795145,7.666695 15.651135,7.4768647 Z m 3.109289,1.4662749 h 0.477848 v 3.5347694 q 0,0.202922 -0.05237,0.320748 -0.05237,0.117826 -0.202922,0.176738 -0.144009,0.05891 -0.399298,0.072 -0.248743,0.01309 -0.621857,0.01309 -0.01964,-0.09819 -0.06546,-0.235652 -0.04582,-0.137463 -0.09819,-0.235651 0.281472,0.0065 0.517124,0.0065 0.235651,0.0065 0.307655,0.0065 0.137464,-0.0065 0.137464,-0.130918 z M 17.307241,7.0644749 h 0.49094 V 9.224612 h -0.49094 z m -3.358032,0.4385733 0.288019,-0.3469311 q 0.196376,0.1112798 0.418935,0.2421972 0.22256,0.1309174 0.432028,0.2552889 0.216013,0.1243716 0.353477,0.2225596 l -0.30111,0.3992981 Q 15.00964,8.1707269 14.800172,8.0332637 14.59725,7.8958004 14.368145,7.7583371 14.145585,7.614328 13.949209,7.5030482 Z m -0.353477,1.8001142 0.268381,-0.3600228 q 0.196376,0.091642 0.418936,0.2160137 0.229105,0.1243715 0.438573,0.2421972 0.216014,0.1178256 0.353477,0.2094678 L 14.800172,10.016662 Q 14.669255,9.9250201 14.459787,9.8006485 14.250319,9.676277 14.021214,9.5453596 13.792108,9.4078963 13.595732,9.3031624 Z m 0.216014,3.3711226 q 0.176739,-0.248743 0.392752,-0.595674 0.22256,-0.353477 0.445119,-0.746229 0.22256,-0.399298 0.41239,-0.765867 l 0.353477,0.320748 q -0.170192,0.346931 -0.373114,0.720046 -0.202922,0.373114 -0.41239,0.733137 -0.209468,0.360023 -0.405844,0.667679 z"
       id="text4"
       aria-label="取消" />
    <path
       style="font-weight:bold;font-size:3.82501px;line-height:0.45;font-family:'Helvetica Neue';-inkscape-font-specification:'Helvetica Neue Bold';fill:#ffff00;stroke-width:0.0695456"
       d="M 8.31905,16.942845 H 7.7261735 c -0.05355,0.409276 -0.2601007,0.612001 -0.6234767,0.612001 -0.2218506,0 -0.393976,-0.08033 -0.5240264,-0.248625 C 6.4486201,17.13792 6.3835949,16.91607 6.3835949,16.633019 c 0,-0.160651 0.02295,-0.306001 0.06885,-0.443701 0.0459,-0.133876 0.1224003,-0.248626 0.2371506,-0.340426 0.1147503,-0.0918 0.2524507,-0.137701 0.4207511,-0.137701 0.1606505,0 0.2907008,0.03825 0.3978011,0.122401 0.1071003,0.08415 0.1759504,0.1989 0.2065505,0.351901 H 8.299925 C 8.2769749,15.902442 8.1545746,15.669116 7.936549,15.485516 7.7146984,15.301915 7.4431227,15.210115 7.1218219,15.210115 c -0.4054511,0 -0.730577,0.133875 -0.9753776,0.405451 -0.2448006,0.267751 -0.363376,0.608177 -0.363376,1.017453 0,0.428401 0.1185754,0.776477 0.359551,1.036578 0.2409756,0.2601 0.5584515,0.393976 0.9562525,0.393976 0.363376,0 0.6502517,-0.103276 0.8606273,-0.302176 C 8.1660496,17.558671 8.2884499,17.287096 8.31905,16.942845 Z M 10.074727,15.26749 H 9.4588999 l -1.0365777,2.727232 h 0.6120016 l 0.2218506,-0.608176 h 1.0136276 l 0.214201,0.608176 h 0.627301 z m 0.04973,1.683005 H 9.4015248 l 0.3633759,-1.013628 z m 1.216351,1.044227 h 0.577576 v -1.828354 l 1.128378,1.828354 h 0.596702 v -2.723407 h -0.573752 v 1.82453 l -1.120728,-1.82453 h -0.608176 z m 5.267036,-1.051877 h -0.592877 c -0.05355,0.409276 -0.2601,0.612001 -0.623476,0.612001 -0.221851,0 -0.393976,-0.08033 -0.524027,-0.248625 -0.13005,-0.168301 -0.195075,-0.390151 -0.195075,-0.673202 0,-0.160651 0.02295,-0.306001 0.06885,-0.443701 0.0459,-0.133876 0.1224,-0.248626 0.237151,-0.340426 0.11475,-0.0918 0.25245,-0.137701 0.420751,-0.137701 0.16065,0 0.2907,0.03825 0.397801,0.122401 0.1071,0.08415 0.17595,0.1989 0.20655,0.351901 h 0.585227 c -0.02295,-0.283051 -0.145351,-0.516377 -0.363376,-0.699977 -0.221851,-0.183601 -0.493426,-0.275401 -0.814727,-0.275401 -0.405451,0 -0.730577,0.133875 -0.975378,0.405451 -0.244801,0.267751 -0.363376,0.608177 -0.363376,1.017453 0,0.428401 0.118575,0.776477 0.359551,1.036578 0.240976,0.2601 0.558452,0.393976 0.956253,0.393976 0.363376,0 0.650251,-0.103276 0.860627,-0.302176 0.20655,-0.202726 0.328951,-0.474301 0.359551,-0.818552 z m 2.444177,-1.67153 h -2.042555 v 2.723407 h 2.069331 v -0.501076 h -1.476454 v -0.669377 h 1.331103 v -0.470476 h -1.331103 v -0.592877 h 1.449678 z m 2.36386,2.210856 h -1.331103 v -2.210856 h -0.596702 v 2.723407 h 1.927805 z"
       id="text5"
       aria-label="CANCEL" />
  </g>
</svg>
