<?xml version="1.0" encoding="UTF-8" standalone="no"?>
<!-- Created with Inkscape (http://www.inkscape.org/) -->

<svg
   width="200"
   height="100"
   viewBox="0 0 52.916666 26.458333"
   version="1.1"
   id="svg1"
   sodipodi:docname="cancel_btn_rect_tpass.svg"
   inkscape:version="1.4.2 (f4327f4, 2025-05-13)"
   xmlns:inkscape="http://www.inkscape.org/namespaces/inkscape"
   xmlns:sodipodi="http://sodipodi.sourceforge.net/DTD/sodipodi-0.dtd"
   xmlns:xlink="http://www.w3.org/1999/xlink"
   xmlns="http://www.w3.org/2000/svg"
   xmlns:svg="http://www.w3.org/2000/svg">
  <sodipodi:namedview
     id="namedview1"
     pagecolor="#505050"
     bordercolor="#ffffff"
     borderopacity="1"
     inkscape:showpageshadow="0"
     inkscape:pageopacity="0"
     inkscape:pagecheckerboard="1"
     inkscape:deskcolor="#d1d1d1"
     inkscape:document-units="mm"
     inkscape:zoom="2.8578564"
     inkscape:cx="128.41793"
     inkscape:cy="24.668839"
     inkscape:window-width="1920"
     inkscape:window-height="1009"
     inkscape:window-x="1912"
     inkscape:window-y="-8"
     inkscape:window-maximized="1"
     inkscape:current-layer="layer1" />
  <defs
     id="defs1">
    <linearGradient
       id="linearGradient1"
       inkscape:collect="always">
      <stop
         style="stop-color:#df0000;stop-opacity:1;"
         offset="0"
         id="stop1" />
      <stop
         style="stop-color:#df0000;stop-opacity:1;"
         offset="0.28496504"
         id="stop3" />
      <stop
         style="stop-color:#870000;stop-opacity:1;"
         offset="0.48076928"
         id="stop2" />
    </linearGradient>
    <linearGradient
       inkscape:collect="always"
       xlink:href="#linearGradient1"
       id="linearGradient2"
       x1="26.458332"
       y1="-13.229166"
       x2="26.458332"
       y2="39.6875"
       gradientUnits="userSpaceOnUse" />
    <filter
       inkscape:collect="always"
       style="color-interpolation-filters:sRGB"
       id="filter3"
       x="-0.030121228"
       y="-0.06236213"
       width="1.0602425"
       height="1.1247243">
      <feGaussianBlur
         inkscape:collect="always"
         stdDeviation="0.31173795"
         id="feGaussianBlur3" />
    </filter>
  </defs>
  <g
     inkscape:label="Layer 1"
     inkscape:groupmode="layer"
     id="layer1">
    <path
       id="rect1"
       style="fill:url(#linearGradient2);stroke-width:0.789001;paint-order:fill markers stroke"
       d="m 13.229166,0 h 26.458332 c 7.328958,0 13.229166,5.900208 13.229166,13.229166 0,7.328958 -5.900208,13.229166 -13.229166,13.229166 H 13.229166 C 5.900208,26.458332 0,20.558124 0,13.229166 0,5.900208 5.900208,0 13.229166,0 Z" />
    <path
       id="rect1-1"
       style="fill:#ad0000;stroke:#ad0000;stroke-width:1.4572406;paint-order:fill markers stroke;filter:url(#filter3);stroke-dasharray:none;fill-opacity:1;stroke-opacity:1"
       transform="matrix(0.96709426,0,0,0.92865848,0.87063117,0.9437887)"
       d="m 13.784652,1.3887157 h 25.347359 c 6.55961,0 11.84045,5.2808409 11.84045,11.8404503 0,6.559609 -5.28084,11.84045 -11.84045,11.84045 H 13.784652 c -6.5596091,0 -11.8404499,-5.280841 -11.8404499,-11.84045 0,-6.5596094 5.2808408,-11.8404503 11.8404499,-11.8404503 z" />
    <path
       style="font-size:10.5833px;line-height:1;font-family:'Noto Sans TC';-inkscape-font-specification:'Noto Sans TC';text-align:center;text-anchor:middle;fill:#ffffff;stroke-width:0.264583"
       d="m 21.210366,5.1615452 h 3.91582 v 0.7725809 h -3.91582 z M 16.310298,4.3572144 h 5.16465 v 0.7514143 h -5.16465 z m 1.238246,2.1589931 h 2.741075 v 0.7196644 h -2.741075 z m 0,2.2013264 h 2.741075 v 0.7196643 h -2.741075 z m 7.334227,-3.5559887 h 0.148166 l 0.137583,-0.03175 0.507998,0.1375829 q -0.253999,2.1166599 -0.857247,3.672405 -0.603248,1.5451618 -1.502829,2.6246578 -0.888997,1.068914 -2.031993,1.725078 -0.09525,-0.148166 -0.243416,-0.349249 -0.148166,-0.190499 -0.275166,-0.306915 1.047747,-0.539749 1.894411,-1.545162 0.846664,-1.005413 1.418162,-2.4447422 0.582081,-1.4393288 0.804331,-3.3019895 z m -2.709325,0.8149141 q 0.285749,1.5239951 0.804331,2.8363243 0.518581,1.3123294 1.291162,2.3071594 0.783164,0.984247 1.873244,1.545162 -0.08467,0.07408 -0.190499,0.190499 -0.105833,0.116416 -0.201083,0.232833 -0.09525,0.126999 -0.158749,0.232832 -1.15358,-0.645581 -1.968494,-1.693328 Q 22.819027,10.569611 22.279279,9.1831991 21.750114,7.7862035 21.411448,6.1246255 Z M 17.125212,4.6429635 h 0.761998 v 6.8685615 h -0.761998 z m 2.836324,0 h 0.772581 v 8.7735555 h -0.772581 z m -3.873487,6.6463125 q 0.529165,-0.07408 1.206496,-0.15875 0.677331,-0.09525 1.439328,-0.201083 0.772581,-0.116416 1.545162,-0.232832 l 0.04233,0.730248 q -1.090079,0.179916 -2.180159,0.359832 -1.079497,0.169333 -1.904994,0.285749 z M 30.756502,6.7278735 h 4.635485 v 0.7302477 h -4.635485 z m -0.370416,0 h 0.740831 v 2.931574 q 0,0.5820815 -0.05292,1.2699955 -0.04233,0.687915 -0.201083,1.354663 -0.158749,0.666748 -0.476248,1.195913 -0.0635,-0.07408 -0.179916,-0.169333 -0.105833,-0.08467 -0.22225,-0.169333 -0.116416,-0.08467 -0.211666,-0.126999 0.275166,-0.486832 0.402166,-1.068914 0.126999,-0.582081 0.158749,-1.174746 0.04233,-0.592665 0.04233,-1.1112465 z M 31.2645,10.633111 q 0.507999,-0.105833 1.164163,-0.243416 0.666748,-0.148166 1.407579,-0.317499 0.751414,-0.1693326 1.481662,-0.3386654 l 0.07408,0.6349984 q -1.015997,0.253999 -2.031993,0.507998 -1.015997,0.253999 -1.830911,0.444499 z M 31.455,8.6646174 31.761915,8.1460357 q 0.465666,0.09525 0.984247,0.2434159 0.518582,0.1481662 0.99483,0.317499 0.476249,0.1693328 0.783165,0.3280823 L 34.206658,9.6171143 Q 33.899742,9.4477815 33.434077,9.2678655 32.968412,9.0879494 32.44983,8.9291999 31.931248,8.7598671 31.455,8.6646174 Z m 4.063987,-4.6672352 0.761997,0.2963324 q -0.275165,0.529165 -0.603248,1.0794966 -0.317499,0.5397483 -0.603248,0.9207471 L 34.397157,6.0082092 q 0.190499,-0.2751658 0.391582,-0.6138314 0.211666,-0.3492489 0.402165,-0.7196644 0.201083,-0.3704155 0.328083,-0.6773312 z m -5.41865,0.3598322 0.666748,-0.3069157 q 0.232833,0.2963324 0.455082,0.6455813 0.222249,0.3492489 0.391582,0.6879145 0.179916,0.3386656 0.264583,0.6138314 L 31.169251,6.3468748 Q 31.095167,6.0822923 30.925835,5.7330434 30.756502,5.3837945 30.544836,5.0239623 30.33317,4.6641301 30.100337,4.3572144 Z m 5.027068,2.3706591 h 0.772581 v 5.7149815 q 0,0.328083 -0.08467,0.518582 -0.08467,0.190499 -0.328082,0.285749 -0.232833,0.09525 -0.645581,0.116416 -0.402166,0.02117 -1.005414,0.02117 -0.03175,-0.158749 -0.105833,-0.380999 -0.07408,-0.222249 -0.158749,-0.380999 0.455081,0.01058 0.83608,0.01058 0.380999,0.01058 0.497415,0.01058 0.22225,-0.01058 0.22225,-0.211666 z m -2.349493,-3.037407 h 0.793748 v 3.4924889 h -0.793748 z m -5.429233,0.7090811 0.465666,-0.5609149 q 0.317499,0.1799161 0.677331,0.3915821 0.359832,0.211666 0.698498,0.4127487 0.349248,0.2010827 0.571498,0.3598322 L 29.27484,5.648377 Q 29.063174,5.4790442 28.724508,5.2567949 28.396426,5.0345456 28.026011,4.8122963 27.666178,4.5794637 27.348679,4.3995476 Z M 26.777181,7.309955 27.211097,6.7278735 q 0.317498,0.1481662 0.677331,0.3492489 0.370415,0.2010827 0.709081,0.3915821 0.349249,0.1904994 0.571498,0.3386656 L 28.724508,8.4635347 Q 28.512842,8.3153685 28.174177,8.1142858 27.835511,7.9132031 27.465096,7.7015371 27.09468,7.4792878 26.777181,7.309955 Z m 0.349249,5.450399 q 0.285749,-0.402165 0.634998,-0.96308 0.359832,-0.571498 0.719664,-1.206496 0.359833,-0.6455814 0.666748,-1.2382462 l 0.571499,0.5185817 q -0.275166,0.5609145 -0.603249,1.1641625 -0.328082,0.603249 -0.666747,1.18533 -0.338666,0.582082 -0.656165,1.079497 z"
       id="text2"
       aria-label="取消" />
    <path
       style="font-weight:bold;font-size:8.90977px;line-height:1;font-family:Helvetica;-inkscape-font-specification:'Helvetica Bold';text-align:center;text-anchor:middle;fill:#ffffff;stroke-width:0.206914"
       d="m 9.3498174,18.89374 q 0,-1.559934 0.8365456,-2.404562 0.72743,-0.735513 1.850907,-0.735513 1.503356,0 2.198456,0.986072 0.383922,0.553656 0.412211,1.111352 h -1.244714 q -0.121239,-0.428376 -0.31118,-0.646604 -0.339466,-0.387964 -1.006279,-0.387964 -0.678934,0 -1.070939,0.549615 -0.392004,0.545573 -0.392004,1.54781 0,1.002238 0.412211,1.503357 0.416252,0.497077 1.054774,0.497077 0.654688,0 0.998197,-0.428375 0.18994,-0.230353 0.31522,-0.69106 h 1.23259 q -0.161651,0.973949 -0.828463,1.584183 -0.662769,0.610233 -1.701379,0.610233 -1.285127,0 -2.02064,-0.824421 -0.7355136,-0.828462 -0.7355136,-2.2712 z m 2.6510806,-3.208777 z m 5.213253,3.887712 h 1.511439 l -0.743596,-2.343943 z m 0.07678,-3.705855 h 1.406366 l 2.109549,5.956849 H 19.457057 L 19.073136,20.59916 H 16.87872 l -0.41221,1.224509 h -1.301293 z m 0.6951,0 z m 3.556328,0 h 1.305334 l 2.372232,4.158479 V 15.86682 h 1.159848 v 5.956849 h -1.24471 l -2.432851,-4.231222 v 4.231222 h -1.159848 z m 2.465182,-0.01212 z m 3.273437,3.039044 q 0,-1.559935 0.836545,-2.404562 0.72743,-0.735513 1.850907,-0.735513 1.503356,0 2.198456,0.986072 0.383922,0.553655 0.412212,1.111352 h -1.24471 q -0.121238,-0.428378 -0.311179,-0.646606 -0.339467,-0.387964 -1.006279,-0.387964 -0.678935,0 -1.070939,0.549615 -0.392005,0.545573 -0.392005,1.54781 0,1.002238 0.412211,1.503357 0.416252,0.497077 1.054774,0.497077 0.654688,0 0.998197,-0.428376 0.18994,-0.230353 0.31522,-0.691059 h 1.23259 q -0.161651,0.973949 -0.828462,1.584183 -0.66277,0.610233 -1.701379,0.610233 -1.285128,0 -2.020641,-0.824421 -0.735513,-0.828462 -0.735513,-2.2712 z m 2.651081,-3.208777 z m 7.989612,1.236631 h -3.152199 v 1.264922 h 2.893558 v 1.034568 h -2.893558 v 1.531645 h 3.297685 v 1.07094 h -4.514111 v -5.956849 h 4.368625 z m 1.115394,-1.054774 h 1.244715 v 4.885909 h 2.950135 v 1.07094 h -4.19485 z"
       id="text3"
       aria-label="CANCEL" />
  </g>
</svg>
