<?xml version="1.0" encoding="UTF-8" standalone="no"?>
<!-- Created with Inkscape (http://www.inkscape.org/) -->

<svg
   width="200"
   height="100"
   viewBox="0 0 52.916666 26.458333"
   version="1.1"
   id="svg1"
   sodipodi:docname="cancel_btn_rect.svg"
   inkscape:version="1.4.2 (f4327f4, 2025-05-13)"
   xmlns:inkscape="http://www.inkscape.org/namespaces/inkscape"
   xmlns:sodipodi="http://sodipodi.sourceforge.net/DTD/sodipodi-0.dtd"
   xmlns:xlink="http://www.w3.org/1999/xlink"
   xmlns="http://www.w3.org/2000/svg"
   xmlns:svg="http://www.w3.org/2000/svg">
  <sodipodi:namedview
     id="namedview1"
     pagecolor="#505050"
     bordercolor="#ffffff"
     borderopacity="1"
     inkscape:showpageshadow="0"
     inkscape:pageopacity="0"
     inkscape:pagecheckerboard="1"
     inkscape:deskcolor="#d1d1d1"
     inkscape:document-units="mm"
     inkscape:zoom="2.8578564"
     inkscape:cx="128.59289"
     inkscape:cy="24.668839"
     inkscape:window-width="1920"
     inkscape:window-height="1111"
     inkscape:window-x="-9"
     inkscape:window-y="-9"
     inkscape:window-maximized="1"
     inkscape:current-layer="layer1" />
  <defs
     id="defs1">
    <linearGradient
       id="linearGradient1"
       inkscape:collect="always">
      <stop
         style="stop-color:#ffffff;stop-opacity:1;"
         offset="0"
         id="stop1" />
      <stop
         style="stop-color:#ffffff;stop-opacity:1;"
         offset="0.28496504"
         id="stop3" />
      <stop
         style="stop-color:#fb0000;stop-opacity:1;"
         offset="0.48076928"
         id="stop2" />
    </linearGradient>
    <linearGradient
       inkscape:collect="always"
       xlink:href="#linearGradient1"
       id="linearGradient2"
       x1="26.458332"
       y1="-13.229166"
       x2="26.458332"
       y2="39.6875"
       gradientUnits="userSpaceOnUse" />
    <filter
       inkscape:collect="always"
       style="color-interpolation-filters:sRGB"
       id="filter3"
       x="-0.052504211"
       y="-0.10870322"
       width="1.1050084"
       height="1.2174064">
      <feGaussianBlur
         inkscape:collect="always"
         stdDeviation="0.9228929"
         id="feGaussianBlur3" />
    </filter>
  </defs>
  <g
     inkscape:label="Layer 1"
     inkscape:groupmode="layer"
     id="layer1">
    <path
       id="rect1"
       style="fill:url(#linearGradient2);stroke-width:0.789001;paint-order:fill markers stroke"
       d="m 13.229166,0 h 26.458332 c 7.328958,0 13.229166,5.900208 13.229166,13.229166 0,7.328958 -5.900208,13.229166 -13.229166,13.229166 H 13.229166 C 5.900208,26.458332 0,20.558124 0,13.229166 0,5.900208 5.900208,0 13.229166,0 Z" />
    <path
       id="rect1-1"
       style="fill:#fb0000;stroke:#fb0000;stroke-width:0.718494;paint-order:fill markers stroke;filter:url(#filter3)"
       transform="matrix(0.96709426,0,0,0.92865848,0.87063117,0.9437887)"
       d="m 13.784652,1.3887157 h 25.347359 c 6.55961,0 11.84045,5.2808409 11.84045,11.8404503 0,6.559609 -5.28084,11.84045 -11.84045,11.84045 H 13.784652 c -6.5596091,0 -11.8404499,-5.280841 -11.8404499,-11.84045 0,-6.5596094 5.2808408,-11.8404503 11.8404499,-11.8404503 z" />
    <path
       style="font-size:10.8499px;line-height:1;font-family:'Noto Sans TC';-inkscape-font-specification:'Noto Sans TC';fill:#ffffff;stroke-width:0.271249"
       d="m 21.358886,5.9392773 h 4.014463 V 6.73132 H 21.358886 Z M 16.335382,5.1146849 h 5.294751 v 0.7703429 h -5.294751 z m 1.269438,2.2133796 h 2.810124 V 8.0658577 H 17.60482 Z m 0,2.2567793 h 2.810124 V 10.322637 H 17.60482 Z M 25.123801,5.9392773 H 25.2757 l 0.141048,-0.03255 0.520796,0.1410487 q -0.260398,2.16998 -0.878842,3.7649154 -0.618445,1.5840853 -1.540686,2.6907753 -0.911392,1.09584 -2.083181,1.768534 -0.09765,-0.151899 -0.249548,-0.358047 -0.151898,-0.195298 -0.282097,-0.314647 1.07414,-0.553345 1.942132,-1.584086 0.867992,-1.03074 1.453887,-2.5063265 0.596744,-1.4755865 0.824592,-3.3851689 z m -2.777574,0.8354423 q 0.292947,1.5623856 0.824592,2.9077733 0.531645,1.3453871 1.323688,2.3652781 0.802892,1.009041 1.920432,1.584086 -0.0868,0.07595 -0.195298,0.195298 -0.108499,0.119349 -0.206148,0.238698 -0.09765,0.130198 -0.162749,0.238697 -1.182639,-0.661844 -2.018081,-1.735984 -0.824592,-1.08499 -1.377937,-2.506327 Q 21.912231,8.6300525 21.565034,6.9266182 Z M 17.170824,5.4076322 h 0.781193 v 7.0415848 h -0.781193 z m 2.907773,0 H 20.87064 V 14.402199 H 20.078597 Z M 16.107534,12.22137 q 0.542495,-0.07595 1.236889,-0.162749 0.694393,-0.09765 1.475586,-0.206148 0.792043,-0.119349 1.584085,-0.238698 l 0.0434,0.748643 q -1.11754,0.184449 -2.235079,0.368897 -1.10669,0.173598 -1.952982,0.292947 z M 31.145496,7.5450625 h 4.752256 v 0.7486431 h -4.752256 z m -0.379747,0 h 0.759493 v 3.0054225 q 0,0.596744 -0.05425,1.301988 -0.0434,0.705243 -0.206148,1.388787 -0.162749,0.683544 -0.488246,1.226039 -0.0651,-0.07595 -0.184448,-0.173599 -0.108499,-0.0868 -0.227848,-0.173598 -0.119349,-0.0868 -0.216998,-0.130199 0.282097,-0.499095 0.412296,-1.09584 0.130199,-0.596744 0.162749,-1.204339 0.0434,-0.607594 0.0434,-1.139239 z m 0.900542,4.0036135 q 0.520795,-0.108499 1.193489,-0.249548 0.683544,-0.151899 1.443037,-0.325497 0.770343,-0.173598 1.518986,-0.347197 l 0.07595,0.650994 q -1.04159,0.260398 -2.083181,0.520795 -1.04159,0.260398 -1.877033,0.455696 z m 0.195298,-2.0180817 0.314647,-0.5316452 q 0.477396,0.097649 1.009041,0.2495478 0.531645,0.1518986 1.019891,0.325497 0.488245,0.1735984 0.802892,0.3363469 L 34.682563,10.507085 Q 34.367916,10.333487 33.89052,10.149039 33.413125,9.9645903 32.88148,9.8018418 32.349835,9.6282434 31.861589,9.5305943 Z m 4.166362,-4.7848061 0.781193,0.3037973 q -0.282098,0.542495 -0.618445,1.1066898 -0.325497,0.5533449 -0.618444,0.9439413 L 34.877861,6.8072693 Q 35.07316,6.5251719 35.279308,6.1779751 35.496306,5.8199284 35.691604,5.4401819 35.897752,5.0604354 36.027951,4.7457882 Z m -5.555149,0.3688967 0.683544,-0.3146471 q 0.238697,0.3037972 0.466545,0.6618439 0.227848,0.3580467 0.401447,0.7052435 0.184448,0.3471968 0.271247,0.6292942 L 31.568642,7.1544661 Q 31.492692,6.8832186 31.319094,6.5251719 31.145496,6.1671252 30.928498,5.7982286 30.7115,5.429332 30.472802,5.1146849 Z m 5.153702,2.4303776 h 0.792043 v 5.8589465 q 0,0.336347 -0.0868,0.531645 -0.0868,0.195298 -0.336347,0.292947 -0.238698,0.09765 -0.661844,0.119349 -0.412296,0.0217 -1.03074,0.0217 -0.03255,-0.162749 -0.108499,-0.390597 -0.07595,-0.227848 -0.162749,-0.390596 0.466546,0.01085 0.857142,0.01085 0.390597,0.01085 0.509946,0.01085 0.227847,-0.01085 0.227847,-0.216998 z M 33.217827,4.4311411 h 0.813742 v 3.5804671 h -0.813742 z m -5.565999,0.7269434 0.477395,-0.5750448 q 0.325497,0.1844484 0.694394,0.4014464 0.368897,0.216998 0.716093,0.4231461 0.358047,0.2061481 0.585895,0.3688966 L 29.62651,6.4383727 Q 29.409512,6.2647743 29.062315,6.0369264 28.725968,5.8090785 28.346221,5.5812306 27.977325,5.3425328 27.651828,5.1580845 Z M 27.065933,8.141807 27.510779,7.5450625 q 0.325497,0.1518986 0.694394,0.3580467 0.379746,0.2061481 0.726943,0.4014463 0.358047,0.1952982 0.585895,0.3471968 L 29.062315,9.3244462 Q 28.845317,9.1725476 28.49812,8.9663994 28.150923,8.7602513 27.771177,8.5432533 27.39143,8.3154054 27.065933,8.141807 Z m 0.358047,5.587699 q 0.292947,-0.412297 0.650994,-0.987341 0.368897,-0.585895 0.737793,-1.236889 0.368897,-0.661844 0.683544,-1.269438 l 0.585894,0.531645 q -0.282097,0.575045 -0.618444,1.193489 -0.336347,0.618444 -0.683544,1.215189 -0.347196,0.596744 -0.672693,1.10669 z"
       id="text1"
       aria-label="取消" />
    <path
       style="font-weight:bold;font-size:7.66628px;line-height:1;font-family:Helvetica;-inkscape-font-specification:'Helvetica Bold';fill:#ffffff;stroke-width:0.191657"
       d="m 10.766416,19.180936 q 0,-1.444914 0.774863,-2.227264 0.673794,-0.681281 1.714432,-0.681281 1.392508,0 2.036356,0.913366 0.355613,0.512832 0.381816,1.029407 h -1.152936 q -0.112299,-0.39679 -0.288235,-0.598928 -0.314437,-0.359357 -0.932081,-0.359357 -0.628875,0 -0.991975,0.509089 -0.3631,0.505346 -0.3631,1.433684 0,0.928339 0.381816,1.392508 0.38556,0.460426 0.977002,0.460426 0.606415,0 0.924595,-0.39679 0.175935,-0.213368 0.291978,-0.640104 h 1.141706 q -0.149732,0.902135 -0.767376,1.467374 -0.613902,0.565238 -1.57593,0.565238 -1.19037,0 -1.87165,-0.763633 -0.681281,-0.767377 -0.681281,-2.103735 z m 2.455605,-2.972181 z m 4.828858,3.601055 h 1.399995 l -0.688768,-2.171114 z m 0.07112,-3.432606 h 1.302668 l 1.954003,5.517625 h -1.250262 l -0.355614,-1.13422 h -2.032612 l -0.381817,1.13422 h -1.205342 z m 0.643848,0 z m 3.294104,0 h 1.209086 l 2.197318,3.851856 v -3.851856 h 1.074327 v 5.517625 h -1.152937 l -2.253467,-3.919236 v 3.919236 h -1.074327 z m 2.283414,-0.01123 z m 3.032072,2.814962 q 0,-1.444914 0.774863,-2.227264 0.673794,-0.681281 1.714432,-0.681281 1.392508,0 2.036356,0.913366 0.355613,0.512832 0.381816,1.029407 h -1.152936 q -0.112299,-0.39679 -0.288235,-0.598928 -0.314437,-0.359357 -0.932081,-0.359357 -0.628875,0 -0.991975,0.509089 -0.3631,0.505346 -0.3631,1.433684 0,0.928339 0.381816,1.392508 0.38556,0.460426 0.977002,0.460426 0.606415,0 0.924595,-0.39679 0.175935,-0.213368 0.291978,-0.640104 h 1.141706 q -0.149732,0.902135 -0.767376,1.467374 -0.613902,0.565238 -1.57593,0.565238 -1.190369,0 -1.87165,-0.763633 -0.681281,-0.767377 -0.681281,-2.103735 z m 2.455605,-2.972181 z m 7.400507,1.14545 h -2.919775 v 1.171653 h 2.680203 v 0.958285 h -2.680203 v 1.418711 h 3.054533 v 0.991975 h -4.181266 v -5.517625 h 4.046508 z m 1.033152,-0.977001 h 1.152936 v 4.52565 h 2.73261 v 0.991975 h -3.885546 z"
       id="text3"
       aria-label="CANCEL" />
  </g>
</svg>
