<?xml version="1.0" encoding="UTF-8" standalone="no"?>
<!-- Created with Inkscape (http://www.inkscape.org/) -->

<svg
   width="550"
   height="80"
   viewBox="0 0 145.52082 21.166666"
   version="1.1"
   id="svg1"
   sodipodi:docname="cancel_title.svg"
   inkscape:version="1.4.2 (f4327f4, 2025-05-13)"
   xmlns:inkscape="http://www.inkscape.org/namespaces/inkscape"
   xmlns:sodipodi="http://sodipodi.sourceforge.net/DTD/sodipodi-0.dtd"
   xmlns="http://www.w3.org/2000/svg"
   xmlns:svg="http://www.w3.org/2000/svg">
  <sodipodi:namedview
     id="namedview1"
     pagecolor="#ffffff"
     bordercolor="#ffffff"
     borderopacity="1"
     inkscape:showpageshadow="0"
     inkscape:pageopacity="0"
     inkscape:pagecheckerboard="1"
     inkscape:deskcolor="#d1d1d1"
     inkscape:document-units="mm"
     inkscape:zoom="2.0208096"
     inkscape:cx="282.56002"
     inkscape:cy="73.98025"
     inkscape:window-width="1920"
     inkscape:window-height="1009"
     inkscape:window-x="1912"
     inkscape:window-y="-8"
     inkscape:window-maximized="1"
     inkscape:current-layer="layer1" />
  <defs
     id="defs1">
    <clipPath
       id="clip_0">
      <path
         transform="matrix(1,0,0,-1,0,841.92)"
         d="M 8.871e-6,0 H 595.32 V 841.92 H 8.871e-6 Z"
         fill-rule="evenodd"
         id="path1" />
    </clipPath>
    <clipPath
       id="clip_2">
      <path
         transform="matrix(1,0,0,-1,0,841.92)"
         d="M 8.871e-6,0 H 595.32 V 841.92 H 8.871e-6 Z"
         fill-rule="evenodd"
         id="path2" />
    </clipPath>
    <clipPath
       id="clip_3">
      <path
         transform="matrix(1,0,0,-1,0,841.92)"
         d="M 8.871e-6,0 H 595.32 V 841.92 H 8.871e-6 Z"
         fill-rule="evenodd"
         id="path3" />
    </clipPath>
    <clipPath
       id="clip_4">
      <path
         transform="matrix(1,0,0,-1,0,841.92)"
         d="M 8.871e-6,0 H 595.32 V 841.92 H 8.871e-6 Z"
         fill-rule="evenodd"
         id="path4" />
    </clipPath>
    <clipPath
       id="clip_5">
      <path
         transform="matrix(1,0,0,-1,0,841.92)"
         d="M 8.871e-6,0 H 595.32 V 841.92 H 8.871e-6 Z"
         fill-rule="evenodd"
         id="path5" />
    </clipPath>
    <clipPath
       id="clip_14">
      <path
         transform="matrix(1,0,0,-1,0,841.92)"
         d="M 8.871e-6,0 H 595.32 V 841.92 H 8.871e-6 Z"
         fill-rule="evenodd"
         id="path12" />
    </clipPath>
  </defs>
  <g
     inkscape:label="Layer 1"
     inkscape:groupmode="layer"
     id="layer1">
    <path
       style="font-weight:bold;font-size:7.31745px;line-height:1;font-family:Helvetica;-inkscape-font-specification:'Helvetica Bold';fill:#282472;stroke-width:0.182937"
       d="m 6.5369813,13.909056 v 0.932546 H 4.9613 v 4.334017 H 3.8536781 V 14.841602 H 2.2708508 v -0.932546 z m 2.2759841,1.279125 q 0.028584,0 0.046449,0.0036 0.021438,0 0.089324,0.0036 v 1.043309 q -0.09647,-0.01072 -0.1715028,-0.01429 -0.075032,-0.0036 -0.1214811,-0.0036 -0.6145515,0 -0.8253569,0.400173 Q 7.7124895,16.84604 7.7124895,17.3141 v 1.861519 H 6.687046 v -3.894541 h 0.9718489 v 0.678865 Q 7.8947111,15.570489 8.0697868,15.42757 8.3556247,15.188181 8.8129654,15.188181 Z m 2.8798166,2.093762 q -0.09647,0.06074 -0.196513,0.100043 -0.09647,0.03573 -0.267973,0.06789 l -0.228671,0.04288 q -0.321567,0.05717 -0.460913,0.139346 -0.235817,0.139345 -0.235817,0.432329 0,0.260827 0.142919,0.378736 0.146492,0.114335 0.353725,0.114335 0.328713,0 0.603832,-0.192941 0.278692,-0.19294 0.289411,-0.703876 z m -0.618124,-0.475205 q 0.282265,-0.03573 0.403746,-0.08932 0.217951,-0.0929 0.217951,-0.289411 0,-0.239389 -0.16793,-0.328713 -0.164356,-0.0929 -0.485924,-0.0929 -0.36087,0 -0.510935,0.178649 -0.107189,0.1322 -0.142919,0.357298 H 9.406079 q 0.032157,-0.510936 0.2858379,-0.839649 0.4037461,-0.514508 1.3863141,-0.514508 0.639562,0 1.136205,0.253681 0.496644,0.253681 0.496644,0.957557 v 1.786486 q 0,0.185795 0.0071,0.450195 0.01072,0.200087 0.06074,0.271546 0.05002,0.07146 0.150065,0.117908 v 0.150065 h -1.107622 q -0.04645,-0.117908 -0.06431,-0.221524 -0.01787,-0.103616 -0.02858,-0.235817 -0.210806,0.228671 -0.485925,0.389455 -0.328713,0.189367 -0.743178,0.189367 -0.5288001,0 -0.8753786,-0.30013 -0.3430054,-0.303702 -0.3430054,-0.857513 0,-0.718168 0.5538109,-1.039736 0.3037031,-0.175075 0.8932431,-0.250108 z m 0.05359,-1.629276 z m 4.644866,0.01072 q 0.603832,0 0.986141,0.317994 0.385881,0.314422 0.385881,1.046881 v 2.622563 h -1.043309 v -2.368881 q 0,-0.307276 -0.08218,-0.471633 -0.150065,-0.30013 -0.571676,-0.30013 -0.518081,0 -0.711021,0.439476 -0.100044,0.232243 -0.100044,0.593114 v 2.108054 h -1.014724 v -3.887395 h 0.982568 v 0.568103 q 0.196513,-0.30013 0.371589,-0.43233 0.314421,-0.235816 0.796773,-0.235816 z m -0.375162,-0.01072 z m 3.480076,2.754762 q 0.03216,0.271546 0.139346,0.385881 0.189368,0.20366 0.700303,0.20366 0.30013,0 0.475206,-0.08932 0.178648,-0.08933 0.178648,-0.267973 0,-0.171503 -0.142919,-0.260827 -0.142918,-0.08932 -1.061173,-0.307276 -0.661,-0.164357 -0.932546,-0.410892 -0.271546,-0.242962 -0.271546,-0.700303 0,-0.539519 0.421611,-0.9254 0.425184,-0.389454 1.193373,-0.389454 0.728887,0 1.186228,0.292983 0.460913,0.289411 0.5288,1.004006 h -1.018298 q -0.02144,-0.196513 -0.110762,-0.310849 -0.16793,-0.207232 -0.571676,-0.207232 -0.332286,0 -0.475205,0.103616 -0.139346,0.103616 -0.139346,0.242962 0,0.175076 0.150065,0.253681 0.150064,0.08218 1.061173,0.282265 0.607405,0.142919 0.911108,0.43233 0.30013,0.292984 0.30013,0.73246 0,0.578822 -0.43233,0.946838 -0.428757,0.364443 -1.329146,0.364443 -0.918254,0 -1.35773,-0.385881 -0.435903,-0.389454 -0.435903,-0.989714 z m 0.778909,-2.754762 z m 4.644865,2.104481 q -0.09647,0.06074 -0.196514,0.100043 -0.09647,0.03573 -0.267973,0.06789 l -0.22867,0.04288 q -0.321568,0.05717 -0.460914,0.139346 -0.235816,0.139345 -0.235816,0.432329 0,0.260827 0.142919,0.378736 0.146492,0.114335 0.353724,0.114335 0.328714,0 0.603833,-0.192941 0.278692,-0.19294 0.289411,-0.703876 z m -0.618125,-0.475205 q 0.282265,-0.03573 0.403746,-0.08932 0.217952,-0.0929 0.217952,-0.289411 0,-0.239389 -0.16793,-0.328713 -0.164357,-0.0929 -0.485924,-0.0929 -0.360871,0 -0.510936,0.178649 -0.107189,0.1322 -0.142919,0.357298 h -0.982567 q 0.03216,-0.510936 0.285838,-0.839649 0.403746,-0.514508 1.386313,-0.514508 0.639563,0 1.136206,0.253681 0.496643,0.253681 0.496643,0.957557 v 1.786486 q 0,0.185795 0.0071,0.450195 0.01072,0.200087 0.06074,0.271546 0.05002,0.07146 0.150065,0.117908 v 0.150065 h -1.107622 q -0.04645,-0.117908 -0.06431,-0.221524 -0.01787,-0.103616 -0.02858,-0.235817 -0.210805,0.228671 -0.485924,0.389455 -0.328714,0.189367 -0.743178,0.189367 -0.528801,0 -0.875379,-0.30013 -0.343005,-0.303702 -0.343005,-0.857513 0,-0.718168 0.55381,-1.039736 0.303703,-0.175075 0.893244,-0.250108 z m 0.0536,-1.629276 z m 4.812795,1.500649 q -0.02858,-0.217952 -0.146492,-0.393028 -0.171503,-0.235816 -0.532373,-0.235816 -0.514508,0 -0.703876,0.510935 -0.100043,0.271546 -0.100043,0.721741 0,0.428757 0.100043,0.689584 0.182222,0.485924 0.686011,0.485924 0.357297,0 0.507362,-0.19294 0.150065,-0.192941 0.182222,-0.500216 h 1.039735 q -0.03573,0.464486 -0.335859,0.878951 -0.478779,0.668146 -1.418471,0.668146 -0.939692,0 -1.382741,-0.557384 -0.443048,-0.557384 -0.443048,-1.447054 0,-1.004006 0.489497,-1.56139 0.489497,-0.557383 1.350584,-0.557383 0.73246,0 1.196946,0.328713 0.46806,0.328714 0.553811,1.161217 z m -0.689584,-1.500649 z m 2.033023,0.864659 v -0.725313 h 0.543092 v -1.086184 h 1.007579 v 1.086184 h 0.632416 v 0.725313 h -0.632416 v 2.058033 q 0,0.239389 0.06074,0.30013 0.06074,0.05717 0.371589,0.05717 0.04645,0 0.09647,0 0.05359,-0.0036 0.103616,-0.0071 v 0.761044 l -0.482351,0.01787 q -0.721741,0.02501 -0.986141,-0.250108 -0.171503,-0.175076 -0.171503,-0.539519 v -2.397466 z m 3.883822,-1.22553 h -1.032589 v -0.939692 h 1.032589 z m -1.032589,0.464487 h 1.032589 v 3.894541 h -1.032589 z m 3.765912,3.176373 q 0.446622,0 0.686011,-0.317994 0.239389,-0.317995 0.239389,-0.903963 0,-0.585967 -0.239389,-0.900389 -0.239389,-0.317995 -0.686011,-0.317995 -0.446622,0 -0.689584,0.317995 -0.239389,0.314422 -0.239389,0.900389 0,0.585968 0.239389,0.903963 0.242962,0.317994 0.689584,0.317994 z m 1.993719,-1.221957 q 0,0.857514 -0.49307,1.468493 -0.493071,0.607405 -1.497076,0.607405 -1.004006,0 -1.497076,-0.607405 -0.493071,-0.610979 -0.493071,-1.468493 0,-0.843221 0.493071,-1.461346 0.49307,-0.618124 1.497076,-0.618124 1.004005,0 1.497076,0.618124 0.49307,0.618125 0.49307,1.461346 z m -1.990146,-2.058032 z m 4.87711,0.01072 q 0.603833,0 0.986141,0.317994 0.385881,0.314422 0.385881,1.046881 v 2.622563 h -1.043308 v -2.368881 q 0,-0.307276 -0.08218,-0.471633 -0.150064,-0.30013 -0.571675,-0.30013 -0.518082,0 -0.711022,0.439476 -0.100043,0.232243 -0.100043,0.593114 v 2.108054 h -1.014725 v -3.887395 h 0.982568 v 0.568103 q 0.196513,-0.30013 0.371589,-0.43233 0.314422,-0.235816 0.796773,-0.235816 z m -0.375162,-0.01072 z m 4.573406,1.407751 q 0,-1.379168 0.739605,-2.125919 0.643135,-0.650281 1.636422,-0.650281 1.329146,0 1.943698,0.871805 0.339432,0.489498 0.364443,0.982568 h -1.100476 q -0.107189,-0.378735 -0.275119,-0.571676 -0.30013,-0.343005 -0.88967,-0.343005 -0.60026,0 -0.946838,0.485924 -0.346579,0.482352 -0.346579,1.368449 0,0.886098 0.364444,1.329146 0.368016,0.439476 0.932546,0.439476 0.578822,0 0.882524,-0.378735 0.16793,-0.20366 0.278692,-0.610979 h 1.089757 q -0.142919,0.861087 -0.732459,1.400606 -0.585968,0.539519 -1.504222,0.539519 -1.136206,0 -1.786487,-0.728887 -0.650281,-0.732459 -0.650281,-2.008011 z m 2.34387,-2.836941 z m 5.234406,3.533671 q -0.09647,0.06074 -0.196513,0.100043 -0.09647,0.03573 -0.267973,0.06789 l -0.228671,0.04288 q -0.321567,0.05717 -0.460913,0.139346 -0.235816,0.139345 -0.235816,0.432329 0,0.260827 0.142919,0.378736 0.146491,0.114335 0.353724,0.114335 0.328714,0 0.603833,-0.192941 0.278691,-0.19294 0.28941,-0.703876 z m -0.618124,-0.475205 q 0.282265,-0.03573 0.403746,-0.08932 0.217951,-0.0929 0.217951,-0.289411 0,-0.239389 -0.167929,-0.328713 -0.164357,-0.0929 -0.485925,-0.0929 -0.36087,0 -0.510935,0.178649 -0.107189,0.1322 -0.142919,0.357298 h -0.982568 q 0.03216,-0.510936 0.285838,-0.839649 0.403746,-0.514508 1.386314,-0.514508 0.639562,0 1.136206,0.253681 0.496643,0.253681 0.496643,0.957557 v 1.786486 q 0,0.185795 0.0071,0.450195 0.01072,0.200087 0.06074,0.271546 0.05002,0.07146 0.150065,0.117908 v 0.150065 h -1.107622 q -0.04645,-0.117908 -0.06431,-0.221524 -0.01787,-0.103616 -0.02858,-0.235817 -0.210805,0.228671 -0.485924,0.389455 -0.328714,0.189367 -0.743179,0.189367 -0.5288,0 -0.875378,-0.30013 -0.343006,-0.303702 -0.343006,-0.857513 0,-0.718168 0.553811,-1.039736 0.303703,-0.175075 0.893243,-0.250108 z m 0.0536,-1.629276 z m 4.644867,0.01072 q 0.603832,0 0.98614,0.317994 0.385881,0.314422 0.385881,1.046881 v 2.622563 h -1.043308 v -2.368881 q 0,-0.307276 -0.08218,-0.471633 -0.150065,-0.30013 -0.571676,-0.30013 -0.518081,0 -0.711022,0.439476 -0.100043,0.232243 -0.100043,0.593114 v 2.108054 h -1.014725 v -3.887395 h 0.982568 v 0.568103 q 0.196514,-0.30013 0.371589,-0.43233 0.314422,-0.235816 0.796774,-0.235816 z m -0.375163,-0.01072 z m 5.012884,1.500649 q -0.02858,-0.217952 -0.146492,-0.393028 -0.171503,-0.235816 -0.532373,-0.235816 -0.514509,0 -0.703876,0.510935 -0.100043,0.271546 -0.100043,0.721741 0,0.428757 0.100043,0.689584 0.182222,0.485924 0.686011,0.485924 0.357297,0 0.507362,-0.19294 0.150065,-0.192941 0.182222,-0.500216 h 1.039735 q -0.03573,0.464486 -0.335859,0.878951 -0.478779,0.668146 -1.418471,0.668146 -0.939692,0 -1.382741,-0.557384 -0.443049,-0.557384 -0.443049,-1.447054 0,-1.004006 0.489498,-1.56139 0.489497,-0.557383 1.350584,-0.557383 0.73246,0 1.196946,0.328713 0.46806,0.328714 0.553811,1.161217 z m -0.689584,-1.500649 z m 3.969571,0.839648 q -0.353724,0 -0.550238,0.221525 -0.192941,0.221524 -0.242962,0.600259 h 1.582827 Q 65.93052,16.435148 65.708996,16.227916 65.491045,16.01711 65.165904,16.01711 Z m 0,-0.839648 q 0.485924,0 0.875378,0.182221 0.389455,0.182222 0.643136,0.575249 0.22867,0.346578 0.296557,0.803919 0.0393,0.267973 0.03216,0.771762 h -2.665438 q 0.02144,0.585968 0.368016,0.821784 0.210806,0.146492 0.507363,0.146492 0.314421,0 0.510935,-0.178648 0.107189,-0.09647 0.189367,-0.267973 h 1.039736 q -0.0393,0.346578 -0.360871,0.703875 -0.500216,0.568103 -1.400605,0.568103 -0.743179,0 -1.311282,-0.478778 -0.568102,-0.478779 -0.568102,-1.557817 0,-1.011151 0.510935,-1.55067 0.514508,-0.539519 1.332719,-0.539519 z m 0.07146,0 z m 3.501512,3.998157 h -1.018297 v -5.266563 h 1.018297 z m 2.033028,0 h -1.018298 v -5.266563 h 1.018298 z m 2.529663,-3.158509 q -0.353724,0 -0.550238,0.221525 -0.192941,0.221524 -0.242962,0.600259 h 1.582827 Q 74.066182,16.435148 73.844658,16.227916 73.626707,16.01711 73.301566,16.01711 Z m 0,-0.839648 q 0.485924,0 0.875379,0.182221 0.389454,0.182222 0.643135,0.575249 0.22867,0.346578 0.296557,0.803919 0.0393,0.267973 0.03216,0.771762 h -2.665438 q 0.02144,0.585968 0.368016,0.821784 0.210806,0.146492 0.507363,0.146492 0.314421,0 0.510935,-0.178648 0.107189,-0.09647 0.189367,-0.267973 h 1.039736 q -0.0393,0.346578 -0.360871,0.703875 -0.500216,0.568103 -1.400605,0.568103 -0.743179,0 -1.311282,-0.478778 -0.568102,-0.478779 -0.568102,-1.557817 0,-1.011151 0.510935,-1.55067 0.514508,-0.539519 1.332719,-0.539519 z m 0.07146,0 z m 3.898116,0.01072 q 0.353724,0 0.628843,0.15721 0.275119,0.153638 0.446622,0.428757 v -1.857946 h 1.032589 v 5.259417 H 78.389482 V 18.6361 q -0.217952,0.346579 -0.496644,0.503789 -0.278692,0.157211 -0.693157,0.157211 -0.682437,0 -1.150497,-0.550238 -0.464487,-0.553811 -0.464487,-1.41847 0,-0.99686 0.457341,-1.568536 0.460914,-0.571675 1.229103,-0.571675 z m 0.221524,3.251406 q 0.43233,0 0.657427,-0.321568 0.225098,-0.321568 0.225098,-0.832503 0,-0.714595 -0.360871,-1.02187 -0.221524,-0.185795 -0.514508,-0.185795 -0.446621,0 -0.657427,0.339432 -0.207232,0.33586 -0.207232,0.836076 0,0.539519 0.210805,0.86466 0.214379,0.321568 0.646708,0.321568 z"
       id="text2"
       aria-label="Transaction Cancelled" />
    <path
       style="font-weight:500;font-size:10.5833px;line-height:1;font-family:'Noto Sans JP';-inkscape-font-specification:'Noto Sans JP Medium';fill:#282472;stroke-width:0.264583"
       d="M 8.6631692,5.8706137 9.7320824,6.1775294 Q 9.150001,7.6380247 8.1763374,8.6540215 7.2026738,9.6700182 5.900928,10.336766 4.5991821,10.992931 2.9799373,11.395096 2.9270208,11.268096 2.8106045,11.08818 2.6941882,10.918848 2.5671886,10.738932 2.4507723,10.569599 2.3449393,10.453182 3.9218509,10.1251 5.1706803,9.553602 6.4300929,8.9821038 7.3085068,8.0825233 8.1869207,7.1723595 8.6631692,5.8706137 Z M 5.2341801,4.0502861 6.2607602,4.4418682 Q 5.8797614,4.9392833 5.3823463,5.4261151 4.8955145,5.9129469 4.3557662,6.3362789 3.8160179,6.7596108 3.3080196,7.0771098 3.2127699,6.9712768 3.0646037,6.8231106 2.9164375,6.6749445 2.757688,6.5267783 2.5989385,6.3786121 2.4825222,6.2939457 2.9905206,6.0293632 3.4985189,5.669531 4.0171006,5.3096988 4.4615992,4.8969501 4.9166811,4.4736181 5.2341801,4.0502861 Z m 0.6561646,1.8838274 q 0.7196643,1.8203275 2.296576,2.9527406 1.5769116,1.1324129 4.0216543,1.5239949 -0.116417,0.116417 -0.243416,0.285749 -0.127,0.179916 -0.243416,0.349249 -0.105833,0.179916 -0.179916,0.328082 Q 9.8484987,11.035264 8.5785028,10.368516 7.3085068,9.7017681 6.4089263,8.6646048 5.5093459,7.6274414 4.9272644,6.2198626 Z M 2.5883552,2.8543733 H 11.922825 V 3.8280368 H 2.5883552 Z M 6.715842,1.5208775 H 7.7530054 V 3.4893713 H 6.715842 Z M 8.3985867,4.5900344 9.2240841,3.976203 q 0.4868317,0.3280823 1.0159969,0.740831 0.539748,0.4021654 1.015997,0.8149141 0.486831,0.4021654 0.793747,0.7514143 L 11.160828,6.9818601 Q 10.885662,6.6326113 10.419997,6.2092793 9.964915,5.7859473 9.4251667,5.3626153 8.8960018,4.9287 8.3985867,4.5900344 Z M 15.447064,4.4736181 v 0.8889972 h 4.889485 V 4.4736181 Z m 0,-1.6404114 v 0.8678306 h 4.889485 V 2.8332067 Z M 14.462817,2.0182926 h 6.900312 v 4.1592368 h -6.900312 z m 0.624415,4.9529842 h 6.275897 v 0.8784139 h -6.275897 z m 6.032481,0 h 1.015997 q 0,0 -0.01058,0.074083 0,0.074083 -0.01058,0.1799161 0,0.09525 -0.01058,0.1587495 -0.105833,1.1747463 -0.22225,1.9155773 -0.116416,0.7408312 -0.253999,1.1429962 -0.126999,0.402166 -0.296332,0.582082 -0.15875,0.179916 -0.349249,0.243415 -0.190499,0.07408 -0.433915,0.09525 -0.211666,0.02117 -0.571499,0.02117 -0.349248,0 -0.751414,-0.02117 -0.01058,-0.190499 -0.08467,-0.433915 -0.0635,-0.243416 -0.179916,-0.423332 0.370415,0.03175 0.687914,0.04233 0.317499,0.01058 0.455082,0.01058 0.137583,0 0.222249,-0.03175 0.08467,-0.02117 0.15875,-0.09525 0.126999,-0.127 0.232832,-0.486832 0.116417,-0.3598321 0.211666,-1.0477466 0.105833,-0.6879145 0.1905,-1.7779944 z M 15.81748,5.7436141 16.78056,6.0505298 Q 16.399561,6.6855278 15.88098,7.2781925 15.372981,7.860274 14.801483,8.3471058 14.229985,8.8339376 13.647903,9.2043531 13.57382,9.1091034 13.425654,8.9715205 13.288071,8.8339376 13.139905,8.706938 13.002322,8.5693551 12.875322,8.495272 13.753736,8.0190235 14.5369,7.2993591 15.330648,6.5691115 15.81748,5.7436141 Z m 1.100663,1.5134118 0.952497,0.2963324 q -0.391582,0.740831 -0.931331,1.4075789 -0.539748,0.6561646 -1.164162,1.2170798 -0.613832,0.550331 -1.259413,0.96308 -0.07408,-0.09525 -0.222249,-0.232833 -0.137583,-0.137583 -0.28575,-0.275165 -0.137582,-0.127 -0.253999,-0.211666 0.984247,-0.5291655 1.820328,-1.3546628 0.846664,-0.8360807 1.344079,-1.8097443 z m 2.18016,0.0635 0.952497,0.2328326 Q 19.638051,8.7492712 18.950136,9.7546846 18.272805,10.760098 17.468474,11.426846 17.394391,11.34218 17.246225,11.225763 17.098059,11.109347 16.939309,10.992931 16.791143,10.876514 16.68531,10.813015 17.489641,10.22035 18.114056,9.3101861 18.73847,8.389439 19.098303,7.3205257 Z m 9.482636,-4.3603194 h 3.778238 V 3.9338698 H 28.580939 Z M 23.617372,2.1770421 h 5.238733 v 0.9313304 h -5.238733 z m 1.301745,2.1589931 h 2.656409 V 5.246199 h -2.656409 z m 0,2.2013264 h 2.656409 V 7.436942 h -2.656409 z m 7.154311,-3.5771553 h 0.169333 l 0.179916,-0.042333 0.645581,0.1693328 q -0.232832,2.1272432 -0.804331,3.7041548 -0.571498,1.5769117 -1.449912,2.6775749 -0.878414,1.0900794 -2.042577,1.7779944 -0.116416,-0.190499 -0.306915,-0.433915 -0.1905,-0.243416 -0.349249,-0.380999 1.047747,-0.5503318 1.862661,-1.5557452 0.814914,-1.0159968 1.354662,-2.4447422 0.539748,-1.4393288 0.740831,-3.249073 z m -2.412992,1.0054134 q 0.275165,1.4604954 0.772581,2.7304914 0.497415,1.2594126 1.259412,2.2224929 0.761998,0.9630802 1.820328,1.523995 -0.116417,0.09525 -0.253999,0.243416 -0.127,0.148166 -0.254,0.296332 -0.116416,0.15875 -0.190499,0.285749 Q 31.681846,10.611932 30.888098,9.5747686 30.094351,8.5270219 29.565186,7.1617762 29.036021,5.7859473 28.707939,4.1561191 Z M 24.389952,2.5368743 h 0.963081 v 6.9003114 h -0.963081 z m 2.793992,0 h 0.96308 v 8.8158887 h -0.96308 z m -3.799405,6.5616458 q 0.518582,-0.0635 1.195913,-0.1481662 0.677331,-0.084666 1.439329,-0.1904994 0.761997,-0.1164163 1.523995,-0.2222493 l 0.05292,0.9207471 q -1.068913,0.1693328 -2.137826,0.3492488 -1.05833,0.1693328 -1.883828,0.2963329 z M 38.359908,6.4421119 h 4.392069 v 0.8572472 h -4.392069 z m -0.02117,1.8520774 h 4.413236 v 0.8572473 h -4.413236 z m 4.402653,-6.4875627 0.973664,0.3704155 q -0.264583,0.5397483 -0.571499,1.0794966 -0.306915,0.529165 -0.571498,0.920747 l -0.86783,-0.3492489 q 0.179916,-0.2751657 0.370415,-0.6138313 0.1905,-0.3492489 0.370416,-0.7196644 0.179916,-0.3704155 0.296332,-0.6879145 z m -5.344566,0.4444986 0.846664,-0.3704155 q 0.211666,0.2857491 0.433915,0.634998 0.222249,0.3492489 0.391582,0.6879145 0.169333,0.3280823 0.253999,0.6032481 L 38.412824,4.2407855 Q 38.338741,3.9656197 38.179992,3.6269542 38.021242,3.2777053 37.82016,2.9178731 37.619077,2.5580409 37.396828,2.2511252 Z m 0.306915,2.2859927 h 5.069401 V 5.4684483 H 38.68799 v 5.8843147 h -0.984247 z m 4.593152,0 h 0.973664 v 5.6620651 q 0,0.380999 -0.09525,0.603248 -0.08467,0.232833 -0.359832,0.349249 -0.264582,0.116416 -0.687914,0.137583 -0.412749,0.03175 -1.015997,0.03175 -0.02117,-0.201083 -0.116416,-0.476248 -0.08467,-0.275166 -0.1905,-0.476249 0.412749,0.02117 0.783164,0.03175 0.370416,0 0.497415,-0.01058 0.211666,-0.01058 0.211666,-0.201083 z M 40.021486,1.5314608 h 1.015997 V 5.140366 h -1.015997 z m -5.450399,0.8043308 0.582081,-0.6879145 q 0.328082,0.1481662 0.687915,0.3598322 0.359832,0.211666 0.666748,0.4339153 0.317499,0.2222493 0.518581,0.423332 L 36.401998,3.6375375 Q 36.222081,3.4364548 35.915166,3.2036222 35.60825,2.9707896 35.248418,2.737957 34.899169,2.5051244 34.571087,2.3357916 Z m -0.497415,2.825741 0.571498,-0.7090811 q 0.328082,0.1481662 0.687914,0.3598322 0.370416,0.211666 0.698498,0.4339153 0.328082,0.2222493 0.529165,0.4127487 L 35.957499,6.4421119 Q 35.767,6.2516125 35.449501,6.0187799 35.132002,5.7859473 34.772169,5.563698 34.412337,5.3308654 34.073672,5.1615326 Z m 0.317499,5.4715664 q 0.264582,-0.402166 0.571498,-0.9630808 0.317499,-0.5714981 0.634998,-1.2064961 0.328082,-0.634998 0.603248,-1.2382461 l 0.740831,0.6032481 Q 36.69833,8.389439 36.412581,8.9926871 36.137415,9.5959352 35.841083,10.178017 35.54475,10.760098 35.259001,11.27868 Z"
       id="text1"
       aria-label="交易取消" />
  </g>
</svg>
