<?xml version="1.0" encoding="UTF-8" standalone="no"?>
<!-- Created with Inkscape (http://www.inkscape.org/) -->

<svg
   width="200"
   height="100"
   viewBox="0 0 52.916666 26.458333"
   version="1.1"
   id="svg1"
   sodipodi:docname="confirm_btn_rect_prs.svg"
   inkscape:version="1.4.2 (f4327f4, 2025-05-13)"
   xmlns:inkscape="http://www.inkscape.org/namespaces/inkscape"
   xmlns:sodipodi="http://sodipodi.sourceforge.net/DTD/sodipodi-0.dtd"
   xmlns:xlink="http://www.w3.org/1999/xlink"
   xmlns="http://www.w3.org/2000/svg"
   xmlns:svg="http://www.w3.org/2000/svg">
  <sodipodi:namedview
     id="namedview1"
     pagecolor="#505050"
     bordercolor="#ffffff"
     borderopacity="1"
     inkscape:showpageshadow="0"
     inkscape:pageopacity="0"
     inkscape:pagecheckerboard="1"
     inkscape:deskcolor="#d1d1d1"
     inkscape:document-units="mm"
     inkscape:zoom="2.8578564"
     inkscape:cx="128.41793"
     inkscape:cy="24.668839"
     inkscape:window-width="1920"
     inkscape:window-height="1009"
     inkscape:window-x="1912"
     inkscape:window-y="-8"
     inkscape:window-maximized="1"
     inkscape:current-layer="layer1" />
  <defs
     id="defs1">
    <linearGradient
       id="linearGradient1"
       inkscape:collect="always">
      <stop
         style="stop-color:#0071d2;stop-opacity:1;"
         offset="0"
         id="stop1" />
      <stop
         style="stop-color:#0071d2;stop-opacity:1;"
         offset="0.28496504"
         id="stop3" />
      <stop
         style="stop-color:#004d8e;stop-opacity:1;"
         offset="0.48076928"
         id="stop2" />
    </linearGradient>
    <linearGradient
       inkscape:collect="always"
       xlink:href="#linearGradient1"
       id="linearGradient2"
       x1="26.458332"
       y1="-13.229166"
       x2="26.458332"
       y2="39.6875"
       gradientUnits="userSpaceOnUse" />
    <filter
       inkscape:collect="always"
       style="color-interpolation-filters:sRGB"
       id="filter3"
       x="-0.030121228"
       y="-0.06236213"
       width="1.0602425"
       height="1.1247243">
      <feGaussianBlur
         inkscape:collect="always"
         stdDeviation="0.31173795"
         id="feGaussianBlur3" />
    </filter>
  </defs>
  <g
     inkscape:label="Layer 1"
     inkscape:groupmode="layer"
     id="layer1">
    <path
       id="rect1"
       style="fill:url(#linearGradient2);stroke-width:0.789001;paint-order:fill markers stroke"
       d="m 13.229166,0 h 26.458332 c 7.328958,0 13.229166,5.900208 13.229166,13.229166 0,7.328958 -5.900208,13.229166 -13.229166,13.229166 H 13.229166 C 5.900208,26.458332 0,20.558124 0,13.229166 0,5.900208 5.900208,0 13.229166,0 Z" />
    <path
       id="rect1-1"
       style="fill:#005fad;stroke:#005fad;stroke-width:1.4572406;paint-order:fill markers stroke;filter:url(#filter3);stroke-dasharray:none;fill-opacity:1;stroke-opacity:1"
       transform="matrix(0.96709426,0,0,0.92865848,0.87063117,0.9437887)"
       d="m 13.784652,1.3887157 h 25.347359 c 6.55961,0 11.84045,5.2808409 11.84045,11.8404503 0,6.559609 -5.28084,11.84045 -11.84045,11.84045 H 13.784652 c -6.5596091,0 -11.8404499,-5.280841 -11.8404499,-11.84045 0,-6.5596094 5.2808408,-11.8404503 11.8404499,-11.8404503 z" />
    <path
       style="font-size:10.5833px;line-height:1;font-family:'Noto Sans TC';-inkscape-font-specification:'Noto Sans TC';text-align:center;text-anchor:middle;fill:#ffd42a;stroke-width:0.264583"
       d="m 21.425974,8.9159486 h 4.13807 V 9.52978 h -4.13807 z m 0,1.7356614 h 4.13807 v 0.624414 h -4.13807 z m 0.01058,1.735661 h 4.561402 v 0.677331 H 21.436558 Z M 20.177145,4.8731282 h 5.609149 V 6.6722891 H 25.056046 V 5.5610426 h -4.190987 v 1.1324131 h -0.687914 z m 3.100907,2.7728245 h 0.740831 V 12.747103 H 23.278052 Z M 21.70114,7.1485376 h 3.989904 V 7.8364521 H 21.70114 V 13.530267 H 20.949726 V 7.8576187 L 21.63764,7.1485376 Z M 22.801803,3.772465 23.553218,3.9312145 Q 23.066386,5.5716259 22.219722,6.8839551 21.383641,8.1962842 20.219478,9.0535315 20.177145,8.9688651 20.092479,8.8524488 20.007812,8.7254492 19.912562,8.5984496 19.817313,8.47145 19.732646,8.3973669 20.83331,7.6353694 21.60589,6.4394565 22.378471,5.2435436 22.801803,3.772465 Z m 0.15875,2.4129923 0.656164,-0.2751658 q 0.201083,0.3280823 0.380999,0.7196644 0.179916,0.3809988 0.275166,0.6561646 l -0.698498,0.317499 Q 23.489718,7.3178704 23.309802,6.915705 23.129886,6.5135396 22.960553,6.1854573 Z M 16.462407,4.5344626 h 3.471322 v 0.7302476 h -3.471322 z m 1.015997,3.0903235 h 2.285992 v 4.5084859 h -2.285992 v -0.698498 h 1.587494 V 8.3338671 h -1.587494 z m 0.306915,-2.825741 0.751414,0.1164163 q -0.169332,1.0794965 -0.423331,2.0954933 -0.254,1.0159967 -0.613832,1.8944106 -0.359832,0.8678306 -0.846664,1.5345787 -0.04233,-0.08467 -0.126999,-0.211666 -0.07408,-0.137583 -0.169333,-0.275166 -0.09525,-0.1375829 -0.169333,-0.211666 0.433915,-0.5926648 0.740831,-1.3652457 0.306916,-0.7831641 0.507998,-1.6933279 0.211666,-0.9207471 0.349249,-1.8838273 z m -0.582081,2.825741 h 0.687914 V 13.001102 H 17.203238 Z M 35.49118,4.2169636 h 0.751414 q 0,0 0,0.0635 0,0.052916 -0.01058,0.1375829 0,0.074083 0,0.1269996 -0.05292,1.3546623 -0.116416,2.1695764 -0.0635,0.8149141 -0.158749,1.238246 -0.08467,0.423332 -0.22225,0.5926648 -0.126999,0.1481662 -0.285749,0.211666 -0.158749,0.0635 -0.370415,0.09525 -0.201083,0.010583 -0.529165,0.010583 -0.328082,0 -0.687915,-0.010583 -0.01058,-0.1693328 -0.0635,-0.3598322 -0.05292,-0.2010827 -0.148167,-0.3492489 0.349249,0.03175 0.656165,0.042333 0.317499,0.010583 0.444499,0.010583 0.126999,0 0.201082,-0.021167 0.07408,-0.03175 0.137583,-0.105833 0.105833,-0.1164163 0.169333,-0.497415 0.07408,-0.3915821 0.127,-1.164163 0.0635,-0.7831642 0.105833,-2.0637434 z m -2.190744,0.2751658 h 0.719665 q -0.07408,0.7937474 -0.222249,1.5134118 -0.137583,0.7090811 -0.433916,1.3229125 -0.285749,0.6138313 -0.793747,1.1112464 -0.497415,0.4974151 -1.291163,0.846664 -0.0635,-0.1269996 -0.201082,-0.2963324 -0.137583,-0.1693328 -0.254,-0.2751658 0.730248,-0.3069157 1.18533,-0.740831 0.465665,-0.4339152 0.719664,-0.9736635 0.264583,-0.5503316 0.380999,-1.1853296 0.127,-0.634998 0.190499,-1.3229124 z M 31.056777,4.2169636 h 4.677818 v 0.6773312 h -4.677818 z m 0.910164,5.5350657 h 0.698498 v 2.5929087 q 0,0.201082 0.07408,0.264582 0.08467,0.05292 0.359832,0.05292 0.0635,0 0.222249,0 0.169333,0 0.370416,0 0.201082,0 0.370415,0 0.179916,0 0.264583,0 0.179916,0 0.264582,-0.09525 0.09525,-0.09525 0.127,-0.402165 0.04233,-0.306916 0.05292,-0.931331 0.116416,0.08467 0.296333,0.169333 0.190499,0.07408 0.338665,0.105833 -0.04233,0.719664 -0.137583,1.111246 -0.09525,0.391583 -0.296332,0.539749 -0.201083,0.148166 -0.571498,0.148166 -0.07408,0 -0.275166,0 -0.1905,0 -0.423332,0 -0.222249,0 -0.423332,0 -0.1905,0 -0.253999,0 -0.423332,0 -0.656165,-0.08467 -0.222249,-0.08467 -0.317499,-0.296333 -0.08467,-0.211666 -0.08467,-0.582081 z m -0.867831,0.2434159 0.582082,0.1799158 q -0.0635,0.380999 -0.169333,0.814914 -0.105833,0.423332 -0.243416,0.825498 -0.137583,0.391582 -0.328082,0.677331 l -0.571499,-0.243416 q 0.179917,-0.296332 0.317499,-0.677331 0.148167,-0.380999 0.254,-0.793748 0.105833,-0.412748 0.158749,-0.7831638 z M 32.824188,9.2969474 33.31102,8.9900317 q 0.338665,0.3598322 0.666748,0.7937475 0.328082,0.4339148 0.507998,0.7408308 l -0.529165,0.359832 Q 33.787268,10.566943 33.459186,10.122445 33.141687,9.6673629 32.824188,9.2969474 Z m 2.391826,0.4762485 0.571498,-0.1904994 q 0.201083,0.3386656 0.380999,0.7514145 0.190499,0.402165 0.338665,0.783164 0.148166,0.370415 0.22225,0.666748 l -0.613832,0.232832 Q 36.041511,11.720523 35.893345,11.339524 35.755762,10.958525 35.575846,10.545777 35.406513,10.133028 35.216014,9.7731959 Z M 31.152027,5.645709 31.575359,5.2117937 q 0.285749,0.2222493 0.613831,0.4974151 0.328082,0.2645825 0.624415,0.5185817 0.296332,0.2539992 0.476248,0.4550819 L 32.855938,7.1908708 Q 32.665439,6.9897881 32.369106,6.7252056 32.083357,6.4500398 31.755275,6.1642907 31.437776,5.8785416 31.152027,5.645709 Z M 27.98762,4.0582141 28.664951,3.8147982 q 0.201083,0.3280823 0.391582,0.7196644 0.201083,0.3915821 0.306916,0.6667478 L 28.654368,5.4975428 Q 28.559118,5.2012104 28.368619,4.7990451 28.178119,4.3862964 27.98762,4.0582141 Z m -0.804331,2.9421573 h 3.217323 v 0.6244147 h -3.217323 z m 0,1.4075788 h 3.217323 v 0.634998 H 27.183289 Z M 26.886957,5.5504593 h 3.767655 v 0.6667479 h -3.767655 z m 0.645581,4.2862364 h 2.815158 v 3.0903233 h -2.815158 v -0.656164 h 2.127243 v -1.767411 h -2.127243 z m -0.349249,0 h 0.666748 v 3.5771553 h -0.666748 z"
       id="text1"
       aria-label="確認" />
    <path
       style="font-weight:bold;font-size:7.95203px;line-height:1;font-family:Helvetica;-inkscape-font-specification:'Helvetica Bold';text-align:center;text-anchor:middle;fill:#ffd42a;stroke-width:0.198801"
       d="m 8.3371783,18.732676 q 0,-1.498771 0.8037452,-2.310282 0.6989089,-0.706675 1.7783345,-0.706675 1.444412,0 2.112258,0.94741 0.368869,0.531947 0.396048,1.067778 h -1.19591 q -0.116485,-0.41158 -0.298978,-0.621253 -0.326158,-0.372751 -0.966824,-0.372751 -0.652315,0 -1.0289489,0.528064 -0.3766343,0.524182 -0.3766343,1.487123 0,0.962941 0.3960484,1.444412 0.3999308,0.477588 1.0134178,0.477588 0.629018,0 0.959058,-0.41158 0.182493,-0.221321 0.302861,-0.663964 h 1.184262 q -0.155313,0.935762 -0.79598,1.522069 -0.636783,0.586307 -1.63467,0.586307 -1.2347386,0 -1.9414132,-0.792097 -0.7066745,-0.79598 -0.7066745,-2.182149 z m 2.5471347,-3.082965 z m 5.975671,5.043793 q 0.710557,0 1.12602,-0.524182 0.419345,-0.524182 0.419345,-1.491006 0,-0.962941 -0.419345,-1.487122 -0.415463,-0.528065 -1.12602,-0.528065 -0.710558,0 -1.133786,0.524182 -0.423228,0.524181 -0.423228,1.491005 0,0.966824 0.423228,1.491006 0.423228,0.524182 1.133786,0.524182 z m 2.741276,-2.015188 q 0,1.541483 -0.865871,2.360759 -0.648432,0.667847 -1.875405,0.667847 -1.226974,0 -1.875406,-0.667847 -0.869753,-0.819276 -0.869753,-2.360759 0,-1.572545 0.869753,-2.360759 0.648432,-0.667846 1.875406,-0.667846 1.226973,0 1.875405,0.667846 0.865871,0.788214 0.865871,2.360759 z m -2.741276,-3.028605 z m 3.634326,0.174727 h 1.254153 l 2.27922,3.99543 v -3.99543 h 1.114371 v 5.723288 h -1.195911 l -2.337462,-4.06532 v 4.06532 H 20.49431 Z m 2.368525,-0.01165 z m 3.39359,0.01941 h 4.057554 V 16.83785 H 27.44457 v 1.316279 h 2.512189 v 0.994003 H 27.44457 V 21.54772 H 26.256425 Z M 32.2088,21.547726 H 31.020655 V 15.824438 H 32.2088 Z m -0.594072,-5.83589 z m 2.904353,1.106606 v 1.5376 h 1.355107 q 0.403814,0 0.605721,-0.09319 0.35722,-0.163079 0.35722,-0.644549 0,-0.520299 -0.345571,-0.698909 -0.194142,-0.100954 -0.582425,-0.100954 z m 1.638553,-0.994004 q 0.601839,0.01165 0.924113,0.147548 0.326158,0.135899 0.551362,0.399931 0.186375,0.217438 0.295095,0.481471 0.108719,0.264032 0.108719,0.601838 0,0.407697 -0.20579,0.803745 -0.20579,0.392166 -0.679495,0.555244 0.396049,0.159196 0.559127,0.454291 0.166962,0.291212 0.166962,0.89305 v 0.3844 q 0,0.392166 0.03106,0.531948 0.04659,0.221321 0.217439,0.326157 v 0.143665 h -1.316279 q -0.05436,-0.190259 -0.07766,-0.306744 -0.04659,-0.240735 -0.05048,-0.493119 l -0.0078,-0.531947 q -0.0078,-0.547479 -0.201907,-0.729972 -0.190258,-0.182492 -0.718323,-0.182492 h -1.234739 v 2.244274 H 33.35035 v -5.723288 z m 6.701761,0 h 1.720093 v 5.723288 h -1.114372 v -3.871179 q 0,-0.166962 0.0039,-0.465939 0.0039,-0.302861 0.0039,-0.46594 l -1.083309,4.803058 h -1.160965 l -1.075543,-4.803058 q 0,0.163079 0.0039,0.46594 0.0039,0.298977 0.0039,0.465939 v 3.871179 h -1.114371 v -5.723288 h 1.739506 l 1.040598,4.500197 z"
       id="text2"
       aria-label="CONFIRM" />
  </g>
</svg>
