<?xml version="1.0" encoding="UTF-8" standalone="no"?>
<!-- Created with Inkscape (http://www.inkscape.org/) -->

<svg
   width="120"
   height="200"
   viewBox="0 0 31.75 52.916666"
   version="1.1"
   id="svg1"
   inkscape:version="1.3.2 (091e20e, 2023-11-25, custom)"
   sodipodi:docname="dollars.svg"
   xmlns:inkscape="http://www.inkscape.org/namespaces/inkscape"
   xmlns:sodipodi="http://sodipodi.sourceforge.net/DTD/sodipodi-0.dtd"
   xmlns="http://www.w3.org/2000/svg"
   xmlns:svg="http://www.w3.org/2000/svg">
  <sodipodi:namedview
     id="namedview1"
     pagecolor="#505050"
     bordercolor="#ffffff"
     borderopacity="1"
     inkscape:showpageshadow="0"
     inkscape:pageopacity="0"
     inkscape:pagecheckerboard="1"
     inkscape:deskcolor="#d1d1d1"
     inkscape:document-units="mm"
     inkscape:zoom="2.8578563"
     inkscape:cx="146.9633"
     inkscape:cy="82.929292"
     inkscape:window-width="1920"
     inkscape:window-height="1009"
     inkscape:window-x="1912"
     inkscape:window-y="-8"
     inkscape:window-maximized="1"
     inkscape:current-layer="layer1" />
  <defs
     id="defs1">
    <rect
       x="8.3979025"
       y="14.69633"
       width="83.979027"
       height="96.225967"
       id="rect1" />
  </defs>
  <g
     inkscape:label="Layer 1"
     inkscape:groupmode="layer"
     id="layer1">
    <path
       style="font-size:56px;line-height:0.45;font-family:'Noto Sans TC';-inkscape-font-specification:'Noto Sans TC';white-space:pre;stroke-width:0.469652"
       d="m 20.095712,10.94007 h 1.99884 v 10.152005 q 0,0.710114 0.236705,0.920518 0.236705,0.184104 0.99942,0.184104 0.184103,0 0.631212,0 0.47341,0 1.025721,0 0.552312,0 1.025721,0 0.49971,0 0.736415,0 0.552311,0 0.815316,-0.341907 0.263006,-0.368208 0.368207,-1.367628 0.131503,-1.02572 0.157804,-3.050861 0.263005,0.184104 0.578612,0.368207 0.315606,0.157803 0.657513,0.289306 0.368207,0.131503 0.631213,0.210404 -0.105202,2.261846 -0.394508,3.524271 -0.263006,1.236125 -0.894218,1.735835 -0.604913,0.49971 -1.762136,0.49971 -0.184104,0 -0.736415,0 -0.552311,0 -1.183524,0 -0.631213,0 -1.183524,0 -0.52601,0 -0.710114,0 -1.157223,0 -1.841037,-0.263005 -0.657513,-0.263005 -0.920519,-0.920518 -0.236704,-0.631213 -0.236704,-1.762136 z M 6.3142319,9.7565461 H 29.537602 V 11.702785 H 6.3142319 Z M 8.6286781,2.3923979 H 27.302057 V 4.2860361 H 8.6286781 Z m 4.4184909,8.8632781 h 2.104043 Q 14.967109,13.464921 14.598901,15.437461 14.230693,17.41 13.389076,19.119535 12.573759,20.802769 11.074628,22.170396 9.6017982,23.538024 7.261051,24.458542 7.1032478,24.116635 6.7350399,23.643226 6.366833,23.196117 6.0249261,22.933112 q 2.1566434,-0.815317 3.4716695,-2.025141 1.3413274,-1.209825 2.0514414,-2.708955 0.736416,-1.52543 1.052022,-3.261265 0.315607,-1.762136 0.44711,-3.682075 z"
       id="text1"
       aria-label="元" />
    <path
       style="font-size:23.9401px;line-height:0.45;font-family:'Noto Sans TC';-inkscape-font-specification:'Noto Sans TC';stroke-width:0.435274"
       d="M 5.6261773,49.583089 V 29.368665 h 1.9535403 l 5.5696694,12.740879 1.641806,4.164226 h 0.103912 q -0.103912,-1.516771 -0.187042,-3.17143 -0.08313,-1.65466 -0.08313,-3.226587 V 29.368665 H 16.45378 V 49.583089 H 14.479458 L 8.9305699,36.814633 7.2887648,32.677984 h -0.083129 q 0.062347,1.516771 0.1454764,3.116276 0.083129,1.571927 0.083129,3.171431 v 10.617398 z m 18.1845437,0 V 31.519723 H 19.19704 v -2.151058 h 11.160119 v 2.151058 h -4.61368 v 18.063366 z"
       id="text2"
       aria-label="NT" />
  </g>
</svg>
