<?xml version="1.0" encoding="UTF-8" standalone="no"?>
<!-- Created with Inkscape (http://www.inkscape.org/) -->

<svg
   width="165"
   height="80"
   viewBox="0 0 43.656244 21.166666"
   version="1.1"
   id="svg1"
   sodipodi:docname="fare_notice.svg"
   inkscape:version="1.3.2 (091e20e, 2023-11-25, custom)"
   xmlns:inkscape="http://www.inkscape.org/namespaces/inkscape"
   xmlns:sodipodi="http://sodipodi.sourceforge.net/DTD/sodipodi-0.dtd"
   xmlns="http://www.w3.org/2000/svg"
   xmlns:svg="http://www.w3.org/2000/svg">
  <sodipodi:namedview
     id="namedview1"
     pagecolor="#505050"
     bordercolor="#ffffff"
     borderopacity="1"
     inkscape:showpageshadow="0"
     inkscape:pageopacity="0"
     inkscape:pagecheckerboard="1"
     inkscape:deskcolor="#d1d1d1"
     inkscape:document-units="mm"
     inkscape:zoom="4.0416192"
     inkscape:cx="137.81605"
     inkscape:cy="51.464522"
     inkscape:window-width="1920"
     inkscape:window-height="1009"
     inkscape:window-x="1912"
     inkscape:window-y="-8"
     inkscape:window-maximized="1"
     inkscape:current-layer="layer1" />
  <defs
     id="defs1">
    <clipPath
       id="clip_0">
      <path
         transform="matrix(1,0,0,-1,0,841.92)"
         d="M 8.871e-6,0 H 595.32 V 841.92 H 8.871e-6 Z"
         fill-rule="evenodd"
         id="path1" />
    </clipPath>
    <clipPath
       id="clip_2">
      <path
         transform="matrix(1,0,0,-1,0,841.92)"
         d="M 8.871e-6,0 H 595.32 V 841.92 H 8.871e-6 Z"
         fill-rule="evenodd"
         id="path2" />
    </clipPath>
    <clipPath
       id="clip_3">
      <path
         transform="matrix(1,0,0,-1,0,841.92)"
         d="M 8.871e-6,0 H 595.32 V 841.92 H 8.871e-6 Z"
         fill-rule="evenodd"
         id="path3" />
    </clipPath>
    <clipPath
       id="clip_4">
      <path
         transform="matrix(1,0,0,-1,0,841.92)"
         d="M 8.871e-6,0 H 595.32 V 841.92 H 8.871e-6 Z"
         fill-rule="evenodd"
         id="path4" />
    </clipPath>
    <clipPath
       id="clip_5">
      <path
         transform="matrix(1,0,0,-1,0,841.92)"
         d="M 8.871e-6,0 H 595.32 V 841.92 H 8.871e-6 Z"
         fill-rule="evenodd"
         id="path5" />
    </clipPath>
    <clipPath
       id="clip_14">
      <path
         transform="matrix(1,0,0,-1,0,841.92)"
         d="M 8.871e-6,0 H 595.32 V 841.92 H 8.871e-6 Z"
         fill-rule="evenodd"
         id="path12" />
    </clipPath>
    <clipPath
       id="clip_7">
      <path
         transform="matrix(1,0,0,-1,0,841.92)"
         d="M 8.871e-6,0 H 595.32 V 841.92 H 8.871e-6 Z"
         fill-rule="evenodd"
         id="path6" />
    </clipPath>
    <clipPath
       id="clip_23">
      <path
         transform="matrix(1,0,0,-1,0,841.92)"
         d="M 8.871e-6,0 H 595.32 V 841.92 H 8.871e-6 Z"
         fill-rule="evenodd"
         id="path19" />
    </clipPath>
    <clipPath
       id="clip_10">
      <path
         transform="matrix(1,0,0,-1,0,841.92)"
         d="M 8.871e-6,0 H 595.32 V 841.92 H 8.871e-6 Z"
         fill-rule="evenodd"
         id="path8" />
    </clipPath>
    <clipPath
       id="clip_25">
      <path
         transform="matrix(1,0,0,-1,0,841.92)"
         d="M 8.871e-6,0 H 595.32 V 841.92 H 8.871e-6 Z"
         fill-rule="evenodd"
         id="path21" />
    </clipPath>
    <clipPath
       id="clip_12">
      <path
         transform="matrix(1,0,0,-1,0,841.92)"
         d="M 8.871e-6,0 H 595.32 V 841.92 H 8.871e-6 Z"
         fill-rule="evenodd"
         id="path10" />
    </clipPath>
    <clipPath
       id="clip_20">
      <path
         transform="matrix(1,0,0,-1,0,841.92)"
         d="M 8.871e-6,0 H 595.32 V 841.92 H 8.871e-6 Z"
         fill-rule="evenodd"
         id="path16" />
    </clipPath>
    <clipPath
       id="clip_18">
      <path
         transform="matrix(1,0,0,-1,0,841.92)"
         d="M 8.871e-6,0 H 595.32 V 841.92 H 8.871e-6 Z"
         fill-rule="evenodd"
         id="path14" />
    </clipPath>
    <clipPath
       id="clip_21">
      <path
         transform="matrix(1,0,0,-1,0,841.92)"
         d="M 8.871e-6,0 H 595.32 V 841.92 H 8.871e-6 Z"
         fill-rule="evenodd"
         id="path17" />
    </clipPath>
  </defs>
  <g
     inkscape:label="Layer 1"
     inkscape:groupmode="layer"
     id="layer1">
    <g
       clip-path="url(#clip_12)"
       id="g48"
       transform="matrix(0.40169891,0,0,0.40169891,-33.590615,-72.77212)">
      <path
         id="use45"
         d="m 96.094313,195.84497 v 6.28125 h 1.757813 v -8.50781 c 0.531249,-0.85938 1.023436,-1.70313 1.476561,-2.53125 l -1.734374,-0.9375 c -0.890626,2.125 -2.054688,3.8125 -3.492188,5.0625 v -5.03906 c 0,-0.15624 0.07812,-0.23439 0.234384,-0.23439 h 18.515621 v -1.85155 h -9.23438 v -1.26563 h -2.03906 v 1.26563 h -8.906253 c -0.343749,0 -0.515624,0.17186 -0.515624,0.51562 v 9.51563 c -0.04688,4.03125 -0.476563,7.40625 -1.289063,10.125 l 1.898437,0.58594 c 0.890626,-2.67188 1.335939,-6.04688 1.335939,-10.125 v -3.07032 c 0.296875,0.29688 0.609374,0.70313 0.9375,1.21875 0.375,-0.32812 0.726561,-0.66406 1.054687,-1.00781 m 11.273437,4.33594 v -1.14844 h 4.59375 v -1.47656 h -4.59375 v -1.05469 h 4.59375 v -1.47656 h -4.59375 v -1.05469 h 4.85156 l 0.16407,-1.66406 h -4.78125 c 0.25,-0.51563 0.46093,-1 0.63281,-1.45313 l -1.61719,-0.75 c -0.20313,0.60938 -0.54687,1.34375 -1.03125,2.20313 h -3.72656 c 0.20313,-0.4375 0.40625,-0.88281 0.60937,-1.33594 l -1.73437,-0.72656 c -0.5625,1.79687 -1.437502,3.30468 -2.625002,4.52343 0.390624,0.25 0.796875,0.67188 1.218749,1.26563 0.250001,-0.28125 0.500002,-0.5625 0.750003,-0.84375 v 6 c 0,0.4375 0.21093,0.65625 0.63281,0.65625 h 11.57813 v -1.66406 h -4.92188 m -1.85156,-5.15625 h -3.58594 v -0.79688 c 0,-0.15624 0.0859,-0.24219 0.25781,-0.25781 h 3.32813 v 1.05469 m 0,2.53125 h -3.58594 v -1.05469 h 3.58594 v 1.05469 m 0,2.625 h -3.32813 c -0.15624,0 -0.24219,-0.0937 -0.25781,-0.28125 v -0.86719 h 3.58594 v 1.14844 m -9.421877,3.14062 c -0.296876,1.73438 -0.976563,3.32031 -2.039063,4.75782 l 1.828126,0.82031 c 0.9375,-1.28125 1.648437,-3.02344 2.132812,-5.22656 l -1.921875,-0.35157 m 2.953125,-0.72656 v 3.44531 c 0,1.14063 0.304687,1.92969 0.914061,2.36719 0.296871,0.20314 0.710941,0.3125 1.242191,0.32813 h 5.60156 c 0.57812,0 1.00781,-0.0391 1.28906,-0.1172 0.25,-0.0625 0.52344,-0.26562 0.82031,-0.60937 0.25,-0.28125 0.40625,-1.39063 0.46875,-3.32813 l -1.875,-0.23437 c 0,1.125 -0.0547,1.79687 -0.16406,2.01562 -0.10937,0.20313 -0.23439,0.33594 -0.375,0.39844 -0.18751,0.0937 -0.42969,0.14063 -0.72656,0.14063 h -4.28906 c -0.48438,-0.0156 -0.80469,-0.14844 -0.96094,-0.39844 -0.0937,-0.14063 -0.12499,-0.42969 -0.0937,-0.86719 v -3.14062 h -1.851572 m 3.468752,0.79687 c 1.14062,1.84376 1.73437,2.79688 1.78125,2.85938 l 1.64062,-0.79687 c -0.42187,-0.84376 -1.03125,-1.83594 -1.82812,-2.97657 l -1.59375,0.91406 m 6.72656,0.0234 c 0.70312,1.14063 1.4375,2.75 2.20312,4.82813 l 1.73438,-0.72656 c -0.70313,-1.98438 -1.45313,-3.625 -2.25,-4.92188 z"
         style="fill:#282472;stroke-width:24" />
      <path
         id="use46"
         d="m 118.12556,196.45434 v 12.42188 h 2.13282 V 191.8606 c 0.46875,-1.37501 0.89843,-2.91407 1.28906,-4.61719 l -2.08594,-0.42188 c -0.65625,3.84375 -2.22656,7.42188 -4.71094,10.73438 l 1.99219,0.9375 c 0.46875,-0.60938 0.92969,-1.28906 1.38281,-2.03906 m 14.0625,-3.56251 v 12.93751 c 0,0.34374 -0.0781,0.57812 -0.23438,0.70312 -0.46875,0.42188 -1.14062,0.58594 -2.01562,0.49219 -0.95313,-0.0937 -2.52344,-0.47657 -4.71094,-1.14844 l -0.0937,2.22656 c 4,1.17188 6.6875,1.32031 8.0625,0.44532 0.75,-0.51563 1.125,-1.23438 1.125,-2.15625 v -13.50001 h 2.67188 v -2.13281 h -2.67188 v -3.75 h -2.13281 v 3.75 h -10.5 v 2.13281 h 10.5 m -9.53906,2.83594 c 1.375,1.89063 2.85156,4.625 4.42969,8.20313 l 1.92187,-0.98438 c -1.45312,-3.39062 -2.94531,-6.16406 -4.47656,-8.32031 z"
         style="fill:#282472;stroke-width:24" />
      <path
         id="use47"
         d="m 150.09431,188.95434 c 2.82813,2.35938 6.10938,4.3125 9.84375,5.85938 l 1.21875,-1.92188 c -3.79687,-1.21874 -7.10156,-3.00781 -9.91406,-5.36718 0.0937,-0.14062 0.18751,-0.27344 0.28125,-0.39844 l -1.96875,-0.42188 c -1.64062,2.29688 -5.21094,4.36719 -10.71094,6.21094 l 1.125,1.94532 c 4.79688,-2.01563 8.17188,-3.98438 10.125,-5.90626 m -8.71875,12.79688 c 0.76563,1.03125 1.60938,2.5 2.53125,4.40625 l 1.82813,-0.98438 c -0.85938,-1.84374 -1.72656,-3.34375 -2.60156,-4.5 l -1.75782,1.07813 m 15.42188,-1.07813 c -0.79688,1.45313 -1.71875,2.85938 -2.76563,4.21875 l 1.57032,1.26563 c 0.84374,-1.14062 1.79687,-2.57813 2.85937,-4.3125 l -1.66406,-1.17187 m -7.78125,5.69531 h -9.51563 v 2.03906 H 160.524 v -2.03906 h -9.46875 v -5.92969 h 9.28125 v -2.03906 h -9.28125 v -2.83594 h 5.53125 v -2.03906 h -13.05469 v 2.03906 h 5.48438 v 2.83594 h -9.32813 v 2.03906 h 9.32813 z"
         style="fill:#282472;stroke-width:24" />
      <path
         id="use48"
         d="m 167.62556,188.36841 h -3.96093 c -0.23438,0 -0.35157,0.11719 -0.35157,0.35156 v 4.17187 h 1.75782 v -2.50781 c 0,-0.10937 0.0547,-0.16406 0.16406,-0.16406 h 6.51562 c 0.15624,0 0.23439,0.0937 0.23439,0.28125 0.0156,0.14061 -0.14844,0.82031 -0.49219,2.03906 l 1.66405,0.5625 c 0.53125,-1.51562 0.875,-2.8125 1.03125,-3.89062 l -1.6875,-0.84375 h -2.92968 v -1.45313 h -1.94532 v 1.45313 m -2.17968,7.66406 c 0.57812,0.67188 1.15625,1.28125 1.73437,1.82813 -1,0.75 -2.47656,1.48437 -4.42969,2.20312 l 1.125,1.57031 c 1.875,-0.79687 3.4375,-1.66406 4.6875,-2.60156 1.375,1 2.88282,1.79688 4.52344,2.39062 l 1.125,-1.6875 c -1.75,-0.53124 -3.19531,-1.17968 -4.33594,-1.94531 1.17188,-1.375 2.07031,-2.86719 2.69532,-4.47656 l -1.35938,-0.82031 h -3.79687 c 0.0625,-0.20314 0.13281,-0.41407 0.21093,-0.63281 h -1.66406 c -0.4375,1.14062 -0.875,2.02343 -1.3125,2.64843 -0.39062,0.53125 -1.00781,1.10938 -1.85156,1.73438 l 1.10156,1.26562 c 0.57812,-0.48437 1.09375,-0.97656 1.54688,-1.47656 m 1.10156,-1.54687 c 0.0625,-0.10937 0.12499,-0.21876 0.18751,-0.32813 h 3.14062 c 0.15624,0 0.19532,0.17186 0.1172,0.51563 -0.53125,0.84375 -1.03126,1.51562 -1.5,2.01562 -0.625,-0.60937 -1.27344,-1.34375 -1.94532,-2.20312 m -0.21093,13.14843 h 4.33593 v 1.00782 h 1.85155 v -6.53907 c 0,-0.25 -0.13282,-0.375 -0.39844,-0.375 h -7.33593 c -0.20314,0 -0.30469,0.10157 -0.30469,0.30469 v 6.60938 h 1.85156 v -1.00782 m 0,-1.75781 v -2.13281 c -0.0156,-0.15625 0.0703,-0.24219 0.25781,-0.25781 h 3.79688 c 0.18751,0 0.28125,0.0859 0.28125,0.25781 v 2.13281 h -4.33594 m 18.09375,-1.96875 v -12.65625 c 0,-0.15624 -0.0937,-0.24219 -0.28125,-0.25781 h -4.5 c 0.18751,-0.625 0.39844,-1.25781 0.63281,-1.89844 h 4.24219 v -1.85156 h -10.05469 v 1.85156 h 3.79688 c -0.29688,0.9375 -0.51563,1.57031 -0.65625,1.89844 h -2.74219 c -0.15624,0 -0.24219,0.0859 -0.25781,0.25781 v 12.65625 c 0,0.1875 0.0859,0.28125 0.25781,0.28125 h 9.28125 c 0.18751,0 0.28125,-0.0937 0.28125,-0.28125 m -1.85156,-3.5625 v 1.89844 c 0,0.0625 -0.0312,0.0937 -0.0937,0.0937 h -5.95313 c -0.0469,0 -0.0703,-0.0312 -0.0703,-0.0937 v -1.89844 h 6.1172 m -6.11719,-1.85156 v -1.89844 h 6.11719 v 1.89844 h -6.11719 m 0,-3.75 v -1.82813 c 0,-0.0469 0.0234,-0.0703 0.0703,-0.0703 h 5.95313 c 0.0625,0 0.0937,0.0234 0.0937,0.0703 v 1.82813 h -6.11719 m 0.0234,9.72656 c -0.79688,1.26563 -1.82813,2.28125 -3.09375,3.04688 0.34375,0.39062 0.67187,0.94531 0.98437,1.66406 1.32813,-0.76563 2.57813,-1.92188 3.75,-3.46875 l -1.64062,-1.24219 m 3.98437,1.54688 c 0.85938,0.65625 1.88281,1.67187 3.07032,3.04687 l 1.5,-1.24219 c -1.18751,-1.42187 -2.30469,-2.53125 -3.35157,-3.32812 z"
         style="fill:#282472;stroke-width:24" />
    </g>
    <g
       id="g7"
       transform="translate(-0.23866288,2.520222)">
      <g
         clip-path="url(#clip_18)"
         id="g87"
         transform="matrix(0.26458333,0,0,0.26458333,-20.970273,-58.955691)">
        <path
           id="use84"
           d="m 91.852125,261.53656 h 12.246095 v 3.04688 h -8.660157 v 3.96093 h 7.582027 v 3 H 95.438063 V 278.81 h -3.585938 z"
           style="fill:#282472;stroke-width:24" />
        <path
           id="use85"
           d="m 113.33756,272.59577 c -0.21093,0.13329 -0.42383,0.24121 -0.63867,0.32373 -0.21485,0.0823 -0.50976,0.15869 -0.88476,0.22925 l -0.75,0.141 c -0.70313,0.12547 -1.20704,0.27843 -1.51172,0.45885 -0.51563,0.30566 -0.77344,0.7799 -0.77344,1.42273 0,0.57251 0.15821,0.9862 0.47461,1.24109 0.3164,0.25464 0.70117,0.38195 1.15429,0.38195 0.71875,0 1.38086,-0.21167 1.98633,-0.635 0.60547,-0.42335 0.91993,-1.19568 0.94336,-2.31702 v -1.24658 m -2.02734,-1.5586 c 0.61719,-0.0784 1.05859,-0.17628 1.32422,-0.2937 0.47656,-0.20386 0.71484,-0.52136 0.71484,-0.95251 0,-0.52515 -0.18163,-0.88758 -0.54492,-1.08728 -0.36328,-0.19995 -0.89648,-0.29993 -1.59961,-0.29993 -0.78906,0 -1.34766,0.19531 -1.67578,0.58594 -0.23438,0.28906 -0.39062,0.67968 -0.46875,1.17187 h -3.22266 c 0.0703,-1.12011 0.38282,-2.04053 0.9375,-2.76123 0.88281,-1.12793 2.39844,-1.69189 4.54688,-1.69189 1.39843,0 2.64062,0.27929 3.72656,0.83789 1.08594,0.55859 1.62891,1.60742 1.62891,3.14648 v 5.85938 c 0,0.40625 0.008,0.89844 0.0234,1.47656 0.0234,0.44141 0.0898,0.74097 0.19923,0.89868 0.10937,0.15772 0.27343,0.28784 0.49219,0.39038 V 278.81 h -3.63282 c -0.10157,-0.25635 -0.17186,-0.49707 -0.21093,-0.72217 -0.0391,-0.22534 -0.0703,-0.48169 -0.0937,-0.76904 -0.46095,0.50391 -0.9922,0.93298 -1.59376,1.28723 -0.71875,0.41724 -1.53125,0.62586 -2.4375,0.62586 -1.15625,0 -2.11133,-0.33118 -2.86523,-0.99354 -0.75391,-0.66235 -1.13086,-1.60095 -1.13086,-2.81579 0,-1.57544 0.60547,-2.71582 1.8164,-3.42114 0.66407,-0.38404 1.64063,-0.65833 2.92969,-0.82288 l 1.13672,-0.14136 m 0.17578,-5.32873 z"
           style="fill:#282472;stroke-width:24" />
        <path
           id="use86"
           d="m 126.48009,265.70844 c 0.0625,0 0.11523,0.002 0.15821,0.006 0.043,0.004 0.13867,0.01 0.28711,0.0176 v 3.42188 c -0.21093,-0.0188 -0.39844,-0.0312 -0.5625,-0.0373 -0.16406,-0.006 -0.29687,-0.01 -0.39844,-0.01 -1.34375,0 -2.24609,0.43799 -2.70703,1.31397 -0.25781,0.49291 -0.38672,1.2517 -0.38672,2.27636 V 278.81 h -3.36328 v -12.77344 h 3.1875 v 2.21814 c 0.51562,-0.85669 0.96484,-1.44214 1.34765,-1.75634 0.625,-0.52662 1.4375,-0.78992 2.4375,-0.78992 z"
           style="fill:#282472;stroke-width:24" />
        <path
           id="use87"
           d="m 133.86966,268.4975 c -0.77344,0 -1.37305,0.23585 -1.79883,0.70752 -0.42578,0.47168 -0.69336,1.11084 -0.80274,1.91748 h 5.19141 c -0.0547,-0.85986 -0.32227,-1.51233 -0.80274,-1.9574 -0.48046,-0.44506 -1.07617,-0.6676 -1.78711,-0.6676 m 0,-2.78906 c 1.0625,0 2.01953,0.19898 2.8711,0.59692 0.85156,0.39771 1.55468,1.02564 2.10937,1.88379 0.5,0.75659 0.82422,1.63416 0.97266,2.63269 0.0859,0.58496 0.1211,1.42737 0.10548,2.52722 h -8.7422 c 0.0469,1.27661 0.44922,2.17176 1.20703,2.68543 0.46094,0.31909 1.01563,0.47864 1.66407,0.47864 0.6875,0 1.24609,-0.19373 1.67578,-0.58118 0.23438,-0.20923 0.4414,-0.49988 0.62109,-0.87195 h 3.41016 c -0.0859,0.75781 -0.48047,1.52734 -1.1836,2.30859 -1.09375,1.24219 -2.625,1.86329 -4.59375,1.86329 -1.625,0 -3.05859,-0.52295 -4.30078,-1.56885 -1.24218,-1.04615 -1.86328,-2.74781 -1.86328,-5.10498 0,-2.20899 0.56055,-3.90284 1.68164,-5.08155 1.1211,-1.17871 2.57617,-1.76806 4.36524,-1.76806 m 0.23438,0 z"
           style="fill:#282472;stroke-width:24" />
      </g>
      <g
         clip-path="url(#clip_20)"
         id="g94"
         transform="matrix(0.26458333,0,0,0.26458333,-20.970273,-58.955691)">
        <path
           id="use89"
           d="m 157.73938,272.44086 c 0,-0.98608 -0.22462,-1.85852 -0.67383,-2.61731 -0.44922,-0.75903 -1.17774,-1.13855 -2.18555,-1.13855 -1.21094,0 -2.04297,0.57507 -2.49609,1.72522 -0.23439,0.61035 -0.35157,1.38501 -0.35157,2.32397 0,1.48658 0.39454,2.53113 1.1836,3.13367 0.46875,0.35205 1.02344,0.52808 1.66406,0.52808 0.92969,0 1.63867,-0.35987 2.12695,-1.07959 0.48828,-0.71997 0.73243,-1.67847 0.73243,-2.87549 m -1.89844,-6.68555 c 1.49219,0 2.75586,0.55127 3.79101,1.65381 1.03516,1.10254 1.55274,2.72119 1.55274,4.85596 0,2.25195 -0.50586,3.96826 -1.51758,5.14892 -1.01172,1.18067 -2.31445,1.771 -3.9082,1.771 -1.01563,0 -1.85938,-0.25281 -2.53125,-0.75842 -0.36719,-0.28003 -0.72657,-0.68848 -1.07813,-1.22534 v 6.64782 h -3.30469 v -17.8125 h 3.19922 v 1.89515 c 0.35938,-0.55689 0.74219,-0.9961 1.14844,-1.31763 0.74219,-0.57251 1.625,-0.85876 2.64844,-0.85877 z"
           style="fill:#282472;stroke-width:24" />
        <path
           id="use90"
           d="m 170.69357,272.59577 c -0.21093,0.13329 -0.42383,0.24121 -0.63867,0.32373 -0.21485,0.0823 -0.50976,0.15869 -0.88476,0.22925 l -0.75,0.141 c -0.70313,0.12547 -1.20704,0.27843 -1.51172,0.45885 -0.51563,0.30566 -0.77344,0.7799 -0.77344,1.42273 0,0.57251 0.15821,0.9862 0.47461,1.24109 0.3164,0.25464 0.70117,0.38195 1.15429,0.38195 0.71875,0 1.38086,-0.21167 1.98633,-0.635 0.60547,-0.42335 0.91993,-1.19568 0.94336,-2.31702 v -1.24658 m -2.02734,-1.5586 c 0.61719,-0.0784 1.05859,-0.17628 1.32422,-0.2937 0.47656,-0.20386 0.71484,-0.52136 0.71484,-0.95251 0,-0.52515 -0.18163,-0.88758 -0.54492,-1.08728 -0.36328,-0.19995 -0.89648,-0.29993 -1.59961,-0.29993 -0.78906,0 -1.34766,0.19531 -1.67578,0.58594 -0.23438,0.28906 -0.39062,0.67968 -0.46875,1.17187 h -3.22266 c 0.0703,-1.12011 0.38282,-2.04053 0.9375,-2.76123 0.88281,-1.12793 2.39844,-1.69189 4.54688,-1.69189 1.39843,0 2.64062,0.27929 3.72656,0.83789 1.08594,0.55859 1.62891,1.60742 1.62891,3.14648 v 5.85938 c 0,0.40625 0.008,0.89844 0.0234,1.47656 0.0234,0.44141 0.0898,0.74097 0.19923,0.89868 0.10937,0.15772 0.27343,0.28784 0.49219,0.39038 V 278.81 h -3.63282 c -0.10157,-0.25635 -0.17186,-0.49707 -0.21093,-0.72217 -0.0391,-0.22534 -0.0703,-0.48169 -0.0937,-0.76904 -0.46095,0.50391 -0.9922,0.93298 -1.59376,1.28723 -0.71875,0.41724 -1.53125,0.62586 -2.4375,0.62586 -1.15625,0 -2.11133,-0.33118 -2.86523,-0.99354 -0.75391,-0.66235 -1.13086,-1.60095 -1.13086,-2.81579 0,-1.57544 0.60547,-2.71582 1.8164,-3.42114 0.66407,-0.38404 1.64063,-0.65833 2.92969,-0.82288 l 1.13672,-0.14136 m 0.17578,-5.32873 z"
           style="fill:#282472;stroke-width:24" />
        <path
           id="use91"
           d="m 177.41423,281.29438 0.42187,0.0234 c 0.32813,0.0156 0.64063,0.004 0.9375,-0.0363 0.29688,-0.0398 0.54688,-0.13123 0.75,-0.27429 0.19532,-0.13526 0.37696,-0.41773 0.54493,-0.84742 0.16797,-0.42944 0.23632,-0.69189 0.20508,-0.78735 l -4.68751,-13.33593 h 3.71485 l 2.78906,9.42188 2.63672,-9.42188 h 3.55078 l -4.38281,12.5625 c -0.84375,2.42725 -1.51172,3.9325 -2.00391,4.51575 -0.49219,0.58325 -1.47656,0.87488 -2.95312,0.87488 -0.29688,0 -0.53516,-0.002 -0.71485,-0.006 -0.17969,-0.004 -0.44922,-0.0176 -0.80859,-0.041 v -2.64844 m 4.52343,-15.58593 z"
           style="fill:#282472;stroke-width:24" />
        <path
           id="use92"
           d="m 197.26156,272.59577 c -0.21093,0.13329 -0.42383,0.24121 -0.63867,0.32373 -0.21485,0.0823 -0.50976,0.15869 -0.88476,0.22925 l -0.75,0.141 c -0.70313,0.12547 -1.20704,0.27843 -1.51172,0.45885 -0.51563,0.30566 -0.77344,0.7799 -0.77344,1.42273 0,0.57251 0.15821,0.9862 0.47461,1.24109 0.3164,0.25464 0.70117,0.38195 1.15429,0.38195 0.71875,0 1.38086,-0.21167 1.98633,-0.635 0.60547,-0.42335 0.91993,-1.19568 0.94336,-2.31702 v -1.24658 m -2.02734,-1.5586 c 0.61719,-0.0784 1.05859,-0.17628 1.32422,-0.2937 0.47656,-0.20386 0.71484,-0.52136 0.71484,-0.95251 0,-0.52515 -0.18163,-0.88758 -0.54492,-1.08728 -0.36328,-0.19995 -0.89648,-0.29993 -1.59961,-0.29993 -0.78906,0 -1.34766,0.19531 -1.67578,0.58594 -0.23438,0.28906 -0.39062,0.67968 -0.46875,1.17187 h -3.22266 c 0.0703,-1.12011 0.38282,-2.04053 0.9375,-2.76123 0.88281,-1.12793 2.39844,-1.69189 4.54688,-1.69189 1.39843,0 2.64062,0.27929 3.72656,0.83789 1.08594,0.55859 1.62891,1.60742 1.62891,3.14648 v 5.85938 c 0,0.40625 0.008,0.89844 0.0234,1.47656 0.0234,0.44141 0.0898,0.74097 0.19923,0.89868 0.10937,0.15772 0.27343,0.28784 0.49219,0.39038 V 278.81 h -3.63282 c -0.10157,-0.25635 -0.17186,-0.49707 -0.21093,-0.72217 -0.0391,-0.22534 -0.0703,-0.48169 -0.0937,-0.76904 -0.46095,0.50391 -0.9922,0.93298 -1.59376,1.28723 -0.71875,0.41724 -1.53125,0.62586 -2.4375,0.62586 -1.15625,0 -2.11133,-0.33118 -2.86523,-0.99354 -0.75391,-0.66235 -1.13086,-1.60095 -1.13086,-2.81579 0,-1.57544 0.60547,-2.71582 1.8164,-3.42114 0.66407,-0.38404 1.64063,-0.65833 2.92969,-0.82288 l 1.13672,-0.14136 m 0.17578,-5.32873 z"
           style="fill:#282472;stroke-width:24" />
        <path
           id="use93"
           d="m 210.51294,265.75531 c 1.67969,0 2.99414,0.60608 3.94336,1.81824 0.94922,1.21191 1.42383,2.77576 1.42383,4.69153 0,1.98608 -0.46876,3.63208 -1.40626,4.93799 -0.9375,1.30566 -2.24609,1.95849 -3.92578,1.95849 -1.05468,0 -1.90234,-0.21386 -2.54296,-0.6416 -0.38282,-0.25366 -0.79688,-0.69739 -1.24219,-1.33118 V 278.81 h -3.26953 v -17.25 h 3.32812 v 6.14832 c 0.42188,-0.5962 0.88672,-1.05115 1.39453,-1.36487 0.60157,-0.39209 1.36719,-0.58814 2.29688,-0.58814 m -0.85547,10.61719 c 0.85937,0 1.52734,-0.34607 2.00391,-1.03821 0.47656,-0.69214 0.71484,-1.60205 0.71484,-2.72974 0,-0.9021 -0.11719,-1.64868 -0.35156,-2.23974 -0.44531,-1.11987 -1.26563,-1.67981 -2.46094,-1.67981 -1.21094,0 -2.04297,0.54822 -2.49609,1.64465 -0.23439,0.5835 -0.35156,1.33789 -0.35156,2.26319 0,1.08886 0.24218,1.99108 0.72656,2.70666 0.48437,0.71533 1.22265,1.073 2.21484,1.073 z"
           style="fill:#282472;stroke-width:24" />
        <path
           id="use94"
           d="m 221.73275,278.81 h -3.33984 v -17.25 h 3.33984 z"
           style="fill:#282472;stroke-width:24" />
      </g>
      <g
         clip-path="url(#clip_21)"
         id="g95"
         transform="matrix(0.26458333,0,0,0.26458333,-20.970273,-58.955691)">
        <path
           id="use95"
           d="m 230.08766,268.4975 c -0.77344,0 -1.37305,0.23585 -1.79883,0.70752 -0.42578,0.47168 -0.69336,1.11084 -0.80274,1.91748 h 5.19141 c -0.0547,-0.85986 -0.32227,-1.51233 -0.80274,-1.9574 -0.48046,-0.44506 -1.07617,-0.6676 -1.78711,-0.6676 m 0,-2.78906 c 1.0625,0 2.01953,0.19898 2.8711,0.59692 0.85156,0.39771 1.55468,1.02564 2.10937,1.88379 0.5,0.75659 0.82422,1.63416 0.97266,2.63269 0.0859,0.58496 0.1211,1.42737 0.10548,2.52722 h -8.7422 c 0.0469,1.27661 0.44922,2.17176 1.20703,2.68543 0.46094,0.31909 1.01563,0.47864 1.66407,0.47864 0.6875,0 1.24609,-0.19373 1.67578,-0.58118 0.23438,-0.20923 0.4414,-0.49988 0.62109,-0.87195 h 3.41016 c -0.0859,0.75781 -0.48047,1.52734 -1.1836,2.30859 -1.09375,1.24219 -2.625,1.86329 -4.59375,1.86329 -1.625,0 -3.05859,-0.52295 -4.30078,-1.56885 -1.24218,-1.04615 -1.86328,-2.74781 -1.86328,-5.10498 0,-2.20899 0.56055,-3.90284 1.68164,-5.08155 1.1211,-1.17871 2.57617,-1.76806 4.36524,-1.76806 m 0.23438,0 z"
           style="fill:#282472;stroke-width:24" />
      </g>
    </g>
  </g>
</svg>
