<?xml version="1.0" encoding="UTF-8" standalone="no"?>
<!-- Created with Inkscape (http://www.inkscape.org/) -->

<svg
   width="1000"
   height="150"
   viewBox="0 0 264.58332 39.6875"
   version="1.1"
   id="svg1"
   inkscape:version="1.3.2 (091e20e, 2023-11-25, custom)"
   sodipodi:docname="ic_title.svg"
   xmlns:inkscape="http://www.inkscape.org/namespaces/inkscape"
   xmlns:sodipodi="http://sodipodi.sourceforge.net/DTD/sodipodi-0.dtd"
   xmlns="http://www.w3.org/2000/svg"
   xmlns:svg="http://www.w3.org/2000/svg">
  <sodipodi:namedview
     id="namedview1"
     pagecolor="#505050"
     bordercolor="#ffffff"
     borderopacity="1"
     inkscape:showpageshadow="0"
     inkscape:pageopacity="0"
     inkscape:pagecheckerboard="1"
     inkscape:deskcolor="#d1d1d1"
     inkscape:document-units="mm"
     inkscape:zoom="1.4289282"
     inkscape:cx="397.50074"
     inkscape:cy="132.9668"
     inkscape:window-width="1920"
     inkscape:window-height="1009"
     inkscape:window-x="1912"
     inkscape:window-y="-8"
     inkscape:window-maximized="1"
     inkscape:current-layer="layer1" />
  <defs
     id="defs1">
    <clipPath
       id="clip_0">
      <path
         transform="matrix(1,0,0,-1,0,841.92)"
         d="M 8.871e-6,0 H 595.32 V 841.92 H 8.871e-6 Z"
         fill-rule="evenodd"
         id="path1" />
    </clipPath>
    <clipPath
       id="clip_2">
      <path
         transform="matrix(1,0,0,-1,0,841.92)"
         d="M 8.871e-6,0 H 595.32 V 841.92 H 8.871e-6 Z"
         fill-rule="evenodd"
         id="path2" />
    </clipPath>
    <clipPath
       id="clip_3">
      <path
         transform="matrix(1,0,0,-1,0,841.92)"
         d="M 8.871e-6,0 H 595.32 V 841.92 H 8.871e-6 Z"
         fill-rule="evenodd"
         id="path3" />
    </clipPath>
    <clipPath
       id="clip_4">
      <path
         transform="matrix(1,0,0,-1,0,841.92)"
         d="M 8.871e-6,0 H 595.32 V 841.92 H 8.871e-6 Z"
         fill-rule="evenodd"
         id="path4" />
    </clipPath>
    <clipPath
       id="clip_6">
      <path
         transform="matrix(1,0,0,-1,0,841.92)"
         d="M 8.871e-6,0 H 595.32 V 841.92 H 8.871e-6 Z"
         fill-rule="evenodd"
         id="path5" />
    </clipPath>
    <clipPath
       id="clip_7">
      <path
         transform="matrix(1,0,0,-1,0,841.92)"
         d="M 8.871e-6,0 H 595.32 V 841.92 H 8.871e-6 Z"
         fill-rule="evenodd"
         id="path6" />
    </clipPath>
    <clipPath
       id="clip_9">
      <path
         transform="matrix(1,0,0,-1,0,841.92)"
         d="M 8.871e-6,0 H 595.32 V 841.92 H 8.871e-6 Z"
         fill-rule="evenodd"
         id="path7" />
    </clipPath>
    <clipPath
       id="clip_11">
      <path
         transform="matrix(1,0,0,-1,0,841.92)"
         d="M 8.871e-6,0 H 595.32 V 841.92 H 8.871e-6 Z"
         fill-rule="evenodd"
         id="path8" />
    </clipPath>
    <clipPath
       id="clip_12">
      <path
         transform="matrix(1,0,0,-1,0,841.92)"
         d="M 8.871e-6,0 H 595.32 V 841.92 H 8.871e-6 Z"
         fill-rule="evenodd"
         id="path9" />
    </clipPath>
    <clipPath
       id="clip_13">
      <path
         transform="matrix(1,0,0,-1,0,841.92)"
         d="M 8.871e-6,0 H 595.32 V 841.92 H 8.871e-6 Z"
         fill-rule="evenodd"
         id="path10" />
    </clipPath>
    <clipPath
       id="clip_14">
      <path
         transform="matrix(1,0,0,-1,0,841.92)"
         d="M 8.871e-6,0 H 595.32 V 841.92 H 8.871e-6 Z"
         fill-rule="evenodd"
         id="path11" />
    </clipPath>
    <clipPath
       id="clip_15">
      <path
         transform="matrix(1,0,0,-1,0,841.92)"
         d="M 8.871e-6,0 H 595.32 V 841.92 H 8.871e-6 Z"
         fill-rule="evenodd"
         id="path12" />
    </clipPath>
    <clipPath
       id="clip_16">
      <path
         transform="matrix(1,0,0,-1,0,841.92)"
         d="M 8.871e-6,0 H 595.32 V 841.92 H 8.871e-6 Z"
         fill-rule="evenodd"
         id="path13" />
    </clipPath>
    <clipPath
       id="clip_17">
      <path
         transform="matrix(1,0,0,-1,0,841.92)"
         d="M 8.871e-6,0 H 595.32 V 841.92 H 8.871e-6 Z"
         fill-rule="evenodd"
         id="path14" />
    </clipPath>
    <clipPath
       id="clip_18">
      <path
         transform="matrix(1,0,0,-1,0,841.92)"
         d="M 8.871e-6,0 H 595.32 V 841.92 H 8.871e-6 Z"
         fill-rule="evenodd"
         id="path15" />
    </clipPath>
    <clipPath
       id="clip_19">
      <path
         transform="matrix(1,0,0,-1,0,841.92)"
         d="M 8.871e-6,0 H 595.32 V 841.92 H 8.871e-6 Z"
         fill-rule="evenodd"
         id="path16" />
    </clipPath>
  </defs>
  <g
     inkscape:label="Layer 1"
     inkscape:groupmode="layer"
     id="layer1">
    <g
       id="g18"
       transform="matrix(1.1139365,0,0,1.1139365,-15.072849,-1.9468473)">
      <text
         xml:space="preserve"
         style="font-size:14.5521px;line-height:1.25;font-family:'文鼎粗黑';-inkscape-font-specification:'文鼎粗黑';stroke-width:0.264583"
         x="109.45695"
         y="13.878513"
         id="text1"><tspan
           sodipodi:role="line"
           id="tspan1"
           style="stroke-width:0.264583"
           x="109.45695"
           y="13.878513" /></text>
      <g
         clip-path="url(#clip_0)"
         id="g17"
         transform="matrix(0.56610602,0,0,0.56610602,-36.616153,-42.143137)">
        <path
           id="use16"
           d="M 152.28828,104.68951 V 87.105292 c 0,-0.182019 -0.10921,-0.282147 -0.32766,-0.300351 h -6.4439 c -0.18203,0 -0.28215,0.100124 -0.30035,0.300351 v 17.584218 c 0,0.21844 0.10011,0.32766 0.30035,0.32766 h 6.4439 c 0.21846,0 0.32766,-0.10922 0.32766,-0.32766 m -2.15707,-5.024062 v 3.085432 c 0,0.0728 -0.0364,0.10921 -0.10921,0.10921 h -2.56664 c -0.0546,0 -0.0819,-0.0364 -0.0819,-0.10921 v -3.085432 h 2.75778 m -2.75777,-2.15707 V 94.31373 h 2.75777 v 3.194648 h -2.75777 m 0,-5.351719 v -3.112734 c 0,-0.05461 0.0273,-0.08192 0.0819,-0.08192 h 2.56664 c 0.0728,0 0.10921,0.0273 0.10921,0.08192 v 3.112734 h -2.75777 m -1.20141,13.679651 c -0.23664,1.38344 -0.78273,3.14914 -1.63828,5.29711 l 2.07516,0.70992 c 0.83734,-2.03875 1.39254,-3.84086 1.66558,-5.40633 l -2.10246,-0.6007 m 3.03082,0.92836 c 0.50969,1.00117 1.03758,2.43011 1.58367,4.28683 l 1.96594,-0.65531 c -0.45508,-1.7657 -0.99207,-3.23105 -1.61098,-4.39605 l -1.93863,0.76453 m 7.45418,1.2014 h 10.40309 v 0.60071 c 0,0.40047 -0.19114,0.72812 -0.5734,0.98297 -0.38227,0.27304 -1.39254,0.19113 -3.03082,-0.24575 l 0.10921,2.37551 c 2.20258,0.40047 3.74984,0.31855 4.6418,-0.24574 0.67351,-0.45508 1.01027,-1.11949 1.01027,-1.99324 v -1.47446 h 1.31062 v -1.93863 h -1.31061 v -7.263046 c 0,-0.327657 -0.17294,-0.491483 -0.51879,-0.491483 h -5.8159 v -1.556368 h 7.64531 v -1.938632 h -4.15031 v -1.556369 h 3.16734 V 91.282908 H 166.3775 V 89.83576 h 3.71344 v -1.938632 h -3.71344 v -1.911329 h -2.15707 v 1.911329 h -4.61449 v -1.802109 h -2.15707 v 1.802109 h -3.87727 v 1.938633 h 3.87727 v 1.447148 h -3.11274 v 1.938633 h 3.11274 v 1.556367 h -4.09571 v 1.938634 h 7.37227 v 1.556366 h -5.73398 c -0.32766,0 -0.49149,0.163818 -0.49149,0.491484 v 7.263047 h -1.47445 v 1.93863 h 1.47445 v 3.79536 h 2.15707 v -3.79536 m 6.22547,-1.93863 v -1.88402 h 4.17762 v 1.88402 h -4.17762 m -6.22547,0 v -1.88402 h 4.0684 v 1.88402 h -4.0684 m 4.0684,-3.82266 h -4.0684 v -1.82941 c 0,-0.10921 0.0546,-0.16382 0.16382,-0.16382 h 3.90458 v 1.99323 m 2.15707,-1.99324 h 3.98648 c 0.12742,0 0.19114,0.0546 0.19114,0.16382 v 1.82942 h -4.17762 v -1.99324 m -3.27656,-5.433631 v -1.556367 h 4.61449 v 1.556367 h -4.61449 m 4.61449,-3.495 h -4.61449 v -1.447148 h 4.61449 z"
           style="fill:#424690;stroke-width:27.96" />
        <path
           id="use17"
           d="M 197.50484,93.139628 V 86.85955 c 0,-0.18202 -0.10012,-0.273058 -0.30035,-0.273058 h -23.3182 c -0.18203,0 -0.27305,0.09101 -0.27305,0.273058 v 6.280078 c 0,0.18202 0.091,0.282147 0.27305,0.300352 h 23.3182 c 0.18202,0 0.28215,-0.100125 0.30035,-0.300352 m -9.25628,-1.638281 h -5.16059 v -2.976211 h 5.16059 v 2.976211 m 2.15707,-2.976211 h 4.83293 c 0.0728,0 0.10921,0.0273 0.10921,0.08192 v 2.78507 c 0,0.05461 -0.0364,0.09101 -0.10921,0.109212 h -4.83293 v -2.976204 m -9.47473,2.976211 h -5.07867 c -0.0728,-0.0182 -0.10013,-0.05461 -0.0819,-0.109212 v -2.785079 c -0.0182,-0.05461 0.009,-0.08192 0.0819,-0.08192 h 5.07867 v 2.976214 m 8.7648,16.246292 -0.46418,2.21168 c 2.20258,0.23664 5.06957,0.94656 8.60098,2.12976 l 0.62801,-2.3482 c -2.85789,-1.00117 -5.42453,-1.66559 -7.69992,-1.99324 h 4.94214 c 0.21846,0 0.32766,-0.10922 0.32766,-0.32766 V 94.969042 c 0,-0.182019 -0.10921,-0.282149 -0.32766,-0.300351 h -20.20546 c -0.18202,0 -0.28215,0.100124 -0.30036,0.300351 v 12.450938 c 0,0.21844 0.10013,0.32766 0.30036,0.32766 h 4.31414 c -1.82032,0.70992 -4.15942,1.38343 -7.01731,2.02054 l 0.62801,2.3209 c 3.29477,-0.67352 6.04344,-1.51086 8.24601,-2.51203 l -0.65531,-1.82941 h 8.68289 m 4.0684,-3.54961 v 1.28332 c 0,0.0546 -0.0364,0.091 -0.10921,0.10922 h -16.10977 c -0.0728,-0.0182 -0.10012,-0.0546 -0.0819,-0.10922 v -1.28332 h 16.3009 m -16.3009,-2.04786 v -1.55636 h 16.3009 v 1.55637 h -16.3009 m 0,-3.604223 v -1.638283 c -0.0182,-0.05461 0.009,-0.08192 0.0819,-0.08192 h 16.10976 c 0.0728,0 0.10921,0.0273 0.10921,0.08192 v 1.638283 z"
           style="fill:#424690;stroke-width:27.96" />
      </g>
      <g
         clip-path="url(#clip_2)"
         id="g19"
         transform="matrix(0.56610602,0,0,0.56610602,-39.791155,-40.555636)">
        <path
           id="use18"
           d="M 214.59758,105.31752 V 87.7333 h 2.67586 v -2.293593 h -7.64532 v 2.293592 h 2.67586 v 17.584221 h -2.67586 v 2.29359 h 7.64532 v -2.29359 z"
           style="fill:#424690;stroke-width:27.96" />
        <path
           id="use19"
           d="m 228.1734,107.91146 c 1.63828,0 2.9216,-0.6189 3.84996,-1.85671 0.94656,-1.21961 1.41984,-2.68497 1.41984,-4.39606 h -2.29359 c 0,1.11039 -0.26394,2.05695 -0.79184,2.83969 -0.54609,0.72812 -1.27421,1.10129 -2.18437,1.11949 -1.32883,0 -2.36641,-0.69172 -3.11274,-2.07516 -0.6007,-1.21961 -0.90105,-3.5041 -0.90105,-6.853472 0,-3.786251 0.39137,-6.316484 1.1741,-7.590704 0.76453,-1.110389 1.71109,-1.665586 2.83969,-1.665586 0.78273,0 1.48355,0.34586 2.10246,1.037579 0.5643,0.728126 0.85555,1.592772 0.87375,2.593945 h 2.29359 c -0.0182,-1.765702 -0.49148,-3.221953 -1.41984,-4.36875 -0.94656,-1.037576 -2.22988,-1.556366 -3.84996,-1.556366 -1.87492,0 -3.36758,0.791836 -4.47797,2.375507 -1.32883,1.911328 -2.00234,4.969453 -2.02055,9.174375 0,3.731642 0.47328,6.453012 1.41985,8.164102 1.165,2.03875 2.85789,3.05812 5.07867,3.05812 z"
           style="fill:#424690;stroke-width:27.96" />
      </g>
      <g
         clip-path="url(#clip_3)"
         id="g21"
         transform="matrix(0.56610602,0,0,0.56610602,-41.378656,-42.143137)">
        <path
           id="use20"
           d="M 260.13336,90.900644 V 88.96201 h 7.80914 v -2.157069 h -24.4923 v 2.15707 h 7.86375 v 1.938633 h -6.74426 c -0.18203,0 -0.28215,0.100125 -0.30035,0.300352 v 5.570156 c 0,0.218451 0.10011,0.327657 0.30035,0.327657 h 22.1714 c 0.21846,0 0.32766,-0.109211 0.32766,-0.327657 v -5.570156 c 0,-0.182019 -0.10921,-0.28215 -0.32766,-0.300352 h -6.60773 m -2.26629,0 h -4.28684 V 88.96201 h 4.28684 v 1.938634 m 0,4.150313 h -4.28684 v -2.102461 h 4.28684 v 2.102461 m 2.26629,-2.102461 h 4.45066 c 0.0728,0 0.10921,0.0364 0.10921,0.109212 v 1.85672 c 0,0.07281 -0.0364,0.118327 -0.10921,0.136529 h -4.45066 v -2.102461 m -8.81941,2.102461 h -4.58719 c -0.0728,-0.0182 -0.10013,-0.06372 -0.0819,-0.136529 v -1.85672 c -0.0182,-0.07281 0.009,-0.109212 0.0819,-0.109212 h 4.58719 v 2.102461 m -4.69641,3.495 v 2.047853 h 18.26683 v -2.047853 h -18.26683 m 8.46445,5.597463 v 4.39605 c 0,0.38227 -0.0819,0.64621 -0.24574,0.79184 -0.45508,0.38226 -1.71109,0.24574 -3.76804,-0.40957 l -0.0546,2.48472 c 2.56664,0.67352 4.29594,0.72813 5.18789,0.16382 0.81914,-0.54609 1.23781,-1.34703 1.25602,-2.40281 v -5.02406 h 10.59421 v -2.15707 h -24.81996 v 2.15708 H 255.082 m -5.32441,0.81914 c -1.60188,1.25601 -3.94098,2.63035 -7.01731,4.12301 l 1.1195,1.99324 c 2.9125,-1.38344 5.288,-2.78508 7.12652,-4.20492 l -1.22871,-1.91133 m 10.53961,2.15707 c 2.9489,1.47445 5.28801,2.82148 7.0173,4.04109 l 1.36524,-1.93863 c -1.98415,-1.36524 -4.36875,-2.73957 -7.15383,-4.12301 z"
           style="fill:#424690;stroke-width:27.96" />
        <path
           id="use21"
           d="m 283.61539,102.64166 c 3.73164,1.65648 6.92629,3.24926 9.58395,4.77832 l 1.09218,-2.3482 c -3.45859,-1.76571 -7.0173,-3.36758 -10.67613,-4.80563 v -2.129765 h 12.50555 v -2.375507 h -12.50555 v -4.396055 h 11.0857 v -2.375507 h -11.0857 v -2.894297 h -2.48473 v 9.665859 h -9.9389 v 2.375508 h 9.9389 v 13.761564 h 2.48473 z"
           style="fill:#424690;stroke-width:27.96" />
      </g>
      <g
         clip-path="url(#clip_4)"
         id="g22"
         transform="matrix(0.56610602,0,0,0.56610602,-36.616153,-42.143137)">
        <path
           id="use22"
           d="M 297.65,107.41998 Z"
           style="fill:#424690;stroke-width:27.96" />
      </g>
      <g
         clip-path="url(#clip_6)"
         id="g27"
         transform="matrix(0.56610602,0,0,0.56610602,-41.378656,-42.143137)">
        <path
           id="use23"
           d="m 313.86707,86.968769 v 2.26629 h 7.23574 v -2.26629 h -7.23574 m -0.98297,3.495 v 2.26629 h 9.09246 v -2.26629 h -9.09246 m 0.87375,3.604219 v 2.266289 h 7.5634 v -2.26629 h -7.5634 m 0,3.60422 v 2.266288 h 7.5634 v -2.266288 h -7.5634 m 15.56367,-3.331173 h -6.60773 v 2.157071 h 15.86402 v -2.157069 h -6.88078 v -1.337931 h 5.46094 v -2.157072 h -5.46094 v -1.337928 h 6.33469 v -2.157072 h -6.33469 v -1.365234 h -2.37551 v 1.365235 h -5.95242 v 2.157071 h 5.95242 v 1.337929 h -5.18789 v 2.157071 h 5.18789 v 1.337929 m -3.08543,12.587466 h 9.09247 v 1.33793 c 0,0.45507 -0.20934,0.81914 -0.62801,1.09218 -0.45508,0.29125 -1.58368,0.18203 -3.38578,-0.32765 l 0.10921,2.64855 c 2.42102,0.50969 4.14121,0.42778 5.16059,-0.24574 0.72812,-0.50969 1.10128,-1.24691 1.11949,-2.21168 V 98.300216 c 0,-0.382266 -0.19114,-0.573398 -0.5734,-0.573398 h -12.69668 c -0.38226,0 -0.57339,0.191134 -0.57339,0.573398 v 13.351994 h 2.37551 v -4.72371 m 0,-2.04785 v -1.44715 h 9.09246 v 1.44714 h -9.09247 m 0,-3.495 v -1.33793 c 0,-0.109208 0.0546,-0.163814 0.16382,-0.163814 h 8.7375 c 0.12742,0 0.19114,0.05461 0.19114,0.163814 v 1.33793 h -9.09246 m -10.53961,8.98325 h 5.2425 c 0.50969,0 0.76454,-0.25485 0.76454,-0.76454 v -7.89105 c 0,-0.45508 -0.24574,-0.69172 -0.73723,-0.70992 h -6.82617 c -0.45508,0 -0.69172,0.23665 -0.70992,0.70992 v 9.42012 h 2.26628 v -0.76454 m 3.35848,-7.20843 c 0.23665,0 0.36406,0.11832 0.38227,0.35496 v 4.23222 c 0,0.29125 -0.15473,0.44598 -0.46418,0.46418 h -3.27657 v -4.6964 c 0,-0.23666 0.11833,-0.35496 0.35496,-0.35496 z"
           style="fill:#424690;stroke-width:27.96" />
        <path
           id="use24"
           d="m 341.09182,88.470526 c 1.32883,0.618907 2.97621,1.692891 4.94215,3.221954 l 1.39254,-1.965938 c -1.85672,-1.474453 -3.54961,-2.575742 -5.07867,-3.303867 l -1.25602,2.047851 m -0.32766,6.990001 c 1.21961,0.564296 2.73047,1.529062 4.53258,2.894296 l 1.33793,-1.99324 c -1.69289,-1.310626 -3.23105,-2.293595 -4.61449,-2.948908 l -1.25602,2.047852 m 4.17762,4.996753 c -0.65531,3.60422 -2.10246,6.88989 -4.34144,9.857 l 2.32089,1.06488 c 1.92953,-2.51203 3.37668,-5.99793 4.34145,-10.4577 l -2.3209,-0.46418 m 11.52258,-11.440659 c 2.58484,2.129765 5.57926,3.795351 8.98324,4.996757 l 1.20141,-2.293595 c -3.18555,-1.092186 -6.05254,-2.51203 -8.60098,-4.25953 0.0728,-0.109212 0.17293,-0.209336 0.30035,-0.300352 l -1.82941,-1.22871 c -1.54727,1.638281 -2.97621,2.857892 -4.28684,3.658828 -1.27422,0.81914 -3.06722,1.69289 -5.37902,2.62125 l 1.52906,2.15707 c 1.87492,-0.782735 3.4586,-1.629179 4.75102,-2.539336 0.89195,-0.618906 2.00234,-1.556368 3.33117,-2.812382 m -6.25277,5.324413 v 2.375509 h 13.46121 v -2.375507 h -13.46121 m 1.11949,16.191674 h 11.49527 v 1.25602 h 2.37551 V 99.856582 c 0,-0.327658 -0.17293,-0.491484 -0.51879,-0.491484 h -15.34523 c -0.27306,0 -0.40047,0.127414 -0.38227,0.382267 v 12.041365 h 2.37551 v -1.25602 m 0,-2.3755 v -6.08895 c -0.0182,-0.21845 0.091,-0.32766 0.32765,-0.32766 h 10.81266 c 0.23665,0 0.35496,0.10921 0.35496,0.32766 v 6.08895 z"
           style="fill:#424690;stroke-width:27.96" />
        <path
           id="use25"
           d="m 369.65251,86.750332 v 2.266289 h 7.45418 v -2.266289 h -7.45418 m 8.43715,5.024062 v -1.529062 h -9.09246 v 2.266289 h 8.51906 c -0.0182,0.0182 -0.0455,0.05461 -0.0819,0.109212 l 1.91133,1.337931 c 0.10921,-0.127414 0.22754,-0.273058 0.35496,-0.436875 v 12.751291 c 0,0.21844 0.10921,0.32766 0.32766,0.32766 h 8.81941 c 0.21845,0 0.32766,-0.10922 0.32766,-0.32766 V 93.194237 c 0,-0.218451 -0.10922,-0.327655 -0.32766,-0.327655 h -8.68288 c 0.32766,-0.491486 0.79183,-1.337931 1.39254,-2.539335 h 9.3382 c 0.12741,0 0.22754,0.06372 0.30035,0.191134 0.12742,0.236654 0.13653,3.513203 0.0273,9.829689 -0.0182,2.74867 -0.17293,4.71461 -0.46418,5.89781 -0.29125,1.11039 -0.62801,1.85672 -1.01028,2.23898 -0.32765,0.34586 -0.95566,0.50059 -1.88402,0.46418 -0.98297,-0.0182 -2.3118,-0.23664 -3.98648,-0.65531 l 0.30035,2.78508 c 3.56781,0.72812 5.8796,0.64621 6.93539,-0.24574 1.52906,-1.21961 2.3391,-4.59629 2.43011,-10.13004 0.0728,-3.294766 0.11833,-7.081017 0.13653,-11.358752 0,-0.655312 -0.13653,-1.055781 -0.40957,-1.201405 -0.12741,-0.07281 -0.29125,-0.109211 -0.49148,-0.109211 h -10.53962 c 0.12742,-0.564298 0.23666,-1.183203 0.32766,-1.856718 l -2.26629,-0.218448 c -0.23664,1.659897 -0.54609,2.904535 -0.92836,3.733916 -0.34586,0.714473 -0.77363,1.408465 -1.28332,2.081982 m 8.81942,8.983246 v 3.46769 c 0,0.0728 -0.0364,0.10921 -0.10922,0.10921 h -4.75102 c -0.0546,0 -0.0819,-0.0364 -0.0819,-0.10921 v -3.46769 h 4.94216 m -4.94215,-2.157074 v -3.385782 c 0,-0.05461 0.0273,-0.08192 0.0819,-0.08192 h 4.75102 c 0.0728,0 0.10921,0.0273 0.10921,0.08192 v 3.385782 h -4.94215 m -12.2052,-4.696407 v 2.157071 h 7.34496 v -2.157069 h -7.34496 m 0,3.495 v 2.157069 h 7.45418 v -2.157069 h -7.45418 m 1.82942,12.642069 h 5.46093 c 0.50969,0 0.76454,-0.25484 0.76454,-0.76453 v -7.67262 c 0,-0.45508 -0.24574,-0.69172 -0.73723,-0.70992 h -7.04461 c -0.45508,0 -0.69172,0.23665 -0.70992,0.70992 v 9.63856 h 2.26629 v -1.20141 m 3.57691,-6.99 c 0.23665,0 0.36406,0.11833 0.38227,0.35496 v 4.01379 c 0,0.29125 -0.15473,0.44598 -0.46418,0.46418 h -3.495 v -4.47797 c 0,-0.23665 0.11832,-0.35496 0.35496,-0.35496 z"
           style="fill:#424690;stroke-width:27.96" />
        <path
           id="use26"
           d="m 408.0702,86.914159 h -9.63856 c -0.43687,0 -0.65531,0.218452 -0.65531,0.655313 v 24.110038 h 2.37551 V 97.044198 h 7.89105 c 0.49149,0 0.73723,-0.24574 0.73723,-0.737226 v -8.710196 c 0,-0.45508 -0.23665,-0.682618 -0.70992,-0.682618 m -1.66559,6.088947 v 1.283319 c 0,0.400469 -0.20022,0.600704 -0.6007,0.600704 h -5.65207 v -1.884023 h 6.25277 m -6.25277,-2.157071 v -1.201406 c -0.0182,-0.382266 0.17293,-0.573398 0.5734,-0.573398 h 5.13328 c 0.34586,0 0.52789,0.172933 0.54609,0.518789 v 1.256015 h -6.25277 m 18.92215,6.198164 v 11.495272 c 0,0.23664 -0.0637,0.45508 -0.19114,0.65531 -0.0728,0.18204 -0.19113,0.30036 -0.35496,0.35497 -0.43687,0.12742 -1.53816,-0.0819 -3.30386,-0.62801 l -0.30036,2.59394 c 2.23899,0.65532 3.93188,0.72813 5.07868,0.21845 0.45508,-0.21845 0.81004,-0.51878 1.06488,-0.90105 0.23665,-0.40047 0.36406,-0.85555 0.38226,-1.36524 V 87.651399 c 0,-0.491484 -0.25485,-0.737227 -0.76453,-0.737227 h -9.50203 c -0.49148,0 -0.73722,0.24574 -0.73722,0.737227 v 8.628268 c 0,0.509689 0.24574,0.76453 0.73722,0.76453 h 7.89106 m 0,-4.041093 v 1.884024 h -5.59746 c -0.43688,0 -0.65532,-0.227538 -0.65532,-0.682618 v -1.201405 h 6.25278 m -6.25278,-2.157072 v -1.228711 c -0.0182,-0.345859 0.16383,-0.527889 0.5461,-0.546092 h 5.02406 c 0.45508,0 0.68262,0.218451 0.68262,0.655312 v 1.119491 h -6.25278 m 3.44039,16.546647 v -7.26305 c 0,-0.40047 -0.20933,-0.600706 -0.628,-0.600706 h -10.51231 -1.7748 c -0.40047,0 -0.60071,0.200222 -0.60071,0.600706 v 7.26305 c 0,0.40046 0.20023,0.6098 0.60071,0.628 h 12.28711 c 0.40047,0 0.6098,-0.20933 0.628,-0.628 m -2.40281,-5.59747 c 0.0728,0 0.11833,0.0364 0.13653,0.10922 v 3.71343 c 0,0.0728 -0.0455,0.11832 -0.13653,0.13653 h -8.7375 c -0.0728,0 -0.10921,-0.0455 -0.10921,-0.13653 v -3.71343 c 0,-0.0728 0.0364,-0.10922 0.10921,-0.10922 z"
           style="fill:#424690;stroke-width:27.96" />
        <path
           id="use27"
           d="m 430.95152,104.90795 c 0.6007,1.00117 1.24691,1.87492 1.93863,2.62125 0.0546,0.0546 0.10921,0.11832 0.16382,0.19113 -1.2014,0.83735 -2.77597,1.65649 -4.7237,2.45742 l 1.44714,1.88403 c 1.85672,-0.83735 3.4677,-1.78391 4.83293,-2.83969 0.0546,-0.0546 0.11833,-0.10012 0.19114,-0.13652 1.65648,1.03757 3.42219,1.69289 5.29711,1.96593 1.71109,0.29125 3.69523,0.46418 5.95242,0.51879 h 3.87727 l 0.6007,-2.3755 h -5.32442 c -3.89547,0.0546 -6.71695,-0.43688 -8.46445,-1.47446 -0.10921,-0.0546 -0.21845,-0.10922 -0.32765,-0.16383 0.40046,-0.49148 0.82824,-1.01937 1.28331,-1.58367 0.78274,-1.09219 1.51997,-2.59394 2.21169,-4.50527 l -1.66559,-0.95567 h -4.99676 c 0.0728,-0.29125 0.16382,-0.6098 0.27306,-0.95566 l -2.15708,0.136523 c -0.65532,2.020547 -1.60188,3.586017 -2.83969,4.696407 0.0728,-1.91133 0.17293,-3.84086 0.30035,-5.788594 v -5.65207 c 0,-0.236653 0.12741,-0.364064 0.38227,-0.382266 h 5.10597 v 1.556367 h -4.36875 v 1.938633 h 4.36875 v 1.365234 c 0,0.491483 0.20934,0.955664 0.62801,1.392539 0.45508,0.455077 0.95566,0.70082 1.50176,0.737227 h 8.84672 c 0.38226,0 0.84644,-0.254855 1.39254,-0.764533 0.16381,-0.109211 0.35496,-1.05578 0.57339,-2.839687 l -1.91132,-0.464178 c -0.0728,0.782735 -0.13653,1.337928 -0.19114,1.665585 0,0.127414 -0.0364,0.209337 -0.10921,0.245741 -0.18202,0.127414 -0.38227,0.200221 -0.6007,0.218451 h -6.68966 c -0.32765,-0.0182 -0.6007,-0.136528 -0.81914,-0.35496 -0.23665,-0.236654 -0.35496,-0.51879 -0.35496,-0.846444 V 96.06123 h 7.04461 v -1.938632 h -7.04461 V 92.56623 h 11.08571 c 0.23665,-0.0182 0.31855,0.09101 0.24574,0.327655 -0.0728,0.673516 -0.32766,1.583673 -0.76453,2.73047 l 2.10246,0.600704 c 0.76453,-1.692892 1.1741,-3.267461 1.22871,-4.723712 l -1.82941,-1.092187 h -12.01407 v -1.174101 h 10.04813 v -2.047852 h -10.04813 v -1.310625 h -2.37551 v 4.532577 h -7.09922 c -0.40046,0 -0.6007,0.200222 -0.6007,0.600704 v 8.437148 c 0,4.095699 -0.68262,7.891059 -2.04785,11.386059 l 2.3209,0.98296 c 0.76453,-2.02054 1.30152,-4.25953 1.61097,-6.71695 l 1.17411,1.22871 c 0.49148,-0.45508 0.93746,-0.92836 1.33793,-1.41984 m 3.16734,0.70992 c -0.67351,-0.78273 -1.28332,-1.67469 -1.82941,-2.67586 0.0546,-0.12741 0.11832,-0.25485 0.19113,-0.38227 h 4.20492 c 0.18202,0 0.22754,0.23666 0.13653,0.70993 -0.81915,1.36523 -1.51997,2.3573 -2.10247,2.97621 -0.21843,-0.18203 -0.41867,-0.39137 -0.6007,-0.62801 m 8.95594,-2.78508 h 1.82941 c 0.18202,0 0.29125,0.10013 0.32766,0.30035 v 3.16735 c -0.0182,0.56429 0.17293,1.03758 0.5734,1.41984 0.38226,0.34586 0.86465,0.53699 1.44715,0.5734 h 1.50175 c 0.45508,0 0.90106,-0.19113 1.33793,-0.5734 0.23666,-0.18203 0.37317,-0.45508 0.40957,-0.81914 0.0182,-0.34586 0.0546,-1.20141 0.10921,-2.56664 l -1.96593,-0.16382 c 0.0182,0.50968 0.0364,0.97386 0.0546,1.39253 0.0182,0.40047 -0.009,0.61891 -0.0819,0.65531 -0.23664,0.0728 -0.42777,0.11832 -0.5734,0.13653 h 0.16382 c -0.40047,-0.0182 -0.66441,-0.10012 -0.79184,-0.24575 -0.0728,-0.18203 -0.11832,-0.41867 -0.13653,-0.70992 v -4.0684 c -0.0182,-0.12741 -0.0637,-0.23665 -0.13652,-0.32765 -0.0728,-0.0728 -0.18202,-0.10922 -0.32766,-0.10922 h -5.62475 c -0.12741,0 -0.23665,0.0364 -0.32765,0.10922 -0.0728,0.0728 -0.10921,0.18202 -0.10921,0.32765 v 1.03758 c 0,2.02055 -0.75543,3.495 -2.26629,4.42336 l 1.52905,1.61098 c 1.82032,-1.20141 2.74867,-2.98531 2.78508,-5.35172 v 0.0546 c 0,-0.18202 0.091,-0.27306 0.27305,-0.27305 z"
           style="fill:#424690;stroke-width:27.96" />
      </g>
      <g
         clip-path="url(#clip_7)"
         id="g28"
         transform="matrix(0.56610602,0,0,0.56610602,-36.616153,-42.143137)">
        <path
           id="use28"
           d="M 451.78,107.41998 Z"
           style="fill:#424690;stroke-width:27.96" />
      </g>
      <g
         clip-path="url(#clip_9)"
         id="g29"
         transform="matrix(0.56610602,0,0,0.56610602,-36.616153,-53.255644)">
        <path
           id="use29"
           d="m 94.669898,151.33997 h -2.994257 v -14.42332 h 2.994257 v 14.42332 M 93.17277,136.91665 Z"
           style="fill:#424690;stroke-width:20.04" />
      </g>
      <g
         clip-path="url(#clip_11)"
         id="g30"
         transform="matrix(0.56610602,0,0,0.56610602,-36.616153,-53.255644)">
        <path
           id="use30"
           d="m 96.804234,144.25062 c 0,-2.51967 0.675176,-4.46162 2.025528,-5.82583 1.174218,-1.18808 2.668088,-1.78213 4.481598,-1.78213 2.42672,0 4.2011,0.79739 5.32313,2.39217 0.61973,0.89534 0.95242,1.79405 0.99808,2.69612 h -3.01382 c -0.19571,-0.69149 -0.44686,-1.21336 -0.75346,-1.56563 -0.54797,-0.62625 -1.36014,-0.93937 -2.4365,-0.93937 -1.09594,0 -1.9603,0.44288 -2.59307,1.32864 -0.63277,0.88555 -0.949162,2.13887 -0.949162,3.75994 0,1.62087 0.334322,2.83495 1.002982,3.64222 0.66865,0.80728 1.51833,1.21091 2.54903,1.21091 1.0568,0 1.86244,-0.34951 2.41693,-1.04854 0.3066,-0.37571 0.56102,-0.93947 0.76324,-1.6913 h 2.98448 c -0.26094,1.575 -0.92796,2.85594 -2.00107,3.84281 -1.0731,0.98688 -2.44792,1.48031 -4.12444,1.48031 -2.07445,0 -3.705313,-0.66579 -4.892579,-1.99739 -1.187264,-1.33812 -1.780897,-3.17243 -1.780897,-5.50293 m 6.419066,-7.60796 z"
           style="fill:#424690;stroke-width:20.04" />
      </g>
      <g
         clip-path="url(#clip_12)"
         id="g31"
         transform="matrix(0.56610602,0,0,0.56610602,-36.616153,-53.255644)">
        <path
           id="use31"
           d="M 110.42,151.33997 Z"
           style="fill:#424690;stroke-width:20.04" />
      </g>
      <g
         clip-path="url(#clip_13)"
         id="g32"
         transform="matrix(0.56610602,0,0,0.56610602,-36.616153,-53.255644)">
        <path
           id="use32"
           d="m 123.61156,144.49036 c -0.0522,-0.39793 -0.18591,-0.75672 -0.40119,-1.07637 -0.31312,-0.43054 -0.79912,-0.64582 -1.45799,-0.64582 -0.93937,0 -1.58193,0.46643 -1.92767,1.39928 -0.18267,0.49395 -0.27399,1.15047 -0.27399,1.96957 0,0.77996 0.0913,1.40723 0.27399,1.88181 0.33269,0.89636 0.95894,1.34454 1.87875,1.34454 0.65234,0 1.11551,-0.17797 1.38949,-0.5339 0.27398,-0.35594 0.44033,-0.81727 0.49904,-1.38399 h 2.84748 c -0.0652,0.85008 -0.37183,1.6543 -0.9198,2.41265 -0.87414,1.22274 -2.16904,1.83411 -3.88471,1.83411 -1.71566,0 -2.97795,-0.50842 -3.78685,-1.52527 -0.80891,-1.01684 -1.21336,-2.3363 -1.21336,-3.9584 0,-1.83043 0.44685,-3.25611 1.34056,-4.27703 0.89371,-1.02092 2.12664,-1.53137 3.69879,-1.53137 1.33731,0 2.43161,0.30079 3.28292,0.90237 0.85131,0.60159 1.35524,1.66419 1.51181,3.18782 h -2.85727 m -1.88853,-4.09019 z"
           style="fill:#424690;stroke-width:20.04" />
      </g>
      <g
         clip-path="url(#clip_14)"
         id="g35"
         transform="matrix(0.56610602,0,0,0.56610602,-36.616153,-53.255644)">
        <path
           id="use33"
           d="m 134.2823,146.15108 c -0.17613,0.11131 -0.35389,0.20142 -0.53329,0.27032 -0.17939,0.0687 -0.42565,0.1325 -0.73877,0.19142 l -0.62625,0.11774 c -0.58712,0.10477 -1.00788,0.23249 -1.26229,0.38314 -0.43055,0.25523 -0.64582,0.65122 -0.64582,1.18798 0,0.47805 0.1321,0.82348 0.3963,1.03631 0.2642,0.21262 0.58548,0.31893 0.96384,0.31893 0.60015,0 1.15301,-0.17674 1.65858,-0.53023 0.50557,-0.35349 0.76813,-0.99839 0.78771,-1.93471 v -1.0409 m -1.69284,-1.30142 c 0.51536,-0.0654 0.88393,-0.14719 1.10573,-0.24524 0.39793,-0.17022 0.59689,-0.43534 0.59689,-0.79535 0,-0.4385 -0.15166,-0.74113 -0.45501,-0.90788 -0.30334,-0.16695 -0.74856,-0.25044 -1.33567,-0.25044 -0.65887,0 -1.1253,0.16309 -1.39928,0.48926 -0.19571,0.24137 -0.32617,0.56754 -0.39141,0.97851 h -2.69092 c 0.0587,-0.93529 0.31965,-1.70384 0.78282,-2.30562 0.73715,-0.94183 2.00269,-1.41274 3.79664,-1.41274 1.16769,0 2.20492,0.23322 3.11168,0.69964 0.90676,0.46643 1.36013,1.3422 1.36013,2.62732 v 4.89258 c 0,0.33922 0.007,0.75019 0.0196,1.23293 0.0196,0.36857 0.075,0.6187 0.16636,0.7504 0.0913,0.13169 0.22832,0.24034 0.41097,0.32596 v 0.41098 h -3.0334 c -0.0848,-0.21405 -0.1435,-0.41505 -0.17613,-0.60301 -0.0326,-0.18816 -0.0587,-0.40221 -0.0783,-0.64215 -0.3849,0.42076 -0.82849,0.77904 -1.3308,1.07484 -0.60015,0.34839 -1.27859,0.52259 -2.03531,0.52259 -0.96547,0 -1.76296,-0.27654 -2.39247,-0.8296 -0.62951,-0.55307 -0.94427,-1.3368 -0.94427,-2.35119 0,-1.31549 0.50557,-2.26771 1.5167,-2.85666 0.5545,-0.32066 1.36993,-0.5497 2.44629,-0.6871 l 0.94916,-0.11803 m 0.14678,-4.4495 z"
           style="fill:#424690;stroke-width:20.04" />
        <path
           id="use34"
           d="m 145.37656,140.40016 c 0.0522,0 0.0962,0.002 0.1321,0.005 0.0359,0.003 0.11579,0.008 0.23974,0.0147 v 2.85726 c -0.17613,-0.0157 -0.3327,-0.0261 -0.46969,-0.0312 -0.13699,-0.005 -0.24789,-0.008 -0.3327,-0.008 -1.12203,0 -1.87548,0.36572 -2.26037,1.09716 -0.21527,0.41158 -0.32291,1.04517 -0.32291,1.90076 v 5.10418 h -2.80834 V 140.6742 h 2.66156 v 1.85215 c 0.43055,-0.71534 0.80565,-1.20419 1.12529,-1.46655 0.52188,-0.43972 1.20032,-0.65959 2.03532,-0.65959 z"
           style="fill:#424690;stroke-width:20.04" />
        <path
           id="use35"
           d="m 151.27286,140.40016 c 0.64582,0 1.21988,0.14251 1.72219,0.42749 0.5023,0.28479 0.91002,0.67936 1.22314,1.1837 v -5.07513 h 2.82791 v 14.40375 h -2.71049 v -1.46319 c -0.39793,0.63461 -0.85131,1.09584 -1.36013,1.38369 -0.50883,0.28784 -1.1416,0.43177 -1.89832,0.43177 -1.24598,0 -2.29462,-0.50567 -3.14593,-1.51701 -0.85131,-1.01134 -1.27696,-2.30909 -1.27696,-3.89327 0,-1.82636 0.41913,-3.26325 1.25739,-4.31067 0.83826,-1.04741 1.95866,-1.57113 3.3612,-1.57113 m 0.60668,8.94364 c 0.78934,0 1.38949,-0.29488 1.80047,-0.88464 0.41097,-0.58976 0.61646,-1.35321 0.61646,-2.29034 0,-1.3106 -0.32943,-2.24763 -0.9883,-2.81109 -0.40445,-0.34085 -0.87414,-0.51128 -1.40906,-0.51128 -0.81543,0 -1.41396,0.30966 -1.79558,0.92898 -0.38162,0.61912 -0.57243,1.38746 -0.57243,2.30502 0,0.98952 0.19407,1.78079 0.58222,2.37382 0.38814,0.59302 0.97688,0.88953 1.76622,0.88953 z"
           style="fill:#424690;stroke-width:20.04" />
      </g>
      <g
         clip-path="url(#clip_15)"
         id="g36"
         transform="matrix(0.56610602,0,0,0.56610602,-36.616153,-53.255644)">
        <path
           id="use36"
           d="m 161.77373,147.91517 c 0.0587,0.49883 0.18591,0.85324 0.38162,1.06321 0.34574,0.37408 0.98504,0.56112 1.91789,0.56112 0.54797,0 0.98341,-0.0819 1.30632,-0.24555 0.32291,-0.1639 0.48436,-0.40965 0.48436,-0.73724 0,-0.31435 -0.13046,-0.55348 -0.3914,-0.71738 -0.26094,-0.16371 -1.22967,-0.44349 -2.90619,-0.83938 -1.20684,-0.29865 -2.05815,-0.67294 -2.55393,-1.12285 -0.49578,-0.44339 -0.74367,-1.08238 -0.74367,-1.91697 0,-0.98443 0.38651,-1.83033 1.15954,-2.53772 0.77303,-0.70759 1.86081,-1.06138 3.26335,-1.06138 1.33078,0 2.4153,0.26654 3.25357,0.79963 0.83826,0.53308 1.31936,1.45381 1.44331,2.76216 h -2.78877 c -0.0391,-0.36123 -0.14026,-0.64694 -0.30334,-0.85712 -0.30661,-0.38101 -0.82848,-0.57151 -1.56563,-0.57151 -0.60668,0 -1.03886,0.095 -1.29653,0.28499 -0.25768,0.19 -0.38652,0.41271 -0.38652,0.66815 0,0.32087 0.137,0.55337 0.41098,0.69749 0.27399,0.15064 1.24272,0.40772 2.90619,0.7712 1.10899,0.25971 1.94072,0.65367 2.49522,1.18186 0.54797,0.53472 0.82195,1.20307 0.82195,2.00504 0,1.05619 -0.39304,1.9185 -1.17911,2.58695 -0.78608,0.66825 -2.00107,1.00237 -3.64497,1.00237 -1.67653,0 -2.91435,-0.35482 -3.71347,-1.06444 -0.79912,-0.70963 -1.19868,-1.61384 -1.19868,-2.71263 h 2.82791 m 2.13316,-7.55414 z"
           style="fill:#424690;stroke-width:20.04" />
      </g>
      <g
         clip-path="url(#clip_16)"
         id="g37"
         transform="matrix(0.56610602,0,0,0.56610602,-36.616153,-53.255644)">
        <path
           id="use37"
           d="M 169.46,151.33997 Z"
           style="fill:#424690;stroke-width:20.04" />
      </g>
      <g
         clip-path="url(#clip_17)"
         id="g44"
         transform="matrix(0.56610602,0,0,0.56610602,-36.616153,-53.255644)">
        <path
           id="use38"
           d="m 182.1623,146.15108 c -0.17613,0.11131 -0.35389,0.20142 -0.53329,0.27032 -0.17939,0.0687 -0.42565,0.1325 -0.73877,0.19142 l -0.62625,0.11774 c -0.58712,0.10477 -1.00788,0.23249 -1.26229,0.38314 -0.43055,0.25523 -0.64582,0.65122 -0.64582,1.18798 0,0.47805 0.1321,0.82348 0.3963,1.03631 0.2642,0.21262 0.58548,0.31893 0.96384,0.31893 0.60015,0 1.15301,-0.17674 1.65858,-0.53023 0.50557,-0.35349 0.76813,-0.99839 0.78771,-1.93471 v -1.0409 m -1.69284,-1.30142 c 0.51536,-0.0654 0.88393,-0.14719 1.10573,-0.24524 0.39793,-0.17022 0.59689,-0.43534 0.59689,-0.79535 0,-0.4385 -0.15166,-0.74113 -0.45501,-0.90788 -0.30334,-0.16695 -0.74856,-0.25044 -1.33567,-0.25044 -0.65887,0 -1.1253,0.16309 -1.39928,0.48926 -0.19571,0.24137 -0.32617,0.56754 -0.39141,0.97851 h -2.69092 c 0.0587,-0.93529 0.31965,-1.70384 0.78282,-2.30562 0.73715,-0.94183 2.00269,-1.41274 3.79664,-1.41274 1.16769,0 2.20492,0.23322 3.11168,0.69964 0.90676,0.46643 1.36013,1.3422 1.36013,2.62732 v 4.89258 c 0,0.33922 0.007,0.75019 0.0196,1.23293 0.0196,0.36857 0.075,0.6187 0.16636,0.7504 0.0913,0.13169 0.22832,0.24034 0.41097,0.32596 v 0.41098 h -3.0334 c -0.0848,-0.21405 -0.1435,-0.41505 -0.17613,-0.60301 -0.0326,-0.18816 -0.0587,-0.40221 -0.0783,-0.64215 -0.3849,0.42076 -0.82849,0.77904 -1.3308,1.07484 -0.60015,0.34839 -1.27859,0.52259 -2.03531,0.52259 -0.96547,0 -1.76296,-0.27654 -2.39247,-0.8296 -0.62951,-0.55307 -0.94427,-1.3368 -0.94427,-2.35119 0,-1.31549 0.50557,-2.26771 1.5167,-2.85666 0.5545,-0.32066 1.36993,-0.5497 2.44629,-0.6871 l 0.94916,-0.11803 m 0.14678,-4.4495 z"
           style="fill:#424690;stroke-width:20.04" />
        <path
           id="use39"
           d="m 193.25657,140.40016 c 0.0522,0 0.0962,0.002 0.1321,0.005 0.0359,0.003 0.11579,0.008 0.23974,0.0147 v 2.85726 c -0.17613,-0.0157 -0.3327,-0.0261 -0.46969,-0.0312 -0.13699,-0.005 -0.24789,-0.008 -0.3327,-0.008 -1.12203,0 -1.87548,0.36572 -2.26037,1.09716 -0.21527,0.41158 -0.32291,1.04517 -0.32291,1.90076 v 5.10418 H 187.4344 V 140.6742 h 2.66156 v 1.85215 c 0.43055,-0.71534 0.80565,-1.20419 1.12529,-1.46655 0.52188,-0.43972 1.20032,-0.65959 2.03532,-0.65959 z"
           style="fill:#424690;stroke-width:20.04" />
        <path
           id="use40"
           d="m 199.32664,142.72903 c -0.64582,0 -1.14649,0.19694 -1.50202,0.59078 -0.35553,0.39385 -0.57895,0.92755 -0.67028,1.6011 h 4.33482 c -0.0457,-0.71799 -0.26909,-1.2628 -0.67028,-1.63443 -0.40119,-0.37163 -0.89861,-0.55745 -1.49224,-0.55745 m 0,-2.32887 c 0.88719,0 1.68631,0.16616 2.39736,0.49844 0.71106,0.33208 1.29817,0.8564 1.76133,1.57296 0.4175,0.63176 0.68823,1.36452 0.81217,2.1983 0.0718,0.48844 0.10112,1.19185 0.0881,2.11023 h -7.29973 c 0.0391,1.06597 0.3751,1.81341 1.00787,2.24233 0.38489,0.26644 0.84805,0.39966 1.3895,0.39966 0.57406,0 1.04049,-0.16176 1.39927,-0.48528 0.19572,-0.17471 0.36858,-0.4174 0.51862,-0.72808 h 2.84748 c -0.0718,0.63277 -0.40119,1.27533 -0.9883,1.92768 -0.91329,1.03722 -2.19188,1.55584 -3.83579,1.55584 -1.35687,0 -2.55392,-0.43667 -3.59115,-1.30999 -1.03722,-0.87353 -1.55584,-2.29442 -1.55584,-4.26266 0,-1.8445 0.46806,-3.25887 1.40417,-4.24309 0.93612,-0.98422 2.15111,-1.47634 3.64497,-1.47634 m 0.19571,0 z"
           style="fill:#424690;stroke-width:20.04" />
        <path
           id="use41"
           d="M 204.97988,151.33997 Z"
           style="fill:#424690;stroke-width:20.04" />
        <path
           id="use42"
           d="m 214.02473,147.91517 c 0.0587,0.49883 0.18591,0.85324 0.38162,1.06321 0.34574,0.37408 0.98504,0.56112 1.91789,0.56112 0.54797,0 0.98341,-0.0819 1.30632,-0.24555 0.32291,-0.1639 0.48436,-0.40965 0.48436,-0.73724 0,-0.31435 -0.13046,-0.55348 -0.3914,-0.71738 -0.26094,-0.16371 -1.22967,-0.44349 -2.90619,-0.83938 -1.20684,-0.29865 -2.05815,-0.67294 -2.55393,-1.12285 -0.49578,-0.44339 -0.74367,-1.08238 -0.74367,-1.91697 0,-0.98443 0.38651,-1.83033 1.15954,-2.53772 0.77303,-0.70759 1.86081,-1.06138 3.26335,-1.06138 1.33078,0 2.4153,0.26654 3.25357,0.79963 0.83826,0.53308 1.31936,1.45381 1.44331,2.76216 h -2.78877 c -0.0391,-0.36123 -0.14026,-0.64694 -0.30334,-0.85712 -0.30661,-0.38101 -0.82848,-0.57151 -1.56563,-0.57151 -0.60668,0 -1.03886,0.095 -1.29653,0.28499 -0.25768,0.19 -0.38652,0.41271 -0.38652,0.66815 0,0.32087 0.137,0.55337 0.41098,0.69749 0.27399,0.15064 1.24272,0.40772 2.90619,0.7712 1.10899,0.25971 1.94072,0.65367 2.49522,1.18186 0.54797,0.53472 0.82195,1.20307 0.82195,2.00504 0,1.05619 -0.39304,1.9185 -1.17911,2.58695 -0.78608,0.66825 -2.00107,1.00237 -3.64497,1.00237 -1.67653,0 -2.91435,-0.35482 -3.71347,-1.06444 -0.79912,-0.70963 -1.19868,-1.61384 -1.19868,-2.71263 h 2.82791 m 2.13316,-7.55414 z"
           style="fill:#424690;stroke-width:20.04" />
        <path
           id="use43"
           d="m 227.77961,149.36337 c 0.81543,0 1.44168,-0.28989 1.87875,-0.86966 0.43707,-0.57977 0.6556,-1.40376 0.6556,-2.47197 0,-1.06821 -0.21853,-1.89058 -0.6556,-2.46709 -0.43707,-0.5765 -1.06332,-0.86476 -1.87875,-0.86476 -0.81543,0 -1.44331,0.28825 -1.88364,0.86476 -0.44034,0.57651 -0.6605,1.39888 -0.6605,2.46709 0,1.06821 0.22016,1.8922 0.6605,2.47197 0.44033,0.57977 1.06821,0.86966 1.88364,0.86966 m 5.46011,-3.35142 c 0,1.5642 -0.45011,2.90201 -1.35035,4.01345 -0.90023,1.11122 -2.26689,1.66684 -4.09998,1.66684 -1.83308,0 -3.19974,-0.55562 -4.09998,-1.66684 -0.90023,-1.11144 -1.35035,-2.44925 -1.35035,-4.01345 0,-1.53831 0.45012,-2.87123 1.35035,-3.99876 0.90024,-1.12754 2.2669,-1.69131 4.09998,-1.69131 1.83309,0 3.19975,0.56377 4.09998,1.69131 0.90024,1.12753 1.35035,2.46045 1.35035,3.99876 m -5.45033,-5.69007 z"
           style="fill:#424690;stroke-width:20.04" />
        <path
           id="use44"
           d="m 238.0866,151.33997 h -2.78877 v -14.40375 h 2.78877 z"
           style="fill:#424690;stroke-width:20.04" />
      </g>
      <g
         clip-path="url(#clip_18)"
         id="g72"
         transform="matrix(0.56610602,0,0,0.56610602,-36.616153,-53.255644)">
        <path
           id="use45"
           d="m 244.68506,140.40016 c 0.64582,0 1.21988,0.14251 1.72219,0.42749 0.5023,0.28479 0.91002,0.67936 1.22314,1.1837 v -5.07513 h 2.82791 v 14.40375 h -2.71049 v -1.46319 c -0.39793,0.63461 -0.85131,1.09584 -1.36013,1.38369 -0.50883,0.28784 -1.1416,0.43177 -1.89832,0.43177 -1.24598,0 -2.29462,-0.50567 -3.14593,-1.51701 -0.85131,-1.01134 -1.27696,-2.30909 -1.27696,-3.89327 0,-1.82636 0.41913,-3.26325 1.25739,-4.31067 0.83826,-1.04741 1.95866,-1.57113 3.3612,-1.57113 m 0.60668,8.94364 c 0.78934,0 1.38949,-0.29488 1.80047,-0.88464 0.41097,-0.58976 0.61646,-1.35321 0.61646,-2.29034 0,-1.3106 -0.32943,-2.24763 -0.9883,-2.81109 -0.40445,-0.34085 -0.87414,-0.51128 -1.40906,-0.51128 -0.81543,0 -1.41396,0.30966 -1.79558,0.92898 -0.38162,0.61912 -0.57243,1.38746 -0.57243,2.30502 0,0.98952 0.19407,1.78079 0.58222,2.37382 0.38814,0.59302 0.97688,0.88953 1.76622,0.88953 z"
           style="fill:#424690;stroke-width:20.04" />
        <path
           id="use46"
           d="M 251.69445,151.33997 Z"
           style="fill:#424690;stroke-width:20.04" />
        <path
           id="use47"
           d="m 264.44787,146.15108 c -0.17613,0.11131 -0.35389,0.20142 -0.53329,0.27032 -0.17939,0.0687 -0.42565,0.1325 -0.73877,0.19142 l -0.62625,0.11774 c -0.58712,0.10477 -1.00788,0.23249 -1.26229,0.38314 -0.43055,0.25523 -0.64582,0.65122 -0.64582,1.18798 0,0.47805 0.1321,0.82348 0.3963,1.03631 0.2642,0.21262 0.58548,0.31893 0.96384,0.31893 0.60015,0 1.15301,-0.17674 1.65858,-0.53023 0.50557,-0.35349 0.76813,-0.99839 0.78771,-1.93471 v -1.0409 m -1.69284,-1.30142 c 0.51536,-0.0654 0.88393,-0.14719 1.10573,-0.24524 0.39793,-0.17022 0.59689,-0.43534 0.59689,-0.79535 0,-0.4385 -0.15166,-0.74113 -0.45501,-0.90788 -0.30334,-0.16695 -0.74856,-0.25044 -1.33567,-0.25044 -0.65887,0 -1.1253,0.16309 -1.39928,0.48926 -0.19571,0.24137 -0.32617,0.56754 -0.39141,0.97851 h -2.69092 c 0.0587,-0.93529 0.31965,-1.70384 0.78282,-2.30562 0.73715,-0.94183 2.00269,-1.41274 3.79664,-1.41274 1.16769,0 2.20492,0.23322 3.11168,0.69964 0.90676,0.46643 1.36013,1.3422 1.36013,2.62732 v 4.89258 c 0,0.33922 0.007,0.75019 0.0196,1.23293 0.0196,0.36857 0.075,0.6187 0.16636,0.7504 0.0913,0.13169 0.22832,0.24034 0.41097,0.32596 v 0.41098 h -3.0334 c -0.0848,-0.21405 -0.1435,-0.41505 -0.17613,-0.60301 -0.0326,-0.18816 -0.0587,-0.40221 -0.0783,-0.64215 -0.3849,0.42076 -0.82849,0.77904 -1.3308,1.07484 -0.60015,0.34839 -1.27859,0.52259 -2.03531,0.52259 -0.96547,0 -1.76296,-0.27654 -2.39247,-0.8296 -0.62951,-0.55307 -0.94427,-1.3368 -0.94427,-2.35119 0,-1.31549 0.50557,-2.26771 1.5167,-2.85666 0.5545,-0.32066 1.36993,-0.5497 2.44629,-0.6871 l 0.94916,-0.11803 m 0.14678,-4.4495 z"
           style="fill:#424690;stroke-width:20.04" />
        <path
           id="use48"
           d="m 268.57319,142.7486 v -1.9766 h 1.48734 v -2.99426 h 2.75942 v 2.99426 h 1.73197 v 1.9766 h -1.73197 v 5.65307 c 0,0.43829 0.0555,0.71146 0.16635,0.81951 0.1109,0.10783 0.45011,0.16176 1.01766,0.16176 0.0848,0 0.1745,-0.003 0.26909,-0.01 0.0946,-0.007 0.18755,-0.0163 0.27887,-0.0294 v 2.09402 l -1.321,0.0587 c -1.31773,0.0457 -2.21797,-0.18316 -2.7007,-0.68649 -0.31313,-0.32046 -0.46969,-0.8141 -0.46969,-1.48092 v -6.58052 z"
           style="fill:#424690;stroke-width:20.04" />
        <path
           id="use49"
           d="M 275.06108,151.33997 Z"
           style="fill:#424690;stroke-width:20.04" />
        <path
           id="use50"
           d="m 280.83767,142.7486 v -1.9766 h 1.48734 v -2.99426 h 2.75942 v 2.99426 h 1.73197 v 1.9766 h -1.73197 v 5.65307 c 0,0.43829 0.0555,0.71146 0.16635,0.81951 0.1109,0.10783 0.45011,0.16176 1.01766,0.16176 0.0848,0 0.1745,-0.003 0.26909,-0.01 0.0946,-0.007 0.18755,-0.0163 0.27887,-0.0294 v 2.09402 l -1.321,0.0587 c -1.31773,0.0457 -2.21797,-0.18316 -2.7007,-0.68649 -0.31313,-0.32046 -0.46969,-0.8141 -0.46969,-1.48092 v -6.58052 z"
           style="fill:#424690;stroke-width:20.04" />
        <path
           id="use51"
           d="m 294.46777,140.40016 c 0.65887,0 1.2574,0.11417 1.79558,0.34249 0.53818,0.22832 0.98015,0.57732 1.32589,1.04701 0.29355,0.39793 0.47295,0.80727 0.53818,1.22803 0.0652,0.42077 0.0979,1.10736 0.0979,2.05978 v 6.2625 h -2.84749 v -6.48022 c 0,-0.57345 -0.0978,-1.03611 -0.29355,-1.38796 -0.25441,-0.49517 -0.73715,-0.74276 -1.4482,-0.74276 -0.73715,0 -1.29654,0.24606 -1.67816,0.73817 -0.38162,0.49191 -0.57243,1.19389 -0.57243,2.10595 v 5.76682 h -2.77898 v -14.38418 h 2.77898 v 5.11488 c 0.40445,-0.62237 0.87251,-1.05638 1.40417,-1.30203 0.53166,-0.24565 1.09105,-0.36848 1.67815,-0.36848 z"
           style="fill:#424690;stroke-width:20.04" />
        <path
           id="use52"
           d="m 304.93874,142.72903 c -0.64582,0 -1.14649,0.19694 -1.50202,0.59078 -0.35553,0.39385 -0.57895,0.92755 -0.67028,1.6011 h 4.33482 c -0.0457,-0.71799 -0.26909,-1.2628 -0.67028,-1.63443 -0.40119,-0.37163 -0.89861,-0.55745 -1.49224,-0.55745 m 0,-2.32887 c 0.88719,0 1.68631,0.16616 2.39736,0.49844 0.71106,0.33208 1.29817,0.8564 1.76133,1.57296 0.4175,0.63176 0.68823,1.36452 0.81217,2.1983 0.0718,0.48844 0.10112,1.19185 0.0881,2.11023 h -7.29973 c 0.0391,1.06597 0.3751,1.81341 1.00787,2.24233 0.38489,0.26644 0.84805,0.39966 1.3895,0.39966 0.57406,0 1.04049,-0.16176 1.39927,-0.48528 0.19572,-0.17471 0.36858,-0.4174 0.51862,-0.72808 h 2.84748 c -0.0718,0.63277 -0.40119,1.27533 -0.9883,1.92768 -0.91329,1.03722 -2.19188,1.55584 -3.83579,1.55584 -1.35687,0 -2.55392,-0.43667 -3.59115,-1.30999 -1.03722,-0.87353 -1.55584,-2.29442 -1.55584,-4.26266 0,-1.8445 0.46806,-3.25887 1.40417,-4.24309 0.93612,-0.98422 2.15111,-1.47634 3.64497,-1.47634 m 0.19571,0 z"
           style="fill:#424690;stroke-width:20.04" />
        <path
           id="use53"
           d="M 310.59196,151.33997 Z"
           style="fill:#424690;stroke-width:20.04" />
        <path
           id="use54"
           d="m 320.33155,139.40208 h -2.82791 v -2.58328 h 2.82791 v 2.58328 m -2.82791,1.27207 h 2.82791 v 10.66582 h -2.82791 z"
           style="fill:#424690;stroke-width:20.04" />
        <path
           id="use55"
           d="m 328.84564,140.40016 c 1.10246,0 2.00433,0.28989 2.7056,0.86966 0.70126,0.57957 1.0519,1.53892 1.0519,2.87806 v 7.19209 h -2.85727 v -6.4949 c 0,-0.56162 -0.075,-0.99268 -0.22505,-1.29317 -0.27399,-0.54858 -0.79586,-0.82287 -1.56563,-0.82287 -0.9459,0 -1.59498,0.4016 -1.94725,1.2048 -0.18266,0.42464 -0.27398,0.96679 -0.27398,1.62648 v 5.77966 h -2.77898 v -10.66582 h 2.69091 v 1.56318 c 0.35879,-0.55021 0.69801,-0.94651 1.01766,-1.1889 0.57406,-0.43218 1.30143,-0.64827 2.18209,-0.64827 m -1.02744,0 z"
           style="fill:#424690;stroke-width:20.04" />
        <path
           id="use56"
           d="m 339.09344,136.77966 c 0.17613,0 0.33596,0.003 0.47947,0.01 0.14351,0.007 0.33922,0.0163 0.58711,0.0294 v 2.27015 c -0.15657,0 -0.41913,-0.005 -0.7877,-0.0147 -0.36858,-0.01 -0.62299,0.0708 -0.76324,0.24187 -0.14026,0.17104 -0.21039,0.35971 -0.21039,0.56601 0,0.20631 0,0.50292 0,0.88984 h 1.82983 v 1.9766 h -1.82983 v 8.59137 h -2.77898 v -8.59137 h -1.55584 v -1.9766 h 1.52648 v -0.6871 c 0,-1.14527 0.19244,-1.93389 0.57733,-2.36587 0.40445,-0.62625 1.3797,-0.93937 2.92576,-0.93937 z"
           style="fill:#424690;stroke-width:20.04" />
        <path
           id="use57"
           d="m 346.65816,149.36337 c 0.81543,0 1.44168,-0.28989 1.87875,-0.86966 0.43707,-0.57977 0.6556,-1.40376 0.6556,-2.47197 0,-1.06821 -0.21853,-1.89058 -0.6556,-2.46709 -0.43707,-0.5765 -1.06332,-0.86476 -1.87875,-0.86476 -0.81543,0 -1.44331,0.28825 -1.88364,0.86476 -0.44034,0.57651 -0.6605,1.39888 -0.6605,2.46709 0,1.06821 0.22016,1.8922 0.6605,2.47197 0.44033,0.57977 1.06821,0.86966 1.88364,0.86966 m 5.46011,-3.35142 c 0,1.5642 -0.45011,2.90201 -1.35035,4.01345 -0.90023,1.11122 -2.26689,1.66684 -4.09998,1.66684 -1.83308,0 -3.19974,-0.55562 -4.09998,-1.66684 -0.90023,-1.11144 -1.35035,-2.44925 -1.35035,-4.01345 0,-1.53831 0.45012,-2.87123 1.35035,-3.99876 0.90024,-1.12754 2.2669,-1.69131 4.09998,-1.69131 1.83309,0 3.19975,0.56377 4.09998,1.69131 0.90024,1.12753 1.35035,2.46045 1.35035,3.99876 m -5.45033,-5.69007 z"
           style="fill:#424690;stroke-width:20.04" />
        <path
           id="use58"
           d="m 359.91047,140.40016 c 0.0522,0 0.0962,0.002 0.1321,0.005 0.0359,0.003 0.11579,0.008 0.23974,0.0147 v 2.85726 c -0.17613,-0.0157 -0.3327,-0.0261 -0.46969,-0.0312 -0.13699,-0.005 -0.24789,-0.008 -0.3327,-0.008 -1.12203,0 -1.87548,0.36572 -2.26037,1.09716 -0.21527,0.41158 -0.32291,1.04517 -0.32291,1.90076 v 5.10418 H 354.0883 V 140.6742 h 2.66156 v 1.85215 c 0.43055,-0.71534 0.80565,-1.20419 1.12529,-1.46655 0.52188,-0.43972 1.20032,-0.65959 2.03532,-0.65959 z"
           style="fill:#424690;stroke-width:20.04" />
        <path
           id="use59"
           d="m 373.79148,140.43931 c 0.46968,0 0.93285,0.0906 1.38949,0.27184 0.45664,0.18102 0.87088,0.49792 1.24271,0.95069 0.30008,0.37224 0.50231,0.82939 0.60668,1.37145 0.0652,0.3592 0.0979,0.88484 0.0979,1.57694 l -0.0196,6.72974 h -2.85726 v -6.7909 c 0,-0.40445 -0.0652,-0.73715 -0.19571,-0.99808 -0.24789,-0.49579 -0.70453,-0.74368 -1.36992,-0.74368 -0.76977,0 -1.30143,0.31965 -1.59498,0.95895 -0.15004,0.33922 -0.22506,0.74693 -0.22506,1.22314 v 6.35057 h -2.80834 v -6.34323 c 0,-0.63216 -0.0652,-1.09155 -0.19571,-1.37818 -0.23484,-0.51474 -0.69474,-0.77211 -1.3797,-0.77211 -0.79586,0 -1.33079,0.25737 -1.60477,0.77211 -0.15004,0.29315 -0.22506,0.72971 -0.22506,1.30969 v 6.41172 h -2.8279 v -10.66582 h 2.71049 v 1.57021 c 0.34574,-0.55286 0.67191,-0.94641 0.97851,-1.18064 0.54145,-0.41628 1.24272,-0.62441 2.10381,-0.62441 0.81543,0 1.4743,0.17887 1.9766,0.53665 0.40446,0.33168 0.71106,0.75774 0.91981,1.27819 0.36531,-0.62442 0.81869,-1.083 1.36014,-1.37574 0.57406,-0.29273 1.21335,-0.4391 1.91789,-0.4391 z"
           style="fill:#424690;stroke-width:20.04" />
        <path
           id="use60"
           d="m 385.58963,146.15108 c -0.17613,0.11131 -0.35389,0.20142 -0.53329,0.27032 -0.17939,0.0687 -0.42565,0.1325 -0.73877,0.19142 l -0.62625,0.11774 c -0.58712,0.10477 -1.00788,0.23249 -1.26229,0.38314 -0.43055,0.25523 -0.64582,0.65122 -0.64582,1.18798 0,0.47805 0.1321,0.82348 0.3963,1.03631 0.2642,0.21262 0.58548,0.31893 0.96384,0.31893 0.60015,0 1.15301,-0.17674 1.65858,-0.53023 0.50557,-0.35349 0.76813,-0.99839 0.78771,-1.93471 v -1.0409 m -1.69284,-1.30142 c 0.51536,-0.0654 0.88393,-0.14719 1.10573,-0.24524 0.39793,-0.17022 0.59689,-0.43534 0.59689,-0.79535 0,-0.4385 -0.15166,-0.74113 -0.45501,-0.90788 -0.30334,-0.16695 -0.74856,-0.25044 -1.33567,-0.25044 -0.65887,0 -1.1253,0.16309 -1.39928,0.48926 -0.19571,0.24137 -0.32617,0.56754 -0.39141,0.97851 h -2.69092 c 0.0587,-0.93529 0.31965,-1.70384 0.78282,-2.30562 0.73715,-0.94183 2.00269,-1.41274 3.79664,-1.41274 1.16769,0 2.20492,0.23322 3.11168,0.69964 0.90676,0.46643 1.36013,1.3422 1.36013,2.62732 v 4.89258 c 0,0.33922 0.007,0.75019 0.0196,1.23293 0.0196,0.36857 0.075,0.6187 0.16636,0.7504 0.0913,0.13169 0.22832,0.24034 0.41097,0.32596 v 0.41098 h -3.0334 c -0.0848,-0.21405 -0.1435,-0.41505 -0.17613,-0.60301 -0.0326,-0.18816 -0.0587,-0.40221 -0.0783,-0.64215 -0.3849,0.42076 -0.82849,0.77904 -1.3308,1.07484 -0.60015,0.34839 -1.27859,0.52259 -2.03531,0.52259 -0.96547,0 -1.76296,-0.27654 -2.39247,-0.8296 -0.62951,-0.55307 -0.94427,-1.3368 -0.94427,-2.35119 0,-1.31549 0.50557,-2.26771 1.5167,-2.85666 0.5545,-0.32066 1.36993,-0.5497 2.44629,-0.6871 l 0.94916,-0.11803 m 0.14678,-4.4495 z"
           style="fill:#424690;stroke-width:20.04" />
        <path
           id="use61"
           d="m 389.61477,142.7486 v -1.9766 h 1.48734 v -2.99426 h 2.75942 v 2.99426 h 1.73197 v 1.9766 h -1.73197 v 5.65307 c 0,0.43829 0.0555,0.71146 0.16635,0.81951 0.1109,0.10783 0.45011,0.16176 1.01766,0.16176 0.0848,0 0.1745,-0.003 0.26909,-0.01 0.0946,-0.007 0.18755,-0.0163 0.27887,-0.0294 v 2.09402 l -1.321,0.0587 c -1.31773,0.0457 -2.21797,-0.18316 -2.7007,-0.68649 -0.31313,-0.32046 -0.46969,-0.8141 -0.46969,-1.48092 v -6.58052 z"
           style="fill:#424690;stroke-width:20.04" />
        <path
           id="use62"
           d="m 400.27112,139.40208 h -2.82791 v -2.58328 h 2.82791 v 2.58328 m -2.82791,1.27207 h 2.82791 v 10.66582 h -2.82791 z"
           style="fill:#424690;stroke-width:20.04" />
        <path
           id="use63"
           d="m 407.7401,149.36337 c 0.81543,0 1.44168,-0.28989 1.87875,-0.86966 0.43707,-0.57977 0.6556,-1.40376 0.6556,-2.47197 0,-1.06821 -0.21853,-1.89058 -0.6556,-2.46709 -0.43707,-0.5765 -1.06332,-0.86476 -1.87875,-0.86476 -0.81543,0 -1.44331,0.28825 -1.88364,0.86476 -0.44034,0.57651 -0.6605,1.39888 -0.6605,2.46709 0,1.06821 0.22016,1.8922 0.6605,2.47197 0.44033,0.57977 1.06821,0.86966 1.88364,0.86966 m 5.46011,-3.35142 c 0,1.5642 -0.45011,2.90201 -1.35035,4.01345 -0.90023,1.11122 -2.26689,1.66684 -4.09998,1.66684 -1.83308,0 -3.19974,-0.55562 -4.09998,-1.66684 -0.90023,-1.11144 -1.35035,-2.44925 -1.35035,-4.01345 0,-1.53831 0.45012,-2.87123 1.35035,-3.99876 0.90024,-1.12754 2.2669,-1.69131 4.09998,-1.69131 1.83309,0 3.19975,0.56377 4.09998,1.69131 0.90024,1.12753 1.35035,2.46045 1.35035,3.99876 m -5.45033,-5.69007 z"
           style="fill:#424690;stroke-width:20.04" />
        <path
           id="use64"
           d="m 421.10983,140.40016 c 1.10246,0 2.00433,0.28989 2.7056,0.86966 0.70126,0.57957 1.0519,1.53892 1.0519,2.87806 v 7.19209 h -2.85727 v -6.4949 c 0,-0.56162 -0.075,-0.99268 -0.22505,-1.29317 -0.27399,-0.54858 -0.79586,-0.82287 -1.56563,-0.82287 -0.9459,0 -1.59498,0.4016 -1.94725,1.2048 -0.18266,0.42464 -0.27398,0.96679 -0.27398,1.62648 v 5.77966 h -2.77898 v -10.66582 h 2.69091 v 1.56318 c 0.35879,-0.55021 0.69801,-0.94651 1.01766,-1.1889 0.57406,-0.43218 1.30143,-0.64827 2.18209,-0.64827 m -1.02744,0 z"
           style="fill:#424690;stroke-width:20.04" />
        <path
           id="use65"
           d="M 426.12257,151.33997 Z"
           style="fill:#424690;stroke-width:20.04" />
        <path
           id="use66"
           d="m 439.28506,144.49036 c -0.0522,-0.39793 -0.18591,-0.75672 -0.40119,-1.07637 -0.31312,-0.43054 -0.79912,-0.64582 -1.45799,-0.64582 -0.93937,0 -1.58193,0.46643 -1.92767,1.39928 -0.18267,0.49395 -0.27399,1.15047 -0.27399,1.96957 0,0.77996 0.0913,1.40723 0.27399,1.88181 0.33269,0.89636 0.95894,1.34454 1.87875,1.34454 0.65234,0 1.11551,-0.17797 1.38949,-0.5339 0.27398,-0.35594 0.44033,-0.81727 0.49904,-1.38399 h 2.84748 c -0.0652,0.85008 -0.37183,1.6543 -0.9198,2.41265 -0.87414,1.22274 -2.16904,1.83411 -3.88471,1.83411 -1.71566,0 -2.97795,-0.50842 -3.78685,-1.52527 -0.80891,-1.01684 -1.21336,-2.3363 -1.21336,-3.9584 0,-1.83043 0.44685,-3.25611 1.34056,-4.27703 0.89371,-1.02092 2.12664,-1.53137 3.69879,-1.53137 1.33731,0 2.43161,0.30079 3.28292,0.90237 0.85131,0.60159 1.35524,1.66419 1.51181,3.18782 h -2.85727 m -1.88853,-4.09019 z"
           style="fill:#424690;stroke-width:20.04" />
        <path
           id="use67"
           d="m 448.74193,149.36337 c 0.81543,0 1.44168,-0.28989 1.87875,-0.86966 0.43707,-0.57977 0.6556,-1.40376 0.6556,-2.47197 0,-1.06821 -0.21853,-1.89058 -0.6556,-2.46709 -0.43707,-0.5765 -1.06332,-0.86476 -1.87875,-0.86476 -0.81543,0 -1.44331,0.28825 -1.88364,0.86476 -0.44034,0.57651 -0.6605,1.39888 -0.6605,2.46709 0,1.06821 0.22016,1.8922 0.6605,2.47197 0.44033,0.57977 1.06821,0.86966 1.88364,0.86966 m 5.46011,-3.35142 c 0,1.5642 -0.45011,2.90201 -1.35035,4.01345 -0.90023,1.11122 -2.26689,1.66684 -4.09998,1.66684 -1.83308,0 -3.19974,-0.55562 -4.09998,-1.66684 -0.90023,-1.11144 -1.35035,-2.44925 -1.35035,-4.01345 0,-1.53831 0.45012,-2.87123 1.35035,-3.99876 0.90024,-1.12754 2.2669,-1.69131 4.09998,-1.69131 1.83309,0 3.19975,0.56377 4.09998,1.69131 0.90024,1.12753 1.35035,2.46045 1.35035,3.99876 m -5.45033,-5.69007 z"
           style="fill:#424690;stroke-width:20.04" />
        <path
           id="use68"
           d="m 458.98041,140.67415 v 6.42885 c 0,0.60668 0.0718,1.06332 0.21527,1.36992 0.25442,0.54144 0.75346,0.81217 1.49713,0.81217 0.95242,0 1.60477,-0.38489 1.95703,-1.15465 0.18267,-0.4175 0.27399,-0.96873 0.27399,-1.65369 v -5.8026 h 2.82791 v 10.66582 h -2.71049 v -1.50691 c -0.0261,0.0326 -0.0913,0.13046 -0.1957,0.29355 -0.10438,0.16309 -0.22832,0.3066 -0.37184,0.43055 -0.43707,0.3914 -0.85946,0.65886 -1.26718,0.80238 -0.40771,0.14352 -0.88555,0.21527 -1.43352,0.21527 -1.57867,0 -2.64199,-0.56754 -3.18996,-1.70261 -0.3066,-0.62625 -0.45991,-1.54932 -0.45991,-2.7692 v -6.42885 h 2.85727 m 1.95703,-0.27399 z"
           style="fill:#424690;stroke-width:20.04" />
        <path
           id="use69"
           d="m 474.33606,140.40016 c 1.10246,0 2.00433,0.28989 2.7056,0.86966 0.70126,0.57957 1.0519,1.53892 1.0519,2.87806 v 7.19209 h -2.85727 v -6.4949 c 0,-0.56162 -0.075,-0.99268 -0.22505,-1.29317 -0.27399,-0.54858 -0.79586,-0.82287 -1.56563,-0.82287 -0.9459,0 -1.59498,0.4016 -1.94725,1.2048 -0.18266,0.42464 -0.27398,0.96679 -0.27398,1.62648 v 5.77966 h -2.77898 v -10.66582 h 2.69091 v 1.56318 c 0.35879,-0.55021 0.69801,-0.94651 1.01766,-1.1889 0.57406,-0.43218 1.30143,-0.64827 2.18209,-0.64827 m -1.02744,0 z"
           style="fill:#424690;stroke-width:20.04" />
        <path
           id="use70"
           d="m 479.55429,142.7486 v -1.9766 h 1.48734 v -2.99426 h 2.75942 v 2.99426 h 1.73197 v 1.9766 h -1.73197 v 5.65307 c 0,0.43829 0.0555,0.71146 0.16635,0.81951 0.1109,0.10783 0.45011,0.16176 1.01766,0.16176 0.0848,0 0.1745,-0.003 0.26909,-0.01 0.0946,-0.007 0.18755,-0.0163 0.27887,-0.0294 v 2.09402 l -1.321,0.0587 c -1.31773,0.0457 -2.21797,-0.18316 -2.7007,-0.68649 -0.31313,-0.32046 -0.46969,-0.8141 -0.46969,-1.48092 v -6.58052 z"
           style="fill:#424690;stroke-width:20.04" />
        <path
           id="use71"
           d="m 491.5913,142.72903 c -0.64582,0 -1.14649,0.19694 -1.50202,0.59078 -0.35553,0.39385 -0.57895,0.92755 -0.67028,1.6011 h 4.33482 c -0.0457,-0.71799 -0.26909,-1.2628 -0.67028,-1.63443 -0.40119,-0.37163 -0.89861,-0.55745 -1.49224,-0.55745 m 0,-2.32887 c 0.88719,0 1.68631,0.16616 2.39736,0.49844 0.71106,0.33208 1.29817,0.8564 1.76133,1.57296 0.4175,0.63176 0.68823,1.36452 0.81217,2.1983 0.0718,0.48844 0.10112,1.19185 0.0881,2.11023 h -7.29973 c 0.0391,1.06597 0.3751,1.81341 1.00787,2.24233 0.38489,0.26644 0.84805,0.39966 1.3895,0.39966 0.57406,0 1.04049,-0.16176 1.39927,-0.48528 0.19572,-0.17471 0.36858,-0.4174 0.51862,-0.72808 h 2.84748 c -0.0718,0.63277 -0.40119,1.27533 -0.9883,1.92768 -0.91329,1.03722 -2.19188,1.55584 -3.83579,1.55584 -1.35687,0 -2.55392,-0.43667 -3.59115,-1.30999 -1.03722,-0.87353 -1.55584,-2.29442 -1.55584,-4.26266 0,-1.8445 0.46806,-3.25887 1.40417,-4.24309 0.93612,-0.98422 2.15111,-1.47634 3.64497,-1.47634 m 0.19571,0 z"
           style="fill:#424690;stroke-width:20.04" />
        <path
           id="use72"
           d="m 504.33874,140.40016 c 0.0522,0 0.0962,0.002 0.1321,0.005 0.0359,0.003 0.11579,0.008 0.23974,0.0147 v 2.85726 c -0.17613,-0.0157 -0.3327,-0.0261 -0.46969,-0.0312 -0.13699,-0.005 -0.24789,-0.008 -0.3327,-0.008 -1.12203,0 -1.87548,0.36572 -2.26037,1.09716 -0.21527,0.41158 -0.32291,1.04517 -0.32291,1.90076 v 5.10418 h -2.80834 V 140.6742 h 2.66156 v 1.85215 c 0.43055,-0.71534 0.80565,-1.20419 1.12529,-1.46655 0.52188,-0.43972 1.20032,-0.65959 2.03532,-0.65959 z"
           style="fill:#424690;stroke-width:20.04" />
      </g>
      <g
         clip-path="url(#clip_19)"
         id="g73"
         transform="matrix(0.56610602,0,0,0.56610602,-36.616153,-53.255644)">
        <path
           id="use73"
           d="M 505.06,151.33997 Z"
           style="fill:#424690;stroke-width:20.04" />
      </g>
    </g>
  </g>
</svg>
