<?xml version="1.0" encoding="UTF-8" standalone="no"?>
<!-- Created with Inkscape (http://www.inkscape.org/) -->

<svg
   width="500"
   height="250"
   viewBox="0 0 132.29166 66.145833"
   version="1.1"
   id="svg1"
   inkscape:version="1.4.2 (f4327f4, 2025-05-13)"
   sodipodi:docname="insert.svg"
   xmlns:inkscape="http://www.inkscape.org/namespaces/inkscape"
   xmlns:sodipodi="http://sodipodi.sourceforge.net/DTD/sodipodi-0.dtd"
   xmlns="http://www.w3.org/2000/svg"
   xmlns:svg="http://www.w3.org/2000/svg">
  <sodipodi:namedview
     id="namedview1"
     pagecolor="#ffffff"
     bordercolor="#999999"
     borderopacity="1"
     inkscape:showpageshadow="false"
     inkscape:pageopacity="0"
     inkscape:pagecheckerboard="true"
     inkscape:deskcolor="#d1d1d1"
     inkscape:document-units="mm"
     inkscape:zoom="1.0167041"
     inkscape:cx="274.41612"
     inkscape:cy="198.18942"
     inkscape:window-width="1920"
     inkscape:window-height="1009"
     inkscape:window-x="1912"
     inkscape:window-y="-8"
     inkscape:window-maximized="1"
     inkscape:current-layer="g3" />
  <defs
     id="defs1">
    <rect
       x="292.10549"
       y="29.210549"
       width="41.033866"
       height="48.684248"
       id="rect3" />
    <rect
       x="292.1055"
       y="29.210548"
       width="41.033867"
       height="48.68425"
       id="rect3-1" />
    <rect
       x="292.1055"
       y="29.210548"
       width="78.062501"
       height="69.512857"
       id="rect3-1-1" />
    <rect
       x="292.1055"
       y="29.210548"
       width="78.0625"
       height="69.512856"
       id="rect3-1-1-4" />
    <rect
       x="292.1055"
       y="29.210548"
       width="78.0625"
       height="69.512856"
       id="rect3-1-1-1" />
  </defs>
  <g
     inkscape:label="Layer 1"
     inkscape:groupmode="layer"
     id="layer1">
    <rect
       style="fill:#ffffff;stroke:none;stroke-width:4;stroke-linecap:butt;stroke-linejoin:miter;stroke-dasharray:none;paint-order:fill markers stroke"
       id="rect4"
       width="117.40148"
       height="56.308548"
       x="7.3605947"
       y="1.6561338" />
    <g
       id="g3"
       transform="matrix(0.83729784,0.32143933,-0.32143933,0.83729784,19.571734,-16.320131)">
      <g
         id="g2"
         transform="translate(-0.01363911,-1.7529423)">
        <path
           id="rect1"
           style="fill:#0000ff;stroke:#0000ff;stroke-width:4;paint-order:fill markers stroke"
           d="m 32.860222,16.05154 h 66.571224 c 1.082094,0 1.953234,0.871143 1.953234,1.953234 v 30.136284 c 0,1.082092 -0.87114,1.953234 -1.953234,1.953234 H 32.860222 c -1.082092,0 -1.953234,-0.871142 -1.953234,-1.953234 V 18.004774 c 0,-1.082091 0.871142,-1.953234 1.953234,-1.953234 z" />
        <path
           id="rect2"
           style="fill:#ffffff;stroke-width:4;paint-order:fill markers stroke"
           d="M 34.863308,17.15563 H 97.42836 V 48.990202 H 34.863308 Z" />
      </g>
      <path
         id="path2"
         style="fill:#0000ff;stroke-width:4.71795;paint-order:fill markers stroke"
         d="m 91.073718,11.496128 a 8.4646835,8.4646835 0 0 1 -8.464684,8.464684 8.4646835,8.4646835 0 0 1 -8.464683,-8.464684 8.4646835,8.4646835 0 0 1 8.464683,-8.4646837 8.4646835,8.4646835 0 0 1 8.464684,8.4646837 z" />
      <path
         id="path2-8"
         style="fill:#0000ff;stroke-width:4.71795;paint-order:fill markers stroke"
         d="m 73.12575,31.613422 a 8.4646835,8.4646835 0 0 1 -8.464683,8.464683 8.4646835,8.4646835 0 0 1 -8.464684,-8.464683 8.4646835,8.4646835 0 0 1 8.464684,-8.464684 8.4646835,8.4646835 0 0 1 8.464683,8.464684 z" />
      <path
         id="path2-8-1"
         style="fill:#0000ff;stroke-width:4.71795;paint-order:fill markers stroke"
         d="m 43.597842,44.797824 a 8.4646835,8.4646835 0 0 1 -8.464684,8.464684 8.4646835,8.4646835 0 0 1 -8.464683,-8.464684 8.4646835,8.4646835 0 0 1 8.464683,-8.464684 8.4646835,8.4646835 0 0 1 8.464684,8.464684 z" />
      <path
         id="path2-8-1-2"
         style="fill:#0000ff;stroke-width:4.71795;paint-order:fill markers stroke"
         d="m 94.444141,45.549631 a 8.4646835,8.4646835 0 0 1 -8.464683,8.464684 8.4646835,8.4646835 0 0 1 -8.464684,-8.464684 8.4646835,8.4646835 0 0 1 8.464684,-8.464683 8.4646835,8.4646835 0 0 1 8.464683,8.464683 z" />
      <path
         id="path2-8-1-23"
         style="fill:#0000ff;stroke-width:4.71795;paint-order:fill markers stroke"
         d="m 62.903471,63.478801 a 8.4646835,8.4646835 0 0 1 -8.464683,8.464683 8.4646835,8.4646835 0 0 1 -8.464684,-8.464683 8.4646835,8.4646835 0 0 1 8.464684,-8.464684 8.4646835,8.4646835 0 0 1 8.464683,8.464684 z" />
      <path
         style="font-weight:500;font-size:40px;line-height:1;font-family:'Helvetica Medium';-inkscape-font-specification:'Helvetica Medium,  Medium';white-space:pre;fill:#ffffff;stroke-width:0.377872"
         d="M 79.958999,9.5572823 V 8.2140639 q 0.760173,0 1.409642,-0.1697475 0.649468,-0.1771277 1.084909,-0.5609044 0.442818,-0.391157 0.553523,-0.9889634 h 1.387502 V 16.952365 H 82.549492 V 9.5572823 Z"
         id="text2"
         aria-label="1" />
      <path
         style="font-weight:500;font-size:40px;line-height:1;font-family:'Helvetica Medium';-inkscape-font-specification:'Helvetica Medium,  Medium';white-space:pre;fill:#ffffff;stroke-width:0.377872"
         d="m 61.195651,32.573211 h 1.704855 q 0.369019,-0.966822 1.675335,-0.966822 0.627325,0 1.070147,0.324734 0.450197,0.317354 0.678987,0.848737 0.228791,0.524003 0.228791,1.107048 0,0.583046 -0.221411,1.092288 -0.214027,0.509242 -0.649468,0.819216 -0.435438,0.309973 -1.048003,0.309973 -0.833976,0 -1.32846,-0.457579 -0.49448,-0.457581 -0.590426,-1.291557 h -1.719614 q 0.04428,1.003724 0.524003,1.712235 0.4871,0.715891 1.306317,1.084907 0.819216,0.361636 1.837699,0.361636 1.180852,0 1.992688,-0.568285 0.811837,-0.553524 1.195611,-1.417022 0.391159,-0.870878 0.391159,-1.763897 0,-0.988963 -0.391159,-1.793418 -0.391154,-0.804455 -1.136568,-1.262035 -0.738034,-0.45758 -1.749138,-0.45758 -0.51662,0 -1.040623,0.22141 -0.524003,0.214029 -0.833976,0.568285 l -0.03692,-0.02952 0.516623,-2.664296 h 4.132981 v -1.505586 h -5.402398 z"
         id="text2-5"
         aria-label="5" />
      <path
         style="font-weight:500;font-size:40px;line-height:1;font-family:'Helvetica Medium';-inkscape-font-specification:'Helvetica Medium,  Medium';letter-spacing:-3.27433px;white-space:pre;fill:#ffffff;stroke-width:0.377872"
         d="M 79.236715,43.783388 V 42.44017 q 0.760173,0 1.409642,-0.169747 0.649468,-0.177128 1.084909,-0.560905 0.442818,-0.391157 0.553523,-0.988963 h 1.387503 v 10.457916 h -1.845084 v -7.395083 z m 10.002953,6.199471 q -0.701131,0 -1.129189,-0.531383 -0.420677,-0.531384 -0.597805,-1.424402 -0.169748,-0.9004 -0.169748,-2.096012 0,-1.173471 0.169748,-2.05911 0.177128,-0.885638 0.597805,-1.409641 0.428058,-0.524003 1.129189,-0.524003 1.025864,0 1.468685,1.092288 0.435437,1.084907 0.435437,2.900466 0,1.8377 -0.442817,2.944749 -0.435441,1.107048 -1.461305,1.107048 z m 0,-9.505855 q -2.014827,0 -2.811904,1.616291 -0.797073,1.60891 -0.797073,3.837767 0,1.025865 0.162365,1.963166 0.154988,0.92992 0.553526,1.734375 0.398538,0.797075 1.114429,1.284177 0.715891,0.47972 1.778657,0.47972 1.055387,0 1.763898,-0.47972 0.71589,-0.487102 1.107045,-1.284177 0.398538,-0.804455 0.553527,-1.734375 0.154984,-0.937301 0.154984,-1.963166 0,-2.228857 -0.789693,-3.837767 -0.789693,-1.616291 -2.789761,-1.616291 z"
         id="text2-5-2"
         aria-label="10" />
      <path
         style="font-weight:500;font-size:40px;line-height:1;font-family:'Helvetica Medium';-inkscape-font-specification:'Helvetica Medium,  Medium';letter-spacing:0.630173px;white-space:pre;fill:#ffffff;stroke-width:0.340131"
         d="m 47.688056,63.940498 h 1.534576 q 0.332162,-0.870257 1.508005,-0.870257 0.564668,0 0.963261,0.2923 0.405232,0.285657 0.611171,0.763966 0.20594,0.471666 0.20594,0.996478 0,0.524812 -0.199297,0.983191 -0.19265,0.45838 -0.5846,0.737394 -0.391947,0.279014 -0.94333,0.279014 -0.750679,0 -1.195775,-0.411878 -0.445092,-0.411877 -0.531454,-1.162557 h -1.547862 q 0.03986,0.903473 0.471667,1.541219 0.438449,0.644389 1.175843,0.976548 0.737394,0.325516 1.654152,0.325516 1.06291,0 1.793661,-0.511525 0.730751,-0.498239 1.076195,-1.275492 0.35209,-0.783896 0.35209,-1.587721 0,-0.890187 -0.35209,-1.614294 -0.352087,-0.724107 -1.02305,-1.135984 -0.66432,-0.411878 -1.574436,-0.411878 -0.46502,0 -0.936686,0.199296 -0.471667,0.192652 -0.75068,0.511525 l -0.03323,-0.02657 0.465024,-2.39819 h 3.720183 v -1.35521 h -4.862812 z m 10.385058,3.182086 q -0.631103,0 -1.016407,-0.47831 -0.378661,-0.478309 -0.538098,-1.282134 -0.152793,-0.810469 -0.152793,-1.886665 0,-1.056266 0.152793,-1.853448 0.159437,-0.797182 0.538098,-1.268849 0.385304,-0.471665 1.016407,-0.471665 0.923405,0 1.321994,0.983191 0.391947,0.976548 0.391947,2.610771 0,1.654153 -0.39859,2.650631 -0.391946,0.996478 -1.315351,0.996478 z m 0,-8.556422 q -1.813589,0 -2.531051,1.454857 -0.717466,1.448214 -0.717466,3.454456 0,0.923403 0.146151,1.767087 0.139505,0.837042 0.498237,1.561149 0.358733,0.717464 1.003122,1.155914 0.644388,0.431807 1.601007,0.431807 0.949976,0 1.587721,-0.431807 0.644389,-0.43845 0.996479,-1.155914 0.358733,-0.724107 0.498237,-1.561149 0.139509,-0.843684 0.139509,-1.767087 0,-2.006242 -0.710823,-3.454456 -0.71082,-1.454857 -2.511123,-1.454857 z"
         id="text2-5-2-7"
         aria-label="50" />
      <path
         style="font-weight:500;font-size:40px;line-height:1;font-family:'Helvetica Medium';-inkscape-font-specification:'Helvetica Medium,  Medium';letter-spacing:0.784215px;white-space:pre;fill:#ffffff;stroke-width:0.340131"
         d="m 34.860439,48.27488 h -4.530651 q 0.09301,-0.298943 0.318873,-0.558027 0.23251,-0.259084 0.531455,-0.484952 0.298944,-0.225869 0.850327,-0.591244 0.55803,-0.365375 0.777254,-0.518168 0.956619,-0.684248 1.514645,-1.434928 0.564672,-0.75068 0.564672,-1.747158 0,-0.684248 -0.298945,-1.348566 -0.298941,-0.670962 -0.98319,-1.122699 -0.684248,-0.451736 -1.7538,-0.451736 -1.003122,0 -1.72723,0.471666 -0.724105,0.471666 -1.096123,1.302064 -0.372019,0.830398 -0.372019,1.886665 h 1.534573 q 0.02656,-1.116055 0.39195,-1.727228 0.358733,-0.617816 1.202414,-0.617816 0.876902,0 1.235635,0.498238 0.35873,0.498239 0.35873,1.162558 -0.0133,0.664318 -0.418518,1.182487 -0.405236,0.511525 -1.069556,0.976547 -0.664316,0.465024 -1.355208,0.943333 -2.039456,1.375139 -2.059388,3.554104 h 6.3841 z m 4.172929,0.298944 q -0.631103,0 -1.016407,-0.47831 Q 37.6383,47.617205 37.478863,46.81338 37.32607,46.002911 37.32607,44.926715 q 0,-1.056266 0.152793,-1.853448 0.159437,-0.797182 0.538098,-1.268849 0.385304,-0.471665 1.016407,-0.471665 0.923404,0 1.321994,0.983191 0.39195,0.976548 0.39195,2.610771 0,1.654153 -0.398593,2.650631 -0.391947,0.996478 -1.315351,0.996478 z m 0,-8.556422 q -1.813589,0 -2.531052,1.454857 -0.717465,1.448214 -0.717465,3.454456 0,0.923403 0.146151,1.767087 0.139508,0.837042 0.498237,1.561149 0.358733,0.717464 1.003122,1.155914 0.644388,0.431807 1.601007,0.431807 0.949975,0 1.587721,-0.431807 0.644389,-0.43845 0.996479,-1.155914 0.358732,-0.724107 0.498237,-1.561149 0.139508,-0.843684 0.139508,-1.767087 0,-2.006242 -0.710819,-3.454456 -0.710823,-1.454857 -2.511126,-1.454857 z"
         id="text2-5-2-2"
         aria-label="20" />
      <path
         style="fill:#0000ff;stroke:none;stroke-width:0.295005px;stroke-linecap:butt;stroke-linejoin:miter;stroke-opacity:1"
         d="M 96.282394,8.5717849 C 94.30737,-1.4388439 108.21149,-2.9365481 108.21149,-2.9365481 l 1.94105,-5.8734504 9.25193,12.7654366 -11.00219,4.5345521 0.84787,-6.6969993 c 0,0 -8.71349,-0.4586156 -12.967756,6.778794 z"
         id="path4"
         sodipodi:nodetypes="ccccccc" />
    </g>
  </g>
</svg>
