<?xml version="1.0" encoding="UTF-8" standalone="no"?>
<!-- Created with Inkscape (http://www.inkscape.org/) -->

<svg
   width="550"
   height="80"
   viewBox="0 0 145.52082 21.166666"
   version="1.1"
   id="svg1"
   sodipodi:docname="notice.svg"
   inkscape:version="1.3.2 (091e20e, 2023-11-25, custom)"
   xmlns:inkscape="http://www.inkscape.org/namespaces/inkscape"
   xmlns:sodipodi="http://sodipodi.sourceforge.net/DTD/sodipodi-0.dtd"
   xmlns="http://www.w3.org/2000/svg"
   xmlns:svg="http://www.w3.org/2000/svg">
  <sodipodi:namedview
     id="namedview1"
     pagecolor="#505050"
     bordercolor="#ffffff"
     borderopacity="1"
     inkscape:showpageshadow="0"
     inkscape:pageopacity="0"
     inkscape:pagecheckerboard="1"
     inkscape:deskcolor="#d1d1d1"
     inkscape:document-units="mm"
     inkscape:zoom="2.0208096"
     inkscape:cx="286.02398"
     inkscape:cy="74.227676"
     inkscape:window-width="1920"
     inkscape:window-height="1009"
     inkscape:window-x="1912"
     inkscape:window-y="-8"
     inkscape:window-maximized="1"
     inkscape:current-layer="layer1" />
  <defs
     id="defs1">
    <clipPath
       id="clip_0">
      <path
         transform="matrix(1,0,0,-1,0,841.92)"
         d="M 8.871e-6,0 H 595.32 V 841.92 H 8.871e-6 Z"
         fill-rule="evenodd"
         id="path1" />
    </clipPath>
    <clipPath
       id="clip_2">
      <path
         transform="matrix(1,0,0,-1,0,841.92)"
         d="M 8.871e-6,0 H 595.32 V 841.92 H 8.871e-6 Z"
         fill-rule="evenodd"
         id="path2" />
    </clipPath>
    <clipPath
       id="clip_3">
      <path
         transform="matrix(1,0,0,-1,0,841.92)"
         d="M 8.871e-6,0 H 595.32 V 841.92 H 8.871e-6 Z"
         fill-rule="evenodd"
         id="path3" />
    </clipPath>
    <clipPath
       id="clip_4">
      <path
         transform="matrix(1,0,0,-1,0,841.92)"
         d="M 8.871e-6,0 H 595.32 V 841.92 H 8.871e-6 Z"
         fill-rule="evenodd"
         id="path4" />
    </clipPath>
    <clipPath
       id="clip_5">
      <path
         transform="matrix(1,0,0,-1,0,841.92)"
         d="M 8.871e-6,0 H 595.32 V 841.92 H 8.871e-6 Z"
         fill-rule="evenodd"
         id="path5" />
    </clipPath>
    <clipPath
       id="clip_14">
      <path
         transform="matrix(1,0,0,-1,0,841.92)"
         d="M 8.871e-6,0 H 595.32 V 841.92 H 8.871e-6 Z"
         fill-rule="evenodd"
         id="path12" />
    </clipPath>
    <clipPath
       id="clip_7">
      <path
         transform="matrix(1,0,0,-1,0,841.92)"
         d="M.000008871 0H595.32V841.92H.000008871Z"
         fill-rule="evenodd"
         id="path6" />
    </clipPath>
    <clipPath
       id="clip_23">
      <path
         transform="matrix(1,0,0,-1,0,841.92)"
         d="M.000008871 0H595.32V841.92H.000008871Z"
         fill-rule="evenodd"
         id="path19" />
    </clipPath>
    <clipPath
       id="clip_10">
      <path
         transform="matrix(1,0,0,-1,0,841.92)"
         d="M.000008871 0H595.32V841.92H.000008871Z"
         fill-rule="evenodd"
         id="path8" />
    </clipPath>
    <clipPath
       id="clip_25">
      <path
         transform="matrix(1,0,0,-1,0,841.92)"
         d="M.000008871 0H595.32V841.92H.000008871Z"
         fill-rule="evenodd"
         id="path21" />
    </clipPath>
  </defs>
  <g
     inkscape:label="Layer 1"
     inkscape:groupmode="layer"
     id="layer1">
    <g
       clip-path="url(#clip_7)"
       id="g39"
       transform="matrix(0.32768041,0,0,0.32768041,-8.7971276,-33.375371)">
      <path
         id="use37"
         d="m 91.24275,116.08716 c 0.5625,0.57812 1.203125,1.46093 1.921875,2.64844 l 1.546875,-1.03126 c -0.671876,-1.14062 -1.328124,-2.05468 -1.968752,-2.74218 l -1.5,1.125 m 8.648439,-1.05469 c -0.296874,0.71875 -0.804687,1.64063 -1.523437,2.76563 l 1.593749,0.96093 c 0.718751,-1.04687 1.242191,-2 1.570311,-2.85937 l -1.640623,-0.86719 m -3.609374,5.10937 c 1.515624,0.81251 2.8125,1.59376 3.890627,2.34376 l 0.91406,-1.73438 c -1.265626,-0.75 -2.562501,-1.42187 -3.890626,-2.01562 0.281252,-0.84375 0.421875,-1.42188 0.421875,-1.73438 v -2.08593 h -1.851564 v 2.08593 c -0.04687,0.9375 -0.437501,1.6875 -1.171875,2.25 -0.75,0.60938 -1.90625,1.125 -3.46875,1.54688 l 0.914065,1.78124 c 1.96875,-0.67187 3.382812,-1.48437 4.242188,-2.4375 m 5.742187,-4.19531 c 0.4375,0.70313 0.89063,1.6875 1.35937,2.95313 l 1.73438,-0.72656 c -0.4375,-1.23438 -0.90625,-2.25 -1.40625,-3.04688 l -1.6875,0.82031 m 8.13281,-0.79687 c -0.25,0.71875 -0.71093,1.64843 -1.38281,2.78906 l 1.64063,0.89062 c 0.65624,-1.07812 1.13281,-2.03906 1.42968,-2.88281 l -1.6875,-0.79687 m 0.375,7.5 H 91.61775 c -0.234374,0 -0.351563,0.11719 -0.351563,0.35156 v 4.73437 h 1.851563 v -3.04687 c 0,-0.10937 0.0625,-0.17186 0.187512,-0.18751 h 17.507818 c 0.15624,0 0.23438,0.0937 0.23438,0.28125 -0.0157,0.25001 -0.2344,1.02345 -0.65627,2.32032 l 1.75781,0.63281 c 0.57813,-1.65624 0.94531,-3.07031 1.10156,-4.24218 l -1.6875,-0.84375 h -0.44531 l 0.91406,-1.28907 c -1.45312,-1.07812 -2.94531,-2.07031 -4.47656,-2.97656 0.10937,-0.4375 0.17186,-0.83594 0.18751,-1.19531 v -2.36719 h -1.85157 v 2.36719 c -0.0625,1.21875 -0.75781,2.22656 -2.08594,3.02344 -0.46875,0.25 -1.03125,0.47656 -1.6875,0.67968 l 1.07812,1.6875 c 1.70313,-0.70312 2.92969,-1.59374 3.67969,-2.67187 1.42188,0.95312 2.64063,1.86719 3.65625,2.74219 M 94.7115,136.12622 h 14.64844 v 0.91406 h 1.85156 v -5.36719 c 0,-0.42187 -0.21876,-0.63281 -0.65625,-0.63281 h -9.07031 l 0.44531,-1.24219 h 7.24219 c 0.15624,0 0.24219,-0.0859 0.25781,-0.25781 v -4.07812 c 0,-0.15624 -0.0859,-0.23439 -0.25781,-0.23439 H 94.781813 c -0.15624,0 -0.234384,0.0781 -0.234384,0.23439 v 4.07812 c 0,0.15624 0.07812,0.24219 0.234384,0.25782 H 99.9615 l -0.445313,1.24218 h -6.046874 c -0.390627,0 -0.593751,0.20313 -0.609375,0.60938 v 5.39062 H 94.7115 v -0.91406 m 0,-1.75781 v -1.3125 c -0.01563,-0.15625 0.07032,-0.24219 0.257813,-0.25781 h 14.109377 c 0.18751,0 0.28125,0.0859 0.28125,0.25781 v 1.3125 H 94.7115 m 12.77344,-7.57031 c 0.0625,0 0.0937,0.0234 0.0937,0.0703 v 1.26562 c 0,0.0469 -0.0312,0.0781 -0.0937,0.0937 H 96.469313 c -0.0625,-0.0156 -0.08594,-0.0469 -0.07032,-0.0937 v -1.26562 c -0.01563,-0.0469 0.0078,-0.0703 0.07032,-0.0703 z"
         style="fill:#008000;stroke-width:24" />
      <path
         id="use38"
         d="m 127.78181,132.28247 v 2.15625 h 1.94532 v -2.15625 h 6.79687 v -1.85156 h -6.79687 v -1.33594 h 5.25 c 0.18751,0 0.28124,-0.0937 0.28124,-0.28125 v -6.9375 c 0,-0.15624 -0.0937,-0.24219 -0.28124,-0.25781 h -5.25 v -1.19531 h 4.54687 v -1.75782 h -4.54687 v -1.42968 h 5.22656 c 0.15624,0 0.23438,0.0937 0.23438,0.28124 -0.0156,0.29688 -0.23438,1.10157 -0.65626,2.41407 l 1.85156,0.60937 c 0.53126,-1.64062 0.82813,-3.0625 0.89063,-4.26562 l -1.59375,-0.79688 h -14.67187 c -0.23439,0 -0.35157,0.11719 -0.35157,0.35156 v 4.40626 h 1.94532 v -2.8125 c 0,-0.10937 0.0625,-0.17187 0.18751,-0.18752 h 4.99217 v 1.4297 h -4.40625 v 1.75782 h 4.40625 v 1.19531 h -5.36718 c -0.15624,0 -0.24219,0.0859 -0.25782,0.25781 v 6.9375 c 0,0.18751 0.086,0.28125 0.25782,0.28125 h 5.36718 v 1.33594 h -6.65625 v 1.85156 h 6.65625 m 0,-4.85156 h -3.60937 c -0.0625,-0.0156 -0.0859,-0.0469 -0.0703,-0.0937 v -1.19531 h 3.67969 v 1.28906 m 1.94532,-1.28906 h 3.58593 v 1.19531 c 0,0.0469 -0.0312,0.0781 -0.0937,0.0937 h -3.49219 v -1.28906 m -1.94532,-1.57032 h -3.67968 v -1.21875 c -0.0156,-0.0469 0.008,-0.0703 0.0703,-0.0703 h 3.60936 v 1.28907 m 1.94532,-1.28907 h 3.49218 c 0.0625,0 0.0937,0.0234 0.0937,0.0703 v 1.21875 h -3.58593 v -1.28906 m -14.01563,-6.28125 c 0.95312,0.48437 2.10938,1.29687 3.46875,2.4375 l 1.24219,-1.66406 c -1.28125,-1.09375 -2.46875,-1.92188 -3.5625,-2.48438 l -1.14844,1.71094 m -0.46875,4.54687 c 0.95312,0.53125 2.13281,1.42188 3.53906,2.67188 l 1.28906,-1.61719 c -1.32812,-1.1875 -2.53906,-2.09375 -3.63281,-2.71875 l -1.19531,1.66406 m 2.83594,10.05469 c -0.0625,0.8125 -0.32813,1.5 -0.79688,2.0625 -0.42187,0.48438 -1.25781,0.95313 -2.50781,1.40625 l 0.86719,1.89844 c 0.71875,-0.20314 1.4375,-0.59375 2.15625,-1.17187 0.71875,-0.5625 1.20312,-1.08594 1.45312,-1.57032 1.17188,1.64063 3.52344,2.46875 7.05469,2.48438 3.15625,0.0469 6.51562,0.0937 10.07812,0.14061 l 0.49219,-2.29687 c -7.84375,0.29688 -12.42969,0.27344 -13.75781,-0.0703 -1.07812,-0.375 -1.82812,-0.79688 -2.25,-1.26563 -0.34375,-0.34375 -0.59375,-0.6875 -0.75,-1.03125 v -6.39844 c 0,-0.34375 -0.17186,-0.51562 -0.51563,-0.51562 h -4.17187 v 2.03906 h 2.39063 c 0.15624,0 0.24218,0.0937 0.25781,0.28125 z"
         style="fill:#008000;stroke-width:24" />
      <path
         id="use39"
         d="m 141.63338,130.40747 h 7.33593 v 6.5625 h 2.13282 v -6.5625 h 7.24218 v 1.05469 h 2.13282 v -11.76563 c 0,-0.48437 -0.25782,-0.73437 -0.77344,-0.75 h -8.60156 v -4.03125 h -2.13282 v 4.03125 h -8.74218 c -0.48438,0 -0.72657,0.24219 -0.72657,0.72657 v 11.78906 h 2.13282 v -1.05469 m 9.46875,-2.13281 v -7.19532 h 6.91406 c 0.20313,0 0.3125,0.10157 0.32812,0.30469 v 6.89063 h -7.24218 m -9.46875,0 v -6.89063 c -0.0156,-0.20313 0.0859,-0.30468 0.30468,-0.30468 h 7.03125 v 7.19531 z"
         style="fill:#008000;stroke-width:24" />
    </g>
    <g
       clip-path="url(#clip_10)"
       id="g43"
       transform="matrix(0.32768041,0,0,0.32768041,50.941655,-45.141146)">
      <path
         id="use41"
         d="m 100.96931,159.25903 v 13.71094 h 2.13282 v -16.42969 c 0.53125,-0.8125 1.10156,-1.72656 1.71093,-2.74218 h 7.71094 v -2.13282 H 91.406813 v 2.13282 H 102.399 c -2.29687,3.65624 -4.867187,6.49218 -7.710937,8.50781 -1.265626,0.85937 -2.570313,1.63281 -3.914063,2.32031 l 1.40625,1.78125 c 3.421875,-2.01563 6.351563,-4.39844 8.78906,-7.14844 m 2.53125,0.0469 c 2.26563,1.60938 4.97656,4.16407 8.13281,7.66407 l 1.66407,-1.5 c -3.0625,-3.39062 -5.90625,-6.01562 -8.53125,-7.875 z"
         style="fill:#008000;stroke-width:24" />
      <path
         id="use42"
         d="m 118.07869,162.98559 c -0.89063,0.48438 -1.98438,1.03125 -3.28125,1.64063 l 1.21875,1.66406 c 0.70312,-0.34375 1.39062,-0.70312 2.0625,-1.07812 v 4.875 c 0,0.32812 -0.0703,0.55468 -0.21094,0.67968 -0.15624,0.15625 -0.33594,0.21875 -0.53906,0.1875 -0.42187,-0.0469 -1.15625,-0.25781 -2.20313,-0.63281 l -0.0937,2.10938 c 2.01563,0.60937 3.35157,0.69531 4.00782,0.25781 0.70312,-0.46875 1.0625,-1.15625 1.07812,-2.0625 v -6.58594 c 0.10937,-0.0937 0.23439,-0.17186 0.375,-0.23438 0.98438,-0.57813 1.85156,-1.17188 2.60156,-1.78125 l -1.33593,-1.54687 c -0.4375,0.39063 -0.98438,0.80469 -1.64063,1.24219 v -4.21875 h 2.34375 v -2.03906 h -2.34375 v -4.35938 h -2.03906 v 4.35938 h -2.85938 v 2.03906 h 2.85938 v 5.48437 m 10.6875,2.625 c -1.73438,1.54688 -4.25781,3.03907 -7.57031,4.47657 l 1.35937,1.80469 c 2.85937,-1.28125 5.19531,-2.70313 7.00781,-4.26563 0.0156,0.0625 0.0547,0.13281 0.11719,0.21094 0.90625,1.82812 1.82032,3.21094 2.74219,4.14844 0.65625,0.71875 1.30469,1.07812 1.94531,1.07812 0.32813,-0.0156 0.64063,-0.16406 0.9375,-0.44531 0.79688,-0.76563 1.29688,-2.67188 1.5,-5.71875 l -1.99218,-0.63281 c -0.15624,1.79687 -0.33594,3.0625 -0.53907,3.79687 -0.0625,0.25 -0.17968,0.375 -0.35156,0.375 -0.20313,0 -0.59375,-0.39062 -1.17187,-1.17187 -0.67188,-0.85938 -1.25782,-1.86719 -1.75782,-3.02344 1.45312,-1.60938 2.77344,-3.70313 3.96094,-6.28125 l -1.85156,-0.86719 c -1.21876,2.4375 -2.17969,4.08594 -2.88282,4.94531 -0.57812,-1.96875 -0.96875,-4.05469 -1.17187,-6.25781 h 7.47656 v -2.03906 h -7.6875 c -0.0937,-1.46875 -0.14062,-3 -0.14062,-4.59375 l -2.03906,-0.14062 c 0.0156,1.65625 0.0937,3.23438 0.23439,4.73438 h -3.2344 v 2.03905 h 3.42188 c 0.32812,3.04687 0.89062,5.65625 1.6875,7.82812 m 1.24218,-13.12499 c 1.28126,0.62499 2.59376,1.48437 3.9375,2.57812 l 1.26563,-1.57031 c -0.9375,-0.75 -2.28125,-1.64063 -4.03125,-2.67188 z"
         style="fill:#008000;stroke-width:24" />
      <path
         id="use43"
         d="m 153.37556,151.00903 v 13.54688 c 0,0.29687 -0.0703,0.50781 -0.21093,0.63281 -0.34375,0.28125 -1.3125,0.20313 -2.90626,-0.23438 v 2.03907 c 1.96876,0.46875 3.31251,0.47656 4.03126,0.0234 0.65624,-0.42187 1,-1.07812 1.03124,-1.96875 V 151.009 h -1.94531 m -3.14062,2.71875 c -0.20313,2.92188 -0.73438,6.00782 -1.59375,9.25781 l 1.875,0.49219 c 0.625,-2.57812 1.16406,-5.71093 1.61718,-9.39844 l -1.89843,-0.35156 m 7.61719,3.9375 c -0.0156,2.92188 -0.13282,4.94531 -0.35157,6.07031 -0.32812,1.5625 -0.8125,2.85938 -1.45312,3.89063 -0.625,1.04687 -1.46094,1.84375 -2.50781,2.39063 -1.32813,0.65625 -3.09376,1.04687 -5.29688,1.17187 l 1.3125,1.875 c 3.625,-0.39062 6.21875,-1.82031 7.78125,-4.28906 0.90625,-1.5 1.54687,-3.48438 1.92187,-5.95313 0.0937,0.34375 0.17969,0.69532 0.25782,1.05469 l 1.78125,-0.35156 c -0.65625,-3.1875 -1.65625,-6.59375 -3,-10.21875 l -1.75781,0.49219 c 0.20313,0.57812 0.64062,1.86718 1.3125,3.86718 M 144.46931,152.884 c 0.85938,0.98438 1.80469,1.92969 2.83594,2.83594 l 1.54687,-1.38281 c -1.21875,-0.90625 -2.38281,-1.89063 -3.49218,-2.95313 0.0625,-0.10937 0.11719,-0.22656 0.16406,-0.35156 l -1.85156,-0.0937 c -0.79688,1.32812 -2.45313,2.72655 -4.96875,4.1953 l 1.73437,1.24219 c 1.79688,-1.21875 3.14063,-2.38281 4.03125,-3.49219 m -5.03906,11.48438 c 0.29687,1.35937 0.48437,3.01562 0.5625,4.96875 l 1.82813,-0.0234 c -0.0469,-1.5 -0.22656,-3.20313 -0.53907,-5.10938 l -1.85156,0.16407 m 6.9375,-0.30469 c -0.0937,1.17187 -0.32031,2.42969 -0.67969,3.77344 l 1.75782,0.49218 c 0.23438,-0.98437 0.47656,-2.28125 0.72656,-3.89062 l -1.80469,-0.375 m -3.58594,6.16406 c -1.1875,0.1875 -2.49219,0.38282 -3.91406,0.58594 l 0.25781,2.01563 c 3.95313,-0.48438 7.24219,-1.20313 9.86719,-2.15625 l -0.63281,-1.85157 c -1.03125,0.34375 -2.24219,0.67969 -3.63281,1.00782 v -6.98438 h 3.23437 v -1.85156 h -3.23437 v -2.36719 h 2.85937 v -1.85156 h -7.52344 v 1.85156 h 2.71875 v 2.36719 h -3.28125 v 1.85156 h 3.28125 z"
         style="fill:#008000;stroke-width:24" />
    </g>
    <g
       clip-path="url(#clip_23)"
       id="g106"
       transform="matrix(0.21827187,0,0,0.21827187,1.0755867,-51.981954)">
      <path
         id="use97"
         d="m 95.156813,314.81 h -3.585938 v -17.27344 h 3.585938 V 314.81 m -1.792968,-17.27344 z"
         style="fill:#008000;stroke-width:24" />
      <path
         id="use98"
         d="m 105.30873,301.70844 c 1.32031,0 2.40039,0.34717 3.24023,1.0415 0.83984,0.69409 1.25977,1.84302 1.25977,3.44678 V 314.81 h -3.42188 v -7.77832 c 0,-0.67261 -0.0898,-1.18884 -0.26953,-1.54871 -0.32813,-0.65698 -0.95312,-0.98547 -1.875,-0.98547 -1.13281,0 -1.91016,0.48096 -2.33203,1.44287 -0.21876,0.50855 -0.32813,1.15784 -0.32813,1.94788 V 314.81 h -3.328121 v -12.77344 h 3.222661 v 1.87207 c 0.42968,-0.65893 0.83593,-1.13354 1.21875,-1.42382 0.6875,-0.51758 1.55859,-0.77637 2.61328,-0.77637 m -1.23047,0 z"
         style="fill:#008000;stroke-width:24" />
      <path
         id="use99"
         d="M 111.31201,314.81 Z"
         style="fill:#008000;stroke-width:24" />
      <path
         id="use100"
         d="m 122.24017,310.70844 c 0.0703,0.59741 0.22264,1.02185 0.45703,1.27331 0.41406,0.448 1.17969,0.672 2.29687,0.672 0.65625,0 1.17774,-0.098 1.56445,-0.29407 0.38672,-0.19629 0.58008,-0.4906 0.58008,-0.88293 0,-0.37647 -0.15624,-0.66284 -0.46875,-0.85913 -0.3125,-0.19606 -1.47265,-0.53113 -3.48047,-1.00525 -1.44531,-0.35767 -2.46484,-0.80591 -3.05859,-1.34473 -0.59375,-0.531 -0.89062,-1.29626 -0.89062,-2.29577 0,-1.17896 0.46289,-2.19202 1.38867,-3.03919 0.92578,-0.84741 2.22851,-1.27112 3.9082,-1.27112 1.59375,0 2.89258,0.31922 3.89649,0.95765 1.0039,0.63842 1.58007,1.74108 1.72851,3.30798 h -3.33984 c -0.0469,-0.43262 -0.16798,-0.77478 -0.36328,-1.02649 -0.36719,-0.4563 -0.99219,-0.68445 -1.875,-0.68445 -0.72657,0 -1.24414,0.11376 -1.55274,0.34131 -0.30859,0.22754 -0.46289,0.49426 -0.46289,0.80017 0,0.38428 0.16406,0.66272 0.49219,0.83533 0.32812,0.18041 1.48828,0.48828 3.48047,0.92358 1.32812,0.31104 2.32421,0.78284 2.98828,1.41541 0.65625,0.64038 0.98437,1.44079 0.98437,2.40124 0,1.2649 -0.4707,2.29761 -1.41211,3.09815 -0.9414,0.80029 -2.39648,1.20044 -4.36523,1.20044 -2.00782,0 -3.49024,-0.42493 -4.44727,-1.27478 -0.95703,-0.84986 -1.43554,-1.93274 -1.43554,-3.24866 h 3.38671 m 2.55469,-9.04688 z"
         style="fill:#008000;stroke-width:24" />
      <path
         id="use101"
         d="m 138.02167,304.4975 c -0.77344,0 -1.37305,0.23585 -1.79883,0.70752 -0.42578,0.47168 -0.69336,1.11084 -0.80274,1.91748 h 5.19141 c -0.0547,-0.85986 -0.32227,-1.51233 -0.80274,-1.9574 -0.48046,-0.44506 -1.07617,-0.6676 -1.78711,-0.6676 m 0,-2.78906 c 1.0625,0 2.01953,0.19898 2.8711,0.59692 0.85156,0.39771 1.55468,1.02564 2.10937,1.88379 0.5,0.75659 0.82422,1.63416 0.97266,2.63269 0.0859,0.58496 0.1211,1.42737 0.10548,2.52722 h -8.7422 c 0.0469,1.27661 0.44922,2.17176 1.20703,2.68543 0.46094,0.31909 1.01563,0.47864 1.66407,0.47864 0.6875,0 1.24609,-0.19373 1.67578,-0.58118 0.23438,-0.20923 0.4414,-0.49988 0.62109,-0.87195 h 3.41016 c -0.0859,0.75781 -0.48047,1.52734 -1.1836,2.30859 -1.09375,1.24219 -2.625,1.86329 -4.59375,1.86329 -1.625,0 -3.05859,-0.52295 -4.30078,-1.56885 -1.24218,-1.04615 -1.86328,-2.74781 -1.86328,-5.10498 0,-2.20899 0.56055,-3.90284 1.68164,-5.08155 1.1211,-1.17871 2.57617,-1.76806 4.36524,-1.76806 m 0.23438,0 z"
         style="fill:#008000;stroke-width:24" />
      <path
         id="use102"
         d="m 153.21609,301.70844 c 0.0625,0 0.11523,0.002 0.15821,0.006 0.043,0.004 0.13867,0.01 0.28711,0.0176 v 3.42188 c -0.21093,-0.0188 -0.39844,-0.0312 -0.5625,-0.0373 -0.16406,-0.006 -0.29687,-0.01 -0.39844,-0.01 -1.34375,0 -2.24609,0.43799 -2.70703,1.31397 -0.25781,0.49291 -0.38672,1.2517 -0.38672,2.27636 V 314.81 h -3.36328 v -12.77344 h 3.1875 v 2.21814 c 0.51562,-0.85669 0.96484,-1.44214 1.34765,-1.75634 0.625,-0.52662 1.4375,-0.78992 2.4375,-0.78992 z"
         style="fill:#008000;stroke-width:24" />
      <path
         id="use103"
         d="m 163.44159,302.03656 h 3.58594 L 162.42206,314.81 h -3.52734 l -4.58203,-12.77344 h 3.75 l 2.66015,9.42188 z"
         style="fill:#008000;stroke-width:24" />
      <path
         id="use104"
         d="m 172.34418,300.51313 h -3.38672 v -3.09376 h 3.38672 v 3.09376 m -3.38672,1.52343 h 3.38672 V 314.81 h -3.38672 z"
         style="fill:#008000;stroke-width:24" />
      <path
         id="use105"
         d="m 183.28348,306.60687 c -0.0625,-0.47656 -0.22265,-0.90624 -0.48047,-1.28906 -0.375,-0.51562 -0.95703,-0.77344 -1.74609,-0.77344 -1.125,0 -1.89453,0.5586 -2.3086,1.67579 -0.21876,0.59155 -0.32812,1.3778 -0.32812,2.35876 0,0.93408 0.10937,1.6853 0.32812,2.25366 0.39844,1.07349 1.14844,1.61023 2.25,1.61023 0.78126,0 1.33594,-0.21313 1.66407,-0.6394 0.32812,-0.42627 0.52734,-0.97876 0.59765,-1.65747 h 3.41016 c -0.0781,1.01806 -0.44531,1.9812 -1.10156,2.8894 -1.04688,1.46436 -2.59766,2.19654 -4.65235,2.19654 -2.05469,0 -3.5664,-0.60889 -4.53515,-1.82667 -0.96875,-1.21777 -1.45313,-2.79797 -1.45313,-4.7406 0,-2.19213 0.53516,-3.89953 1.60547,-5.12219 1.07031,-1.22266 2.54688,-1.83398 4.42969,-1.83398 1.60156,0 2.91211,0.36023 3.93164,1.08069 1.01953,0.72046 1.62304,1.99304 1.81054,3.81775 h -3.42187 m -2.26172,-4.89844 z"
         style="fill:#008000;stroke-width:24" />
      <path
         id="use106"
         d="m 194.03763,304.4975 c -0.77344,0 -1.37305,0.23585 -1.79883,0.70752 -0.42578,0.47168 -0.69336,1.11084 -0.80274,1.91748 h 5.19141 c -0.0547,-0.85986 -0.32227,-1.51233 -0.80274,-1.9574 -0.48046,-0.44506 -1.07617,-0.6676 -1.78711,-0.6676 m 0,-2.78906 c 1.0625,0 2.01953,0.19898 2.8711,0.59692 0.85156,0.39771 1.55468,1.02564 2.10937,1.88379 0.5,0.75659 0.82422,1.63416 0.97266,2.63269 0.0859,0.58496 0.1211,1.42737 0.10548,2.52722 h -8.7422 c 0.0469,1.27661 0.44922,2.17176 1.20703,2.68543 0.46094,0.31909 1.01563,0.47864 1.66407,0.47864 0.6875,0 1.24609,-0.19373 1.67578,-0.58118 0.23438,-0.20923 0.4414,-0.49988 0.62109,-0.87195 h 3.41016 c -0.0859,0.75781 -0.48047,1.52734 -1.1836,2.30859 -1.09375,1.24219 -2.625,1.86329 -4.59375,1.86329 -1.625,0 -3.05859,-0.52295 -4.30078,-1.56885 -1.24218,-1.04615 -1.86328,-2.74781 -1.86328,-5.10498 0,-2.20899 0.56055,-3.90284 1.68164,-5.08155 1.1211,-1.17871 2.57617,-1.76806 4.36524,-1.76806 m 0.23438,0 z"
         style="fill:#008000;stroke-width:24" />
    </g>
    <g
       clip-path="url(#clip_25)"
       id="g125"
       transform="matrix(0.21827187,0,0,0.21827187,60.826639,-59.839742)">
      <path
         id="use108"
         d="m 91.793531,333.53656 h 3.785156 l 6.878903,12.0586 v -12.0586 h 3.36328 V 350.81 H 102.2115 L 95.156813,338.54047 V 350.81 h -3.363282 v -17.27344 m 7.148438,0 z"
         style="fill:#008000;stroke-width:24" />
      <path
         id="use109"
         d="m 114.64107,348.44281 c 0.97657,0 1.72657,-0.34717 2.25,-1.0415 0.52344,-0.69434 0.78516,-1.68115 0.78516,-2.96045 0,-1.2793 -0.26172,-2.26416 -0.78516,-2.95459 -0.52343,-0.69043 -1.27343,-1.03565 -2.25,-1.03565 -0.97656,0 -1.72851,0.34522 -2.25586,1.03565 -0.52734,0.69043 -0.79101,1.67529 -0.79101,2.95459 0,1.2793 0.26367,2.26611 0.79101,2.96045 0.52735,0.69434 1.2793,1.0415 2.25586,1.0415 m 6.53907,-4.01367 c 0,1.87329 -0.53907,3.47546 -1.61719,4.80652 -1.07813,1.33081 -2.71485,1.99622 -4.91016,1.99622 -2.19531,0 -3.83203,-0.66541 -4.91015,-1.99622 -1.07813,-1.33106 -1.61719,-2.93323 -1.61719,-4.80652 0,-1.84229 0.53906,-3.4386 1.61719,-4.78894 1.07812,-1.35034 2.71484,-2.02551 4.91015,-2.02551 2.19531,0 3.83203,0.67517 4.91016,2.02551 1.07812,1.35034 1.61719,2.94666 1.61719,4.78894 m -6.52735,-6.81445 z"
         style="fill:#008000;stroke-width:24" />
      <path
         id="use110"
         d="M 121.94401,350.81 Z"
         style="fill:#008000;stroke-width:24" />
      <path
         id="use111"
         d="m 137.07696,337.75531 c 1.67969,0 2.99414,0.60608 3.94336,1.81824 0.94922,1.21191 1.42383,2.77576 1.42383,4.69153 0,1.98608 -0.46876,3.63208 -1.40626,4.93799 -0.9375,1.30566 -2.24609,1.95849 -3.92578,1.95849 -1.05468,0 -1.90234,-0.21386 -2.54296,-0.6416 -0.38282,-0.25366 -0.79688,-0.69739 -1.24219,-1.33118 V 350.81 h -3.26953 v -17.25 h 3.32812 v 6.14832 c 0.42188,-0.5962 0.88672,-1.05115 1.39453,-1.36487 0.60157,-0.39209 1.36719,-0.58814 2.29688,-0.58814 m -0.85547,10.61719 c 0.85937,0 1.52734,-0.34607 2.00391,-1.03821 0.47656,-0.69214 0.71484,-1.60205 0.71484,-2.72974 0,-0.9021 -0.11719,-1.64868 -0.35156,-2.23974 -0.44531,-1.11987 -1.26563,-1.67981 -2.46094,-1.67981 -1.21094,0 -2.04297,0.54822 -2.49609,1.64465 -0.23439,0.5835 -0.35156,1.33789 -0.35156,2.26319 0,1.08886 0.24218,1.99108 0.72656,2.70666 0.48437,0.71533 1.22265,1.073 2.21484,1.073 z"
         style="fill:#008000;stroke-width:24" />
      <path
         id="use112"
         d="m 151.92958,344.59577 c -0.21093,0.13329 -0.42383,0.24121 -0.63867,0.32373 -0.21485,0.0823 -0.50976,0.15869 -0.88476,0.22925 l -0.75,0.141 c -0.70313,0.12547 -1.20704,0.27843 -1.51172,0.45885 -0.51563,0.30566 -0.77344,0.7799 -0.77344,1.42273 0,0.57251 0.15821,0.9862 0.47461,1.24109 0.3164,0.25464 0.70117,0.38195 1.15429,0.38195 0.71875,0 1.38086,-0.21167 1.98633,-0.635 0.60547,-0.42335 0.91993,-1.19568 0.94336,-2.31702 v -1.24658 m -2.02734,-1.5586 c 0.61719,-0.0784 1.05859,-0.17628 1.32422,-0.2937 0.47656,-0.20386 0.71484,-0.52136 0.71484,-0.95251 0,-0.52515 -0.18163,-0.88758 -0.54492,-1.08728 -0.36328,-0.19995 -0.89648,-0.29993 -1.59961,-0.29993 -0.78906,0 -1.34766,0.19531 -1.67578,0.58594 -0.23438,0.28906 -0.39062,0.67968 -0.46875,1.17187 h -3.22266 c 0.0703,-1.12011 0.38282,-2.04053 0.9375,-2.76123 0.88281,-1.12793 2.39844,-1.69189 4.54688,-1.69189 1.39843,0 2.64062,0.27929 3.72656,0.83789 1.08594,0.55859 1.62891,1.60742 1.62891,3.14648 v 5.85938 c 0,0.40625 0.008,0.89844 0.0234,1.47656 0.0234,0.44141 0.0898,0.74097 0.19923,0.89868 0.10937,0.15772 0.27343,0.28784 0.49219,0.39038 V 350.81 h -3.63282 c -0.10157,-0.25635 -0.17186,-0.49707 -0.21093,-0.72217 -0.0391,-0.22534 -0.0703,-0.48169 -0.0937,-0.76904 -0.46095,0.50391 -0.9922,0.93298 -1.59376,1.28723 -0.71875,0.41724 -1.53125,0.62586 -2.4375,0.62586 -1.15625,0 -2.11133,-0.33118 -2.86523,-0.99354 -0.75391,-0.66235 -1.13086,-1.60095 -1.13086,-2.81579 0,-1.57544 0.60547,-2.71582 1.8164,-3.42114 0.66407,-0.38404 1.64063,-0.65833 2.92969,-0.82288 l 1.13672,-0.14136 m 0.17578,-5.32873 z"
         style="fill:#008000;stroke-width:24" />
      <path
         id="use113"
         d="m 165.26075,337.70844 c 1.32031,0 2.40039,0.34717 3.24023,1.0415 0.83985,0.69409 1.25977,1.84302 1.25977,3.44678 V 350.81 h -3.42188 v -7.77832 c 0,-0.67261 -0.0898,-1.18884 -0.26953,-1.54871 -0.32812,-0.65698 -0.95312,-0.98547 -1.875,-0.98547 -1.13281,0 -1.91015,0.48096 -2.33203,1.44287 -0.21876,0.50855 -0.32813,1.15784 -0.32813,1.94788 V 350.81 h -3.32812 v -12.77344 h 3.22266 v 1.87207 c 0.42969,-0.65893 0.83593,-1.13354 1.21875,-1.42382 0.6875,-0.51758 1.55859,-0.77637 2.61328,-0.77637 m -1.23047,0 z"
         style="fill:#008000;stroke-width:24" />
      <path
         id="use114"
         d="m 172.78747,333.58344 h 3.28125 v 9.30542 l 4.16015,-4.80542 h 4.13672 l -4.46484,4.76697 4.64062,7.95959 h -4.03125 l -3.06518,-5.4668 -1.37622,1.44361 V 350.81 h -3.28125 z"
         style="fill:#008000;stroke-width:24" />
      <path
         id="use115"
         d="m 193.22074,337.70844 c 1.32031,0 2.40039,0.34717 3.24023,1.0415 0.83985,0.69409 1.25977,1.84302 1.25977,3.44678 V 350.81 h -3.42188 v -7.77832 c 0,-0.67261 -0.0898,-1.18884 -0.26953,-1.54871 -0.32812,-0.65698 -0.95312,-0.98547 -1.875,-0.98547 -1.13281,0 -1.91015,0.48096 -2.33203,1.44287 -0.21876,0.50855 -0.32813,1.15784 -0.32813,1.94788 V 350.81 h -3.32812 v -12.77344 h 3.22266 v 1.87207 c 0.42969,-0.65893 0.83593,-1.13354 1.21875,-1.42382 0.6875,-0.51758 1.55859,-0.77637 2.61328,-0.77637 m -1.23047,0 z"
         style="fill:#008000;stroke-width:24" />
      <path
         id="use116"
         d="m 206.60906,348.44281 c 0.97657,0 1.72657,-0.34717 2.25,-1.0415 0.52344,-0.69434 0.78516,-1.68115 0.78516,-2.96045 0,-1.2793 -0.26172,-2.26416 -0.78516,-2.95459 -0.52343,-0.69043 -1.27343,-1.03565 -2.25,-1.03565 -0.97656,0 -1.72851,0.34522 -2.25586,1.03565 -0.52734,0.69043 -0.79101,1.67529 -0.79101,2.95459 0,1.2793 0.26367,2.26611 0.79101,2.96045 0.52735,0.69434 1.2793,1.0415 2.25586,1.0415 m 6.53907,-4.01367 c 0,1.87329 -0.53907,3.47546 -1.61719,4.80652 -1.07813,1.33081 -2.71485,1.99622 -4.91016,1.99622 -2.19531,0 -3.83203,-0.66541 -4.91015,-1.99622 -1.07813,-1.33106 -1.61719,-2.93323 -1.61719,-4.80652 0,-1.84229 0.53906,-3.4386 1.61719,-4.78894 1.07812,-1.35034 2.71484,-2.02551 4.91015,-2.02551 2.19531,0 3.83203,0.67517 4.91016,2.02551 1.07812,1.35034 1.61719,2.94666 1.61719,4.78894 m -6.52735,-6.81445 z"
         style="fill:#008000;stroke-width:24" />
      <path
         id="use117"
         d="m 214.2301,340.52094 v -2.36719 h 1.78125 v -3.58594 h 3.30469 v 3.58594 h 2.07422 v 2.36719 h -2.07422 v 6.77014 c 0,0.5249 0.0664,0.85205 0.19923,0.98144 0.13281,0.12915 0.53906,0.19373 1.21875,0.19373 0.10156,0 0.20899,-0.004 0.32226,-0.0117 0.11328,-0.008 0.22462,-0.0195 0.33399,-0.0352 v 2.50782 l -1.58204,0.0703 c -1.57813,0.0547 -2.65625,-0.21936 -3.23438,-0.82214 -0.375,-0.38379 -0.5625,-0.97498 -0.5625,-1.77356 v -7.88086 z"
         style="fill:#008000;stroke-width:24" />
      <path
         id="use118"
         d="m 228.54967,340.4975 c -0.77344,0 -1.37305,0.23585 -1.79883,0.70752 -0.42578,0.47168 -0.69336,1.11084 -0.80274,1.91748 h 5.19141 c -0.0547,-0.85986 -0.32227,-1.51233 -0.80274,-1.9574 -0.48046,-0.44506 -1.07617,-0.6676 -1.78711,-0.6676 m 0,-2.78906 c 1.0625,0 2.01953,0.19898 2.8711,0.59692 0.85156,0.39771 1.55468,1.02564 2.10937,1.88379 0.5,0.75659 0.82422,1.63416 0.97266,2.63269 0.0859,0.58496 0.1211,1.42737 0.10548,2.52722 h -8.7422 c 0.0469,1.27661 0.44922,2.17176 1.20703,2.68543 0.46094,0.31909 1.01563,0.47864 1.66407,0.47864 0.6875,0 1.24609,-0.19373 1.67578,-0.58118 0.23438,-0.20923 0.4414,-0.49988 0.62109,-0.87195 h 3.41016 c -0.0859,0.75781 -0.48047,1.52734 -1.1836,2.30859 -1.09375,1.24219 -2.625,1.86329 -4.59375,1.86329 -1.625,0 -3.05859,-0.52295 -4.30078,-1.56885 -1.24218,-1.04615 -1.86328,-2.74781 -1.86328,-5.10498 0,-2.20899 0.56055,-3.90284 1.68164,-5.08155 1.1211,-1.17871 2.57617,-1.76806 4.36524,-1.76806 m 0.23438,0 z"
         style="fill:#008000;stroke-width:24" />
      <path
         id="use119"
         d="m 239.48016,346.70844 c 0.0703,0.59741 0.22264,1.02185 0.45703,1.27331 0.41406,0.448 1.17969,0.672 2.29687,0.672 0.65625,0 1.17774,-0.098 1.56445,-0.29407 0.38672,-0.19629 0.58008,-0.4906 0.58008,-0.88293 0,-0.37647 -0.15624,-0.66284 -0.46875,-0.85913 -0.3125,-0.19606 -1.47265,-0.53113 -3.48047,-1.00525 -1.44531,-0.35767 -2.46484,-0.80591 -3.05859,-1.34473 -0.59375,-0.531 -0.89062,-1.29626 -0.89062,-2.29577 0,-1.17896 0.46289,-2.19202 1.38867,-3.03919 0.92578,-0.84741 2.22851,-1.27112 3.9082,-1.27112 1.59375,0 2.89258,0.31922 3.89649,0.95765 1.0039,0.63842 1.58007,1.74108 1.72851,3.30798 h -3.33984 c -0.0469,-0.43262 -0.16798,-0.77478 -0.36328,-1.02649 -0.36719,-0.4563 -0.99219,-0.68445 -1.875,-0.68445 -0.72657,0 -1.24414,0.11376 -1.55274,0.34131 -0.30859,0.22754 -0.46289,0.49426 -0.46289,0.80017 0,0.38428 0.16406,0.66272 0.49219,0.83533 0.32812,0.18041 1.48828,0.48828 3.48047,0.92358 1.32812,0.31104 2.32421,0.78284 2.98828,1.41541 0.65625,0.64038 0.98437,1.44079 0.98437,2.40124 0,1.2649 -0.4707,2.29761 -1.41211,3.09815 -0.9414,0.80029 -2.39648,1.20044 -4.36523,1.20044 -2.00782,0 -3.49024,-0.42493 -4.44727,-1.27478 -0.95703,-0.84986 -1.43554,-1.93274 -1.43554,-3.24866 h 3.38671 m 2.55469,-9.04688 z"
         style="fill:#008000;stroke-width:24" />
      <path
         id="use120"
         d="M 248.664,350.81 Z"
         style="fill:#008000;stroke-width:24" />
      <path
         id="use121"
         d="m 262.37897,348.09125 c 0.78125,0 1.44141,-0.29627 1.98047,-0.88879 0.53906,-0.59278 0.80859,-1.53675 0.80859,-2.83191 0,-1.21656 -0.25586,-2.1427 -0.76758,-2.77845 -0.51172,-0.63598 -1.19726,-0.95397 -2.05664,-0.95397 -1.17187,0 -1.98047,0.55334 -2.42578,1.66003 -0.23438,0.58887 -0.35156,1.31494 -0.35156,2.17822 0,0.74585 0.12499,1.40918 0.375,1.98999 0.45312,1.08326 1.26562,1.62488 2.4375,1.62488 m -0.83203,-10.38281 c 0.64062,0 1.19921,0.0984 1.67578,0.29516 0.8125,0.33814 1.46875,0.9596 1.96875,1.86438 v -1.83142 h 3.24609 v 12.11719 c 0,1.64844 -0.27734,2.89063 -0.83203,3.72656 -0.95312,1.4375 -2.78125,2.15625 -5.48437,2.15625 -1.63282,0 -2.96485,-0.32128 -3.9961,-0.96386 -1.03125,-0.64258 -1.60156,-1.60254 -1.71094,-2.87989 h 3.63282 c 0.0937,0.39405 0.24609,0.67786 0.45703,0.85145 0.35937,0.30737 0.96484,0.46105 1.81641,0.46105 1.20312,0 2.00781,-0.40063 2.41406,-1.2019 0.26562,-0.51318 0.39844,-1.37659 0.39844,-2.59021 v -0.81665 c -0.32032,0.54468 -0.66407,0.95312 -1.03125,1.22534 -0.66407,0.50561 -1.52735,0.75842 -2.58985,0.75842 -1.64062,0 -2.95117,-0.57763 -3.93164,-1.73291 -0.98047,-1.15552 -1.4707,-2.72033 -1.4707,-4.69446 0,-1.90356 0.47265,-3.50354 1.41797,-4.79992 0.94531,-1.29639 2.28515,-1.94458 4.01953,-1.94458 m 1.0664,0 z"
         style="fill:#008000;stroke-width:24" />
      <path
         id="use122"
         d="m 274.99219,336.51313 h -3.38672 v -3.09376 h 3.38672 v 3.09376 m -3.38672,1.52343 h 3.38672 V 350.81 h -3.38672 z"
         style="fill:#008000;stroke-width:24" />
      <path
         id="use123"
         d="m 286.12959,338.03656 h 3.58594 L 285.11006,350.81 h -3.52734 l -4.58203,-12.77344 h 3.75 l 2.66015,9.42188 z"
         style="fill:#008000;stroke-width:24" />
      <path
         id="use124"
         d="m 296.63766,340.4975 c -0.77344,0 -1.37305,0.23585 -1.79883,0.70752 -0.42578,0.47168 -0.69336,1.11084 -0.80274,1.91748 h 5.19141 c -0.0547,-0.85986 -0.32227,-1.51233 -0.80274,-1.9574 -0.48046,-0.44506 -1.07617,-0.6676 -1.78711,-0.6676 m 0,-2.78906 c 1.0625,0 2.01953,0.19898 2.8711,0.59692 0.85156,0.39771 1.55468,1.02564 2.10937,1.88379 0.5,0.75659 0.82422,1.63416 0.97266,2.63269 0.0859,0.58496 0.1211,1.42737 0.10548,2.52722 h -8.7422 c 0.0469,1.27661 0.44922,2.17176 1.20703,2.68543 0.46094,0.31909 1.01563,0.47864 1.66407,0.47864 0.6875,0 1.24609,-0.19373 1.67578,-0.58118 0.23438,-0.20923 0.4414,-0.49988 0.62109,-0.87195 h 3.41016 c -0.0859,0.75781 -0.48047,1.52734 -1.1836,2.30859 -1.09375,1.24219 -2.625,1.86329 -4.59375,1.86329 -1.625,0 -3.05859,-0.52295 -4.30078,-1.56885 -1.24218,-1.04615 -1.86328,-2.74781 -1.86328,-5.10498 0,-2.20899 0.56055,-3.90284 1.68164,-5.08155 1.1211,-1.17871 2.57617,-1.76806 4.36524,-1.76806 m 0.23438,0 z"
         style="fill:#008000;stroke-width:24" />
      <path
         id="use125"
         d="m 311.97272,337.70844 c 1.32031,0 2.40039,0.34717 3.24023,1.0415 0.83985,0.69409 1.25977,1.84302 1.25977,3.44678 V 350.81 h -3.42188 v -7.77832 c 0,-0.67261 -0.0899,-1.18884 -0.26953,-1.54871 -0.32812,-0.65698 -0.95312,-0.98547 -1.875,-0.98547 -1.13281,0 -1.91015,0.48096 -2.33203,1.44287 -0.21876,0.50855 -0.32813,1.15784 -0.32813,1.94788 V 350.81 h -3.32812 v -12.77344 h 3.22266 v 1.87207 c 0.42969,-0.65893 0.83593,-1.13354 1.21875,-1.42382 0.6875,-0.51758 1.55859,-0.77637 2.61328,-0.77637 m -1.23047,0 z"
         style="fill:#008000;stroke-width:24" />
    </g>
  </g>
</svg>
