<?xml version="1.0" encoding="UTF-8" standalone="no"?>
<!-- Created with Inkscape (http://www.inkscape.org/) -->

<svg
   width="550"
   height="80"
   viewBox="0 0 145.52082 21.166666"
   version="1.1"
   id="svg1"
   sodipodi:docname="notice2.svg"
   inkscape:version="1.1 (c68e22c387, 2021-05-23)"
   xmlns:inkscape="http://www.inkscape.org/namespaces/inkscape"
   xmlns:sodipodi="http://sodipodi.sourceforge.net/DTD/sodipodi-0.dtd"
   xmlns="http://www.w3.org/2000/svg"
   xmlns:svg="http://www.w3.org/2000/svg">
  <sodipodi:namedview
     id="namedview1"
     pagecolor="#505050"
     bordercolor="#ffffff"
     borderopacity="1"
     inkscape:showpageshadow="0"
     inkscape:pageopacity="0"
     inkscape:pagecheckerboard="1"
     inkscape:deskcolor="#d1d1d1"
     inkscape:document-units="mm"
     inkscape:zoom="2.0208096"
     inkscape:cx="1487.0278"
     inkscape:cy="74.227676"
     inkscape:window-width="1920"
     inkscape:window-height="1094"
     inkscape:window-x="-11"
     inkscape:window-y="-11"
     inkscape:window-maximized="1"
     inkscape:current-layer="layer1"
     inkscape:pageshadow="0"
     showgrid="false" />
  <defs
     id="defs1">
    <clipPath
       id="clip_0">
      <path
         transform="matrix(1,0,0,-1,0,841.92)"
         d="M 8.871e-6,0 H 595.32 V 841.92 H 8.871e-6 Z"
         fill-rule="evenodd"
         id="path1" />
    </clipPath>
    <clipPath
       id="clip_2">
      <path
         transform="matrix(1,0,0,-1,0,841.92)"
         d="M 8.871e-6,0 H 595.32 V 841.92 H 8.871e-6 Z"
         fill-rule="evenodd"
         id="path2" />
    </clipPath>
    <clipPath
       id="clip_3">
      <path
         transform="matrix(1,0,0,-1,0,841.92)"
         d="M 8.871e-6,0 H 595.32 V 841.92 H 8.871e-6 Z"
         fill-rule="evenodd"
         id="path3" />
    </clipPath>
    <clipPath
       id="clip_4">
      <path
         transform="matrix(1,0,0,-1,0,841.92)"
         d="M 8.871e-6,0 H 595.32 V 841.92 H 8.871e-6 Z"
         fill-rule="evenodd"
         id="path4" />
    </clipPath>
    <clipPath
       id="clip_5">
      <path
         transform="matrix(1,0,0,-1,0,841.92)"
         d="M 8.871e-6,0 H 595.32 V 841.92 H 8.871e-6 Z"
         fill-rule="evenodd"
         id="path5" />
    </clipPath>
    <clipPath
       id="clip_14">
      <path
         transform="matrix(1,0,0,-1,0,841.92)"
         d="M 8.871e-6,0 H 595.32 V 841.92 H 8.871e-6 Z"
         fill-rule="evenodd"
         id="path12" />
    </clipPath>
    <clipPath
       id="clip_7">
      <path
         transform="matrix(1,0,0,-1,0,841.92)"
         d="M.000008871 0H595.32V841.92H.000008871Z"
         fill-rule="evenodd"
         id="path6" />
    </clipPath>
    <clipPath
       id="clip_23">
      <path
         transform="matrix(1,0,0,-1,0,841.92)"
         d="M.000008871 0H595.32V841.92H.000008871Z"
         fill-rule="evenodd"
         id="path19" />
    </clipPath>
    <clipPath
       id="clip_10">
      <path
         transform="matrix(1,0,0,-1,0,841.92)"
         d="M.000008871 0H595.32V841.92H.000008871Z"
         fill-rule="evenodd"
         id="path8" />
    </clipPath>
    <clipPath
       id="clip_25">
      <path
         transform="matrix(1,0,0,-1,0,841.92)"
         d="M.000008871 0H595.32V841.92H.000008871Z"
         fill-rule="evenodd"
         id="path21" />
    </clipPath>
  </defs>
  <g
     inkscape:label="Layer 1"
     inkscape:groupmode="layer"
     id="layer1">
    <g
       clip-path="url(#clip_7)"
       id="g39"
       transform="matrix(0.32768041,0,0,0.32768041,-8.7971276,-33.375371)">
      <path
         id="use37"
         d="m 91.24275,116.08716 c 0.5625,0.57812 1.203125,1.46093 1.921875,2.64844 l 1.546875,-1.03126 c -0.671876,-1.14062 -1.328124,-2.05468 -1.968752,-2.74218 l -1.5,1.125 m 8.648439,-1.05469 c -0.296874,0.71875 -0.804687,1.64063 -1.523437,2.76563 l 1.593749,0.96093 c 0.718751,-1.04687 1.242191,-2 1.570311,-2.85937 l -1.640623,-0.86719 m -3.609374,5.10937 c 1.515624,0.81251 2.8125,1.59376 3.890627,2.34376 l 0.91406,-1.73438 c -1.265626,-0.75 -2.562501,-1.42187 -3.890626,-2.01562 0.281252,-0.84375 0.421875,-1.42188 0.421875,-1.73438 v -2.08593 h -1.851564 v 2.08593 c -0.04687,0.9375 -0.437501,1.6875 -1.171875,2.25 -0.75,0.60938 -1.90625,1.125 -3.46875,1.54688 l 0.914065,1.78124 c 1.96875,-0.67187 3.382812,-1.48437 4.242188,-2.4375 m 5.742187,-4.19531 c 0.4375,0.70313 0.89063,1.6875 1.35937,2.95313 l 1.73438,-0.72656 c -0.4375,-1.23438 -0.90625,-2.25 -1.40625,-3.04688 l -1.6875,0.82031 m 8.13281,-0.79687 c -0.25,0.71875 -0.71093,1.64843 -1.38281,2.78906 l 1.64063,0.89062 c 0.65624,-1.07812 1.13281,-2.03906 1.42968,-2.88281 l -1.6875,-0.79687 m 0.375,7.5 H 91.61775 c -0.234374,0 -0.351563,0.11719 -0.351563,0.35156 v 4.73437 h 1.851563 v -3.04687 c 0,-0.10937 0.0625,-0.17186 0.187512,-0.18751 h 17.507818 c 0.15624,0 0.23438,0.0937 0.23438,0.28125 -0.0157,0.25001 -0.2344,1.02345 -0.65627,2.32032 l 1.75781,0.63281 c 0.57813,-1.65624 0.94531,-3.07031 1.10156,-4.24218 l -1.6875,-0.84375 h -0.44531 l 0.91406,-1.28907 c -1.45312,-1.07812 -2.94531,-2.07031 -4.47656,-2.97656 0.10937,-0.4375 0.17186,-0.83594 0.18751,-1.19531 v -2.36719 h -1.85157 v 2.36719 c -0.0625,1.21875 -0.75781,2.22656 -2.08594,3.02344 -0.46875,0.25 -1.03125,0.47656 -1.6875,0.67968 l 1.07812,1.6875 c 1.70313,-0.70312 2.92969,-1.59374 3.67969,-2.67187 1.42188,0.95312 2.64063,1.86719 3.65625,2.74219 M 94.7115,136.12622 h 14.64844 v 0.91406 h 1.85156 v -5.36719 c 0,-0.42187 -0.21876,-0.63281 -0.65625,-0.63281 h -9.07031 l 0.44531,-1.24219 h 7.24219 c 0.15624,0 0.24219,-0.0859 0.25781,-0.25781 v -4.07812 c 0,-0.15624 -0.0859,-0.23439 -0.25781,-0.23439 H 94.781813 c -0.15624,0 -0.234384,0.0781 -0.234384,0.23439 v 4.07812 c 0,0.15624 0.07812,0.24219 0.234384,0.25782 H 99.9615 l -0.445313,1.24218 h -6.046874 c -0.390627,0 -0.593751,0.20313 -0.609375,0.60938 v 5.39062 H 94.7115 v -0.91406 m 0,-1.75781 v -1.3125 c -0.01563,-0.15625 0.07032,-0.24219 0.257813,-0.25781 h 14.109377 c 0.18751,0 0.28125,0.0859 0.28125,0.25781 v 1.3125 H 94.7115 m 12.77344,-7.57031 c 0.0625,0 0.0937,0.0234 0.0937,0.0703 v 1.26562 c 0,0.0469 -0.0312,0.0781 -0.0937,0.0937 H 96.469313 c -0.0625,-0.0156 -0.08594,-0.0469 -0.07032,-0.0937 v -1.26562 c -0.01563,-0.0469 0.0078,-0.0703 0.07032,-0.0703 z"
         style="fill:#008000;stroke-width:24" />
      <path
         id="use38"
         d="m 127.78181,132.28247 v 2.15625 h 1.94532 v -2.15625 h 6.79687 v -1.85156 h -6.79687 v -1.33594 h 5.25 c 0.18751,0 0.28124,-0.0937 0.28124,-0.28125 v -6.9375 c 0,-0.15624 -0.0937,-0.24219 -0.28124,-0.25781 h -5.25 v -1.19531 h 4.54687 v -1.75782 h -4.54687 v -1.42968 h 5.22656 c 0.15624,0 0.23438,0.0937 0.23438,0.28124 -0.0156,0.29688 -0.23438,1.10157 -0.65626,2.41407 l 1.85156,0.60937 c 0.53126,-1.64062 0.82813,-3.0625 0.89063,-4.26562 l -1.59375,-0.79688 h -14.67187 c -0.23439,0 -0.35157,0.11719 -0.35157,0.35156 v 4.40626 h 1.94532 v -2.8125 c 0,-0.10937 0.0625,-0.17187 0.18751,-0.18752 h 4.99217 v 1.4297 h -4.40625 v 1.75782 h 4.40625 v 1.19531 h -5.36718 c -0.15624,0 -0.24219,0.0859 -0.25782,0.25781 v 6.9375 c 0,0.18751 0.086,0.28125 0.25782,0.28125 h 5.36718 v 1.33594 h -6.65625 v 1.85156 h 6.65625 m 0,-4.85156 h -3.60937 c -0.0625,-0.0156 -0.0859,-0.0469 -0.0703,-0.0937 v -1.19531 h 3.67969 v 1.28906 m 1.94532,-1.28906 h 3.58593 v 1.19531 c 0,0.0469 -0.0312,0.0781 -0.0937,0.0937 h -3.49219 v -1.28906 m -1.94532,-1.57032 h -3.67968 v -1.21875 c -0.0156,-0.0469 0.008,-0.0703 0.0703,-0.0703 h 3.60936 v 1.28907 m 1.94532,-1.28907 h 3.49218 c 0.0625,0 0.0937,0.0234 0.0937,0.0703 v 1.21875 h -3.58593 v -1.28906 m -14.01563,-6.28125 c 0.95312,0.48437 2.10938,1.29687 3.46875,2.4375 l 1.24219,-1.66406 c -1.28125,-1.09375 -2.46875,-1.92188 -3.5625,-2.48438 l -1.14844,1.71094 m -0.46875,4.54687 c 0.95312,0.53125 2.13281,1.42188 3.53906,2.67188 l 1.28906,-1.61719 c -1.32812,-1.1875 -2.53906,-2.09375 -3.63281,-2.71875 l -1.19531,1.66406 m 2.83594,10.05469 c -0.0625,0.8125 -0.32813,1.5 -0.79688,2.0625 -0.42187,0.48438 -1.25781,0.95313 -2.50781,1.40625 l 0.86719,1.89844 c 0.71875,-0.20314 1.4375,-0.59375 2.15625,-1.17187 0.71875,-0.5625 1.20312,-1.08594 1.45312,-1.57032 1.17188,1.64063 3.52344,2.46875 7.05469,2.48438 3.15625,0.0469 6.51562,0.0937 10.07812,0.14061 l 0.49219,-2.29687 c -7.84375,0.29688 -12.42969,0.27344 -13.75781,-0.0703 -1.07812,-0.375 -1.82812,-0.79688 -2.25,-1.26563 -0.34375,-0.34375 -0.59375,-0.6875 -0.75,-1.03125 v -6.39844 c 0,-0.34375 -0.17186,-0.51562 -0.51563,-0.51562 h -4.17187 v 2.03906 h 2.39063 c 0.15624,0 0.24218,0.0937 0.25781,0.28125 z"
         style="fill:#008000;stroke-width:24" />
      <path
         id="use39"
         d="m 141.63338,130.40747 h 7.33593 v 6.5625 h 2.13282 v -6.5625 h 7.24218 v 1.05469 h 2.13282 v -11.76563 c 0,-0.48437 -0.25782,-0.73437 -0.77344,-0.75 h -8.60156 v -4.03125 h -2.13282 v 4.03125 h -8.74218 c -0.48438,0 -0.72657,0.24219 -0.72657,0.72657 v 11.78906 h 2.13282 v -1.05469 m 9.46875,-2.13281 v -7.19532 h 6.91406 c 0.20313,0 0.3125,0.10157 0.32812,0.30469 v 6.89063 h -7.24218 m -9.46875,0 v -6.89063 c -0.0156,-0.20313 0.0859,-0.30468 0.30468,-0.30468 h 7.03125 v 7.19531 z"
         style="fill:#008000;stroke-width:24" />
    </g>
    <g
       clip-path="url(#clip_23)"
       id="g106"
       transform="matrix(0.21827187,0,0,0.21827187,1.0755867,-51.981954)">
      <path
         id="use97"
         d="m 95.156813,314.81 h -3.585938 v -17.27344 h 3.585938 V 314.81 m -1.792968,-17.27344 z"
         style="fill:#008000;stroke-width:24" />
      <path
         id="use98"
         d="m 105.30873,301.70844 c 1.32031,0 2.40039,0.34717 3.24023,1.0415 0.83984,0.69409 1.25977,1.84302 1.25977,3.44678 V 314.81 h -3.42188 v -7.77832 c 0,-0.67261 -0.0898,-1.18884 -0.26953,-1.54871 -0.32813,-0.65698 -0.95312,-0.98547 -1.875,-0.98547 -1.13281,0 -1.91016,0.48096 -2.33203,1.44287 -0.21876,0.50855 -0.32813,1.15784 -0.32813,1.94788 V 314.81 h -3.328121 v -12.77344 h 3.222661 v 1.87207 c 0.42968,-0.65893 0.83593,-1.13354 1.21875,-1.42382 0.6875,-0.51758 1.55859,-0.77637 2.61328,-0.77637 m -1.23047,0 z"
         style="fill:#008000;stroke-width:24" />
      <path
         id="use99"
         d="M 111.31201,314.81 Z"
         style="fill:#008000;stroke-width:24" />
      <path
         id="use100"
         d="m 122.24017,310.70844 c 0.0703,0.59741 0.22264,1.02185 0.45703,1.27331 0.41406,0.448 1.17969,0.672 2.29687,0.672 0.65625,0 1.17774,-0.098 1.56445,-0.29407 0.38672,-0.19629 0.58008,-0.4906 0.58008,-0.88293 0,-0.37647 -0.15624,-0.66284 -0.46875,-0.85913 -0.3125,-0.19606 -1.47265,-0.53113 -3.48047,-1.00525 -1.44531,-0.35767 -2.46484,-0.80591 -3.05859,-1.34473 -0.59375,-0.531 -0.89062,-1.29626 -0.89062,-2.29577 0,-1.17896 0.46289,-2.19202 1.38867,-3.03919 0.92578,-0.84741 2.22851,-1.27112 3.9082,-1.27112 1.59375,0 2.89258,0.31922 3.89649,0.95765 1.0039,0.63842 1.58007,1.74108 1.72851,3.30798 h -3.33984 c -0.0469,-0.43262 -0.16798,-0.77478 -0.36328,-1.02649 -0.36719,-0.4563 -0.99219,-0.68445 -1.875,-0.68445 -0.72657,0 -1.24414,0.11376 -1.55274,0.34131 -0.30859,0.22754 -0.46289,0.49426 -0.46289,0.80017 0,0.38428 0.16406,0.66272 0.49219,0.83533 0.32812,0.18041 1.48828,0.48828 3.48047,0.92358 1.32812,0.31104 2.32421,0.78284 2.98828,1.41541 0.65625,0.64038 0.98437,1.44079 0.98437,2.40124 0,1.2649 -0.4707,2.29761 -1.41211,3.09815 -0.9414,0.80029 -2.39648,1.20044 -4.36523,1.20044 -2.00782,0 -3.49024,-0.42493 -4.44727,-1.27478 -0.95703,-0.84986 -1.43554,-1.93274 -1.43554,-3.24866 h 3.38671 m 2.55469,-9.04688 z"
         style="fill:#008000;stroke-width:24" />
      <path
         id="use101"
         d="m 138.02167,304.4975 c -0.77344,0 -1.37305,0.23585 -1.79883,0.70752 -0.42578,0.47168 -0.69336,1.11084 -0.80274,1.91748 h 5.19141 c -0.0547,-0.85986 -0.32227,-1.51233 -0.80274,-1.9574 -0.48046,-0.44506 -1.07617,-0.6676 -1.78711,-0.6676 m 0,-2.78906 c 1.0625,0 2.01953,0.19898 2.8711,0.59692 0.85156,0.39771 1.55468,1.02564 2.10937,1.88379 0.5,0.75659 0.82422,1.63416 0.97266,2.63269 0.0859,0.58496 0.1211,1.42737 0.10548,2.52722 h -8.7422 c 0.0469,1.27661 0.44922,2.17176 1.20703,2.68543 0.46094,0.31909 1.01563,0.47864 1.66407,0.47864 0.6875,0 1.24609,-0.19373 1.67578,-0.58118 0.23438,-0.20923 0.4414,-0.49988 0.62109,-0.87195 h 3.41016 c -0.0859,0.75781 -0.48047,1.52734 -1.1836,2.30859 -1.09375,1.24219 -2.625,1.86329 -4.59375,1.86329 -1.625,0 -3.05859,-0.52295 -4.30078,-1.56885 -1.24218,-1.04615 -1.86328,-2.74781 -1.86328,-5.10498 0,-2.20899 0.56055,-3.90284 1.68164,-5.08155 1.1211,-1.17871 2.57617,-1.76806 4.36524,-1.76806 m 0.23438,0 z"
         style="fill:#008000;stroke-width:24" />
      <path
         id="use102"
         d="m 153.21609,301.70844 c 0.0625,0 0.11523,0.002 0.15821,0.006 0.043,0.004 0.13867,0.01 0.28711,0.0176 v 3.42188 c -0.21093,-0.0188 -0.39844,-0.0312 -0.5625,-0.0373 -0.16406,-0.006 -0.29687,-0.01 -0.39844,-0.01 -1.34375,0 -2.24609,0.43799 -2.70703,1.31397 -0.25781,0.49291 -0.38672,1.2517 -0.38672,2.27636 V 314.81 h -3.36328 v -12.77344 h 3.1875 v 2.21814 c 0.51562,-0.85669 0.96484,-1.44214 1.34765,-1.75634 0.625,-0.52662 1.4375,-0.78992 2.4375,-0.78992 z"
         style="fill:#008000;stroke-width:24" />
      <path
         id="use103"
         d="m 163.44159,302.03656 h 3.58594 L 162.42206,314.81 h -3.52734 l -4.58203,-12.77344 h 3.75 l 2.66015,9.42188 z"
         style="fill:#008000;stroke-width:24" />
      <path
         id="use104"
         d="m 172.34418,300.51313 h -3.38672 v -3.09376 h 3.38672 v 3.09376 m -3.38672,1.52343 h 3.38672 V 314.81 h -3.38672 z"
         style="fill:#008000;stroke-width:24" />
      <path
         id="use105"
         d="m 183.28348,306.60687 c -0.0625,-0.47656 -0.22265,-0.90624 -0.48047,-1.28906 -0.375,-0.51562 -0.95703,-0.77344 -1.74609,-0.77344 -1.125,0 -1.89453,0.5586 -2.3086,1.67579 -0.21876,0.59155 -0.32812,1.3778 -0.32812,2.35876 0,0.93408 0.10937,1.6853 0.32812,2.25366 0.39844,1.07349 1.14844,1.61023 2.25,1.61023 0.78126,0 1.33594,-0.21313 1.66407,-0.6394 0.32812,-0.42627 0.52734,-0.97876 0.59765,-1.65747 h 3.41016 c -0.0781,1.01806 -0.44531,1.9812 -1.10156,2.8894 -1.04688,1.46436 -2.59766,2.19654 -4.65235,2.19654 -2.05469,0 -3.5664,-0.60889 -4.53515,-1.82667 -0.96875,-1.21777 -1.45313,-2.79797 -1.45313,-4.7406 0,-2.19213 0.53516,-3.89953 1.60547,-5.12219 1.07031,-1.22266 2.54688,-1.83398 4.42969,-1.83398 1.60156,0 2.91211,0.36023 3.93164,1.08069 1.01953,0.72046 1.62304,1.99304 1.81054,3.81775 h -3.42187 m -2.26172,-4.89844 z"
         style="fill:#008000;stroke-width:24" />
      <path
         id="use106"
         d="m 194.03763,304.4975 c -0.77344,0 -1.37305,0.23585 -1.79883,0.70752 -0.42578,0.47168 -0.69336,1.11084 -0.80274,1.91748 h 5.19141 c -0.0547,-0.85986 -0.32227,-1.51233 -0.80274,-1.9574 -0.48046,-0.44506 -1.07617,-0.6676 -1.78711,-0.6676 m 0,-2.78906 c 1.0625,0 2.01953,0.19898 2.8711,0.59692 0.85156,0.39771 1.55468,1.02564 2.10937,1.88379 0.5,0.75659 0.82422,1.63416 0.97266,2.63269 0.0859,0.58496 0.1211,1.42737 0.10548,2.52722 h -8.7422 c 0.0469,1.27661 0.44922,2.17176 1.20703,2.68543 0.46094,0.31909 1.01563,0.47864 1.66407,0.47864 0.6875,0 1.24609,-0.19373 1.67578,-0.58118 0.23438,-0.20923 0.4414,-0.49988 0.62109,-0.87195 h 3.41016 c -0.0859,0.75781 -0.48047,1.52734 -1.1836,2.30859 -1.09375,1.24219 -2.625,1.86329 -4.59375,1.86329 -1.625,0 -3.05859,-0.52295 -4.30078,-1.56885 -1.24218,-1.04615 -1.86328,-2.74781 -1.86328,-5.10498 0,-2.20899 0.56055,-3.90284 1.68164,-5.08155 1.1211,-1.17871 2.57617,-1.76806 4.36524,-1.76806 m 0.23438,0 z"
         style="fill:#008000;stroke-width:24" />
    </g>
  </g>
</svg>
