<?xml version="1.0" encoding="UTF-8" standalone="no"?>
<!-- Created with Inkscape (http://www.inkscape.org/) -->

<svg
   width="165"
   height="80"
   viewBox="0 0 43.656244 21.166666"
   version="1.1"
   id="svg1"
   sodipodi:docname="fare_notice - Copy.svg"
   inkscape:version="1.4.2 (f4327f4, 2025-05-13)"
   xmlns:inkscape="http://www.inkscape.org/namespaces/inkscape"
   xmlns:sodipodi="http://sodipodi.sourceforge.net/DTD/sodipodi-0.dtd"
   xmlns="http://www.w3.org/2000/svg"
   xmlns:svg="http://www.w3.org/2000/svg">
  <sodipodi:namedview
     id="namedview1"
     pagecolor="#505050"
     bordercolor="#ffffff"
     borderopacity="1"
     inkscape:showpageshadow="0"
     inkscape:pageopacity="0"
     inkscape:pagecheckerboard="1"
     inkscape:deskcolor="#d1d1d1"
     inkscape:document-units="mm"
     inkscape:zoom="2.8578563"
     inkscape:cx="129.99254"
     inkscape:cy="38.665344"
     inkscape:window-width="1920"
     inkscape:window-height="1009"
     inkscape:window-x="1912"
     inkscape:window-y="-8"
     inkscape:window-maximized="1"
     inkscape:current-layer="layer1" />
  <defs
     id="defs1">
    <clipPath
       id="clip_0">
      <path
         transform="matrix(1,0,0,-1,0,841.92)"
         d="M 8.871e-6,0 H 595.32 V 841.92 H 8.871e-6 Z"
         fill-rule="evenodd"
         id="path1" />
    </clipPath>
    <clipPath
       id="clip_2">
      <path
         transform="matrix(1,0,0,-1,0,841.92)"
         d="M 8.871e-6,0 H 595.32 V 841.92 H 8.871e-6 Z"
         fill-rule="evenodd"
         id="path2" />
    </clipPath>
    <clipPath
       id="clip_3">
      <path
         transform="matrix(1,0,0,-1,0,841.92)"
         d="M 8.871e-6,0 H 595.32 V 841.92 H 8.871e-6 Z"
         fill-rule="evenodd"
         id="path3" />
    </clipPath>
    <clipPath
       id="clip_4">
      <path
         transform="matrix(1,0,0,-1,0,841.92)"
         d="M 8.871e-6,0 H 595.32 V 841.92 H 8.871e-6 Z"
         fill-rule="evenodd"
         id="path4" />
    </clipPath>
    <clipPath
       id="clip_5">
      <path
         transform="matrix(1,0,0,-1,0,841.92)"
         d="M 8.871e-6,0 H 595.32 V 841.92 H 8.871e-6 Z"
         fill-rule="evenodd"
         id="path5" />
    </clipPath>
    <clipPath
       id="clip_14">
      <path
         transform="matrix(1,0,0,-1,0,841.92)"
         d="M 8.871e-6,0 H 595.32 V 841.92 H 8.871e-6 Z"
         fill-rule="evenodd"
         id="path12" />
    </clipPath>
    <clipPath
       id="clip_7">
      <path
         transform="matrix(1,0,0,-1,0,841.92)"
         d="M 8.871e-6,0 H 595.32 V 841.92 H 8.871e-6 Z"
         fill-rule="evenodd"
         id="path6" />
    </clipPath>
    <clipPath
       id="clip_23">
      <path
         transform="matrix(1,0,0,-1,0,841.92)"
         d="M 8.871e-6,0 H 595.32 V 841.92 H 8.871e-6 Z"
         fill-rule="evenodd"
         id="path19" />
    </clipPath>
    <clipPath
       id="clip_10">
      <path
         transform="matrix(1,0,0,-1,0,841.92)"
         d="M 8.871e-6,0 H 595.32 V 841.92 H 8.871e-6 Z"
         fill-rule="evenodd"
         id="path8" />
    </clipPath>
    <clipPath
       id="clip_25">
      <path
         transform="matrix(1,0,0,-1,0,841.92)"
         d="M 8.871e-6,0 H 595.32 V 841.92 H 8.871e-6 Z"
         fill-rule="evenodd"
         id="path21" />
    </clipPath>
    <clipPath
       id="clip_12">
      <path
         transform="matrix(1,0,0,-1,0,841.92)"
         d="M 8.871e-6,0 H 595.32 V 841.92 H 8.871e-6 Z"
         fill-rule="evenodd"
         id="path10" />
    </clipPath>
    <clipPath
       id="clip_20">
      <path
         transform="matrix(1,0,0,-1,0,841.92)"
         d="M 8.871e-6,0 H 595.32 V 841.92 H 8.871e-6 Z"
         fill-rule="evenodd"
         id="path16" />
    </clipPath>
    <clipPath
       id="clip_18">
      <path
         transform="matrix(1,0,0,-1,0,841.92)"
         d="M 8.871e-6,0 H 595.32 V 841.92 H 8.871e-6 Z"
         fill-rule="evenodd"
         id="path14" />
    </clipPath>
    <clipPath
       id="clip_21">
      <path
         transform="matrix(1,0,0,-1,0,841.92)"
         d="M 8.871e-6,0 H 595.32 V 841.92 H 8.871e-6 Z"
         fill-rule="evenodd"
         id="path17" />
    </clipPath>
  </defs>
  <g
     inkscape:label="Layer 1"
     inkscape:groupmode="layer"
     id="layer1">
    <g
       id="g2"
       transform="translate(-43.346285,0.01279483)">
      <path
         d="m 44.808702,4.6375048 h 1.02658 V 9.802155 q 0,0.328082 0.105833,0.507998 0.105833,0.169333 0.402166,0.232833 0.296332,0.05292 0.878414,0.05292 0.158749,0 0.529165,0 0.370415,0 0.83608,0 0.476249,0 0.952497,0 0.486832,0 0.878414,0 0.391582,0 0.592665,0 0.433915,0 0.687914,-0.07408 0.264583,-0.07408 0.412749,-0.285749 0.148166,-0.222249 0.222249,-0.6032478 0.07408,-0.3809988 0.137583,-0.9948302 0.137583,0.084666 0.317499,0.1693328 0.179916,0.074083 0.359832,0.1375829 0.1905,0.0635 0.338666,0.09525 -0.08467,0.7302477 -0.222249,1.2276623 -0.137583,0.497415 -0.402166,0.783164 -0.264582,0.285749 -0.709081,0.412749 -0.433915,0.127 -1.12183,0.127 -0.116416,0 -0.412748,0 -0.285749,0 -0.677331,0 -0.391583,0 -0.814915,0 -0.423331,0 -0.814914,0 -0.380998,0 -0.666747,0 -0.28575,0 -0.391583,0 -0.93133,0 -1.471078,-0.15875 -0.529165,-0.148166 -0.751414,-0.529165 -0.22225,-0.391582 -0.22225,-1.111246 z m 0.582082,1.6086615 h 6.074814 V 7.2304132 H 45.390784 Z M 44.311287,2.7007609 h 7.810475 v 5.048234 H 51.074016 V 3.6850078 h -6.762729 z m 13.282041,1.693328 h 6.487563 v 1.0054134 h -6.487563 z m 4.190987,-2.2119096 h 1.037163 v 8.4243067 q 0,0.518581 -0.148166,0.761997 -0.148166,0.254 -0.486832,0.370416 -0.338665,0.116416 -0.920747,0.137583 -0.582081,0.03175 -1.449912,0.02117 -0.02117,-0.137583 -0.09525,-0.317499 -0.0635,-0.179916 -0.148166,-0.359832 -0.07408,-0.179916 -0.148166,-0.317499 0.433915,0.02117 0.846664,0.03175 0.412749,0 0.719664,0 0.317499,-0.01058 0.444499,-0.01058 0.190499,-0.01058 0.264582,-0.07408 0.08467,-0.07408 0.08467,-0.243416 z m -3.598322,4.593152 0.867831,-0.4127487 q 0.264582,0.4021654 0.550331,0.8678306 0.296333,0.4550819 0.560915,0.8995805 0.264583,0.4339152 0.423332,0.7514142 L 59.646488,9.378823 Q 59.498322,9.0507407 59.254906,8.6062421 59.01149,8.1511603 58.725741,7.6749118 58.439992,7.18808 58.185993,6.7753313 Z m -2.381242,-1.7356611 0.99483,-1.0054135 0.01058,0.021167 v 7.8104743 h -1.005413 z m 1.100663,-2.9104074 0.984247,0.3069156 Q 57.540412,3.3569255 57.05358,4.256506 56.577331,5.1560865 56.016417,5.9498339 55.455502,6.7435814 54.862837,7.3468295 54.820504,7.2304132 54.704087,7.0399138 54.598254,6.8388311 54.471255,6.6483317 54.354839,6.447249 54.259589,6.3308327 54.788754,5.8228343 55.286169,5.1560865 55.783584,4.4787553 56.196333,3.7061744 56.609081,2.9335935 56.905414,2.1292628 Z m 10.096468,3.0585736 h 5.556232 v 0.9313303 h -5.556232 z m -1.291163,2.2224929 h 8.170307 V 8.320493 h -8.170307 z m -0.497415,3.2808227 h 9.186304 v 0.920747 h -9.186304 z m 4.021654,-5.0799837 h 1.068913 v 5.5244827 h -1.068913 z m -2.719908,3.14324 0.814914,-0.3280823 q 0.211666,0.2751658 0.402165,0.6138314 0.201083,0.3280823 0.359832,0.6561646 0.169333,0.317499 0.243416,0.571498 l -0.86783,0.380999 Q 67.393464,10.39482 67.245297,10.066737 67.097131,9.7386552 66.906632,9.3894063 66.716132,9.0401574 66.51505,8.7544083 Z M 72.155949,8.426326 73.108445,8.7861582 Q 72.812113,9.2835733 72.484031,9.7915717 72.155949,10.29957 71.880783,10.659402 L 71.118785,10.33132 Q 71.298701,10.077321 71.489201,9.7492385 71.6797,9.4105729 71.859616,9.061324 72.039532,8.7120751 72.155949,8.426326 Z M 70.176871,2.563178 q 0.370416,0.4127487 0.899581,0.8254974 0.539748,0.4127487 1.164163,0.7831642 0.624415,0.3598322 1.291162,0.6561646 0.677332,0.2963324 1.31233,0.4868318 -0.105833,0.1058329 -0.243416,0.2645824 -0.137583,0.1587495 -0.253999,0.317499 Q 74.230275,6.0556669 74.145609,6.1932498 73.500028,5.9604172 72.83328,5.6217516 72.177115,5.2830861 71.531534,4.8597541 70.896536,4.4258388 70.335621,3.9495903 69.774706,3.4733418 69.340791,2.9653434 Z M 69.732373,1.95993 70.663703,2.383262 Q 70.081622,3.2722591 69.266708,4.0130901 68.451794,4.7433378 67.47813,5.3042527 66.504467,5.8545842 65.45672,6.235583 65.350887,6.023917 65.160387,5.7699178 64.969888,5.5053353 64.779389,5.314836 65.784802,5.0079203 66.726716,4.5210885 67.668629,4.0342567 68.44121,3.3886754 69.224375,2.7430941 69.732373,1.95993 Z m 5.937231,1.132413 h 4.593152 V 4.9338372 H 79.479592 V 3.8966738 h -3.069157 v 1.0371634 h -0.740831 z m 0.666748,5.5138991 h 3.418406 V 11.855315 H 78.86576 V 9.3999896 h -1.672161 v 2.4659084 h -0.857247 z m 0.306916,2.1589929 h 2.815157 v 0.783164 h -2.815157 z m 0.518581,-6.5933954 0.783164,0.1375829 Q 77.691014,5.0396702 77.246516,5.706418 76.802017,6.3625826 76.103519,6.8917476 76.029436,6.7329981 75.870687,6.5319154 75.72252,6.3308327 75.584938,6.2249997 76.209352,5.8016677 76.590351,5.2619195 76.981933,4.7115879 77.161849,4.1718396 Z m 0.201083,0.7090811 h 1.862661 v 0.7514142 h -2.18016 z m 1.650995,0 h 0.169332 l 0.137583,-0.03175 0.507999,0.3492489 Q 79.458425,6.1614999 78.834011,6.9023309 78.220179,7.6325786 77.447598,8.1511603 76.685601,8.6591586 75.870687,8.9766576 75.81777,8.8602413 75.733104,8.7014918 75.648437,8.5427423 75.553188,8.3945761 75.457938,8.24641 75.373272,8.1617436 76.156436,7.9077444 76.8761,7.4738291 77.606348,7.0293305 78.156679,6.4154991 78.717594,5.8016677 79.013927,5.0396702 Z M 77.288849,2.3620954 78.09318,2.0763463 q 0.137582,0.2963324 0.285749,0.6561645 0.148166,0.3598322 0.232832,0.6138314 L 77.765097,3.6850078 Q 77.701598,3.4310086 77.564015,3.0500098 77.426432,2.669011 77.288849,2.3620954 Z m 3.259656,0.1693327 h 4.677819 v 0.8572473 h -4.677819 z m 1.195913,4.1274869 v 0.8149141 h 2.233076 V 6.658915 Z m 0,1.5557451 V 9.061324 h 2.233076 V 8.2146601 Z m 0,-3.1326567 v 0.8254973 h 2.233076 V 5.0820034 Z m -0.89958,-0.7937475 h 4.085153 V 9.8444882 H 80.844838 Z M 82.432332,2.98651 83.384829,3.1346762 q -0.126999,0.4444986 -0.264582,0.8889972 -0.127,0.4339153 -0.232833,0.7619976 L 82.146583,4.5951716 q 0.07408,-0.3386656 0.15875,-0.7937475 0.08467,-0.4656652 0.126999,-0.8149141 z m -0.444498,6.9532279 0.645581,0.6244151 q -0.465665,0.380998 -1.09008,0.751414 -0.613831,0.370415 -1.142996,0.624415 -0.07408,-0.15875 -0.201083,-0.370416 -0.126999,-0.211666 -0.232832,-0.359832 0.328082,-0.15875 0.709081,-0.370416 0.380999,-0.222249 0.730247,-0.455082 0.349249,-0.243415 0.582082,-0.4444981 z m 1.037163,0.5820811 0.539749,-0.6244143 q 0.296332,0.1799163 0.624414,0.4127483 0.338666,0.232833 0.645581,0.476249 0.317499,0.232832 0.507999,0.423332 l -0.571498,0.698498 Q 84.580742,11.707149 84.28441,11.45315 83.988078,11.209734 83.659995,10.966318 83.331913,10.712319 83.024997,10.521819 Z M 76.643268,6.7329981 77.214766,6.1403333 q 0.359832,0.211666 0.783164,0.4550819 0.423332,0.2434159 0.846664,0.4974151 0.433915,0.2539992 0.804331,0.4974151 0.380998,0.2434159 0.656164,0.423332 l -0.592665,0.709081 Q 79.373759,8.4580759 78.844594,8.1088271 78.315429,7.7595782 77.733347,7.399746 77.151266,7.0293305 76.643268,6.7329981 Z"
         id="text1"
         style="font-weight:500;font-size:10.5833px;line-height:1;font-family:'Noto Sans TC';-inkscape-font-specification:'Noto Sans TC Medium';fill:#282472;stroke-width:0.264583"
         aria-label="已付金額" />
      <path
         style="font-weight:bold;font-size:6.88112px;line-height:1;font-family:Helvetica;-inkscape-font-specification:'Helvetica Bold';fill:#282472;stroke-width:0.172028"
         d="m 47.337946,15.67673 q 0,-0.386391 -0.204956,-0.551027 -0.201595,-0.164636 -0.567826,-0.164636 h -0.964298 v 1.458206 h 0.964298 q 0.366231,0 0.567826,-0.178076 0.204956,-0.178076 0.204956,-0.564467 z m 1.024776,-0.0067 q 0,0.87694 -0.44351,1.239811 -0.44351,0.362872 -1.26669,0.362872 h -1.051656 v 1.780759 H 44.57273 v -4.952525 h 2.15707 q 0.745902,0 1.189412,0.383031 0.44351,0.383031 0.44351,1.186052 z m 2.718177,1.602683 q -0.09072,0.05712 -0.184796,0.09408 -0.09072,0.0336 -0.251994,0.06384 l -0.215035,0.04032 q -0.302393,0.05376 -0.43343,0.131037 -0.221755,0.131037 -0.221755,0.406551 0,0.245274 0.134397,0.356152 0.137757,0.107517 0.332632,0.107517 0.309113,0 0.567827,-0.181436 0.262074,-0.181436 0.272154,-0.661904 z m -0.581267,-0.44687 q 0.265434,-0.0336 0.379671,-0.084 0.204956,-0.08736 0.204956,-0.272153 0,-0.225115 -0.157917,-0.309113 -0.154556,-0.08736 -0.456949,-0.08736 -0.339352,0 -0.480469,0.167996 -0.100798,0.124317 -0.134397,0.335992 h -0.923978 q 0.03024,-0.480469 0.268793,-0.789582 0.379672,-0.483828 1.30365,-0.483828 0.601426,0 1.068455,0.238554 0.46703,0.238555 0.46703,0.900459 v 1.679961 q 0,0.174716 0.0067,0.42335 0.01008,0.188156 0.05712,0.255354 0.04704,0.0672 0.141117,0.110878 v 0.141117 h -1.041576 q -0.04368,-0.110878 -0.06048,-0.208316 -0.0168,-0.09744 -0.02688,-0.221754 -0.198235,0.215035 -0.456949,0.366231 -0.309113,0.178076 -0.698864,0.178076 -0.497269,0 -0.823181,-0.282234 -0.322553,-0.285593 -0.322553,-0.806381 0,-0.675344 0.520788,-0.977737 0.285594,-0.164636 0.839981,-0.235195 z m 0.0504,-1.532124 z m 3.322963,-0.339352 h -0.971017 v -0.88366 h 0.971017 z m -0.971017,0.43679 h 0.971017 v 3.662315 h -0.971017 z m 3.249043,-0.08736 q 0.332633,0 0.591347,0.147836 0.258714,0.144477 0.41999,0.403191 v -1.74716 h 0.971017 v 4.945806 h -0.930698 v -0.507349 q -0.204955,0.325913 -0.467029,0.473749 -0.262074,0.147837 -0.651825,0.147837 -0.641745,0 -1.081895,-0.517428 -0.43679,-0.520788 -0.43679,-1.333889 0,-0.937418 0.43007,-1.475006 0.43343,-0.537587 1.155813,-0.537587 z m 0.208316,3.057529 q 0.40655,0 0.618225,-0.302393 0.211675,-0.302393 0.211675,-0.782862 0,-0.671985 -0.339352,-0.960938 -0.208315,-0.174716 -0.483829,-0.174716 -0.41999,0 -0.618225,0.319193 -0.194876,0.315832 -0.194876,0.786222 0,0.507348 0.198236,0.813101 0.201595,0.302393 0.608146,0.302393 z m 5.735386,-1.179333 h 1.256611 L 62.733108,15.23322 Z m 0.06384,-3.081048 h 1.169253 l 1.753879,4.952525 h -1.122214 l -0.319192,-1.018057 h -1.824438 l -0.342712,1.018057 h -1.081895 z m 0.577907,0 z m 6.988639,1.209571 q 0.241914,0 0.477109,0.09408 0.235194,0.09408 0.42671,0.329273 0.154556,0.191515 0.208315,0.470389 0.0336,0.184795 0.0336,0.540947 l -0.0067,2.308267 h -0.981097 v -2.331786 q 0,-0.208315 -0.0672,-0.342712 -0.127678,-0.255354 -0.47039,-0.255354 -0.39647,0 -0.547667,0.329272 -0.07728,0.174716 -0.07728,0.41999 v 2.18059 h -0.964298 v -2.18059 q 0,-0.325912 -0.0672,-0.473749 -0.120957,-0.265434 -0.473749,-0.265434 -0.409911,0 -0.551027,0.265434 -0.07728,0.151197 -0.07728,0.45023 v 2.204109 h -0.971018 v -3.655596 h 0.930698 v 0.534228 q 0.178076,-0.285593 0.335993,-0.406551 0.278873,-0.215035 0.722383,-0.215035 0.41999,0 0.678704,0.184796 0.208315,0.171356 0.315833,0.44015 0.188155,-0.322553 0.467029,-0.473749 0.295673,-0.151197 0.658545,-0.151197 z m 3.669032,3.067609 q 0.419991,0 0.645105,-0.299033 0.225115,-0.299033 0.225115,-0.85006 0,-0.551027 -0.225115,-0.8467 -0.225114,-0.299033 -0.645105,-0.299033 -0.41999,0 -0.648465,0.299033 -0.225114,0.295673 -0.225114,0.8467 0,0.551027 0.225114,0.85006 0.228475,0.299033 0.648465,0.299033 z m 1.874837,-1.149093 q 0,0.806381 -0.463669,1.380928 -0.46367,0.571187 -1.407808,0.571187 -0.944138,0 -1.407807,-0.571187 -0.463669,-0.574547 -0.463669,-1.380928 0,-0.792942 0.463669,-1.374208 0.463669,-0.581267 1.407807,-0.581267 0.944138,0 1.407808,0.581267 0.463669,0.581266 0.463669,1.374208 z m -1.871477,-1.935315 z m 3.511119,0.09744 v 2.207468 q 0,0.312473 0.07392,0.470389 0.131037,0.278874 0.514068,0.278874 0.490549,0 0.671984,-0.396471 0.09408,-0.215035 0.09408,-0.567827 v -1.992433 h 0.971018 v 3.662315 h -0.930699 v -0.517428 q -0.01344,0.0168 -0.0672,0.100797 -0.05376,0.084 -0.127677,0.147837 -0.225115,0.201595 -0.43679,0.275513 -0.208315,0.07392 -0.490549,0.07392 -0.813101,0 -1.095334,-0.584627 -0.157917,-0.322552 -0.157917,-0.950858 v -2.207468 z m 0.671984,-0.09744 z m 4.606453,0.01008 q 0.567827,0 0.927339,0.299033 0.362871,0.295673 0.362871,0.984457 V 19.05347 H 82.49617 v -2.227629 q 0,-0.288953 -0.07728,-0.443509 -0.141117,-0.282234 -0.537588,-0.282234 -0.487189,0 -0.668624,0.413271 -0.09408,0.218394 -0.09408,0.557747 V 19.05347 H 80.16438 v -3.655596 h 0.923979 v 0.534228 q 0.184795,-0.282233 0.349431,-0.406551 0.295674,-0.221754 0.749263,-0.221754 z m -0.352792,-0.01008 z m 2.15035,0.813101 v -0.682064 h 0.510708 V 14.40332 h 0.947498 v 1.021416 h 0.594707 V 16.1068 h -0.594707 v 1.935315 q 0,0.225115 0.05712,0.282233 0.05712,0.05376 0.349432,0.05376 0.04368,0 0.09072,0 0.0504,-0.0034 0.09744,-0.0067 v 0.715664 l -0.45359,0.0168 q -0.678711,0.0235 -0.927345,-0.235216 -0.161277,-0.164636 -0.161277,-0.507348 V 16.1068 Z"
         id="text2"
         aria-label="Paid Amount" />
    </g>
  </g>
</svg>
