<?xml version="1.0" encoding="UTF-8" standalone="no"?>
<!-- Created with Inkscape (http://www.inkscape.org/) -->

<svg
   width="200"
   height="100"
   viewBox="0 0 52.916666 26.458333"
   version="1.1"
   id="svg1"
   sodipodi:docname="receipt_btn.svg"
   inkscape:version="1.4.2 (f4327f4, 2025-05-13)"
   xmlns:inkscape="http://www.inkscape.org/namespaces/inkscape"
   xmlns:sodipodi="http://sodipodi.sourceforge.net/DTD/sodipodi-0.dtd"
   xmlns:xlink="http://www.w3.org/1999/xlink"
   xmlns="http://www.w3.org/2000/svg"
   xmlns:svg="http://www.w3.org/2000/svg">
  <sodipodi:namedview
     id="namedview1"
     pagecolor="#505050"
     bordercolor="#ffffff"
     borderopacity="1"
     inkscape:showpageshadow="0"
     inkscape:pageopacity="0"
     inkscape:pagecheckerboard="1"
     inkscape:deskcolor="#d1d1d1"
     inkscape:document-units="mm"
     inkscape:zoom="2.8578564"
     inkscape:cx="128.41793"
     inkscape:cy="24.668839"
     inkscape:window-width="1920"
     inkscape:window-height="1009"
     inkscape:window-x="1912"
     inkscape:window-y="-8"
     inkscape:window-maximized="1"
     inkscape:current-layer="layer1" />
  <defs
     id="defs1">
    <linearGradient
       id="linearGradient1"
       inkscape:collect="always">
      <stop
         style="stop-color:#ffffff;stop-opacity:1;"
         offset="0"
         id="stop1" />
      <stop
         style="stop-color:#ffffff;stop-opacity:1;"
         offset="0.28496504"
         id="stop3" />
      <stop
         style="stop-color:#0060fb;stop-opacity:1;"
         offset="0.48076928"
         id="stop2" />
    </linearGradient>
    <linearGradient
       inkscape:collect="always"
       xlink:href="#linearGradient1"
       id="linearGradient2"
       x1="26.458332"
       y1="-13.229166"
       x2="26.458332"
       y2="39.6875"
       gradientUnits="userSpaceOnUse" />
    <filter
       inkscape:collect="always"
       style="color-interpolation-filters:sRGB"
       id="filter3"
       x="-0.052504211"
       y="-0.10870322"
       width="1.1050084"
       height="1.2174064">
      <feGaussianBlur
         inkscape:collect="always"
         stdDeviation="0.9228929"
         id="feGaussianBlur3" />
    </filter>
  </defs>
  <g
     inkscape:label="Layer 1"
     inkscape:groupmode="layer"
     id="layer1">
    <path
       id="rect1"
       style="fill:url(#linearGradient2);stroke-width:0.789001;paint-order:fill markers stroke"
       d="m 13.229166,0 h 26.458332 c 7.328958,0 13.229166,5.900208 13.229166,13.229166 0,7.328958 -5.900208,13.229166 -13.229166,13.229166 H 13.229166 C 5.900208,26.458332 0,20.558124 0,13.229166 0,5.900208 5.900208,0 13.229166,0 Z" />
    <path
       id="rect1-1"
       style="fill:#0060fb;stroke:#0060fb;stroke-width:0.718494;paint-order:fill markers stroke;filter:url(#filter3)"
       transform="matrix(0.96709426,0,0,0.92865848,0.87063117,0.9437887)"
       d="m 13.784652,1.3887157 h 25.347359 c 6.55961,0 11.84045,5.2808409 11.84045,11.8404503 0,6.559609 -5.28084,11.84045 -11.84045,11.84045 H 13.784652 c -6.5596091,0 -11.8404499,-5.280841 -11.8404499,-11.84045 0,-6.5596094 5.2808408,-11.8404503 11.8404499,-11.8404503 z" />
    <path
       style="font-size:8.86743px;line-height:1;font-family:'Noto Sans TC';-inkscape-font-specification:'Noto Sans TC';fill:#ffffff;stroke-width:0.221687"
       d="m 13.996869,6.3648173 h 0.65619 v 4.8593517 h -0.65619 z m 2.163653,-0.8424058 h 0.656189 v 7.1205465 q 0,0.336962 -0.08867,0.505443 -0.08867,0.168481 -0.301492,0.248288 -0.212819,0.07981 -0.594118,0.09754 -0.372432,0.0266 -0.984285,0.0266 -0.0266,-0.141879 -0.09754,-0.328095 -0.06207,-0.186216 -0.141879,-0.328095 0.461107,0.0089 0.824671,0.0089 0.372432,0 0.496576,-0.0089 0.124145,0 0.177349,-0.0532 0.05321,-0.04434 0.05321,-0.168481 z m -5.630818,2.2257248 h 2.411941 V 8.359989 H 10.529704 Z M 9.2439265,5.8150367 h 4.4159795 v 0.62072 H 9.2439265 Z M 9.9001163,9.619164 10.219344,9.122588 q 0.328095,0.186216 0.700527,0.4167692 0.372432,0.2305531 0.700527,0.4611068 0.328095,0.221685 0.540913,0.399034 l -0.328095,0.567515 Q 11.620398,10.77193 11.292303,10.532509 10.964208,10.293089 10.600643,10.053668 10.237079,9.8142475 9.9001163,9.619164 Z M 12.702224,7.7481363 h 0.133012 l 0.115276,-0.026602 0.416769,0.1507463 q -0.23942,1.445391 -0.727129,2.5449526 -0.487709,1.099561 -1.179368,1.871027 -0.682792,0.771467 -1.4985957,1.250308 -0.053205,-0.07981 -0.1418789,-0.177349 -0.088674,-0.08867 -0.186216,-0.186216 -0.097542,-0.08867 -0.1773486,-0.133011 0.8158032,-0.434504 1.4719932,-1.143899 0.65619,-0.709394 1.108429,-1.702546 0.461106,-1.0020196 0.665057,-2.3055318 z m -1.853293,-1.6493419 0.665057,0.124144 Q 11.327772,6.9855374 11.035147,7.7836061 10.75139,8.5816747 10.33462,9.2999366 9.9267186,10.009331 9.3769379,10.541377 9.3237333,10.470437 9.235059,10.39063 9.1463847,10.310824 9.0577104,10.231017 8.9779036,10.15121 8.9069641,10.098005 9.4212751,9.6014292 9.8025745,8.9363719 10.183874,8.2713147 10.441029,7.535318 10.707052,6.7904539 10.848931,6.0987944 Z m 7.97182,2.3853386 h 2.802107 v 0.6473224 h -2.802107 z m 6.260405,-2.5094826 h 0.673925 v 5.2938556 q 0,0.283758 -0.07981,0.469974 -0.07094,0.177348 -0.283758,0.266023 -0.212818,0.08867 -0.567515,0.115276 -0.34583,0.0266 -0.842406,0.0266 -0.01773,-0.106409 -0.06207,-0.230553 -0.03547,-0.133011 -0.08868,-0.257155 -0.0532,-0.133012 -0.106409,-0.230553 0.399035,0.0089 0.727129,0.01774 0.336963,0 0.452239,0 0.10641,-0.0089 0.141879,-0.04434 0.03547,-0.03547 0.03547,-0.141878 z m -2.86418,0 h 3.236612 v 0.6650572 h -2.562687 v 6.8367884 h -0.673925 z m -1.135031,-0.4433715 0.532046,0.5320458 q -0.399034,0.1684812 -0.89561,0.3280949 -0.487709,0.1596137 -1.010887,0.2926252 -0.514311,0.1330114 -1.00202,0.2394206 -0.0266,-0.1152766 -0.09754,-0.2660229 Q 18.54586,6.4978288 18.492656,6.3914196 18.953762,6.276143 19.432603,6.1431316 19.920312,6.0012527 20.345948,5.841639 20.780453,5.6820252 21.081945,5.5312789 Z m -3.014926,6.3136101 q 0.452239,-0.124144 1.037489,-0.292625 0.594118,-0.168481 1.250308,-0.363565 0.65619,-0.203951 1.321247,-0.399034 l 0.09754,0.576383 q -0.62072,0.203951 -1.259175,0.407901 -0.629588,0.203951 -1.223706,0.390167 -0.58525,0.186216 -1.072959,0.336963 z m 0.425637,-5.4534694 h 0.647322 V 11.942431 H 18.492656 Z M 30.197663,5.6820252 h 1.578402 v 0.5497807 h -1.578402 z m 1.409921,0 h 0.106409 l 0.115277,-0.026602 0.399034,0.1330115 Q 32.059823,6.5510333 31.749463,7.1983557 31.439103,7.8368106 31.022334,8.3245193 30.605565,8.8122279 30.126723,9.1314554 30.064651,9.0339137 29.940507,8.9009022 29.825231,8.7590233 29.727689,8.6792165 30.144458,8.422061 30.525758,7.987557 30.907057,7.5441855 31.190815,6.9855374 31.474573,6.4180219 31.607584,5.7884344 Z m -1.658209,1.3478493 0.372432,-0.4167692 q 0.257155,0.1507463 0.532046,0.3546972 0.283757,0.2039509 0.434504,0.3635647 l -0.3813,0.4699737 Q 30.756311,7.6328598 30.481421,7.4200414 30.20653,7.1983557 29.949375,7.0298745 Z m 0.957682,4.3982455 0.576383,-0.159614 q 0.195084,0.301493 0.34583,0.665057 0.150746,0.354697 0.195083,0.611853 l -0.611852,0.177348 q -0.04434,-0.257155 -0.186216,-0.62072 -0.141879,-0.363564 -0.319228,-0.673924 z m 2.110449,-5.9855154 q 0.177348,0.6561898 0.469973,1.2680425 0.292626,0.6118526 0.69166,1.0906938 0.407902,0.4788412 0.904478,0.762599 -0.124144,0.088674 -0.257156,0.2305532 Q 34.702317,8.9363719 34.613643,9.0516485 34.099332,8.7146862 33.682563,8.1826404 33.265794,7.6417272 32.964301,6.9678025 32.662808,6.2938779 32.467725,5.5578812 Z m 0.922212,0.1418789 0.407902,0.3635646 q -0.230553,0.2305532 -0.514311,0.4433715 -0.27489,0.2128183 -0.496576,0.3635646 l -0.34583,-0.3369623 q 0.212819,-0.1596137 0.487709,-0.4079018 0.283758,-0.248288 0.461106,-0.4256366 z m 0.567516,1.010887 0.407902,0.3635646 Q 34.649113,7.1717534 34.34762,7.3668369 34.054995,7.5619203 33.815574,7.6949318 L 33.478612,7.3668369 Q 33.718033,7.224958 34.019525,6.9944048 34.321018,6.7638516 34.507234,6.5953705 Z m -3.289817,1.2857773 h 2.305532 v 0.5497806 h -2.305532 z m -1.347849,4.8593512 h 5.0367 v 0.549781 h -5.0367 z m 1.330114,-3.1745396 v 1.0552246 h 2.3144 V 9.5659594 Z M 30.6233,9.0339137 h 3.502634 V 11.162097 H 30.6233 Z m 2.633626,2.1991223 0.665057,0.177349 q -0.195083,0.390167 -0.416769,0.815803 -0.221686,0.425637 -0.416769,0.72713 l -0.514311,-0.168482 q 0.115277,-0.20395 0.248288,-0.478841 0.133012,-0.27489 0.248288,-0.558648 0.115277,-0.283758 0.186216,-0.514311 z M 27.147267,8.0318941 h 2.376471 v 0.5320458 h -2.376471 z m 0,1.1705007 h 2.376471 V 9.7255732 H 27.147267 Z M 26.810305,6.8613934 h 2.988324 V 7.411174 h -2.988324 z m 0.594118,3.5203696 h 2.163652 v 2.589289 h -2.163652 v -0.558648 h 1.631607 v -1.471993 h -1.631607 z m -0.266023,0 h 0.532045 v 3.014926 H 27.1384 Z m 0.558648,-4.7972795 0.461106,-0.2926252 q 0.195084,0.2660229 0.390167,0.5852504 0.203951,0.31036 0.319227,0.5497806 L 28.370972,6.7727191 Q 28.282298,6.5332985 28.087215,6.1963361 27.892131,5.8505064 27.697048,5.5844835 Z m 8.698948,0.31036 h 2.536085 v 5.2938555 h -2.536085 v -0.62072 h 1.915365 V 6.5066962 h -1.915365 z m 0,2.3055318 h 2.190255 v 0.6029852 h -2.190255 z m 3.750923,-2.4651455 h 2.988324 v 0.6207201 h -2.988324 z m 0,2.1547854 h 2.988324 v 0.6029852 h -2.988324 z m -0.06207,2.1725208 h 3.032661 v 0.602985 H 40.084847 Z M 36.023564,5.8948435 h 0.629588 v 6.1273935 h -0.629588 z m 6.863391,-0.1596137 h 0.65619 V 12.63409 q 0,0.31036 -0.08868,0.478841 -0.07981,0.177349 -0.292625,0.257156 -0.221686,0.07981 -0.594118,0.09754 -0.372432,0.0266 -0.948815,0.0266 -0.0089,-0.08867 -0.0532,-0.212818 -0.03547,-0.115277 -0.08867,-0.239421 -0.04434,-0.115277 -0.09754,-0.203951 0.292625,0.0089 0.54978,0.0089 0.266023,0.0089 0.461107,0 0.203951,0 0.27489,0 0.124144,0 0.168481,-0.04434 0.0532,-0.0532 0.0532,-0.168481 z m -3.130203,0 h 0.647323 v 3.1656724 q 0,0.5586481 -0.06207,1.1882358 -0.06207,0.62072 -0.248288,1.250307 -0.177349,0.62072 -0.540914,1.197103 -0.363564,0.576383 -0.96655,1.03749 -0.04434,-0.07094 -0.133011,-0.159614 -0.08867,-0.08867 -0.186216,-0.177349 -0.09754,-0.07981 -0.168481,-0.124144 0.567515,-0.425636 0.89561,-0.939947 0.328095,-0.523179 0.496576,-1.081827 0.168481,-0.558648 0.212819,-1.1172958 0.0532,-0.5586481 0.0532,-1.0818264 z"
       id="text1"
       aria-label="列印證明" />
    <path
       style="font-weight:bold;font-size:7.66628px;line-height:1;font-family:Helvetica;-inkscape-font-specification:'Helvetica Bold';text-align:center;text-anchor:middle;fill:#ffffff;stroke-width:0.191657"
       d="m 11.017218,17.335489 v 1.482347 h 1.306412 q 0.389303,0 0.583955,-0.08984 0.344384,-0.157218 0.344384,-0.621387 0,-0.501603 -0.333154,-0.673795 -0.187165,-0.09733 -0.561495,-0.09733 z m 1.579673,-0.958285 q 0.580212,0.01123 0.890906,0.142245 0.314437,0.131016 0.531548,0.38556 0.179679,0.209625 0.284491,0.464169 0.104813,0.254545 0.104813,0.580212 0,0.393046 -0.198395,0.774863 -0.198395,0.378073 -0.655078,0.535292 0.381817,0.153475 0.539035,0.437966 0.160962,0.280748 0.160962,0.860959 v 0.370587 q 0,0.378074 0.02995,0.512832 0.04492,0.213369 0.209624,0.314438 v 0.138502 h -1.268978 q -0.05241,-0.183422 -0.07487,-0.295721 -0.04492,-0.232085 -0.04866,-0.475399 l -0.0075,-0.512832 q -0.0075,-0.527806 -0.194652,-0.703741 -0.183421,-0.175935 -0.69251,-0.175935 h -1.19037 v 2.163628 H 9.8904846 v -5.517625 z m 6.88393,0.977001 h -2.919775 v 1.171653 h 2.680204 v 0.958285 h -2.680204 v 1.418711 h 3.054534 v 0.991975 h -4.181267 v -5.517625 h 4.046508 z m 0.79358,1.826731 q 0,-1.444914 0.774863,-2.227264 0.673794,-0.681281 1.714432,-0.681281 1.392508,0 2.036355,0.913366 0.355614,0.512832 0.381817,1.029407 h -1.152937 q -0.112299,-0.39679 -0.288234,-0.598928 -0.314437,-0.359357 -0.932082,-0.359357 -0.628874,0 -0.991974,0.509089 -0.3631,0.505346 -0.3631,1.433684 0,0.928339 0.381816,1.392508 0.38556,0.460426 0.977002,0.460426 0.606414,0 0.924595,-0.39679 0.175935,-0.213368 0.291977,-0.640104 h 1.141707 q -0.149732,0.902135 -0.767376,1.467374 -0.613902,0.565238 -1.57593,0.565238 -1.19037,0 -1.87165,-0.763633 -0.681281,-0.767377 -0.681281,-2.103735 z m 2.455605,-2.972181 z m 7.400505,1.14545 h -2.919775 v 1.171653 h 2.680203 v 0.958285 h -2.680203 v 1.418711 h 3.054533 v 0.991975 h -4.181266 v -5.517625 h 4.046508 z m 2.088763,4.540624 h -1.14545 v -5.517625 h 1.14545 z m -0.572725,-5.626181 z m 4.753991,1.864164 q 0,-0.43048 -0.228341,-0.613902 -0.224598,-0.183421 -0.632618,-0.183421 h -1.074327 v 1.624592 h 1.074327 q 0.40802,0 0.632618,-0.198395 0.228341,-0.198395 0.228341,-0.628874 z m 1.141707,-0.0075 q 0,0.977001 -0.494116,1.381278 -0.494115,0.404276 -1.411224,0.404276 h -1.171653 v 1.98395 h -1.14545 v -5.517625 h 2.403199 q 0.831013,0 1.325128,0.426736 0.494116,0.426736 0.494116,1.321385 z m 4.873777,-1.748121 v 0.977001 h -1.650796 v 4.540624 h -1.160423 v -4.540624 h -1.658282 v -0.977001 z"
       id="text3"
       aria-label="RECEIPT" />
  </g>
</svg>
