<?xml version="1.0" encoding="UTF-8" standalone="no"?>
<!-- Created with Inkscape (http://www.inkscape.org/) -->

<svg
   width="250"
   height="80"
   viewBox="0 0 66.145824 21.166666"
   version="1.1"
   id="svg1"
   sodipodi:docname="rem_bal.svg"
   inkscape:version="1.4.2 (f4327f4, 2025-05-13)"
   xmlns:inkscape="http://www.inkscape.org/namespaces/inkscape"
   xmlns:sodipodi="http://sodipodi.sourceforge.net/DTD/sodipodi-0.dtd"
   xmlns="http://www.w3.org/2000/svg"
   xmlns:svg="http://www.w3.org/2000/svg">
  <sodipodi:namedview
     id="namedview1"
     pagecolor="#ffffff"
     bordercolor="#ffffff"
     borderopacity="1"
     inkscape:showpageshadow="0"
     inkscape:pageopacity="0"
     inkscape:pagecheckerboard="1"
     inkscape:deskcolor="#d1d1d1"
     inkscape:document-units="mm"
     inkscape:zoom="2.0208096"
     inkscape:cx="107.13528"
     inkscape:cy="146.72337"
     inkscape:window-width="1920"
     inkscape:window-height="1111"
     inkscape:window-x="-9"
     inkscape:window-y="-9"
     inkscape:window-maximized="1"
     inkscape:current-layer="layer1" />
  <defs
     id="defs1">
    <clipPath
       id="clip_0">
      <path
         transform="matrix(1,0,0,-1,0,841.92)"
         d="M 8.871e-6,0 H 595.32 V 841.92 H 8.871e-6 Z"
         fill-rule="evenodd"
         id="path1" />
    </clipPath>
    <clipPath
       id="clip_2">
      <path
         transform="matrix(1,0,0,-1,0,841.92)"
         d="M 8.871e-6,0 H 595.32 V 841.92 H 8.871e-6 Z"
         fill-rule="evenodd"
         id="path2" />
    </clipPath>
    <clipPath
       id="clip_3">
      <path
         transform="matrix(1,0,0,-1,0,841.92)"
         d="M 8.871e-6,0 H 595.32 V 841.92 H 8.871e-6 Z"
         fill-rule="evenodd"
         id="path3" />
    </clipPath>
    <clipPath
       id="clip_4">
      <path
         transform="matrix(1,0,0,-1,0,841.92)"
         d="M 8.871e-6,0 H 595.32 V 841.92 H 8.871e-6 Z"
         fill-rule="evenodd"
         id="path4" />
    </clipPath>
    <clipPath
       id="clip_5">
      <path
         transform="matrix(1,0,0,-1,0,841.92)"
         d="M 8.871e-6,0 H 595.32 V 841.92 H 8.871e-6 Z"
         fill-rule="evenodd"
         id="path5" />
    </clipPath>
    <clipPath
       id="clip_14">
      <path
         transform="matrix(1,0,0,-1,0,841.92)"
         d="M 8.871e-6,0 H 595.32 V 841.92 H 8.871e-6 Z"
         fill-rule="evenodd"
         id="path12" />
    </clipPath>
    <clipPath
       id="clip_7">
      <path
         transform="matrix(1,0,0,-1,0,841.92)"
         d="M 8.871e-6,0 H 595.32 V 841.92 H 8.871e-6 Z"
         fill-rule="evenodd"
         id="path6" />
    </clipPath>
    <clipPath
       id="clip_23">
      <path
         transform="matrix(1,0,0,-1,0,841.92)"
         d="M 8.871e-6,0 H 595.32 V 841.92 H 8.871e-6 Z"
         fill-rule="evenodd"
         id="path19" />
    </clipPath>
    <clipPath
       id="clip_10">
      <path
         transform="matrix(1,0,0,-1,0,841.92)"
         d="M 8.871e-6,0 H 595.32 V 841.92 H 8.871e-6 Z"
         fill-rule="evenodd"
         id="path8" />
    </clipPath>
    <clipPath
       id="clip_25">
      <path
         transform="matrix(1,0,0,-1,0,841.92)"
         d="M 8.871e-6,0 H 595.32 V 841.92 H 8.871e-6 Z"
         fill-rule="evenodd"
         id="path21" />
    </clipPath>
    <clipPath
       id="clip_12">
      <path
         transform="matrix(1,0,0,-1,0,841.92)"
         d="M 8.871e-6,0 H 595.32 V 841.92 H 8.871e-6 Z"
         fill-rule="evenodd"
         id="path10" />
    </clipPath>
    <clipPath
       id="clip_20">
      <path
         transform="matrix(1,0,0,-1,0,841.92)"
         d="M 8.871e-6,0 H 595.32 V 841.92 H 8.871e-6 Z"
         fill-rule="evenodd"
         id="path16" />
    </clipPath>
    <clipPath
       id="clip_18">
      <path
         transform="matrix(1,0,0,-1,0,841.92)"
         d="M 8.871e-6,0 H 595.32 V 841.92 H 8.871e-6 Z"
         fill-rule="evenodd"
         id="path14" />
    </clipPath>
    <clipPath
       id="clip_21">
      <path
         transform="matrix(1,0,0,-1,0,841.92)"
         d="M 8.871e-6,0 H 595.32 V 841.92 H 8.871e-6 Z"
         fill-rule="evenodd"
         id="path17" />
    </clipPath>
  </defs>
  <g
     inkscape:label="Layer 1"
     inkscape:groupmode="layer"
     id="layer1">
    <path
       style="font-size:12.3088px;line-height:1;font-family:'Noto Sans TC';-inkscape-font-specification:'Noto Sans TC';fill:#282472;stroke-width:0.307721"
       d="m 9.8888757,2.6566221 h 0.9600863 v 8.8500269 q 0,0.492352 -0.147706,0.750837 -0.135396,0.270793 -0.50466,0.393881 -0.3569555,0.123088 -1.0093219,0.135397 -0.6400576,0.02462 -1.5632175,0.02462 -0.024618,-0.135397 -0.09847,-0.320029 -0.061544,-0.172323 -0.1353968,-0.356955 -0.073853,-0.184632 -0.1477056,-0.320029 0.492352,0.02462 0.9600863,0.03693 0.4800432,0 0.8246896,0 0.3569552,0 0.5046608,0 0.1969408,-0.02462 0.2707936,-0.08616 0.086162,-0.07385 0.086162,-0.270794 z M 2.6389927,5.118382 H 3.537535 v 5.588195 H 2.6389927 Z m 0.3815728,0 H 7.6856006 V 9.7218731 H 3.0205655 V 8.8356395 H 6.7747494 V 6.0046156 H 3.0205655 Z M 1.3834951,2.3858285 H 12.362944 V 3.3089884 H 1.3834951 Z M 15.415527,2.3735197 h 7.963793 v 0.8862336 h -7.963793 z m 0,2.8679503 h 7.939176 v 0.8739248 h -7.939176 z m -0.07385,2.9418031 H 23.37932 V 9.0571979 H 15.341674 Z M 14.886248,2.3735197 H 15.7971 V 6.841614 q 0,0.7016016 -0.06154,1.5016735 -0.06154,0.800072 -0.233868,1.6247616 -0.160014,0.8123809 -0.50466,1.5632179 -0.332338,0.750836 -0.886234,1.366276 -0.06154,-0.09847 -0.196941,-0.221558 -0.135397,-0.110779 -0.270793,-0.221558 -0.135397,-0.11078 -0.246176,-0.160015 0.516969,-0.578513 0.81238,-1.255497 0.295412,-0.676984 0.443117,-1.3908947 0.147706,-0.7262192 0.184632,-1.4401296 0.04923,-0.7139103 0.04923,-1.3662767 z m 8.123808,0 h 0.910851 v 9.2069823 q 0,0.443117 -0.135396,0.676984 -0.123088,0.233867 -0.430808,0.356955 -0.30772,0.110779 -0.861616,0.135397 -0.553896,0.02462 -1.427821,0.01231 -0.03693,-0.172324 -0.135397,-0.443117 -0.08616,-0.258485 -0.184632,-0.443117 0.430808,0.01231 0.82469,0.01231 0.40619,0.01231 0.701601,0 0.295411,0 0.406191,0 0.184632,-0.01231 0.258484,-0.07385 0.07385,-0.06154 0.07385,-0.233867 z M 18.751212,2.7058573 H 19.68668 V 12.72522 h -0.935468 z m 12.71499,2.3879071 h 4.689652 v 0.8123808 h -4.689652 z m -0.787764,2.277128 h 6.326724 v 0.8246895 h -6.326724 z m 2.695628,-1.8955552 h 0.861616 v 6.3759578 q 0,0.356956 -0.09847,0.541588 -0.08616,0.184632 -0.320029,0.295411 -0.221558,0.09847 -0.603131,0.110779 -0.369264,0.02462 -0.935469,0.02462 -0.02462,-0.160015 -0.110779,-0.393882 -0.08616,-0.233867 -0.172323,-0.393882 0.40619,0.01231 0.738528,0.01231 0.332338,0 0.443117,0 0.110779,0 0.147705,-0.04923 0.04924,-0.03693 0.04924,-0.160014 z m -1.723232,3.3726111 0.775454,0.2338672 q -0.196941,0.4677344 -0.443117,0.9723955 -0.233867,0.50466 -0.480043,0.972395 -0.246176,0.455425 -0.480043,0.824689 -0.110779,-0.09847 -0.332338,-0.233867 -0.209249,-0.135397 -0.344646,-0.221558 0.356955,-0.504661 0.701601,-1.193954 0.344647,-0.7016013 0.603132,-1.3539677 z m 3.38492,0.2338672 0.689292,-0.2954112 q 0.258485,0.4184992 0.529279,0.92316 0.270793,0.4923517 0.504661,0.9600867 0.246176,0.455425 0.381572,0.800072 l -0.750836,0.369264 Q 36.254325,11.49434 36.020458,11.026606 35.798899,10.546563 35.528106,10.041902 35.269621,9.5249323 35.035754,9.0818155 Z M 33.767947,1.4380509 34.481858,1.7580797 Q 34.087976,2.4596813 33.509462,3.0997389 32.930949,3.7397964 32.253965,4.2690748 31.58929,4.7860444 30.86307,5.1676172 30.776909,5.0076028 30.616894,4.8229708 30.469189,4.6383388 30.309174,4.502942 30.998467,4.1829132 31.650834,3.70287 32.315509,3.2228269 32.857096,2.6443133 33.410992,2.0657997 33.767947,1.4380509 Z m 0.356955,0.6892928 q 0.664676,0.7877632 1.452439,1.3539679 0.800072,0.5662048 1.673997,0.9970128 Q 37.091323,4.6383388 36.919,4.8475884 36.746677,5.0445292 36.648206,5.24147 35.749664,4.687574 34.949592,4.0352076 34.14952,3.3705324 33.423301,2.4596813 Z m -7.126795,4.8004319 h 2.67101 v 0.6892928 h -2.67101 z M 27.084269,5.24147 H 30.05069 V 9.4018443 H 27.07196 V 8.6879339 h 2.166349 V 5.9553804 h -2.15404 z m 0.984704,-2.6710095 0.430808,-0.6523664 q 0.344646,0.1969408 0.726219,0.4431168 0.393882,0.2338672 0.750837,0.4677344 0.356955,0.2338672 0.578513,0.4184992 L 30.124542,3.9736636 Q 29.902984,3.7890316 29.546029,3.5428556 29.201383,3.2843708 28.807501,3.0258861 28.413619,2.7674013 28.068973,2.5704605 Z m 0.196941,-1.1570272 0.787763,0.2831024 Q 28.721339,2.3119757 28.241296,2.9027981 27.773562,3.4936204 27.231975,4.01059 26.702696,4.5152508 26.136491,4.8968236 26.099565,4.810662 26.025712,4.6506476 25.951859,4.4783244 25.865698,4.31831 25.779536,4.1459868 25.705683,4.0475164 26.444211,3.5920908 27.145813,2.9027981 27.847415,2.2011965 28.265914,1.4134333 Z m 0.30772,8.5176894 0.689293,-0.2954112 q 0.233867,0.3938815 0.480043,0.8493075 0.246176,0.455425 0.455425,0.886233 0.221559,0.418499 0.344647,0.726219 l -0.72622,0.369264 q -0.123088,-0.320028 -0.332337,-0.750836 -0.20925,-0.443117 -0.455426,-0.910852 -0.233867,-0.480043 -0.455425,-0.8739243 z m -2.240202,2.8925683 q -0.02462,-0.11078 -0.08616,-0.270794 -0.04924,-0.147706 -0.11078,-0.30772 -0.06154,-0.147706 -0.123088,-0.246176 0.160015,-0.06154 0.332338,-0.20925 0.184632,-0.160014 0.184632,-0.480043 V 5.24147 h 0.849307 v 6.880619 q 0,0 -0.160014,0.06154 -0.160015,0.06154 -0.369264,0.172323 -0.196941,0.110779 -0.356955,0.233867 -0.160015,0.123088 -0.160015,0.233868 z m 0,0 -0.07385,-0.72622 0.369264,-0.344646 2.88026,-1.107792 q 0.02462,0.160014 0.06154,0.369264 0.03693,0.20925 0.07385,0.332338 -1.02163,0.418499 -1.63707,0.676984 -0.61544,0.258484 -0.947778,0.40619 -0.332337,0.147706 -0.492352,0.233867 -0.147705,0.08616 -0.233867,0.160015 z m 1.058557,-8.997733 h 2.092496 V 4.4906332 H 27.391989 Z M 38.383747,2.6935485 h 5.206622 V 4.7737356 H 42.851841 V 3.456694 h -3.766492 v 1.3170416 h -0.701602 z m 0.750837,6.3390318 h 3.852654 V 12.774455 H 42.15024 V 9.7834171 h -2.215584 v 3.0033469 h -0.800072 z m 0.30772,2.6094657 h 3.249523 v 0.750837 H 39.442304 Z M 40.143905,3.8751932 40.894742,4.01059 Q 40.599331,4.8229708 40.09467,5.5984252 39.590009,6.3615708 38.789938,6.9770108 38.703776,6.8169964 38.55607,6.6323644 38.420674,6.4477324 38.297586,6.3615708 39.023805,5.8446012 39.47923,5.179926 39.934656,4.5152508 40.143905,3.8751932 Z m 0.08616,0.8493072 h 2.203275 v 0.7262192 h -2.510995 z m 2.006334,0 h 0.160015 l 0.147705,-0.036926 0.467735,0.3446464 q -0.418499,1.107792 -1.13241,1.969408 -0.71391,0.8493072 -1.587835,1.4647471 -0.861616,0.6031312 -1.784776,0.984704 Q 38.4576,9.3403003 38.371438,9.1925947 38.285277,9.0448891 38.199115,8.9094923 38.112954,8.7740955 38.026792,8.6879339 38.925334,8.3679051 39.750024,7.826318 q 0.836998,-0.5415872 1.489365,-1.2801152 0.652366,-0.738528 0.997012,-1.661688 z m -1.969408,-2.9294943 0.72622,-0.2831024 q 0.172323,0.3446464 0.344646,0.7508368 0.184632,0.4061904 0.283102,0.676984 L 40.833198,3.272062 Q 40.759345,2.9889597 40.587022,2.5704605 40.414699,2.1396525 40.266993,1.7950061 Z m 3.704949,0.30772 h 5.391254 v 0.800072 h -5.391254 z m 1.218571,4.6404175 V 7.887862 h 2.892568 V 6.7431436 Z m 0,1.8463199 v 1.1816448 h 2.892568 V 8.5894635 Z m 0,-3.7172575 v 1.1324096 h 2.892568 V 4.872206 Z M 44.353515,4.1090604 h 4.6158 v 6.4128846 h -4.6158 z m 1.907864,-1.6124527 0.873925,0.1600144 q -0.135397,0.5046608 -0.283103,1.0339391 -0.135396,0.5169696 -0.258484,0.8985424 l -0.701602,-0.184632 q 0.09847,-0.4061904 0.20925,-0.9477776 0.110779,-0.5415871 0.160014,-0.9600863 z m -0.590822,8.2222783 0.627748,0.578513 q -0.541587,0.430808 -1.255497,0.861616 -0.701602,0.443117 -1.304733,0.738528 -0.07385,-0.147705 -0.196941,-0.356955 -0.123088,-0.196941 -0.221558,-0.332337 0.381573,-0.184632 0.824689,-0.430808 0.443117,-0.258485 0.849308,-0.529279 0.40619,-0.283102 0.676984,-0.529278 z m 1.255497,0.541587 0.492352,-0.590822 q 0.344647,0.221558 0.726219,0.492352 0.393882,0.270793 0.738528,0.553896 0.356955,0.270793 0.590823,0.50466 l -0.541588,0.652367 q -0.209249,-0.233867 -0.553895,-0.529279 -0.344647,-0.283102 -0.72622,-0.566204 -0.381572,-0.295412 -0.726219,-0.51697 z M 39.491539,6.7677612 40.020817,6.2015564 q 0.430808,0.2584848 0.92316,0.553896 0.492352,0.2831024 0.984704,0.5908224 0.492352,0.30772 0.92316,0.5908224 0.443117,0.2707935 0.763146,0.4923519 l -0.553896,0.676984 Q 42.667209,8.7987131 42.051769,8.3925227 41.436329,7.9863324 40.759345,7.5555244 40.09467,7.1247164 39.491539,6.7677612 Z M 56.083801,5.1553084 q -0.369264,0 -0.652366,-0.246176 -0.283103,-0.2584848 -0.283103,-0.676984 0,-0.4184992 0.283103,-0.6646752 0.283102,-0.2584848 0.652366,-0.2584848 0.369264,0 0.652367,0.2584848 0.283102,0.246176 0.283102,0.6646752 0,0.4184992 -0.283102,0.676984 -0.283103,0.246176 -0.652367,0.246176 z m 0,6.0313116 q -0.369264,0 -0.652366,-0.246176 -0.283103,-0.258485 -0.283103,-0.676984 0,-0.4308077 0.283103,-0.6769837 0.283102,-0.2584848 0.652366,-0.2584848 0.369264,0 0.652367,0.2584848 0.283102,0.246176 0.283102,0.6769837 0,0.418499 -0.283102,0.676984 -0.283103,0.246176 -0.652367,0.246176 z"
       id="text1"
       aria-label="可用餘額：" />
    <path
       style="font-weight:bold;font-size:5.78226px;line-height:1;font-family:Helvetica;-inkscape-font-specification:'Helvetica Bold';fill:#282472;stroke-width:0.144557"
       d="m 2.213087,15.862612 v 1.118054 h 0.9853558 q 0.2936304,0 0.4404456,-0.06776 0.25975,-0.118581 0.25975,-0.468679 0,-0.378331 -0.2512799,-0.508206 -0.1411684,-0.07341 -0.4235053,-0.07341 z m 1.1914618,-0.722783 q 0.4376222,0.0085 0.6719618,0.107288 0.237163,0.09882 0.4009184,0.290807 0.1355218,0.158109 0.2145761,0.350098 0.079054,0.191989 0.079054,0.437622 0,0.296454 -0.1496385,0.584438 -0.1496386,0.28516 -0.4940896,0.403742 0.2879836,0.115758 0.4065651,0.330334 0.1214049,0.211753 0.1214049,0.649375 v 0.279513 q 0,0.285161 0.022587,0.386802 0.033881,0.160932 0.1581087,0.237163 v 0.104465 H 3.8788748 Q 3.8393476,19.16313 3.8224074,19.078429 3.788527,18.90338 3.7857036,18.719861 L 3.7800569,18.33306 Q 3.7744101,17.934965 3.6332417,17.802267 3.4948966,17.669568 3.1109184,17.669568 H 2.213087 v 1.631908 H 1.3632529 v -4.161647 z m 3.2638149,1.665788 q -0.2795136,0 -0.4347989,0.175049 -0.1524619,0.175049 -0.1919891,0.474326 H 7.2923283 Q 7.2725647,17.135951 7.0975158,16.972196 6.9252903,16.805617 6.6683637,16.805617 Z m 0,-0.663492 q 0.3839782,0 0.6917254,0.143992 0.3077473,0.143992 0.5082065,0.454563 0.1806956,0.273867 0.2343396,0.635258 0.031057,0.211752 0.02541,0.609848 H 6.0218122 q 0.01694,0.463032 0.290807,0.649374 0.1665788,0.115759 0.4009184,0.115759 0.2484565,0 0.4037418,-0.141169 0.084701,-0.07623 0.1496385,-0.211753 h 0.8216005 q -0.031057,0.273867 -0.2851603,0.556204 -0.3952717,0.448916 -1.1067607,0.448916 -0.5872608,0 -1.0361765,-0.378332 -0.4489157,-0.378331 -0.4489157,-1.230989 0,-0.799013 0.4037418,-1.225342 0.4065652,-0.426329 1.0531167,-0.426329 z m 0.056467,0 z m 5.3841649,0.01412 q 0.203283,0 0.400918,0.07906 0.197636,0.07905 0.358568,0.27669 0.129875,0.160932 0.175049,0.395272 0.02823,0.155285 0.02823,0.454562 l -0.0056,1.939655 h -0.824424 v -1.959419 q 0,-0.175049 -0.05647,-0.287983 -0.107288,-0.214576 -0.395272,-0.214576 -0.333157,0 -0.460209,0.27669 -0.06494,0.146815 -0.06494,0.352921 v 1.832367 h -0.810307 v -1.832367 q 0,-0.273867 -0.05647,-0.398095 -0.101641,-0.223046 -0.3980947,-0.223046 -0.3444511,0 -0.4630326,0.223046 -0.064937,0.127052 -0.064937,0.378331 v 1.852131 H 8.6560156 V 16.22965 h 0.7820732 v 0.448916 q 0.1496386,-0.239987 0.2823369,-0.341628 0.2343397,-0.180696 0.6070243,-0.180696 0.352921,0 0.570321,0.155286 0.175049,0.143991 0.265396,0.369861 0.158109,-0.271043 0.392449,-0.398095 0.248456,-0.127052 0.55338,-0.127052 z m 3.399337,1.648848 q -0.07623,0.048 -0.155286,0.07905 -0.07623,0.02823 -0.211752,0.05364 l -0.180696,0.03388 q -0.254103,0.04517 -0.364214,0.110111 -0.186343,0.110111 -0.186343,0.341628 0,0.206106 0.112935,0.299277 0.115758,0.09035 0.279513,0.09035 0.25975,0 0.47715,-0.152462 0.220223,-0.152462 0.228693,-0.556204 z M 15.01989,17.429582 q 0.223046,-0.02823 0.319041,-0.07058 0.172225,-0.07341 0.172225,-0.228693 0,-0.189166 -0.132698,-0.25975 -0.129875,-0.07341 -0.383978,-0.07341 -0.285161,0 -0.403742,0.141169 -0.0847,0.104464 -0.112935,0.282336 h -0.776426 q 0.02541,-0.403741 0.225869,-0.663491 0.319041,-0.406565 1.095467,-0.406565 0.505383,0 0.897832,0.200459 0.392448,0.200459 0.392448,0.756663 v 1.411684 q 0,0.146815 0.0056,0.355745 0.0085,0.158108 0.048,0.214576 0.03953,0.05647 0.118581,0.09317 v 0.118582 h -0.875244 q -0.0367,-0.09317 -0.05082,-0.175049 -0.01412,-0.08188 -0.02259,-0.186343 -0.166578,0.180696 -0.383978,0.307748 -0.25975,0.149638 -0.587261,0.149638 -0.417858,0 -0.691725,-0.237163 -0.271043,-0.239986 -0.271043,-0.677609 0,-0.567497 0.437622,-0.8216 0.239986,-0.138345 0.705842,-0.197636 z m 0.04235,-1.287457 z m 2.792312,-0.28516 h -0.815954 v -0.742546 h 0.815954 z m -0.815954,0.367038 h 0.815954 v 3.077473 h -0.815954 z m 3.300518,-0.07341 q 0.47715,0 0.77925,0.251279 0.304924,0.248457 0.304924,0.827248 v 2.072353 h -0.824424 v -1.871894 q 0,-0.24281 -0.06494,-0.372685 -0.118582,-0.237163 -0.451739,-0.237163 -0.409389,0 -0.561851,0.347274 -0.07905,0.183519 -0.07905,0.46868 v 1.665788 H 18.639448 V 16.22965 h 0.776426 v 0.448916 q 0.155286,-0.237163 0.293631,-0.341628 0.248456,-0.186342 0.629611,-0.186342 z m -0.296454,-0.0085 z m 2.950422,-0.28516 h -0.815953 v -0.742546 h 0.815953 z m -0.815953,0.367038 h 0.815953 v 3.077473 h -0.815953 z m 3.300518,-0.07341 q 0.477149,0 0.77925,0.251279 0.304924,0.248457 0.304924,0.827248 v 2.072353 h -0.824424 v -1.871894 q 0,-0.24281 -0.06494,-0.372685 -0.118581,-0.237163 -0.451739,-0.237163 -0.409388,0 -0.56185,0.347274 -0.07906,0.183519 -0.07906,0.46868 v 1.665788 H 23.777981 V 16.22965 h 0.776426 v 0.448916 q 0.155285,-0.237163 0.293631,-0.341628 0.248456,-0.186342 0.629611,-0.186342 z m -0.296454,-0.0085 z m 3.444511,2.498682 q 0.282337,0 0.47715,-0.211753 0.194812,-0.214576 0.194812,-0.680431 0,-0.437623 -0.186342,-0.666316 -0.183519,-0.228692 -0.49409,-0.228692 -0.423505,0 -0.584437,0.398095 -0.0847,0.211752 -0.0847,0.522323 0,0.26822 0.09035,0.477149 0.163755,0.389625 0.58726,0.389625 z m -0.200459,-2.490211 q 0.231517,0 0.403742,0.07058 0.29363,0.121405 0.474326,0.446092 v -0.443269 h 0.782073 v 2.919364 q 0,0.595731 -0.200459,0.897831 -0.344451,0.5195 -1.321337,0.5195 -0.590084,0 -0.962769,-0.231516 -0.372684,-0.231516 -0.412211,-0.691726 h 0.875244 q 0.03388,0.141169 0.110111,0.203283 0.129875,0.110111 0.437623,0.110111 0.434798,0 0.581614,-0.290807 0.09599,-0.186342 0.09599,-0.626788 V 18.83562 q -0.115758,0.197635 -0.248456,0.296453 -0.239987,0.183519 -0.623965,0.183519 -0.592907,0 -0.948652,-0.415035 -0.352921,-0.417859 -0.352921,-1.129348 0,-0.686078 0.341628,-1.151934 0.341627,-0.468679 0.968415,-0.468679 z m 0.256927,-0.0085 z m 4.669851,-0.279513 v 0.917595 h 1.02206 q 0.273867,0 0.443269,-0.101641 0.172225,-0.104465 0.172225,-0.367038 0,-0.290807 -0.225869,-0.383979 -0.194813,-0.06494 -0.496913,-0.06494 z m 0,1.606497 v 1.109584 h 1.02206 q 0.273867,0 0.426329,-0.07341 0.27669,-0.135521 0.27669,-0.519499 0,-0.324688 -0.26822,-0.446093 -0.149639,-0.06776 -0.420682,-0.07058 z m 1.191462,-2.32928 q 0.765133,0.01129 1.084174,0.443269 0.191989,0.265397 0.191989,0.635258 0,0.381155 -0.191989,0.612672 -0.107288,0.129875 -0.316218,0.237163 0.319041,0.115758 0.479973,0.367038 0.163756,0.251279 0.163756,0.609847 0,0.369862 -0.186343,0.663492 -0.118581,0.194812 -0.296454,0.327511 -0.200459,0.152462 -0.474326,0.208929 -0.271043,0.05647 -0.590084,0.05647 h -1.88601 v -4.161647 z m 3.77202,2.665261 q -0.07623,0.048 -0.155285,0.07905 -0.07623,0.02823 -0.211753,0.05364 l -0.180695,0.03388 q -0.254103,0.04517 -0.364215,0.110111 -0.186342,0.110111 -0.186342,0.341628 0,0.206106 0.112935,0.299277 0.115758,0.09035 0.279513,0.09035 0.25975,0 0.47715,-0.152462 0.220222,-0.152462 0.228692,-0.556204 z m -0.488442,-0.375508 q 0.223046,-0.02823 0.31904,-0.07058 0.172226,-0.07341 0.172226,-0.228693 0,-0.189166 -0.132699,-0.25975 -0.129875,-0.07341 -0.383978,-0.07341 -0.28516,0 -0.403742,0.141169 -0.0847,0.104464 -0.112934,0.282336 h -0.776427 q 0.02541,-0.403741 0.22587,-0.663491 0.31904,-0.406565 1.095467,-0.406565 0.505383,0 0.897831,0.200459 0.392449,0.200459 0.392449,0.756663 v 1.411684 q 0,0.146815 0.0056,0.355745 0.0085,0.158108 0.048,0.214576 0.03953,0.05647 0.118581,0.09317 v 0.118582 h -0.875244 q -0.0367,-0.09317 -0.05082,-0.175049 -0.01412,-0.08188 -0.02259,-0.186343 -0.166579,0.180696 -0.383978,0.307748 -0.25975,0.149638 -0.587261,0.149638 -0.417858,0 -0.691725,-0.237163 -0.271044,-0.239986 -0.271044,-0.677609 0,-0.567497 0.437623,-0.8216 0.239986,-0.138345 0.705842,-0.197636 z m 0.04235,-1.287457 z m 2.786668,3.159351 h -0.80466 v -4.161647 h 0.80466 z m 2.48174,-1.496386 q -0.07623,0.048 -0.155286,0.07905 -0.07623,0.02823 -0.211752,0.05364 l -0.180696,0.03388 q -0.254103,0.04517 -0.364215,0.110111 -0.186342,0.110111 -0.186342,0.341628 0,0.206106 0.112935,0.299277 0.115758,0.09035 0.279513,0.09035 0.25975,0 0.47715,-0.152462 0.220223,-0.152462 0.228693,-0.556204 z M 42.64938,17.429582 q 0.223046,-0.02823 0.319041,-0.07058 0.172225,-0.07341 0.172225,-0.228693 0,-0.189166 -0.132698,-0.25975 -0.129875,-0.07341 -0.383979,-0.07341 -0.28516,0 -0.403741,0.141169 -0.0847,0.104464 -0.112935,0.282336 h -0.776427 q 0.02541,-0.403741 0.22587,-0.663491 0.319041,-0.406565 1.095467,-0.406565 0.505383,0 0.897832,0.200459 0.392448,0.200459 0.392448,0.756663 v 1.411684 q 0,0.146815 0.0056,0.355745 0.0085,0.158108 0.048,0.214576 0.03953,0.05647 0.118581,0.09317 v 0.118582 h -0.875244 q -0.0367,-0.09317 -0.05082,-0.175049 -0.01412,-0.08188 -0.02259,-0.186343 -0.166578,0.180696 -0.383978,0.307748 -0.25975,0.149638 -0.587261,0.149638 -0.417858,0 -0.691725,-0.237163 -0.271043,-0.239986 -0.271043,-0.677609 0,-0.567497 0.437622,-0.8216 0.239986,-0.138345 0.705842,-0.197636 z m 0.04235,-1.287457 z m 3.670379,0.0085 q 0.47715,0 0.77925,0.251279 0.304924,0.248457 0.304924,0.827248 v 2.072353 h -0.824424 v -1.871894 q 0,-0.24281 -0.06494,-0.372685 -0.118582,-0.237163 -0.451739,-0.237163 -0.409389,0 -0.561851,0.347274 -0.07905,0.183519 -0.07905,0.46868 v 1.665788 H 44.662441 V 16.22965 h 0.776427 v 0.448916 q 0.155285,-0.237163 0.29363,-0.341628 0.248456,-0.186342 0.629611,-0.186342 z m -0.296453,-0.0085 z m 3.961187,1.185816 q -0.02259,-0.172226 -0.115758,-0.310571 -0.135521,-0.186342 -0.420682,-0.186342 -0.406565,0 -0.556203,0.403741 -0.07905,0.214576 -0.07905,0.570321 0,0.338804 0.07905,0.54491 0.143991,0.383978 0.542086,0.383978 0.282337,0 0.400919,-0.152462 0.118581,-0.152462 0.143992,-0.395271 h 0.8216 q -0.02823,0.367038 -0.265397,0.694549 -0.378331,0.52797 -1.120877,0.52797 -0.742546,0 -1.092644,-0.440446 -0.350098,-0.440446 -0.350098,-1.143465 0,-0.793366 0.386802,-1.233812 0.386801,-0.440445 1.067233,-0.440445 0.578791,0 0.945829,0.25975 0.369861,0.25975 0.437622,0.917595 z m -0.54491,-1.185816 z m 3.136762,0.663492 q -0.279513,0 -0.434798,0.175049 -0.152462,0.175049 -0.19199,0.474326 h 1.250753 q -0.01976,-0.319041 -0.194813,-0.482796 -0.172225,-0.166579 -0.429152,-0.166579 z m 0,-0.663492 q 0.383979,0 0.691726,0.143992 0.307747,0.143992 0.508206,0.454563 0.180696,0.273867 0.23434,0.635258 0.03106,0.211752 0.02541,0.609848 h -2.106233 q 0.01694,0.463032 0.290807,0.649374 0.166579,0.115759 0.400918,0.115759 0.248457,0 0.403742,-0.141169 0.0847,-0.07623 0.149639,-0.211753 h 0.8216 q -0.03106,0.273867 -0.28516,0.556204 -0.395272,0.448916 -1.106761,0.448916 -0.587261,0 -1.036176,-0.378332 -0.448916,-0.378331 -0.448916,-1.230989 0,-0.799013 0.403742,-1.225342 0.406565,-0.426329 1.053116,-0.426329 z m 0.05647,0 z"
       id="text2"
       transform="scale(1.023827,0.97672751)"
       aria-label="Remaining Balance" />
  </g>
</svg>
