<?xml version="1.0" encoding="UTF-8" standalone="no"?>
<!-- Created with Inkscape (http://www.inkscape.org/) -->

<svg
   width="100"
   height="100"
   viewBox="0 0 26.458333 26.458333"
   version="1.1"
   id="svg1"
   sodipodi:docname="returnl_btn.svg"
   inkscape:version="1.3.2 (091e20e, 2023-11-25, custom)"
   xmlns:inkscape="http://www.inkscape.org/namespaces/inkscape"
   xmlns:sodipodi="http://sodipodi.sourceforge.net/DTD/sodipodi-0.dtd"
   xmlns:xlink="http://www.w3.org/1999/xlink"
   xmlns="http://www.w3.org/2000/svg"
   xmlns:svg="http://www.w3.org/2000/svg">
  <sodipodi:namedview
     id="namedview1"
     pagecolor="#505050"
     bordercolor="#ffffff"
     borderopacity="1"
     inkscape:showpageshadow="0"
     inkscape:pageopacity="0"
     inkscape:pagecheckerboard="1"
     inkscape:deskcolor="#d1d1d1"
     inkscape:document-units="mm"
     inkscape:zoom="5.7157127"
     inkscape:cx="79.080252"
     inkscape:cy="48.987767"
     inkscape:window-width="1920"
     inkscape:window-height="1009"
     inkscape:window-x="1912"
     inkscape:window-y="-8"
     inkscape:window-maximized="1"
     inkscape:current-layer="layer1" />
  <defs
     id="defs1">
    <linearGradient
       id="linearGradient2"
       inkscape:collect="always">
      <stop
         style="stop-color:#ffffff;stop-opacity:1;"
         offset="0"
         id="stop3" />
      <stop
         style="stop-color:#162670;stop-opacity:1;"
         offset="1"
         id="stop4" />
    </linearGradient>
    <linearGradient
       id="linearGradient1"
       inkscape:collect="always">
      <stop
         style="stop-color:#ffffff;stop-opacity:1;"
         offset="0"
         id="stop1" />
      <stop
         style="stop-color:#162670;stop-opacity:1;"
         offset="1"
         id="stop2" />
    </linearGradient>
    <radialGradient
       inkscape:collect="always"
       xlink:href="#linearGradient1"
       id="radialGradient2"
       cx="5.9615526"
       cy="6.7022047"
       fx="5.9615526"
       fy="6.7022047"
       r="13.229167"
       gradientUnits="userSpaceOnUse" />
    <radialGradient
       inkscape:collect="always"
       xlink:href="#linearGradient2"
       id="radialGradient4"
       cx="22.298092"
       cy="22.453941"
       fx="22.298092"
       fy="22.453941"
       r="13.229132"
       gradientUnits="userSpaceOnUse"
       gradientTransform="matrix(1.3673914,-0.00242022,0.00230984,1.3050278,-7.8822263,-6.6021759)" />
  </defs>
  <g
     inkscape:label="Layer 1"
     inkscape:groupmode="layer"
     id="layer1">
    <path
       id="path1"
       style="fill:url(#radialGradient4);stroke:url(#radialGradient2);stroke-width:2.869"
       d="M 25.023797,13.229168 A 11.794632,11.794633 0 0 1 13.229165,25.023801 11.794632,11.794633 0 0 1 1.4345331,13.229168 11.794632,11.794633 0 0 1 13.229165,1.434535 11.794632,11.794633 0 0 1 25.023797,13.229168 Z" />
    <path
       style="font-size:6.54587px;line-height:0.45;font-family:'Noto Sans TC';-inkscape-font-specification:'Noto Sans TC';fill:#ffffff;stroke-width:0.119016"
       d="M 9.7533068,8.7664011 H 12.306196 V 9.1984285 H 9.7533068 Z M 9.5242013,7.5292317 H 9.9824122 V 8.871135 q 0,0.3600229 -0.032729,0.7855044 -0.032729,0.4189356 -0.1178257,0.8575086 -0.085096,0.432028 -0.248743,0.844418 -0.1636468,0.412389 -0.4320275,0.75932 -0.039275,-0.03927 -0.1178256,-0.0851 -0.072005,-0.05237 -0.1440091,-0.09819 -0.072005,-0.04582 -0.1309174,-0.06546 0.2552889,-0.333839 0.4058439,-0.713499 0.1571009,-0.386207 0.2356513,-0.785505 0.07855,-0.3992979 0.098188,-0.7789583 0.026184,-0.3862063 0.026184,-0.7200457 z m 2.6445317,1.2371694 h 0.09164 l 0.0851,-0.013092 0.30111,0.1047339 q -0.202922,0.8640548 -0.60222,1.5186417 -0.399298,0.648041 -0.936059,1.099706 -0.530216,0.451665 -1.1520733,0.7135 -0.039275,-0.09164 -0.1243715,-0.209468 -0.07855,-0.117825 -0.150555,-0.18983 0.4189358,-0.157101 0.8116878,-0.425482 0.392752,-0.274926 0.720046,-0.648041 0.333839,-0.373114 0.576036,-0.837871 0.248743,-0.4713027 0.379661,-1.0211557 z m -1.950669,1.0800685 0.340385,-0.2880183 q 0.320747,0.2421972 0.654587,0.5302157 0.340385,0.288018 0.667678,0.589128 0.327294,0.294564 0.595675,0.582583 0.274926,0.281472 0.458211,0.517123 l -0.373115,0.327294 Q 12.384746,11.869143 12.116366,11.581125 11.854531,11.293107 11.533783,10.985451 11.219582,10.677795 10.879196,10.389777 10.538811,10.095213 10.218064,9.8464696 Z M 9.5242013,7.3852226 H 12.862595 V 7.8303417 H 9.5242013 Z M 7.3509725,7.3394015 7.7240871,7.1168419 Q 7.8746421,7.2739428 8.031743,7.4572271 8.1953898,7.6405115 8.332853,7.81725 8.4768622,7.9874426 8.5619585,8.11836 L 8.1888439,8.3867406 Q 8.0972017,8.2492774 7.9531926,8.065993 7.8157293,7.8827087 7.6586284,7.6928784 7.5015275,7.4965024 7.3509725,7.3394015 Z M 7.1153212,8.5831167 H 8.5488667 V 8.9955065 H 7.1153212 Z m 1.1717107,2.9980083 q 0.202922,0.432028 0.5498531,0.641495 0.353477,0.209468 0.8509631,0.274927 0.5040319,0.05891 1.1520729,0.06546 0.346931,0 0.759321,-0.01309 0.41239,-0.01309 0.818234,-0.03273 0.41239,-0.01964 0.739683,-0.04582 -0.03273,0.05237 -0.06546,0.137464 -0.03273,0.0851 -0.05891,0.170192 -0.02618,0.09164 -0.03928,0.163647 -0.30111,0.01309 -0.667678,0.02618 -0.366569,0.01964 -0.74623,0.01964 -0.37966,0.0065 -0.739683,0.0065 -0.576036,0 -1.0342473,-0.04582 Q 9.3540087,12.903391 9.0070776,12.772473 8.6601465,12.641556 8.3983117,12.392813 8.1364769,12.14407 7.9531926,11.738226 Z M 8.38522,10.213038 h 0.1178256 l 0.085096,-0.0065 0.2421972,0.09164 Q 8.6601465,11.338928 8.2673943,12.039336 7.8746421,12.733198 7.3313349,13.106313 7.2986056,13.053946 7.2396928,12.988487 7.1807799,12.923028 7.1153212,12.85757 7.0564084,12.798657 7.0040414,12.772473 7.527711,12.438634 7.8877339,11.816776 8.2477567,11.194919 8.38522,10.298135 Z m -1.1782566,0.497486 v -0.37966 L 7.4426147,10.213038 H 8.535775 v 0.399298 H 7.5997156 q -0.1243715,0 -0.2421972,0.03273 -0.1112798,0.02618 -0.150555,0.06546 z m 0,0 q -0.013092,-0.05891 -0.052367,-0.144009 -0.032729,-0.0851 -0.065459,-0.170192 -0.032729,-0.0851 -0.065459,-0.130918 0.07855,-0.01964 0.1571008,-0.05891 0.07855,-0.04582 0.1571009,-0.137463 0.07855,-0.072004 0.2160137,-0.2552887 0.1374633,-0.1832844 0.30111,-0.405844 0.1636468,-0.2291054 0.30111,-0.4385732 0.1440092,-0.2094679 0.2225596,-0.3403853 v -0.013092 l 0.150555,-0.065459 0.3207476,0.150555 Q 8.7321511,8.871135 8.5750502,9.0936946 8.4179493,9.3162542 8.2412108,9.5584513 8.0644724,9.8006485 7.8877339,10.023208 q -0.1701926,0.22256 -0.3076559,0.379661 0,0 -0.058913,0.03273 -0.052367,0.02618 -0.1309174,0.07855 -0.072005,0.04582 -0.1309174,0.09819 -0.052367,0.04582 -0.052367,0.09819 z M 15.80169,9.2966166 v 1.4990044 h 1.597193 V 9.2966166 Z M 15.336934,8.8514974 h 2.546343 V 11.234194 H 15.336934 Z M 13.890297,7.3394015 H 19.36919 V 13.086675 H 18.84552 V 7.8303417 h -4.451192 v 5.2563333 h -0.504031 z m 0.288018,4.9290395 h 4.968315 v 0.464757 h -4.968315 z"
       id="text4"
       aria-label="返回" />
    <path
       style="font-weight:bold;font-size:3.82501px;line-height:0.45;font-family:'Helvetica Neue';-inkscape-font-specification:'Helvetica Neue Bold';fill:#ffffff;stroke-width:0.0695456"
       d="m 5.9092937,15.271315 v 2.723407 h 0.5928765 v -1.067177 h 0.5316764 c 0.1912505,0 0.3213009,0.03825 0.3978011,0.110925 0.0765,0.0765 0.1224003,0.20655 0.1453504,0.397801 0,0.01147 0.00382,0.06502 0.011475,0.164475 0.00765,0.09945 0.0153,0.179776 0.026775,0.240976 0.00765,0.0612 0.02295,0.11475 0.0459,0.156825 h 0.6196516 c -0.02295,-0.01912 -0.03825,-0.0459 -0.05355,-0.08415 -0.0153,-0.03825 -0.026775,-0.08798 -0.034425,-0.141525 -0.00765,-0.05738 -0.0153,-0.1071 -0.019125,-0.145351 -0.00765,-0.03825 -0.011475,-0.0918 -0.0153,-0.156825 -0.00765,-0.06885 -0.00765,-0.1071 -0.00765,-0.118575 -0.034425,-0.374851 -0.1683005,-0.589052 -0.4016261,-0.634952 0.1338754,-0.05355 0.2409757,-0.1377 0.3174759,-0.256276 0.0765,-0.118575 0.1147503,-0.256275 0.1147503,-0.413101 0,-0.2601 -0.087975,-0.455176 -0.2562757,-0.581401 C 7.7529485,15.33634 7.5310979,15.27514 7.2633472,15.27514 Z m 0.5928765,0.474301 h 0.5928766 c 0.1530004,0 0.2715757,0.02295 0.363376,0.0765 0.0918,0.04972 0.1377003,0.14535 0.1377003,0.2907 0,0.153001 -0.049725,0.252451 -0.1415254,0.306001 -0.0918,0.05355 -0.2218505,0.08032 -0.386326,0.08032 H 6.5021702 Z M 10.690557,15.271315 H 8.6480013 v 2.723407 H 10.717332 V 17.493646 H 9.2408779 V 16.824269 H 10.571981 V 16.353793 H 9.2408779 v -0.592877 h 1.4496791 z m 2.459484,0 H 10.91241 v 0.508727 h 0.818552 v 2.21468 h 0.600527 v -2.21468 h 0.818552 z m 2.631607,0 h -0.596701 v 1.629454 c 0,0.221851 -0.04207,0.386327 -0.118575,0.493427 -0.0765,0.1071 -0.221851,0.16065 -0.436052,0.16065 -0.22185,0 -0.374851,-0.05355 -0.459001,-0.16065 -0.08415,-0.1071 -0.126225,-0.271576 -0.126225,-0.493427 v -1.629454 h -0.596702 v 1.629454 c 0,0.390152 0.0918,0.680852 0.283051,0.868278 0.191251,0.187425 0.485776,0.279226 0.891227,0.279226 0.397801,0 0.688502,-0.0918 0.875928,-0.275401 0.187425,-0.183601 0.28305,-0.474301 0.28305,-0.864452 z m 0.539324,0 v 2.723407 h 0.592877 v -1.067177 h 0.531676 c 0.19125,0 0.321301,0.03825 0.397801,0.110925 0.0765,0.0765 0.1224,0.20655 0.14535,0.397801 0,0.01147 0.0038,0.06502 0.01147,0.164475 0.0077,0.09945 0.0153,0.179776 0.02678,0.240976 0.0077,0.0612 0.02295,0.11475 0.0459,0.156825 h 0.619651 c -0.02295,-0.01912 -0.03825,-0.0459 -0.05355,-0.08415 -0.0153,-0.03825 -0.02678,-0.08798 -0.03442,-0.141525 -0.0077,-0.05738 -0.0153,-0.1071 -0.01913,-0.145351 -0.0076,-0.03825 -0.01147,-0.0918 -0.0153,-0.156825 -0.0076,-0.06885 -0.0076,-0.1071 -0.0076,-0.118575 -0.03443,-0.374851 -0.168301,-0.589052 -0.401626,-0.634952 0.133875,-0.05355 0.240975,-0.1377 0.317476,-0.256276 0.0765,-0.118575 0.11475,-0.256275 0.11475,-0.413101 0,-0.2601 -0.08798,-0.455176 -0.256276,-0.581401 C 18.164627,15.33634 17.942776,15.27514 17.675026,15.27514 Z m 0.592877,0.474301 h 0.592876 c 0.153001,0 0.271576,0.02295 0.363376,0.0765 0.0918,0.04972 0.1377,0.14535 0.1377,0.2907 0,0.153001 -0.04973,0.252451 -0.141525,0.306001 -0.0918,0.05355 -0.221851,0.08032 -0.386326,0.08032 h -0.566101 z m 2.145831,2.249106 h 0.577576 v -1.828354 l 1.128378,1.828354 h 0.596702 v -2.723407 h -0.573752 v 1.82453 l -1.120728,-1.82453 H 19.05968 Z"
       id="text5"
       aria-label="RETURN" />
  </g>
</svg>
