<?xml version="1.0" encoding="UTF-8" standalone="no"?>
<!-- Created with Inkscape (http://www.inkscape.org/) -->

<svg
   width="550"
   height="80"
   viewBox="0 0 145.52082 21.166666"
   version="1.1"
   id="svg1"
   sodipodi:docname="sel.svg"
   inkscape:version="1.3.2 (091e20e, 2023-11-25, custom)"
   xmlns:inkscape="http://www.inkscape.org/namespaces/inkscape"
   xmlns:sodipodi="http://sodipodi.sourceforge.net/DTD/sodipodi-0.dtd"
   xmlns="http://www.w3.org/2000/svg"
   xmlns:svg="http://www.w3.org/2000/svg">
  <sodipodi:namedview
     id="namedview1"
     pagecolor="#505050"
     bordercolor="#ffffff"
     borderopacity="1"
     inkscape:showpageshadow="0"
     inkscape:pageopacity="0"
     inkscape:pagecheckerboard="1"
     inkscape:deskcolor="#d1d1d1"
     inkscape:document-units="mm"
     inkscape:zoom="2.0208096"
     inkscape:cx="286.02398"
     inkscape:cy="74.227676"
     inkscape:window-width="1920"
     inkscape:window-height="1009"
     inkscape:window-x="1912"
     inkscape:window-y="-8"
     inkscape:window-maximized="1"
     inkscape:current-layer="layer1" />
  <defs
     id="defs1">
    <clipPath
       id="clip_0">
      <path
         transform="matrix(1,0,0,-1,0,841.92)"
         d="M 8.871e-6,0 H 595.32 V 841.92 H 8.871e-6 Z"
         fill-rule="evenodd"
         id="path1" />
    </clipPath>
    <clipPath
       id="clip_2">
      <path
         transform="matrix(1,0,0,-1,0,841.92)"
         d="M 8.871e-6,0 H 595.32 V 841.92 H 8.871e-6 Z"
         fill-rule="evenodd"
         id="path2" />
    </clipPath>
    <clipPath
       id="clip_3">
      <path
         transform="matrix(1,0,0,-1,0,841.92)"
         d="M 8.871e-6,0 H 595.32 V 841.92 H 8.871e-6 Z"
         fill-rule="evenodd"
         id="path3" />
    </clipPath>
    <clipPath
       id="clip_4">
      <path
         transform="matrix(1,0,0,-1,0,841.92)"
         d="M 8.871e-6,0 H 595.32 V 841.92 H 8.871e-6 Z"
         fill-rule="evenodd"
         id="path4" />
    </clipPath>
    <clipPath
       id="clip_5">
      <path
         transform="matrix(1,0,0,-1,0,841.92)"
         d="M 8.871e-6,0 H 595.32 V 841.92 H 8.871e-6 Z"
         fill-rule="evenodd"
         id="path5" />
    </clipPath>
    <clipPath
       id="clip_14">
      <path
         transform="matrix(1,0,0,-1,0,841.92)"
         d="M 8.871e-6,0 H 595.32 V 841.92 H 8.871e-6 Z"
         fill-rule="evenodd"
         id="path12" />
    </clipPath>
  </defs>
  <g
     inkscape:label="Layer 1"
     inkscape:groupmode="layer"
     id="layer1">
    <g
       id="g127"
       transform="matrix(0.40285565,0,0,0.40285565,-34.442709,-28.983947)">
      <g
         clip-path="url(#clip_0)"
         id="g28">
        <path
           id="use22"
           d="m 101.20369,92.462157 h -3.984377 v 1.851562 H 112.7115 v -1.851562 h -4.21875 v -1.523438 h 3.5625 v -1.851562 h -3.5625 v -1.523438 h 2.67188 c 0.48437,0 0.92968,-0.179688 1.33593,-0.539062 0.375,-0.296875 0.5,-1.093749 0.375,-2.390625 l -1.64062,-0.351562 c 0.0469,0.843749 -0.0391,1.328124 -0.25781,1.453126 -0.15624,0.109368 -0.32813,0.164064 -0.51563,0.164064 h -2.97656 c -0.15624,-0.01563 -0.3125,-0.08594 -0.46875,-0.210936 -0.14062,-0.15624 -0.21094,-0.320311 -0.21094,-0.492187 V 84.09497 h 4.80469 c 0.34375,0 0.52344,-0.179688 0.53906,-0.539064 v -3.796875 c 0,-0.34375 -0.17969,-0.515626 -0.53906,-0.515626 h -5.95313 c -0.34375,0 -0.51562,0.171864 -0.51562,0.515626 v 6.117189 c -0.0156,0.4375 0.15625,0.828125 0.51562,1.171875 0.29688,0.28125 0.625,0.453125 0.98438,0.515625 v 1.523437 h -3.58594 v -1.289061 c 0.29688,-0.0625 0.60156,-0.22656 0.91406,-0.492188 0.34375,-0.296875 0.47657,-1.062499 0.39844,-2.296874 l -1.66406,-0.351562 c 0.0156,0.765624 -0.0703,1.218749 -0.25782,1.359375 -0.15624,0.109368 -0.32812,0.164064 -0.51562,0.164064 h -2.320312 c -0.15624,-0.01563 -0.3125,-0.08594 -0.468752,-0.210936 -0.140616,-0.15624 -0.210936,-0.320314 -0.210936,-0.492187 v -1.101564 h 4.61719 c 0.34375,0 0.52344,-0.179688 0.53906,-0.539062 v -3.890625 c 0,-0.34375 -0.17969,-0.515626 -0.53906,-0.515626 h -5.765627 c -0.34375,0 -0.515626,0.171864 -0.515626,0.515626 v 6.210933 c -0.01562,0.437501 0.15624,0.828125 0.515626,1.171874 0.343749,0.328126 0.726561,0.5 1.148438,0.515626 h 2.273439 v 1.242187 h -3.421877 v 1.851562 h 3.421877 v 1.523438 m 1.85156,0 v -1.523438 h 3.58594 v 1.523438 h -3.58594 m -4.125,-11.085937 c 0,-0.187512 0.09374,-0.281249 0.281249,-0.281249 h 2.929691 c 0.18751,0 0.28125,0.08594 0.28125,0.257813 v 1.078123 c 0,0.187512 -0.0937,0.281251 -0.28125,0.281251 H 98.93025 V 81.37622 m 7.875,-0.187512 c 0,-0.187512 0.0937,-0.281249 0.28125,-0.281249 h 3.11719 c 0.18751,0 0.28125,0.08594 0.28125,0.257813 v 0.984385 c 0,0.187512 -0.0937,0.281249 -0.28125,0.281249 h -3.39844 v -1.242187 m -4.66406,13.312501 c -1.40625,0.9375 -2.882815,1.492188 -4.42969,1.664063 0.15624,0.484375 0.21876,1.125 0.187512,1.921874 1.640626,-0.1875 3.374998,-0.781249 5.203128,-1.78125 l -0.96095,-1.804687 m 4.82812,1.875 c 1.21875,0.296875 2.75782,0.914063 4.61719,1.851563 l 0.75,-1.710938 c -1.75,-0.90625 -3.32031,-1.539063 -4.71094,-1.898438 l -0.65625,1.757813 M 90.891187,80.71997 c 1.078126,0.5625 2.390626,1.46875 3.9375,2.71875 l 1.218752,-1.664062 C 94.578687,80.540282 93.227125,79.618407 91.99275,79.009032 l -1.101563,1.710938 m -0.07031,5.109375 c 1,0.484375 2.257812,1.281249 3.773438,2.390625 l 1.148438,-1.710938 c -1.421876,-1.09375 -2.710939,-1.906248 -3.867188,-2.4375 l -1.054688,1.757813 m 3.257812,10.664062 c -0.15625,0.625001 -0.4375,1.148438 -0.84375,1.570313 -0.437499,0.421875 -1.265624,0.78125 -2.484374,1.078125 l 0.679687,1.992185 c 0.71875,-0.10937 1.484375,-0.42187 2.296875,-0.9375 0.796875,-0.484373 1.335939,-0.953122 1.617187,-1.406247 1.171875,1.281247 3.523438,1.992187 7.054686,2.132817 3.15625,0 6.52344,0.008 10.10156,0.0234 l 0.42188,-2.32031 c -7.65625,0.375 -12.20313,0.382812 -13.640626,0.02344 -1.000001,-0.249999 -1.742189,-0.601562 -2.226562,-1.054687 -0.515625,-0.421875 -0.828124,-0.820313 -0.9375,-1.195313 v -5.578125 c 0,-0.343749 -0.171864,-0.515625 -0.515625,-0.515625 H 91.149 v 2.039063 h 2.671875 c 0.15624,0 0.242187,0.09374 0.257813,0.281251 z"
           style="fill:#282472;stroke-width:24" />
        <path
           id="use23"
           d="m 117.60994,90.868407 c -1.04688,0.484376 -1.99219,0.914063 -2.83594,1.289063 l 1.03125,1.781251 c 0.51563,-0.203136 1.11719,-0.468751 1.80469,-0.796874 v 4.945312 c 0,0.328125 -0.0703,0.554688 -0.21094,0.679688 -0.28125,0.203124 -1.0625,0.124999 -2.34375,-0.234374 l 0.0234,2.109377 c 1.64062,0.46875 2.80469,0.48437 3.49219,0.0469 0.70312,-0.46875 1.0625,-1.15625 1.07812,-2.0625 v -6.492188 c 1.04688,-0.5625 1.80469,-1 2.27344,-1.3125 l -1.05469,-1.734375 c -0.32812,0.203125 -0.73438,0.445313 -1.21875,0.726563 V 85.97 h 1.78125 V 83.930906 H 119.649 v -4.921874 h -2.03906 v 4.921875 h -2.20313 v 2.039063 h 2.20313 v 4.898437 m 10.96875,7.382813 v 2.625 h 2.03906 v -2.625 h 6.46875 v -1.851563 h -6.46875 V 94.87622 h 5.71875 v -1.851563 h -2.97656 c 0.23438,-1.234375 0.35937,-1.898438 0.375,-1.992187 h 3.35156 v -1.851561 h -6.46875 v -1.242188 h 5.625 V 86.08716 h -5.625 v -1.101562 h 5.69531 c 0.15624,0 0.24219,-0.08594 0.25781,-0.257813 V 79.80591 c 0,-0.15624 -0.0859,-0.234384 -0.25781,-0.234384 h -13.73437 c -0.15624,0 -0.23439,0.07812 -0.23439,0.234384 v 4.921873 c 0,0.15624 0.0781,0.242186 0.23439,0.257813 h 6 v 1.101561 h -5.48438 v 1.851563 h 5.48438 v 1.242187 h -6.42188 v 1.851563 h 3.07032 c 0.32812,1.078126 0.52343,1.742186 0.58593,1.992187 h -3.09375 v 1.851563 h 5.85938 v 1.523437 h -6.98438 v 1.851563 h 6.98438 m -0.70313,-5.226563 c -0.0469,-0.140616 -0.23438,-0.804686 -0.5625,-1.992187 h 4.38281 c -0.0156,0.0625 -0.0234,0.14844 -0.0234,0.257813 -0.10937,0.625001 -0.23439,1.203125 -0.375,1.734374 h -3.42188 m 2.76563,-9.609374 h -2.17969 v -2.273439 h 2.17969 v 2.273439 m 1.85156,-2.273439 h 2.03906 c 0.0625,0 0.0937,0.02344 0.0937,0.07032 v 2.109375 c 0,0.04687 -0.0312,0.07812 -0.0937,0.09374 h -2.03906 V 81.14184 m -5.88281,2.273439 h -2.25 c -0.0625,-0.01563 -0.0859,-0.04687 -0.0703,-0.09374 v -2.109375 c -0.0156,-0.04687 0.008,-0.07032 0.0703,-0.07032 h 2.25 z"
           style="fill:#282472;stroke-width:24" />
        <path
           id="use24"
           d="m 153.82087,83.040283 v -1.664064 h 6.70313 v -1.851562 h -21.02344 v 1.851563 h 6.75 v 1.664063 h -5.78906 c -0.15625,0 -0.24219,0.08594 -0.25781,0.257813 v 4.781249 c 0,0.187512 0.0859,0.281251 0.25781,0.281251 h 19.03125 c 0.18751,0 0.28125,-0.09374 0.28125,-0.281251 v -4.781249 c 0,-0.15624 -0.0937,-0.242189 -0.28125,-0.257813 h -5.67188 m -1.94531,0 h -3.67968 v -1.664064 h 3.67968 v 1.664064 m 0,3.5625 h -3.67968 v -1.804687 h 3.67968 v 1.804687 m 1.94531,-1.804687 h 3.82032 c 0.0625,0 0.0937,0.03125 0.0937,0.09374 v 1.593751 c 0,0.0625 -0.0312,0.101568 -0.0937,0.117192 h -3.82032 v -1.804687 m -7.57031,1.804687 h -3.9375 c -0.0625,-0.01563 -0.0859,-0.0547 -0.0703,-0.117192 V 84.89184 c -0.0156,-0.0625 0.008,-0.09374 0.0703,-0.09374 h 3.9375 v 1.804687 m -4.03125,3 v 1.757812 H 157.899 v -1.757812 h -15.67969 m 7.26563,4.804687 v 3.773437 c 0,0.328126 -0.0703,0.554688 -0.21094,0.679688 -0.39062,0.328125 -1.46875,0.210939 -3.23437,-0.351562 l -0.0469,2.132813 c 2.20313,0.57812 3.6875,0.625 4.45313,0.14061 0.70312,-0.46875 1.0625,-1.156245 1.07812,-2.062495 v -4.3125 h 9.09376 V 92.5559 h -21.3047 v 1.85157 h 10.17188 m -4.57031,0.703125 c -1.37501,1.078125 -3.38282,2.257813 -6.02344,3.539062 l 0.96094,1.710943 c 2.5,-1.187505 4.53906,-2.39063 6.11718,-3.60938 l -1.05468,-1.640625 m 9.04687,1.851562 c 2.53125,1.265626 4.53906,2.421875 6.02344,3.468753 l 1.17187,-1.664065 c -1.70312,-1.171875 -3.75,-2.351563 -6.14062,-3.539062 z"
           style="fill:#282472;stroke-width:24" />
        <path
           id="use25"
           d="m 165.09431,88.899657 v 12.070313 h 1.94532 V 84.165283 c 0.39062,-1.375001 0.71874,-3 0.98437,-4.875 l -1.94531,-0.234384 c -0.28125,3.515633 -1.41407,6.867196 -3.39844,10.054696 l 1.875,0.679687 c 0.15624,-0.281251 0.33594,-0.578124 0.53906,-0.890626 M 179.649,82.430907 V 81.18872 h 4.6875 v -1.664063 h -15.67969 v 1.664063 h 4.45313 v 1.242187 h -4.54688 c -0.15624,0 -0.23438,0.07812 -0.23438,0.234384 v 4.359366 c 0,0.15624 0.0781,0.242189 0.23438,0.257813 h 15.60938 c 0.15624,0 0.24218,-0.08594 0.25781,-0.257813 v -4.359374 c 0,-0.15624 -0.0859,-0.234384 -0.25781,-0.234384 H 179.649 m -1.85156,0 h -2.83594 v -1.242187 h 2.83594 v 1.242187 m 0,3.1875 H 174.9615 V 84.09497 h 2.83594 v 1.523437 M 179.649,84.09497 h 2.83594 c 0.0625,0 0.0937,0.02344 0.0937,0.07032 v 1.359367 c 0,0.04687 -0.0312,0.07812 -0.0937,0.09374 H 179.649 V 84.09497 m -6.53906,1.523437 h -2.85938 c -0.0625,-0.01563 -0.0859,-0.04687 -0.0703,-0.09374 v -1.359374 c -0.0156,-0.04687 0.008,-0.07032 0.0703,-0.07032 h 2.85938 v 1.523438 m 10.52343,11.25 v -8.296875 c 0,-0.296875 -0.16406,-0.453124 -0.49218,-0.468748 h -13.45313 c -0.29687,0 -0.45312,0.15624 -0.46875,0.468748 v 8.296875 c 0,0.328126 0.15624,0.492188 0.46875,0.492188 h 13.45313 c 0.32812,0 0.49218,-0.164063 0.49218,-0.492188 m -1.94531,-2.085937 v 0.890625 c 0,0.0625 -0.0312,0.101563 -0.0937,0.117187 h -10.35938 c -0.0625,-0.01563 -0.0859,-0.05469 -0.0703,-0.117187 V 94.78247 h 10.52344 M 171.16463,93.305907 V 92.15747 h 10.52343 v 1.148437 h -10.52343 m 0,-2.625 v -0.914061 c -0.0156,-0.0625 0.008,-0.09374 0.0703,-0.09374 h 10.35936 c 0.0625,0 0.0937,0.03125 0.0937,0.09374 v 0.914061 h -10.52343 m 7.89843,8.835938 c 1.28125,0.25 2.95313,0.804685 5.01563,1.664065 l 0.77344,-1.781253 c -2.0625,-0.890624 -3.85938,-1.484375 -5.39063,-1.78125 l -0.39844,1.898438 m -5.64843,-1.945312 c -1.28125,0.578125 -3.04688,1.148437 -5.29688,1.710937 l 0.53906,1.89844 c 2.17188,-0.48438 3.97656,-1.07813 5.41406,-1.781253 z"
           style="fill:#282472;stroke-width:24" />
        <path
           id="use26"
           d="m 205.78181,92.977783 h -4.61718 V 84.84497 c 0,-0.328126 -0.17187,-0.492187 -0.51563,-0.492187 h -3.49219 c -0.20313,0 -0.30468,-0.109368 -0.30468,-0.328126 V 82.40747 h 4.17187 v -1.851564 h -4.17187 v -1.664062 h -1.94532 v 6.703126 c 0,0.34375 0.16407,0.515626 0.49219,0.515626 h 3.49219 c 0.20313,0 0.3125,0.101568 0.32812,0.304687 v 6.5625 H 196.899 v -5.625 h -1.85156 v 5.625 h -4.66406 V 90.46997 h 3.42187 v -1.851562 h -3.42187 v -2.367187 h 3.42187 v -1.851564 h -3.42187 v -2.4375 c -0.0156,-0.140616 0.0312,-0.210936 0.14061,-0.210936 1.32813,-0.140616 2.54688,-0.382812 3.65625,-0.726561 l -0.91405,-1.757816 c -1.23438,0.421876 -2.6875,0.6875 -4.35938,0.796876 -0.34375,0.01563 -0.5,0.164063 -0.46875,0.445312 v 12.468751 h -1.59375 v 1.945312 h 22.24219 v -1.945312 h -1.35937 V 80.110596 c 0,-0.328126 -0.15624,-0.49219 -0.46876,-0.49219 h -4.92187 v 1.851564 h 3.1875 c 0.15624,0 0.24219,0.08594 0.25781,0.257813 v 2.484374 h -3.375 v 1.851562 h 3.375 v 2.554688 h -3.375 v 1.851563 h 3.375 v 2.507813 m -11.53125,2.507812 c -2.10937,1.78125 -4.39844,2.953125 -6.86718,3.515625 0.20312,0.484375 0.34374,1.14844 0.42187,1.99219 2.45313,-0.5625 5.00781,-1.80469 7.66406,-3.726565 l -1.21875,-1.78125 m 6.35157,2.039062 c 1.98437,0.625001 4.48437,1.773438 7.5,3.445313 l 0.91406,-1.851563 C 206.18806,97.477783 203.649,96.31372 201.399,95.62622 Z"
           style="fill:#282472;stroke-width:24" />
        <path
           id="use27"
           d="m 213.68025,91.78247 h 2.83594 c 0.18751,-0.01563 0.28906,0.0625 0.30468,0.234384 0.0625,3.390625 0.0391,5.289063 -0.0703,5.695313 -0.0937,0.34375 -0.25781,0.570312 -0.49218,0.679687 -0.8125,0.328125 -2.34375,0.179688 -4.59375,-0.445312 l 0.14062,2.226558 c 1.79688,0.46876 3.10938,0.67188 3.9375,0.60938 0.84375,-0.14062 1.46875,-0.36719 1.875,-0.67969 0.60938,-0.484374 0.95313,-1.117186 1.03125,-1.898436 0.10937,-0.796875 0.11719,-3.492188 0.0234,-8.085938 0.0156,-0.328126 -0.14062,-0.507811 -0.46875,-0.539062 h -4.52343 v -2.648437 c 0,-0.09374 0.0312,-0.171864 0.0937,-0.234384 0.0469,-0.04687 0.1172,-0.07032 0.21094,-0.07032 h 2.90626 v 0.234384 c 0.67187,0 1.35156,0 2.03906,0 v -7.101563 c 0,-0.203136 -0.11719,-0.312499 -0.35156,-0.328126 h -6.91406 v 2.039062 h 4.89843 c 0.20314,0 0.3125,0.101568 0.32813,0.304687 v 2.8125 h -4.78125 c -0.10938,0 -0.21875,0.03907 -0.32813,0.117192 -0.0937,0.09374 -0.14062,0.210936 -0.14062,0.351562 v 7.007809 c 0.67187,0.01563 1.35156,0.04687 2.03906,0.09375 v -0.375 m 13.73438,2.414063 C 226.97706,93.305907 226.60988,92.28247 226.313,91.12622 h 6.30469 v -1.851563 h -9.98438 v -1.476561 h 8.48438 v -1.757813 h -8.48438 v -1.523439 h 8.48438 v -1.757812 h -8.48438 v -1.335936 c -0.0156,-0.15624 0.0547,-0.234384 0.21094,-0.234384 h 8.64844 V 79.33715 h -10.38281 c -0.29688,0 -0.43751,0.14844 -0.42188,0.445313 v 9.492194 h -1.5 v 1.851562 h 1.5 v 7.710937 c -0.67187,0.09375 -1.28125,0.1875 -1.82812,0.28125 l 0.53906,1.992194 c 3,-0.43751 5.35938,-0.97657 7.07813,-1.617193 l -0.60938,-1.945312 c -0.70312,0.25 -1.77344,0.539062 -3.21094,0.867188 -0.0156,0 -0.0234,0.0078 -0.0234,0.02344 v -7.3125 h 1.82813 c 0.84375,3.609375 2.51562,6.421875 5.01563,8.4375 0.60937,0.484367 1.33593,1.007807 2.17968,1.570307 l 1.5,-1.499994 c -2.17187,-1.171876 -3.76562,-2.4375 -4.78125,-3.796876 1.98438,-0.999999 3.33594,-1.726562 4.05469,-2.179687 l -0.84375,-1.734375 c -0.65625,0.421875 -2.04687,1.179687 -4.17187,2.273438 z"
           style="fill:#282472;stroke-width:24" />
        <path
           id="use28"
           d="m 249.72713,89.087157 c 0.0937,1.21875 0.67187,3.109376 1.73437,5.671876 -1.28125,2.078125 -2.82031,3.695312 -4.61719,4.851562 l 1.57032,1.406255 c 1.6875,-1.26563 3.04687,-2.67188 4.07812,-4.218755 0.25,0.65625 1.21875,2.125 2.90625,4.406255 l 1.82813,-1.03125 c -1.40626,-1.687505 -2.61719,-3.468755 -3.63282,-5.343755 1.45313,-3.390625 2.19532,-6.84375 2.22656,-10.359375 v -0.703126 h 1.26563 v -1.945312 h -5.48437 c 0.0625,-0.859376 0.12499,-1.773437 0.18751,-2.742188 h -1.94533 c 0.0156,3.288575 -0.69531,6.499512 -2.13281,9.632813 v -0.187512 c 0,-0.15624 -0.0859,-0.234384 -0.25781,-0.234384 h -4.66406 v -0.914064 h 4.21874 c 0.18752,0 0.28126,-0.09374 0.28126,-0.281249 v -2.71875 h 1.45312 v -1.664041 h -1.45312 V 79.96997 c 0,-0.15624 -0.0937,-0.242186 -0.28126,-0.257813 h -4.21874 v -0.984374 h -1.94532 v 0.984374 h -4.33593 c -0.15625,0 -0.24219,0.08594 -0.25782,0.257813 v 2.742187 h -1.40625 v 1.664063 h 1.40625 v 2.71875 c 0,0.187512 0.0859,0.281249 0.25782,0.281249 h 4.33593 v 0.914064 h -4.6875 c -0.15625,0 -0.23437,0.07812 -0.23437,0.234384 v 4.078116 c 0,0.15624 0.0781,0.242186 0.23437,0.257812 h 4.28907 c -0.25,0.390625 -0.51563,0.757812 -0.79688,1.101562 h -4.80469 v 1.664063 h 3.1875 c -0.4375,0.390625 -0.95312,0.820313 -1.54687,1.289063 l 0.25781,1.265624 1.96875,0.703126 c -1.84375,0.234374 -3.13281,0.359375 -3.86719,0.375 l 0.53907,1.921877 c 1.70312,-0.10937 3.01562,-0.29688 3.9375,-0.5625 0.84375,-0.25 1.57812,-0.50781 2.20312,-0.773441 l 3.98438,1.382811 c 0.39062,-0.53125 0.78906,-1.07812 1.19531,-1.640623 l -3.11719,-1.03125 c 0.75,-0.609375 1.60938,-1.585938 2.57813,-2.929688 h 2.67187 v -1.664062 h -6.82031 c 0.23438,-0.343749 0.46875,-0.710937 0.70312,-1.101561 h 4.73438 c 0.15624,0 0.24219,-0.08594 0.25781,-0.257813 v -3.421875 l 1.75781,0.445312 c 0.0625,-0.187512 0.14844,-0.367188 0.25782,-0.539061 m 1.80468,0.140624 c -0.48437,-2.078125 -0.54687,-3.898439 -0.1875,-5.460939 h 2.53125 v 0.703126 c -0.0469,3.0625 -0.50781,5.757812 -1.38281,8.085937 -0.375,-1 -0.69531,-2.109375 -0.96094,-3.328124 m -7.59375,6.398437 c -0.75,0.9375 -1.57812,1.679688 -2.48437,2.226563 l -2.20313,-0.726563 c -0.10937,-0.04687 -0.11719,-0.109375 -0.0234,-0.1875 0.51563,-0.4375 0.99219,-0.875 1.42969,-1.3125 h 3.28125 m 1.82813,-5.765625 c 0.0625,0 0.0937,0.02344 0.0937,0.07032 v 1.265625 c 0,0.04687 -0.0312,0.07812 -0.0937,0.09374 h -2.97656 v -1.429687 h 2.97656 m -4.92188,0 v 1.429686 h -3 c -0.0625,-0.01563 -0.0859,-0.04687 -0.0703,-0.09374 v -1.265626 c -0.0156,-0.04687 0.008,-0.07032 0.0703,-0.07032 h 3 m 0,-4.148438 h -2.57812 c -0.0625,-0.01562 -0.0859,-0.04687 -0.0703,-0.09374 v -1.242187 h 2.64844 v 1.335933 m 1.94532,-1.335938 h 2.55468 v 1.242187 c 0,0.04687 -0.0312,0.07812 -0.0937,0.09374 h -2.46094 v -1.335938 m -1.94532,-1.664055 h -2.64843 v -1.265625 c -0.0156,-0.04687 0.008,-0.07032 0.0703,-0.07032 h 2.57811 v 1.335945 m 1.94532,-1.335938 h 2.46093 c 0.0625,0 0.0937,0.02344 0.0937,0.07032 v 1.265618 h -2.55468 z"
           style="fill:#282472;stroke-width:24" />
      </g>
      <g
         clip-path="url(#clip_2)"
         id="g29"
         transform="translate(0,2)">
        <path
           id="use29"
           d="m 267.65938,77.43872 c -1.65625,1.40625 -2.83594,2.875 -3.53907,4.40625 -0.75,1.65625 -1.125,3.71875 -1.125,6.1875 0,2.359375 0.36719,4.4375 1.10156,6.234375 0.57813,1.421875 1.74219,2.914063 3.49219,4.476562 l 1.05469,-1.335937 c -1.54687,-1.421875 -2.55469,-2.765625 -3.02344,-4.03125 -0.60937,-1.515624 -0.91406,-3.296875 -0.91406,-5.34375 0,-2.078124 0.3125,-3.867187 0.9375,-5.367187 0.625,-1.515627 1.76563,-2.945314 3.42188,-4.289063 -0.46876,-0.296876 -0.9375,-0.609375 -1.40625,-0.9375 z"
           style="fill:#282472;stroke-width:24" />
      </g>
      <g
         clip-path="url(#clip_3)"
         id="g34">
        <path
           id="use30"
           d="m 273.8,95.71997 c 1.23438,0.421875 2.35938,0.515625 3.375,0.28125 0.625,-0.15625 1.16406,-0.53125 1.61719,-1.125 0.71875,-1 0.82031,-2.390625 0.30468,-4.171875 -0.29687,-1.046875 -0.89062,-2.140625 -1.78125,-3.28125 -0.14061,-0.187512 -0.14844,-0.445313 -0.0234,-0.773439 l 2.01562,-6.140625 -1.42969,-0.9375 h -5.83593 c -0.0937,0 -0.16406,0.02344 -0.21094,0.07032 -0.0469,0.04687 -0.0703,0.117192 -0.0703,0.210936 V 100.87622 H 273.8 v -5.15625 m 2.60156,-14.203126 c 0.34375,-0.01563 0.46875,0.140616 0.375,0.468752 l -1.6875,5.156249 c -0.0156,0.0625 -0.0234,0.109368 -0.0234,0.140616 0,0.0625 0.008,0.109368 0.0234,0.140616 1.5,2.25 2.26563,3.945312 2.29688,5.085938 0,0.390624 -0.10157,0.757812 -0.30469,1.101561 -0.15624,0.250001 -0.42969,0.414063 -0.82031,0.492187 -0.79688,0.140616 -1.61719,-0.0625 -2.46094,-0.609374 V 81.680888 c 0,-0.04687 0.0156,-0.08594 0.0469,-0.117192 0.0156,-0.01562 0.0547,-0.03125 0.11719,-0.04687 h 2.4375 m 12.04688,14.179709 c 1.65625,-1.046875 3.00781,-2.0625 4.05469,-3.046876 l -1.24219,-1.640625 c -0.9375,0.859376 -2.23438,1.835938 -3.89063,2.929688 -0.60937,-1.1875 -1.05468,-2.46875 -1.33594,-3.84375 h 5.0156 c 0.4375,0 0.65625,-0.21876 0.65625,-0.656251 v -9.304688 c 0,-0.390624 -0.21093,-0.593748 -0.63281,-0.609375 h -10.26563 c -0.39062,0 -0.59375,0.203136 -0.60937,0.609375 V 98.71997 c -0.85938,0.09375 -1.75781,0.203124 -2.69531,0.328125 l 0.35156,2.039065 c 3.29687,-0.34375 6.07812,-0.89063 8.34375,-1.640627 l -0.46875,-1.992188 c -1,0.296875 -2.16406,0.59375 -3.49219,0.890625 v -8.25 h 1.75781 c 0.90625,4.078125 2.67969,7.164062 5.32032,9.257813 0.65624,0.531249 1.43749,1.101567 2.34374,1.710937 l 1.59376,-1.523437 c -2.25,-1.265626 -3.85157,-2.546875 -4.80469,-3.84375 m 1.21875,-9.820313 v 1.851563 c 0,0.203136 -0.10937,0.312499 -0.32813,0.328125 h -7.10156 v -2.179687 h 7.42969 m -7.42969,-2.039064 v -1.781251 c 0,-0.328123 0.16406,-0.492187 0.49219,-0.492187 h 6.42187 c 0.34375,0 0.51563,0.164064 0.51563,0.492187 v 1.781251 z"
           style="fill:#282472;stroke-width:24" />
        <path
           id="use31"
           d="m 309.40156,82.243407 h -2.32031 v -3.421875 h -2.03906 v 3.421875 H 301.175 l 0.9375,-0.726562 c -0.70313,-1 -1.375,-1.796875 -2.01563,-2.390625 L 298.55,80.485596 c 0.4375,0.390624 0.95312,0.976562 1.54687,1.75781 h -4.42968 c -0.25,0 -0.375,0.124992 -0.375,0.375 v 4.992189 h 2.03906 V 84.28247 c 0,-0.109368 0.0625,-0.171864 0.18751,-0.187512 h 17.22655 c 0.15624,0 0.23439,0.09374 0.23439,0.281249 -0.0156,0.375 -0.23439,1.265625 -0.65625,2.671875 l 1.94531,0.609375 c 0.5625,-1.750001 0.86719,-3.273439 0.91406,-4.570313 l -1.68751,-0.843737 h -3.39844 c 0.53126,-0.71875 0.98438,-1.398437 1.35938,-2.039062 l -1.6875,-1.171875 c -0.51562,0.859375 -1.30469,1.929686 -2.36719,3.210937 m 3.96094,8.179688 v -4.59375 c 0,-0.15624 -0.0937,-0.242189 -0.28125,-0.257813 h -14.0625 c -0.15624,0 -0.24219,0.08594 -0.25781,0.257813 v 4.59375 c 0,0.187512 0.0859,0.281251 0.25781,0.281251 h 14.0625 c 0.18751,0 0.28125,-0.09374 0.28125,-0.281251 m -1.94531,-3.09375 c 0.0625,0 0.0937,0.02344 0.0937,0.07032 v 1.453118 c 0,0.04687 -0.0312,0.07812 -0.0937,0.09374 h -10.73438 c -0.0625,-0.01563 -0.0859,-0.04687 -0.0703,-0.09374 v -1.453126 c -0.0156,-0.04687 0.008,-0.07032 0.0703,-0.07032 h 10.73438 m -12.63281,12.703133 h 14.55468 v 0.96094 h 1.94531 v -8.437502 c 0,-0.4375 -0.22656,-0.656251 -0.67968,-0.656251 h -17.10938 c -0.4375,0 -0.65625,0.21876 -0.65625,0.656251 v 8.437502 h 1.94531 v -0.96094 m 6.21094,-1.851563 h -6.21093 v -1.289062 h 6.21093 v 1.289062 m 1.94532,-1.289062 h 6.39843 v 1.289062 h -6.39843 v -1.289062 m -1.94532,-1.757812 h -6.21093 V 94.03247 c -0.0156,-0.187512 0.0781,-0.281251 0.28125,-0.281251 h 5.92968 v 1.382814 m 1.94532,-1.382813 h 6.11718 c 0.18751,0 0.28125,0.08594 0.28125,0.257813 v 1.125 h -6.39843 z"
           style="fill:#282472;stroke-width:24" />
        <path
           id="use32"
           d="m 322.97188,99.75122 h 14.17968 v 1.05469 h 2.13281 V 80.321532 c 0,-0.484376 -0.25781,-0.734374 -0.77343,-0.75 h -16.94531 c -0.48438,0 -0.72657,0.242186 -0.72657,0.726564 v 20.507814 h 2.13282 v -1.05469 m 0,-2.132812 v -6.820313 h 14.17968 v 6.820312 h -14.17968 m 13.85156,-15.914063 c 0.20313,0 0.3125,0.101568 0.32812,0.304688 v 6.656251 h -14.17968 v -6.656251 c -0.0156,-0.203136 0.0859,-0.304687 0.30468,-0.304687 z"
           style="fill:#282472;stroke-width:24" />
        <path
           id="use33"
           d="m 345.35469,89.016845 v 11.765625 h 2.03906 V 84.634032 c 0.53125,-1.515624 0.98437,-3.351562 1.35937,-5.507812 l -2.01562,-0.328124 c -0.46875,3.75 -1.80469,7.234374 -4.00781,10.453124 l 1.94531,0.796875 c 0.20314,-0.328126 0.42969,-0.671875 0.67969,-1.031249 m 8.95312,10.406249 c 2.17188,0.937505 5.72657,1.453125 10.66406,1.546875 l 0.30469,-2.367187 c -4.1875,0.140624 -7.28906,-0.07031 -9.30469,-0.632813 1.07813,-1.453125 1.64844,-3.34375 1.71094,-5.671875 h 6.46875 c 0.20314,0 0.30469,-0.101568 0.30469,-0.304687 v -7.078125 c 0,-0.187512 -0.10157,-0.281251 -0.30469,-0.281251 h -6.44531 v -2.179688 h 7.125 v -1.945312 h -7.125 v -1.640626 h -2.03906 v 1.640626 h -6.70313 v 1.945312 h 6.70313 v 2.179688 h -6.375 c -0.18751,0 -0.28125,0.09374 -0.28125,0.281251 v 7.078124 c 0,0.203136 0.0937,0.304688 0.28125,0.304688 h 6.35156 c -0.0469,2.109375 -0.59375,3.695313 -1.64062,4.757812 -1.07813,-0.75 -2.24219,-2.039062 -3.49219,-3.867187 l -1.57032,1.265626 c 1.03125,1.5 2.14063,2.742187 3.32813,3.726562 -0.0937,0.01563 -0.18751,0.05469 -0.28125,0.117187 -1.23437,0.421875 -2.53906,0.6875 -3.91406,0.796875 l 0.91406,2.03906 c 2.3125,-0.375 4.08594,-0.94531 5.32031,-1.710935 m 1.35938,-9.070312 h -4.54688 c -0.0625,-0.01563 -0.0859,-0.0547 -0.0703,-0.117192 v -3.5625 c -0.0156,-0.0625 0.008,-0.09374 0.0703,-0.09374 h 4.54688 v 3.773436 m 2.03906,-3.773438 h 4.61719 c 0.0625,0 0.0937,0.03125 0.0937,0.09374 v 3.5625 c 0,0.0625 -0.0312,0.101568 -0.0937,0.117192 h -4.61719 z"
           style="fill:#282472;stroke-width:24" />
        <path
           id="use34"
           d="m 370.83125,93.84497 h 6.21094 v 6.46875 h 2.03906 v -6.46875 h 6.39844 v 3.820313 c 0,0.484375 -0.10157,0.804687 -0.30469,0.960937 -0.42187,0.328125 -1.70312,0.210938 -3.84375,-0.351563 l 0.0703,2.343753 c 1.45312,0.23438 2.64063,0.32812 3.5625,0.28125 0.76562,-0.0156 1.39062,-0.24219 1.875,-0.67969 0.4375,-0.421873 0.66406,-1.062498 0.67969,-1.921873 V 80.251221 c 0,-0.421874 -0.21876,-0.632813 -0.65625,-0.632813 h -17.27345 c -0.39062,0 -0.59375,0.203136 -0.60937,0.609377 V 90.65747 c -0.0469,2.6875 -0.76563,5.78125 -2.15625,9.28125 l 2.13281,0.63281 c 0.84375,-1.968747 1.46875,-4.210935 1.875,-6.72656 m 8.25,-2.039061 V 87.65747 h 6.39844 v 4.148437 h -6.39844 m -8.08594,0 c 0,-0.01563 0.008,-0.03125 0.0234,-0.04687 V 87.65747 h 6.02344 v 4.148437 h -6.04688 m 6.04688,-6.1875 h -6.02344 v -3.703124 c 0,-0.15624 0.0859,-0.242189 0.25781,-0.257813 h 5.76563 v 3.960937 m 2.03906,-3.960937 h 6.14062 c 0.15624,0 0.24219,0.08594 0.25782,0.257813 v 3.703124 h -6.39844 z"
           style="fill:#282472;stroke-width:24" />
      </g>
      <g
         clip-path="url(#clip_4)"
         id="g35"
         transform="translate(0,2)">
        <path
           id="use35"
           d="m 392.43719,77.43872 c -0.46875,0.328124 -0.92969,0.65625 -1.38281,0.984376 1.70312,1.593748 2.85937,3.054686 3.46875,4.382811 0.57812,1.515625 0.86718,3.34375 0.86718,5.484376 0,1.875 -0.29687,3.539062 -0.89062,4.992187 -0.48438,1.359374 -1.54688,2.734375 -3.1875,4.125 l 1.07812,1.335937 c 1.60938,-1.328125 2.77344,-2.773437 3.49219,-4.335937 0.8125,-1.734374 1.21875,-3.773438 1.21875,-6.117187 0,-2.453125 -0.35938,-4.484376 -1.07812,-6.093751 -0.75,-1.796875 -1.94532,-3.382812 -3.58594,-4.757812 z"
           style="fill:#282472;stroke-width:24" />
      </g>
      <g
         clip-path="url(#clip_5)"
         id="g36">
        <path
           id="use36"
           d="M 402.07,97.21997 Z"
           style="fill:#282472;stroke-width:24" />
      </g>
    </g>
    <g
       clip-path="url(#clip_14)"
       id="g82"
       transform="matrix(0.29247644,0,0,0.29247644,-24.540559,-52.676745)">
      <path
         id="use50"
         d="m 94.465406,237.43622 c 0.109368,0.78906 0.324219,1.37891 0.644532,1.76953 0.585939,0.71094 1.589844,1.06641 3.011719,1.06641 0.851564,0 1.54297,-0.0937 2.074223,-0.28125 1.00781,-0.35938 1.51172,-1.02735 1.51172,-2.00391 0,-0.57031 -0.25,-1.01172 -0.75,-1.32422 -0.5,-0.30469 -1.285161,-0.57422 -2.355472,-0.80859 L 96.774,235.44403 c -1.796875,-0.40625 -3.039063,-0.84765 -3.726563,-1.32422 -1.164062,-0.79687 -1.746093,-2.04297 -1.746093,-3.73828 0,-1.54687 0.5625,-2.83203 1.6875,-3.85547 1.125,-1.02344 2.777343,-1.53515 4.957031,-1.53515 1.820311,0 3.373045,0.48242 4.658205,1.44726 1.28515,0.96485 1.95898,2.36524 2.02148,4.20117 h -3.46875 c -0.0625,-1.03906 -0.51562,-1.77734 -1.359372,-2.21484 -0.5625,-0.28906 -1.261718,-0.43359 -2.097655,-0.43359 -0.929688,0 -1.671876,0.18751 -2.226561,0.5625 -0.554688,0.375 -0.832032,0.89843 -0.832032,1.57031 0,0.61719 0.273436,1.07812 0.820312,1.38281 0.351562,0.20314 1.101562,0.44141 2.25,0.71485 l 2.976568,0.71484 c 1.30468,0.3125 2.28906,0.73083 2.95312,1.255 1.03125,0.81348 1.54688,1.9906 1.54688,3.53138 0,1.58007 -0.60352,2.89221 -1.81055,3.9364 -1.20703,1.04419 -2.91211,1.56628 -5.115236,1.56628 -2.25,0 -4.019532,-0.51465 -5.308594,-1.54394 -1.289062,-1.02954 -1.933594,-2.44458 -1.933594,-4.24512 h 3.44531 m 3.503907,-12.44531 z"
         style="fill:#282472;stroke-width:24" />
      <path
         id="use51"
         d="m 112.58167,232.46747 c -0.77344,0 -1.37305,0.23585 -1.79883,0.70752 -0.42578,0.47168 -0.69336,1.11084 -0.80274,1.91748 h 5.19141 c -0.0547,-0.85986 -0.32227,-1.51233 -0.80274,-1.9574 -0.48046,-0.44506 -1.07617,-0.6676 -1.78711,-0.6676 m 0,-2.78906 c 1.0625,0 2.01953,0.19898 2.8711,0.59692 0.85156,0.39771 1.55468,1.02564 2.10937,1.88379 0.5,0.75659 0.82422,1.63416 0.97266,2.63269 0.0859,0.58496 0.1211,1.42737 0.10548,2.52722 h -8.7422 c 0.0469,1.27661 0.44922,2.17176 1.20703,2.68543 0.46094,0.31909 1.01563,0.47864 1.66407,0.47864 0.6875,0 1.24609,-0.19373 1.67578,-0.58118 0.23438,-0.20923 0.4414,-0.49988 0.62109,-0.87195 h 3.41016 c -0.0859,0.75781 -0.48047,1.52734 -1.1836,2.30859 -1.09375,1.24219 -2.625,1.86329 -4.59375,1.86329 -1.625,0 -3.05859,-0.52295 -4.30078,-1.56885 -1.24218,-1.04615 -1.86328,-2.74781 -1.86328,-5.10498 0,-2.20899 0.56055,-3.90284 1.68164,-5.08155 1.1211,-1.17871 2.57617,-1.76806 4.36524,-1.76806 m 0.23438,0 z"
         style="fill:#282472;stroke-width:24" />
      <path
         id="use52"
         d="m 124.27277,242.77997 h -3.33984 v -17.25 h 3.33984 z"
         style="fill:#282472;stroke-width:24" />
      <path
         id="use53"
         d="m 132.57367,232.46747 c -0.77344,0 -1.37305,0.23585 -1.79883,0.70752 -0.42578,0.47168 -0.69336,1.11084 -0.80274,1.91748 h 5.19141 c -0.0547,-0.85986 -0.32227,-1.51233 -0.80274,-1.9574 -0.48046,-0.44506 -1.07617,-0.6676 -1.78711,-0.6676 m 0,-2.78906 c 1.0625,0 2.01953,0.19898 2.8711,0.59692 0.85156,0.39771 1.55468,1.02564 2.10937,1.88379 0.5,0.75659 0.82422,1.63416 0.97266,2.63269 0.0859,0.58496 0.1211,1.42737 0.10548,2.52722 h -8.7422 c 0.0469,1.27661 0.44922,2.17176 1.20703,2.68543 0.46094,0.31909 1.01563,0.47864 1.66407,0.47864 0.6875,0 1.24609,-0.19373 1.67578,-0.58118 0.23438,-0.20923 0.4414,-0.49988 0.62109,-0.87195 h 3.41016 c -0.0859,0.75781 -0.48047,1.52734 -1.1836,2.30859 -1.09375,1.24219 -2.625,1.86329 -4.59375,1.86329 -1.625,0 -3.05859,-0.52295 -4.30078,-1.56885 -1.24218,-1.04615 -1.86328,-2.74781 -1.86328,-5.10498 0,-2.20899 0.56055,-3.90284 1.68164,-5.08155 1.1211,-1.17871 2.57617,-1.76806 4.36524,-1.76806 m 0.23438,0 z"
         style="fill:#282472;stroke-width:24" />
      <path
         id="use54"
         d="m 148.53151,234.57684 c -0.0625,-0.47656 -0.22265,-0.90624 -0.48047,-1.28906 -0.375,-0.51562 -0.95703,-0.77344 -1.74609,-0.77344 -1.125,0 -1.89453,0.5586 -2.3086,1.67579 -0.21876,0.59155 -0.32812,1.3778 -0.32812,2.35876 0,0.93408 0.10937,1.6853 0.32812,2.25366 0.39844,1.07349 1.14844,1.61023 2.25,1.61023 0.78126,0 1.33594,-0.21313 1.66407,-0.6394 0.32812,-0.42627 0.52734,-0.97876 0.59765,-1.65747 h 3.41016 c -0.0781,1.01806 -0.44531,1.9812 -1.10156,2.8894 -1.04688,1.46436 -2.59766,2.19654 -4.65235,2.19654 -2.05469,0 -3.5664,-0.60889 -4.53515,-1.82667 -0.96875,-1.21777 -1.45313,-2.79797 -1.45313,-4.7406 0,-2.19213 0.53516,-3.89953 1.60547,-5.12219 1.07031,-1.22266 2.54688,-1.83398 4.42969,-1.83398 1.60156,0 2.91211,0.36023 3.93164,1.08069 1.01953,0.72046 1.62304,1.99304 1.81054,3.81775 h -3.42187 m -2.26172,-4.89844 z"
         style="fill:#282472;stroke-width:24" />
      <path
         id="use55"
         d="m 152.93411,232.49091 v -2.36719 h 1.78125 v -3.58594 h 3.30469 v 3.58594 h 2.07422 v 2.36719 h -2.07422 v 6.77014 c 0,0.5249 0.0664,0.85205 0.19923,0.98144 0.13281,0.12915 0.53906,0.19373 1.21875,0.19373 0.10156,0 0.20899,-0.004 0.32226,-0.0117 0.11328,-0.008 0.22462,-0.0195 0.33399,-0.0352 v 2.50782 l -1.58204,0.0703 c -1.57813,0.0547 -2.65625,-0.21936 -3.23438,-0.82214 -0.375,-0.38379 -0.5625,-0.97498 -0.5625,-1.77356 v -7.88086 z"
         style="fill:#282472;stroke-width:24" />
      <path
         id="use56"
         d="M 160.65602,242.77997 Z"
         style="fill:#282472;stroke-width:24" />
      <path
         id="use57"
         d="m 173.66956,225.34247 c 0.21094,0 0.40234,0.004 0.57422,0.0117 0.17186,0.008 0.40625,0.0195 0.70313,0.0352 v 2.71875 c -0.18752,0 -0.50196,-0.006 -0.94336,-0.0176 -0.44141,-0.0117 -0.74609,0.0848 -0.91406,0.28967 -0.16798,0.20484 -0.25196,0.43078 -0.25196,0.67786 0,0.24707 0,0.60229 0,1.06567 h 2.19141 v 2.36719 h -2.19141 v 10.28906 h -3.32812 v -10.28906 h -1.86329 v -2.36719 h 1.82813 v -0.82288 c 0,-1.37158 0.23047,-2.31603 0.69141,-2.83337 0.48437,-0.75 1.65234,-1.125 3.5039,-1.125 z"
         style="fill:#282472;stroke-width:24" />
      <path
         id="use58"
         d="m 184.01759,236.56574 c -0.21093,0.13329 -0.42383,0.24121 -0.63867,0.32373 -0.21485,0.0823 -0.50976,0.15869 -0.88476,0.22925 l -0.75,0.141 c -0.70313,0.12547 -1.20704,0.27843 -1.51172,0.45885 -0.51563,0.30566 -0.77344,0.7799 -0.77344,1.42273 0,0.57251 0.15821,0.9862 0.47461,1.24109 0.3164,0.25464 0.70117,0.38195 1.15429,0.38195 0.71875,0 1.38086,-0.21167 1.98633,-0.635 0.60547,-0.42335 0.91993,-1.19568 0.94336,-2.31702 v -1.24658 m -2.02734,-1.5586 c 0.61719,-0.0784 1.05859,-0.17628 1.32422,-0.2937 0.47656,-0.20386 0.71484,-0.52136 0.71484,-0.95251 0,-0.52515 -0.18163,-0.88758 -0.54492,-1.08728 -0.36328,-0.19995 -0.89648,-0.29993 -1.59961,-0.29993 -0.78906,0 -1.34766,0.19531 -1.67578,0.58594 -0.23438,0.28906 -0.39062,0.67968 -0.46875,1.17187 h -3.22266 c 0.0703,-1.12011 0.38282,-2.04053 0.9375,-2.76123 0.88281,-1.12793 2.39844,-1.69189 4.54688,-1.69189 1.39843,0 2.64062,0.27929 3.72656,0.83789 1.08594,0.55859 1.62891,1.60742 1.62891,3.14648 v 5.85938 c 0,0.40625 0.008,0.89844 0.0234,1.47656 0.0234,0.44141 0.0898,0.74097 0.19923,0.89868 0.10937,0.15772 0.27343,0.28784 0.49219,0.39038 v 0.49219 h -3.63282 c -0.10157,-0.25635 -0.17186,-0.49707 -0.21093,-0.72217 -0.0391,-0.22534 -0.0703,-0.48169 -0.0937,-0.76904 -0.46095,0.50391 -0.9922,0.93298 -1.59376,1.28723 -0.71875,0.41724 -1.53125,0.62586 -2.4375,0.62586 -1.15625,0 -2.11133,-0.33118 -2.86523,-0.99354 -0.75391,-0.66235 -1.13086,-1.60095 -1.13086,-2.81579 0,-1.57544 0.60547,-2.71582 1.8164,-3.42114 0.66407,-0.38404 1.64063,-0.65833 2.92969,-0.82288 l 1.13672,-0.14136 m 0.17578,-5.32873 z"
         style="fill:#282472;stroke-width:24" />
      <path
         id="use59"
         d="m 197.23212,229.67841 c 0.0625,0 0.11523,0.002 0.15821,0.006 0.043,0.004 0.13867,0.01 0.28711,0.0176 v 3.42188 c -0.21093,-0.0188 -0.39844,-0.0312 -0.5625,-0.0373 -0.16406,-0.006 -0.29687,-0.01 -0.39844,-0.01 -1.34375,0 -2.24609,0.43799 -2.70703,1.31397 -0.25781,0.49291 -0.38672,1.2517 -0.38672,2.27636 v 6.11279 h -3.36328 v -12.77344 h 3.1875 v 2.21814 c 0.51562,-0.85669 0.96484,-1.44214 1.34765,-1.75634 0.625,-0.52662 1.4375,-0.78992 2.4375,-0.78992 z"
         style="fill:#282472;stroke-width:24" />
      <path
         id="use60"
         d="m 204.62168,232.46747 c -0.77344,0 -1.37305,0.23585 -1.79883,0.70752 -0.42578,0.47168 -0.69336,1.11084 -0.80274,1.91748 h 5.19141 c -0.0547,-0.85986 -0.32227,-1.51233 -0.80274,-1.9574 -0.48046,-0.44506 -1.07617,-0.6676 -1.78711,-0.6676 m 0,-2.78906 c 1.0625,0 2.01953,0.19898 2.8711,0.59692 0.85156,0.39771 1.55468,1.02564 2.10937,1.88379 0.5,0.75659 0.82422,1.63416 0.97266,2.63269 0.0859,0.58496 0.1211,1.42737 0.10548,2.52722 h -8.7422 c 0.0469,1.27661 0.44922,2.17176 1.20703,2.68543 0.46094,0.31909 1.01563,0.47864 1.66407,0.47864 0.6875,0 1.24609,-0.19373 1.67578,-0.58118 0.23438,-0.20923 0.4414,-0.49988 0.62109,-0.87195 h 3.41016 c -0.0859,0.75781 -0.48047,1.52734 -1.1836,2.30859 -1.09375,1.24219 -2.625,1.86329 -4.59375,1.86329 -1.625,0 -3.05859,-0.52295 -4.30078,-1.56885 -1.24218,-1.04615 -1.86328,-2.74781 -1.86328,-5.10498 0,-2.20899 0.56055,-3.90284 1.68164,-5.08155 1.1211,-1.17871 2.57617,-1.76806 4.36524,-1.76806 m 0.23438,0 z"
         style="fill:#282472;stroke-width:24" />
      <path
         id="use61"
         d="M 211.41602,242.77997 Z"
         style="fill:#282472;stroke-width:24" />
      <path
         id="use62"
         d="m 226.68958,236.56574 c -0.21093,0.13329 -0.42383,0.24121 -0.63867,0.32373 -0.21485,0.0823 -0.50976,0.15869 -0.88476,0.22925 l -0.75,0.141 c -0.70313,0.12547 -1.20704,0.27843 -1.51172,0.45885 -0.51563,0.30566 -0.77344,0.7799 -0.77344,1.42273 0,0.57251 0.15821,0.9862 0.47461,1.24109 0.3164,0.25464 0.70117,0.38195 1.15429,0.38195 0.71875,0 1.38086,-0.21167 1.98633,-0.635 0.60547,-0.42335 0.91993,-1.19568 0.94336,-2.31702 v -1.24658 m -2.02734,-1.5586 c 0.61719,-0.0784 1.05859,-0.17628 1.32422,-0.2937 0.47656,-0.20386 0.71484,-0.52136 0.71484,-0.95251 0,-0.52515 -0.18163,-0.88758 -0.54492,-1.08728 -0.36328,-0.19995 -0.89648,-0.29993 -1.59961,-0.29993 -0.78906,0 -1.34766,0.19531 -1.67578,0.58594 -0.23438,0.28906 -0.39062,0.67968 -0.46875,1.17187 h -3.22266 c 0.0703,-1.12011 0.38282,-2.04053 0.9375,-2.76123 0.88281,-1.12793 2.39844,-1.69189 4.54688,-1.69189 1.39843,0 2.64062,0.27929 3.72656,0.83789 1.08594,0.55859 1.62891,1.60742 1.62891,3.14648 v 5.85938 c 0,0.40625 0.008,0.89844 0.0234,1.47656 0.0234,0.44141 0.0898,0.74097 0.19923,0.89868 0.10937,0.15772 0.27343,0.28784 0.49219,0.39038 v 0.49219 h -3.63282 c -0.10157,-0.25635 -0.17186,-0.49707 -0.21093,-0.72217 -0.0391,-0.22534 -0.0703,-0.48169 -0.0937,-0.76904 -0.46095,0.50391 -0.9922,0.93298 -1.59376,1.28723 -0.71875,0.41724 -1.53125,0.62586 -2.4375,0.62586 -1.15625,0 -2.11133,-0.33118 -2.86523,-0.99354 -0.75391,-0.66235 -1.13086,-1.60095 -1.13086,-2.81579 0,-1.57544 0.60547,-2.71582 1.8164,-3.42114 0.66407,-0.38404 1.64063,-0.65833 2.92969,-0.82288 l 1.13672,-0.14136 m 0.17578,-5.32873 z"
         style="fill:#282472;stroke-width:24" />
      <path
         id="use63"
         d="m 240.11673,229.67841 c 1.32031,0 2.40039,0.34717 3.24023,1.0415 0.83985,0.69409 1.25977,1.84302 1.25977,3.44678 v 8.61328 h -3.42188 v -7.77832 c 0,-0.67261 -0.0899,-1.18884 -0.26953,-1.54871 -0.32812,-0.65698 -0.95312,-0.98547 -1.875,-0.98547 -1.13281,0 -1.91015,0.48096 -2.33203,1.44287 -0.21876,0.50855 -0.32813,1.15784 -0.32813,1.94788 v 6.92175 h -3.32812 v -12.77344 h 3.22266 v 1.87207 c 0.42969,-0.65893 0.83593,-1.13354 1.21875,-1.42382 0.6875,-0.51758 1.55859,-0.77637 2.61328,-0.77637 m -1.23047,0 z"
         style="fill:#282472;stroke-width:24" />
      <path
         id="use64"
         d="m 252.38954,229.67841 c 0.77344,0 1.46094,0.17066 2.0625,0.51196 0.60156,0.34106 1.08985,0.8136 1.46485,1.4176 v -6.078 h 3.38671 v 17.25 h -3.24609 v -1.75232 c -0.47656,0.76001 -1.01953,1.31238 -1.62891,1.65711 -0.60937,0.34472 -1.36718,0.51709 -2.27343,0.51709 -1.49219,0 -2.74805,-0.6056 -3.76758,-1.81678 -1.01953,-1.21118 -1.5293,-2.76538 -1.5293,-4.6626 0,-2.18725 0.50196,-3.90808 1.50586,-5.16247 1.00391,-1.25439 2.3457,-1.88159 4.02539,-1.88159 m 0.72656,10.71093 c 0.94532,0 1.66407,-0.35314 2.15625,-1.05944 0.49219,-0.7063 0.73829,-1.62061 0.73829,-2.74292 0,-1.56958 -0.39454,-2.69178 -1.1836,-3.36658 -0.48437,-0.4082 -1.04687,-0.61231 -1.6875,-0.61231 -0.97656,0 -1.69336,0.37086 -2.15039,1.11255 -0.45703,0.74146 -0.68555,1.66162 -0.68555,2.7605 0,1.18506 0.23242,2.13269 0.69727,2.8429 0.46484,0.7102 1.16992,1.0653 2.11523,1.0653 z"
         style="fill:#282472;stroke-width:24" />
      <path
         id="use65"
         d="M 260.784,242.77997 Z"
         style="fill:#282472;stroke-width:24" />
      <path
         id="use66"
         d="m 276.09272,229.67841 c 1.32031,0 2.40039,0.34717 3.24023,1.0415 0.83985,0.69409 1.25977,1.84302 1.25977,3.44678 v 8.61328 h -3.42188 v -7.77832 c 0,-0.67261 -0.0899,-1.18884 -0.26953,-1.54871 -0.32812,-0.65698 -0.95312,-0.98547 -1.875,-0.98547 -1.13281,0 -1.91015,0.48096 -2.33203,1.44287 -0.21876,0.50855 -0.32813,1.15784 -0.32813,1.94788 v 6.92175 h -3.32812 v -12.77344 h 3.22266 v 1.87207 c 0.42969,-0.65893 0.83593,-1.13354 1.21875,-1.42382 0.6875,-0.51758 1.55859,-0.77637 2.61328,-0.77637 m -1.23047,0 z"
         style="fill:#282472;stroke-width:24" />
      <path
         id="use67"
         d="m 286.98272,230.00653 v 7.69922 c 0,0.72656 0.0859,1.27344 0.25781,1.64063 0.30469,0.64843 0.90235,0.97265 1.79297,0.97265 1.14062,0 1.92187,-0.46093 2.34375,-1.38281 0.21876,-0.5 0.32813,-1.16016 0.32813,-1.98047 v -6.94922 h 3.38671 v 12.77344 H 291.846 v -1.80469 c -0.0312,0.0391 -0.10937,0.15625 -0.23437,0.35156 -0.12501,0.19532 -0.27344,0.36719 -0.44532,0.51563 -0.52344,0.46875 -1.02929,0.78906 -1.51758,0.96094 -0.48828,0.17187 -1.06054,0.25781 -1.71679,0.25781 -1.89063,0 -3.16406,-0.67969 -3.82031,-2.03906 -0.36719,-0.75 -0.55079,-1.85547 -0.55079,-3.31641 v -7.69922 h 3.42188 m 2.34375,-0.32812 z"
         style="fill:#282472;stroke-width:24" />
      <path
         id="use68"
         d="m 312.56806,229.72528 c 0.5625,0 1.11719,0.10853 1.66406,0.32556 0.54688,0.21679 1.04297,0.59632 1.48828,1.13855 0.35938,0.4458 0.60157,0.99329 0.72657,1.64246 0.0781,0.43018 0.11719,1.05969 0.11719,1.88855 l -0.0234,8.05957 h -3.42188 v -8.13281 c 0,-0.48438 -0.0781,-0.88281 -0.23438,-1.19532 -0.29688,-0.59375 -0.84375,-0.89062 -1.64063,-0.89062 -0.92187,0 -1.55859,0.38281 -1.91015,1.14844 -0.17968,0.40625 -0.26952,0.89453 -0.26952,1.46484 v 7.60547 h -3.36329 v -7.59668 c 0,-0.75708 -0.0781,-1.30725 -0.23438,-1.65051 -0.28125,-0.61646 -0.83203,-0.92469 -1.65234,-0.92469 -0.95313,0 -1.59376,0.30823 -1.92188,0.92469 -0.17969,0.35107 -0.26953,0.8739 -0.26953,1.56848 v 7.67871 h -3.38671 v -12.77344 h 3.24609 v 1.8805 c 0.41407,-0.66211 0.80469,-1.13343 1.17188,-1.41395 0.64843,-0.49853 1.48828,-0.7478 2.51953,-0.7478 0.97656,0 1.76562,0.21423 2.36719,0.6427 0.48437,0.39722 0.85156,0.90747 1.10156,1.53076 0.4375,-0.7478 0.98047,-1.29699 1.62891,-1.64758 0.6875,-0.35058 1.45312,-0.52588 2.29687,-0.52588 z"
         style="fill:#282472;stroke-width:24" />
      <path
         id="use69"
         d="m 326.55694,229.72528 c 1.67969,0 2.99414,0.60608 3.94336,1.81824 0.94922,1.21191 1.42383,2.77576 1.42383,4.69153 0,1.98608 -0.46876,3.63208 -1.40626,4.93799 -0.9375,1.30566 -2.24609,1.95849 -3.92578,1.95849 -1.05468,0 -1.90234,-0.21386 -2.54296,-0.6416 -0.38282,-0.25366 -0.79688,-0.69739 -1.24219,-1.33118 v 1.62122 h -3.26953 v -17.25 h 3.32812 v 6.14832 c 0.42188,-0.5962 0.88672,-1.05115 1.39453,-1.36487 0.60157,-0.39209 1.36719,-0.58814 2.29688,-0.58814 m -0.85547,10.61719 c 0.85937,0 1.52734,-0.34607 2.00391,-1.03821 0.47656,-0.69214 0.71484,-1.60205 0.71484,-2.72974 0,-0.9021 -0.11719,-1.64868 -0.35156,-2.23974 -0.44531,-1.11987 -1.26563,-1.67981 -2.46094,-1.67981 -1.21094,0 -2.04297,0.54822 -2.49609,1.64465 -0.23439,0.5835 -0.35156,1.33789 -0.35156,2.26319 0,1.08886 0.24218,1.99108 0.72656,2.70666 0.48437,0.71533 1.22265,1.073 2.21484,1.073 z"
         style="fill:#282472;stroke-width:24" />
      <path
         id="use70"
         d="m 339.40566,232.46747 c -0.77344,0 -1.37305,0.23585 -1.79883,0.70752 -0.42578,0.47168 -0.69336,1.11084 -0.80274,1.91748 h 5.19141 c -0.0547,-0.85986 -0.32227,-1.51233 -0.80274,-1.9574 -0.48046,-0.44506 -1.07617,-0.6676 -1.78711,-0.6676 m 0,-2.78906 c 1.0625,0 2.01953,0.19898 2.8711,0.59692 0.85156,0.39771 1.55468,1.02564 2.10937,1.88379 0.5,0.75659 0.82422,1.63416 0.97266,2.63269 0.0859,0.58496 0.1211,1.42737 0.10548,2.52722 h -8.7422 c 0.0469,1.27661 0.44922,2.17176 1.20703,2.68543 0.46094,0.31909 1.01563,0.47864 1.66407,0.47864 0.6875,0 1.24609,-0.19373 1.67578,-0.58118 0.23438,-0.20923 0.4414,-0.49988 0.62109,-0.87195 h 3.41016 c -0.0859,0.75781 -0.48047,1.52734 -1.1836,2.30859 -1.09375,1.24219 -2.625,1.86329 -4.59375,1.86329 -1.625,0 -3.05859,-0.52295 -4.30078,-1.56885 -1.24218,-1.04615 -1.86328,-2.74781 -1.86328,-5.10498 0,-2.20899 0.56055,-3.90284 1.68164,-5.08155 1.1211,-1.17871 2.57617,-1.76806 4.36524,-1.76806 m 0.23438,0 z"
         style="fill:#282472;stroke-width:24" />
      <path
         id="use71"
         d="m 354.55209,229.67841 c 0.0625,0 0.11523,0.002 0.15821,0.006 0.043,0.004 0.13867,0.01 0.28711,0.0176 v 3.42188 c -0.21093,-0.0188 -0.39844,-0.0312 -0.5625,-0.0373 -0.16406,-0.006 -0.29687,-0.01 -0.39844,-0.01 -1.34375,0 -2.24609,0.43799 -2.70703,1.31397 -0.25781,0.49291 -0.38672,1.2517 -0.38672,2.27636 v 6.11279 h -3.36328 v -12.77344 h 3.1875 v 2.21814 c 0.51562,-0.85669 0.96484,-1.44214 1.34765,-1.75634 0.625,-0.52662 1.4375,-0.78992 2.4375,-0.78992 z"
         style="fill:#282472;stroke-width:24" />
      <path
         id="use72"
         d="M 355.344,242.77997 Z"
         style="fill:#282472;stroke-width:24" />
      <path
         id="use73"
         d="m 369.40106,240.41278 c 0.97657,0 1.72657,-0.34717 2.25,-1.0415 0.52344,-0.69434 0.78516,-1.68115 0.78516,-2.96045 0,-1.2793 -0.26172,-2.26416 -0.78516,-2.95459 -0.52343,-0.69043 -1.27343,-1.03565 -2.25,-1.03565 -0.97656,0 -1.72851,0.34522 -2.25586,1.03565 -0.52734,0.69043 -0.79101,1.67529 -0.79101,2.95459 0,1.2793 0.26367,2.26611 0.79101,2.96045 0.52735,0.69434 1.2793,1.0415 2.25586,1.0415 m 6.53907,-4.01367 c 0,1.87329 -0.53907,3.47546 -1.61719,4.80652 -1.07813,1.33081 -2.71485,1.99622 -4.91016,1.99622 -2.19531,0 -3.83203,-0.66541 -4.91015,-1.99622 -1.07813,-1.33106 -1.61719,-2.93323 -1.61719,-4.80652 0,-1.84229 0.53906,-3.4386 1.61719,-4.78894 1.07812,-1.35034 2.71484,-2.02551 4.91015,-2.02551 2.19531,0 3.83203,0.67517 4.91016,2.02551 1.07812,1.35034 1.61719,2.94666 1.61719,4.78894 m -6.52735,-6.81445 z"
         style="fill:#282472;stroke-width:24" />
      <path
         id="use74"
         d="m 383.04553,225.34247 c 0.21094,0 0.40234,0.004 0.57422,0.0117 0.17186,0.008 0.40625,0.0195 0.70313,0.0352 v 2.71875 c -0.18752,0 -0.50196,-0.006 -0.94336,-0.0176 -0.44141,-0.0117 -0.74609,0.0848 -0.91406,0.28967 -0.16798,0.20484 -0.25196,0.43078 -0.25196,0.67786 0,0.24707 0,0.60229 0,1.06567 h 2.19141 v 2.36719 h -2.19141 v 10.28906 h -3.32812 v -10.28906 h -1.86329 v -2.36719 h 1.82813 v -0.82288 c 0,-1.37158 0.23047,-2.31603 0.69141,-2.83337 0.48437,-0.75 1.65234,-1.125 3.5039,-1.125 z"
         style="fill:#282472;stroke-width:24" />
      <path
         id="use75"
         d="M 384.744,242.77997 Z"
         style="fill:#282472;stroke-width:24" />
      <path
         id="use76"
         d="m 391.73408,232.49091 v -2.36719 h 1.78125 v -3.58594 h 3.30469 v 3.58594 h 2.07422 v 2.36719 h -2.07422 v 6.77014 c 0,0.5249 0.0664,0.85205 0.19923,0.98144 0.13281,0.12915 0.53906,0.19373 1.21875,0.19373 0.10156,0 0.20899,-0.004 0.32226,-0.0117 0.11328,-0.008 0.22462,-0.0195 0.33399,-0.0352 v 2.50782 l -1.58204,0.0703 c -1.57813,0.0547 -2.65625,-0.21936 -3.23438,-0.82214 -0.375,-0.38379 -0.5625,-0.97498 -0.5625,-1.77356 v -7.88086 z"
         style="fill:#282472;stroke-width:24" />
      <path
         id="use77"
         d="m 404.44816,228.4831 h -3.38672 v -3.09376 h 3.38672 v 3.09376 m -3.38672,1.52343 h 3.38672 v 12.77344 h -3.38672 z"
         style="fill:#282472;stroke-width:24" />
      <path
         id="use78"
         d="m 415.29148,234.57684 c -0.0625,-0.47656 -0.22265,-0.90624 -0.48047,-1.28906 -0.375,-0.51562 -0.95703,-0.77344 -1.74609,-0.77344 -1.125,0 -1.89453,0.5586 -2.3086,1.67579 -0.21876,0.59155 -0.32812,1.3778 -0.32812,2.35876 0,0.93408 0.10937,1.6853 0.32812,2.25366 0.39844,1.07349 1.14844,1.61023 2.25,1.61023 0.78126,0 1.33594,-0.21313 1.66407,-0.6394 0.32812,-0.42627 0.52734,-0.97876 0.59765,-1.65747 h 3.41016 c -0.0781,1.01806 -0.44531,1.9812 -1.10156,2.8894 -1.04688,1.46436 -2.59766,2.19654 -4.65235,2.19654 -2.05469,0 -3.5664,-0.60889 -4.53515,-1.82667 -0.96875,-1.21777 -1.45313,-2.79797 -1.45313,-4.7406 0,-2.19213 0.53516,-3.89953 1.60547,-5.12219 1.07031,-1.22266 2.54688,-1.83398 4.42969,-1.83398 1.60156,0 2.91211,0.36023 3.93164,1.08069 1.01953,0.72046 1.62304,1.99304 1.81054,3.81775 h -3.42187 m -2.26172,-4.89844 z"
         style="fill:#282472;stroke-width:24" />
      <path
         id="use79"
         d="m 420.97142,225.55341 h 3.28125 v 9.30542 l 4.16015,-4.80542 h 4.13672 l -4.46484,4.76697 4.64062,7.95959 h -4.03125 l -3.06518,-5.4668 -1.37622,1.44361 v 4.02319 h -3.28125 z"
         style="fill:#282472;stroke-width:24" />
      <path
         id="use80"
         d="m 439.36565,232.46747 c -0.77344,0 -1.37305,0.23585 -1.79883,0.70752 -0.42578,0.47168 -0.69336,1.11084 -0.80274,1.91748 h 5.19141 c -0.0547,-0.85986 -0.32227,-1.51233 -0.80274,-1.9574 -0.48046,-0.44506 -1.07617,-0.6676 -1.78711,-0.6676 m 0,-2.78906 c 1.0625,0 2.01953,0.19898 2.8711,0.59692 0.85156,0.39771 1.55468,1.02564 2.10937,1.88379 0.5,0.75659 0.82422,1.63416 0.97266,2.63269 0.0859,0.58496 0.1211,1.42737 0.10548,2.52722 h -8.7422 c 0.0469,1.27661 0.44922,2.17176 1.20703,2.68543 0.46094,0.31909 1.01563,0.47864 1.66407,0.47864 0.6875,0 1.24609,-0.19373 1.67578,-0.58118 0.23438,-0.20923 0.4414,-0.49988 0.62109,-0.87195 h 3.41016 c -0.0859,0.75781 -0.48047,1.52734 -1.1836,2.30859 -1.09375,1.24219 -2.625,1.86329 -4.59375,1.86329 -1.625,0 -3.05859,-0.52295 -4.30078,-1.56885 -1.24218,-1.04615 -1.86328,-2.74781 -1.86328,-5.10498 0,-2.20899 0.56055,-3.90284 1.68164,-5.08155 1.1211,-1.17871 2.57617,-1.76806 4.36524,-1.76806 m 0.23438,0 z"
         style="fill:#282472;stroke-width:24" />
      <path
         id="use81"
         d="m 446.33408,232.49091 v -2.36719 h 1.78125 v -3.58594 h 3.30469 v 3.58594 h 2.07422 v 2.36719 h -2.07422 v 6.77014 c 0,0.5249 0.0664,0.85205 0.19923,0.98144 0.13281,0.12915 0.53906,0.19373 1.21875,0.19373 0.10156,0 0.20899,-0.004 0.32226,-0.0117 0.11328,-0.008 0.22462,-0.0195 0.33399,-0.0352 v 2.50782 l -1.58204,0.0703 c -1.57813,0.0547 -2.65625,-0.21936 -3.23438,-0.82214 -0.375,-0.38379 -0.5625,-0.97498 -0.5625,-1.77356 v -7.88086 z"
         style="fill:#282472;stroke-width:24" />
      <path
         id="use82"
         d="m 458.26414,238.67841 c 0.0703,0.59741 0.22264,1.02185 0.45703,1.27331 0.41406,0.448 1.17969,0.672 2.29687,0.672 0.65625,0 1.17774,-0.098 1.56445,-0.29407 0.38672,-0.19629 0.58008,-0.4906 0.58008,-0.88293 0,-0.37647 -0.15624,-0.66284 -0.46875,-0.85913 -0.3125,-0.19606 -1.47265,-0.53113 -3.48047,-1.00525 -1.44531,-0.35767 -2.46484,-0.80591 -3.05859,-1.34473 -0.59375,-0.531 -0.89062,-1.29626 -0.89062,-2.29577 0,-1.17896 0.46289,-2.19202 1.38867,-3.03919 0.92578,-0.84741 2.22851,-1.27112 3.9082,-1.27112 1.59375,0 2.89258,0.31922 3.89649,0.95765 1.0039,0.63842 1.58007,1.74108 1.72851,3.30798 h -3.33984 c -0.0469,-0.43262 -0.16798,-0.77478 -0.36328,-1.02649 -0.36719,-0.4563 -0.99219,-0.68445 -1.875,-0.68445 -0.72657,0 -1.24414,0.11376 -1.55274,0.34131 -0.30859,0.22754 -0.46289,0.49426 -0.46289,0.80017 0,0.38428 0.16406,0.66272 0.49219,0.83533 0.32812,0.18041 1.48828,0.48828 3.48047,0.92358 1.32812,0.31104 2.32421,0.78284 2.98828,1.41541 0.65625,0.64038 0.98437,1.44079 0.98437,2.40124 0,1.2649 -0.4707,2.29761 -1.41211,3.09815 -0.9414,0.80029 -2.39648,1.20044 -4.36523,1.20044 -2.00782,0 -3.49024,-0.42493 -4.44727,-1.27478 -0.95703,-0.84986 -1.43554,-1.93274 -1.43554,-3.24866 h 3.38671 m 2.55469,-9.04688 z"
         style="fill:#282472;stroke-width:24" />
    </g>
  </g>
</svg>
