<?xml version="1.0" encoding="UTF-8" standalone="no"?>
<!-- Created with Inkscape (http://www.inkscape.org/) -->

<svg
   width="400"
   height="250"
   viewBox="0 0 105.83333 66.145833"
   version="1.1"
   id="svg1"
   inkscape:version="1.4.2 (f4327f4, 2025-05-13)"
   sodipodi:docname="sensor_zone_card.svg"
   xml:space="preserve"
   xmlns:inkscape="http://www.inkscape.org/namespaces/inkscape"
   xmlns:sodipodi="http://sodipodi.sourceforge.net/DTD/sodipodi-0.dtd"
   xmlns="http://www.w3.org/2000/svg"
   xmlns:svg="http://www.w3.org/2000/svg"><sodipodi:namedview
     id="namedview1"
     pagecolor="#565656"
     bordercolor="#999999"
     borderopacity="1"
     inkscape:showpageshadow="0"
     inkscape:pageopacity="0"
     inkscape:pagecheckerboard="true"
     inkscape:deskcolor="#d1d1d1"
     inkscape:document-units="mm"
     inkscape:zoom="2.0334082"
     inkscape:cx="149.01091"
     inkscape:cy="94.668647"
     inkscape:window-width="1920"
     inkscape:window-height="1009"
     inkscape:window-x="1912"
     inkscape:window-y="-8"
     inkscape:window-maximized="1"
     inkscape:current-layer="layer1" /><defs
     id="defs1"><filter
       style="color-interpolation-filters:sRGB;"
       inkscape:label="Drop Shadow"
       id="filter8"
       x="-0.022291022"
       y="-0.034951456"
       width="1.0631579"
       height="1.0990291"><feFlood
         result="flood"
         in="SourceGraphic"
         flood-opacity="0.498039"
         flood-color="rgb(0,0,0)"
         id="feFlood7" /><feGaussianBlur
         result="blur"
         in="SourceGraphic"
         stdDeviation="3.000000"
         id="feGaussianBlur7" /><feOffset
         result="offset"
         in="blur"
         dx="6.000000"
         dy="6.000000"
         id="feOffset7" /><feComposite
         result="comp1"
         operator="in"
         in="flood"
         in2="offset"
         id="feComposite7" /><feComposite
         result="comp2"
         operator="over"
         in="SourceGraphic"
         in2="comp1"
         id="feComposite8" /></filter><filter
       style="color-interpolation-filters:sRGB;"
       inkscape:label="Drop Shadow"
       id="filter10"
       x="-0.022291022"
       y="-0.034951456"
       width="1.05387"
       height="1.084466"><feFlood
         result="flood"
         in="SourceGraphic"
         flood-opacity="0.498039"
         flood-color="rgb(0,0,0)"
         id="feFlood8" /><feGaussianBlur
         result="blur"
         in="SourceGraphic"
         stdDeviation="3.000000"
         id="feGaussianBlur8" /><feOffset
         result="offset"
         in="blur"
         dx="3.000000"
         dy="3.000000"
         id="feOffset8" /><feComposite
         result="comp1"
         operator="in"
         in="flood"
         in2="offset"
         id="feComposite9" /><feComposite
         result="comp2"
         operator="over"
         in="SourceGraphic"
         in2="comp1"
         id="feComposite10" /></filter></defs><g
     inkscape:label="Layer 1"
     inkscape:groupmode="layer"
     id="layer1"><rect
       style="fill:#f9df06;fill-opacity:1;stroke:#ffffff;stroke-width:1.381;paint-order:fill markers stroke"
       id="rect1"
       width="92.375465"
       height="52.260223"
       x="6.7289338"
       y="6.9428048"
       ry="6.2565036" /><path
       id="path3"
       style="fill:#ffd49a;stroke:#000000;stroke-width:0.7;stroke-linecap:butt;stroke-linejoin:miter;stroke-opacity:1;fill-opacity:1;stroke-dasharray:none"
       d="M 71.674695 6.9427287 L 71.397709 7.9126953 C 62.564995 10.120874 59.804618 25.578284 59.804618 25.578284 L 70.293901 31.834749 L 87.591036 39.195024 C 92.559437 41.955247 92.499122 35.544297 89.79917 34.226851 L 75.997945 27.050028 C 75.997945 27.050028 88.342116 33.13231 90.145919 34.134351 C 94.902878 36.562261 96.305678 30.401752 92.743693 29.442131 L 78.206079 21.71392 L 92.743693 28.890226 C 98.408567 31.465169 98.824476 25.905569 95.429317 24.338566 C 99.523538 25.300804 100.24779 20.567306 96.792025 19.137333 L 85.198934 13.617257 L 99.104545 20.220471 L 99.104545 13.199194 C 99.104545 9.7330914 96.314182 6.9427287 92.848079 6.9427287 L 71.674695 6.9427287 z " /><rect
       style="fill:#ffffff;fill-opacity:1;stroke:#666666;stroke-width:1.381;paint-order:fill markers stroke;stroke-opacity:1"
       id="rect2"
       width="57.41264"
       height="30.914499"
       x="18.217472"
       y="20.609667"
       ry="2.5762067" /><path
       d="M 29.985269,43.790938 H 26.996256 V 29.39288 h 2.989013 z m -1.494507,-14.68133 z m 3.672775,7.599518 q 0,-3.770455 2.02198,-5.811971 1.758243,-1.777779 4.473752,-1.777779 3.633702,0 5.313801,2.383396 0.927962,1.338219 0.996338,2.686205 h -3.008549 q -0.293041,-1.03541 -0.752138,-1.562883 -0.820513,-0.937729 -2.432236,-0.937729 -1.641027,0 -2.588525,1.32845 -0.947497,1.318682 -0.947497,3.741151 0,2.422468 0.996337,3.633702 1.006106,1.201466 2.549453,1.201466 1.582419,0 2.4127,-1.035409 0.459097,-0.556777 0.761906,-1.670331 h 2.979245 q -0.390721,2.354092 -2.002444,3.829062 -1.601954,1.474971 -4.112335,1.474971 -3.10623,0 -4.884009,-1.992676 -1.777779,-2.002443 -1.777779,-5.489625 z m 6.40782,-7.755806 z"
       id="text2"
       style="font-weight:bold;font-size:20.0049px;line-height:1;font-family:Helvetica;-inkscape-font-specification:'Helvetica Bold';fill:#666666;stroke-width:0.500122"
       aria-label="IC" /><path
       style="font-weight:bold;font-size:10.3865px;line-height:1;font-family:'Helvetica Neue';-inkscape-font-specification:'Helvetica Neue Bold';fill:#666666;stroke-width:0.259662"
       d="m 52.360878,42.021129 h -1.422951 c -0.124638,0.727055 -0.498552,1.080196 -1.142515,1.080196 -0.394687,0 -0.706282,-0.145411 -0.924398,-0.436233 -0.218117,-0.290822 -0.321982,-0.706282 -0.321982,-1.235994 0,-0.550484 0.103865,-0.976331 0.332368,-1.287926 0.228503,-0.311595 0.540098,-0.467392 0.945172,-0.467392 0.59203,0 0.945171,0.311595 1.059423,0.924398 h 1.443723 c -0.06232,-0.62319 -0.321981,-1.111355 -0.768601,-1.474883 -0.457006,-0.363527 -1.03865,-0.550484 -1.744932,-0.550484 -0.83092,0 -1.506042,0.270049 -2.004594,0.789374 -0.498552,0.529711 -0.747828,1.225607 -0.747828,2.087686 0,0.841307 0.249276,1.516429 0.747828,2.025368 0.498552,0.498552 1.152901,0.758214 1.983821,0.758214 0.706282,0 1.287926,-0.197343 1.744932,-0.581644 0.457006,-0.394687 0.727055,-0.934785 0.820534,-1.63068 z m 5.837207,2.066913 c -0.124638,-0.290822 -0.186957,-0.768601 -0.186957,-1.45411 v -2.316189 c 0,-1.163288 -0.778988,-1.744932 -2.336963,-1.744932 -1.578748,0 -2.399281,0.602417 -2.482373,1.807251 h 1.381404 c 0.04155,-0.301209 0.145411,-0.508939 0.311595,-0.633577 0.155798,-0.124638 0.405074,-0.186957 0.747828,-0.186957 0.643963,0 0.965945,0.23889 0.965945,0.716669 0,0.20773 -0.09348,0.353141 -0.270049,0.425846 -0.176571,0.08309 -0.519325,0.155798 -1.03865,0.218117 -0.23889,0.03116 -0.425847,0.06232 -0.560871,0.08309 -0.124638,0.02077 -0.301209,0.06232 -0.519325,0.103865 -0.20773,0.05193 -0.373914,0.114251 -0.498552,0.186957 -0.124638,0.08309 -0.249276,0.17657 -0.384301,0.290822 -0.135024,0.124638 -0.228503,0.270049 -0.290822,0.436233 -0.06232,0.17657 -0.09348,0.373914 -0.09348,0.602417 0,0.508938 0.17657,0.903625 0.508938,1.194447 0.342755,0.290822 0.810147,0.425847 1.402178,0.425847 0.706282,0 1.287926,-0.218117 1.734545,-0.675123 0.02077,0.20773 0.06232,0.384301 0.103865,0.519325 z m -1.620294,-2.607011 v 0.602417 c 0,0.373914 -0.114252,0.675122 -0.353141,0.882852 -0.23889,0.20773 -0.560871,0.311595 -0.955558,0.311595 -0.249276,0 -0.44662,-0.06232 -0.592031,-0.186957 -0.145411,-0.124638 -0.218116,-0.301208 -0.218116,-0.519325 0,-0.228503 0.08309,-0.41546 0.228503,-0.540098 0.135024,-0.103865 0.41546,-0.197343 0.851693,-0.259662 0.519325,-0.08309 0.872466,-0.186957 1.03865,-0.290822 z m 6.076096,-2.845901 c -0.145411,-0.02077 -0.259662,-0.03116 -0.321981,-0.03116 -0.810147,0 -1.381405,0.373914 -1.734546,1.111356 v -0.986718 h -1.402177 v 5.359434 h 1.474883 v -2.451214 c 0,-0.519325 0.114251,-0.924398 0.342754,-1.235993 0.228503,-0.311595 0.581644,-0.467393 1.06981,-0.467393 0.166184,0 0.363527,0.02077 0.571257,0.06232 z m 5.598327,5.452912 v -7.395188 h -1.464497 v 2.70049 c -0.166184,-0.259662 -0.405073,-0.457006 -0.695895,-0.59203 -0.290822,-0.145411 -0.602417,-0.20773 -0.934785,-0.20773 -0.716669,0 -1.287926,0.249276 -1.713773,0.768601 -0.425846,0.508938 -0.633576,1.184061 -0.633576,2.025367 0,0.872466 0.218116,1.557975 0.654349,2.0773 0.436233,0.519325 1.028264,0.768601 1.765705,0.768601 0.727055,0 1.267153,-0.270049 1.620294,-0.83092 v 0.685509 z m -1.422951,-2.690103 c 0,0.529711 -0.103865,0.934785 -0.332368,1.225607 -0.218116,0.290822 -0.529711,0.436233 -0.934785,0.436233 -0.394687,0 -0.706282,-0.155798 -0.934785,-0.44662 -0.228503,-0.290822 -0.332368,-0.695895 -0.332368,-1.21522 0,-0.519325 0.103865,-0.914012 0.332368,-1.204834 0.218117,-0.290822 0.529712,-0.436233 0.934785,-0.436233 0.394687,0 0.706282,0.145411 0.934785,0.436233 0.228503,0.290822 0.332368,0.685509 0.332368,1.204834 z"
       id="text2-8"
       aria-label="card" /><path
       style="font-weight:bold;font-size:9.33411px;line-height:1;font-family:'Noto Sans TC';-inkscape-font-specification:'Noto Sans TC Bold';fill:#666666;stroke-width:0.233353"
       d="m 52.80587,35.68383 0.821402,-0.550713 q 0.36403,0.177348 0.765397,0.429369 0.401367,0.252021 0.774731,0.504042 0.373365,0.252021 0.625386,0.47604 l -0.896075,0.625385 Q 54.682027,36.953269 54.32733,36.691914 53.981968,36.430559 53.580602,36.169203 53.179235,35.898514 52.80587,35.68383 Z m -4.29369,-2.772231 h 6.225851 v 0.849404 H 48.51218 Z m -1.110759,1.241437 h 8.466038 v 0.877406 h -8.466038 z m 0.130677,-5.301775 h 8.148678 v 0.88674 h -8.148678 z m 1.717476,6.253854 1.026752,0.354696 q -0.261355,0.326694 -0.616051,0.653388 -0.354696,0.31736 -0.737395,0.588049 -0.382698,0.280023 -0.746728,0.476039 -0.09334,-0.102675 -0.242687,-0.242687 -0.149346,-0.140011 -0.308026,-0.280023 -0.15868,-0.130677 -0.280023,-0.214684 0.550712,-0.242687 1.064088,-0.597383 0.522711,-0.354697 0.84007,-0.737395 z m -0.140011,-4.079006 v 0.700058 h 4.965746 v -0.700058 z m -1.036087,-0.7934 h 7.112592 V 32.5289 h -7.112592 z m 1.978832,-1.036086 h 1.026752 v 3.005584 h -1.026752 z m 1.997499,0 h 1.054755 v 3.005584 h -1.054755 z m -0.998749,5.180431 h 1.110759 v 2.949579 h -1.110759 z m 7.784641,-2.529544 h 8.503374 v 1.110759 h -8.503374 z m 4.163013,-2.193516 h 3.444287 v 1.073423 h -3.444287 z m -0.774731,-1.110759 h 1.185432 v 3.83632 h -1.185432 z m 0.04667,4.013668 h 1.194766 v 4.751062 h -1.194766 z m 0.998749,2.006833 0.588049,-0.868072 q 0.345362,0.121344 0.765397,0.289358 0.429369,0.168014 0.868073,0.345362 0.438703,0.168014 0.821401,0.336028 0.392033,0.168014 0.672056,0.298691 l -0.634719,1.008084 q -0.252021,-0.140012 -0.63472,-0.31736 -0.373364,-0.186682 -0.802733,-0.373364 -0.420035,-0.196016 -0.849404,-0.382699 -0.429369,-0.186682 -0.7934,-0.336028 z"
       id="text3"
       aria-label="票 卡" /><path
       style="fill:none;stroke:#000000;stroke-width:0.7;stroke-linecap:butt;stroke-linejoin:miter;stroke-opacity:1;stroke-dasharray:none"
       d="M 95.429315,24.338566 82.208641,17.757435"
       id="path4" /><path
       id="path5"
       style="fill:#ffd49a;fill-opacity:1;stroke:#000000;stroke-width:0.8;stroke-linecap:butt;stroke-linejoin:miter;stroke-opacity:1;stroke-dasharray:none"
       d="M 82.261129 6.9427287 L 65.12419 25.698173 C 61.936295 33.440204 68.507113 35.457053 71.890186 30.772799 L 98.629639 11.05979 L 98.698368 10.969873 C 97.80374 8.6111235 95.527962 6.9427287 92.848079 6.9427287 L 82.261129 6.9427287 z " /><rect
       style="fill:none;fill-opacity:1;stroke:#ffffff;stroke-width:1.381;paint-order:fill markers stroke"
       id="rect1-8"
       width="92.375465"
       height="52.260223"
       x="6.7289338"
       y="6.9428048"
       ry="6.2565036" /><path
       style="fill:#ffe9cb;stroke:#000000;stroke-width:0.264583px;stroke-linecap:butt;stroke-linejoin:miter;stroke-opacity:1;fill-opacity:1"
       d="m 65.644611,26.218809 c 0,0 -1.370532,5.24176 0.455413,6.050494 2.852303,1.263321 6.245674,-2.992717 6.245674,-2.992717 -0.71565,-2.277068 -0.975888,-4.098722 -6.701087,-3.057777 z"
       id="path6"
       sodipodi:nodetypes="cscc" /><path
       d="m 22.7739,10.251023 0.290635,-0.203954 q 0.13257,0.09178 0.285535,0.209052 0.158065,0.112175 0.254943,0.198856 l -0.300832,0.229448 Q 23.2175,10.597744 23.059436,10.475372 22.90647,10.347901 22.7739,10.251023 Z m -3.01342,0.377315 h 4.022992 v 0.402809 H 19.76048 Z m 0.433402,0.70874 h 1.850883 v 0.331425 h -1.850883 z m 3.023618,-0.04589 0.418106,0.117274 q -0.244745,0.61696 -0.642455,1.131944 -0.392612,0.514984 -0.856607,0.851508 -0.03059,-0.04589 -0.09178,-0.101977 -0.06119,-0.06119 -0.127472,-0.117273 -0.06119,-0.06119 -0.107075,-0.09688 0.458896,-0.300832 0.826013,-0.764827 0.372216,-0.463995 0.581269,-1.01977 z m -0.984078,-1.182933 h 0.458897 q -0.0051,0.540478 0.02549,1.065659 0.03569,0.520083 0.09688,0.999375 0.06119,0.474193 0.137669,0.877002 0.07648,0.39771 0.158064,0.693444 0.08668,0.295733 0.168262,0.458896 0.08668,0.163163 0.158065,0.163163 0.05609,0 0.09178,-0.21925 0.03569,-0.22435 0.04589,-0.688345 0.07138,0.07648 0.17336,0.147867 0.107076,0.07138 0.193757,0.107076 -0.03059,0.433402 -0.09688,0.673048 -0.06119,0.239646 -0.17846,0.331425 -0.112175,0.09688 -0.290635,0.09688 -0.178459,0 -0.331425,-0.188657 -0.147866,-0.188658 -0.275338,-0.530281 -0.122372,-0.341623 -0.21925,-0.790321 -0.09178,-0.453798 -0.163163,-0.97898 -0.06629,-0.525181 -0.107076,-1.091153 -0.03569,-0.565973 -0.04589,-1.126846 z m -2.70239,0.520083 h 0.4436 v 1.035066 q 0,0.326326 -0.0204,0.734234 -0.0153,0.407908 -0.07138,0.841311 -0.05099,0.428303 -0.152965,0.846409 -0.101977,0.413006 -0.270239,0.764827 -0.04079,-0.04079 -0.112175,-0.09178 -0.07138,-0.05099 -0.147867,-0.101977 -0.07138,-0.04589 -0.122372,-0.06628 0.158064,-0.331425 0.244745,-0.70874 0.09178,-0.377315 0.137669,-0.769927 0.04589,-0.39771 0.05609,-0.769926 0.0153,-0.372216 0.0153,-0.678147 z m 0.963682,2.758477 h 0.392612 v 0.912694 q 0,0.08668 0.02549,0.112175 0.03059,0.02549 0.13257,0.02549 0.0204,0 0.07648,0 0.05609,0 0.127471,0 0.07138,0 0.13257,0 0.06119,0 0.09178,0 0.06629,0 0.09688,-0.04079 0.03569,-0.04079 0.05099,-0.158064 0.0153,-0.122372 0.0204,-0.367117 0.06119,0.04589 0.158064,0.08668 0.101977,0.03569 0.17846,0.05609 -0.0153,0.300832 -0.06119,0.463995 -0.04589,0.168262 -0.142767,0.229448 -0.09178,0.06629 -0.254943,0.06629 -0.03059,0 -0.107076,0 -0.07138,0 -0.163163,0 -0.08668,0 -0.163163,0 -0.07138,0 -0.101977,0 -0.198855,0 -0.305931,-0.04079 -0.101977,-0.04079 -0.142768,-0.142768 -0.04079,-0.101977 -0.04079,-0.285536 z m 0.387513,-0.163163 0.300832,-0.137669 q 0.117274,0.173361 0.244745,0.387513 0.127471,0.209053 0.198855,0.356919 l -0.316129,0.163163 q -0.06119,-0.147866 -0.188657,-0.367117 -0.122373,-0.21925 -0.239646,-0.402809 z m 0.958584,0.305931 0.326326,-0.122372 q 0.08668,0.173361 0.173361,0.372216 0.08668,0.193756 0.163163,0.377315 0.08158,0.183558 0.127471,0.316128 l -0.35182,0.152966 q -0.04079,-0.137669 -0.117274,-0.326327 -0.07138,-0.188657 -0.158064,-0.392611 -0.08158,-0.203954 -0.163163,-0.377315 z m -1.759103,-0.07648 0.321227,0.101977 q -0.02549,0.17846 -0.06629,0.382414 -0.04079,0.198855 -0.09688,0.387513 -0.05099,0.188657 -0.122373,0.336524 l -0.321227,-0.163164 q 0.07138,-0.137668 0.122372,-0.311029 0.05609,-0.17846 0.09688,-0.372216 0.04079,-0.193757 0.06629,-0.362019 z m 0.596565,-1.157439 v 0.494589 h 0.892299 v -0.494589 z m -0.392612,-0.326326 h 1.667324 v 1.15234 h -1.667324 z m 6.363365,-0.09178 h 1.968156 v 0.254942 h -1.968156 z m 0,0.499687 h 1.983453 v 0.254942 h -1.983453 z m -0.147867,0.509885 h 2.330175 v 0.31103 h -2.330175 z m -0.652652,-1.998749 0.39771,0.122372 q -0.193756,0.392612 -0.474193,0.759729 -0.275338,0.367117 -0.560874,0.62206 -0.03059,-0.04079 -0.08668,-0.09688 -0.05609,-0.06119 -0.117274,-0.117273 -0.05609,-0.06119 -0.101977,-0.09688 0.280437,-0.219251 0.530281,-0.53538 0.254942,-0.321227 0.413007,-0.657751 z m 0.826013,-0.0102 0.397711,0.112175 q -0.158065,0.367117 -0.392612,0.718938 -0.234547,0.346721 -0.474193,0.591466 -0.03569,-0.04079 -0.09688,-0.09178 -0.06119,-0.05099 -0.122372,-0.09688 -0.06119,-0.05099 -0.112175,-0.08158 0.239646,-0.214151 0.453797,-0.520082 0.214152,-0.31103 0.346722,-0.632258 z m 0.84131,0.601664 h 0.407908 v 1.524556 H 27.51583 Z m -1.376689,2.156814 h 0.438501 v 0.647554 q 0,0.08668 0.04079,0.112174 0.04589,0.0204 0.193756,0.0204 0.03059,0 0.117274,0 0.09178,0 0.193756,0 0.107076,0 0.198855,0 0.09688,0 0.137669,0 0.08158,0 0.122373,-0.02549 0.04079,-0.0255 0.05609,-0.112175 0.0204,-0.09178 0.03059,-0.275338 0.06629,0.05099 0.183559,0.09688 0.117273,0.04079 0.203954,0.06119 -0.0204,0.260042 -0.07648,0.397711 -0.05609,0.142767 -0.173361,0.193756 -0.112175,0.05609 -0.295733,0.05609 -0.03059,0 -0.107076,0 -0.07648,0 -0.173361,0 -0.09688,0 -0.193756,0 -0.09688,0 -0.173361,0 -0.07648,0 -0.107076,0 -0.249844,0 -0.382414,-0.04589 -0.13257,-0.04589 -0.183558,-0.163164 -0.05099,-0.112174 -0.05099,-0.311029 z m 0.448699,-0.142768 0.280437,-0.260041 q 0.142767,0.06628 0.300832,0.152965 0.158064,0.08668 0.295733,0.17846 0.142768,0.08668 0.234547,0.173361 l -0.290634,0.290634 q -0.08668,-0.08668 -0.22435,-0.183558 -0.13257,-0.09688 -0.290634,-0.188658 -0.158065,-0.09178 -0.305931,-0.163163 z m 1.279811,0.229448 0.351821,-0.173361 q 0.147866,0.142768 0.285535,0.316129 0.142768,0.173361 0.254943,0.346722 0.117273,0.168262 0.173361,0.31103 l -0.382414,0.198855 q -0.05609,-0.142768 -0.168262,-0.316129 -0.107076,-0.173361 -0.244745,-0.35182 -0.13257,-0.183559 -0.270239,-0.331426 z m -2.365866,-0.117273 0.392611,0.137669 q -0.08668,0.270239 -0.224349,0.540478 -0.137669,0.26514 -0.35692,0.453797 L 24.94601,14.498364 q 0.198855,-0.158064 0.336524,-0.402809 0.142768,-0.244744 0.219251,-0.489489 z m 1.254317,-2.258791 h 2.003848 v 0.300832 h -2.218 z m -0.35692,0.351821 0.40281,-0.331425 v 1.978353 h -0.40281 z M 24.838934,10.48557 h 4.073981 v 0.402809 h -4.073981 z m -0.26514,0 h 0.4436 v 1.524556 q 0,0.305931 -0.0204,0.673048 -0.0153,0.362018 -0.06629,0.749531 -0.04589,0.382414 -0.142768,0.749531 -0.09178,0.362018 -0.244745,0.66285 -0.03569,-0.04079 -0.107076,-0.09688 -0.06629,-0.05609 -0.142768,-0.112175 -0.07138,-0.05099 -0.122372,-0.07138 0.142768,-0.275338 0.224349,-0.601665 0.08158,-0.326326 0.117274,-0.667949 0.04079,-0.346722 0.05099,-0.673048 0.0102,-0.331425 0.0102,-0.611862 z m 0.953485,1.269613 0.407908,-0.39771 0.0051,0.0051 v 1.988551 h -0.413007 z m 0.856607,-1.611236 0.423204,-0.13257 q 0.107076,0.142767 0.203954,0.316128 0.101977,0.173361 0.142768,0.305931 l -0.4436,0.158065 q -0.04079,-0.137669 -0.137669,-0.316129 -0.09178,-0.183559 -0.188657,-0.331425 z m 0.958584,0.861705 0.341623,-0.137669 q 0.09178,0.09688 0.17336,0.214152 0.08158,0.117274 0.127472,0.209053 l -0.35692,0.163163 q -0.04079,-0.09688 -0.122372,-0.224349 -0.07648,-0.127471 -0.163163,-0.22435 z m 4.094376,0.362019 v 0.514984 h 1.024869 v -0.514984 z m -0.448699,-0.331426 h 1.95286 v 1.172736 h -1.95286 z m -0.142768,1.804993 v 0.66795 h 0.550676 v -0.66795 z M 30.44257,12.504714 h 1.371591 v 1.340998 H 30.44257 Z m 2.070133,0.336524 v 0.66795 h 0.586368 v -0.66795 z m -0.402809,-0.336524 h 1.412382 v 1.340998 h -1.412382 z m -2.671797,-2.187406 h 4.323824 v 0.428303 h -4.323824 z m 0.203954,0.02039 h 0.474193 v 3.222473 q 0,0.22435 0.06629,0.362018 0.06629,0.132571 0.224349,0.193757 0.158065,0.06119 0.428304,0.06119 0.08158,0 0.249843,0 0.168262,0 0.382414,0 0.219251,0 0.453798,0 0.239646,0 0.463995,0 0.224349,0 0.39771,0 0.17846,0 0.270239,0 0.147867,0 0.316129,-0.0051 0.168262,-0.0102 0.321228,-0.0204 0.158064,-0.0153 0.254942,-0.03059 0.0102,0.05609 0.02039,0.147866 0.0102,0.08668 0.0255,0.168262 0.0153,0.08158 0.02549,0.137669 -0.08158,0.0204 -0.234547,0.03059 -0.152966,0.0153 -0.351821,0.0153 -0.193756,0.0051 -0.392611,0.0051 -0.09178,0 -0.270239,0 -0.17846,0 -0.407908,0 -0.22435,0 -0.463996,0 -0.234547,0 -0.448698,0 -0.214152,0 -0.367118,0 -0.147866,0 -0.198855,0 -0.418105,0 -0.693443,-0.101977 -0.275338,-0.09688 -0.413007,-0.336524 -0.13257,-0.244745 -0.13257,-0.657752 z"
       id="text6"
       style="font-weight:500;font-size:5.09885px;line-height:1;font-family:'Noto Sans TC';-inkscape-font-specification:'Noto Sans TC Medium';stroke-width:0.127472"
       aria-label="感應區" /><path
       d="m 19.744607,17.435221 q 0.02087,0.150546 0.08198,0.225074 0.111792,0.135641 0.383073,0.135641 0.162471,0 0.263829,-0.03577 0.192282,-0.06856 0.192282,-0.254885 0,-0.10881 -0.0954,-0.168433 -0.0954,-0.05813 -0.299602,-0.102848 l -0.232527,-0.05217 q -0.342828,-0.07751 -0.473997,-0.168432 -0.222093,-0.152037 -0.222093,-0.475488 0,-0.29513 0.21464,-0.490393 0.214641,-0.195263 0.630506,-0.195263 0.3473,0 0.591751,0.184829 0.245942,0.183338 0.257866,0.533619 h -0.441205 q -0.01192,-0.198244 -0.172904,-0.281715 -0.10732,-0.05515 -0.26681,-0.05515 -0.177376,0 -0.283206,0.07155 -0.105829,0.07155 -0.105829,0.199735 0,0.117754 0.104339,0.175885 0.06708,0.03875 0.286187,0.09092 l 0.378601,0.09092 q 0.248923,0.05962 0.37562,0.15949 0.196754,0.155018 0.196754,0.448657 0,0.301093 -0.231036,0.500827 -0.229546,0.198244 -0.649883,0.198244 -0.42928,0 -0.675222,-0.195262 -0.245942,-0.196754 -0.245942,-0.539582 z m 0.445676,-1.585952 z m 1.864686,0.946503 q -0.147565,0 -0.229545,0.09241 -0.08049,0.09241 -0.101358,0.250413 h 0.660316 q -0.01043,-0.168433 -0.102848,-0.254885 -0.09092,-0.08794 -0.226565,-0.08794 z m 0,-0.350281 q 0.202716,0 0.365187,0.07602 0.16247,0.07602 0.2683,0.239979 0.0954,0.144584 0.123716,0.335376 0.0164,0.111791 0.01341,0.32196 h -1.111955 q 0.0089,0.244451 0.153527,0.342828 0.08794,0.06111 0.211659,0.06111 0.131169,0 0.21315,-0.07453 0.04472,-0.04025 0.079,-0.111792 h 0.433752 q -0.0164,0.144584 -0.150546,0.29364 -0.208678,0.236998 -0.584298,0.236998 -0.310036,0 -0.547034,-0.199734 -0.236999,-0.199735 -0.236999,-0.649883 0,-0.421827 0.21315,-0.646902 0.21464,-0.225074 0.555977,-0.225074 z m 0.02981,0 z m 1.92729,0.0045 q 0.251904,0 0.411394,0.13266 0.16098,0.131169 0.16098,0.436733 v 1.094068 h -0.435243 v -0.988239 q 0,-0.128188 -0.03428,-0.196753 -0.0626,-0.125207 -0.23849,-0.125207 -0.21613,0 -0.29662,0.183338 -0.04174,0.09689 -0.04174,0.247433 v 0.879428 h -0.423318 v -1.621725 h 0.409903 v 0.236998 q 0.08198,-0.125207 0.155018,-0.180357 0.131169,-0.09838 0.332394,-0.09838 z m -0.156508,-0.0045 z m 1.451802,1.14922 q 0.01342,0.113282 0.05813,0.16098 0.079,0.08496 0.292149,0.08496 0.125207,0 0.198244,-0.03726 0.07453,-0.03726 0.07453,-0.111792 0,-0.07155 -0.05962,-0.108811 -0.05962,-0.03726 -0.442695,-0.128188 -0.275753,-0.06856 -0.389035,-0.171414 -0.113283,-0.101358 -0.113283,-0.292149 0,-0.225074 0.175886,-0.386054 0.177376,-0.162471 0.497846,-0.162471 0.304074,0 0.494865,0.122226 0.192282,0.120735 0.220602,0.418846 h -0.424808 q -0.0089,-0.08198 -0.04621,-0.129678 -0.07006,-0.08645 -0.238489,-0.08645 -0.138621,0 -0.198244,0.04323 -0.05813,0.04323 -0.05813,0.101358 0,0.07304 0.0626,0.105829 0.0626,0.03428 0.442695,0.117754 0.253395,0.05962 0.380092,0.180358 0.125207,0.122225 0.125207,0.305564 0,0.24147 -0.180357,0.394997 -0.178867,0.152037 -0.554487,0.152037 -0.383074,0 -0.566412,-0.16098 -0.181848,-0.162471 -0.181848,-0.412884 z m 0.324941,-1.14922 z m 1.770781,1.368331 q 0.18632,0 0.286187,-0.132659 0.09987,-0.13266 0.09987,-0.377111 0,-0.244451 -0.09987,-0.37562 -0.09987,-0.13266 -0.286187,-0.13266 -0.186319,0 -0.287677,0.13266 -0.09987,0.131169 -0.09987,0.37562 0,0.244451 0.09987,0.377111 0.101358,0.132659 0.287677,0.132659 z m 0.831731,-0.50977 q 0,0.357734 -0.205697,0.612619 -0.205697,0.253394 -0.624543,0.253394 -0.418846,0 -0.624543,-0.253394 -0.205697,-0.254885 -0.205697,-0.612619 0,-0.351771 0.205697,-0.609638 0.205697,-0.257866 0.624543,-0.257866 0.418846,0 0.624543,0.257866 0.205697,0.257867 0.205697,0.609638 z m -0.83024,-0.858561 z m 2.016723,0.0045 q 0.01193,0 0.01938,0.0015 0.0089,0 0.03726,0.0015 v 0.435243 q -0.04025,-0.0045 -0.07155,-0.006 -0.0313,-0.0015 -0.05068,-0.0015 -0.256376,0 -0.344319,0.166942 -0.04919,0.0939 -0.04919,0.289168 v 0.77658 h -0.42779 v -1.624706 h 0.405432 v 0.283205 q 0.09838,-0.16247 0.171414,-0.222093 0.119244,-0.09987 0.310035,-0.09987 z m 1.032956,1.275917 1.134314,-1.420501 h -1.105993 v -0.389035 h 1.678366 v 0.368167 l -1.149219,1.441369 h 1.152201 v 0.387544 h -1.709669 z m 0.867504,-1.809536 z m 1.846799,1.897478 q 0.18632,0 0.286187,-0.132659 0.09987,-0.13266 0.09987,-0.377111 0,-0.244451 -0.09987,-0.37562 -0.09987,-0.13266 -0.286187,-0.13266 -0.186319,0 -0.287677,0.13266 -0.09987,0.131169 -0.09987,0.37562 0,0.244451 0.09987,0.377111 0.101358,0.132659 0.287677,0.132659 z m 0.831731,-0.50977 q 0,0.357734 -0.205697,0.612619 -0.205697,0.253394 -0.624543,0.253394 -0.418846,0 -0.624543,-0.253394 -0.205697,-0.254885 -0.205697,-0.612619 0,-0.351771 0.205697,-0.609638 0.205697,-0.257866 0.624543,-0.257866 0.418846,0 0.624543,0.257866 0.205697,0.257867 0.205697,0.609638 z m -0.83024,-0.858561 z m 2.03461,0.0045 q 0.251904,0 0.411394,0.13266 0.16098,0.131169 0.16098,0.436733 v 1.094068 h -0.435242 v -0.988239 q 0,-0.128188 -0.03428,-0.196753 -0.0626,-0.125207 -0.238489,-0.125207 -0.216131,0 -0.296621,0.183338 -0.04174,0.09689 -0.04174,0.247433 v 0.879428 h -0.423318 v -1.621725 h 0.409903 v 0.236998 q 0.08198,-0.125207 0.155018,-0.180357 0.131169,-0.09838 0.332394,-0.09838 z m -0.156508,-0.0045 z m 1.761838,0.350281 q -0.147566,0 -0.229546,0.09241 -0.08049,0.09241 -0.101358,0.250413 h 0.660317 q -0.01043,-0.168433 -0.102849,-0.254885 -0.09092,-0.08794 -0.226564,-0.08794 z m 0,-0.350281 q 0.202715,0 0.365186,0.07602 0.162471,0.07602 0.2683,0.239979 0.0954,0.144584 0.123716,0.335376 0.0164,0.111791 0.01342,0.32196 h -1.111955 q 0.0089,0.244451 0.153527,0.342828 0.08794,0.06111 0.211659,0.06111 0.131169,0 0.21315,-0.07453 0.04472,-0.04025 0.079,-0.111792 h 0.433751 q -0.0164,0.144584 -0.150546,0.29364 -0.208678,0.236998 -0.584298,0.236998 -0.310036,0 -0.547034,-0.199734 -0.236999,-0.199735 -0.236999,-0.649883 0,-0.421827 0.21315,-0.646902 0.21464,-0.225074 0.555978,-0.225074 z m 0.02981,0 z"
       id="text7"
       style="font-weight:bold;font-size:3.05266px;line-height:1;font-family:Helvetica;-inkscape-font-specification:'Helvetica Bold';stroke-width:0.0763166"
       aria-label="Sensor Zone" /><path
       style="fill:none;stroke:#000000;stroke-width:0.7;stroke-linecap:butt;stroke-linejoin:miter;stroke-opacity:1;stroke-dasharray:none"
       d="M 76.371116,13.389024 74.037234,9.3685076"
       id="path7" /><g
       id="g8"
       transform="matrix(0.19290802,-0.05755898,0.05755898,0.19290802,17.266432,22.78285)"
       style="filter:url(#filter10)"><path
         style="fill:#ffffff;stroke:#b3b3b3;stroke-width:0.999988;stroke-miterlimit:4;stroke-dasharray:none"
         inkscape:connector-curvature="0"
         id="path3014"
         d="M 16.921372,0.4999979 H 309.31313 c 6.55198,0 13.18688,6.5940592 13.18688,13.2298441 V 188.97314 c 0,9.89108 -6.6349,16.52686 -13.18688,16.52686 H 16.921372 C 7.0519511,205.5 0.49999455,198.86422 0.49999455,188.97314 V 13.729842 c 0,-6.6357849 6.55195655,-13.2298441 16.42137745,-13.2298441 z" /><path
         d="m 101.95947,73.762087 c 9.97313,-3.296561 20.90333,13.227964 24.15817,19.862806 3.33828,6.593117 3.33828,13.186237 6.63484,19.821077 3.29656,6.59312 13.22796,6.59312 16.52452,16.52453 6.63486,26.49766 -23.15936,56.1667 -42.93872,76.0295 H 17.039091 C 10.404239,206 7.1076773,202.70345 3.7693959,199.36516 20.335652,149.74986 62.317314,73.762087 101.95947,73.762087"
         id="path3-2"
         inkscape:connector-curvature="0"
         style="fill:#e3007f"
         sodipodi:nodetypes="cccccscc" /><path
         d="m 266.30424,80.281874 c 20.00532,0 39.96862,10.039108 56.69576,20.120566 v 60.40406 h -6.72447 c -39.9266,-3.30402 -136.54897,13.42782 -159.79045,-3.30402 9.96064,-30.28674 26.64576,-36.97949 46.60905,-57.10004 16.60106,-16.816557 29.92394,-20.120566 63.21011,-20.120566"
         id="path5-7"
         inkscape:connector-curvature="0"
         style="fill:#0e9f35" /><path
         d="m 93.135985,0 c 6.36306,6.7384942 10.644715,13.519629 13.805985,16.888876 3.24232,10.150382 24.29147,36.577164 14.68607,46.684895 0,0 -2.09418,1.12555 -3.24232,1.224974 -2.16385,0.187381 -6.40361,-1.224974 -6.40361,-1.224974 C 99.134392,56.835276 83.649294,56.84849 70.8421,52.863964 52.149516,45.326438 22.652983,39.386975 0.19986701,35.975088 L 1.0922627e-4,13.519629 C -0.0153327,11.783749 1.6092524,9.6399757 3.1613781,6.7384942 6.4037003,3.3692469 9.605502,0 16.049634,0 Z"
         id="path7-9"
         inkscape:connector-curvature="0"
         style="fill:#f6b046"
         sodipodi:nodetypes="cccacccscsc" /><path
         d="m 261.13632,0 c -13.51608,16.831332 -23.63188,30.304896 -30.34741,37.062926 -6.67302,3.357767 -13.47357,3.357767 -20.2316,10.073302 -3.31526,3.357767 -3.31526,6.758041 -6.71554,10.115797 0,3.357767 -6.75803,3.357767 -6.75803,6.715535 -10.0733,13.473562 -20.1466,30.347401 -26.90463,43.77846 -6.75804,-3.35777 -3.40027,-6.71553 -6.75804,-10.115798 0,-3.315261 -6.71552,-3.315261 -6.71552,-6.715524 C 146.58973,70.725599 153.34778,26.94713 160.0633,6.7155346 160.0633,3.3577672 163.42107,0 163.42107,0 Z"
         id="path9"
         inkscape:connector-curvature="0"
         style="fill:#007dc5" /><path
         d="M 16.921372,0.4999979 H 309.31313 c 6.55198,0 13.18688,6.5940592 13.18688,13.2298441 V 188.97314 c 0,9.89108 -6.6349,16.52686 -13.18688,16.52686 H 16.921372 C 7.0519511,205.5 0.49999455,198.86422 0.49999455,188.97314 V 13.729842 c 0,-6.6357849 6.55195655,-13.2298441 16.42137745,-13.2298441 z"
         id="path11"
         inkscape:connector-curvature="0"
         style="fill:none;stroke:#b3b3b3;stroke-width:0.999988;stroke-miterlimit:4;stroke-dasharray:none" /><g
         id="g4813"
         transform="matrix(0.08033827,0,0,0.08033827,255.52537,61.038942)"><path
           style="fill:#231815;fill-rule:evenodd"
           inkscape:connector-curvature="0"
           id="path3070"
           d="m -92.829998,64.86 v 0 c 5.1,7.77 10.16,17.72 15.17,29.83 l -9.78,6.4 c -4.01,-11.53 -8.44,-21.47 -13.290002,-29.83 m -33.35,-6.9 v 0 c 7.36,4.68 14.55,10.74 21.57,18.18 l -9.78,6.25 c -5.86,-6.92 -12.38,-12.93 -19.56,-18.05 z m -27.83,-2.01 v 0 l 13.16,1.63 c 1.67,0.17 2.51,0.8 2.51,1.88 0,1.08 -0.84,2.26 -2.51,3.52 -1.25,0.91 -1.88,2.32 -1.88,4.26 v 11.28 c 0,3.43 0.55,5.97 1.63,7.65 1.09,1.43 3.48,2.13 7.15,2.13 h 22.06 c 4.27,0 7.44,-0.66 9.53,-1.99 2.34,-1.25 4.22,-4.98 5.64,-11.17 l 10.790002,4.9 c -2.18,8.26 -4.85,13.57 -8.030002,15.92 -2.76,2.09 -6.14,3.13 -10.15,3.13 h -34.74 c -5,0 -8.89,-1.58 -11.65,-4.76 -2.34,-3.01 -3.51,-7.28 -3.51,-12.78 z m -15.17,4.89 v 0 l 8.65,4.4 c 1.42,0.49 2.13,0.99 2.13,1.48 0,0.84 -0.67,1.5 -2.01,2.01 -3.84,11.78 -8.1,21.56 -12.79,29.34 l -9.77,-5.76 c 5.27,-8.86 9.86,-19.34 13.79,-31.47 m 56.17,-49.9 v 0 c 2.25,7.45 5.84,13.42 10.78,17.93 0.59,0.5 1.17,1.01 1.75,1.51 2.51,-2.6 4.6,-5.49 6.27,-8.65 1.59,-2.85 2.930002,-6.45 4.010002,-10.79 z m -40,-4.39 v 0 l 9.91,0.88 c 1.84,0.09 2.76,0.59 2.76,1.5 0,0.59 -0.67,1.43 -2.01,2.51 v 8.41 c 5.18,-4.53 9.32,-9.08 12.41,-13.67 3.35,-4.67 6.4,-10.94 9.15,-18.81 l 10.66,3.63 c 1.09,0.42 1.64,1 1.64,1.76 0,0.43 -1.3,0.92 -3.9,1.5 -0.75,2.17 -1.59,4.32 -2.5,6.41 h 43.620002 v 10.26 h -7.89 c -1.09,6.2 -2.67,11.21 -4.77,15.05 -1.92,4.01 -4.43,7.7 -7.52,11.04 5.93,3.51 13.33,7.05 22.19,10.65 l -9.4,9.78 c -8.61,-4.18 -15.880002,-8.4 -21.820002,-12.66 -1.5,0.92 -3.09,1.85 -4.76,2.75 -5.52,2.85 -12.62,5.82 -21.32,8.91 l -9.4,-9.78 c 8.36,-2.09 14.67,-4.06 18.93,-5.91 2.76,-1.07 5.27,-2.29 7.53,-3.62 -0.83,-0.92 -1.63,-1.81 -2.39,-2.65 -4.67,-4.92 -8.23,-11.56 -10.65,-19.92 -3.18,4.35 -6.65,8.36 -10.41,12.03 l -9.4,-6.02 v 28.09 h -10.66 z m -6.89,-19.17 9.65,4.38 c 1.08,0.42 1.63,0.92 1.63,1.51 0,1.33 -1,2.33 -3.01,3.01 -3.09,5.18 -6.02,9.69 -8.78,13.54 v 49.16 h -10.78 V 29.01 c -2.01,2.08 -4.13,4.21 -6.4,6.39 l -7.76,-7.76 c 5.68,-5.2 10.48,-10.46 14.42,-15.81 3.67,-4.75 7.35,-10.78 11.03,-18.05"
           clip-rule="evenodd" /><path
           style="fill:#231815;fill-rule:evenodd"
           inkscape:connector-curvature="0"
           id="path3072"
           d="m 68.670002,28.63 v 0 c 0.84,0 1.58,0.25 2.25,0.75 l 4.77,2.89 c 0.59,0.41 0.88,0.83 0.88,1.25 0,0.84 -0.66,1.63 -2.01,2.38 l -13.16,15.41 v 7.15 h 15.18 v 9.28 h -15.18 v 16.68 c 0,3.93 -1.95,6.19 -5.89,6.77 -2.85,0.42 -8.41,0.63 -16.67,0.63 l -3.89,-10.77 h 12.15 c 2.69,0 4.02,-1.13 4.02,-3.39 v -9.92 h -18.69 v -9.28 h 18.69 V 46.17 l 4.14,0.88 6.27,-8.65 h -23.69 v -9.28 h 28.96 m -21.59,-36.22 v 0 l 9.4,3.38 c 1.26,0.35 1.88,0.84 1.88,1.5 0,0.35 -0.33,0.8 -1.01,1.39 -0.75,0.33 -2.13,2.89 -4.13,7.65 -0.42,0.92 -0.84,1.8 -1.26,2.64 h 24.95 v 9.4 h -29.84 c -1.84,3.18 -3.81,6.27 -5.9,9.28 l -10.27,-5.89 c 6.61,-8.12 12,-17.9 16.18,-29.35 m -38.74,-0.51 v 0 l 9.53,0.63 c 1.85,0.1 2.76,0.52 2.76,1.25 0,0.67 -0.67,1.68 -2,3.03 V 8.58 h 13.28 v 9.78 h -19.18 c 0,4.61 -0.05,8.83 -0.12,12.67 h 17.8 c 0,24.48 -0.54,39.95 -1.63,46.39 -0.66,6.18 -2.14,10.4 -4.38,12.67 -2.43,2.42 -6.48,3.63 -12.17,3.63 l -4.38,-9.78 c 5.44,0 8.66,-0.67 9.65,-2.01 0.92,-1.08 1.68,-3.72 2.27,-7.9 0.76,-4.26 1.17,-15.46 1.25,-33.59 h -8.65 c -0.25,6.44 -0.62,11.7 -1.12,15.8 -0.92,7.27 -1.97,12.95 -3.14,17.04 -1.67,5.95 -3.72,10.95 -6.14000002,15.05 L -9.179998,82.94 c 2.92,-4.68 5.14,-9.49 6.65,-14.41 1.33,-4.85 2.37999998,-10.55 3.12999998,-17.05 C 1.190002,45.54 1.520002,34.51 1.600002,18.37 h -10.78 V 8.59 h 15.67 v -16.2 z m -37.73,55.3 v 0 h 19.18 v 37.6 c 2.34,3.94 5.97,6.69 10.9,8.28 5.6,1.76 14.22,2.65 25.83,2.65 19.38,0 37.15,-0.52 53.28,-1.52 l -3.88,12.29 h -49.4 c -10.19,0 -18.39,-0.75 -24.57000002,-2.26 -6.43999998,-1.51 -11.48999998,-4.06 -15.16999998,-7.66 -1.59,-1.42 -2.93,-3.01 -4.01,-4.76 l -9.66,10.79 c -0.58,1.24 -1.26,1.88 -2.01,1.88 -0.83,0 -1.5,-0.55 -2,-1.64 l -6.27,-8.65 c 5.94,-3.42 10.99,-6.89 15.17,-10.39 V 57.46 h -7.39 z m 0.99,-29.84 v 0 c 7.03,3.51 12.92,7.28 17.68,11.28 l -6.89,7.28 c -5.51,-4.09 -11.58,-7.85 -18.18,-11.28 z m 2.89,-22.57 c 6.85,3.85 12.57,7.94 17.18,12.29 l -6.9,7.28 c -5.35,-4.51 -11.2,-8.56 -17.55,-12.16 z"
           clip-rule="evenodd" /><path
           style="fill:#231815;fill-rule:evenodd"
           inkscape:connector-curvature="0"
           id="path3074"
           d="m 161.68,-6.73 9.91,0.88 c 1.84,0.18 2.75,0.71 2.75,1.64 0,0.49 -0.63,1.33 -1.88,2.5 V 9.07 h 40.13 v 9.79 H 172.46 V 35.4 h 56.3 v 10.78 h -56.3 v 11.04 c 15.8,7.36 29.18,15.13 40.13,23.32 l -7.4,7.77 C 194.99,81.38 184.08,74.94 172.47,69 v 38.49 H 161.69 V 46.18 H 116.06 V 35.4 h 45.63"
           clip-rule="evenodd" /><path
           style="fill:#231815;fill-rule:evenodd"
           inkscape:connector-curvature="0"
           id="path3076"
           d="m 313.02,36.4 v 0 l 11.28,4.5 c 1.59,0.52 2.38,1.15 2.38,1.88 0,0.6 -0.96,1.6 -2.88,3.02 -5.1,13.2 -11.75,27.71 -19.93,43.51 15.63,-0.93 30.55,-2.39 44.76,-4.39 -4.52,-6.68 -9.2,-12.86 -14.04,-18.54 l 8.27,-6.9 c 9.95,10.45 19.74,23.82 29.34,40.13 L 361.42,107 c -2.17,-4.36 -4.42,-8.49 -6.77,-12.41 l -71.08,8.54 c -1.42,1.91 -2.72,2.87 -3.89,2.87 -1.42,0 -2.22,-0.63 -2.39,-1.88 l -4.5,-13.79 c 6.44,-0.08 12.78,-0.24 19.05,-0.5 3.85,-7.44 7.02,-14.25 9.53,-20.43 4.66,-11.14 8.55,-22.13 11.65,-33 m -6.89,-37.73 v 0 h 41.62 c 1.33,13.54 5.06,24.44 11.16,32.72 4.42,5.84 11.99,12.91 22.69,21.19 l -11.28,7.89 C 358.7,51.1 350.3,42.25 345.11,33.89 340.69,27.54 337.67,19.26 336.09,9.07 h -29.96 z m -11.79,12.79 12.16,2 c 1.33,0.42 2,1.04 2,1.88 0,1.09 -1.12,2.09 -3.38,3.01 -3.26,9.53 -6.6,16.85 -10.03,21.94 -4.18,6.27 -10.45,12.83 -18.81,19.68 l -9.4,-7.89 c 8.19,-6.02 14.34,-12.32 18.44,-18.94 3.25,-4.51 6.26,-11.74 9.02,-21.68"
           clip-rule="evenodd" /><path
           style="fill:#231815;fill-rule:evenodd"
           inkscape:connector-curvature="0"
           id="path3078"
           d="m 441.28,75.14 v 0 h 32.34 V 55.58 H 441.28 M 430,45.3 v 0 h 54.39 V 85.44 H 441.27 V 93.7 H 429.99 V 45.3 Z m -4.39,-23.06 v 0 h 64.56 v 10.28 h -64.56 z m -5.89,-23.07 h 96.53 V 93.7 c 0,5.86 -3.43,9.61 -10.28,11.29 -5.26,1.33 -10.53,2 -15.8,2 l -4.38,-11.79 13.16,-0.23 c 3.67,-0.18 5.52,-1.73 5.52,-4.66 V 9.95 h -84.75 z"
           clip-rule="evenodd" /><polyline
           style="fill:#231815;fill-rule:evenodd"
           transform="matrix(9.9999999,0,0,9.9999999,-3851.96,-3192.26)"
           id="polyline3080"
           points="370.329,340.463 365.93,340.463 365.93,333.132   369.889,333.132 369.889,334.117 367.396,334.117 367.396,336.117 369.836,336.117 369.836,337.122 367.396,337.122   367.396,339.479 370.329,339.479 "
           clip-rule="evenodd" /><path
           style="fill:#231815;fill-rule:evenodd"
           inkscape:connector-curvature="0"
           id="path3082"
           d="m -111.02,189.49 v 0 l -7.63,-22.37 -8.45,22.37 m 36.310002,22.88 H -103.31 l -5.39,-15.84 h -20.89 l -6.06,15.84 h -9.62 l 23.72,-58.04 h 8.95 z"
           clip-rule="evenodd" /><path
           style="fill:#231815;fill-rule:evenodd"
           inkscape:connector-curvature="0"
           id="path3084"
           d="m -50.339998,197.12 c 0,4.76 -1.87,8.65 -5.63,11.68 -3.76,3.05 -8.62,4.57 -14.59,4.57 -6.3,0 -12.05,-1.83 -17.25,-5.47 l 4.39,-6.97 c 4.1,3.1 8.08,4.66 11.94,4.66 2.71,0 4.93,-0.7 6.63,-2.08 1.72,-1.45 2.58,-3.31 2.58,-5.64 0,-2.75 -2.13,-6.04 -6.38,-9.86 -1.99,-1.76 -5.09,-4.34 -9.29,-7.71 -4.81,-3.82 -7.21,-7.98 -7.21,-12.53 0,-4.25 1.73,-7.71 5.22,-10.36 3.54,-2.71 8.04,-4.05 13.52,-4.05 5.29,0 10.22,1.56 14.75,4.73 l -4.48,6.38 c -3.26,-2.21 -6.38,-3.32 -9.36,-3.32 -2.27,0 -4.1,0.56 -5.48,1.66 -1.33,1.11 -1.99,2.59 -1.99,4.4 0,2.21 1.77,4.79 5.31,7.79 1.27,1.04 4.25,3.54 8.95,7.45 5.58,4.52 8.37,9.42 8.37,14.67"
           clip-rule="evenodd" /><polyline
           style="fill:#231815;fill-rule:evenodd"
           transform="matrix(9.9999999,0,0,9.9999999,-3851.96,-3192.26)"
           id="polyline3086"
           points="385.452,334.709 383.545,338.05 383.545,340.463   382.384,340.463 382.384,338.05 380.66,334.775 381.879,334.585 383.081,337.238 384.466,334.585 "
           clip-rule="evenodd" /><path
           style="fill:#231815;fill-rule:evenodd"
           inkscape:connector-curvature="0"
           id="path3088"
           d="m 67.340002,143.67 -4.72,9.11 c -5.38,-3.07 -10.63,-4.6 -15.82,-4.6 -7.88,0 -14.27,2.5 -19.16,7.54 -4.89,4.96 -7.33,11.55 -7.33,19.79 0,8.03 2.44,14.66 7.33,19.9 4.95,5.22 11.51,7.84 19.7,7.84 5.45,0 10.61,-1.33 15.49,-3.97 l 3.88,9 c -6.49,3.56 -13.68,5.33 -21.57,5.33 -11.8,0 -21.5,-3.48 -29.11,-10.47 -7.61,-6.97 -11.42,-16 -11.42,-27.01 0,-11.04 3.87,-20.18 11.62,-27.44 7.75,-7.26 17.52,-10.89 29.33,-10.89 7.6,0.01 14.86,1.96 21.78,5.87"
           clip-rule="evenodd" /><path
           style="fill:#231815;fill-rule:evenodd"
           inkscape:connector-curvature="0"
           id="path3090"
           d="m 104.88,189.49 v 0 l -7.629998,-22.37 -8.46,22.37 M 125.11,212.37 H 112.59 L 107.2,196.53 H 86.310002 l -6.04,15.84 h -9.63 l 23.71,-58.04 H 103.3 Z"
           clip-rule="evenodd" /><path
           style="fill:#231815;fill-rule:evenodd"
           inkscape:connector-curvature="0"
           id="path3092"
           d="m 159.18,170.85 v 0 c 0,-3.5 -1.08,-5.99 -3.23,-7.48 -1.48,-1.04 -4.02,-1.56 -7.64,-1.56 h -4.46 v 19.8 h 3.49 c 4.2,0 7.21,-0.94 9.03,-2.81 1.88,-1.95 2.81,-4.6 2.81,-7.95 m 15.68,40.27 -12.11,2.25 -11.93,-24.55 h -6.96 v 23.55 h -11.61 v -58.04 h 16.99 c 3.71,0 6.42,0.14 8.13,0.42 3.05,0.44 5.55,1.38 7.54,2.81 3.93,2.89 5.9,7.03 5.9,12.44 0,7.01 -3.38,12.5 -10.12,16.42 z"
           clip-rule="evenodd" /><path
           style="fill:#231815;fill-rule:evenodd"
           inkscape:connector-curvature="0"
           id="path3094"
           d="m 222.61,182.36 v 0 c 0,-8.85 -2.96,-14.81 -8.88,-17.91 -2.98,-1.53 -7.63,-2.31 -13.93,-2.31 h -5.06 v 42.44 h 4.73 c 4.32,0 7.66,-0.29 10.03,-0.92 2.38,-0.66 4.54,-1.79 6.47,-3.4 4.43,-3.76 6.64,-9.72 6.64,-17.9 m 12.43,-0.58 c 0,12.16 -4.73,20.89 -14.18,26.19 -5.24,2.93 -12.49,4.39 -21.72,4.39 h -16 v -58.04 h 16 c 5.47,0 9.79,0.34 12.94,1 2.48,0.52 5.17,1.47 8.04,2.9 9.95,4.93 14.92,12.78 14.92,23.56"
           clip-rule="evenodd" /><path
           style="fill:#231815;fill-rule:evenodd"
           inkscape:connector-curvature="0"
           id="path3096"
           d="m 334.43,143.67 -4.71,9.11 c -5.37,-3.07 -10.65,-4.6 -15.82,-4.6 -7.89,0 -14.28,2.5 -19.16,7.54 -4.89,4.96 -7.32,11.55 -7.32,19.79 0,8.03 2.43,14.66 7.32,19.9 4.95,5.22 11.51,7.84 19.69,7.84 5.44,0 10.61,-1.33 15.49,-3.97 l 3.89,9 c -6.49,3.56 -13.69,5.33 -21.57,5.33 -11.8,0 -21.51,-3.48 -29.12,-10.47 -7.61,-6.97 -11.42,-16 -11.42,-27.01 0,-11.04 3.88,-20.18 11.62,-27.44 7.75,-7.26 17.54,-10.89 29.34,-10.89 7.6,0.01 14.86,1.96 21.77,5.87"
           clip-rule="evenodd" /><path
           style="fill:#231815;fill-rule:evenodd"
           inkscape:connector-curvature="0"
           id="path3098"
           d="m 386.9,183.53 v 0 c 0,-6.9 -1.49,-12.31 -4.48,-16.18 -2.91,-3.87 -6.99,-5.8 -12.18,-5.8 -5.42,0 -9.6,2.38 -12.53,7.13 -2.48,4.03 -3.72,8.93 -3.72,14.69 0,5.9 1.24,10.82 3.72,14.76 2.99,4.69 7.25,7.04 12.77,7.04 5.03,0 9.02,-1.94 11.93,-5.8 2.99,-3.93 4.49,-9.22 4.49,-15.84 m 12.52,-0.75 c 0,8.73 -2.63,15.96 -7.88,21.72 -5.37,5.92 -12.37,8.87 -21.05,8.87 -8.62,0 -15.64,-2.93 -21.05,-8.79 -5.25,-5.69 -7.88,-12.91 -7.88,-21.64 0,-8.67 2.76,-15.78 8.29,-21.31 5.53,-5.53 12.61,-8.28 21.23,-8.28 8.07,0 14.81,2.81 20.22,8.46 5.4,5.57 8.12,12.56 8.12,20.97"
           clip-rule="evenodd" /><path
           style="fill:#231815;fill-rule:evenodd"
           inkscape:connector-curvature="0"
           id="path3100"
           d="m 437.31,170.85 v 0 c 0,-3.5 -1.07,-5.99 -3.24,-7.48 -1.49,-1.04 -4.03,-1.56 -7.63,-1.56 h -4.47 v 19.8 h 3.48 c 4.21,0 7.22,-0.94 9.04,-2.81 1.88,-1.95 2.82,-4.6 2.82,-7.95 m 15.66,40.27 -12.11,2.25 -11.92,-24.55 h -6.97 v 23.55 h -11.6 v -58.04 h 16.99 c 3.7,0 6.42,0.14 8.13,0.42 3.04,0.44 5.56,1.38 7.54,2.81 3.93,2.89 5.89,7.03 5.89,12.44 0,7.01 -3.37,12.5 -10.11,16.42 z"
           clip-rule="evenodd" /><path
           style="fill:#231815;fill-rule:evenodd"
           inkscape:connector-curvature="0"
           id="path3102"
           d="m 500.65,170.67 c 0,5.85 -2.21,10.61 -6.64,14.26 -4.37,3.59 -10.14,5.41 -17.31,5.47 v -7.13 c 8.12,-0.61 12.18,-4.41 12.18,-11.44 0,-4.31 -1.62,-7.22 -4.89,-8.7 -1.48,-0.66 -4.14,-1 -7.95,-1 h -3.24 v 50.23 h -11.51 v -58.04 h 15.33 c 4.09,0 6.99,0.11 8.7,0.34 3.2,0.37 5.92,1.27 8.13,2.65 4.79,3 7.2,7.45 7.2,13.36"
           clip-rule="evenodd" /><path
           style="fill:#231815;fill-rule:evenodd"
           inkscape:connector-curvature="0"
           id="path3104"
           d="m 515.49,206.81 c 0,1.78 -0.62,3.27 -1.83,4.48 -1.22,1.17 -2.71,1.75 -4.48,1.75 -1.77,0 -3.26,-0.58 -4.47,-1.75 -1.22,-1.21 -1.83,-2.69 -1.83,-4.39 0,-1.93 0.61,-3.48 1.83,-4.64 1.21,-1.22 2.79,-1.83 4.73,-1.83 1.71,0 3.14,0.63 4.31,1.9 1.17,1.23 1.74,2.71 1.74,4.48"
           clip-rule="evenodd" /></g><g
         id="g4872"
         transform="matrix(0.08133965,0,0,0.08133965,245.42762,28.07066)"><path
           style="fill:#e3007f"
           inkscape:connector-curvature="0"
           id="path3054"
           d="m 123.53547,164.2333 c 20.98,-1.14 40.7,41.28 49.45,53.6 5.68,8.05 11.32,10.6 17.75,18.1 2.17,2.55 13.15,8.33 16.68,8.69 21.12,2.17 34.47,-4.92 44.47,-7.66 13.48,-3.65 21.86,-3.95 33.27,-10.64 10.83,-6.33 92.84,-39.73 97.23,-12.53 3.43,21.03 -55.65,55.05 -68.88,63.65 -2.87,1.84 -3.82,6.46 -7.02,7.93 -14.72,6.61 -71.75,28.29 -91.39,23.5 -29.16,-7.12 -66.03,-71.55 -78.02,-96.17 -1.97,-3.99 -28.74,-47.69 -13.54,-48.47" /><path
           style="fill:#e3007f"
           inkscape:connector-curvature="0"
           id="path3056"
           d="m 291.02547,80.823298 c 8.69,-0.4 15.14,10.07 17.96,15.75 1.75,3.580002 1.09,8.660002 3.19,11.930002 3.42,5.24 10.91,6.57 12.55,13.48 4.86,20.62 -28.2,48.41 -37.58,57.9 -5.38,5.4 -13.53,22.05 -20.57,24.51 -3.89,1.31 -7.25,-2.82 -11.25,-0.41 -15.23,8.72 -19,17.79 -34.55,14.53 -14.85,-3.12 -6.21,-24.65 -1.84,-41.21 8.79,-33.09 43.14,-95.240002 72.09,-96.480002" /><path
           style="fill:#5bb431"
           inkscape:connector-curvature="0"
           id="path3058"
           d="m 393.63547,17.873298 c 30.79,1.42 64.29,25.98 75.98,42.87 4.21,6.11 11.96,19.59 7.38,26.75 -15.32,-2.46 -30.24,-13.65 -47.88,-14.88 -28.29,-1.94 -95.41,9.82 -113.27,-1.1 7.3,-21.37 20.2,-26.84 33.21,-39.75 12.02,-11.98 21.59,-14.94 44.58,-13.89" /><path
           style="fill:#f6b046"
           inkscape:connector-curvature="0"
           id="path3060"
           d="m 187.61547,4.8332981 c 28.93,4.81 53.52,24.0299999 62.46,39.4399999 3.01,5.25 16.03,24.29 9.29,30.64 -0.75,0.72 -2.18,0.31 -3.38,0.55 0.56,0.2 -3.1,-0.72 -3.1,-0.72 -10.24,-3.39 -18.89,-4.62 -28.94,-7.66 -17.71,-5.51 -42.9,-11.26 -60.56,-12.02 -6.11,-0.23 -13.46,2.11 -19.11,1.49 -6.16,-0.67 -23.83,-8.69 -31.98,-11.77 -1.34,-0.51 -4.36,-2.39 -5.62,-3.4 -1.64,-1.23 -3.93,-4.54 -4.14,-6.36 -1.31,-11.86 19.79,-23.44 28.04,-27.0999999 12.57,-5.63 38.53,-6.15 57.04,-3.09" /><path
           style="fill:#5bb431"
           inkscape:connector-curvature="0"
           id="path3062"
           d="m 459.66547,-7.5767019 c 31.58,-1.21 86.99,67.9799999 78.36,94.7799999 -12.31,38.220002 -42.8,48.050002 -76.63,59.930002 -5.96,2.07 -18.95,9.35 -25.01,8.76 -4.28,-0.46 -4.43,-5.52 -7.39,-6.43 -4.71,-1.39 -9.44,3.19 -14.79,2.58 3.12,-7.92 25.68,-24.08 33.01,-27.49 2.99,-1.48 21.85,-12.52 29.16,-17.58 15.31,-10.530002 17.98,-8.180002 28.27,-24.910002 1.89,-3.05 4.97,-8.86 3.64,-13.72 -3.28,-11.59 -29.89,-28.44 -38.8,-37.83 -4.63,-4.8 -7.69,-11.04 -11.89,-16.16 -4,-4.8999999 -12.26,-21.3399999 2.07,-21.9299999" /><path
           style="fill:#f6b046"
           inkscape:connector-curvature="0"
           id="path3064"
           d="m 134.28547,-58.616702 c 6.24,-0.09 9.79,4.36 12.91,7.2 25.63,23.41 -44.67,54.5700001 -56.070002,59.8700001 -1.76,0.86 -3.68,1.46 -5.41,2.4099999 -3.57,1.87 -6.68,4.14 -9.69,6.7 -3.48,2.94 -6.15,6.08 -8.96,9.98 -1.84,2.44 -4.24,5.34 -3.97,10.56 0.99,17.47 28.94,27.85 37.300002,41.23 8.8,14.1 -5.900002,11.9 -15.520002,7.23 -9.94,-4.93 -23.42,-12.08 -31.36,-19.48 -8.73,-8.14 -32.5,-51.78 -22.88,-68.3599999 12.07,-20.7900001 32,-28.0800001 51.95,-38.8200001 11.16,-6.04 37.600002,-18.48 51.700002,-18.52" /><path
           style="fill:#007dc5"
           inkscape:connector-curvature="0"
           id="path3066"
           d="m 350.29547,-96.196698 c 4.65,0.18 13.28,11.33 16.56,14.229996 4.99,4.44 12.62,11.49 14.06,18.47 4.74,23.65 -33.07,70.2600001 -43.47,80.41 -3.75,3.57 -10.63,3.29 -13.92,7.12 -1.63,1.93 -3.12,4.33 -4.47,6.61 -1.2,2.11 -4.67,3.24 -5.96,5.17 -6.8,9.87 -13.13,20.33 -18.31,30.84 -4.88,-2.71 -1.93,-4.22 -4.54,-8.55 -1.16,-1.96 -4.86,-2.17 -5.89,-4.22 -7.08,-13.41 -2.1,-43.21 3.09,-57.6499999 1.49,-4.18 5.38,-8.0500001 6.46,-12.8400001 2.14,-9.85 2.77,-19.11 7.82,-25.96 4.4,-6 18.46,-20.65 22.05,-26.59 1.55,-2.57 0.95,-6.33 2.25,-9.23 2.49,-5.569996 17.08,-18.069996 24.27,-17.809996" /><path
           style="fill:#007dc5"
           inkscape:connector-curvature="0"
           id="path3068"
           d="m 393.27547,-181.9067 c 13.6,-2.57 14.7,11.96 23.15,20.37 6.29,6.3 9.67,16.53 12.69,25.24 6.38,18.48 1.38,56.859998 -3.84,71.409998 -3.54,9.81 -9.49,19.82 -16.66,25.93 -2.99,2.55 -2.84,2.55 -7.05,2.62 -0.42,-8.18 -0.87,-77.669998 -8.64,-80.709998 -7.79,-3.03 -60.87,15.58 -68.8,18.450002 -8.45,3.02 -23.37,1.33 -30.39,-4.900002 -2.18,-1.94 -9.34,-10.81 -9.78,-13.45 -1.24,-7.08 24.04,-28.43 29.47,-30 5.36,-1.68 9.11,1.35 14.46,-1.6 15.58,-8.66 29.73,-21.11 48.65,-25.81 8.15,-2.08 9.63,-6.22 16.74,-7.55" /></g></g></g></svg>
