<?xml version="1.0" encoding="UTF-8" standalone="no"?>
<!-- Created with Inkscape (http://www.inkscape.org/) -->

<svg
   width="400"
   height="250"
   viewBox="0 0 105.83333 66.145833"
   version="1.1"
   id="svg1"
   inkscape:version="1.4.2 (f4327f4, 2025-05-13)"
   sodipodi:docname="sensor_zone_blank.svg"
   xmlns:inkscape="http://www.inkscape.org/namespaces/inkscape"
   xmlns:sodipodi="http://sodipodi.sourceforge.net/DTD/sodipodi-0.dtd"
   xmlns="http://www.w3.org/2000/svg"
   xmlns:svg="http://www.w3.org/2000/svg">
  <sodipodi:namedview
     id="namedview1"
     pagecolor="#565656"
     bordercolor="#999999"
     borderopacity="1"
     inkscape:showpageshadow="0"
     inkscape:pageopacity="0"
     inkscape:pagecheckerboard="true"
     inkscape:deskcolor="#d1d1d1"
     inkscape:document-units="mm"
     inkscape:zoom="4.0668163"
     inkscape:cx="279.33398"
     inkscape:cy="76.841435"
     inkscape:window-width="1920"
     inkscape:window-height="1009"
     inkscape:window-x="1912"
     inkscape:window-y="-8"
     inkscape:window-maximized="1"
     inkscape:current-layer="layer1" />
  <defs
     id="defs1" />
  <g
     inkscape:label="Layer 1"
     inkscape:groupmode="layer"
     id="layer1">
    <rect
       style="fill:#f9df06;fill-opacity:1;stroke:#ffffff;stroke-width:1.381;paint-order:fill markers stroke"
       id="rect1"
       width="92.375465"
       height="52.260223"
       x="6.7289338"
       y="6.9428048"
       ry="6.2565036" />
    <path
       id="path3"
       style="fill:#ffd49a;stroke:#000000;stroke-width:0.7;stroke-linecap:butt;stroke-linejoin:miter;stroke-opacity:1;fill-opacity:1;stroke-dasharray:none"
       d="M 71.674695 6.9427287 L 71.397709 7.9126953 C 62.564995 10.120874 59.804618 25.578284 59.804618 25.578284 L 70.293901 31.834749 L 87.591036 39.195024 C 92.559437 41.955247 92.499122 35.544297 89.79917 34.226851 L 75.997945 27.050028 C 75.997945 27.050028 88.342116 33.13231 90.145919 34.134351 C 94.902878 36.562261 96.305678 30.401752 92.743693 29.442131 L 78.206079 21.71392 L 92.743693 28.890226 C 98.408567 31.465169 98.824476 25.905569 95.429317 24.338566 C 99.523538 25.300804 100.24779 20.567306 96.792025 19.137333 L 85.198934 13.617257 L 99.104545 20.220471 L 99.104545 13.199194 C 99.104545 9.7330914 96.314182 6.9427287 92.848079 6.9427287 L 71.674695 6.9427287 z " />
    <rect
       style="fill:#ffffff;fill-opacity:1;stroke:#666666;stroke-width:1.381;paint-order:fill markers stroke;stroke-opacity:1"
       id="rect2"
       width="57.41264"
       height="30.914499"
       x="18.217472"
       y="20.609667"
       ry="2.5762067" />
    <path
       d="M 29.985269,43.790938 H 26.996256 V 29.39288 h 2.989013 z m -1.494507,-14.68133 z m 3.672775,7.599518 q 0,-3.770455 2.02198,-5.811971 1.758243,-1.777779 4.473752,-1.777779 3.633702,0 5.313801,2.383396 0.927962,1.338219 0.996338,2.686205 h -3.008549 q -0.293041,-1.03541 -0.752138,-1.562883 -0.820513,-0.937729 -2.432236,-0.937729 -1.641027,0 -2.588525,1.32845 -0.947497,1.318682 -0.947497,3.741151 0,2.422468 0.996337,3.633702 1.006106,1.201466 2.549453,1.201466 1.582419,0 2.4127,-1.035409 0.459097,-0.556777 0.761906,-1.670331 h 2.979245 q -0.390721,2.354092 -2.002444,3.829062 -1.601954,1.474971 -4.112335,1.474971 -3.10623,0 -4.884009,-1.992676 -1.777779,-2.002443 -1.777779,-5.489625 z m 6.40782,-7.755806 z"
       id="text2"
       style="font-weight:bold;font-size:20.0049px;line-height:1;font-family:Helvetica;-inkscape-font-specification:'Helvetica Bold';fill:#666666;stroke-width:0.500122"
       aria-label="IC" />
    <path
       style="font-weight:bold;font-size:10.3865px;line-height:1;font-family:'Helvetica Neue';-inkscape-font-specification:'Helvetica Neue Bold';fill:#666666;stroke-width:0.259662"
       d="m 52.360878,42.021129 h -1.422951 c -0.124638,0.727055 -0.498552,1.080196 -1.142515,1.080196 -0.394687,0 -0.706282,-0.145411 -0.924398,-0.436233 -0.218117,-0.290822 -0.321982,-0.706282 -0.321982,-1.235994 0,-0.550484 0.103865,-0.976331 0.332368,-1.287926 0.228503,-0.311595 0.540098,-0.467392 0.945172,-0.467392 0.59203,0 0.945171,0.311595 1.059423,0.924398 h 1.443723 c -0.06232,-0.62319 -0.321981,-1.111355 -0.768601,-1.474883 -0.457006,-0.363527 -1.03865,-0.550484 -1.744932,-0.550484 -0.83092,0 -1.506042,0.270049 -2.004594,0.789374 -0.498552,0.529711 -0.747828,1.225607 -0.747828,2.087686 0,0.841307 0.249276,1.516429 0.747828,2.025368 0.498552,0.498552 1.152901,0.758214 1.983821,0.758214 0.706282,0 1.287926,-0.197343 1.744932,-0.581644 0.457006,-0.394687 0.727055,-0.934785 0.820534,-1.63068 z m 5.837207,2.066913 c -0.124638,-0.290822 -0.186957,-0.768601 -0.186957,-1.45411 v -2.316189 c 0,-1.163288 -0.778988,-1.744932 -2.336963,-1.744932 -1.578748,0 -2.399281,0.602417 -2.482373,1.807251 h 1.381404 c 0.04155,-0.301209 0.145411,-0.508939 0.311595,-0.633577 0.155798,-0.124638 0.405074,-0.186957 0.747828,-0.186957 0.643963,0 0.965945,0.23889 0.965945,0.716669 0,0.20773 -0.09348,0.353141 -0.270049,0.425846 -0.176571,0.08309 -0.519325,0.155798 -1.03865,0.218117 -0.23889,0.03116 -0.425847,0.06232 -0.560871,0.08309 -0.124638,0.02077 -0.301209,0.06232 -0.519325,0.103865 -0.20773,0.05193 -0.373914,0.114251 -0.498552,0.186957 -0.124638,0.08309 -0.249276,0.17657 -0.384301,0.290822 -0.135024,0.124638 -0.228503,0.270049 -0.290822,0.436233 -0.06232,0.17657 -0.09348,0.373914 -0.09348,0.602417 0,0.508938 0.17657,0.903625 0.508938,1.194447 0.342755,0.290822 0.810147,0.425847 1.402178,0.425847 0.706282,0 1.287926,-0.218117 1.734545,-0.675123 0.02077,0.20773 0.06232,0.384301 0.103865,0.519325 z m -1.620294,-2.607011 v 0.602417 c 0,0.373914 -0.114252,0.675122 -0.353141,0.882852 -0.23889,0.20773 -0.560871,0.311595 -0.955558,0.311595 -0.249276,0 -0.44662,-0.06232 -0.592031,-0.186957 -0.145411,-0.124638 -0.218116,-0.301208 -0.218116,-0.519325 0,-0.228503 0.08309,-0.41546 0.228503,-0.540098 0.135024,-0.103865 0.41546,-0.197343 0.851693,-0.259662 0.519325,-0.08309 0.872466,-0.186957 1.03865,-0.290822 z m 6.076096,-2.845901 c -0.145411,-0.02077 -0.259662,-0.03116 -0.321981,-0.03116 -0.810147,0 -1.381405,0.373914 -1.734546,1.111356 v -0.986718 h -1.402177 v 5.359434 h 1.474883 v -2.451214 c 0,-0.519325 0.114251,-0.924398 0.342754,-1.235993 0.228503,-0.311595 0.581644,-0.467393 1.06981,-0.467393 0.166184,0 0.363527,0.02077 0.571257,0.06232 z m 5.598327,5.452912 v -7.395188 h -1.464497 v 2.70049 c -0.166184,-0.259662 -0.405073,-0.457006 -0.695895,-0.59203 -0.290822,-0.145411 -0.602417,-0.20773 -0.934785,-0.20773 -0.716669,0 -1.287926,0.249276 -1.713773,0.768601 -0.425846,0.508938 -0.633576,1.184061 -0.633576,2.025367 0,0.872466 0.218116,1.557975 0.654349,2.0773 0.436233,0.519325 1.028264,0.768601 1.765705,0.768601 0.727055,0 1.267153,-0.270049 1.620294,-0.83092 v 0.685509 z m -1.422951,-2.690103 c 0,0.529711 -0.103865,0.934785 -0.332368,1.225607 -0.218116,0.290822 -0.529711,0.436233 -0.934785,0.436233 -0.394687,0 -0.706282,-0.155798 -0.934785,-0.44662 -0.228503,-0.290822 -0.332368,-0.695895 -0.332368,-1.21522 0,-0.519325 0.103865,-0.914012 0.332368,-1.204834 0.218117,-0.290822 0.529712,-0.436233 0.934785,-0.436233 0.394687,0 0.706282,0.145411 0.934785,0.436233 0.228503,0.290822 0.332368,0.685509 0.332368,1.204834 z"
       id="text2-8"
       aria-label="card" />
    <path
       style="font-weight:bold;font-size:9.33411px;line-height:1;font-family:'Noto Sans TC';-inkscape-font-specification:'Noto Sans TC Bold';fill:#666666;stroke-width:0.233353"
       d="m 52.80587,35.68383 0.821402,-0.550713 q 0.36403,0.177348 0.765397,0.429369 0.401367,0.252021 0.774731,0.504042 0.373365,0.252021 0.625386,0.47604 l -0.896075,0.625385 Q 54.682027,36.953269 54.32733,36.691914 53.981968,36.430559 53.580602,36.169203 53.179235,35.898514 52.80587,35.68383 Z m -4.29369,-2.772231 h 6.225851 v 0.849404 H 48.51218 Z m -1.110759,1.241437 h 8.466038 v 0.877406 h -8.466038 z m 0.130677,-5.301775 h 8.148678 v 0.88674 h -8.148678 z m 1.717476,6.253854 1.026752,0.354696 q -0.261355,0.326694 -0.616051,0.653388 -0.354696,0.31736 -0.737395,0.588049 -0.382698,0.280023 -0.746728,0.476039 -0.09334,-0.102675 -0.242687,-0.242687 -0.149346,-0.140011 -0.308026,-0.280023 -0.15868,-0.130677 -0.280023,-0.214684 0.550712,-0.242687 1.064088,-0.597383 0.522711,-0.354697 0.84007,-0.737395 z m -0.140011,-4.079006 v 0.700058 h 4.965746 v -0.700058 z m -1.036087,-0.7934 h 7.112592 V 32.5289 h -7.112592 z m 1.978832,-1.036086 h 1.026752 v 3.005584 h -1.026752 z m 1.997499,0 h 1.054755 v 3.005584 h -1.054755 z m -0.998749,5.180431 h 1.110759 v 2.949579 h -1.110759 z m 7.784641,-2.529544 h 8.503374 v 1.110759 h -8.503374 z m 4.163013,-2.193516 h 3.444287 v 1.073423 h -3.444287 z m -0.774731,-1.110759 h 1.185432 v 3.83632 h -1.185432 z m 0.04667,4.013668 h 1.194766 v 4.751062 h -1.194766 z m 0.998749,2.006833 0.588049,-0.868072 q 0.345362,0.121344 0.765397,0.289358 0.429369,0.168014 0.868073,0.345362 0.438703,0.168014 0.821401,0.336028 0.392033,0.168014 0.672056,0.298691 l -0.634719,1.008084 q -0.252021,-0.140012 -0.63472,-0.31736 -0.373364,-0.186682 -0.802733,-0.373364 -0.420035,-0.196016 -0.849404,-0.382699 -0.429369,-0.186682 -0.7934,-0.336028 z"
       id="text3"
       aria-label="票 卡" />
    <path
       style="fill:none;stroke:#000000;stroke-width:0.7;stroke-linecap:butt;stroke-linejoin:miter;stroke-opacity:1;stroke-dasharray:none"
       d="M 95.429315,24.338566 82.208641,17.757435"
       id="path4" />
    <path
       id="path5"
       style="fill:#ffd49a;fill-opacity:1;stroke:#000000;stroke-width:0.8;stroke-linecap:butt;stroke-linejoin:miter;stroke-opacity:1;stroke-dasharray:none"
       d="M 82.261129 6.9427287 L 65.12419 25.698173 C 61.936295 33.440204 68.507113 35.457053 71.890186 30.772799 L 98.629639 11.05979 L 98.698368 10.969873 C 97.80374 8.6111235 95.527962 6.9427287 92.848079 6.9427287 L 82.261129 6.9427287 z " />
    <rect
       style="fill:none;fill-opacity:1;stroke:#ffffff;stroke-width:1.381;paint-order:fill markers stroke"
       id="rect1-8"
       width="92.375465"
       height="52.260223"
       x="6.7289338"
       y="6.9428048"
       ry="6.2565036" />
    <path
       style="fill:#ffe9cb;stroke:#000000;stroke-width:0.264583px;stroke-linecap:butt;stroke-linejoin:miter;stroke-opacity:1;fill-opacity:1"
       d="m 65.644611,26.218809 c 0,0 -1.370532,5.24176 0.455413,6.050494 2.852303,1.263321 6.245674,-2.992717 6.245674,-2.992717 -0.71565,-2.277068 -0.975888,-4.098722 -6.701087,-3.057777 z"
       id="path6"
       sodipodi:nodetypes="cscc" />
    <path
       d="m 22.7739,10.251023 0.290635,-0.203954 q 0.13257,0.09178 0.285535,0.209052 0.158065,0.112175 0.254943,0.198856 l -0.300832,0.229448 Q 23.2175,10.597744 23.059436,10.475372 22.90647,10.347901 22.7739,10.251023 Z m -3.01342,0.377315 h 4.022992 v 0.402809 H 19.76048 Z m 0.433402,0.70874 h 1.850883 v 0.331425 h -1.850883 z m 3.023618,-0.04589 0.418106,0.117274 q -0.244745,0.61696 -0.642455,1.131944 -0.392612,0.514984 -0.856607,0.851508 -0.03059,-0.04589 -0.09178,-0.101977 -0.06119,-0.06119 -0.127472,-0.117273 -0.06119,-0.06119 -0.107075,-0.09688 0.458896,-0.300832 0.826013,-0.764827 0.372216,-0.463995 0.581269,-1.01977 z m -0.984078,-1.182933 h 0.458897 q -0.0051,0.540478 0.02549,1.065659 0.03569,0.520083 0.09688,0.999375 0.06119,0.474193 0.137669,0.877002 0.07648,0.39771 0.158064,0.693444 0.08668,0.295733 0.168262,0.458896 0.08668,0.163163 0.158065,0.163163 0.05609,0 0.09178,-0.21925 0.03569,-0.22435 0.04589,-0.688345 0.07138,0.07648 0.17336,0.147867 0.107076,0.07138 0.193757,0.107076 -0.03059,0.433402 -0.09688,0.673048 -0.06119,0.239646 -0.17846,0.331425 -0.112175,0.09688 -0.290635,0.09688 -0.178459,0 -0.331425,-0.188657 -0.147866,-0.188658 -0.275338,-0.530281 -0.122372,-0.341623 -0.21925,-0.790321 -0.09178,-0.453798 -0.163163,-0.97898 -0.06629,-0.525181 -0.107076,-1.091153 -0.03569,-0.565973 -0.04589,-1.126846 z m -2.70239,0.520083 h 0.4436 v 1.035066 q 0,0.326326 -0.0204,0.734234 -0.0153,0.407908 -0.07138,0.841311 -0.05099,0.428303 -0.152965,0.846409 -0.101977,0.413006 -0.270239,0.764827 -0.04079,-0.04079 -0.112175,-0.09178 -0.07138,-0.05099 -0.147867,-0.101977 -0.07138,-0.04589 -0.122372,-0.06628 0.158064,-0.331425 0.244745,-0.70874 0.09178,-0.377315 0.137669,-0.769927 0.04589,-0.39771 0.05609,-0.769926 0.0153,-0.372216 0.0153,-0.678147 z m 0.963682,2.758477 h 0.392612 v 0.912694 q 0,0.08668 0.02549,0.112175 0.03059,0.02549 0.13257,0.02549 0.0204,0 0.07648,0 0.05609,0 0.127471,0 0.07138,0 0.13257,0 0.06119,0 0.09178,0 0.06629,0 0.09688,-0.04079 0.03569,-0.04079 0.05099,-0.158064 0.0153,-0.122372 0.0204,-0.367117 0.06119,0.04589 0.158064,0.08668 0.101977,0.03569 0.17846,0.05609 -0.0153,0.300832 -0.06119,0.463995 -0.04589,0.168262 -0.142767,0.229448 -0.09178,0.06629 -0.254943,0.06629 -0.03059,0 -0.107076,0 -0.07138,0 -0.163163,0 -0.08668,0 -0.163163,0 -0.07138,0 -0.101977,0 -0.198855,0 -0.305931,-0.04079 -0.101977,-0.04079 -0.142768,-0.142768 -0.04079,-0.101977 -0.04079,-0.285536 z m 0.387513,-0.163163 0.300832,-0.137669 q 0.117274,0.173361 0.244745,0.387513 0.127471,0.209053 0.198855,0.356919 l -0.316129,0.163163 q -0.06119,-0.147866 -0.188657,-0.367117 -0.122373,-0.21925 -0.239646,-0.402809 z m 0.958584,0.305931 0.326326,-0.122372 q 0.08668,0.173361 0.173361,0.372216 0.08668,0.193756 0.163163,0.377315 0.08158,0.183558 0.127471,0.316128 l -0.35182,0.152966 q -0.04079,-0.137669 -0.117274,-0.326327 -0.07138,-0.188657 -0.158064,-0.392611 -0.08158,-0.203954 -0.163163,-0.377315 z m -1.759103,-0.07648 0.321227,0.101977 q -0.02549,0.17846 -0.06629,0.382414 -0.04079,0.198855 -0.09688,0.387513 -0.05099,0.188657 -0.122373,0.336524 l -0.321227,-0.163164 q 0.07138,-0.137668 0.122372,-0.311029 0.05609,-0.17846 0.09688,-0.372216 0.04079,-0.193757 0.06629,-0.362019 z m 0.596565,-1.157439 v 0.494589 h 0.892299 v -0.494589 z m -0.392612,-0.326326 h 1.667324 v 1.15234 h -1.667324 z m 6.363365,-0.09178 h 1.968156 v 0.254942 h -1.968156 z m 0,0.499687 h 1.983453 v 0.254942 h -1.983453 z m -0.147867,0.509885 h 2.330175 v 0.31103 h -2.330175 z m -0.652652,-1.998749 0.39771,0.122372 q -0.193756,0.392612 -0.474193,0.759729 -0.275338,0.367117 -0.560874,0.62206 -0.03059,-0.04079 -0.08668,-0.09688 -0.05609,-0.06119 -0.117274,-0.117273 -0.05609,-0.06119 -0.101977,-0.09688 0.280437,-0.219251 0.530281,-0.53538 0.254942,-0.321227 0.413007,-0.657751 z m 0.826013,-0.0102 0.397711,0.112175 q -0.158065,0.367117 -0.392612,0.718938 -0.234547,0.346721 -0.474193,0.591466 -0.03569,-0.04079 -0.09688,-0.09178 -0.06119,-0.05099 -0.122372,-0.09688 -0.06119,-0.05099 -0.112175,-0.08158 0.239646,-0.214151 0.453797,-0.520082 0.214152,-0.31103 0.346722,-0.632258 z m 0.84131,0.601664 h 0.407908 v 1.524556 H 27.51583 Z m -1.376689,2.156814 h 0.438501 v 0.647554 q 0,0.08668 0.04079,0.112174 0.04589,0.0204 0.193756,0.0204 0.03059,0 0.117274,0 0.09178,0 0.193756,0 0.107076,0 0.198855,0 0.09688,0 0.137669,0 0.08158,0 0.122373,-0.02549 0.04079,-0.0255 0.05609,-0.112175 0.0204,-0.09178 0.03059,-0.275338 0.06629,0.05099 0.183559,0.09688 0.117273,0.04079 0.203954,0.06119 -0.0204,0.260042 -0.07648,0.397711 -0.05609,0.142767 -0.173361,0.193756 -0.112175,0.05609 -0.295733,0.05609 -0.03059,0 -0.107076,0 -0.07648,0 -0.173361,0 -0.09688,0 -0.193756,0 -0.09688,0 -0.173361,0 -0.07648,0 -0.107076,0 -0.249844,0 -0.382414,-0.04589 -0.13257,-0.04589 -0.183558,-0.163164 -0.05099,-0.112174 -0.05099,-0.311029 z m 0.448699,-0.142768 0.280437,-0.260041 q 0.142767,0.06628 0.300832,0.152965 0.158064,0.08668 0.295733,0.17846 0.142768,0.08668 0.234547,0.173361 l -0.290634,0.290634 q -0.08668,-0.08668 -0.22435,-0.183558 -0.13257,-0.09688 -0.290634,-0.188658 -0.158065,-0.09178 -0.305931,-0.163163 z m 1.279811,0.229448 0.351821,-0.173361 q 0.147866,0.142768 0.285535,0.316129 0.142768,0.173361 0.254943,0.346722 0.117273,0.168262 0.173361,0.31103 l -0.382414,0.198855 q -0.05609,-0.142768 -0.168262,-0.316129 -0.107076,-0.173361 -0.244745,-0.35182 -0.13257,-0.183559 -0.270239,-0.331426 z m -2.365866,-0.117273 0.392611,0.137669 q -0.08668,0.270239 -0.224349,0.540478 -0.137669,0.26514 -0.35692,0.453797 L 24.94601,14.498364 q 0.198855,-0.158064 0.336524,-0.402809 0.142768,-0.244744 0.219251,-0.489489 z m 1.254317,-2.258791 h 2.003848 v 0.300832 h -2.218 z m -0.35692,0.351821 0.40281,-0.331425 v 1.978353 h -0.40281 z M 24.838934,10.48557 h 4.073981 v 0.402809 h -4.073981 z m -0.26514,0 h 0.4436 v 1.524556 q 0,0.305931 -0.0204,0.673048 -0.0153,0.362018 -0.06629,0.749531 -0.04589,0.382414 -0.142768,0.749531 -0.09178,0.362018 -0.244745,0.66285 -0.03569,-0.04079 -0.107076,-0.09688 -0.06629,-0.05609 -0.142768,-0.112175 -0.07138,-0.05099 -0.122372,-0.07138 0.142768,-0.275338 0.224349,-0.601665 0.08158,-0.326326 0.117274,-0.667949 0.04079,-0.346722 0.05099,-0.673048 0.0102,-0.331425 0.0102,-0.611862 z m 0.953485,1.269613 0.407908,-0.39771 0.0051,0.0051 v 1.988551 h -0.413007 z m 0.856607,-1.611236 0.423204,-0.13257 q 0.107076,0.142767 0.203954,0.316128 0.101977,0.173361 0.142768,0.305931 l -0.4436,0.158065 q -0.04079,-0.137669 -0.137669,-0.316129 -0.09178,-0.183559 -0.188657,-0.331425 z m 0.958584,0.861705 0.341623,-0.137669 q 0.09178,0.09688 0.17336,0.214152 0.08158,0.117274 0.127472,0.209053 l -0.35692,0.163163 q -0.04079,-0.09688 -0.122372,-0.224349 -0.07648,-0.127471 -0.163163,-0.22435 z m 4.094376,0.362019 v 0.514984 h 1.024869 v -0.514984 z m -0.448699,-0.331426 h 1.95286 v 1.172736 h -1.95286 z m -0.142768,1.804993 v 0.66795 h 0.550676 v -0.66795 z M 30.44257,12.504714 h 1.371591 v 1.340998 H 30.44257 Z m 2.070133,0.336524 v 0.66795 h 0.586368 v -0.66795 z m -0.402809,-0.336524 h 1.412382 v 1.340998 h -1.412382 z m -2.671797,-2.187406 h 4.323824 v 0.428303 h -4.323824 z m 0.203954,0.02039 h 0.474193 v 3.222473 q 0,0.22435 0.06629,0.362018 0.06629,0.132571 0.224349,0.193757 0.158065,0.06119 0.428304,0.06119 0.08158,0 0.249843,0 0.168262,0 0.382414,0 0.219251,0 0.453798,0 0.239646,0 0.463995,0 0.224349,0 0.39771,0 0.17846,0 0.270239,0 0.147867,0 0.316129,-0.0051 0.168262,-0.0102 0.321228,-0.0204 0.158064,-0.0153 0.254942,-0.03059 0.0102,0.05609 0.02039,0.147866 0.0102,0.08668 0.0255,0.168262 0.0153,0.08158 0.02549,0.137669 -0.08158,0.0204 -0.234547,0.03059 -0.152966,0.0153 -0.351821,0.0153 -0.193756,0.0051 -0.392611,0.0051 -0.09178,0 -0.270239,0 -0.17846,0 -0.407908,0 -0.22435,0 -0.463996,0 -0.234547,0 -0.448698,0 -0.214152,0 -0.367118,0 -0.147866,0 -0.198855,0 -0.418105,0 -0.693443,-0.101977 -0.275338,-0.09688 -0.413007,-0.336524 -0.13257,-0.244745 -0.13257,-0.657752 z"
       id="text6"
       style="font-weight:500;font-size:5.09885px;line-height:1;font-family:'Noto Sans TC';-inkscape-font-specification:'Noto Sans TC Medium';stroke-width:0.127472"
       aria-label="感應區" />
    <path
       d="m 19.744607,17.435221 q 0.02087,0.150546 0.08198,0.225074 0.111792,0.135641 0.383073,0.135641 0.162471,0 0.263829,-0.03577 0.192282,-0.06856 0.192282,-0.254885 0,-0.10881 -0.0954,-0.168433 -0.0954,-0.05813 -0.299602,-0.102848 l -0.232527,-0.05217 q -0.342828,-0.07751 -0.473997,-0.168432 -0.222093,-0.152037 -0.222093,-0.475488 0,-0.29513 0.21464,-0.490393 0.214641,-0.195263 0.630506,-0.195263 0.3473,0 0.591751,0.184829 0.245942,0.183338 0.257866,0.533619 h -0.441205 q -0.01192,-0.198244 -0.172904,-0.281715 -0.10732,-0.05515 -0.26681,-0.05515 -0.177376,0 -0.283206,0.07155 -0.105829,0.07155 -0.105829,0.199735 0,0.117754 0.104339,0.175885 0.06708,0.03875 0.286187,0.09092 l 0.378601,0.09092 q 0.248923,0.05962 0.37562,0.15949 0.196754,0.155018 0.196754,0.448657 0,0.301093 -0.231036,0.500827 -0.229546,0.198244 -0.649883,0.198244 -0.42928,0 -0.675222,-0.195262 -0.245942,-0.196754 -0.245942,-0.539582 z m 0.445676,-1.585952 z m 1.864686,0.946503 q -0.147565,0 -0.229545,0.09241 -0.08049,0.09241 -0.101358,0.250413 h 0.660316 q -0.01043,-0.168433 -0.102848,-0.254885 -0.09092,-0.08794 -0.226565,-0.08794 z m 0,-0.350281 q 0.202716,0 0.365187,0.07602 0.16247,0.07602 0.2683,0.239979 0.0954,0.144584 0.123716,0.335376 0.0164,0.111791 0.01341,0.32196 h -1.111955 q 0.0089,0.244451 0.153527,0.342828 0.08794,0.06111 0.211659,0.06111 0.131169,0 0.21315,-0.07453 0.04472,-0.04025 0.079,-0.111792 h 0.433752 q -0.0164,0.144584 -0.150546,0.29364 -0.208678,0.236998 -0.584298,0.236998 -0.310036,0 -0.547034,-0.199734 -0.236999,-0.199735 -0.236999,-0.649883 0,-0.421827 0.21315,-0.646902 0.21464,-0.225074 0.555977,-0.225074 z m 0.02981,0 z m 1.92729,0.0045 q 0.251904,0 0.411394,0.13266 0.16098,0.131169 0.16098,0.436733 v 1.094068 h -0.435243 v -0.988239 q 0,-0.128188 -0.03428,-0.196753 -0.0626,-0.125207 -0.23849,-0.125207 -0.21613,0 -0.29662,0.183338 -0.04174,0.09689 -0.04174,0.247433 v 0.879428 h -0.423318 v -1.621725 h 0.409903 v 0.236998 q 0.08198,-0.125207 0.155018,-0.180357 0.131169,-0.09838 0.332394,-0.09838 z m -0.156508,-0.0045 z m 1.451802,1.14922 q 0.01342,0.113282 0.05813,0.16098 0.079,0.08496 0.292149,0.08496 0.125207,0 0.198244,-0.03726 0.07453,-0.03726 0.07453,-0.111792 0,-0.07155 -0.05962,-0.108811 -0.05962,-0.03726 -0.442695,-0.128188 -0.275753,-0.06856 -0.389035,-0.171414 -0.113283,-0.101358 -0.113283,-0.292149 0,-0.225074 0.175886,-0.386054 0.177376,-0.162471 0.497846,-0.162471 0.304074,0 0.494865,0.122226 0.192282,0.120735 0.220602,0.418846 h -0.424808 q -0.0089,-0.08198 -0.04621,-0.129678 -0.07006,-0.08645 -0.238489,-0.08645 -0.138621,0 -0.198244,0.04323 -0.05813,0.04323 -0.05813,0.101358 0,0.07304 0.0626,0.105829 0.0626,0.03428 0.442695,0.117754 0.253395,0.05962 0.380092,0.180358 0.125207,0.122225 0.125207,0.305564 0,0.24147 -0.180357,0.394997 -0.178867,0.152037 -0.554487,0.152037 -0.383074,0 -0.566412,-0.16098 -0.181848,-0.162471 -0.181848,-0.412884 z m 0.324941,-1.14922 z m 1.770781,1.368331 q 0.18632,0 0.286187,-0.132659 0.09987,-0.13266 0.09987,-0.377111 0,-0.244451 -0.09987,-0.37562 -0.09987,-0.13266 -0.286187,-0.13266 -0.186319,0 -0.287677,0.13266 -0.09987,0.131169 -0.09987,0.37562 0,0.244451 0.09987,0.377111 0.101358,0.132659 0.287677,0.132659 z m 0.831731,-0.50977 q 0,0.357734 -0.205697,0.612619 -0.205697,0.253394 -0.624543,0.253394 -0.418846,0 -0.624543,-0.253394 -0.205697,-0.254885 -0.205697,-0.612619 0,-0.351771 0.205697,-0.609638 0.205697,-0.257866 0.624543,-0.257866 0.418846,0 0.624543,0.257866 0.205697,0.257867 0.205697,0.609638 z m -0.83024,-0.858561 z m 2.016723,0.0045 q 0.01193,0 0.01938,0.0015 0.0089,0 0.03726,0.0015 v 0.435243 q -0.04025,-0.0045 -0.07155,-0.006 -0.0313,-0.0015 -0.05068,-0.0015 -0.256376,0 -0.344319,0.166942 -0.04919,0.0939 -0.04919,0.289168 v 0.77658 h -0.42779 v -1.624706 h 0.405432 v 0.283205 q 0.09838,-0.16247 0.171414,-0.222093 0.119244,-0.09987 0.310035,-0.09987 z m 1.032956,1.275917 1.134314,-1.420501 h -1.105993 v -0.389035 h 1.678366 v 0.368167 l -1.149219,1.441369 h 1.152201 v 0.387544 h -1.709669 z m 0.867504,-1.809536 z m 1.846799,1.897478 q 0.18632,0 0.286187,-0.132659 0.09987,-0.13266 0.09987,-0.377111 0,-0.244451 -0.09987,-0.37562 -0.09987,-0.13266 -0.286187,-0.13266 -0.186319,0 -0.287677,0.13266 -0.09987,0.131169 -0.09987,0.37562 0,0.244451 0.09987,0.377111 0.101358,0.132659 0.287677,0.132659 z m 0.831731,-0.50977 q 0,0.357734 -0.205697,0.612619 -0.205697,0.253394 -0.624543,0.253394 -0.418846,0 -0.624543,-0.253394 -0.205697,-0.254885 -0.205697,-0.612619 0,-0.351771 0.205697,-0.609638 0.205697,-0.257866 0.624543,-0.257866 0.418846,0 0.624543,0.257866 0.205697,0.257867 0.205697,0.609638 z m -0.83024,-0.858561 z m 2.03461,0.0045 q 0.251904,0 0.411394,0.13266 0.16098,0.131169 0.16098,0.436733 v 1.094068 h -0.435242 v -0.988239 q 0,-0.128188 -0.03428,-0.196753 -0.0626,-0.125207 -0.238489,-0.125207 -0.216131,0 -0.296621,0.183338 -0.04174,0.09689 -0.04174,0.247433 v 0.879428 h -0.423318 v -1.621725 h 0.409903 v 0.236998 q 0.08198,-0.125207 0.155018,-0.180357 0.131169,-0.09838 0.332394,-0.09838 z m -0.156508,-0.0045 z m 1.761838,0.350281 q -0.147566,0 -0.229546,0.09241 -0.08049,0.09241 -0.101358,0.250413 h 0.660317 q -0.01043,-0.168433 -0.102849,-0.254885 -0.09092,-0.08794 -0.226564,-0.08794 z m 0,-0.350281 q 0.202715,0 0.365186,0.07602 0.162471,0.07602 0.2683,0.239979 0.0954,0.144584 0.123716,0.335376 0.0164,0.111791 0.01342,0.32196 h -1.111955 q 0.0089,0.244451 0.153527,0.342828 0.08794,0.06111 0.211659,0.06111 0.131169,0 0.21315,-0.07453 0.04472,-0.04025 0.079,-0.111792 h 0.433751 q -0.0164,0.144584 -0.150546,0.29364 -0.208678,0.236998 -0.584298,0.236998 -0.310036,0 -0.547034,-0.199734 -0.236999,-0.199735 -0.236999,-0.649883 0,-0.421827 0.21315,-0.646902 0.21464,-0.225074 0.555978,-0.225074 z m 0.02981,0 z"
       id="text7"
       style="font-weight:bold;font-size:3.05266px;line-height:1;font-family:Helvetica;-inkscape-font-specification:'Helvetica Bold';stroke-width:0.0763166"
       aria-label="Sensor Zone" />
    <path
       style="fill:none;stroke:#000000;stroke-width:0.7;stroke-linecap:butt;stroke-linejoin:miter;stroke-opacity:1;stroke-dasharray:none"
       d="M 76.371116,13.389024 74.037234,9.3685076"
       id="path7" />
  </g>
</svg>
