<?xml version="1.0" encoding="UTF-8" standalone="no"?>
<!-- Created with Inkscape (http://www.inkscape.org/) -->

<svg
   width="280"
   height="80"
   viewBox="0 0 74.083323 21.166666"
   version="1.1"
   id="svg1"
   sodipodi:docname="success_add.svg"
   inkscape:version="1.4.2 (f4327f4, 2025-05-13)"
   xmlns:inkscape="http://www.inkscape.org/namespaces/inkscape"
   xmlns:sodipodi="http://sodipodi.sourceforge.net/DTD/sodipodi-0.dtd"
   xmlns="http://www.w3.org/2000/svg"
   xmlns:svg="http://www.w3.org/2000/svg">
  <sodipodi:namedview
     id="namedview1"
     pagecolor="#ffffff"
     bordercolor="#ffffff"
     borderopacity="1"
     inkscape:showpageshadow="0"
     inkscape:pageopacity="0"
     inkscape:pagecheckerboard="1"
     inkscape:deskcolor="#d1d1d1"
     inkscape:document-units="mm"
     inkscape:zoom="2.0208096"
     inkscape:cx="107.3827"
     inkscape:cy="3.2165326"
     inkscape:window-width="1920"
     inkscape:window-height="1111"
     inkscape:window-x="-9"
     inkscape:window-y="-9"
     inkscape:window-maximized="1"
     inkscape:current-layer="layer1" />
  <defs
     id="defs1">
    <clipPath
       id="clip_0">
      <path
         transform="matrix(1,0,0,-1,0,841.92)"
         d="M 8.871e-6,0 H 595.32 V 841.92 H 8.871e-6 Z"
         fill-rule="evenodd"
         id="path1" />
    </clipPath>
    <clipPath
       id="clip_2">
      <path
         transform="matrix(1,0,0,-1,0,841.92)"
         d="M 8.871e-6,0 H 595.32 V 841.92 H 8.871e-6 Z"
         fill-rule="evenodd"
         id="path2" />
    </clipPath>
    <clipPath
       id="clip_3">
      <path
         transform="matrix(1,0,0,-1,0,841.92)"
         d="M 8.871e-6,0 H 595.32 V 841.92 H 8.871e-6 Z"
         fill-rule="evenodd"
         id="path3" />
    </clipPath>
    <clipPath
       id="clip_4">
      <path
         transform="matrix(1,0,0,-1,0,841.92)"
         d="M 8.871e-6,0 H 595.32 V 841.92 H 8.871e-6 Z"
         fill-rule="evenodd"
         id="path4" />
    </clipPath>
    <clipPath
       id="clip_5">
      <path
         transform="matrix(1,0,0,-1,0,841.92)"
         d="M 8.871e-6,0 H 595.32 V 841.92 H 8.871e-6 Z"
         fill-rule="evenodd"
         id="path5" />
    </clipPath>
    <clipPath
       id="clip_14">
      <path
         transform="matrix(1,0,0,-1,0,841.92)"
         d="M 8.871e-6,0 H 595.32 V 841.92 H 8.871e-6 Z"
         fill-rule="evenodd"
         id="path12" />
    </clipPath>
    <clipPath
       id="clip_7">
      <path
         transform="matrix(1,0,0,-1,0,841.92)"
         d="M 8.871e-6,0 H 595.32 V 841.92 H 8.871e-6 Z"
         fill-rule="evenodd"
         id="path6" />
    </clipPath>
    <clipPath
       id="clip_23">
      <path
         transform="matrix(1,0,0,-1,0,841.92)"
         d="M 8.871e-6,0 H 595.32 V 841.92 H 8.871e-6 Z"
         fill-rule="evenodd"
         id="path19" />
    </clipPath>
    <clipPath
       id="clip_10">
      <path
         transform="matrix(1,0,0,-1,0,841.92)"
         d="M 8.871e-6,0 H 595.32 V 841.92 H 8.871e-6 Z"
         fill-rule="evenodd"
         id="path8" />
    </clipPath>
    <clipPath
       id="clip_25">
      <path
         transform="matrix(1,0,0,-1,0,841.92)"
         d="M 8.871e-6,0 H 595.32 V 841.92 H 8.871e-6 Z"
         fill-rule="evenodd"
         id="path21" />
    </clipPath>
    <clipPath
       id="clip_12">
      <path
         transform="matrix(1,0,0,-1,0,841.92)"
         d="M 8.871e-6,0 H 595.32 V 841.92 H 8.871e-6 Z"
         fill-rule="evenodd"
         id="path10" />
    </clipPath>
    <clipPath
       id="clip_20">
      <path
         transform="matrix(1,0,0,-1,0,841.92)"
         d="M 8.871e-6,0 H 595.32 V 841.92 H 8.871e-6 Z"
         fill-rule="evenodd"
         id="path16" />
    </clipPath>
    <clipPath
       id="clip_18">
      <path
         transform="matrix(1,0,0,-1,0,841.92)"
         d="M 8.871e-6,0 H 595.32 V 841.92 H 8.871e-6 Z"
         fill-rule="evenodd"
         id="path14" />
    </clipPath>
    <clipPath
       id="clip_21">
      <path
         transform="matrix(1,0,0,-1,0,841.92)"
         d="M 8.871e-6,0 H 595.32 V 841.92 H 8.871e-6 Z"
         fill-rule="evenodd"
         id="path17" />
    </clipPath>
  </defs>
  <g
     inkscape:label="Layer 1"
     inkscape:groupmode="layer"
     id="layer1">
    <path
       style="font-size:12.2353px;line-height:1;font-family:'Noto Sans TC';-inkscape-font-specification:'Noto Sans TC';fill:#282472;stroke-width:0.305882"
       d="M 8.1416781,11.10698 H 11.46968 v 0.880942 H 8.1416781 Z M 1.3877925,4.1328593 H 6.098383 V 5.0382715 H 1.3877925 Z M 7.7379132,3.3375648 H 11.910151 V 12.795452 H 10.992503 V 4.2307417 H 8.6188548 V 12.893334 H 7.7379132 Z M 5.853677,4.1328593 h 0.8809416 q 0,0 0,0.097882 0,0.085647 0,0.2080001 0,0.1101177 0,0.1712942 -0.036706,2.0432951 -0.073412,3.4381193 -0.036706,1.3948242 -0.097882,2.2880007 -0.061177,0.880942 -0.1590589,1.358119 -0.085647,0.477176 -0.2324707,0.672941 -0.1712942,0.232471 -0.3548237,0.330353 -0.1835295,0.110118 -0.4527061,0.146824 -0.2569413,0.03671 -0.6607062,0.02447 -0.3915296,0 -0.7952945,-0.02447 -0.012235,-0.208 -0.085647,-0.464941 -0.061176,-0.256942 -0.1835295,-0.452707 0.4282355,0.03671 0.7952945,0.04894 0.367059,0 0.5261179,0 0.1345883,0.01223 0.2324707,-0.02447 0.097882,-0.04894 0.1835295,-0.171294 0.097882,-0.134588 0.1712942,-0.575059 0.073412,-0.452706 0.1345883,-1.3091774 0.061177,-0.856471 0.097882,-2.2145893 0.036706,-1.3703536 0.073412,-3.3280016 z M 3.1252051,1.9794465 H 4.0306173 Q 4.018382,3.6801532 3.9694408,5.2952128 3.9204996,6.9102724 3.7124995,8.3540378 3.5167347,9.7978032 3.0517933,11.009098 2.5990872,12.208157 1.7915574,13.089099 1.7181456,12.978981 1.5957926,12.856628 1.4734396,12.746511 1.3388513,12.636393 1.204263,12.526275 1.08191,12.452863 1.693675,11.816628 2.0729693,10.960157 2.4644989,10.103686 2.6847343,9.0881558 2.9049697,8.0603906 2.9906168,6.9102724 3.0884992,5.7479189 3.1007345,4.5121536 3.1252051,3.264153 3.1252051,1.9794465 Z M 17.000035,3.0683882 h 7.328945 v 0.8197651 h -7.328945 z m -0.526118,8.8583568 h 8.222122 v 0.795295 h -8.222122 z m 1.174589,-6.9007088 h 5.958591 V 12.146981 H 22.750626 V 5.7479189 h -4.270119 v 6.3990621 h -0.832001 z m 0.575059,1.7496479 h 4.722826 v 0.6851768 h -4.722826 z m -0.01224,1.7374126 h 4.918591 V 9.1738029 H 18.21133 Z m 0,1.7251773 h 4.759532 v 0.672942 H 18.21133 Z m 2.092236,-8.4178864 0.978824,0.061176 q -0.09788,0.5750591 -0.23247,1.22353 -0.134589,0.6362356 -0.269177,1.22353 -0.134588,0.5750591 -0.269177,1.0032946 l -0.795294,-0.085647 q 0.110118,-0.4404708 0.220235,-1.0522358 0.122353,-0.611765 0.220236,-1.2357653 0.09788,-0.6240003 0.146823,-1.1378829 z m -4.098825,0.012235 0.844236,0.2691766 Q 16.669682,3.1295647 16.168035,4.1450946 15.678623,5.1483892 15.091329,6.0415661 14.504034,6.934743 13.880034,7.6321551 13.831093,7.5220374 13.73321,7.3507432 13.647563,7.179449 13.549681,7.0081548 13.451798,6.8246253 13.366151,6.7145076 13.928975,6.1149779 14.455093,5.3319187 14.981211,4.5488595 15.433917,3.6556826 15.886623,2.7625057 16.204741,1.8326229 Z m -1.284707,3.2056486 0.844236,-0.8687063 0.01224,0.012235 v 8.8950635 h -0.856471 z m 13.238595,0.4404708 h 6.32565 v 0.8687063 h -6.32565 z m -1.566118,2.5327071 h 9.482357 v 0.8442357 h -9.482357 z m -0.550589,3.8663546 h 10.59577 v 0.844236 h -10.59577 z m 4.771767,-6.0075321 h 0.966589 V 12.293804 H 30.813689 Z M 27.632511,9.4307442 28.3911,9.137097 q 0.23247,0.3303531 0.464941,0.734118 0.232471,0.403765 0.416,0.783059 0.195765,0.379295 0.293648,0.685177 l -0.795295,0.342588 q -0.08565,-0.293647 -0.269177,-0.685176 -0.183529,-0.39153 -0.416,-0.80753 -0.220235,-0.4160004 -0.452706,-0.7585888 z m 6.545886,-0.3058825 0.868706,0.3425884 q -0.342588,0.5750589 -0.734118,1.1990599 -0.39153,0.611765 -0.721883,1.027765 L 32.89369,11.400628 q 0.220236,-0.305883 0.452706,-0.697413 0.232471,-0.403764 0.452706,-0.8197647 0.220236,-0.4160002 0.379295,-0.7585886 z M 31.682395,2.3342702 q 0.440471,0.5138826 1.064472,1.0277652 0.624,0.5016473 1.345883,0.9543534 0.734118,0.4404708 1.504941,0.8075298 0.770824,0.3548237 1.504942,0.5872944 -0.110117,0.097882 -0.23247,0.244706 Q 36.74781,6.0905073 36.637692,6.2373309 36.527574,6.3841545 36.454162,6.5065075 35.720044,6.2373309 34.949221,5.833566 34.190632,5.4298011 33.444279,4.9281538 32.710161,4.4265065 32.06169,3.8636827 31.413219,3.3008589 30.923807,2.7135645 Z M 31.315336,1.7102699 32.171807,2.0895642 Q 31.511101,3.0928588 30.568983,3.9493298 29.6391,4.7935655 28.525688,5.4542717 27.412276,6.1149779 26.213216,6.5554487 26.103099,6.3474486 25.931804,6.1149779 25.76051,5.8702719 25.576981,5.711213 26.739334,5.3319187 27.828276,4.7446243 28.917218,4.1573299 29.82263,3.386506 30.740277,2.6156821 31.315336,1.7102699 Z m 6.888476,1.2847065 h 5.175532 V 5.0627421 H 42.645226 V 3.753565 h -3.744002 v 1.3091771 h -0.697412 z m 0.746354,6.3011795 h 3.829649 V 13.015687 H 41.947814 V 10.042509 H 39.74546 v 2.985413 h -0.795294 z m 0.305882,2.5938841 h 3.230119 v 0.746353 H 39.256048 Z M 39.95346,4.1695652 40.699814,4.3041535 Q 40.406166,5.1116833 39.904519,5.8825072 39.402872,6.6410958 38.607577,7.2528608 38.52193,7.0938019 38.375106,6.9102724 38.240518,6.7267429 38.118165,6.6410958 38.840048,6.1272132 39.292754,5.466507 39.74546,4.8058008 39.95346,4.1695652 Z m 0.08565,0.8442357 h 2.190119 v 0.7218827 h -2.496001 z m 1.994354,0 h 0.159059 l 0.146824,-0.036706 0.464941,0.3425884 q -0.416,1.101177 -1.125647,1.957648 -0.709648,0.8442357 -1.578354,1.4560007 -0.856471,0.5995297 -1.774119,0.978824 -0.04894,-0.1101177 -0.134588,-0.2569413 -0.08565,-0.1468236 -0.171294,-0.2814119 -0.08565,-0.1345883 -0.171294,-0.2202354 0.893176,-0.3181178 1.712942,-0.856471 0.832,-0.5383532 1.480471,-1.2724712 0.648471,-0.734118 0.991059,-1.6517655 z M 40.075813,2.1017995 40.797696,1.8203876 q 0.171294,0.3425884 0.342588,0.7463533 0.18353,0.4037649 0.281412,0.6729415 L 40.638637,3.5700355 Q 40.565225,3.2886236 40.393931,2.8726234 40.222637,2.4443879 40.075813,2.1017995 Z M 43.758639,2.407682 H 49.1177 v 0.7952945 h -5.359061 z m 1.211294,4.6127081 V 8.158273 h 2.875296 V 7.0203901 Z m 0,1.835295 v 1.1745889 h 2.875296 V 8.8556851 Z m 0,-3.6950606 v 1.1256476 h 2.875296 V 5.1606245 Z m -0.832,-0.7585886 h 4.588237 v 6.3745911 h -4.588237 z m 1.896471,-1.6028243 0.868707,0.1590589 Q 46.768522,3.4599178 46.621699,3.9860357 46.48711,4.4999183 46.364757,4.8792126 L 45.667345,4.6956831 q 0.09788,-0.4037649 0.208,-0.9421181 0.110118,-0.5383532 0.159059,-0.9543534 z m -0.587294,8.1731804 0.624,0.575059 q -0.538353,0.428236 -1.248,0.856471 -0.697412,0.440471 -1.296942,0.734118 -0.07341,-0.146823 -0.195765,-0.354824 -0.122353,-0.195764 -0.220235,-0.330353 0.379294,-0.183529 0.819765,-0.428235 0.440471,-0.256941 0.844235,-0.526118 0.403765,-0.281412 0.672942,-0.526118 z m 1.248001,0.538353 0.489412,-0.587294 q 0.342588,0.220235 0.721882,0.489412 0.39153,0.269176 0.734118,0.550588 0.354824,0.269177 0.587295,0.501648 l -0.538354,0.648471 q -0.208,-0.232471 -0.550588,-0.526118 -0.342588,-0.281412 -0.721883,-0.562824 -0.379294,-0.293647 -0.721882,-0.513883 z M 39.304989,7.0448607 39.831107,6.4820369 q 0.428236,0.2569413 0.917648,0.5505885 0.489412,0.2814119 0.978824,0.5872944 0.489412,0.3058825 0.917647,0.5872944 0.440471,0.2691766 0.758589,0.489412 L 42.853226,9.3695677 Q 42.461697,9.0636852 41.849932,8.6599203 41.238167,8.2561554 40.565225,7.8279199 39.904519,7.3996844 39.304989,7.0448607 Z M 68.03347,5.4420364 q -0.367059,0 -0.648471,-0.244706 -0.281412,-0.2569413 -0.281412,-0.6729415 0,-0.4160002 0.281412,-0.6607062 0.281412,-0.2569413 0.648471,-0.2569413 0.367059,0 0.648471,0.2569413 0.281412,0.244706 0.281412,0.6607062 0,0.4160002 -0.281412,0.6729415 -0.281412,0.244706 -0.648471,0.244706 z m 0,5.9952966 q -0.367059,0 -0.648471,-0.244706 -0.281412,-0.256941 -0.281412,-0.672941 0,-0.428236 0.281412,-0.6729416 0.281412,-0.2569413 0.648471,-0.2569413 0.367059,0 0.648471,0.2569413 0.281412,0.2447056 0.281412,0.6729416 0,0.416 -0.281412,0.672941 -0.281412,0.244706 -0.648471,0.244706 z"
       id="text3"
       aria-label="加值金額　：" />
    <path
       style="font-weight:bold;font-size:6.36824px;line-height:1;font-family:Helvetica;-inkscape-font-specification:'Helvetica Bold';fill:#282473;stroke-width:0.159207"
       d="M 2.9484604,17.568239 H 4.1114105 L 3.5392639,15.764734 Z m 0.05908,-2.851404 H 4.089644 l 1.6231549,4.583391 H 4.6742285 L 4.3788268,18.35805 H 2.6903726 L 2.3732044,19.300226 H 1.3719479 Z m 0.5348326,0 z m 3.9303981,1.113198 q 0.3078398,0 0.5472707,0.136818 0.2394309,0.133708 0.3886865,0.373139 v -1.616936 h 0.8986432 v 4.577172 H 8.4460426 v -0.469533 q -0.189679,0.301621 -0.4322194,0.438438 -0.2425404,0.136818 -0.6032415,0.136818 -0.593913,0 -1.0012565,-0.478862 -0.4042339,-0.481971 -0.4042339,-1.234468 0,-0.867549 0.398015,-1.365067 0.4011244,-0.497519 1.0696652,-0.497519 z m 0.1927886,2.829638 q 0.3762485,0 0.5721465,-0.279854 0.195898,-0.279855 0.195898,-0.724512 0,-0.621899 -0.3140587,-0.889315 -0.1927885,-0.161693 -0.4477669,-0.161693 -0.3886865,0 -0.5721465,0.295401 -0.1803506,0.292293 -0.1803506,0.727621 0,0.469534 0.1834601,0.752498 0.1865695,0.279854 0.5628181,0.279854 z m 3.6971859,-2.829638 q 0.30784,0 0.547271,0.136818 0.239431,0.133708 0.388686,0.373139 v -1.616936 h 0.898643 v 4.577172 h -0.861329 v -0.469533 q -0.189679,0.301621 -0.432219,0.438438 -0.242541,0.136818 -0.603242,0.136818 -0.593913,0 -1.001256,-0.478862 -0.4042341,-0.481971 -0.4042341,-1.234468 0,-0.867549 0.3980151,-1.365067 0.401124,-0.497519 1.069665,-0.497519 z m 0.192789,2.829638 q 0.376248,0 0.572146,-0.279854 0.195898,-0.279855 0.195898,-0.724512 0,-0.621899 -0.314059,-0.889315 -0.192788,-0.161693 -0.447766,-0.161693 -0.388687,0 -0.572147,0.295401 -0.18035,0.292293 -0.18035,0.727621 0,0.469534 0.18346,0.752498 0.186569,0.279854 0.562818,0.279854 z m 3.784252,-2.108236 q -0.30784,0 -0.478862,0.192789 -0.167913,0.192788 -0.211446,0.522394 h 1.377505 q -0.02177,-0.351372 -0.214555,-0.531723 -0.189679,-0.18346 -0.472642,-0.18346 z m 0,-0.73073 q 0.42289,0 0.761825,0.158584 0.338935,0.158584 0.559709,0.500628 0.199007,0.301621 0.258088,0.699636 0.0342,0.233211 0.02798,0.67165 h -2.319681 q 0.01866,0.509957 0.320278,0.715183 0.18346,0.127489 0.441547,0.127489 0.273636,0 0.444658,-0.155474 0.09328,-0.08396 0.164803,-0.233212 h 0.904862 q -0.0342,0.30162 -0.314059,0.61257 -0.435329,0.494409 -1.218921,0.494409 -0.646774,0 -1.141183,-0.416672 -0.494409,-0.416672 -0.494409,-1.355739 0,-0.879986 0.444657,-1.349519 0.447767,-0.469533 1.159841,-0.469533 z m 0.06219,0 z m 3.392457,0.0093 q 0.307839,0 0.54727,0.136818 0.239431,0.133708 0.388687,0.373139 v -1.616936 h 0.898643 v 4.577172 h -0.861329 v -0.469533 q -0.189679,0.301621 -0.43222,0.438438 -0.24254,0.136818 -0.603241,0.136818 -0.593913,0 -1.001257,-0.478862 -0.404234,-0.481971 -0.404234,-1.234468 0,-0.867549 0.398015,-1.365067 0.401125,-0.497519 1.069666,-0.497519 z m 0.192788,2.829638 q 0.376249,0 0.572147,-0.279854 0.195898,-0.279855 0.195898,-0.724512 0,-0.621899 -0.314059,-0.889315 -0.192789,-0.161693 -0.447767,-0.161693 -0.388686,0 -0.572147,0.295401 -0.18035,0.292293 -0.18035,0.727621 0,0.469534 0.18346,0.752498 0.18657,0.279854 0.562818,0.279854 z m 5.307902,-1.091432 h 1.16295 l -0.572147,-1.803505 z m 0.05908,-2.851404 h 1.082104 l 1.623154,4.583391 h -1.03857 L 25.725489,18.35805 h -1.688454 l -0.317168,0.942176 H 22.71861 Z m 0.534833,0 z m 6.467745,1.119417 q 0.223883,0 0.441547,0.08707 0.217665,0.08707 0.394906,0.30473 0.143037,0.177241 0.192788,0.435329 0.0311,0.171022 0.0311,0.500628 l -0.0062,2.136221 h -0.907971 v -2.157987 q 0,-0.192789 -0.06219,-0.317169 -0.118161,-0.236321 -0.435329,-0.236321 -0.36692,0 -0.506847,0.30473 -0.07152,0.161694 -0.07152,0.388687 v 2.01806 h -0.892424 v -2.01806 q 0,-0.301621 -0.06219,-0.438439 -0.111941,-0.245649 -0.438438,-0.245649 -0.379358,0 -0.509957,0.245649 -0.07152,0.139928 -0.07152,0.416672 v 2.039827 h -0.898643 v -3.383127 h 0.861329 v 0.494409 q 0.164803,-0.264307 0.310949,-0.376249 0.258088,-0.199007 0.668541,-0.199007 0.388687,0 0.628117,0.171022 0.192789,0.158584 0.292293,0.407344 0.174131,-0.298512 0.432219,-0.438439 0.273635,-0.139927 0.609461,-0.139927 z m 3.395564,2.838966 q 0.388686,0 0.597022,-0.276745 0.208336,-0.276744 0.208336,-0.786701 0,-0.509957 -0.208336,-0.783592 -0.208336,-0.276745 -0.597022,-0.276745 -0.388687,0 -0.600132,0.276745 -0.208336,0.273635 -0.208336,0.783592 0,0.509957 0.208336,0.786701 0.211445,0.276745 0.600132,0.276745 z m 1.735096,-1.063446 q 0,0.746278 -0.429109,1.278001 -0.42911,0.528614 -1.302878,0.528614 -0.873767,0 -1.302877,-0.528614 -0.42911,-0.531723 -0.42911,-1.278001 0,-0.73384 0.42911,-1.271782 0.42911,-0.537942 1.302877,-0.537942 0.873768,0 1.302878,0.537942 0.429109,0.537942 0.429109,1.271782 z m -1.731987,-1.791067 z m 3.249421,0.09018 v 2.042936 q 0,0.289183 0.06841,0.435329 0.121271,0.258088 0.475753,0.258088 0.453985,0 0.621898,-0.36692 0.08707,-0.199008 0.08707,-0.525504 V 15.91088 h 0.898643 v 3.389346 h -0.861329 v -0.478862 q -0.01244,0.01555 -0.06219,0.09329 -0.04975,0.07774 -0.118161,0.136818 -0.208336,0.186569 -0.404234,0.254978 -0.192788,0.06841 -0.453986,0.06841 -0.752497,0 -1.013694,-0.541052 -0.146146,-0.298511 -0.146146,-0.879986 V 15.91088 Z m 0.621899,-0.09018 z m 4.263112,0.0093 q 0.525504,0 0.858219,0.276745 0.335826,0.273635 0.335826,0.911081 v 2.282367 h -0.907972 v -2.061593 q 0,-0.267416 -0.07152,-0.410453 -0.130599,-0.261197 -0.497519,-0.261197 -0.450876,0 -0.618789,0.382467 -0.08707,0.202117 -0.08707,0.516176 v 1.8346 h -0.883096 v -3.383127 h 0.855111 v 0.494409 q 0.171022,-0.261197 0.323387,-0.376249 0.273635,-0.205226 0.693417,-0.205226 z m -0.326497,-0.0093 z m 1.990077,0.752497 v -0.631227 h 0.472643 v -0.945286 h 0.876876 v 0.945286 h 0.55038 v 0.631227 h -0.55038 v 1.791067 q 0,0.208336 0.05286,0.261197 0.05286,0.04975 0.323387,0.04975 0.04042,0 0.08396,0 0.04664,-0.0031 0.09017,-0.0062 v 0.662322 l -0.419781,0.01555 q -0.628117,0.02177 -0.85822,-0.217665 -0.149255,-0.152365 -0.149255,-0.469533 v -2.086469 z"
       id="text4"
       aria-label="Added Amount" />
  </g>
</svg>
