<?xml version="1.0" encoding="UTF-8" standalone="no"?>
<!-- Created with Inkscape (http://www.inkscape.org/) -->

<svg
   width="280"
   height="80"
   viewBox="0 0 74.083323 21.166666"
   version="1.1"
   id="svg1"
   sodipodi:docname="success_current.svg"
   inkscape:version="1.4.2 (f4327f4, 2025-05-13)"
   xmlns:inkscape="http://www.inkscape.org/namespaces/inkscape"
   xmlns:sodipodi="http://sodipodi.sourceforge.net/DTD/sodipodi-0.dtd"
   xmlns="http://www.w3.org/2000/svg"
   xmlns:svg="http://www.w3.org/2000/svg">
  <sodipodi:namedview
     id="namedview1"
     pagecolor="#ffffff"
     bordercolor="#ffffff"
     borderopacity="1"
     inkscape:showpageshadow="0"
     inkscape:pageopacity="0"
     inkscape:pagecheckerboard="1"
     inkscape:deskcolor="#d1d1d1"
     inkscape:document-units="mm"
     inkscape:zoom="2.0208096"
     inkscape:cx="107.3827"
     inkscape:cy="3.2165326"
     inkscape:window-width="1920"
     inkscape:window-height="1111"
     inkscape:window-x="-9"
     inkscape:window-y="-9"
     inkscape:window-maximized="1"
     inkscape:current-layer="layer1" />
  <defs
     id="defs1">
    <clipPath
       id="clip_0">
      <path
         transform="matrix(1,0,0,-1,0,841.92)"
         d="M 8.871e-6,0 H 595.32 V 841.92 H 8.871e-6 Z"
         fill-rule="evenodd"
         id="path1" />
    </clipPath>
    <clipPath
       id="clip_2">
      <path
         transform="matrix(1,0,0,-1,0,841.92)"
         d="M 8.871e-6,0 H 595.32 V 841.92 H 8.871e-6 Z"
         fill-rule="evenodd"
         id="path2" />
    </clipPath>
    <clipPath
       id="clip_3">
      <path
         transform="matrix(1,0,0,-1,0,841.92)"
         d="M 8.871e-6,0 H 595.32 V 841.92 H 8.871e-6 Z"
         fill-rule="evenodd"
         id="path3" />
    </clipPath>
    <clipPath
       id="clip_4">
      <path
         transform="matrix(1,0,0,-1,0,841.92)"
         d="M 8.871e-6,0 H 595.32 V 841.92 H 8.871e-6 Z"
         fill-rule="evenodd"
         id="path4" />
    </clipPath>
    <clipPath
       id="clip_5">
      <path
         transform="matrix(1,0,0,-1,0,841.92)"
         d="M 8.871e-6,0 H 595.32 V 841.92 H 8.871e-6 Z"
         fill-rule="evenodd"
         id="path5" />
    </clipPath>
    <clipPath
       id="clip_14">
      <path
         transform="matrix(1,0,0,-1,0,841.92)"
         d="M 8.871e-6,0 H 595.32 V 841.92 H 8.871e-6 Z"
         fill-rule="evenodd"
         id="path12" />
    </clipPath>
    <clipPath
       id="clip_7">
      <path
         transform="matrix(1,0,0,-1,0,841.92)"
         d="M 8.871e-6,0 H 595.32 V 841.92 H 8.871e-6 Z"
         fill-rule="evenodd"
         id="path6" />
    </clipPath>
    <clipPath
       id="clip_23">
      <path
         transform="matrix(1,0,0,-1,0,841.92)"
         d="M 8.871e-6,0 H 595.32 V 841.92 H 8.871e-6 Z"
         fill-rule="evenodd"
         id="path19" />
    </clipPath>
    <clipPath
       id="clip_10">
      <path
         transform="matrix(1,0,0,-1,0,841.92)"
         d="M 8.871e-6,0 H 595.32 V 841.92 H 8.871e-6 Z"
         fill-rule="evenodd"
         id="path8" />
    </clipPath>
    <clipPath
       id="clip_25">
      <path
         transform="matrix(1,0,0,-1,0,841.92)"
         d="M 8.871e-6,0 H 595.32 V 841.92 H 8.871e-6 Z"
         fill-rule="evenodd"
         id="path21" />
    </clipPath>
    <clipPath
       id="clip_12">
      <path
         transform="matrix(1,0,0,-1,0,841.92)"
         d="M 8.871e-6,0 H 595.32 V 841.92 H 8.871e-6 Z"
         fill-rule="evenodd"
         id="path10" />
    </clipPath>
    <clipPath
       id="clip_20">
      <path
         transform="matrix(1,0,0,-1,0,841.92)"
         d="M 8.871e-6,0 H 595.32 V 841.92 H 8.871e-6 Z"
         fill-rule="evenodd"
         id="path16" />
    </clipPath>
    <clipPath
       id="clip_18">
      <path
         transform="matrix(1,0,0,-1,0,841.92)"
         d="M 8.871e-6,0 H 595.32 V 841.92 H 8.871e-6 Z"
         fill-rule="evenodd"
         id="path14" />
    </clipPath>
    <clipPath
       id="clip_21">
      <path
         transform="matrix(1,0,0,-1,0,841.92)"
         d="M 8.871e-6,0 H 595.32 V 841.92 H 8.871e-6 Z"
         fill-rule="evenodd"
         id="path17" />
    </clipPath>
  </defs>
  <g
     inkscape:label="Layer 1"
     inkscape:groupmode="layer"
     id="layer1">
    <path
       style="font-size:12.2353px;line-height:1;font-family:'Noto Sans TC';-inkscape-font-specification:'Noto Sans TC';fill:#282472;stroke-width:0.305882"
       d="M 8.1416781,11.10698 H 11.46968 v 0.880942 H 8.1416781 Z M 1.3877925,4.1328593 H 6.098383 V 5.0382715 H 1.3877925 Z M 7.7379132,3.3375648 H 11.910151 V 12.795452 H 10.992503 V 4.2307417 H 8.6188548 V 12.893334 H 7.7379132 Z M 5.853677,4.1328593 h 0.8809416 q 0,0 0,0.097882 0,0.085647 0,0.2080001 0,0.1101177 0,0.1712942 -0.036706,2.0432951 -0.073412,3.4381193 -0.036706,1.3948242 -0.097882,2.2880007 -0.061177,0.880942 -0.1590589,1.358119 -0.085647,0.477176 -0.2324707,0.672941 -0.1712942,0.232471 -0.3548237,0.330353 -0.1835295,0.110118 -0.4527061,0.146824 -0.2569413,0.03671 -0.6607062,0.02447 -0.3915296,0 -0.7952945,-0.02447 -0.012235,-0.208 -0.085647,-0.464941 -0.061176,-0.256942 -0.1835295,-0.452707 0.4282355,0.03671 0.7952945,0.04894 0.367059,0 0.5261179,0 0.1345883,0.01223 0.2324707,-0.02447 0.097882,-0.04894 0.1835295,-0.171294 0.097882,-0.134588 0.1712942,-0.575059 0.073412,-0.452706 0.1345883,-1.3091774 0.061177,-0.856471 0.097882,-2.2145893 0.036706,-1.3703536 0.073412,-3.3280016 z M 3.1252051,1.9794465 H 4.0306173 Q 4.018382,3.6801532 3.9694408,5.2952128 3.9204996,6.9102724 3.7124995,8.3540378 3.5167347,9.7978032 3.0517933,11.009098 2.5990872,12.208157 1.7915574,13.089099 1.7181456,12.978981 1.5957926,12.856628 1.4734396,12.746511 1.3388513,12.636393 1.204263,12.526275 1.08191,12.452863 1.693675,11.816628 2.0729693,10.960157 2.4644989,10.103686 2.6847343,9.0881558 2.9049697,8.0603906 2.9906168,6.9102724 3.0884992,5.7479189 3.1007345,4.5121536 3.1252051,3.264153 3.1252051,1.9794465 Z M 17.000035,3.0683882 h 7.328945 v 0.8197651 h -7.328945 z m -0.526118,8.8583568 h 8.222122 v 0.795295 h -8.222122 z m 1.174589,-6.9007088 h 5.958591 V 12.146981 H 22.750626 V 5.7479189 h -4.270119 v 6.3990621 h -0.832001 z m 0.575059,1.7496479 h 4.722826 v 0.6851768 h -4.722826 z m -0.01224,1.7374126 h 4.918591 V 9.1738029 H 18.21133 Z m 0,1.7251773 h 4.759532 v 0.672942 H 18.21133 Z m 2.092236,-8.4178864 0.978824,0.061176 q -0.09788,0.5750591 -0.23247,1.22353 -0.134589,0.6362356 -0.269177,1.22353 -0.134588,0.5750591 -0.269177,1.0032946 l -0.795294,-0.085647 q 0.110118,-0.4404708 0.220235,-1.0522358 0.122353,-0.611765 0.220236,-1.2357653 0.09788,-0.6240003 0.146823,-1.1378829 z m -4.098825,0.012235 0.844236,0.2691766 Q 16.669682,3.1295647 16.168035,4.1450946 15.678623,5.1483892 15.091329,6.0415661 14.504034,6.934743 13.880034,7.6321551 13.831093,7.5220374 13.73321,7.3507432 13.647563,7.179449 13.549681,7.0081548 13.451798,6.8246253 13.366151,6.7145076 13.928975,6.1149779 14.455093,5.3319187 14.981211,4.5488595 15.433917,3.6556826 15.886623,2.7625057 16.204741,1.8326229 Z m -1.284707,3.2056486 0.844236,-0.8687063 0.01224,0.012235 v 8.8950635 h -0.856471 z m 17.043773,1.712942 0.844236,0.244706 q -0.550588,1.1256476 -1.407059,2.1289422 -0.856471,0.9910593 -1.79859,1.6640013 -0.06118,-0.09788 -0.183529,-0.220236 -0.110118,-0.134588 -0.232471,-0.256941 -0.110117,-0.134588 -0.208,-0.208 0.917648,-0.5872947 1.712942,-1.456001 0.795295,-0.8809416 1.272471,-1.8964715 z m 2.165648,-1.5049419 0.721883,-0.3548237 q 0.367059,0.3915296 0.746353,0.8809416 0.39153,0.4771767 0.734118,0.9421181 0.342589,0.4649414 0.538354,0.8197651 L 36.111574,7.9869788 Q 35.928045,7.6199198 35.585456,7.1427431 35.255103,6.6655664 34.875809,6.1639191 34.496514,5.6622718 34.129455,5.2462716 Z m -3.939766,2.8630602 q 0.587294,1.0522358 1.553883,1.9087072 0.978824,0.844235 2.26353,1.419294 1.284707,0.57506 2.777414,0.856471 -0.08565,0.09788 -0.195765,0.244706 -0.110118,0.146824 -0.208,0.281412 -0.09788,0.146824 -0.146824,0.269177 -1.529412,-0.330353 -2.83859,-0.978824 -1.296941,-0.648471 -2.300236,-1.590589 -1.003295,-0.9421182 -1.651765,-2.1534129 z m 1.480471,0.012235 h 3.609414 v 0.7585886 h -4.282355 z m 3.303531,0 h 0.171294 l 0.171295,-0.048941 0.575059,0.2936472 q -0.428236,1.0032946 -1.137883,1.7863539 -0.697412,0.770824 -1.602825,1.358118 -0.905412,0.575059 -1.920942,0.966589 -1.01553,0.39153 -2.080001,0.636236 -0.03671,-0.122353 -0.122353,-0.269177 -0.07341,-0.134588 -0.159059,-0.281412 -0.08565,-0.146824 -0.171294,-0.244706 0.99106,-0.183529 1.957648,-0.526118 0.966589,-0.354824 1.810825,-0.856471 0.844235,-0.513882 1.492706,-1.1745887 0.648471,-0.6729415 1.01553,-1.5049419 z m -6.484709,-3.8051783 0.832001,0.2814119 q -0.39153,0.734118 -0.905413,1.4560007 -0.513882,0.7218827 -1.088941,1.3581183 -0.562824,0.6362356 -1.137883,1.1256476 -0.03671,-0.097882 -0.134589,-0.244706 -0.09788,-0.1590589 -0.208,-0.3181178 Q 25.73604,7.8156846 25.650393,7.7300375 26.457922,7.1060372 27.216511,6.200625 27.987335,5.2829775 28.488982,4.3163888 Z m -0.293647,-2.4960012 0.832,0.3181178 q -0.330353,0.5138826 -0.783059,1.0522358 -0.452706,0.5261179 -0.954353,1.0155299 -0.501648,0.4771767 -1.003295,0.856471 -0.06118,-0.097882 -0.146823,-0.2202354 -0.08565,-0.122353 -0.18353,-0.244706 -0.09788,-0.1345883 -0.183529,-0.2080001 0.452706,-0.3425884 0.917647,-0.7708239 0.464941,-0.4282355 0.856471,-0.8931769 0.403765,-0.4771767 0.648471,-0.9054122 z m -0.844236,4.771767 0.758589,-0.7585886 0.122353,0.061177 V 13.11357 H 27.351099 Z M 29.688042,5.2829775 Q 29.675806,5.1728598 29.61463,5.0138009 29.565689,4.854742 29.504512,4.6956831 29.455571,4.5243889 29.394394,4.4020359 q 0.18353,-0.036706 0.379295,-0.1468236 0.195764,-0.122353 0.428235,-0.2936472 0.171294,-0.122353 0.538353,-0.4160002 0.367059,-0.3058825 0.80753,-0.7218827 0.440471,-0.4282355 0.819765,-0.8931769 l 0.893177,0.4160002 q -0.697412,0.7218827 -1.468236,1.3825889 -0.770824,0.6484709 -1.529412,1.0889417 v 0.024471 q 0,0 -0.08565,0.048941 -0.08565,0.036706 -0.208001,0.097882 -0.110117,0.061177 -0.195764,0.1468236 -0.08565,0.073412 -0.08565,0.1468236 z m 0,0 V 4.6589772 l 0.477176,-0.2569413 3.230119,-0.097882 q -0.110117,0.1590589 -0.220235,0.3792943 -0.09788,0.2080001 -0.146824,0.3425884 -1.015529,0.036706 -1.63953,0.073412 -0.624,0.036706 -0.966588,0.061177 -0.330354,0.024471 -0.489412,0.061177 -0.159059,0.024471 -0.244706,0.061177 z M 29.40663,7.4608609 Q 29.394394,7.3752138 29.345453,7.2161549 29.296512,7.0448607 29.247571,6.8858018 29.19863,6.7145076 29.149688,6.5921546 29.40663,6.5554487 29.736983,6.4086251 30.067336,6.2495662 30.495571,6.0048602 30.740277,5.8702719 31.205219,5.58886 31.682395,5.2952128 32.281925,4.8914479 32.89369,4.487683 33.529926,3.998271 34.178397,3.508859 34.74122,2.9949764 l 0.844236,0.4771767 q -1.358118,1.1134123 -2.789648,2.0188245 -1.419295,0.9054122 -2.801884,1.5416478 v 0.024471 q 0,0 -0.08565,0.048941 -0.08565,0.036706 -0.208,0.097882 -0.110118,0.061177 -0.208,0.1345883 -0.08565,0.061177 -0.08565,0.122353 z m 0,0 -0.01224,-0.6362356 0.550589,-0.2814119 5.72612,-0.3181178 q 0.01224,0.1712942 0.04894,0.3915296 0.03671,0.2080001 0.06118,0.3303531 -1.627295,0.097882 -2.728472,0.1712942 -1.088942,0.061177 -1.761883,0.122353 -0.672942,0.048941 -1.052236,0.085647 -0.367059,0.024471 -0.550588,0.061177 -0.171295,0.036706 -0.281412,0.073412 z M 40.393931,5.4787423 h 6.32565 v 0.8687063 h -6.32565 z m -1.566118,2.5327071 h 9.482357 v 0.8442357 h -9.482357 z m -0.550589,3.8663546 h 10.59577 V 12.72204 H 38.277224 Z M 43.048991,5.8702719 H 44.01558 V 12.293804 H 43.048991 Z M 39.867813,9.4307442 40.626402,9.137097 q 0.23247,0.3303531 0.464941,0.734118 0.232471,0.403765 0.416,0.783059 0.195765,0.379295 0.293648,0.685177 l -0.795295,0.342588 q -0.08565,-0.293647 -0.269177,-0.685176 -0.183529,-0.39153 -0.416,-0.80753 -0.220235,-0.4160004 -0.452706,-0.7585888 z m 6.545886,-0.3058825 0.868706,0.3425884 q -0.342588,0.5750589 -0.734118,1.1990599 -0.39153,0.611765 -0.721883,1.027765 l -0.697412,-0.293647 q 0.220236,-0.305883 0.452706,-0.697413 0.232471,-0.403764 0.452706,-0.8197647 0.220236,-0.4160002 0.379295,-0.7585886 z M 43.917697,2.3342702 q 0.440471,0.5138826 1.064472,1.0277652 0.624,0.5016473 1.345883,0.9543534 0.734118,0.4404708 1.504941,0.8075298 0.770824,0.3548237 1.504942,0.5872944 -0.110117,0.097882 -0.23247,0.244706 -0.122353,0.1345883 -0.232471,0.2814119 -0.110118,0.1468236 -0.18353,0.2691766 Q 47.955346,6.2373309 47.184523,5.833566 46.425934,5.4298011 45.679581,4.9281538 44.945463,4.4265065 44.296992,3.8636827 43.648521,3.3008589 43.159109,2.7135645 Z M 43.550638,1.7102699 44.407109,2.0895642 Q 43.746403,3.0928588 42.804285,3.9493298 41.874402,4.7935655 40.76099,5.4542717 39.647578,6.1149779 38.448518,6.5554487 38.338401,6.3474486 38.167106,6.1149779 37.995812,5.8702719 37.812283,5.711213 38.974636,5.3319187 40.063578,4.7446243 41.15252,4.1573299 42.057932,3.386506 42.975579,2.6156821 43.550638,1.7102699 Z m 6.888472,1.2847065 h 5.175532 V 5.0627421 H 54.880524 V 3.753565 H 51.136523 V 5.0627421 H 50.43911 Z m 0.746354,6.3011795 h 3.829649 v 3.7195311 h -0.832001 v -2.973178 h -2.202354 v 2.985413 h -0.795294 z m 0.305882,2.5938841 h 3.230119 v 0.746353 h -3.230119 z m 0.697412,-7.7204748 0.746354,0.1345883 Q 52.641464,5.1116833 52.139817,5.8825072 51.63817,6.6410958 50.842875,7.2528608 50.757228,7.0938019 50.610405,6.9102724 50.475816,6.7267429 50.353463,6.6410958 51.075346,6.1272132 51.528052,5.466507 51.980758,4.8058008 52.188758,4.1695652 Z m 0.08565,0.8442357 h 2.190119 v 0.7218827 h -2.496001 z m 1.994354,0 h 0.159059 l 0.146824,-0.036706 0.464941,0.3425884 q -0.416,1.101177 -1.125647,1.957648 -0.709648,0.8442357 -1.578354,1.4560007 -0.856471,0.5995297 -1.774119,0.978824 -0.04894,-0.1101177 -0.134588,-0.2569413 -0.08565,-0.1468236 -0.171294,-0.2814119 -0.08565,-0.1345883 -0.171294,-0.2202354 0.893177,-0.3181178 1.712942,-0.856471 0.832,-0.5383532 1.480471,-1.2724712 0.648471,-0.734118 0.991059,-1.6517655 z M 52.311111,2.1017995 53.032994,1.8203876 q 0.171294,0.3425884 0.342588,0.7463533 0.18353,0.4037649 0.281412,0.6729415 L 52.873935,3.5700355 Q 52.800523,3.2886236 52.629229,2.8726234 52.457935,2.4443879 52.311111,2.1017995 Z m 3.682826,0.3058825 h 5.359061 v 0.7952945 h -5.359061 z m 1.211294,4.6127081 V 8.158273 h 2.875296 V 7.0203901 Z m 0,1.835295 v 1.1745889 h 2.875296 V 8.8556851 Z m 0,-3.6950606 v 1.1256476 h 2.875296 V 5.1606245 Z m -0.832,-0.7585886 h 4.588238 v 6.3745911 h -4.588238 z m 1.896471,-1.6028243 0.868707,0.1590589 Q 59.00382,3.4599178 58.856997,3.9860357 58.722409,4.4999183 58.600056,4.8792126 L 57.902643,4.6956831 q 0.09788,-0.4037649 0.208001,-0.9421181 0.110117,-0.5383532 0.159058,-0.9543534 z m -0.587294,8.1731804 0.624,0.575059 q -0.538353,0.428236 -1.248,0.856471 -0.697412,0.440471 -1.296942,0.734118 -0.07341,-0.146823 -0.195765,-0.354824 -0.122353,-0.195764 -0.220235,-0.330353 0.379294,-0.183529 0.819765,-0.428235 0.440471,-0.256941 0.844236,-0.526118 0.403764,-0.281412 0.672941,-0.526118 z m 1.248001,0.538353 0.489412,-0.587294 q 0.342588,0.220235 0.721882,0.489412 0.39153,0.269176 0.734118,0.550588 0.354824,0.269177 0.587295,0.501648 l -0.538353,0.648471 q -0.208,-0.232471 -0.550589,-0.526118 -0.342588,-0.281412 -0.721883,-0.562824 -0.379294,-0.293647 -0.721882,-0.513883 z M 51.540287,7.0448607 52.066405,6.4820369 q 0.428236,0.2569413 0.917648,0.5505885 0.489412,0.2814119 0.978824,0.5872944 0.489412,0.3058825 0.917647,0.5872944 0.440471,0.2691766 0.758589,0.489412 L 55.088524,9.3695677 Q 54.696995,9.0636852 54.08523,8.6599203 53.473465,8.2561554 52.800523,7.8279199 52.139817,7.3996844 51.540287,7.0448607 Z M 68.03347,5.4420364 q -0.367059,0 -0.648471,-0.244706 -0.281412,-0.2569413 -0.281412,-0.6729415 0,-0.4160002 0.281412,-0.6607062 0.281412,-0.2569413 0.648471,-0.2569413 0.367059,0 0.648471,0.2569413 0.281412,0.244706 0.281412,0.6607062 0,0.4160002 -0.281412,0.6729415 -0.281412,0.244706 -0.648471,0.244706 z m 0,5.9952966 q -0.367059,0 -0.648471,-0.244706 -0.281412,-0.256941 -0.281412,-0.672941 0,-0.428236 0.281412,-0.6729416 0.281412,-0.2569413 0.648471,-0.2569413 0.367059,0 0.648471,0.2569413 0.281412,0.2447056 0.281412,0.6729416 0,0.416 -0.281412,0.672941 -0.281412,0.244706 -0.648471,0.244706 z"
       id="text3"
       aria-label="加值後金額：" />
    <path
       style="font-weight:bold;font-size:6.36824px;line-height:1;font-family:Helvetica;-inkscape-font-specification:'Helvetica Bold';fill:#282473;stroke-width:0.159207"
       d="m 1.4963276,17.045844 q 0,-1.200264 0.6436649,-1.850147 0.5597085,-0.565928 1.4241474,-0.565928 1.156731,0 1.6915637,0.758716 0.2954017,0.426001 0.3171682,0.85511 H 4.6151482 Q 4.5218634,15.913989 4.3757173,15.746077 4.11452,15.447565 3.6014538,15.447565 q -0.5223947,0 -0.8240155,0.422891 -0.3016207,0.419782 -0.3016207,1.190936 0,0.771154 0.3171682,1.156731 0.3202777,0.382467 0.8115775,0.382467 0.5037377,0 0.7680445,-0.329606 0.1461461,-0.177241 0.2425404,-0.531723 h 0.9483951 q -0.1243797,0.749388 -0.6374459,1.218921 -0.5099567,0.469533 -1.3090962,0.469533 -0.9888185,0 -1.554746,-0.634336 -0.5659276,-0.637446 -0.5659276,-1.747535 z m 2.0398268,-2.468936 z m 3.5696971,1.333972 v 2.042936 q 0,0.289183 0.068409,0.435329 0.1212702,0.258088 0.4757523,0.258088 0.4539858,0 0.6218984,-0.36692 0.087066,-0.199008 0.087066,-0.525504 V 15.91088 H 9.25762 v 3.389346 H 8.3962907 v -0.478862 q -0.012438,0.01555 -0.06219,0.09329 -0.049752,0.07774 -0.1181607,0.136818 -0.208336,0.186569 -0.404234,0.254978 -0.1927885,0.06841 -0.4539859,0.06841 -0.7524971,0 -1.0136944,-0.541052 Q 6.1978798,18.535291 6.1978798,17.953816 V 15.91088 Z m 0.6218984,-0.09018 z m 4.2258001,0.0093 q 0.02488,0 0.04042,0.0031 0.01866,0 0.07774,0.0031 v 0.907972 q -0.08396,-0.0093 -0.149255,-0.01244 -0.0653,-0.0031 -0.105723,-0.0031 -0.534833,0 -0.718293,0.348263 -0.102613,0.195898 -0.102613,0.603242 v 1.620045 H 10.103402 V 15.91088 h 0.845782 v 0.590803 q 0.205226,-0.338934 0.357591,-0.463314 0.24876,-0.208336 0.646775,-0.208336 z m 2.478264,0 q 0.02488,0 0.04042,0.0031 0.01866,0 0.07774,0.0031 v 0.907972 q -0.08396,-0.0093 -0.149255,-0.01244 -0.0653,-0.0031 -0.105723,-0.0031 -0.534833,0 -0.718293,0.348263 -0.102613,0.195898 -0.102613,0.603242 v 1.620045 H 12.581667 V 15.91088 h 0.845781 v 0.590803 q 0.205227,-0.338934 0.357592,-0.463314 0.248759,-0.208336 0.646774,-0.208336 z m 1.974528,0.721402 q -0.307839,0 -0.478861,0.192789 -0.167913,0.192788 -0.211446,0.522394 h 1.377505 q -0.02177,-0.351372 -0.214555,-0.531723 -0.189679,-0.18346 -0.472643,-0.18346 z m 0,-0.73073 q 0.422891,0 0.761826,0.158584 0.338935,0.158584 0.559709,0.500628 0.199007,0.301621 0.258087,0.699636 0.03421,0.233211 0.02799,0.67165 h -2.319681 q 0.01866,0.509957 0.320277,0.715183 0.183461,0.127489 0.441548,0.127489 0.273636,0 0.444658,-0.155474 0.09328,-0.08396 0.164803,-0.233212 h 0.904862 q -0.0342,0.30162 -0.314059,0.61257 -0.435329,0.494409 -1.218921,0.494409 -0.646774,0 -1.141183,-0.416672 -0.494409,-0.416672 -0.494409,-1.355739 0,-0.879986 0.444657,-1.349519 0.447767,-0.469533 1.15984,-0.469533 z m 0.06219,0 z m 4.020574,0.0093 q 0.525504,0 0.85822,0.276745 0.335825,0.273635 0.335825,0.911081 v 2.282367 h -0.907972 v -2.061593 q 0,-0.267416 -0.07152,-0.410453 -0.130599,-0.261197 -0.497519,-0.261197 -0.450876,0 -0.618789,0.382467 -0.08707,0.202117 -0.08707,0.516176 v 1.8346 h -0.883095 v -3.383127 h 0.85511 v 0.494409 q 0.171022,-0.261197 0.323387,-0.376249 0.273635,-0.205226 0.693417,-0.205226 z m -0.326497,-0.0093 z m 1.990075,0.752497 v -0.631227 h 0.472643 v -0.945286 h 0.876877 v 0.945286 h 0.55038 v 0.631227 h -0.55038 v 1.791067 q 0,0.208336 0.05286,0.261197 0.05286,0.04975 0.323387,0.04975 0.04042,0 0.08396,0 0.04664,-0.0031 0.09017,-0.0062 v 0.662322 l -0.419782,0.01555 q -0.628117,0.02177 -0.858219,-0.217665 -0.149256,-0.152365 -0.149256,-0.469533 v -2.086469 z m 5.239494,-1.060337 v 1.010585 h 1.125636 q 0.301621,0 0.488191,-0.111942 0.189679,-0.115051 0.189679,-0.404234 0,-0.320278 -0.24876,-0.422891 -0.214555,-0.07152 -0.54727,-0.07152 z m 0,1.769301 v 1.22203 h 1.125636 q 0.301621,0 0.469534,-0.08085 0.30473,-0.149255 0.30473,-0.572146 0,-0.357592 -0.295402,-0.4913 -0.164803,-0.07463 -0.463314,-0.07774 z m 1.312206,-2.565331 q 0.842672,0.01244 1.194045,0.48819 0.211445,0.292292 0.211445,0.699636 0,0.419781 -0.211445,0.67476 -0.118161,0.143036 -0.348263,0.261197 0.351372,0.127489 0.528614,0.404234 0.18035,0.276745 0.18035,0.67165 0,0.407344 -0.205226,0.730731 -0.130599,0.214555 -0.326497,0.360701 -0.220774,0.167913 -0.522395,0.230102 -0.298511,0.06219 -0.649884,0.06219 h -2.07714 v -4.583391 z m 4.154281,2.93536 q -0.08396,0.05286 -0.171022,0.08707 -0.08396,0.0311 -0.233212,0.05908 l -0.199008,0.03731 q -0.279854,0.04975 -0.401124,0.121271 -0.205227,0.12127 -0.205227,0.376248 0,0.226993 0.12438,0.329606 0.127489,0.0995 0.30784,0.0995 0.286073,0 0.525504,-0.167913 0.24254,-0.167912 0.251869,-0.612569 z m -0.537943,-0.413562 q 0.24565,-0.0311 0.351373,-0.07774 0.189679,-0.08085 0.189679,-0.251869 0,-0.208336 -0.146146,-0.286074 -0.143037,-0.08085 -0.422891,-0.08085 -0.314059,0 -0.444657,0.155474 -0.09328,0.115052 -0.12438,0.31095 h -0.85511 q 0.02798,-0.444658 0.248759,-0.730731 0.351373,-0.447767 1.206483,-0.447767 0.556599,0 0.988818,0.220774 0.43222,0.220774 0.43222,0.833344 v 1.554746 q 0,0.161693 0.0062,0.391796 0.0093,0.174131 0.05286,0.236321 0.04353,0.06219 0.130599,0.102614 v 0.130598 h -0.963943 q -0.04042,-0.102613 -0.05597,-0.192788 -0.01555,-0.09018 -0.02487,-0.205227 -0.18346,0.199008 -0.422891,0.338935 -0.286074,0.164803 -0.646775,0.164803 -0.460205,0 -0.761825,-0.261197 -0.298512,-0.264307 -0.298512,-0.746279 0,-0.625007 0.481972,-0.904862 0.264307,-0.152365 0.777373,-0.217664 z m 0.04664,-1.417928 z m 3.069071,3.479521 h -0.886205 v -4.583391 h 0.886205 z m 2.733241,-1.648031 q -0.08396,0.05286 -0.171022,0.08707 -0.08396,0.0311 -0.233212,0.05908 l -0.199008,0.03731 q -0.279854,0.04975 -0.401124,0.121271 -0.205227,0.12127 -0.205227,0.376248 0,0.226993 0.12438,0.329606 0.127489,0.0995 0.30784,0.0995 0.286073,0 0.525504,-0.167913 0.24254,-0.167912 0.251869,-0.612569 z m -0.537942,-0.413562 q 0.24565,-0.0311 0.351372,-0.07774 0.189679,-0.08085 0.189679,-0.251869 0,-0.208336 -0.146146,-0.286074 -0.143036,-0.08085 -0.422891,-0.08085 -0.314058,0 -0.444657,0.155474 -0.09329,0.115052 -0.12438,0.31095 h -0.85511 q 0.02798,-0.444658 0.248759,-0.730731 0.351373,-0.447767 1.206483,-0.447767 0.556599,0 0.988819,0.220774 0.432219,0.220774 0.432219,0.833344 v 1.554746 q 0,0.161693 0.0062,0.391796 0.0093,0.174131 0.05286,0.236321 0.04353,0.06219 0.130598,0.102614 v 0.130598 h -0.963942 q -0.04042,-0.102613 -0.05597,-0.192788 -0.01555,-0.09018 -0.02488,-0.205227 -0.18346,0.199008 -0.422891,0.338935 -0.286073,0.164803 -0.646774,0.164803 -0.460205,0 -0.761826,-0.261197 -0.298511,-0.264307 -0.298511,-0.746279 0,-0.625007 0.481971,-0.904862 0.264307,-0.152365 0.777373,-0.217664 z m 0.04664,-1.417928 z m 4.042342,0.0093 q 0.525504,0 0.85822,0.276745 0.335825,0.273635 0.335825,0.911081 v 2.282367 h -0.907972 v -2.061593 q 0,-0.267416 -0.07152,-0.410453 -0.130599,-0.261197 -0.497519,-0.261197 -0.450876,0 -0.618789,0.382467 -0.08707,0.202117 -0.08707,0.516176 v 1.8346 h -0.883096 v -3.383127 h 0.85511 v 0.494409 q 0.171022,-0.261197 0.323387,-0.376249 0.273636,-0.205226 0.693417,-0.205226 z m -0.326497,-0.0093 z m 4.362616,1.305986 q -0.02488,-0.189679 -0.127489,-0.342044 -0.149256,-0.205226 -0.463315,-0.205226 -0.447766,0 -0.61257,0.444657 -0.08706,0.236321 -0.08706,0.628117 0,0.373139 0.08706,0.600132 0.158585,0.422891 0.597023,0.422891 0.310949,0 0.441548,-0.167912 0.130598,-0.167913 0.158584,-0.435329 h 0.904862 q -0.0311,0.404234 -0.292292,0.764935 -0.416672,0.581475 -1.234469,0.581475 -0.817796,0 -1.203373,-0.485081 -0.385577,-0.485081 -0.385577,-1.259344 0,-0.873767 0.426,-1.358848 0.426001,-0.485081 1.175388,-0.485081 0.637446,0 1.04168,0.286073 0.407344,0.286074 0.481972,1.010585 z m -0.600132,-1.305986 z m 3.454648,0.73073 q -0.30784,0 -0.478862,0.192789 -0.167913,0.192788 -0.211445,0.522394 h 1.377505 q -0.02177,-0.351372 -0.214555,-0.531723 -0.189679,-0.18346 -0.472643,-0.18346 z m 0,-0.73073 q 0.422891,0 0.761825,0.158584 0.338935,0.158584 0.559709,0.500628 0.199008,0.301621 0.258088,0.699636 0.0342,0.233211 0.02799,0.67165 H 47.89928 q 0.01866,0.509957 0.320278,0.715183 0.18346,0.127489 0.441548,0.127489 0.273635,0 0.444657,-0.155474 0.09328,-0.08396 0.164803,-0.233212 h 0.904862 q -0.0342,0.30162 -0.314058,0.61257 -0.435329,0.494409 -1.218921,0.494409 -0.646775,0 -1.141184,-0.416672 -0.494409,-0.416672 -0.494409,-1.355739 0,-0.879986 0.444657,-1.349519 0.447767,-0.469533 1.159841,-0.469533 z m 0.06219,0 z"
       id="text4"
       aria-label="Current Balance" />
  </g>
</svg>
