<?xml version="1.0" encoding="UTF-8" standalone="no"?>
<!-- Created with Inkscape (http://www.inkscape.org/) -->

<svg
   width="800"
   height="450"
   viewBox="0 0 211.66667 119.0625"
   version="1.1"
   id="svg1"
   xml:space="preserve"
   inkscape:version="1.4.2 (f4327f4, 2025-05-13)"
   sodipodi:docname="summary_special.svg"
   xmlns:inkscape="http://www.inkscape.org/namespaces/inkscape"
   xmlns:sodipodi="http://sodipodi.sourceforge.net/DTD/sodipodi-0.dtd"
   xmlns="http://www.w3.org/2000/svg"
   xmlns:svg="http://www.w3.org/2000/svg"><sodipodi:namedview
     id="namedview1"
     pagecolor="#ffffff"
     bordercolor="#999999"
     borderopacity="1"
     inkscape:showpageshadow="0"
     inkscape:pageopacity="0"
     inkscape:pagecheckerboard="true"
     inkscape:deskcolor="#d1d1d1"
     inkscape:document-units="mm"
     inkscape:zoom="1.0167041"
     inkscape:cx="372.77316"
     inkscape:cy="190.32086"
     inkscape:window-width="1920"
     inkscape:window-height="1009"
     inkscape:window-x="1912"
     inkscape:window-y="-8"
     inkscape:window-maximized="1"
     inkscape:current-layer="layer1" /><defs
     id="defs1"><pattern
       id="EMFhbasepattern"
       patternUnits="userSpaceOnUse"
       width="6"
       height="6"
       x="0"
       y="0" /><rect
       x="8.3979025"
       y="14.69633"
       width="83.979027"
       height="96.225967"
       id="rect1" /><rect
       x="8.3979025"
       y="14.69633"
       width="83.979027"
       height="96.225967"
       id="rect1-8" /></defs><g
     inkscape:label="Layer 1"
     inkscape:groupmode="layer"
     id="layer1"><path
       style="font-weight:500;font-size:13.3666px;line-height:1;font-family:'Noto Sans TC';-inkscape-font-specification:'Noto Sans TC Medium';text-align:center;text-anchor:middle;stroke-width:0.334165"
       d="m 18.467138,16.74148 0.908929,-0.641597 q 0.534664,0.280699 1.136161,0.654964 0.601497,0.360898 1.136161,0.735163 0.54803,0.360898 0.908929,0.66833 l -0.989129,0.735163 q -0.320798,-0.307432 -0.855462,-0.695064 -0.521298,-0.374264 -1.109428,-0.761896 -0.58813,-0.387631 -1.136161,-0.695063 z m -6.228836,-3.675815 h 8.795223 v 0.975762 h -8.795223 z m -1.617358,1.737658 h 12.02994 v 1.029228 H 10.620944 Z M 10.79471,7.2511939 H 22.396918 V 8.2670555 H 10.79471 Z m 2.619853,8.8085891 1.162894,0.400998 q -0.374264,0.481198 -0.908928,0.935662 -0.521298,0.454465 -1.082695,0.842096 -0.561397,0.400998 -1.109428,0.681697 -0.106933,-0.106933 -0.280698,-0.267332 -0.173766,-0.160399 -0.360899,-0.320799 -0.173765,-0.160399 -0.307431,-0.253965 0.815362,-0.360898 1.603992,-0.895562 0.788629,-0.534664 1.283193,-1.122795 z M 12.7596,10.084913 v 1.309927 h 7.712528 V 10.084913 Z M 11.583339,9.1492511 H 21.715222 V 12.330502 H 11.583339 Z m 2.900552,-1.5104258 h 1.162894 v 4.2906787 h -1.162894 z m 2.980752,0 h 1.176261 V 11.929504 H 17.464643 Z M 15.98095,15.070655 h 1.256461 v 4.116913 H 15.98095 Z m 7.979861,-3.475316 h 12.083406 v 1.243094 H 23.960811 Z m 5.867937,-3.0876847 h 4.892176 V 9.7240149 H 29.828748 Z M 29.000019,6.7566297 h 1.323293 v 5.4268393 h -1.323293 z m 0.05347,5.6540723 h 1.323294 v 6.750133 h -1.323294 z m 1.309927,2.686686 0.66833,-0.975762 q 0.507931,0.187133 1.109428,0.427732 0.614863,0.240598 1.229727,0.494564 0.614864,0.240599 1.162894,0.481197 0.548031,0.240599 0.935662,0.441098 L 34.77439,17.089012 Q 34.400125,16.888513 33.865461,16.634547 33.330797,16.380582 32.715934,16.11325 32.114437,15.832551 31.499573,15.578586 30.898076,15.311254 30.363412,15.097388 Z m 9.891284,-1.229727 v 0.761896 h 6.335768 v -0.761896 z m 0,1.523792 v 0.775263 h 6.335768 v -0.775263 z m 0,-3.047584 v 0.748529 h 6.335768 v -0.748529 z m -1.216361,-0.801996 h 8.821956 v 5.426839 h -8.821956 z m 5.493673,6.055069 0.842096,-0.66833 q 0.721796,0.227233 1.443593,0.494565 0.721796,0.267332 1.363393,0.534664 0.654963,0.253965 1.122794,0.481197 l -1.136161,0.695063 q -0.414364,-0.227232 -1.002495,-0.494564 -0.574764,-0.253965 -1.25646,-0.534664 -0.681697,-0.267332 -1.37676,-0.507931 z m -3.288184,-0.641596 1.162895,0.521297 q -0.548031,0.334165 -1.256461,0.654963 -0.70843,0.320799 -1.470326,0.574764 -0.748529,0.267332 -1.430226,0.454465 -0.09357,-0.1203 -0.267332,-0.307432 -0.160399,-0.173766 -0.347532,-0.347532 -0.173765,-0.173766 -0.320798,-0.280698 0.695063,-0.133666 1.41686,-0.334165 0.735163,-0.200499 1.390126,-0.427732 0.654963,-0.240598 1.122794,-0.50793 z M 42.79435,7.6120921 h 5.453573 V 8.5611207 H 42.79435 Z m 0.160399,-0.9089288 1.122795,0.2405988 Q 43.810212,7.7858579 43.342381,8.5477541 42.87455,9.3096503 42.339886,9.8309477 42.246319,9.7240149 42.072554,9.6037155 41.898788,9.4834161 41.711655,9.3764833 41.524523,9.2561839 41.390857,9.1759843 q 0.534664,-0.4544644 0.935662,-1.1094278 0.400998,-0.66833 0.62823,-1.3633932 z m 1.497059,1.5906254 h 1.162895 v 0.4945642 q 0,0.3608982 -0.147033,0.7618962 -0.147033,0.3876314 -0.574764,0.7618959 -0.427731,0.360899 -1.283193,0.66833 -0.842096,0.307432 -2.258956,0.494565 -0.09357,-0.213866 -0.294065,-0.494565 -0.187132,-0.294065 -0.360898,-0.454464 1.269827,-0.133666 2.018356,-0.347532 0.761897,-0.2138653 1.122795,-0.4544641 0.374265,-0.2405988 0.494564,-0.4945642 0.120299,-0.267332 0.120299,-0.4945642 z m 1.029229,0.6816966 q 0.334165,0.400998 0.935662,0.7084298 0.601497,0.3074318 1.390126,0.4945639 0.801996,0.187133 1.737658,0.253966 -0.187132,0.173766 -0.387631,0.481197 -0.200499,0.294066 -0.307432,0.534664 -1.002495,-0.147032 -1.831224,-0.441097 -0.815363,-0.294066 -1.430227,-0.74853 Q 44.973106,9.7908479 44.585474,9.1626177 Z M 37.568009,7.4917927 h 3.314917 v 0.9490286 h -3.314917 z m -0.294065,2.071823 h 3.943147 V 10.552744 H 37.273944 Z M 47.820192,7.6120921 h 0.200499 l 0.187132,-0.053466 0.868829,0.2806986 q -0.253965,0.534664 -0.574764,1.0960612 -0.307432,0.5480306 -0.601497,0.9222954 L 46.911263,9.4967827 q 0.227232,-0.334165 0.481197,-0.801996 0.267332,-0.4811976 0.427732,-0.9089288 z m 3.34165,3.1946179 h 3.836214 v 0.989128 h -3.836214 z m 0,1.791124 h 3.862947 v 0.975762 H 51.161842 Z M 50.613811,9.0022185 H 55.49262 V 10.01808 h -4.878809 z m 1.055961,5.4001065 h 3.34165 v 3.983247 h -3.34165 v -1.042595 h 2.325789 v -1.911424 h -2.325789 z m -0.50793,0 h 0.989128 v 4.584744 H 51.161842 Z M 52.003937,7.1843609 52.8995,6.6897967 q 0.280698,0.4143646 0.534664,0.9089288 0.267332,0.4811976 0.427731,0.8554624 L 52.912866,9.0155851 Q 52.7792,8.6546869 52.511868,8.1333895 52.257903,7.5987255 52.003937,7.1843609 Z m 3.475316,5.2931741 h 4.437712 v 1.17626 h -4.437712 z m 4.83871,-4.9991089 h 1.269827 q -0.02673,1.2564604 -0.0401,2.4861876 -0.01337,1.2163603 -0.01337,2.3391553 0.01337,1.122794 0.0401,2.085189 0.02673,0.962396 0.09357,1.684192 0.06683,0.721796 0.173766,1.149528 0.120299,0.427731 0.267332,0.467831 0.05347,0.01337 0.0802,-0.240599 0.0401,-0.253966 0.0802,-0.654964 0.0401,-0.400998 0.05347,-0.868829 0.09357,0.1604 0.213865,0.360899 0.133666,0.187132 0.253966,0.360898 0.133666,0.160399 0.227232,0.253965 -0.0802,0.962395 -0.280699,1.45696 -0.200499,0.494564 -0.494564,0.614863 -0.294065,0.133666 -0.654963,-0.01337 -0.427732,-0.1604 -0.681697,-0.82873 -0.240599,-0.66833 -0.374265,-1.751024 -0.120299,-1.096061 -0.173766,-2.499554 -0.0401,-1.41686 -0.0401,-3.034219 0,-1.6307249 0,-3.3683829 z m -3.154518,0.7752628 h 1.176261 V 19.160835 H 57.163445 Z M 55.639653,7.4784261 h 5.26644 v 1.202994 h -5.26644 z"
       id="text3"
       aria-label="票卡資訊" /><path
       style="font-weight:bold;font-size:6.70591px;line-height:1;font-family:Helvetica;-inkscape-font-specification:'Helvetica Bold';stroke-width:0.167648"
       d="m 22.471529,22.397045 v 0.854611 h -1.443998 v 3.971811 h -1.015054 v -3.971811 h -1.450546 v -0.854611 z m 1.355589,0.83169 h -0.946293 v -0.861159 h 0.946293 z m -0.946293,0.425668 h 0.946293 v 3.569064 h -0.946293 z m 3.981634,1.280279 q -0.0262,-0.199736 -0.134249,-0.360181 -0.15717,-0.216108 -0.487881,-0.216108 -0.471509,0 -0.645051,0.468235 -0.09168,0.248852 -0.09168,0.661423 0,0.392924 0.09168,0.631953 0.166993,0.445314 0.628679,0.445314 0.327437,0 0.464961,-0.176816 0.137523,-0.176816 0.166992,-0.458411 h 0.952842 q -0.03274,0.425668 -0.307791,0.805495 -0.438765,0.612307 -1.299925,0.612307 -0.861159,0 -1.267181,-0.510802 -0.406022,-0.510802 -0.406022,-1.32612 0,-0.920098 0.448589,-1.4309 0.448589,-0.510801 1.237712,-0.510801 0.671246,0 1.096914,0.301242 0.428942,0.301242 0.507527,1.06417 z m -0.631953,-1.375235 z m 2.220023,-1.14603 h 0.916823 v 2.59985 l 1.162402,-1.342492 h 1.155852 l -1.247535,1.365413 1.296651,2.187279 h -1.126384 l -0.85461,-1.525857 -0.386376,0.402748 v 1.123109 h -0.916823 z m 5.147309,1.915507 q -0.324162,0 -0.504253,0.203011 -0.176816,0.203011 -0.222657,0.550094 h 1.450546 q -0.02292,-0.370004 -0.225931,-0.559918 -0.199737,-0.193187 -0.497705,-0.193187 z m 0,-0.769477 q 0.445315,0 0.802221,0.166992 0.356906,0.166993 0.589387,0.527174 0.209559,0.317614 0.271772,0.736733 0.03602,0.245578 0.02947,0.707264 h -2.442681 q 0.01965,0.536997 0.337261,0.753106 0.193187,0.134249 0.46496,0.134249 0.288145,0 0.468235,-0.163719 0.09823,-0.08841 0.173542,-0.245578 h 0.952841 q -0.03602,0.317614 -0.330711,0.645051 -0.458412,0.520625 -1.283553,0.520625 -0.681069,0 -1.201694,-0.438765 -0.520625,-0.438766 -0.520625,-1.427626 0,-0.926647 0.468235,-1.421076 0.471509,-0.49443 1.22134,-0.49443 z m 0.06549,0 z m 1.889311,0.792397 v -0.664697 h 0.497704 v -0.995409 h 0.923373 v 0.995409 h 0.579563 v 0.664697 h -0.579563 v 1.886037 q 0,0.219383 0.05566,0.275048 0.05566,0.05239 0.340535,0.05239 0.04257,0 0.08841,0 0.04912,-0.0033 0.09496,-0.0065 v 0.697441 l -0.44204,0.01637 q -0.661423,0.02292 -0.903726,-0.229205 -0.15717,-0.160445 -0.15717,-0.49443 v -2.197103 z m 5.46165,2.871623 h -1.001958 v -4.826422 h 1.001958 z m -0.500979,-4.921379 z m 3.343133,1.267182 q 0.553368,0 0.903726,0.291419 0.353632,0.288144 0.353632,0.95939 v 2.403388 h -0.956116 v -2.170908 q 0,-0.281595 -0.07531,-0.432216 -0.137523,-0.275048 -0.523899,-0.275048 -0.474784,0 -0.6516,0.402748 -0.09168,0.212834 -0.09168,0.543545 v 1.931879 H 41.88527 v -3.562515 h 0.900451 v 0.520625 q 0.180091,-0.275047 0.340535,-0.396199 0.288145,-0.216108 0.730185,-0.216108 z m -0.343809,-0.0098 z m 3.778623,-1.211517 q 0.08841,0 0.160444,0.0065 0.07204,0.0033 0.196462,0.0131 v 0.759654 q -0.07859,-0.0098 -0.265224,-0.0131 -0.183364,-0.0065 -0.255401,0.08186 -0.06876,0.08513 -0.06876,0.189913 0,0.10478 0,0.301242 h 0.612307 v 0.658148 h -0.612307 v 2.878172 h -0.929922 v -2.878172 h -0.520624 v -0.658148 h 0.510801 v -0.229206 q 0,-0.573015 0.193188,-0.789123 0.203011,-0.320888 0.979037,-0.320888 z m 2.51799,4.217388 q 0.409296,0 0.628679,-0.291418 0.219383,-0.291419 0.219383,-0.828416 0,-0.536997 -0.219383,-0.825141 -0.219383,-0.291419 -0.628679,-0.291419 -0.409296,0 -0.631953,0.291419 -0.219383,0.288144 -0.219383,0.825141 0,0.536997 0.219383,0.828416 0.222657,0.291418 0.631953,0.291418 z m 1.827099,-1.119834 q 0,0.785849 -0.451863,1.345766 -0.451864,0.556643 -1.371962,0.556643 -0.920098,0 -1.371961,-0.556643 -0.451863,-0.559917 -0.451863,-1.345766 0,-0.772752 0.451863,-1.339218 0.451863,-0.566466 1.371961,-0.566466 0.920098,0 1.371962,0.566466 0.451863,0.566466 0.451863,1.339218 z m -1.823825,-1.886037 z"
       id="text4"
       aria-label="Ticket Info" /><path
       style="font-weight:500;font-size:10.5833px;line-height:1;font-family:'Noto Sans TC';-inkscape-font-specification:'Noto Sans TC Medium';stroke-width:0.264583"
       d="m 14.806621,49.73195 0.719664,-0.507999 q 0.423332,0.22225 0.899581,0.518582 0.476248,0.285749 0.89958,0.582081 0.433916,0.285749 0.719665,0.529165 l -0.783165,0.582082 Q 17.007947,51.192445 16.584615,50.885529 16.171867,50.589197 15.706201,50.282281 15.240536,49.975365 14.806621,49.73195 Z M 9.8748033,46.821542 h 6.9638107 v 0.772581 H 9.8748033 Z m -1.2805792,1.375829 h 9.5249699 v 0.814914 H 8.5942241 Z M 8.731807,42.217807 h 9.186304 v 0.804331 H 8.731807 Z m 2.074327,6.974394 0.920747,0.317499 q -0.296333,0.380999 -0.719665,0.740831 -0.412748,0.359832 -0.857247,0.666748 Q 9.7054705,51.234778 9.2715552,51.457027 9.1868888,51.372361 9.049306,51.245361 8.9117231,51.118362 8.7635569,50.991362 8.625974,50.864363 8.520141,50.79028 9.1657222,50.50453 9.7901369,50.081198 10.414552,49.657867 10.806134,49.192201 Z m -0.518582,-4.730735 v 1.037164 h 6.106564 V 44.461466 Z M 9.3562216,43.720635 h 8.0221414 v 2.518826 H 9.3562216 Z m 2.2965764,-1.195912 h 0.920747 v 3.397239 h -0.920747 z m 2.360075,0 h 0.931331 v 3.397239 h -0.931331 z m -1.174746,5.884314 h 0.99483 v 3.259656 h -0.99483 z M 46.49302,42.672889 h 0.952497 v 8.413723 H 46.49302 Z m -2.539992,1.005413 h 5.884315 v 0.804331 h -5.884315 z m -0.296332,6.963811 h 6.392313 v 0.804331 h -6.392313 z m 0.603248,-1.471078 h 5.418649 v 0.793747 h -5.418649 z m 4.974151,-7.238977 0.592664,0.751414 q -0.550331,0.116416 -1.227662,0.201083 -0.666748,0.08467 -1.396996,0.148166 -0.719664,0.05292 -1.460495,0.09525 -0.730248,0.03175 -1.396996,0.04233 -0.02117,-0.15875 -0.09525,-0.380999 -0.0635,-0.222249 -0.137583,-0.370415 0.666748,-0.03175 1.375829,-0.0635 0.709081,-0.04233 1.386412,-0.105833 0.687914,-0.0635 1.291162,-0.137583 0.613832,-0.07408 1.068914,-0.179916 z m -3.989904,5.175233 v 0.719665 h 3.492489 v -0.719665 z m 0,-1.322912 v 0.709081 h 3.492489 v -0.709081 z m -0.878414,-0.709081 h 5.281066 v 3.471322 h -5.281066 z m -2.444742,-2.328326 h 0.973663 v 8.889972 h -0.973663 z m -1.640412,2.05316 h 3.862905 v 0.941914 h -3.862905 z m 1.693328,0.370415 0.603248,0.264583 q -0.158749,0.560915 -0.380999,1.174746 -0.222249,0.603248 -0.486831,1.195913 -0.254,0.592665 -0.550332,1.111247 -0.296332,0.518581 -0.603248,0.888997 -0.07408,-0.211666 -0.222249,-0.476249 -0.148167,-0.275166 -0.264583,-0.455082 0.285749,-0.317499 0.560915,-0.751414 0.275166,-0.444499 0.529165,-0.941914 0.264583,-0.507998 0.465665,-1.02658 0.211666,-0.518581 0.349249,-0.984247 z m 1.555745,-3.217323 0.687915,0.772581 q -0.518582,0.201083 -1.15358,0.370416 -0.624415,0.158749 -1.291163,0.285749 -0.666747,0.116416 -1.291162,0.211666 -0.03175,-0.169333 -0.116416,-0.391582 -0.08467,-0.22225 -0.169333,-0.380999 0.592665,-0.09525 1.206496,-0.222249 0.624415,-0.137583 1.174746,-0.296333 0.560915,-0.169333 0.952497,-0.349249 z m -0.656164,4.26507 q 0.09525,0.07408 0.296332,0.285749 0.201083,0.201083 0.433915,0.433915 0.243416,0.232833 0.433916,0.444499 0.190499,0.201083 0.264582,0.296332 l -0.582081,0.783165 q -0.09525,-0.169333 -0.264583,-0.423332 -0.158749,-0.254 -0.359832,-0.518582 -0.1905,-0.275166 -0.370416,-0.518582 -0.179916,-0.243416 -0.306915,-0.391582 z"
       id="text3-2"
       aria-label="票　　種" /><path
       style="font-weight:bold;font-size:6.70591px;line-height:1;font-family:Helvetica;-inkscape-font-specification:'Helvetica Bold';stroke-width:0.167648"
       d="m 12.517471,54.591852 v 0.854611 h -1.443997 v 3.971811 H 10.058419 V 55.446463 H 8.607873 v -0.854611 z m 1.355589,0.83169 h -0.946293 v -0.861159 h 0.946293 z m -0.946293,0.425668 h 0.946293 v 3.569064 h -0.946293 z m 3.981634,1.280279 Q 16.882207,56.929753 16.774152,56.769308 16.616983,56.5532 16.286271,56.5532 q -0.471509,0 -0.645051,0.468235 -0.09168,0.248852 -0.09168,0.661423 0,0.392924 0.09168,0.631953 0.166993,0.445315 0.628679,0.445315 0.327437,0 0.464961,-0.176816 0.137523,-0.176816 0.166993,-0.458412 h 0.952841 q -0.03274,0.425668 -0.30779,0.805495 -0.438766,0.612307 -1.299925,0.612307 -0.86116,0 -1.267182,-0.510802 -0.406021,-0.510802 -0.406021,-1.32612 0,-0.920098 0.448588,-1.430899 0.448589,-0.510802 1.237712,-0.510802 0.671246,0 1.096914,0.301242 0.428943,0.301242 0.507528,1.06417 z m -0.631953,-1.375235 z m 2.220023,-1.14603 h 0.916823 v 2.59985 l 1.162402,-1.342492 h 1.155853 l -1.247535,1.365413 1.29665,2.187279 h -1.126383 l -0.854611,-1.525857 -0.386376,0.402748 v 1.123109 h -0.916823 z m 5.14731,1.915507 q -0.324163,0 -0.504253,0.203011 -0.176816,0.203011 -0.222658,0.550094 h 1.450546 q -0.02292,-0.370004 -0.225931,-0.559918 -0.199737,-0.193187 -0.497704,-0.193187 z m 0,-0.769477 q 0.445314,0 0.80222,0.166993 0.356907,0.166992 0.589387,0.527173 0.20956,0.317614 0.271773,0.736733 0.03602,0.245578 0.02947,0.707264 h -2.44268 q 0.01965,0.536997 0.33726,0.753106 0.193188,0.134249 0.46496,0.134249 0.288145,0 0.468235,-0.163719 0.09823,-0.08841 0.173542,-0.245578 h 0.952842 q -0.03602,0.317614 -0.330712,0.645051 -0.458411,0.520625 -1.283553,0.520625 -0.681069,0 -1.201694,-0.438765 -0.520624,-0.438766 -0.520624,-1.427626 0,-0.926647 0.468234,-1.421076 0.47151,-0.49443 1.221341,-0.49443 z m 0.06549,0 z m 1.889311,0.792397 v -0.664697 h 0.497705 v -0.995408 h 0.923372 v 0.995408 h 0.579564 v 0.664697 h -0.579564 v 1.886037 q 0,0.219383 0.05566,0.275048 0.05566,0.05239 0.340535,0.05239 0.04257,0 0.08841,0 0.04911,-0.0033 0.09496,-0.0065 v 0.697441 l -0.44204,0.01637 q -0.661423,0.02292 -0.903727,-0.229205 -0.157169,-0.160445 -0.157169,-0.49443 v -2.197103 z m 4.096238,0 v -0.664697 h 0.497704 v -0.995408 h 0.923372 v 0.995408 h 0.579564 v 0.664697 h -0.579564 v 1.886037 q 0,0.219383 0.05567,0.275048 0.05566,0.05239 0.340534,0.05239 0.04257,0 0.08841,0 0.04912,-0.0033 0.09496,-0.0065 v 0.697441 l -0.44204,0.01637 q -0.661423,0.02292 -0.903726,-0.229205 -0.15717,-0.160445 -0.15717,-0.49443 v -2.197103 z m 2.743921,3.555966 0.117878,0.0065 q 0.137523,0.0065 0.261949,-0.0098 0.124426,-0.01637 0.20956,-0.07531 0.08186,-0.05566 0.150621,-0.23248 0.07204,-0.176816 0.05894,-0.216108 L 31.927937,55.84921 h 1.037975 l 0.7793,2.632594 0.736733,-2.632594 h 0.992134 l -1.224614,3.510125 q -0.353632,1.015055 -0.559917,1.257358 -0.206286,0.245578 -0.825142,0.245578 -0.124426,0 -0.199736,-0.0033 -0.07531,0 -0.225932,-0.0098 z m 1.263907,-4.348363 z m 4.780582,1.879488 q 0,-0.41257 -0.189913,-0.730184 -0.186639,-0.317614 -0.609033,-0.317614 -0.507527,0 -0.697441,0.481332 -0.09823,0.255401 -0.09823,0.648325 0,0.622131 0.330711,0.874257 0.196463,0.147347 0.464961,0.147347 0.38965,0 0.592661,-0.301242 0.206285,-0.301242 0.206285,-0.802221 z m -0.530448,-1.863116 q 0.625405,0 1.057622,0.461686 0.435491,0.461686 0.435491,1.355589 0,0.943019 -0.425668,1.437448 -0.422394,0.49443 -1.090365,0.49443 -0.425668,0 -0.707264,-0.212834 -0.153896,-0.117877 -0.301242,-0.343809 v 1.859843 H 35.99798 V 55.84921 h 0.893903 v 0.527174 q 0.150621,-0.23248 0.320889,-0.366729 0.311065,-0.239029 0.740007,-0.239029 z m 3.575613,0.753105 q -0.324163,0 -0.504253,0.203011 -0.176816,0.203011 -0.222657,0.550094 h 1.450546 q -0.02292,-0.370004 -0.225932,-0.559918 -0.199737,-0.193187 -0.497704,-0.193187 z m 0,-0.769477 q 0.445314,0 0.80222,0.166993 0.356907,0.166992 0.589387,0.527173 0.20956,0.317614 0.271773,0.736733 0.03602,0.245578 0.02947,0.707264 h -2.44268 q 0.01965,0.536997 0.33726,0.753106 0.193188,0.134249 0.464961,0.134249 0.288144,0 0.468235,-0.163719 0.09823,-0.08841 0.173541,-0.245578 H 43.1754 q -0.03602,0.317614 -0.330711,0.645051 -0.458412,0.520625 -1.283554,0.520625 -0.681069,0 -1.201693,-0.438765 -0.520625,-0.438766 -0.520625,-1.427626 0,-0.926647 0.468235,-1.421076 0.471509,-0.49443 1.22134,-0.49443 z m 0.06549,0 z"
       id="text4-3"
       aria-label="Ticket type" /><path
       d="m 59.052502,47.356887 q -0.578307,0 -0.993965,-0.397586 -0.397586,-0.415658 -0.397586,-1.048182 0,-0.650595 0.397586,-1.066254 0.415658,-0.415658 0.993965,-0.415658 0.59638,0 0.993966,0.415658 0.415658,0.415659 0.415658,1.066254 0,0.632524 -0.415658,1.048182 -0.397586,0.397586 -0.993966,0.397586 z m 0,7.120408 q -0.578307,0 -0.993965,-0.415659 -0.397586,-0.43373 -0.397586,-1.066254 0,-0.650595 0.397586,-1.048181 0.415658,-0.415659 0.993965,-0.415659 0.59638,0 0.993966,0.415659 0.415658,0.397586 0.415658,1.048181 0,0.632524 -0.415658,1.066254 -0.397586,0.415659 -0.993966,0.415659 z"
       id="text5"
       style="font-weight:500;font-size:18.0721px;line-height:1;font-family:'Noto Sans JP';-inkscape-font-specification:'Noto Sans JP Medium';text-align:center;text-anchor:middle;stroke-width:0.451804"
       aria-label=":" /><path
       style="font-weight:500;font-size:10.5833px;line-height:1;font-family:'Noto Sans TC';-inkscape-font-specification:'Noto Sans TC Medium';stroke-width:0.264583"
       d="m 12.058116,65.9071 h 5.598566 v 0.719664 h -5.598566 z m -0.211666,2.529408 h 6.032481 v 0.730248 H 11.84645 Z m -0.04233,3.947571 h 6.106564 v 0.730248 h -6.106564 z m 0.518582,-5.22815 h 5.16465 v 0.709081 h -5.16465 z m 0.96308,-2.127243 h 0.888997 v 3.725321 h -0.888997 z m 2.254243,0 h 0.888997 v 3.725321 h -0.888997 z m -1.132413,3.735905 h 0.878414 v 3.831154 h -0.878414 z m 2.010827,0.920747 H 17.3286 v 4.20157 q 0,0.338665 -0.08467,0.529165 -0.08467,0.190499 -0.317499,0.296332 -0.232832,0.09525 -0.613831,0.116416 -0.380999,0.02117 -0.931331,0.02117 -0.03175,-0.179916 -0.105833,-0.412749 -0.07408,-0.232832 -0.158749,-0.402165 0.370415,0.01058 0.687914,0.01058 0.328083,0.01058 0.423332,0 0.105833,0 0.148167,-0.04233 0.04233,-0.03175 0.04233,-0.126999 z m -3.989904,0 h 4.381486 v 0.730248 h -3.481906 v 4.444985 h -0.89958 z m 0.465665,1.375829 h 3.905238 v 0.645581 h -3.905238 z m -3.8205711,1.269996 0.8784138,0.201082 Q 9.7615404,73.198993 9.4334581,73.823408 9.1053758,74.447823 8.7455436,74.871155 8.6608772,74.797072 8.512711,74.691239 8.3751281,74.595989 8.2269619,74.500739 8.089379,74.416073 7.983546,74.352573 8.3433782,73.971574 8.6291273,73.431826 8.9148764,72.892078 9.0736259,72.331163 Z m 1.2911621,0.317499 0.740831,-0.328083 q 0.264583,0.391583 0.518582,0.867831 0.264583,0.465665 0.380999,0.804331 L 11.222036,74.37374 Q 11.147953,74.140907 11.01037,73.844575 10.872787,73.537659 10.703454,73.230743 10.534121,72.913244 10.364788,72.648662 Z M 9.4122915,68.193093 v 1.195912 h 1.3546625 v -1.195912 z m 0,1.95791 v 1.217079 h 1.3546625 v -1.217079 z m 0,-3.915821 v 1.195913 H 10.766954 V 66.235182 Z M 8.5550442,65.420268 h 3.1009068 v 6.752145 H 8.5550442 Z m 16.6263638,0.836081 v 0.941913 h 1.619245 v -0.941913 z m -2.412992,0 v 0.941913 h 1.566328 v -0.941913 z m -2.360076,0 v 0.941913 h 1.523995 v -0.941913 z m -0.931331,-0.761998 h 8.286724 v 2.476492 h -8.286724 z m 1.608662,4.963568 v 0.677331 h 5.048234 v -0.677331 z m 0,1.301746 v 0.687914 h 5.048234 v -0.687914 z m 0,-2.592909 v 0.666748 h 5.048234 v -0.666748 z m -1.005414,-0.666748 h 7.090811 v 4.603736 h -7.090811 z m 4.26507,5.164651 0.783164,-0.529165 q 0.603249,0.179916 1.21708,0.402165 0.613831,0.211666 1.164163,0.423332 0.560915,0.211666 0.952497,0.391582 l -1.068913,0.518582 Q 27.054652,74.691239 26.56782,74.479573 26.080988,74.27849 25.50949,74.056241 24.937992,73.844575 24.345327,73.664659 Z m -2.434159,-0.539749 0.920747,0.412749 q -0.433915,0.264582 -1.005413,0.518582 -0.571498,0.253999 -1.18533,0.465665 -0.603248,0.211666 -1.153579,0.370415 -0.07408,-0.105833 -0.211666,-0.253999 -0.127,-0.137583 -0.275166,-0.275166 -0.137583,-0.137583 -0.253999,-0.222249 0.571498,-0.105833 1.153579,-0.264582 0.582082,-0.15875 1.111247,-0.349249 0.529165,-0.201083 0.89958,-0.402166 z m 8.731223,-7.418893 h 7.133143 v 8.985222 h -1.079496 v -7.969225 h -5.027067 v 8.011558 h -1.02658 z m 0.687914,3.619489 h 5.820815 v 0.99483 h -5.820815 z m -0.01058,3.704155 h 5.841981 v 1.005413 h -5.841981 z m 14.62612,-7.50356 h 2.846907 v 0.910164 h -2.846907 z m 0,2.412992 h 2.846907 v 0.888998 h -2.846907 z m -0.01058,2.455326 h 2.868074 v 0.89958 h -2.868074 z m 2.412992,-4.868318 h 0.973663 v 8.138558 q 0,0.402165 -0.09525,0.624414 -0.09525,0.222249 -0.349249,0.349249 -0.243416,0.116416 -0.645581,0.148166 -0.402166,0.04233 -0.994831,0.03175 -0.02117,-0.201083 -0.105833,-0.486832 -0.08467,-0.275165 -0.190499,-0.465665 0.391582,0.01058 0.740831,0.01058 0.349249,0 0.455082,0 0.116416,-0.01058 0.158749,-0.05292 0.05292,-0.04233 0.05292,-0.169333 z m -2.825741,0 h 0.941913 v 3.862904 q 0,0.624415 -0.04233,1.34408 -0.03175,0.719664 -0.137583,1.460495 -0.105833,0.740831 -0.317499,1.439329 -0.211666,0.698497 -0.560914,1.259412 -0.08467,-0.09525 -0.232833,-0.211666 -0.148166,-0.116416 -0.306916,-0.222249 -0.148166,-0.09525 -0.264582,-0.137583 0.433915,-0.698498 0.624414,-1.555745 0.201083,-0.857247 0.243416,-1.735661 0.05292,-0.878414 0.05292,-1.640412 z m -5.566816,0.836081 h 5.122317 v 0.878414 h -5.122317 z m 1.301746,1.682744 h 2.624658 v 0.783165 H 41.25744 Z m 0.01058,1.661578 h 2.614075 v 0.793748 h -2.614075 z m -1.439328,1.703912 h 5.217566 v 0.878414 h -5.217566 z m 0.99483,-6.265314 h 0.910164 v 6.603979 h -0.910164 z m 2.571742,0 h 0.93133 v 6.603979 h -0.93133 z m -2.169577,7.31306 0.952497,0.264583 q -0.285749,0.592665 -0.719664,1.174746 -0.423332,0.571498 -0.857248,0.96308 -0.08467,-0.08467 -0.232832,-0.201082 -0.148166,-0.105833 -0.306916,-0.211666 -0.148166,-0.105833 -0.264582,-0.169333 0.433915,-0.349249 0.814914,-0.825497 0.391582,-0.486832 0.613831,-0.994831 z m 1.545162,0.391582 0.772581,-0.423332 q 0.211666,0.232833 0.433915,0.518582 0.222249,0.275166 0.412749,0.550332 0.201082,0.275166 0.306915,0.497415 l -0.814914,0.476248 Q 43.786849,74.24674 43.596349,73.960991 43.416433,73.685825 43.194184,73.389493 42.982518,73.09316 42.770852,72.849744 Z"
       id="text3-2-7"
       aria-label="購買日期" /><path
       style="font-weight:bold;font-size:6.70591px;line-height:1;font-family:Helvetica;-inkscape-font-specification:'Helvetica Bold';stroke-width:0.167648"
       d="m 11.382252,79.330001 q 0,-0.376553 -0.199737,-0.536997 Q 10.986053,78.63256 10.629147,78.63256 H 9.6894024 v 1.421077 h 0.9397446 q 0.356906,0 0.553368,-0.173542 0.199737,-0.173542 0.199737,-0.550094 z m 0.998683,-0.0065 q 0,0.854611 -0.432217,1.208243 -0.432217,0.353632 -1.234438,0.353632 H 9.6894024 v 1.735416 H 8.6874451 v -4.826422 h 2.1021459 q 0.72691,0 1.159127,0.373278 0.432217,0.373279 0.432217,1.155853 z m 1.61099,-0.271773 v 2.151261 q 0,0.304517 0.07204,0.458412 0.1277,0.271773 0.500979,0.271773 0.478058,0 0.654874,-0.386376 0.09168,-0.209559 0.09168,-0.553368 v -1.941702 h 0.946293 v 3.569064 h -0.907 V 82.11649 q -0.0131,0.01637 -0.06549,0.09823 -0.05239,0.08186 -0.124426,0.144072 -0.219383,0.196462 -0.425668,0.268499 -0.203011,0.07204 -0.478058,0.07204 -0.792398,0 -1.067445,-0.569741 -0.153895,-0.314339 -0.153895,-0.926647 v -2.151261 z m 0.654874,-0.09496 z m 4.449869,0.0098 q 0.02619,0 0.04257,0.0033 0.01965,0 0.08186,0.0033 v 0.956116 q -0.08841,-0.0098 -0.15717,-0.0131 -0.06876,-0.0033 -0.111328,-0.0033 -0.563192,0 -0.75638,0.366729 -0.108054,0.206285 -0.108054,0.635228 v 1.705947 h -0.939744 v -3.569064 h 0.890629 v 0.622131 q 0.216108,-0.356907 0.376552,-0.487882 0.26195,-0.219382 0.681069,-0.219382 z m 2.802861,1.365412 q -0.0262,-0.199737 -0.13425,-0.360181 -0.157169,-0.216108 -0.487881,-0.216108 -0.471509,0 -0.645051,0.468235 -0.09168,0.248852 -0.09168,0.661423 0,0.392924 0.09168,0.631953 0.166993,0.445314 0.628679,0.445314 0.327437,0 0.464961,-0.176816 0.137523,-0.176816 0.166993,-0.458411 h 0.952842 q -0.03274,0.425668 -0.307791,0.805495 -0.438766,0.612307 -1.299925,0.612307 -0.86116,0 -1.267182,-0.510802 -0.406021,-0.510802 -0.406021,-1.32612 0,-0.920098 0.448588,-1.4309 0.448589,-0.510801 1.237712,-0.510801 0.671246,0 1.096914,0.301242 0.428943,0.301242 0.507528,1.06417 z m -0.631954,-1.375235 z m 4.197743,0.0033 q 0.330712,0 0.59921,0.114603 0.271773,0.114603 0.445314,0.350357 0.147347,0.199737 0.180091,0.412571 0.03274,0.20956 0.03274,0.687618 v 2.095597 h -0.952842 v -2.170908 q 0,-0.288144 -0.09823,-0.46496 -0.127701,-0.248852 -0.484607,-0.248852 -0.370004,0 -0.563192,0.248852 -0.189913,0.245578 -0.189913,0.703989 v 1.931879 h -0.929921 v -4.81005 h 0.929921 v 1.705947 q 0.203011,-0.311065 0.468235,-0.432217 0.268498,-0.124426 0.563191,-0.124426 z m 4.096237,1.92533 q -0.08841,0.05566 -0.180091,0.09168 -0.08841,0.03274 -0.245578,0.06221 l -0.209559,0.03929 q -0.294694,0.05239 -0.422394,0.127701 -0.216108,0.1277 -0.216108,0.396199 0,0.239029 0.130974,0.347083 0.13425,0.10478 0.324163,0.10478 0.301242,0 0.553369,-0.176816 0.255401,-0.176816 0.265224,-0.645051 z m -0.566466,-0.435492 q 0.258675,-0.03274 0.370003,-0.08186 0.199737,-0.08513 0.199737,-0.265224 0,-0.219383 -0.153895,-0.301242 -0.150621,-0.08513 -0.445315,-0.08513 -0.330711,0 -0.468235,0.163719 -0.09823,0.121152 -0.130975,0.327437 h -0.900451 q 0.02947,-0.468235 0.261949,-0.769477 0.370004,-0.471509 1.270456,-0.471509 0.586112,0 1.04125,0.23248 0.455137,0.23248 0.455137,0.877531 v 1.637185 q 0,0.170267 0.0065,0.412571 0.0098,0.183365 0.05566,0.248852 0.04584,0.06549 0.137524,0.108054 v 0.137524 h -1.015055 q -0.04257,-0.108054 -0.05894,-0.203011 -0.01637,-0.09496 -0.0262,-0.216109 -0.193188,0.20956 -0.445314,0.356907 -0.301242,0.173541 -0.681069,0.173541 -0.484607,0 -0.802221,-0.275047 -0.314339,-0.278321 -0.314339,-0.785849 0,-0.658148 0.507527,-0.952841 0.278322,-0.160444 0.818593,-0.229206 z m 0.04912,-1.493112 z m 3.005872,2.524539 q 0.02947,0.248852 0.1277,0.353632 0.173542,0.186639 0.641777,0.186639 0.275047,0 0.435491,-0.08186 0.163719,-0.08186 0.163719,-0.245578 0,-0.15717 -0.130975,-0.239029 -0.130975,-0.08186 -0.972488,-0.281596 -0.605759,-0.150621 -0.854611,-0.376552 -0.248852,-0.222658 -0.248852,-0.641777 0,-0.49443 0.386376,-0.848062 0.38965,-0.356906 1.093639,-0.356906 0.667972,0 1.087091,0.268498 0.422394,0.265224 0.484607,0.920098 h -0.933195 q -0.01965,-0.18009 -0.101506,-0.28487 -0.153895,-0.189914 -0.523899,-0.189914 -0.304517,0 -0.435491,0.09496 -0.127701,0.09496 -0.127701,0.222657 0,0.160445 0.137524,0.232481 0.137523,0.07531 0.972488,0.258675 0.556643,0.130975 0.834964,0.396199 0.275047,0.268498 0.275047,0.671246 0,0.530448 -0.396199,0.867708 -0.392924,0.333985 -1.218065,0.333985 -0.841514,0 -1.244261,-0.353631 -0.399473,-0.356907 -0.399473,-0.907001 z m 0.713812,-2.524539 z m 3.696766,0.769477 q -0.324163,0 -0.504253,0.20301 -0.176816,0.203011 -0.222657,0.550095 H 37.18429 Q 37.161369,80.109301 36.958358,79.919387 36.758622,79.7262 36.460654,79.7262 Z m 0,-0.769477 q 0.445314,0 0.802221,0.166992 0.356906,0.166993 0.589386,0.527174 0.20956,0.317614 0.271773,0.736733 0.03602,0.245578 0.02947,0.707264 h -2.442681 q 0.01965,0.536997 0.33726,0.753105 0.193188,0.13425 0.464961,0.13425 0.288145,0 0.468235,-0.163719 0.09823,-0.08841 0.173542,-0.245578 h 0.952841 q -0.03602,0.317614 -0.330711,0.645051 -0.458412,0.520625 -1.283553,0.520625 -0.681069,0 -1.201694,-0.438765 -0.520625,-0.438766 -0.520625,-1.427626 0,-0.926647 0.468235,-1.421077 0.471509,-0.494429 1.22134,-0.494429 z m 0.06549,0 z m 5.435453,0.0098 q 0.324162,0 0.576289,0.144072 0.252126,0.140798 0.409296,0.392924 V 77.80087 h 0.946293 v 4.819873 h -0.907001 v -0.49443 q -0.199736,0.317614 -0.455137,0.461686 -0.255401,0.144072 -0.635228,0.144072 -0.625405,0 -1.054347,-0.504253 -0.425668,-0.507527 -0.425668,-1.299925 0,-0.913549 0.419119,-1.437448 0.422394,-0.523899 1.126384,-0.523899 z m 0.20301,2.979677 q 0.396199,0 0.602485,-0.294694 0.206285,-0.294693 0.206285,-0.762928 0,-0.654874 -0.330711,-0.93647 -0.203011,-0.170267 -0.47151,-0.170267 -0.409296,0 -0.602484,0.311065 -0.189913,0.307791 -0.189913,0.766203 0,0.49443 0.193187,0.792397 0.196463,0.294694 0.592661,0.294694 z m 4.544826,-1.060896 q -0.08841,0.05566 -0.18009,0.09168 -0.08841,0.03274 -0.245578,0.06221 l -0.209559,0.03929 q -0.294694,0.05239 -0.422394,0.127701 -0.216109,0.1277 -0.216109,0.396199 0,0.239029 0.130975,0.347083 0.134249,0.10478 0.324163,0.10478 0.301242,0 0.553368,-0.176816 0.255401,-0.176816 0.265224,-0.645051 z m -0.566466,-0.435492 q 0.258676,-0.03274 0.370004,-0.08186 0.199737,-0.08513 0.199737,-0.265224 0,-0.219383 -0.153896,-0.301242 -0.150621,-0.08513 -0.445314,-0.08513 -0.330711,0 -0.468235,0.163719 -0.09823,0.121152 -0.130975,0.327437 h -0.900452 q 0.02947,-0.468235 0.26195,-0.769477 0.370004,-0.471509 1.270456,-0.471509 0.586112,0 1.041249,0.23248 0.455138,0.23248 0.455138,0.877531 v 1.637185 q 0,0.170267 0.0065,0.412571 0.0098,0.183365 0.05566,0.248852 0.04584,0.06549 0.137523,0.108054 v 0.137524 h -1.015054 q -0.04257,-0.108054 -0.05894,-0.203011 -0.01637,-0.09496 -0.02619,-0.216109 -0.193188,0.20956 -0.445314,0.356907 -0.301242,0.173541 -0.681069,0.173541 -0.484607,0 -0.802221,-0.275047 -0.31434,-0.278321 -0.31434,-0.785849 0,-0.658148 0.507528,-0.952841 0.278321,-0.160444 0.818592,-0.229206 z m 0.04912,-1.493112 z m 1.912232,0.792397 v -0.664697 h 0.497704 v -0.995409 h 0.923373 v 0.995409 h 0.579563 V 79.74912 H 49.52539 v 1.886037 q 0,0.219383 0.05566,0.275047 0.05566,0.05239 0.340534,0.05239 0.04257,0 0.08841,0 0.04912,-0.0033 0.09496,-0.0065 v 0.697441 l -0.44204,0.01637 q -0.661423,0.02292 -0.903726,-0.229206 -0.15717,-0.160444 -0.15717,-0.494429 V 79.74912 Z m 4.007828,-0.02292 q -0.324162,0 -0.504253,0.20301 -0.176816,0.203011 -0.222657,0.550095 h 1.450546 Q 52.812857,80.109301 52.609846,79.919387 52.410109,79.7262 52.112141,79.7262 Z m 0,-0.769477 q 0.445315,0 0.802221,0.166992 0.356907,0.166993 0.589387,0.527174 0.20956,0.317614 0.271773,0.736733 0.03602,0.245578 0.02947,0.707264 h -2.44268 q 0.01965,0.536997 0.33726,0.753105 0.193188,0.13425 0.46496,0.13425 0.288145,0 0.468235,-0.163719 0.09823,-0.08841 0.173542,-0.245578 h 0.952842 q -0.03602,0.317614 -0.330712,0.645051 -0.458412,0.520625 -1.283553,0.520625 -0.681069,0 -1.201694,-0.438765 -0.520625,-0.438766 -0.520625,-1.427626 0,-0.926647 0.468235,-1.421077 0.47151,-0.494429 1.22134,-0.494429 z m 0.06549,0 z"
       id="text4-3-2"
       aria-label="Purchase date" /><path
       d="m 58.70641,70.559352 q -0.578307,0 -0.993965,-0.397586 -0.397586,-0.415658 -0.397586,-1.048182 0,-0.650595 0.397586,-1.066254 0.415658,-0.415658 0.993965,-0.415658 0.59638,0 0.993966,0.415658 0.415658,0.415659 0.415658,1.066254 0,0.632524 -0.415658,1.048182 -0.397586,0.397586 -0.993966,0.397586 z m 0,7.120408 q -0.578307,0 -0.993965,-0.415659 -0.397586,-0.43373 -0.397586,-1.066254 0,-0.650595 0.397586,-1.048181 0.415658,-0.415659 0.993965,-0.415659 0.59638,0 0.993966,0.415659 0.415658,0.397586 0.415658,1.048181 0,0.632524 -0.415658,1.066254 -0.397586,0.415659 -0.993966,0.415659 z"
       id="text5-7"
       style="font-weight:500;font-size:18.0721px;line-height:1;font-family:'Noto Sans JP';-inkscape-font-specification:'Noto Sans JP Medium';text-align:center;text-anchor:middle;stroke-width:0.451804"
       aria-label=":" /><path
       style="font-weight:500;font-size:10.5833px;line-height:1;font-family:'Noto Sans TC';-inkscape-font-specification:'Noto Sans TC Medium';stroke-width:0.264583"
       d="m 8.6820438,93.815358 h 4.9953172 v 0.878413 H 8.6820438 Z m 2.0214102,-1.047747 h 0.941914 v 4.16982 H 10.703454 Z M 8.3116283,96.725765 Q 8.9995428,96.619932 9.8885399,96.471766 10.78812,96.3236 11.782951,96.143683 q 1.005413,-0.179916 2.000243,-0.359832 l 0.0635,0.878414 q -0.941914,0.179916 -1.894411,0.359832 -0.952497,0.179916 -1.83091,0.338666 -0.867831,0.169333 -1.5874954,0.296332 z m 0.105833,-7.757559 H 13.899611 V 89.84662 H 8.4174613 Z m 3.1961567,1.492246 0.719664,-0.423332 q 0.285749,0.349248 0.582082,0.761997 0.306915,0.412749 0.560915,0.814914 0.264582,0.391582 0.412748,0.698498 l -0.761997,0.507998 q -0.137583,-0.317499 -0.391582,-0.719664 -0.254,-0.412749 -0.550332,-0.836081 -0.285749,-0.433915 -0.571498,-0.80433 z m 2.793991,-1.206497 h 0.93133 v 6.424063 h -0.93133 z m 2.063743,-0.793747 h 0.973664 v 8.27614 q 0,0.433916 -0.105833,0.656165 -0.09525,0.232832 -0.359832,0.359832 -0.275166,0.105833 -0.709081,0.137583 -0.433916,0.04233 -1.037164,0.04233 -0.03175,-0.201083 -0.137583,-0.486832 -0.105833,-0.285749 -0.222249,-0.486831 0.455082,0.01058 0.836081,0.02117 0.391582,0 0.529165,0 0.137583,-0.01058 0.179916,-0.05292 0.05292,-0.05292 0.05292,-0.1905 z m -7.5141424,4.20157 Q 8.936043,92.566528 8.8725432,92.397195 8.8196267,92.227863 8.7561269,92.047946 8.7032104,91.86803 8.6397106,91.751614 q 0.1164163,-0.04233 0.2434159,-0.158749 0.1269996,-0.127 0.2645825,-0.306916 0.084666,-0.127 0.2751658,-0.444499 0.1904994,-0.317499 0.4021653,-0.751414 0.2222489,-0.433915 0.3809989,-0.878414 l 0.96308,0.370416 q -0.211666,0.465665 -0.486832,0.93133 -0.264582,0.465665 -0.560914,0.888997 -0.2963329,0.423332 -0.5820819,0.751414 v 0.02117 q 0,0 -0.09525,0.05292 -0.084666,0.04233 -0.2010827,0.116416 -0.105833,0.07408 -0.2010827,0.169333 -0.084666,0.08467 -0.084666,0.148166 z m 0,0 -0.010583,-0.698498 0.4868318,-0.306916 3.3972389,-0.253999 q 0.08467,0.1905 0.201083,0.412749 0.127,0.211666 0.222249,0.370415 -1.05833,0.09525 -1.788577,0.15875 -0.719665,0.0635 -1.174747,0.116416 -0.4444983,0.04233 -0.7090807,0.07408 -0.2645825,0.03175 -0.4021654,0.0635 -0.1269996,0.03175 -0.2222493,0.0635 z M 24.779243,88.809457 h 2.846907 v 0.910164 h -2.846907 z m 0,2.412992 h 2.846907 v 0.888997 h -2.846907 z m -0.01058,2.455326 h 2.868074 v 0.89958 h -2.868074 z m 2.412993,-4.868318 h 0.973663 v 8.138557 q 0,0.402166 -0.09525,0.624415 -0.09525,0.222249 -0.349248,0.349249 -0.243416,0.116416 -0.645582,0.148166 -0.402165,0.04233 -0.99483,0.03175 -0.02117,-0.201083 -0.105833,-0.486832 -0.08467,-0.275166 -0.190499,-0.465665 0.391582,0.01058 0.740831,0.01058 0.349249,0 0.455082,0 0.116416,-0.01058 0.158749,-0.05292 0.05292,-0.04233 0.05292,-0.169333 z m -2.825741,0 h 0.941913 v 3.862904 q 0,0.624415 -0.04233,1.344079 -0.03175,0.719665 -0.137583,1.460496 -0.105833,0.740831 -0.317499,1.439328 -0.211666,0.698498 -0.560915,1.259413 -0.08467,-0.09525 -0.232832,-0.211666 -0.148167,-0.116416 -0.306916,-0.222249 -0.148166,-0.09525 -0.264583,-0.137583 0.433916,-0.698498 0.624415,-1.555745 0.201083,-0.857248 0.243416,-1.735661 0.05292,-0.878414 0.05292,-1.640412 z m -5.566816,0.83608 h 5.122317 v 0.878414 h -5.122317 z m 1.301746,1.682745 h 2.624658 v 0.783164 h -2.624658 z m 0.01058,1.661578 h 2.614075 v 0.793748 h -2.614075 z m -1.439329,1.703911 h 5.217567 v 0.878414 h -5.217567 z m 0.994831,-6.265313 h 0.910163 v 6.603979 h -0.910163 z m 2.571741,0 h 0.931331 v 6.603979 h -0.931331 z m -2.169576,7.31306 0.952497,0.264583 q -0.285749,0.592664 -0.719665,1.174746 -0.423331,0.571498 -0.857247,0.96308 -0.08467,-0.08467 -0.232832,-0.201083 -0.148167,-0.105833 -0.306916,-0.211666 -0.148166,-0.105833 -0.264583,-0.169332 0.433916,-0.349249 0.814915,-0.825498 0.391582,-0.486832 0.613831,-0.99483 z m 1.545162,0.391582 0.772581,-0.423332 q 0.211666,0.232833 0.433915,0.518582 0.222249,0.275166 0.412748,0.550331 0.201083,0.275166 0.306916,0.497416 l -0.814914,0.476248 Q 22.620249,97.530096 22.42975,97.244347 22.249834,96.969181 22.027585,96.672848 21.815919,96.376516 21.604253,96.1331 Z m 9.038138,-7.143727 h 7.133143 v 8.985221 H 36.696038 V 90.00537 h -5.027067 v 8.011557 h -1.02658 z m 0.687914,3.619488 h 5.820815 v 0.994831 h -5.820815 z m -0.01058,3.704155 h 5.841981 v 1.005414 h -5.841981 z m 14.62612,-7.503559 h 2.846907 v 0.910164 h -2.846907 z m 0,2.412992 h 2.846907 v 0.888997 h -2.846907 z m -0.01058,2.455326 h 2.868074 v 0.89958 h -2.868074 z m 2.412992,-4.868318 h 0.973663 v 8.138557 q 0,0.402166 -0.09525,0.624415 -0.09525,0.222249 -0.349249,0.349249 -0.243416,0.116416 -0.645581,0.148166 -0.402166,0.04233 -0.994831,0.03175 -0.02117,-0.201083 -0.105833,-0.486832 -0.08467,-0.275166 -0.190499,-0.465665 0.391582,0.01058 0.740831,0.01058 0.349249,0 0.455082,0 0.116416,-0.01058 0.158749,-0.05292 0.05292,-0.04233 0.05292,-0.169333 z m -2.825741,0 h 0.941913 v 3.862904 q 0,0.624415 -0.04233,1.344079 -0.03175,0.719665 -0.137583,1.460496 -0.105833,0.740831 -0.317499,1.439328 -0.211666,0.698498 -0.560914,1.259413 -0.08467,-0.09525 -0.232833,-0.211666 -0.148166,-0.116416 -0.306916,-0.222249 -0.148166,-0.09525 -0.264582,-0.137583 0.433915,-0.698498 0.624414,-1.555745 0.201083,-0.857248 0.243416,-1.735661 0.05292,-0.878414 0.05292,-1.640412 z m -5.566816,0.83608 h 5.122317 v 0.878414 h -5.122317 z m 1.301746,1.682745 h 2.624658 v 0.783164 H 41.25744 Z m 0.01058,1.661578 h 2.614075 v 0.793748 h -2.614075 z m -1.439328,1.703911 h 5.217566 v 0.878414 h -5.217566 z m 0.99483,-6.265313 h 0.910164 v 6.603979 h -0.910164 z m 2.571742,0 h 0.93133 v 6.603979 h -0.93133 z m -2.169577,7.31306 0.952497,0.264583 q -0.285749,0.592664 -0.719664,1.174746 -0.423332,0.571498 -0.857248,0.96308 -0.08467,-0.08467 -0.232832,-0.201083 -0.148166,-0.105833 -0.306916,-0.211666 -0.148166,-0.105833 -0.264582,-0.169332 0.433915,-0.349249 0.814914,-0.825498 0.391582,-0.486832 0.613831,-0.99483 z m 1.545162,0.391582 0.772581,-0.423332 q 0.211666,0.232833 0.433915,0.518582 0.222249,0.275166 0.412749,0.550331 0.201082,0.275166 0.306915,0.497416 l -0.814914,0.476248 Q 43.786849,97.530096 43.596349,97.244347 43.416433,96.969181 43.194184,96.672848 42.982518,96.376516 42.770852,96.1331 Z"
       id="text3-2-7-6"
       aria-label="到期日期" /><path
       style="font-weight:bold;font-size:6.70591px;line-height:1;font-family:Helvetica;-inkscape-font-specification:'Helvetica Bold';stroke-width:0.167648"
       d="M 12.233588,101.93228 H 9.6795793 v 1.02488 h 2.3444487 v 0.83824 H 9.6795793 v 1.24098 h 2.6718857 v 0.86771 H 8.6939938 v -4.82642 h 3.5395942 z m 0.478058,3.97181 1.218066,-1.80745 -1.165676,-1.75506 h 1.142755 l 0.595936,1.0347 0.582838,-1.0347 h 1.110011 l -1.172224,1.73869 1.218065,1.82382 h -1.162401 l -0.615582,-1.07072 -0.618856,1.07072 z m 6.538917,-1.78453 q 0,-0.41257 -0.189913,-0.73019 -0.186639,-0.31761 -0.609033,-0.31761 -0.507527,0 -0.697441,0.48133 -0.09823,0.2554 -0.09823,0.64833 0,0.62213 0.330711,0.87426 0.196463,0.14734 0.464961,0.14734 0.38965,0 0.592661,-0.30124 0.206285,-0.30124 0.206285,-0.80222 z m -0.530448,-1.86312 q 0.625405,0 1.057622,0.46169 0.435491,0.46168 0.435491,1.35559 0,0.94302 -0.425668,1.43745 -0.422394,0.49443 -1.090365,0.49443 -0.425668,0 -0.707264,-0.21284 -0.153896,-0.11788 -0.301242,-0.34381 v 1.85985 h -0.923373 v -4.97377 h 0.893903 v 0.52717 q 0.150621,-0.23248 0.320889,-0.36673 0.311065,-0.23903 0.740007,-0.23903 z m 3.127024,-0.34708 h -0.946293 v -0.86116 h 0.946293 z m -0.946293,0.42567 h 0.946293 v 3.56906 h -0.946293 z m 3.788447,-0.0851 q 0.0262,0 0.04257,0.003 0.01965,0 0.08186,0.003 v 0.95612 q -0.08841,-0.01 -0.15717,-0.0131 -0.06876,-0.003 -0.111329,-0.003 -0.563191,0 -0.756379,0.36673 -0.108054,0.20628 -0.108054,0.63522 v 1.70595 h -0.939744 v -3.56906 h 0.890628 v 0.62213 q 0.216109,-0.35691 0.376553,-0.48788 0.261949,-0.21939 0.681069,-0.21939 z m 0.815317,4.33854 0.117878,0.007 q 0.137523,0.007 0.261949,-0.01 0.124426,-0.0164 0.20956,-0.0753 0.08186,-0.0557 0.150621,-0.23248 0.07204,-0.17682 0.05894,-0.21611 l -1.309748,-3.72623 h 1.037975 l 0.7793,2.63259 0.736733,-2.63259 h 0.992135 l -1.224615,3.51012 q -0.353632,1.01506 -0.559917,1.25736 -0.206285,0.24558 -0.825141,0.24558 -0.124426,0 -0.199737,-0.003 -0.07531,0 -0.225932,-0.01 z m 1.263907,-4.34836 z m 5.500943,0.01 q 0.324162,0 0.576289,0.14408 0.252126,0.14079 0.409296,0.39292 v -1.70267 h 0.946293 v 4.81987 h -0.907 v -0.49443 q -0.199737,0.31761 -0.455138,0.46169 -0.255401,0.14407 -0.635228,0.14407 -0.625404,0 -1.054347,-0.50425 -0.425668,-0.50753 -0.425668,-1.29993 0,-0.91355 0.419119,-1.43745 0.422394,-0.5239 1.126384,-0.5239 z m 0.203011,2.97968 q 0.396198,0 0.602484,-0.29469 0.206285,-0.2947 0.206285,-0.76293 0,-0.65488 -0.330711,-0.93647 -0.203011,-0.17027 -0.47151,-0.17027 -0.409296,0 -0.602484,0.31107 -0.189913,0.30779 -0.189913,0.7662 0,0.49443 0.193188,0.7924 0.196462,0.29469 0.592661,0.29469 z m 4.544826,-1.0609 q -0.08841,0.0557 -0.180091,0.0917 -0.08841,0.0327 -0.245578,0.0622 l -0.209559,0.0393 q -0.294694,0.0524 -0.422394,0.1277 -0.216109,0.1277 -0.216109,0.3962 0,0.23903 0.130975,0.34708 0.134249,0.10478 0.324163,0.10478 0.301242,0 0.553369,-0.17681 0.2554,-0.17682 0.265224,-0.64505 z m -0.566467,-0.43549 q 0.258676,-0.0327 0.370004,-0.0819 0.199737,-0.0851 0.199737,-0.26522 0,-0.21938 -0.153896,-0.30124 -0.150621,-0.0851 -0.445314,-0.0851 -0.330711,0 -0.468235,0.16372 -0.09823,0.12115 -0.130975,0.32744 H 34.9217 q 0.02947,-0.46823 0.261949,-0.76948 0.370004,-0.47151 1.270456,-0.47151 0.586112,0 1.04125,0.23248 0.455137,0.23248 0.455137,0.87754 v 1.63718 q 0,0.17027 0.0065,0.41257 0.0098,0.18337 0.05566,0.24885 0.04584,0.0655 0.137524,0.10806 v 0.13752 h -1.015055 q -0.04257,-0.10805 -0.05894,-0.20301 -0.01637,-0.095 -0.02619,-0.21611 -0.193188,0.20956 -0.445314,0.35691 -0.301242,0.17354 -0.681069,0.17354 -0.484607,0 -0.802221,-0.27505 -0.314339,-0.27832 -0.314339,-0.78585 0,-0.65814 0.507527,-0.95284 0.278321,-0.16044 0.818593,-0.2292 z m 0.04912,-1.49311 z m 1.912232,0.7924 v -0.6647 h 0.497704 v -0.99541 h 0.923373 v 0.99541 h 0.579563 v 0.6647 h -0.579563 v 1.88604 q 0,0.21938 0.05566,0.27504 0.05566,0.0524 0.340534,0.0524 0.04257,0 0.08841,0 0.04912,-0.003 0.09496,-0.007 v 0.69744 l -0.44204,0.0164 q -0.661423,0.0229 -0.903726,-0.22921 -0.15717,-0.16044 -0.15717,-0.49443 v -2.1971 z m 4.007829,-0.0229 q -0.324163,0 -0.504253,0.20301 -0.176816,0.20301 -0.222658,0.55009 h 1.450546 q -0.02292,-0.37 -0.225931,-0.55991 -0.199737,-0.19319 -0.497704,-0.19319 z m 0,-0.76948 q 0.445314,0 0.80222,0.16699 0.356907,0.167 0.589387,0.52718 0.20956,0.31761 0.271773,0.73673 0.03602,0.24558 0.02947,0.70726 h -2.44268 q 0.01965,0.537 0.33726,0.75311 0.193188,0.13425 0.464961,0.13425 0.288144,0 0.468234,-0.16372 0.09823,-0.0884 0.173542,-0.24558 h 0.952842 q -0.03602,0.31762 -0.330712,0.64505 -0.458411,0.52063 -1.283553,0.52063 -0.681069,0 -1.201694,-0.43877 -0.520624,-0.43876 -0.520624,-1.42762 0,-0.92665 0.468235,-1.42108 0.471509,-0.49443 1.22134,-0.49443 z m 0.06549,0 z"
       id="text4-3-2-0"
       aria-label="Expiry date" /><path
       d="m 58.70641,93.842716 q -0.578307,0 -0.993965,-0.397587 -0.397586,-0.415658 -0.397586,-1.048181 0,-0.650596 0.397586,-1.066254 0.415658,-0.415659 0.993965,-0.415659 0.59638,0 0.993966,0.415659 0.415658,0.415658 0.415658,1.066254 0,0.632523 -0.415658,1.048181 -0.397586,0.397587 -0.993966,0.397587 z m 0,7.120404 q -0.578307,0 -0.993965,-0.41566 -0.397586,-0.43373 -0.397586,-1.066249 0,-0.650596 0.397586,-1.048182 0.415658,-0.415658 0.993965,-0.415658 0.59638,0 0.993966,0.415658 0.415658,0.397586 0.415658,1.048182 0,0.632519 -0.415658,1.066249 -0.397586,0.41566 -0.993966,0.41566 z"
       id="text5-7-8"
       style="font-weight:500;font-size:18.0721px;line-height:1;font-family:'Noto Sans JP';-inkscape-font-specification:'Noto Sans JP Medium';text-align:center;text-anchor:middle;stroke-width:0.451804"
       aria-label=":" /></g></svg>
