<?xml version="1.0" encoding="UTF-8" standalone="no"?>
<!-- Created with Inkscape (http://www.inkscape.org/) -->

<svg
   width="800"
   height="450"
   viewBox="0 0 211.66667 119.0625"
   version="1.1"
   id="svg1"
   xml:space="preserve"
   inkscape:version="1.4.2 (f4327f4, 2025-05-13)"
   sodipodi:docname="summary_last.svg"
   xmlns:inkscape="http://www.inkscape.org/namespaces/inkscape"
   xmlns:sodipodi="http://sodipodi.sourceforge.net/DTD/sodipodi-0.dtd"
   xmlns="http://www.w3.org/2000/svg"
   xmlns:svg="http://www.w3.org/2000/svg"><sodipodi:namedview
     id="namedview1"
     pagecolor="#ffffff"
     bordercolor="#999999"
     borderopacity="1"
     inkscape:showpageshadow="0"
     inkscape:pageopacity="0"
     inkscape:pagecheckerboard="true"
     inkscape:deskcolor="#d1d1d1"
     inkscape:document-units="mm"
     inkscape:zoom="1.0167041"
     inkscape:cx="372.77317"
     inkscape:cy="190.32086"
     inkscape:window-width="1920"
     inkscape:window-height="1009"
     inkscape:window-x="1912"
     inkscape:window-y="-8"
     inkscape:window-maximized="1"
     inkscape:current-layer="layer1" /><defs
     id="defs1"><pattern
       id="EMFhbasepattern"
       patternUnits="userSpaceOnUse"
       width="6"
       height="6"
       x="0"
       y="0" /><rect
       x="8.3979025"
       y="14.69633"
       width="83.979027"
       height="96.225967"
       id="rect1" /><rect
       x="8.3979025"
       y="14.69633"
       width="83.979027"
       height="96.225967"
       id="rect1-8" /></defs><g
     inkscape:label="Layer 1"
     inkscape:groupmode="layer"
     id="layer1"><path
       style="font-weight:500;font-size:10.5833px;line-height:1;font-family:'Noto Sans TC';-inkscape-font-specification:'Noto Sans TC Medium';text-align:center;text-anchor:middle;stroke-width:0.264583"
       d="M 5.4725873,5.969576 H 15.00814 V 6.8797398 H 5.4725873 Z m 1.164163,3.4819056 H 9.5048245 V 10.213479 H 6.6367503 Z m 0,1.6721614 h 2.8680742 v 0.751414 H 6.6367503 Z M 11.240486,7.8322368 h 0.920747 V 12.181973 H 11.240486 Z M 9.1449923,7.7264038 H 10.118656 V 13.10272 q 0,0.349249 -0.09525,0.550332 -0.084666,0.201082 -0.3280821,0.306915 Q 9.451908,14.076384 9.0920758,14.09755 8.7322436,14.1293 8.2136619,14.1293 8.181912,13.938801 8.0866623,13.684801 q -0.09525,-0.253999 -0.2010827,-0.423332 0.3598322,0.01058 0.6667479,0.01058 0.3069157,0.01058 0.4127487,0 0.105833,-0.01058 0.1375829,-0.04233 0.042333,-0.04233 0.042333,-0.137583 z M 13.367729,7.5253211 h 0.99483 v 5.4715659 q 0,0.402165 -0.105833,0.613831 -0.105833,0.22225 -0.380999,0.338666 -0.264582,0.116416 -0.687914,0.148166 -0.423332,0.03175 -1.015997,0.03175 -0.04233,-0.201083 -0.148166,-0.486832 -0.105833,-0.275166 -0.211666,-0.465665 0.444498,0.01058 0.825497,0.02117 0.380999,0 0.507999,-0.01058 0.126999,-0.01058 0.169332,-0.04233 0.05292,-0.04233 0.05292,-0.158749 z M 7.0283323,4.6572469 7.970246,4.3291646 q 0.2963324,0.317499 0.5926648,0.7302476 0.2963324,0.4021654 0.4339153,0.7090811 L 8.0019959,6.1283255 Q 7.8855796,5.8319931 7.5998305,5.4192444 7.3246647,4.9959124 7.0283323,4.6572469 Z M 12.468148,4.2974147 13.547645,4.625497 Q 13.240729,5.1334953 12.902064,5.6309104 12.573981,6.1283255 12.277649,6.4881577 L 11.388652,6.1706587 Q 11.579151,5.9166595 11.780234,5.5885772 11.981317,5.2604949 12.161233,4.9218294 12.351732,4.5831638 12.468148,4.2974147 Z M 6.1605018,7.7264038 h 0.9101637 v 2.4976582 q 0,0.603249 -0.074083,1.322913 -0.0635,0.719664 -0.2539991,1.407579 Q 6.5520839,13.642468 6.1605018,14.182217 6.0864187,14.09755 5.9382525,13.981134 5.8006696,13.875301 5.6525034,13.769468 5.5043372,13.663635 5.3985042,13.610718 5.7477531,13.123887 5.9065026,12.541805 6.0652521,11.94914 6.1075853,11.345892 q 0.052916,-0.603248 0.052916,-1.132413 z m 0.5820815,0 H 9.6212408 V 8.5307345 H 6.7425833 Z M 20.278623,4.3397479 21.379287,4.5408306 Q 21.188787,5.4721609 20.903038,6.3505748 20.627872,7.2184054 20.26804,7.9804029 19.918791,8.7318172 19.506043,9.3138987 19.40021,9.2292323 19.20971,9.1233993 19.029794,9.006983 18.839295,8.90115 18.648795,8.795317 18.511212,8.7318172 18.934544,8.2238188 19.27321,7.5253211 19.611876,6.81624 19.865875,6.0013259 20.119874,5.1864118 20.278623,4.3397479 Z m 0.02117,1.7568277 h 4.413236 v 0.9842469 h -4.889484 z m 4.10632,0 h 0.148167 l 0.190499,-0.0635 0.740831,0.4127487 q -0.137583,0.5397483 -0.328082,1.0794966 -0.1905,0.5397482 -0.391582,1.02658 Q 24.56486,9.0387329 24.37436,9.4197317 24.268527,9.3668152 24.109778,9.2927321 23.951028,9.2080657 23.792279,9.1339826 23.644113,9.0598995 23.517113,9.006983 23.686446,8.6683174 23.855779,8.2132355 24.035695,7.7475704 24.173278,7.2501553 24.321444,6.7527402 24.40611,6.3294082 Z m -2.05316,2.3071593 q 0.22225,1.1535797 0.645581,2.1166601 0.423332,0.952497 1.100664,1.650995 0.687914,0.687914 1.682744,1.047746 -0.116416,0.09525 -0.243416,0.243416 -0.126999,0.15875 -0.243415,0.328082 -0.116417,0.169333 -0.1905,0.317499 -1.05833,-0.455081 -1.767411,-1.238246 Q 22.628116,12.07614 22.183617,10.98606 21.749702,9.8959802 21.48512,8.5413178 Z M 21.35812,7.451238 h 1.05833 v 0.9101637 q 0,0.5185817 -0.0635,1.1218298 -0.05292,0.5926645 -0.253999,1.2276625 -0.190499,0.624415 -0.582081,1.24883 -0.380999,0.613831 -1.026581,1.185329 -0.645581,0.571498 -1.619244,1.05833 -0.07408,-0.126999 -0.211666,-0.275166 -0.127,-0.148166 -0.275166,-0.296332 -0.137583,-0.148166 -0.264583,-0.232833 0.888998,-0.433915 1.481662,-0.93133 0.592665,-0.507998 0.941914,-1.047747 0.359832,-0.539748 0.529165,-1.079496 0.169333,-0.5503318 0.222249,-1.0477469 0.0635,-0.5079984 0.0635,-0.952497 z M 16.246386,5.9484094 h 2.846908 v 0.9630803 h -2.846908 z m -0.222249,4.3179866 h 3.354906 v 0.99483 h -3.354906 z m 16.531114,1.98966 h 2.804574 v 0.96308 H 32.555251 Z M 26.660353,6.2976583 h 3.979321 v 0.9736636 h -3.979321 z m 5.439816,-0.6879145 h 3.725322 V 13.896467 H 34.820077 V 6.5728241 h -1.756828 v 7.4083099 h -0.96308 z m -1.714494,0.6879145 h 0.973663 q 0,0 0,0.09525 0,0.084666 0,0.2010827 0,0.1164163 -0.01058,0.1904994 -0.03175,1.7356611 -0.0635,2.931574 -0.03175,1.1959129 -0.08467,1.9684939 -0.05292,0.761997 -0.137583,1.185329 -0.07408,0.412749 -0.201083,0.592665 -0.158749,0.232833 -0.338665,0.328082 -0.169333,0.105833 -0.423332,0.148167 -0.22225,0.03175 -0.560915,0.03175 -0.338666,0.01058 -0.698498,-0.01058 -0.01058,-0.222249 -0.09525,-0.507998 -0.07408,-0.285749 -0.201082,-0.497415 0.349248,0.02117 0.645581,0.03175 0.296332,0.01058 0.444498,0.01058 0.116417,0 0.201083,-0.03175 0.08467,-0.04233 0.148166,-0.148166 0.09525,-0.127 0.148166,-0.497415 0.0635,-0.380999 0.105833,-1.111247 0.05292,-0.730247 0.08467,-1.8732437 0.03175,-1.1535797 0.0635,-2.8151577 z M 28.057349,4.4879141 h 0.984247 q -0.01058,1.5028285 -0.05292,2.9209907 -0.04233,1.4075788 -0.222249,2.6564082 -0.169333,1.248829 -0.560915,2.285993 -0.391582,1.037163 -1.079497,1.820327 -0.08467,-0.126999 -0.211666,-0.264582 -0.126999,-0.127 -0.275165,-0.253999 -0.137583,-0.127 -0.264583,-0.201083 0.507998,-0.550332 0.825497,-1.269996 0.328083,-0.730248 0.497416,-1.587495 0.179916,-0.8678306 0.253999,-1.8520775 0.07408,-0.9842468 0.08467,-2.0531601 0.02117,-1.0794966 0.02117,-2.2013263 z m 12.149628,0.8784138 h 6.392313 v 0.8678306 h -6.392313 z m -0.465665,7.6834751 h 7.133143 v 0.857248 h -7.133143 z m 0.973663,-5.9372306 h 5.270483 V 13.250886 H 45.064711 V 7.87457 h -3.450155 v 5.376316 h -0.899581 z m 0.645581,1.5134118 h 3.894655 v 0.7196644 h -3.894655 z m -0.02117,1.4816618 h 4.127487 v 0.698498 H 41.33939 Z m -0.01058,1.471079 h 3.947571 v 0.719664 h -3.947571 z m 1.640412,-7.2283938 1.05833,0.042333 Q 43.942881,4.9218294 43.826465,5.4827442 43.720632,6.0436591 43.593633,6.5622408 43.477216,7.0702392 43.3608,7.451238 l -0.867831,-0.084666 q 0.09525,-0.4021654 0.1905,-0.9313304 0.09525,-0.529165 0.169333,-1.0794966 0.08467,-0.5503315 0.116416,-1.0054134 z m -3.608905,0.010583 0.920747,0.2857491 Q 39.952978,5.546244 39.519062,6.4352412 39.085147,7.3136551 38.566565,8.1074025 38.058567,8.8905667 37.518819,9.4938148 37.476485,9.3773985 37.370652,9.1868991 37.275403,8.9858164 37.16957,8.795317 37.063737,8.5942343 36.97907,8.477818 37.455319,7.9698196 37.889234,7.3136551 38.333733,6.6469072 38.714731,5.8954929 39.09573,5.1440786 39.360313,4.3609145 Z m -1.079497,2.8469076 0.920747,-0.952497 0.01058,0.010583 V 14.16105 H 38.280816 Z M 52.219022,4.8794962 h 4.635485 V 9.8113138 H 55.83851 V 5.9060762 h -3.619488 z m 0.730247,3.3972391 h 3.376073 v 0.9842469 h -3.376073 z m -0.507998,0 h 1.047747 v 4.2756527 q 0,0.317499 0.105833,0.412749 0.116416,0.09525 0.518581,0.09525 0.07408,0 0.243416,0 0.179916,0 0.391582,0 0.22225,0 0.455082,0 0.232833,0 0.412749,0 0.190499,0 0.285749,0 0.253999,0 0.370416,-0.116417 0.126999,-0.126999 0.179916,-0.486831 0.05292,-0.359832 0.08467,-1.047747 0.116416,0.08467 0.285749,0.169333 0.169333,0.08467 0.338666,0.158749 0.179916,0.0635 0.328082,0.09525 -0.05292,0.836081 -0.201083,1.312329 -0.148166,0.465665 -0.455082,0.656165 -0.306915,0.190499 -0.857247,0.190499 -0.08467,0 -0.285749,0 -0.190499,0 -0.455082,0 -0.253999,0 -0.518581,0 -0.254,0 -0.455082,0 -0.1905,0 -0.264583,0 -0.592665,0 -0.93133,-0.126999 -0.338666,-0.116417 -0.486832,-0.433916 -0.137583,-0.306915 -0.137583,-0.878414 z m -1.968494,0.2963324 0.751415,-0.2751658 q 0.169332,0.3386656 0.328082,0.7302477 0.158749,0.3915821 0.285749,0.7619976 0.127,0.3598318 0.190499,0.6349978 l -0.80433,0.338666 Q 51.160692,10.488645 51.044276,10.107646 50.927859,9.7266474 50.779693,9.324482 50.631527,8.9223166 50.472777,8.5730677 Z m -1.047746,2.7516583 0.814914,-0.1905 q 0.105833,0.571498 0.190499,1.238246 0.08467,0.656165 0.116416,1.142997 l -0.857247,0.201082 q 0,-0.328082 -0.04233,-0.740831 -0.04233,-0.412748 -0.105833,-0.83608 -0.05292,-0.433916 -0.116416,-0.814914 z m -1.227663,-0.09525 0.857247,0.137583 q -0.08467,0.698498 -0.243416,1.407579 -0.148166,0.698497 -0.328082,1.185329 -0.09525,-0.05292 -0.243416,-0.105833 -0.148166,-0.05292 -0.306916,-0.105833 -0.158749,-0.05292 -0.264582,-0.08467 0.201083,-0.476249 0.328082,-1.132413 0.127,-0.656165 0.201083,-1.301746 z M 47.996285,8.4037349 Q 47.975119,8.3084852 47.911619,8.1497357 47.858702,7.9804029 47.795203,7.8110702 47.742286,7.6311541 47.68937,7.5147378 47.837536,7.4829879 47.985702,7.3348217 48.133868,7.1760722 48.303201,6.9326563 48.387867,6.81624 48.5572,6.5516575 48.726533,6.287075 48.938199,5.9166595 49.149865,5.546244 49.350948,5.1334953 49.562614,4.7101634 49.731946,4.2762481 l 0.910164,0.3809988 q -0.423332,0.8784138 -0.973663,1.7462444 -0.539749,0.8572473 -1.09008,1.4922452 v 0.021167 q 0,0 -0.08467,0.052917 -0.08467,0.052916 -0.211666,0.1269996 -0.116416,0.074083 -0.201082,0.1587495 -0.08467,0.074083 -0.08467,0.1481662 z m 0,0 -0.03175,-0.7302476 0.444499,-0.2857491 1.915577,-0.1481662 q -0.04233,0.1904994 -0.07408,0.4339153 -0.02117,0.2328325 -0.02117,0.3809987 -0.645581,0.0635 -1.05833,0.1164163 -0.402165,0.052917 -0.634997,0.09525 -0.232833,0.03175 -0.359833,0.074083 -0.116416,0.03175 -0.179916,0.0635 z m 0.07408,2.4235761 q -0.02117,-0.09525 -0.08467,-0.264583 -0.05292,-0.179916 -0.116416,-0.359832 -0.0635,-0.179916 -0.127,-0.3069158 0.201083,-0.03175 0.391582,-0.2222493 Q 48.334951,9.4832315 48.599533,9.1974824 48.737116,9.0598995 49.001699,8.7318172 49.266281,8.3931516 49.58378,7.9380697 49.911862,7.4724046 50.239945,6.9432396 50.57861,6.4034913 50.843193,5.863743 l 0.857247,0.529165 q -0.412749,0.7196644 -0.920747,1.4287455 -0.497415,0.6984977 -1.037163,1.3334957 -0.529165,0.634998 -1.068914,1.1535798 v 0.03175 q 0,0 -0.09525,0.05292 -0.08467,0.04233 -0.211666,0.116417 -0.116417,0.07408 -0.211666,0.158749 -0.08467,0.08467 -0.08467,0.15875 z m 0,0 -0.05292,-0.761998 0.455082,-0.3069157 2.868074,-0.3915821 q -0.02117,0.1904994 -0.04233,0.4339153 -0.01058,0.2434155 0,0.3915825 -0.973664,0.158749 -1.576912,0.264582 -0.592665,0.09525 -0.920747,0.15875 -0.328082,0.0635 -0.486832,0.116416 -0.158749,0.04233 -0.243416,0.09525 z m 2.592909,0.275165 0.761997,-0.253999 q 0.179916,0.486832 0.359833,1.05833 0.190499,0.571498 0.275165,0.984247 l -0.793747,0.285749 Q 51.181858,12.753471 51.001942,12.17139 50.83261,11.589308 50.663277,11.102476 Z m 8.297305,-4.07457 H 61.55349 V 7.87457 H 58.960582 Z M 58.3785,8.8694001 h 3.608905 V 9.7266474 H 58.3785 Z m 0.05292,1.4287459 0.687914,-0.15875 q 0.116417,0.444499 0.232833,0.973664 0.116416,0.529165 0.169333,0.910163 l -0.719665,0.201083 q -0.03175,-0.402165 -0.137583,-0.93133 -0.105833,-0.539749 -0.232832,-0.99483 z m -0.232833,2.635241 q 0.709081,-0.105833 1.735661,-0.275166 1.037164,-0.169332 2.106077,-0.349249 l 0.05292,0.793748 q -0.96308,0.201083 -1.936743,0.391582 -0.973664,0.190499 -1.735662,0.338666 z m 3.23849,-2.889241 0.677331,0.179916 q -0.127,0.476249 -0.264582,0.994831 -0.127,0.507998 -0.243416,0.86783 l -0.539749,-0.158749 q 0.07408,-0.264583 0.137583,-0.592665 0.07408,-0.338666 0.137583,-0.677331 0.0635,-0.338666 0.09525,-0.613832 z M 59.891912,7.3771549 h 0.814914 v 5.6832321 l -0.814914,0.148166 z m 0.243416,-3.0585736 0.772581,0.2857491 Q 60.62216,5.2075784 60.219994,5.8108265 59.817829,6.4140746 59.352164,6.9432396 58.897082,7.4724046 58.41025,7.87457 58.399667,7.768737 58.336167,7.5888209 58.283251,7.4089048 58.209167,7.2184054 58.135084,7.0173227 58.071585,6.9114897 58.664249,6.4352412 59.225164,5.75791 59.786079,5.0699955 60.135328,4.3185813 Z M 59.987162,5.2604949 60.52691,4.6889968 q 0.328082,0.3069156 0.698498,0.6667478 0.380999,0.3598322 0.719664,0.6984978 0.349249,0.3386656 0.571498,0.5820815 L 61.945072,7.3030718 Q 61.733406,7.0384893 61.394741,6.6786571 61.056075,6.3188249 60.68566,5.9484094 60.315244,5.5674106 59.987162,5.2604949 Z m 7.196644,4.1592368 0.677331,0.5609149 q -0.328083,0.3598324 -0.709081,0.7302474 -0.380999,0.359832 -0.687915,0.613832 L 65.91381,10.816727 q 0.201082,-0.179916 0.433915,-0.423332 0.232832,-0.243416 0.455082,-0.4974148 0.222249,-0.2645825 0.380999,-0.4762485 z m -4.815402,0.4974151 0.656165,-0.4762485 q 0.306916,0.2963324 0.634998,0.6773307 0.338665,0.370416 0.518581,0.634998 l -0.698497,0.539749 q -0.105833,-0.179916 -0.296333,-0.423332 -0.190499,-0.243416 -0.402165,-0.497415 -0.211666,-0.254 -0.412749,-0.4550822 z m 1.280579,-4.6672352 h 2.836325 v 0.7725809 h -2.836325 z m -0.328082,1.587495 h 2.920991 V 7.6205708 H 63.320901 Z M 62.146155,8.266152 h 5.884315 v 0.8784139 h -5.884315 z m 2.444742,0.5185817 h 0.920747 v 4.3920693 q 0,0.338666 -0.07408,0.529165 -0.07408,0.201083 -0.306916,0.306916 -0.211666,0.105833 -0.539748,0.126999 -0.317499,0.03175 -0.772581,0.03175 -0.02117,-0.190499 -0.105833,-0.444498 -0.08467,-0.243416 -0.179916,-0.423332 0.296333,0.01058 0.550332,0.01058 0.253999,0 0.349249,0 0.158749,-0.01058 0.158749,-0.148166 z m -2.656408,3.9369873 q 0.391582,-0.232832 0.93133,-0.592665 0.539749,-0.370415 1.111247,-0.761997 l 0.296332,0.730248 q -0.455082,0.349248 -0.93133,0.709081 -0.465665,0.349248 -0.888997,0.666747 z m 1.608661,-8.3925564 0.931331,0.105833 q -0.116416,0.5185817 -0.264583,1.1112464 -0.137583,0.5820815 -0.285749,1.1218298 -0.137583,0.5397483 -0.264582,0.952497 h -0.96308 q 0.137582,-0.4339153 0.296332,-0.9948302 0.158749,-0.5714982 0.296332,-1.1747463 0.148167,-0.603248 0.253999,-1.1218297 z m 2.666992,0.920747 h 0.105833 l 0.158749,-0.042333 0.687915,0.09525 Q 67.088556,5.8002432 66.97214,6.3823247 66.855723,6.9644062 66.728724,7.5359044 66.612307,8.1074025 66.495891,8.6154009 L 65.575144,8.4989846 q 0.127,-0.5185817 0.243416,-1.1006631 0.127,-0.5926648 0.232833,-1.1324131 0.105833,-0.5503316 0.158749,-0.9101638 z m -0.529165,6.6674784 0.539748,-0.592664 q 0.317499,0.211666 0.666748,0.476248 0.359832,0.264583 0.687915,0.529165 0.328082,0.253999 0.529165,0.455082 l -0.571499,0.677331 Q 67.342555,13.261469 67.025056,12.986304 66.707557,12.711138 66.347725,12.435972 65.998476,12.150223 65.680977,11.91739 Z"
       id="text3"
       aria-label="前次加值紀錄" /><path
       style="font-weight:bold;font-size:6.70591px;line-height:1;font-family:Helvetica;-inkscape-font-specification:'Helvetica Bold';stroke-width:0.167648"
       d="m 6.2646827,17.105373 h 1.0085061 v 3.958714 H 9.663479 v 0.867708 H 6.2646827 Z m 5.9888233,3.091006 q -0.08841,0.05566 -0.18009,0.09168 -0.08841,0.03274 -0.245578,0.06221 l -0.20956,0.03929 q -0.294693,0.05239 -0.422394,0.1277 -0.216108,0.127701 -0.216108,0.396199 0,0.239029 0.130975,0.347083 0.134249,0.10478 0.324162,0.10478 0.301242,0 0.553369,-0.176816 0.255401,-0.176816 0.265224,-0.645051 z M 11.68704,19.760888 q 0.258675,-0.03274 0.370004,-0.08186 0.199736,-0.08513 0.199736,-0.265224 0,-0.219382 -0.153895,-0.301242 -0.150621,-0.08513 -0.445314,-0.08513 -0.330712,0 -0.468235,0.163718 -0.09823,0.121152 -0.130975,0.327437 h -0.900452 q 0.02947,-0.468235 0.26195,-0.769477 0.370003,-0.471509 1.270455,-0.471509 0.586112,0 1.04125,0.23248 0.455137,0.232481 0.455137,0.877531 v 1.637186 q 0,0.170267 0.0065,0.41257 0.0098,0.183365 0.05566,0.248852 0.04584,0.06549 0.137524,0.108055 v 0.137523 h -1.015055 q -0.04257,-0.108054 -0.05894,-0.203011 -0.01637,-0.09496 -0.02619,-0.216108 -0.193188,0.209559 -0.445315,0.356906 -0.301242,0.173542 -0.681069,0.173542 -0.484607,0 -0.80222,-0.275047 -0.31434,-0.278322 -0.31434,-0.785849 0,-0.658149 0.507527,-0.952842 0.278322,-0.160444 0.818593,-0.229206 z m 0.04912,-1.493113 z m 3.005872,2.524539 q 0.02947,0.248852 0.1277,0.353632 0.173542,0.186639 0.641777,0.186639 0.275047,0 0.435491,-0.08186 0.163719,-0.08186 0.163719,-0.245578 0,-0.157169 -0.130975,-0.239029 -0.130975,-0.08186 -0.972488,-0.281596 -0.605758,-0.150621 -0.854611,-0.376552 -0.248852,-0.222657 -0.248852,-0.641777 0,-0.49443 0.386376,-0.848062 0.38965,-0.356906 1.09364,-0.356906 0.667971,0 1.087091,0.268498 0.422393,0.265224 0.484606,0.920098 h -0.933195 q -0.01965,-0.18009 -0.101506,-0.28487 -0.153895,-0.189913 -0.523899,-0.189913 -0.304516,0 -0.435491,0.09496 -0.127701,0.09496 -0.127701,0.222657 0,0.160444 0.137524,0.23248 0.137523,0.07531 0.972488,0.258675 0.556643,0.130975 0.834964,0.396199 0.275047,0.268498 0.275047,0.671246 0,0.530448 -0.396198,0.867708 -0.392925,0.333986 -1.218066,0.333986 -0.841513,0 -1.244261,-0.353632 -0.399473,-0.356907 -0.399473,-0.907001 z m 0.713813,-2.524539 z m 1.922055,0.792397 v -0.664697 h 0.497704 v -0.995408 h 0.923373 v 0.995408 h 0.579563 v 0.664697 h -0.579563 v 1.886038 q 0,0.219382 0.05566,0.275047 0.05566,0.05239 0.340534,0.05239 0.04257,0 0.08841,0 0.04912,-0.0033 0.09496,-0.0065 v 0.697441 l -0.44204,0.01637 q -0.661423,0.02292 -0.903726,-0.229206 -0.15717,-0.160444 -0.15717,-0.49443 v -2.197103 z m 6.401394,-0.782574 q 0.0262,0 0.04257,0.0033 0.01965,0 0.08186,0.0033 v 0.956116 q -0.08841,-0.0098 -0.15717,-0.0131 -0.06876,-0.0033 -0.111329,-0.0033 -0.563191,0 -0.756379,0.366729 -0.108054,0.206286 -0.108054,0.635228 v 1.705947 h -0.939745 v -3.569063 h 0.890629 v 0.62213 q 0.216108,-0.356906 0.376553,-0.487881 0.261949,-0.219383 0.681069,-0.219383 z m 2.079224,0.759654 q -0.324162,0 -0.504253,0.203011 -0.176816,0.203011 -0.222657,0.550094 h 1.450546 q -0.02292,-0.370004 -0.225932,-0.559917 -0.199736,-0.193188 -0.497704,-0.193188 z m 0,-0.769477 q 0.445315,0 0.802221,0.166993 0.356906,0.166993 0.589387,0.527173 0.209559,0.317614 0.271772,0.736734 0.03602,0.245577 0.02947,0.707264 h -2.442681 q 0.01965,0.536996 0.337261,0.753105 0.193187,0.134249 0.46496,0.134249 0.288145,0 0.468235,-0.163719 0.09823,-0.08841 0.173542,-0.245577 h 0.952841 q -0.03602,0.317614 -0.330711,0.645051 -0.458412,0.520624 -1.283553,0.520624 -0.681069,0 -1.201694,-0.438765 -0.520625,-0.438766 -0.520625,-1.427626 0,-0.926646 0.468235,-1.421076 0.471509,-0.49443 1.22134,-0.49443 z m 0.06549,0 z m 4.387657,1.375235 q -0.0262,-0.199736 -0.134249,-0.36018 -0.15717,-0.216109 -0.487881,-0.216109 -0.471509,0 -0.645051,0.468235 -0.09168,0.248852 -0.09168,0.661423 0,0.392924 0.09168,0.631953 0.166993,0.445315 0.628679,0.445315 0.327437,0 0.464961,-0.176816 0.137523,-0.176816 0.166993,-0.458412 h 0.952841 q -0.03274,0.425668 -0.30779,0.805495 -0.438766,0.612307 -1.299925,0.612307 -0.86116,0 -1.267182,-0.510802 -0.406022,-0.510801 -0.406022,-1.32612 0,-0.920098 0.448589,-1.430899 0.448589,-0.510802 1.237712,-0.510802 0.671246,0 1.096914,0.301242 0.428943,0.301242 0.507527,1.06417 z m -0.631953,-1.375235 z m 3.831013,3.005872 q 0.409296,0 0.628679,-0.291419 0.219383,-0.291419 0.219383,-0.828416 0,-0.536997 -0.219383,-0.825141 -0.219383,-0.291419 -0.628679,-0.291419 -0.409296,0 -0.631954,0.291419 -0.219382,0.288144 -0.219382,0.825141 0,0.536997 0.219382,0.828416 0.222658,0.291419 0.631954,0.291419 z m 1.827098,-1.119835 q 0,0.785849 -0.451863,1.345766 -0.451863,0.556643 -1.371961,0.556643 -0.920098,0 -1.371961,-0.556643 -0.451863,-0.559917 -0.451863,-1.345766 0,-0.772751 0.451863,-1.339217 0.451863,-0.566466 1.371961,-0.566466 0.920098,0 1.371961,0.566466 0.451863,0.566466 0.451863,1.339217 z m -1.823824,-1.886037 z m 4.430223,0.0098 q 0.0262,0 0.04257,0.0033 0.01965,0 0.08186,0.0033 v 0.956116 q -0.08841,-0.0098 -0.15717,-0.0131 -0.06876,-0.0033 -0.111328,-0.0033 -0.563192,0 -0.75638,0.366729 -0.108054,0.206286 -0.108054,0.635228 v 1.705947 h -0.939744 v -3.569063 h 0.890629 v 0.62213 q 0.216108,-0.356906 0.376552,-0.487881 0.26195,-0.219383 0.681069,-0.219383 z m 1.98754,0 q 0.324163,0 0.57629,0.144072 0.252126,0.140798 0.409296,0.392925 v -1.702673 h 0.946293 v 4.819873 h -0.907001 v -0.49443 q -0.199736,0.317614 -0.455137,0.461686 -0.255401,0.144073 -0.635228,0.144073 -0.625405,0 -1.054347,-0.504253 -0.425668,-0.507528 -0.425668,-1.299925 0,-0.91355 0.419119,-1.437449 0.422394,-0.523899 1.126383,-0.523899 z m 0.203011,2.979677 q 0.396199,0 0.602485,-0.294693 0.206285,-0.294694 0.206285,-0.762929 0,-0.654874 -0.330712,-0.93647 -0.20301,-0.170267 -0.471509,-0.170267 -0.409296,0 -0.602484,0.311065 -0.189913,0.307791 -0.189913,0.766203 0,0.49443 0.193187,0.792398 0.196463,0.294693 0.592661,0.294693 z"
       id="text4"
       aria-label="Last record" /><path
       style="font-weight:500;font-size:10.5833px;line-height:1;font-family:'Noto Sans TC';-inkscape-font-specification:'Noto Sans TC Medium';stroke-width:0.264583"
       d="m 18.902373,32.428202 h 5.355149 v 0.878414 h -5.355149 z m -0.412749,-2.095493 h 6.085397 v 0.888997 h -6.085397 z m 0.03175,4.000487 h 6.011314 v 0.878414 h -6.011314 z m 2.518825,-5.217567 h 0.984247 V 32.9362 h -0.984247 z m 1.375829,4.053404 h 0.973664 v 4.667235 q 0,0.380999 -0.105833,0.603248 -0.09525,0.22225 -0.370416,0.328083 -0.275165,0.116416 -0.698497,0.137582 -0.423332,0.03175 -1.047747,0.03175 -0.03175,-0.201082 -0.127,-0.476248 -0.09525,-0.264583 -0.201082,-0.465665 0.455082,0.01058 0.83608,0.02117 0.391582,0 0.518582,0 0.127,-0.01058 0.169333,-0.04233 0.05292,-0.04233 0.05292,-0.158749 z m -3.344322,2.772825 0.83608,-0.455082 q 0.232833,0.253999 0.486832,0.582081 0.264583,0.317499 0.486832,0.624415 0.222249,0.306915 0.359832,0.550331 l -0.878414,0.529165 Q 20.235869,37.529352 20.024203,37.211853 19.812537,36.894354 19.558537,36.566272 19.315121,36.227607 19.071706,35.941858 Z M 15.62155,29.79296 h 2.677575 v 7.080228 H 15.62155 v -0.899581 h 1.746244 V 30.703124 H 15.62155 Z m 0.05292,3.047991 h 2.137827 v 0.888997 H 15.674466 Z M 15.145301,29.79296 h 0.931331 v 7.990392 h -0.931331 z m 18.35145,5.810232 h 3.069157 v 0.730248 h -3.069157 z m -0.05292,-1.587495 h 3.598322 v 3.947571 H 33.443835 V 37.20127 h 2.656408 v -2.423575 h -2.656408 z m -0.423332,0 h 0.910164 v 4.487319 H 33.020503 Z M 31.147259,31.04179 h 2.815157 v 0.709081 h -2.815157 z m 4.900067,0 h 2.846908 v 0.709081 h -2.846908 z m 2.434159,-1.481662 h 1.015997 v 8.138557 q 0,0.433916 -0.116416,0.677331 -0.105833,0.254 -0.391582,0.391583 -0.285749,0.126999 -0.740831,0.148166 -0.444499,0.03175 -1.12183,0.03175 -0.01058,-0.148167 -0.07408,-0.338666 -0.05292,-0.179916 -0.116416,-0.370415 -0.0635,-0.179917 -0.137583,-0.317499 0.296332,0.02117 0.592665,0.02117 0.296332,0 0.518581,0 0.232833,0 0.328083,0 0.137582,-0.01058 0.190499,-0.0635 0.05292,-0.05292 0.05292,-0.190499 z m -7.24956,0 h 3.365489 v 3.725321 h -3.365489 v -0.740831 h 2.423576 v -2.243659 h -2.423576 z m 7.768142,0 v 0.740831 h -2.592908 v 2.264826 h 2.592908 v 0.740831 h -3.545405 v -3.746488 z m -8.350223,0 h 0.99483 v 9.39797 h -0.99483 z"
       id="text3-2"
       aria-label="時  間" /><path
       style="font-weight:bold;font-size:6.70591px;line-height:1;font-family:'Microsoft JhengHei UI';-inkscape-font-specification:'Microsoft JhengHei UI Bold';stroke-width:0.167648"
       d="m 18.680827,42.320783 h -1.457095 v 4.397479 h -0.789123 v -4.397479 h -1.453821 v -0.674521 h 3.700039 z m 0.582838,-0.468235 q 0,-0.193188 0.130974,-0.317614 0.13425,-0.127701 0.33726,-0.127701 0.199737,0 0.337261,0.127701 0.137523,0.124426 0.137523,0.317614 0,0.193187 -0.137523,0.320888 -0.137524,0.124426 -0.337261,0.124426 -0.199736,0 -0.333985,-0.127701 -0.134249,-0.1277 -0.134249,-0.317613 z m 0.07531,4.865714 v -3.621454 h 0.769477 v 3.621454 z m 7.210163,0 h -0.769477 v -2.075951 q 0,-0.536997 -0.173541,-0.776026 -0.173542,-0.239029 -0.553369,-0.239029 -0.327437,0 -0.563192,0.301242 -0.235754,0.301242 -0.235754,0.736734 v 2.05303 h -0.766203 v -2.128341 q 0,-0.962665 -0.736733,-0.962665 -0.340535,0 -0.566466,0.291419 -0.222657,0.291419 -0.222657,0.753105 v 2.046482 h -0.769477 v -3.621454 h 0.769477 v 0.569741 h 0.01637 q 0.38965,-0.654874 1.139481,-0.654874 0.762929,0 1.031427,0.723635 0.406022,-0.723635 1.211517,-0.723635 1.188596,0 1.188596,1.470192 z m 4.050396,-1.604442 h -2.488521 q 0.04912,1.096914 1.11656,1.096914 0.602484,0 1.096914,-0.36018 v 0.635227 q -0.484607,0.317614 -1.27373,0.317614 -0.805495,0 -1.260632,-0.491155 -0.455138,-0.491156 -0.455138,-1.375236 0,-0.838238 0.487881,-1.381784 0.491156,-0.543545 1.227889,-0.543545 0.733459,0 1.139481,0.46496 0.409296,0.461686 0.409296,1.27373 z m -0.746556,-0.559917 q -0.0033,-0.464961 -0.212834,-0.713813 -0.20956,-0.248852 -0.595936,-0.248852 -0.350357,0 -0.609032,0.265224 -0.258676,0.26195 -0.320889,0.697441 z"
       id="text4-3"
       aria-label="Time" /><path
       d="m 52.173333,34.656875 q -0.578307,0 -0.993965,-0.397586 -0.397587,-0.415658 -0.397587,-1.048182 0,-0.650596 0.397587,-1.066254 0.415658,-0.415658 0.993965,-0.415658 0.596379,0 0.993965,0.415658 0.415659,0.415658 0.415659,1.066254 0,0.632524 -0.415659,1.048182 -0.397586,0.397586 -0.993965,0.397586 z m 0,7.120407 q -0.578307,0 -0.993965,-0.415658 -0.397587,-0.43373 -0.397587,-1.066254 0,-0.650595 0.397587,-1.048182 0.415658,-0.415658 0.993965,-0.415658 0.596379,0 0.993965,0.415658 0.415659,0.397587 0.415659,1.048182 0,0.632524 -0.415659,1.066254 -0.397586,0.415658 -0.993965,0.415658 z"
       id="text5"
       style="font-weight:500;font-size:18.0721px;line-height:1;font-family:'Noto Sans JP';-inkscape-font-specification:'Noto Sans JP Medium';text-align:center;text-anchor:middle;stroke-width:0.451804"
       aria-label=":" /><path
       style="font-weight:500;font-size:10.5833px;line-height:1;font-family:'Noto Sans TC';-inkscape-font-specification:'Noto Sans TC Medium';stroke-width:0.264583"
       d="m 16.556034,55.450751 h 5.556232 v 0.93133 h -5.556232 z m -1.291162,2.222493 h 8.170307 v 0.910164 h -8.170307 z m -0.497416,3.280823 h 9.186305 v 0.920747 h -9.186305 z m 4.021654,-5.079984 h 1.068914 v 5.524482 H 18.78911 Z m -2.719908,3.14324 0.814914,-0.328082 q 0.211666,0.275165 0.402166,0.613831 0.201082,0.328082 0.359832,0.656165 0.169333,0.317499 0.243416,0.571498 l -0.867831,0.380999 q -0.07408,-0.254 -0.222249,-0.582082 -0.148166,-0.328082 -0.338666,-0.677331 -0.190499,-0.349249 -0.391582,-0.634998 z m 5.640899,-0.328082 0.952497,0.359832 q -0.296332,0.497415 -0.624415,1.005413 -0.328082,0.507999 -0.603248,0.867831 l -0.761997,-0.328082 q 0.179916,-0.254 0.370415,-0.582082 0.1905,-0.338665 0.370416,-0.687914 0.179916,-0.349249 0.296332,-0.634998 z m -1.979077,-5.863148 q 0.370415,0.412748 0.89958,0.825497 0.539749,0.412749 1.164163,0.783164 0.624415,0.359832 1.291163,0.656165 0.677331,0.296332 1.312329,0.486832 -0.105833,0.105833 -0.243416,0.264582 -0.137583,0.15875 -0.253999,0.317499 -0.116416,0.15875 -0.201083,0.296332 -0.645581,-0.232832 -1.312329,-0.571498 -0.656164,-0.338665 -1.301746,-0.761997 -0.634998,-0.433916 -1.195913,-0.910164 -0.560914,-0.476249 -0.99483,-0.984247 z m -0.444499,-0.603248 0.931331,0.423332 q -0.582082,0.888997 -1.396996,1.629828 -0.814914,0.730247 -1.788577,1.291162 -0.973664,0.550332 -2.021411,0.931331 -0.105833,-0.211666 -0.296332,-0.465666 -0.190499,-0.264582 -0.380999,-0.455081 1.005414,-0.306916 1.947327,-0.793748 0.941914,-0.486832 1.714495,-1.132413 0.783164,-0.645581 1.291162,-1.428745 z m 10.699725,1.132413 h 4.593152 v 1.841494 h -0.783165 v -1.037164 h -3.069156 v 1.037164 H 29.98625 Z m 0.666747,5.513899 h 3.418406 v 3.249073 h -0.888997 v -2.455326 h -1.672161 v 2.465909 h -0.857248 z m 0.306916,2.158993 h 2.815158 v 0.783164 h -2.815158 z m 0.518582,-6.593396 0.783164,0.137583 q -0.253999,0.730248 -0.698498,1.396996 -0.444498,0.656164 -1.142996,1.185329 -0.07408,-0.158749 -0.232833,-0.359832 -0.148166,-0.201083 -0.285749,-0.306916 0.624415,-0.423332 1.005414,-0.96308 0.391582,-0.550331 0.571498,-1.09008 z m 0.201083,0.709081 h 1.86266 v 0.751415 h -2.180159 z m 1.650994,0 h 0.169333 l 0.137583,-0.03175 0.507998,0.349249 q -0.370415,0.963081 -0.99483,1.703912 -0.613831,0.730247 -1.386412,1.248829 -0.761998,0.507998 -1.576912,0.825497 -0.05292,-0.116416 -0.137583,-0.275166 -0.08467,-0.158749 -0.179916,-0.306915 -0.09525,-0.148166 -0.179916,-0.232833 0.783164,-0.253999 1.502829,-0.687914 0.730247,-0.444499 1.280579,-1.05833 0.560915,-0.613832 0.857247,-1.375829 z m -1.725078,-2.518825 0.804331,-0.285749 q 0.137583,0.296332 0.285749,0.656164 0.148167,0.359833 0.232833,0.613832 l -0.846664,0.338665 q -0.0635,-0.253999 -0.201083,-0.634998 -0.137583,-0.380998 -0.275166,-0.687914 z m 3.259657,0.169333 h 4.677818 v 0.857247 h -4.677818 z m 1.195913,4.127487 v 0.814914 H 38.29414 V 56.92183 Z m 0,1.555745 v 0.846664 h 2.233076 v -0.846664 z m 0,-3.132657 v 0.825497 h 2.233076 v -0.825497 z m -0.899581,-0.793747 h 4.085154 v 5.556232 h -4.085154 z m 1.587495,-1.301746 0.952497,0.148166 q -0.127,0.444498 -0.264582,0.888997 -0.127,0.433915 -0.232833,0.761998 l -0.740831,-0.1905 q 0.07408,-0.338665 0.158749,-0.793747 0.08467,-0.465665 0.127,-0.814914 z m -0.444499,6.953228 0.645582,0.624414 q -0.465665,0.380999 -1.09008,0.751415 -0.613831,0.370415 -1.142996,0.624414 -0.07408,-0.158749 -0.201083,-0.370415 -0.127,-0.211666 -0.232833,-0.359832 0.328083,-0.15875 0.709081,-0.370416 0.380999,-0.222249 0.730248,-0.455082 0.349249,-0.243416 0.582081,-0.444498 z m 1.037164,0.582081 0.539748,-0.624415 q 0.296333,0.179916 0.624415,0.412749 0.338665,0.232833 0.645581,0.476249 0.317499,0.232832 0.507998,0.423332 l -0.571498,0.698497 q -0.190499,-0.201082 -0.486831,-0.455082 -0.296333,-0.243415 -0.624415,-0.486831 -0.328082,-0.254 -0.634998,-0.444499 z m -6.38173,-3.788821 0.571498,-0.592665 q 0.359833,0.211666 0.783165,0.455082 0.423332,0.243416 0.846664,0.497415 0.433915,0.253999 0.80433,0.497415 0.380999,0.243416 0.656165,0.423332 l -0.592665,0.709081 q -0.338666,-0.264582 -0.86783,-0.613831 -0.529165,-0.349249 -1.111247,-0.709081 -0.582081,-0.370416 -1.09008,-0.666748 z"
       id="text3-2-7"
       aria-label="金  額" /><path
       style="font-weight:bold;font-size:6.70591px;line-height:1;font-family:'Microsoft JhengHei UI';-inkscape-font-specification:'Microsoft JhengHei UI Bold';stroke-width:0.167648"
       d="m 19.251555,69.920731 h -0.864434 l -0.474783,-1.319572 h -2.03011 l -0.451863,1.319572 h -0.864434 l 1.912233,-5.072 h 0.874256 z m -1.5586,-1.971171 -0.707264,-2.00064 q -0.03929,-0.108055 -0.07859,-0.383102 h -0.02292 q -0.02947,0.225932 -0.08186,0.376553 l -0.703989,2.007189 z m 7.531051,1.971171 H 24.454529 V 67.84478 q 0,-0.536997 -0.173541,-0.776026 -0.173542,-0.239029 -0.553369,-0.239029 -0.327437,0 -0.563192,0.301242 -0.235754,0.301242 -0.235754,0.736733 v 2.053031 H 22.16247 V 67.79239 q 0,-0.962665 -0.736733,-0.962665 -0.340535,0 -0.566466,0.291419 -0.222657,0.291419 -0.222657,0.753105 v 2.046482 h -0.769477 v -3.621454 h 0.769477 v 0.569741 h 0.01637 q 0.38965,-0.654874 1.13948,-0.654874 0.762929,0 1.031427,0.723635 0.406022,-0.723635 1.211517,-0.723635 1.188596,0 1.188596,1.470192 z m 0.78585,-1.777983 q 0,-0.893904 0.507527,-1.411254 0.510802,-0.51735 1.388333,-0.51735 0.828416,0 1.309748,0.500978 0.481333,0.500979 0.481333,1.368687 0,0.874257 -0.507528,1.398156 -0.507527,0.523899 -1.355589,0.523899 -0.83169,0 -1.329394,-0.507527 -0.49443,-0.507528 -0.49443,-1.355589 z m 0.782574,-0.01637 q 0,0.595935 0.288145,0.929921 0.291419,0.333986 0.789123,0.333986 1.044524,0 1.044524,-1.286828 0,-0.62213 -0.268498,-0.946293 -0.268499,-0.327437 -0.776026,-0.327437 -0.507527,0 -0.792398,0.347083 -0.28487,0.347084 -0.28487,0.949568 z m 6.869628,1.794355 h -0.766202 v -0.566466 h -0.01637 q -0.376553,0.651599 -1.113286,0.651599 -1.280279,0 -1.280279,-1.535679 v -2.170908 h 0.766203 v 2.075951 q 0,1.015055 0.7793,1.015055 0.379827,0 0.62213,-0.278322 0.242304,-0.278321 0.242304,-0.730184 v -2.0825 h 0.766202 z m 4.266505,0 H 37.16236 v -2.046482 q 0,-1.044524 -0.759654,-1.044524 -0.383101,0 -0.635228,0.291419 -0.248852,0.288145 -0.248852,0.733459 v 2.066128 h -0.769477 v -3.621454 h 0.769477 v 0.592661 h 0.01637 q 0.402747,-0.677794 1.178773,-0.677794 1.214792,0 1.214792,1.493112 z m 2.878171,-0.03929 Q 40.5939,70.00259 40.194427,70.00259 39.163,70.00259 39.163,68.882755 V 66.90831 H 38.550693 V 66.299277 H 39.163 v -0.848062 l 0.766203,-0.23248 v 1.080542 h 0.877531 v 0.609033 h -0.877531 v 1.840196 q 0,0.33726 0.117877,0.487881 0.121152,0.150621 0.386376,0.150621 0.206285,0 0.373278,-0.117877 z"
       id="text4-3-2"
       aria-label="Amount" /><path
       d="m 51.827237,57.85934 q -0.578307,0 -0.993966,-0.397586 -0.397586,-0.415658 -0.397586,-1.048182 0,-0.650595 0.397586,-1.066254 0.415659,-0.415658 0.993966,-0.415658 0.596379,0 0.993965,0.415658 0.415659,0.415659 0.415659,1.066254 0,0.632524 -0.415659,1.048182 -0.397586,0.397586 -0.993965,0.397586 z m 0,7.120407 q -0.578307,0 -0.993966,-0.415658 -0.397586,-0.43373 -0.397586,-1.066254 0,-0.650595 0.397586,-1.048182 0.415659,-0.415658 0.993966,-0.415658 0.596379,0 0.993965,0.415658 0.415659,0.397587 0.415659,1.048182 0,0.632524 -0.415659,1.066254 -0.397586,0.415658 -0.993965,0.415658 z"
       id="text5-7"
       style="font-weight:500;font-size:18.0721px;line-height:1;font-family:'Noto Sans JP';-inkscape-font-specification:'Noto Sans JP Medium';text-align:center;text-anchor:middle;stroke-width:0.451804"
       aria-label=":" /><path
       style="font-weight:500;font-size:10.5833px;line-height:1;font-family:'Noto Sans TC';-inkscape-font-specification:'Noto Sans TC Medium';stroke-width:0.264583"
       d="m 19.318275,78.66002 h 4.053404 v 0.878414 h -4.053404 z m -0.666748,1.95791 h 5.4504 v 0.888997 h -5.4504 z m 2.24366,-1.523995 h 0.93133 v 5.333983 q 0,0.359832 -0.08467,0.550332 -0.08467,0.190499 -0.306916,0.296332 -0.211666,0.105833 -0.550331,0.127 -0.328083,0.02117 -0.804331,0.02117 -0.03175,-0.179916 -0.127,-0.423332 -0.08467,-0.243416 -0.169333,-0.412748 0.306916,0.01058 0.582082,0.01058 0.275166,0 0.359832,0 0.09525,0 0.127,-0.04233 0.04233,-0.03175 0.04233,-0.127 z m -1.481662,2.889241 0.825497,0.243416 q -0.148166,0.391582 -0.349249,0.825497 -0.190499,0.433915 -0.391582,0.825498 -0.190499,0.391582 -0.380998,0.698497 -0.127,-0.105833 -0.349249,-0.243416 -0.22225,-0.148166 -0.380999,-0.232832 0.285749,-0.412749 0.560915,-0.99483 0.275166,-0.582082 0.465665,-1.12183 z m 2.963324,0.243416 0.761997,-0.317499 q 0.201083,0.359832 0.412749,0.783164 0.222249,0.412749 0.423332,0.804331 0.201083,0.391582 0.306916,0.677331 l -0.804331,0.391582 Q 23.371679,84.269169 23.18118,83.867003 23.001264,83.464838 22.789598,83.041506 22.577932,82.607591 22.376849,82.226592 Z m -1.132413,-6.688646 0.772581,0.338666 q -0.359833,0.624415 -0.867831,1.174746 -0.497415,0.550332 -1.09008,1.005414 -0.582081,0.455082 -1.206496,0.793747 -0.09525,-0.179916 -0.264582,-0.380999 -0.15875,-0.211666 -0.317499,-0.349248 0.582081,-0.275166 1.142996,-0.666748 0.571498,-0.402166 1.047747,-0.888998 0.476248,-0.486831 0.783164,-1.02658 z m 0.476248,0.624415 q 0.560915,0.645581 1.227663,1.100663 0.677331,0.444499 1.418162,0.804331 -0.179916,0.15875 -0.359832,0.391582 -0.179916,0.222249 -0.275166,0.433915 -0.772581,-0.465665 -1.460495,-1.02658 -0.687915,-0.571498 -1.322913,-1.344079 z m -6.148897,4.116904 h 2.18016 v 0.709081 h -2.18016 z m 0.07408,-1.460496 h 2.518826 v 3.682989 h -2.529409 v -0.740831 h 1.650995 V 79.5596 H 15.64587 Z m 0.751415,-2.158993 0.433915,-0.709081 q 0.285749,0.137583 0.624415,0.328082 0.338665,0.179916 0.645581,0.370416 0.306916,0.179916 0.507998,0.328082 l -0.444498,0.804331 q -0.1905,-0.15875 -0.497415,-0.349249 -0.306916,-0.201083 -0.645582,-0.402165 -0.328082,-0.211666 -0.624414,-0.370416 z m 0.126999,-1.153579 0.836081,0.296332 q -0.296333,0.539748 -0.709081,1.068913 -0.412749,0.518582 -0.888997,0.973664 -0.476249,0.444498 -0.984247,0.783164 -0.03175,-0.105833 -0.105833,-0.285749 -0.07408,-0.179916 -0.15875,-0.359832 -0.08467,-0.1905 -0.169333,-0.296333 0.634998,-0.380999 1.227663,-0.952497 0.592665,-0.582081 0.952497,-1.227662 z m 0.264583,7.450642 0.740831,-0.317499 q 0.190499,0.328083 0.391582,0.719665 0.211666,0.391582 0.391582,0.761997 0.179916,0.359833 0.285749,0.624415 l -0.793748,0.391582 q -0.09525,-0.275166 -0.264582,-0.645581 -0.169333,-0.380999 -0.370416,-0.783164 -0.201082,-0.402166 -0.380998,-0.751415 z m -1.862661,2.465909 q -0.02117,-0.126999 -0.08467,-0.296332 -0.05292,-0.15875 -0.116417,-0.328082 -0.0635,-0.15875 -0.137583,-0.264583 0.148167,-0.0635 0.296333,-0.190499 0.158749,-0.137583 0.158749,-0.423332 v -5.101151 h 0.910164 v 5.884315 q 0,0 -0.15875,0.0635 -0.148166,0.0635 -0.359832,0.169332 -0.201082,0.116417 -0.359832,0.232833 -0.148166,0.127 -0.148166,0.253999 z m 0,0 -0.08467,-0.772581 0.359832,-0.328082 2.465909,-0.888997 q 0.01058,0.169333 0.05292,0.391582 0.04233,0.211666 0.08467,0.349249 -0.86783,0.338666 -1.407578,0.550332 -0.529165,0.222249 -0.825498,0.349248 -0.285749,0.127 -0.423332,0.201083 -0.137583,0.08467 -0.222249,0.148166 z m 0.93133,-7.821058 h 1.830911 v 0.687914 H 15.857536 Z M 29.98625,76.63861 h 4.593152 v 1.841494 H 33.796237 V 77.44294 h -3.069156 v 1.037164 H 29.98625 Z m 0.666747,5.513899 h 3.418406 v 3.249073 h -0.888997 v -2.455326 h -1.672161 v 2.465909 h -0.857248 z m 0.306916,2.158993 h 2.815158 v 0.783164 h -2.815158 z m 0.518582,-6.593396 0.783164,0.137583 q -0.253999,0.730248 -0.698498,1.396996 -0.444498,0.656164 -1.142996,1.185329 -0.07408,-0.158749 -0.232833,-0.359832 -0.148166,-0.201083 -0.285749,-0.306916 0.624415,-0.423332 1.005414,-0.96308 0.391582,-0.550332 0.571498,-1.09008 z m 0.201083,0.709081 h 1.86266 v 0.751414 h -2.180159 z m 1.650994,0 h 0.169333 l 0.137583,-0.03175 0.507998,0.349249 q -0.370415,0.96308 -0.99483,1.703911 -0.613831,0.730248 -1.386412,1.24883 -0.761998,0.507998 -1.576912,0.825497 -0.05292,-0.116416 -0.137583,-0.275166 -0.08467,-0.158749 -0.179916,-0.306915 -0.09525,-0.148166 -0.179916,-0.232833 0.783164,-0.253999 1.502829,-0.687914 0.730247,-0.444499 1.280579,-1.05833 0.560915,-0.613832 0.857247,-1.375829 z m -1.725078,-2.518825 0.804331,-0.285749 q 0.137583,0.296332 0.285749,0.656164 0.148167,0.359833 0.232833,0.613832 l -0.846664,0.338665 q -0.0635,-0.253999 -0.201083,-0.634998 -0.137583,-0.380998 -0.275166,-0.687914 z m 3.259657,0.169333 h 4.677818 v 0.857247 h -4.677818 z m 1.195913,4.127487 v 0.814914 h 2.233076 v -0.814914 z m 0,1.555745 v 0.846664 h 2.233076 v -0.846664 z m 0,-3.132657 v 0.825497 H 38.29414 V 78.62827 Z m -0.899581,-0.793748 h 4.085154 v 5.556233 h -4.085154 z m 1.587495,-1.301745 0.952497,0.148166 q -0.127,0.444498 -0.264582,0.888997 -0.127,0.433915 -0.232833,0.761998 l -0.740831,-0.1905 q 0.07408,-0.338665 0.158749,-0.793747 0.08467,-0.465666 0.127,-0.814914 z m -0.444499,6.953227 0.645582,0.624415 q -0.465665,0.380999 -1.09008,0.751414 -0.613831,0.370416 -1.142996,0.624415 -0.07408,-0.158749 -0.201083,-0.370415 -0.127,-0.211666 -0.232833,-0.359833 0.328083,-0.158749 0.709081,-0.370415 0.380999,-0.222249 0.730248,-0.455082 0.349249,-0.243416 0.582081,-0.444499 z m 1.037164,0.582082 0.539748,-0.624415 q 0.296333,0.179916 0.624415,0.412749 0.338665,0.232833 0.645581,0.476248 0.317499,0.232833 0.507998,0.423332 l -0.571498,0.698498 Q 38.897388,85.253415 38.601056,84.999416 38.304723,84.756 37.976641,84.512585 q -0.328082,-0.254 -0.634998,-0.444499 z m -6.38173,-3.788821 0.571498,-0.592665 q 0.359833,0.211666 0.783165,0.455082 0.423332,0.243416 0.846664,0.497415 0.433915,0.253999 0.80433,0.497415 0.380999,0.243416 0.656165,0.423332 l -0.592665,0.709081 q -0.338666,-0.264583 -0.86783,-0.613831 -0.529165,-0.349249 -1.111247,-0.709081 -0.582081,-0.370416 -1.09008,-0.666748 z"
       id="text3-2-7-6"
       aria-label="餘  額" /><path
       style="font-weight:bold;font-size:6.70591px;line-height:1;font-family:'Microsoft JhengHei UI';-inkscape-font-specification:'Microsoft JhengHei UI Bold';stroke-width:0.167648"
       d="m 18.989606,93.204086 h -0.920098 l -0.825142,-1.381784 q -0.242303,-0.406022 -0.44204,-0.553368 -0.196462,-0.147347 -0.451863,-0.147347 h -0.425668 v 2.082499 h -0.785849 v -5.071999 h 1.614265 q 0.789123,0 1.218065,0.356906 0.432217,0.353632 0.432217,1.005232 0,0.510802 -0.297967,0.874257 -0.297968,0.363455 -0.83169,0.507527 v 0.0131 q 0.340534,0.117877 0.762928,0.798946 z m -3.064811,-4.423674 v 1.689575 h 0.697441 q 0.435491,0 0.694166,-0.252126 0.26195,-0.252127 0.26195,-0.641777 0,-0.795672 -0.943019,-0.795672 z m 6.42104,2.819233 h -2.488521 q 0.04912,1.096914 1.11656,1.096914 0.602484,0 1.096914,-0.360181 v 0.635228 q -0.484606,0.317614 -1.27373,0.317614 -0.805495,0 -1.260632,-0.491156 -0.455138,-0.491155 -0.455138,-1.375235 0,-0.838239 0.487881,-1.381784 0.491156,-0.543546 1.227889,-0.543546 0.733459,0 1.139481,0.464961 0.409296,0.461686 0.409296,1.27373 z m -0.746556,-0.559917 q -0.0033,-0.464961 -0.212834,-0.713813 -0.20956,-0.248852 -0.595935,-0.248852 -0.350358,0 -0.609033,0.265224 -0.258676,0.261949 -0.320889,0.697441 z m 6.905646,2.164358 h -0.769477 v -2.07595 q 0,-0.536997 -0.173541,-0.776026 -0.173542,-0.239029 -0.553369,-0.239029 -0.327437,0 -0.563191,0.301242 -0.235755,0.301242 -0.235755,0.736733 v 2.05303 h -0.766203 v -2.12834 q 0,-0.962665 -0.736733,-0.962665 -0.340535,0 -0.566466,0.291419 -0.222657,0.291419 -0.222657,0.753105 v 2.046481 h -0.769477 v -3.621453 h 0.769477 v 0.56974 h 0.01637 q 0.38965,-0.654874 1.13948,-0.654874 0.762929,0 1.031427,0.723636 0.406022,-0.723636 1.211517,-0.723636 1.188596,0 1.188596,1.470192 z m 0.841514,-0.379827 q 0,-0.199736 0.144072,-0.330711 0.144073,-0.130975 0.343809,-0.130975 0.196462,0 0.340535,0.130975 0.144072,0.1277 0.144072,0.330711 0,0.189914 -0.137524,0.327437 -0.137523,0.13425 -0.353631,0.13425 -0.199737,0 -0.340535,-0.130975 -0.140798,-0.134249 -0.140798,-0.330712 z m 7.576893,-4.692172 -1.830373,5.071999 h -0.877531 l -1.800904,-5.071999 h 0.861159 l 1.283553,3.847385 q 0.07204,0.212834 0.101506,0.471509 h 0.01637 q 0.02292,-0.216108 0.114603,-0.478058 l 1.299925,-3.840836 z m 0.163718,1.692849 q 0.553368,-0.327437 1.280278,-0.327437 1.371962,0 1.371962,1.417803 v 2.288784 h -0.746557 v -0.550094 h -0.01637 q -0.370004,0.635228 -1.100188,0.635228 -0.533722,0 -0.841513,-0.288145 -0.304517,-0.288144 -0.304517,-0.776025 0,-1.021604 1.214792,-1.191871 l 1.051073,-0.144072 q 0,-0.80877 -0.710539,-0.80877 -0.651599,0 -1.198419,0.422394 z m 1.110011,1.696124 q -0.392924,0.05239 -0.556643,0.199737 -0.160444,0.147346 -0.160444,0.432216 0,0.239029 0.173542,0.392925 0.173541,0.150621 0.445314,0.150621 0.386376,0 0.641777,-0.271773 0.255401,-0.275047 0.255401,-0.690892 v -0.320888 z m 2.55401,1.683026 v -5.360144 h 0.769477 v 5.360144 z m 1.676477,-0.379827 q 0,-0.199736 0.144072,-0.330711 0.144073,-0.130975 0.343809,-0.130975 0.196463,0 0.340535,0.130975 0.144072,0.1277 0.144072,0.330711 0,0.189914 -0.137523,0.327437 -0.137524,0.13425 -0.353632,0.13425 -0.199737,0 -0.340535,-0.130975 -0.140798,-0.134249 -0.140798,-0.330712 z"
       id="text4-3-2-0"
       aria-label="Rem. Val." /><path
       d="m 51.827237,81.142696 q -0.578307,0 -0.993966,-0.397586 -0.397586,-0.415659 -0.397586,-1.048182 0,-0.650596 0.397586,-1.066254 0.415659,-0.415658 0.993966,-0.415658 0.596379,0 0.993965,0.415658 0.415659,0.415658 0.415659,1.066254 0,0.632523 -0.415659,1.048182 -0.397586,0.397586 -0.993965,0.397586 z m 0,7.120407 q -0.578307,0 -0.993966,-0.415658 -0.397586,-0.433731 -0.397586,-1.066254 0,-0.650596 0.397586,-1.048182 0.415659,-0.415658 0.993966,-0.415658 0.596379,0 0.993965,0.415658 0.415659,0.397586 0.415659,1.048182 0,0.632523 -0.415659,1.066254 -0.397586,0.415658 -0.993965,0.415658 z"
       id="text5-7-8"
       style="font-weight:500;font-size:18.0721px;line-height:1;font-family:'Noto Sans JP';-inkscape-font-specification:'Noto Sans JP Medium';text-align:center;text-anchor:middle;stroke-width:0.451804"
       aria-label=":" /><path
       style="font-weight:500;font-size:10.5833px;line-height:1;font-family:'Noto Sans TC';-inkscape-font-specification:'Noto Sans TC Medium';stroke-width:0.264583"
       d="m 14.576957,101.40363 h 3.227906 v 0.94191 h -3.227906 z m 1.217079,-2.381245 h 0.941914 v 6.942645 h -0.941914 z m -1.428745,6.963815 q 0.423332,-0.15875 0.984247,-0.381 0.560915,-0.23284 1.185329,-0.48683 0.634998,-0.26459 1.259413,-0.52917 l 0.222249,0.889 q -0.83608,0.40216 -1.693328,0.80433 -0.857247,0.39158 -1.555745,0.6985 z m 6.339397,-7.090815 h 0.941913 v 7.408305 h -0.941913 z m -3.249073,4.317985 5.609148,-2.37066 0.370416,0.84667 -5.598566,2.41299 z m 1.100663,-3.312571 h 0.96308 v 6.984981 q 0,0.29633 0.05292,0.45508 0.05292,0.14816 0.22225,0.20108 0.179916,0.0529 0.518581,0.0529 0.09525,0 0.328083,0 0.232832,0 0.518581,0 0.296333,0 0.592665,0 0.296333,0 0.539748,0 0.243416,0 0.359833,0 0.296332,0 0.444498,-0.11642 0.15875,-0.11642 0.232833,-0.42333 0.07408,-0.30692 0.105833,-0.889 0.169333,0.11642 0.423332,0.22225 0.264582,0.10583 0.465665,0.14817 -0.0635,0.74083 -0.222249,1.16416 -0.15875,0.42333 -0.486832,0.60325 -0.317499,0.1905 -0.899581,0.1905 -0.09525,0 -0.349248,0 -0.243416,0 -0.571499,0 -0.317499,0 -0.645581,0 -0.317499,0 -0.560915,0 -0.243416,0 -0.338665,0 -0.645582,0 -1.02658,-0.13758 -0.370416,-0.13759 -0.518582,-0.49742 -0.148166,-0.34925 -0.148166,-0.98425 z m 4.254486,1.217081 h -0.116416 l 0.370415,-0.27517 0.761998,0.24342 -0.05292,0.15875 q -0.03175,0.74083 -0.105833,1.58749 -0.07408,0.84667 -0.169332,1.66158 -0.09525,0.80433 -0.232833,1.42875 l -0.814914,-0.23284 q 0.07408,-0.42333 0.127,-0.97366 0.05292,-0.56091 0.09525,-1.18533 0.05292,-0.62441 0.08467,-1.23825 0.03175,-0.62441 0.05292,-1.17474 z m 12.170803,2.79399 h 4.23332 v 4.7519 H 38.26239 v -3.84174 h -2.360076 v 3.88407 h -0.920747 z m 1.481662,-5.005901 h 0.973664 v 5.270481 h -0.973664 z m 0.582081,2.254241 h 2.571742 v 0.93133 H 37.04531 Z m -1.587494,6.18065 h 3.259656 v 0.91016 h -3.259656 z m -4.519069,-7.387145 v 2.444745 h 2.762241 v -2.444745 z m -0.772581,-0.698498 h 4.328569 v 3.841743 h -4.328569 z m 0.846664,1.185333 0.455082,-0.127 q 0.126999,0.381 0.222249,0.82549 0.09525,0.43392 0.116416,0.75142 l -0.476248,0.13758 q -0.01058,-0.3175 -0.105833,-0.762 -0.08467,-0.44449 -0.211666,-0.82549 z m 0.359832,6.13831 0.645581,-0.0635 q 0.08467,0.43392 0.116416,0.9525 0.04233,0.51858 0.03175,0.889 l -0.666748,0.0847 q 0.02117,-0.381 -0.02117,-0.89958 -0.03175,-0.51858 -0.105833,-0.96308 z m 1.079496,-0.0106 0.613832,-0.10584 q 0.169333,0.40217 0.296332,0.889 0.137583,0.47625 0.179916,0.8255 l -0.645581,0.14817 q -0.03175,-0.35984 -0.158749,-0.84667 -0.127,-0.49741 -0.28575,-0.91016 z m 1.079497,-0.0106 0.624415,-0.22225 q 0.232832,0.381 0.433915,0.84667 0.201083,0.46566 0.285749,0.81491 l -0.656165,0.254 q -0.07408,-0.34925 -0.275165,-0.8255 -0.1905,-0.47624 -0.412749,-0.86783 z m -3.14324,-0.22225 0.687914,0.24342 q -0.105833,0.49742 -0.264582,1.05833 -0.148166,0.56092 -0.391582,0.94191 l -0.709081,-0.29633 q 0.169333,-0.254 0.296332,-0.58208 0.137583,-0.32808 0.232833,-0.68791 0.09525,-0.35984 0.148166,-0.67734 z m 2.751658,-6.04306 0.539748,0.1905 q -0.148166,0.40217 -0.306916,0.84666 -0.148166,0.4445 -0.285749,0.75142 l -0.391582,-0.15875 q 0.07408,-0.22225 0.15875,-0.508 0.08467,-0.29633 0.158749,-0.59266 0.08467,-0.29634 0.127,-0.52917 z m -3.005657,3.41841 h 4.392069 v 0.78316 h -4.392069 z m 1.830911,-4.116907 h 0.645581 v 3.185577 h 0.127 v 2.74107 H 31.84891 v -2.74107 h 0.116417 z m -2.031994,5.598567 h 4.730735 v 0.77258 h -4.730735 z"
       id="text3-2-7-6-6"
       aria-label="地  點" /><path
       style="font-weight:bold;font-size:6.70591px;line-height:1;font-family:'Microsoft JhengHei UI';-inkscape-font-specification:'Microsoft JhengHei UI Bold';stroke-width:0.167648"
       d="m 17.905789,116.48743 h -2.766843 v -5.072 h 0.785849 v 4.39748 h 1.980994 z m 0.419119,-1.77799 q 0,-0.8939 0.507528,-1.41125 0.510802,-0.51735 1.388333,-0.51735 0.828415,0 1.309748,0.50098 0.481332,0.50098 0.481332,1.36869 0,0.87425 -0.507527,1.39815 -0.507527,0.5239 -1.355589,0.5239 -0.83169,0 -1.329395,-0.50753 -0.49443,-0.50752 -0.49443,-1.35559 z m 0.782575,-0.0164 q 0,0.59594 0.288145,0.92992 0.291418,0.33399 0.789123,0.33399 1.044524,0 1.044524,-1.28683 0,-0.62213 -0.268499,-0.94629 -0.268498,-0.32744 -0.776025,-0.32744 -0.507528,0 -0.792398,0.34708 -0.28487,0.34709 -0.28487,0.94957 z m 6.326083,1.64046 q -0.399473,0.23903 -1.024878,0.23903 -0.792398,0 -1.283553,-0.50098 -0.491156,-0.50098 -0.491156,-1.30975 0,-0.907 0.527174,-1.44399 0.527174,-0.537 1.404705,-0.537 0.540271,0 0.874257,0.17354 v 0.72036 q -0.386376,-0.27832 -0.834965,-0.27832 -0.530448,0 -0.861159,0.35691 -0.327437,0.35363 -0.327437,0.95284 0,0.58611 0.311065,0.9201 0.314339,0.33071 0.841513,0.33071 0.458412,0 0.864434,-0.29469 z m 0.913549,-3.22525 q 0.553368,-0.32744 1.280279,-0.32744 1.371961,0 1.371961,1.4178 v 2.28879 h -0.746557 v -0.5501 h -0.01637 q -0.370003,0.63523 -1.100188,0.63523 -0.533722,0 -0.841513,-0.28814 -0.304517,-0.28815 -0.304517,-0.77603 0,-1.0216 1.214792,-1.19187 l 1.051073,-0.14407 q 0,-0.80877 -0.710539,-0.80877 -0.651599,0 -1.198419,0.42239 z m 1.110011,1.69612 q -0.392924,0.0524 -0.556643,0.19974 -0.160444,0.14734 -0.160444,0.43221 0,0.23903 0.173542,0.39293 0.173541,0.15062 0.445314,0.15062 0.386376,0 0.641777,-0.27177 0.255401,-0.27505 0.255401,-0.6909 v -0.32088 z m 4.420401,1.64373 q -0.212834,0.12116 -0.612307,0.12116 -1.031427,0 -1.031427,-1.11984 v -1.97444 h -0.612307 v -0.60904 h 0.612307 v -0.84806 l 0.766203,-0.23248 v 1.08054 h 0.877531 v 0.60904 h -0.877531 v 1.84019 q 0,0.33726 0.117877,0.48788 0.121152,0.15062 0.386376,0.15062 0.206285,0 0.373278,-0.11787 z m 0.641775,-4.82642 q 0,-0.19319 0.130975,-0.31761 0.134249,-0.1277 0.33726,-0.1277 0.199737,0 0.337261,0.1277 0.137523,0.12442 0.137523,0.31761 0,0.19319 -0.137523,0.32089 -0.137524,0.12443 -0.337261,0.12443 -0.199736,0 -0.333985,-0.1277 -0.13425,-0.1277 -0.13425,-0.31762 z m 0.07531,4.86572 v -3.62146 h 0.769477 v 3.62146 z m 1.620813,-1.77799 q 0,-0.8939 0.507527,-1.41125 0.510802,-0.51735 1.388333,-0.51735 0.828416,0 1.309748,0.50098 0.481333,0.50098 0.481333,1.36869 0,0.87425 -0.507528,1.39815 -0.507527,0.5239 -1.355589,0.5239 -0.83169,0 -1.329394,-0.50753 -0.49443,-0.50752 -0.49443,-1.35559 z m 0.782574,-0.0164 q 0,0.59594 0.288145,0.92992 0.291419,0.33399 0.789123,0.33399 1.044524,0 1.044524,-1.28683 0,-0.62213 -0.268498,-0.94629 -0.268498,-0.32744 -0.776026,-0.32744 -0.507527,0 -0.792397,0.34708 -0.284871,0.34709 -0.284871,0.94957 z m 6.938392,1.79436 H 41.17019 v -2.04648 q 0,-1.04453 -0.759654,-1.04453 -0.383102,0 -0.635228,0.29142 -0.248852,0.28814 -0.248852,0.73346 v 2.06613 h -0.769477 v -3.62146 h 0.769477 v 0.59266 h 0.01637 q 0.402747,-0.67779 1.178773,-0.67779 1.214791,0 1.214791,1.49311 z"
       id="text4-3-2-0-0"
       aria-label="Location" /><path
       d="m 51.827237,104.42606 q -0.578307,0 -0.993966,-0.39759 -0.397586,-0.41566 -0.397586,-1.04818 0,-0.65059 0.397586,-1.06625 0.415659,-0.41566 0.993966,-0.41566 0.596379,0 0.993965,0.41566 0.415659,0.41566 0.415659,1.06625 0,0.63252 -0.415659,1.04818 -0.397586,0.39759 -0.993965,0.39759 z m 0,7.12041 q -0.578307,0 -0.993966,-0.41566 -0.397586,-0.43373 -0.397586,-1.06626 0,-0.65059 0.397586,-1.04818 0.415659,-0.41566 0.993966,-0.41566 0.596379,0 0.993965,0.41566 0.415659,0.39759 0.415659,1.04818 0,0.63253 -0.415659,1.06626 -0.397586,0.41566 -0.993965,0.41566 z"
       id="text5-7-8-0"
       style="font-weight:500;font-size:18.0721px;line-height:1;font-family:'Noto Sans JP';-inkscape-font-specification:'Noto Sans JP Medium';text-align:center;text-anchor:middle;stroke-width:0.451804"
       aria-label=":" /><g
       inkscape:label="Layer 1"
       id="layer1-9"
       transform="matrix(0.34961931,0,0,0.34961931,153.43897,48.992106)"><path
         style="font-size:56px;line-height:0.45;font-family:'Noto Sans TC';-inkscape-font-specification:'Noto Sans TC';white-space:pre;stroke-width:0.469652"
         d="m 17.449877,10.94007 h 1.99884 v 10.152005 q 0,0.710114 0.236705,0.920518 0.236705,0.184104 0.99942,0.184104 0.184103,0 0.631212,0 0.47341,0 1.025721,0 0.552312,0 1.025721,0 0.49971,0 0.736415,0 0.552311,0 0.815316,-0.341907 0.263006,-0.368208 0.368207,-1.367628 0.131503,-1.02572 0.157804,-3.050861 0.263005,0.184104 0.578612,0.368207 0.315606,0.157803 0.657513,0.289306 0.368207,0.131503 0.631213,0.210404 -0.105202,2.261846 -0.394508,3.524271 -0.263006,1.236125 -0.894218,1.735835 -0.604913,0.49971 -1.762136,0.49971 -0.184104,0 -0.736415,0 -0.552311,0 -1.183524,0 -0.631213,0 -1.183524,0 -0.52601,0 -0.710114,0 -1.157223,0 -1.841037,-0.263005 -0.657513,-0.263005 -0.920519,-0.920518 -0.236704,-0.631213 -0.236704,-1.762136 z M 3.6683984,9.7565461 H 26.891767 V 11.702785 H 3.6683984 Z M 5.9828446,2.3923979 H 24.656222 V 4.2860361 H 5.9828446 Z m 4.4184894,8.8632781 h 2.104043 Q 12.321274,13.464921 11.953066,15.437461 11.584858,17.41 10.743241,19.119535 9.9279243,20.802769 8.4287939,22.170396 6.9559647,23.538024 4.6152175,24.458542 4.4574143,24.116635 4.0892064,23.643226 3.7209995,23.196117 3.3790926,22.933112 5.535736,22.117795 6.8507621,20.907971 8.1920892,19.698146 8.9022029,18.199016 9.6386183,16.673586 9.9542243,14.937751 10.269831,13.175615 10.401334,11.255676 Z"
         id="text1"
         aria-label="元" /><path
         style="font-size:23.9401px;line-height:0.45;font-family:'Noto Sans TC';-inkscape-font-specification:'Noto Sans TC';stroke-width:0.435274"
         d="M 2.9803438,49.583089 V 29.368665 h 1.9535403 l 5.5696679,12.740879 1.641806,4.164226 h 0.103912 q -0.103912,-1.516771 -0.187042,-3.17143 -0.08313,-1.65466 -0.08313,-3.226587 V 29.368665 h 1.828847 V 49.583089 H 11.833623 L 6.2847364,36.814633 4.6429313,32.677984 h -0.083129 q 0.062347,1.516771 0.1454764,3.116276 0.083129,1.571927 0.083129,3.171431 v 10.617398 z m 18.1845422,0 V 31.519723 h -4.613681 v -2.151058 h 11.160119 v 2.151058 h -4.61368 v 18.063366 z"
         id="text2"
         aria-label="NT" /></g><g
       inkscape:label="Layer 1"
       id="layer1-9-0"
       transform="matrix(0.34961931,0,0,0.34961931,153.45119,73.657533)"><path
         style="font-size:56px;line-height:0.45;font-family:'Noto Sans TC';-inkscape-font-specification:'Noto Sans TC';white-space:pre;stroke-width:0.469652"
         d="m 17.449877,10.94007 h 1.99884 v 10.152005 q 0,0.710114 0.236705,0.920518 0.236705,0.184104 0.99942,0.184104 0.184103,0 0.631212,0 0.47341,0 1.025721,0 0.552312,0 1.025721,0 0.49971,0 0.736415,0 0.552311,0 0.815316,-0.341907 0.263006,-0.368208 0.368207,-1.367628 0.131503,-1.02572 0.157804,-3.050861 0.263005,0.184104 0.578612,0.368207 0.315606,0.157803 0.657513,0.289306 0.368207,0.131503 0.631213,0.210404 -0.105202,2.261846 -0.394508,3.524271 -0.263006,1.236125 -0.894218,1.735835 -0.604913,0.49971 -1.762136,0.49971 -0.184104,0 -0.736415,0 -0.552311,0 -1.183524,0 -0.631213,0 -1.183524,0 -0.52601,0 -0.710114,0 -1.157223,0 -1.841037,-0.263005 -0.657513,-0.263005 -0.920519,-0.920518 -0.236704,-0.631213 -0.236704,-1.762136 z M 3.6683984,9.7565461 H 26.891767 V 11.702785 H 3.6683984 Z M 5.9828446,2.3923979 H 24.656222 V 4.2860361 H 5.9828446 Z m 4.4184894,8.8632781 h 2.104043 Q 12.321274,13.464921 11.953066,15.437461 11.584858,17.41 10.743241,19.119535 9.9279243,20.802769 8.4287939,22.170396 6.9559647,23.538024 4.6152175,24.458542 4.4574143,24.116635 4.0892064,23.643226 3.7209995,23.196117 3.3790926,22.933112 5.535736,22.117795 6.8507621,20.907971 8.1920892,19.698146 8.9022029,18.199016 9.6386183,16.673586 9.9542243,14.937751 10.269831,13.175615 10.401334,11.255676 Z"
         id="text1-6"
         aria-label="元" /><path
         style="font-size:23.9401px;line-height:0.45;font-family:'Noto Sans TC';-inkscape-font-specification:'Noto Sans TC';stroke-width:0.435274"
         d="M 2.9803438,49.583089 V 29.368665 h 1.9535403 l 5.5696679,12.740879 1.641806,4.164226 h 0.103912 q -0.103912,-1.516771 -0.187042,-3.17143 -0.08313,-1.65466 -0.08313,-3.226587 V 29.368665 h 1.828847 V 49.583089 H 11.833623 L 6.2847364,36.814633 4.6429313,32.677984 h -0.083129 q 0.062347,1.516771 0.1454764,3.116276 0.083129,1.571927 0.083129,3.171431 v 10.617398 z m 18.1845422,0 V 31.519723 h -4.613681 v -2.151058 h 11.160119 v 2.151058 h -4.61368 v 18.063366 z"
         id="text2-6"
         aria-label="NT" /></g><path
       style="font-weight:600;font-size:6.62908px;line-height:1;font-family:'Noto Sans TC';-inkscape-font-specification:'Noto Sans TC Semi-Bold';fill:#ff0000;stroke-width:0.165727"
       d="m 96.669993,15.384755 q -0.464036,-0.762344 -0.729199,-1.590979 -0.258534,-0.828635 -0.258534,-1.816368 0,-0.987733 0.258534,-1.816368 0.265163,-0.835264 0.729199,-1.5976082 l 0.536955,0.2386469 q -0.417632,0.7159406 -0.616504,1.5379463 -0.198873,0.815377 -0.198873,1.637383 0,0.828635 0.198873,1.644012 0.198872,0.815377 0.616504,1.531317 z m 1.160092,-6.5959345 h 2.313545 v 0.662908 h -2.313545 z m 0.05966,1.8892875 h 2.187593 v 0.656279 h -2.187593 z m -0.21213,2.320178 q 0.318195,-0.07292 0.722569,-0.178985 0.411003,-0.106065 0.86841,-0.232018 0.457406,-0.125952 0.908184,-0.251905 l 0.0928,0.629763 q -0.623137,0.185614 -1.266157,0.377857 -0.636392,0.185615 -1.146831,0.331454 z m 3.400713,-2.678148 v 0.483923 h 1.86278 v -0.483923 z m 0,1.027507 v 0.483923 h 1.86278 v -0.483923 z m 0,-2.0550144 v 0.4772937 h 1.86278 V 9.2926306 Z m -0.6629,-0.583359 h 3.22173 v 3.7122844 h -3.22173 z m 1.69704,3.4471214 h 0.67617 v 1.617496 q 0,0.13921 0.0265,0.178985 0.0265,0.03315 0.11933,0.03315 0.0265,0 0.0928,0 0.0729,0 0.14584,0 0.0795,0 0.10607,0 0.0597,0 0.0928,-0.05303 0.0331,-0.05303 0.0464,-0.218759 0.0199,-0.172356 0.0265,-0.50381 0.0729,0.05303 0.17898,0.106065 0.10607,0.05303 0.21876,0.09281 0.1127,0.03978 0.2055,0.06629 -0.0331,0.437519 -0.10606,0.682795 -0.0729,0.245276 -0.21213,0.338083 -0.13921,0.09944 -0.37123,0.09944 -0.0398,0 -0.11933,0 -0.0729,0 -0.15909,0 -0.0795,0 -0.15247,0 -0.0729,0 -0.1127,0 -0.29168,0 -0.44414,-0.07292 -0.14584,-0.07292 -0.20551,-0.258535 -0.053,-0.178985 -0.053,-0.483922 z m -1.16672,0.165727 h 0.69606 q -0.0398,0.424261 -0.13259,0.788861 -0.0928,0.35797 -0.29167,0.656278 -0.19225,0.29168 -0.53696,0.517069 -0.34471,0.232017 -0.881668,0.391115 -0.03315,-0.08618 -0.09944,-0.198872 -0.06629,-0.106065 -0.14584,-0.212131 -0.07292,-0.106065 -0.14584,-0.172356 0.464036,-0.119323 0.755714,-0.291679 0.29168,-0.172356 0.45078,-0.391116 0.1591,-0.218759 0.22539,-0.490552 0.0729,-0.271792 0.10606,-0.596617 z M 98.665349,9.0539837 h 0.682796 v 3.8978993 l -0.682796,0.106065 z M 105.71206,10.3798 h 3.51341 v 0.662908 h -3.51341 z m -0.78886,1.411994 h 5.11102 v 0.64302 h -5.11102 z m -0.31819,2.035127 h 5.76729 v 0.64965 h -5.76729 z m 2.47927,-3.135555 h 0.76897 v 3.447122 h -0.76897 z m -1.69041,1.988724 0.57673,-0.238646 q 0.12595,0.172356 0.24527,0.377857 0.12595,0.205502 0.22539,0.404374 0.10607,0.192243 0.15247,0.351341 l -0.61651,0.265163 q -0.0398,-0.152468 -0.13921,-0.35797 -0.0928,-0.205501 -0.21213,-0.417632 -0.11269,-0.212131 -0.23201,-0.384487 z m 3.52667,-0.232017 0.68279,0.245276 q -0.19224,0.311566 -0.39774,0.623133 -0.19888,0.311567 -0.3646,0.530326 L 108.2974,13.62142 q 0.1127,-0.159098 0.22539,-0.3646 0.11933,-0.205501 0.21876,-0.417632 0.10607,-0.21213 0.17899,-0.391115 z m -1.17335,-3.6725106 q 0.23202,0.251905 0.56347,0.50381 0.33146,0.245276 0.72257,0.4640356 0.39112,0.2187597 0.80875,0.397745 0.41763,0.178985 0.82863,0.298308 -0.0795,0.07292 -0.17898,0.185615 -0.0928,0.112694 -0.17899,0.225388 -0.0795,0.112695 -0.13921,0.212131 -0.411,-0.14584 -0.82863,-0.35797 -0.41101,-0.212131 -0.81538,-0.470665 -0.39774,-0.2651633 -0.74909,-0.5568428 -0.35134,-0.2983086 -0.62313,-0.6165044 z m -0.33145,-0.3977448 0.66953,0.2983086 q -0.37123,0.5701008 -0.88829,1.0275073 -0.51044,0.4574065 -1.12032,0.8087475 -0.60987,0.344712 -1.27278,0.583359 -0.0796,-0.159098 -0.21213,-0.338083 -0.13258,-0.185614 -0.27179,-0.318196 0.62976,-0.192243 1.21975,-0.4839224 0.58998,-0.2916795 1.07391,-0.6894243 0.49055,-0.3977448 0.80212,-0.8882967 z m 7.43119,4.9784394 h 1.73019 v 0.682795 h -1.73019 z m -3.71228,-3.7056561 h 2.45939 v 0.6960531 h -2.45939 z m 3.39409,-0.4308902 h 2.36658 v 5.2369733 h -0.70931 V 9.909135 h -0.97448 v 4.600581 h -0.68279 z m -1.11369,0.4308902 h 0.68943 q 0,0 0,0.066291 0,0.066291 0,0.1458398 0,0.079549 0,0.1259525 -0.0199,1.073911 -0.0464,1.822997 -0.0199,0.749086 -0.053,1.22638 -0.0331,0.477293 -0.0862,0.749086 -0.0464,0.265163 -0.12595,0.377857 -0.10607,0.152469 -0.22539,0.21876 -0.11269,0.06629 -0.27179,0.09944 -0.13921,0.02652 -0.35797,0.02652 -0.21213,0.0066 -0.43752,-0.0066 -0.007,-0.159098 -0.0597,-0.364599 -0.053,-0.198872 -0.14584,-0.351341 0.2055,0.01989 0.38448,0.02652 0.17899,0 0.26517,0 0.0729,0.0066 0.12595,-0.01989 0.053,-0.02652 0.0994,-0.09281 0.053,-0.07955 0.0928,-0.311567 0.0398,-0.238647 0.0663,-0.689424 0.0332,-0.450778 0.0464,-1.160089 0.0199,-0.709312 0.0398,-1.7301902 z m -1.45177,-1.1136854 h 0.70269 q -0.007,0.9612166 -0.0332,1.8495135 -0.0265,0.888296 -0.13258,1.677157 -0.10607,0.782231 -0.35134,1.431881 -0.24528,0.64965 -0.67617,1.140202 -0.053,-0.08618 -0.14584,-0.185614 -0.0928,-0.09281 -0.19224,-0.185615 -0.0994,-0.09281 -0.19224,-0.145839 0.31819,-0.344712 0.51043,-0.788861 0.19888,-0.450777 0.30494,-0.981104 0.10607,-0.536955 0.14584,-1.140201 0.0464,-0.609876 0.053,-1.2794127 0.007,-0.6761662 0.007,-1.3921068 z m 7.66985,0.5303264 h 4.02385 v 0.6165044 h -4.02385 z m -0.29168,4.8259701 h 4.48126 v 0.596617 h -4.48126 z m 0.59662,-3.705656 h 3.35431 v 3.824979 h -0.65628 v -3.301281 h -2.06827 v 3.301281 h -0.62976 z m 0.46403,0.94133 h 2.35996 v 0.497181 h -2.35996 z m -0.0133,0.928071 h 2.52568 v 0.483923 h -2.52568 z m -0.0132,0.914813 h 2.39972 v 0.490552 h -2.39972 z m 0.95458,-4.5144035 0.75572,0.026516 q -0.053,0.338083 -0.12595,0.6960533 -0.0729,0.3579703 -0.14584,0.6827953 -0.0729,0.3181955 -0.14584,0.5568425 l -0.62314,-0.05303 q 0.0663,-0.251906 0.11933,-0.5899886 0.0597,-0.3380831 0.0994,-0.6827952 0.0464,-0.3513412 0.0663,-0.6363917 z m -2.28703,0.00663 0.65628,0.2055015 q -0.2055,0.5634718 -0.48392,1.1269436 -0.27179,0.5568423 -0.59662,1.0540233 -0.3182,0.497181 -0.66291,0.881668 -0.0265,-0.09281 -0.0994,-0.225389 -0.0663,-0.13921 -0.13921,-0.278421 -0.0729,-0.14584 -0.13259,-0.232018 0.29168,-0.311567 0.56348,-0.715941 0.27179,-0.4110025 0.49718,-0.8750381 0.23201,-0.4640355 0.39774,-0.9413293 z m -0.66291,1.8097384 0.65628,-0.6761657 v 0.00663 5.0248427 h -0.65628 z m 6.54291,5.111021 -0.54359,-0.232018 q 0.41763,-0.71594 0.6165,-1.531317 0.20551,-0.815377 0.20551,-1.644012 0,-0.822006 -0.20551,-1.637383 -0.19887,-0.8220057 -0.6165,-1.5379463 l 0.54359,-0.2386469 q 0.46403,0.7623442 0.72256,1.5976082 0.26517,0.828635 0.26517,1.816368 0,0.987733 -0.26517,1.816368 -0.25853,0.828635 -0.72256,1.590979 z"
       id="text6"
       aria-label="(現金加值)" /><path
       style="font-weight:bold;font-size:6.33479px;line-height:1;font-family:Helvetica;-inkscape-font-specification:'Helvetica Bold';text-align:center;text-anchor:middle;fill:#ff0000;stroke-width:0.15837"
       d="m 92.304824,19.52767 q 0,-1.19396 0.640284,-1.84043 0.556769,-0.562955 1.416667,-0.562955 1.150655,0 1.682678,0.754731 0.293851,0.423763 0.315503,0.850619 h -0.952693 q -0.09279,-0.327875 -0.238174,-0.494906 -0.259825,-0.296943 -0.770196,-0.296943 -0.519651,0 -0.819688,0.42067 -0.300036,0.417576 -0.300036,1.18468 0,0.767103 0.315502,1.150655 0.318596,0.380458 0.807315,0.380458 0.501092,0 0.76401,-0.327874 0.145379,-0.176311 0.241267,-0.528931 h 0.943413 q -0.123726,0.745452 -0.634097,1.212519 -0.507279,0.467067 -1.302221,0.467067 -0.983624,0 -1.546579,-0.631005 -0.562955,-0.634097 -0.562955,-1.738355 z m 2.029112,-2.455969 z m 4.531478,3.059135 q -0.08352,0.05258 -0.170123,0.08661 -0.08352,0.03093 -0.231987,0.05877 l -0.197962,0.03712 q -0.278385,0.04949 -0.399018,0.120633 -0.204148,0.120634 -0.204148,0.374273 0,0.2258 0.123726,0.327875 0.126819,0.09898 0.306223,0.09898 0.28457,0 0.522744,-0.167031 0.241266,-0.16703 0.250545,-0.609352 z m -0.535116,-0.41139 q 0.24436,-0.03093 0.349527,-0.07733 0.188683,-0.08042 0.188683,-0.250546 0,-0.207242 -0.145379,-0.284571 -0.142285,-0.08042 -0.420669,-0.08042 -0.31241,0 -0.442322,0.154658 -0.0928,0.114447 -0.123727,0.309316 h -0.850618 q 0.02784,-0.442322 0.247452,-0.726893 0.349527,-0.445415 1.200146,-0.445415 0.553676,0 0.983625,0.219615 0.429949,0.219614 0.429949,0.828966 v 1.54658 q 0,0.160844 0.0062,0.389738 0.0093,0.173217 0.05258,0.23508 0.0433,0.06186 0.129913,0.102075 v 0.129912 h -0.95888 q -0.04021,-0.102074 -0.05568,-0.191776 -0.01547,-0.0897 -0.02475,-0.204148 -0.182496,0.197962 -0.42067,0.337154 -0.28457,0.163938 -0.643377,0.163938 -0.457787,0 -0.757824,-0.259826 -0.296943,-0.262918 -0.296943,-0.742358 0,-0.621725 0.47944,-0.900109 0.262918,-0.151565 0.773289,-0.216521 z m 0.0464,-1.410481 z m 2.839525,2.384826 q 0.0278,0.23508 0.12063,0.334061 0.16394,0.17631 0.60626,0.17631 0.25982,0 0.41139,-0.07733 0.15466,-0.07733 0.15466,-0.231987 0,-0.148471 -0.12373,-0.2258 -0.12373,-0.07733 -0.91867,-0.266012 -0.57223,-0.142285 -0.80731,-0.355713 -0.23508,-0.210335 -0.23508,-0.60626 0,-0.467067 0.36499,-0.801128 0.36809,-0.337154 1.03311,-0.337154 0.63101,0 1.02693,0.253639 0.39902,0.250546 0.45779,0.869178 h -0.88155 q -0.0186,-0.170124 -0.0959,-0.269105 -0.14538,-0.179404 -0.4949,-0.179404 -0.28767,0 -0.41139,0.0897 -0.12064,0.0897 -0.12064,0.210335 0,0.151565 0.12992,0.219614 0.12991,0.07114 0.91867,0.24436 0.52583,0.123726 0.78875,0.374272 0.25983,0.253639 0.25983,0.634098 0,0.501092 -0.37428,0.819687 -0.37118,0.315502 -1.15065,0.315502 -0.79494,0 -1.1754,-0.334061 -0.37737,-0.337154 -0.37737,-0.856805 z m 0.6743,-2.384826 z m 4.02111,0.0031 q 0.31241,0 0.56605,0.108261 0.25673,0.10826 0.42067,0.330968 0.13919,0.188683 0.17012,0.389738 0.0309,0.197962 0.0309,0.649563 v 1.979622 h -0.9001 v -2.050764 q 0,-0.272198 -0.0928,-0.439229 -0.12063,-0.23508 -0.45779,-0.23508 -0.34952,0 -0.53202,0.23508 -0.1794,0.231987 -0.1794,0.665029 v 1.824964 h -0.87846 v -4.543851 h 0.87846 v 1.611536 q 0.19177,-0.29385 0.44232,-0.408297 0.25364,-0.11754 0.53202,-0.11754 z m 7.15448,-1.101165 v 0.807315 h -1.36408 v 3.752002 h -0.95888 v -3.752002 h -1.37027 v -0.807315 z m 1.53111,3.937592 q 0.38665,0 0.59389,-0.275291 0.20724,-0.275291 0.20724,-0.782569 0,-0.507278 -0.20724,-0.779476 -0.20724,-0.275292 -0.59389,-0.275292 -0.38664,0 -0.59698,0.275292 -0.20724,0.272198 -0.20724,0.779476 0,0.507278 0.20724,0.782569 0.21034,0.275291 0.59698,0.275291 z m 1.72599,-1.05786 q 0,0.742358 -0.42686,1.271288 -0.42686,0.525837 -1.29603,0.525837 -0.86918,0 -1.29604,-0.525837 -0.42685,-0.52893 -0.42685,-1.271288 0,-0.729986 0.42685,-1.265102 0.42686,-0.535117 1.29604,-0.535117 0.86917,0 1.29603,0.535117 0.42686,0.535116 0.42686,1.265102 z m -1.72289,-1.78166 z m 4.67685,1.775473 q 0,-0.389738 -0.1794,-0.689774 -0.17631,-0.300037 -0.57533,-0.300037 -0.47944,0 -0.65884,0.454695 -0.0928,0.241266 -0.0928,0.612445 0,0.587701 0.3124,0.825874 0.18559,0.139192 0.43923,0.139192 0.36809,0 0.55986,-0.284571 0.19487,-0.28457 0.19487,-0.757824 z m -0.50109,-1.760007 q 0.5908,0 0.99909,0.436135 0.41139,0.436136 0.41139,1.280568 0,0.89083 -0.40211,1.357897 -0.39902,0.467067 -1.03002,0.467067 -0.40211,0 -0.66812,-0.201055 -0.14538,-0.111354 -0.28457,-0.324782 v 1.756915 h -0.87227 v -4.698509 h 0.84443 v 0.497998 q 0.14228,-0.219614 0.30313,-0.346434 0.29385,-0.2258 0.69905,-0.2258 z m 1.78166,1.262009 h 1.77547 v 0.835153 h -1.77547 z m 3.254,-1.187773 v 2.032205 q 0,0.287664 0.068,0.433043 0.12064,0.256732 0.47326,0.256732 0.4516,0 0.61863,-0.364993 0.0866,-0.197962 0.0866,-0.522744 v -1.834243 h 0.89392 v 3.371543 h -0.8568 v -0.476346 q -0.0124,0.01547 -0.0619,0.0928 -0.0495,0.07733 -0.11754,0.136099 -0.20724,0.185589 -0.40211,0.253639 -0.19177,0.06805 -0.4516,0.06805 -0.74854,0 -1.00837,-0.53821 -0.14538,-0.296943 -0.14538,-0.875364 v -2.032205 z m 0.61864,-0.0897 z m 4.69541,1.775473 q 0,-0.389738 -0.1794,-0.689774 -0.17631,-0.300037 -0.57533,-0.300037 -0.47944,0 -0.65884,0.454695 -0.0928,0.241266 -0.0928,0.612445 0,0.587701 0.31241,0.825874 0.18559,0.139192 0.43923,0.139192 0.36809,0 0.55986,-0.284571 0.19487,-0.28457 0.19487,-0.757824 z m -0.50109,-1.760007 q 0.59079,0 0.99909,0.436135 0.41139,0.436136 0.41139,1.280568 0,0.89083 -0.40211,1.357897 -0.39902,0.467067 -1.03002,0.467067 -0.40211,0 -0.66813,-0.201055 -0.14537,-0.111354 -0.28457,-0.324782 v 1.756915 h -0.87227 v -4.698509 h 0.84444 v 0.497998 q 0.14228,-0.219614 0.30313,-0.346434 0.29385,-0.2258 0.69905,-0.2258 z"
       id="text7"
       aria-label="Cash Top-up" /></g></svg>
