<?xml version="1.0" encoding="UTF-8" standalone="no"?>
<!-- Created with Inkscape (http://www.inkscape.org/) -->

<svg
   width="550"
   height="80"
   viewBox="0 0 145.52082 21.166666"
   version="1.1"
   id="svg1"
   sodipodi:docname="tic_pay.svg"
   inkscape:version="1.1 (c68e22c387, 2021-05-23)"
   xmlns:inkscape="http://www.inkscape.org/namespaces/inkscape"
   xmlns:sodipodi="http://sodipodi.sourceforge.net/DTD/sodipodi-0.dtd"
   xmlns="http://www.w3.org/2000/svg"
   xmlns:svg="http://www.w3.org/2000/svg">
  <sodipodi:namedview
     id="namedview1"
     pagecolor="#e2e2e2"
     bordercolor="#ffffff"
     borderopacity="1"
     inkscape:showpageshadow="0"
     inkscape:pageopacity="0"
     inkscape:pagecheckerboard="1"
     inkscape:deskcolor="#d1d1d1"
     inkscape:document-units="mm"
     inkscape:zoom="2.0208096"
     inkscape:cx="171.21851"
     inkscape:cy="89.073211"
     inkscape:window-width="1920"
     inkscape:window-height="1094"
     inkscape:window-x="-11"
     inkscape:window-y="-11"
     inkscape:window-maximized="1"
     inkscape:current-layer="layer1"
     inkscape:pageshadow="0"
     showgrid="false" />
  <defs
     id="defs1">
    <rect
       x="4.9485117"
       y="89.073211"
       width="672.9976"
       height="125.6922"
       id="rect3156" />
    <clipPath
       id="clip_0">
      <path
         transform="matrix(1,0,0,-1,0,841.92)"
         d="M 8.871e-6,0 H 595.32 V 841.92 H 8.871e-6 Z"
         fill-rule="evenodd"
         id="path1" />
    </clipPath>
    <clipPath
       id="clip_2">
      <path
         transform="matrix(1,0,0,-1,0,841.92)"
         d="M 8.871e-6,0 H 595.32 V 841.92 H 8.871e-6 Z"
         fill-rule="evenodd"
         id="path2" />
    </clipPath>
    <clipPath
       id="clip_3">
      <path
         transform="matrix(1,0,0,-1,0,841.92)"
         d="M 8.871e-6,0 H 595.32 V 841.92 H 8.871e-6 Z"
         fill-rule="evenodd"
         id="path3" />
    </clipPath>
    <clipPath
       id="clip_4">
      <path
         transform="matrix(1,0,0,-1,0,841.92)"
         d="M 8.871e-6,0 H 595.32 V 841.92 H 8.871e-6 Z"
         fill-rule="evenodd"
         id="path4" />
    </clipPath>
    <clipPath
       id="clip_5">
      <path
         transform="matrix(1,0,0,-1,0,841.92)"
         d="M 8.871e-6,0 H 595.32 V 841.92 H 8.871e-6 Z"
         fill-rule="evenodd"
         id="path5" />
    </clipPath>
    <clipPath
       id="clip_14">
      <path
         transform="matrix(1,0,0,-1,0,841.92)"
         d="M 8.871e-6,0 H 595.32 V 841.92 H 8.871e-6 Z"
         fill-rule="evenodd"
         id="path12" />
    </clipPath>
  </defs>
  <g
     inkscape:label="Layer 1"
     inkscape:groupmode="layer"
     id="layer1">
    <g
       aria-label="Insert coins or banknotes"
       id="text41982"
       style="font-size:7.5863px;line-height:1.25;fill:#282472;stroke-width:0.189658">
      <path
         d="M 4.1723566,18.909441 H 3.0388567 V 13.449379 H 4.1723566 Z M 3.6056067,13.341956 Z"
         style="font-weight:bold;font-family:Helvetica;-inkscape-font-specification:'Helvetica Bold'"
         id="path55225" />
      <path
         d="m 7.3876438,14.7755 q 0.6260179,0 1.0223725,0.329678 0.4000587,0.325974 0.4000587,1.085345 v 2.718918 H 7.7284346 v -2.455916 q 0,-0.318566 -0.085198,-0.488961 -0.1555784,-0.311157 -0.5926797,-0.311157 -0.5371159,0 -0.7371453,0.455623 -0.103719,0.240776 -0.103719,0.614905 v 2.185506 H 5.1576865 v -4.030222 h 1.0186682 v 0.588976 Q 6.3800884,15.157038 6.5615965,15.019981 6.8875703,14.7755 7.3876438,14.7755 Z m -0.388946,-0.01111 z"
         style="font-weight:bold;font-family:Helvetica;-inkscape-font-specification:'Helvetica Bold'"
         id="path55227" />
      <path
         d="m 10.606635,17.620363 q 0.03334,0.281523 0.144466,0.400058 0.196325,0.211143 0.726032,0.211143 0.311157,0 0.492665,-0.09261 0.185213,-0.09261 0.185213,-0.277818 0,-0.177804 -0.14817,-0.27041 -0.14817,-0.09261 -1.100162,-0.318566 -0.685286,-0.170395 -0.9668084,-0.425988 -0.2815229,-0.251889 -0.2815229,-0.726033 0,-0.559341 0.4371013,-0.9594 0.440805,-0.403763 1.237219,-0.403763 0.755666,0 1.22981,0.303748 0.477848,0.300044 0.548229,1.040894 h -1.055711 q -0.02222,-0.203734 -0.114832,-0.32227 -0.174099,-0.214846 -0.592679,-0.214846 -0.344495,0 -0.492665,0.107423 -0.144466,0.107423 -0.144466,0.251889 0,0.181508 0.155579,0.263002 0.155578,0.0852 1.100161,0.292635 0.629722,0.14817 0.944583,0.448214 0.311157,0.303749 0.311157,0.759371 0,0.600088 -0.448214,0.981626 -0.444509,0.377833 -1.37798,0.377833 -0.951992,0 -1.4076142,-0.400059 -0.4519183,-0.403763 -0.4519183,-1.026076 z m 0.807526,-2.855976 z"
         style="font-weight:bold;font-family:Helvetica;-inkscape-font-specification:'Helvetica Bold'"
         id="path55229" />
      <path
         d="m 15.596257,15.634886 q -0.36672,0 -0.570454,0.229663 -0.200029,0.229664 -0.251889,0.622314 h 1.640982 q -0.02593,-0.41858 -0.255593,-0.633427 -0.225959,-0.21855 -0.563046,-0.21855 z m 0,-0.870499 q 0.503778,0 0.907541,0.188917 0.403763,0.188917 0.666765,0.596384 0.237072,0.359312 0.307452,0.833456 0.04075,0.277818 0.03334,0.800117 h -2.763369 q 0.02223,0.607497 0.381537,0.851977 0.218551,0.151875 0.526003,0.151875 0.325974,0 0.529708,-0.185213 0.111127,-0.100014 0.196325,-0.277818 h 1.077936 q -0.04075,0.359312 -0.374129,0.729736 -0.518595,0.588976 -1.452065,0.588976 -0.770484,0 -1.359459,-0.496369 -0.588976,-0.49637 -0.588976,-1.615052 0,-1.048303 0.529708,-1.607644 0.533412,-0.559342 1.381684,-0.559342 z m 0.07409,0 z"
         style="font-weight:bold;font-family:Helvetica;-inkscape-font-specification:'Helvetica Bold'"
         id="path55231" />
      <path
         d="m 20.415484,14.7755 q 0.02963,0 0.04816,0.0037 0.02222,0 0.09261,0.0037 v 1.08164 q -0.100015,-0.01111 -0.177804,-0.01482 -0.07779,-0.0037 -0.125944,-0.0037 -0.637131,0 -0.855681,0.414876 -0.122241,0.233367 -0.122241,0.718624 v 1.929913 h -1.063119 v -4.03763 h 1.007556 v 0.703807 Q 19.463492,15.171855 19.645,15.023685 19.94134,14.7755 20.415484,14.7755 Z"
         style="font-weight:bold;font-family:Helvetica;-inkscape-font-specification:'Helvetica Bold'"
         id="path55233" />
      <path
         d="m 20.759979,15.660816 v -0.751963 h 0.563046 v -1.126091 h 1.044598 v 1.126091 h 0.655651 v 0.751963 h -0.655651 v 2.133646 q 0,0.248185 0.06297,0.311157 0.06297,0.05927 0.385242,0.05927 0.04816,0 0.100014,0 0.05556,-0.0037 0.107423,-0.0074 v 0.789004 l -0.500073,0.01852 q -0.748258,0.02593 -1.022372,-0.259298 -0.177804,-0.181508 -0.177804,-0.559341 v -2.48555 z"
         style="font-weight:bold;font-family:Helvetica;-inkscape-font-specification:'Helvetica Bold'"
         id="path55235" />
      <path
         d="m 28.220334,16.320172 q -0.02963,-0.225959 -0.151874,-0.407468 -0.177804,-0.24448 -0.551933,-0.24448 -0.533412,0 -0.729737,0.529707 -0.103719,0.281523 -0.103719,0.748259 0,0.444509 0.103719,0.714919 0.188917,0.503778 0.711216,0.503778 0.370425,0 0.526003,-0.200029 0.155579,-0.20003 0.188917,-0.518595 h 1.077936 q -0.03704,0.481552 -0.348199,0.911245 -0.49637,0.692694 -1.470587,0.692694 -0.974217,0 -1.433544,-0.577862 -0.459327,-0.577863 -0.459327,-1.500221 0,-1.040893 0.507482,-1.618756 0.507482,-0.577863 1.400206,-0.577863 0.759371,0 1.240923,0.340791 0.485257,0.340791 0.574159,1.203881 z m -0.71492,-1.555785 z"
         style="font-weight:bold;font-family:Helvetica;-inkscape-font-specification:'Helvetica Bold'"
         id="path55237" />
      <path
         d="m 31.839385,18.164887 q 0.463031,0 0.711216,-0.329678 0.248184,-0.329678 0.248184,-0.937175 0,-0.607496 -0.248184,-0.93347 -0.248185,-0.329678 -0.711216,-0.329678 -0.463031,0 -0.71492,0.329678 -0.248184,0.325974 -0.248184,0.93347 0,0.607497 0.248184,0.937175 0.251889,0.329678 0.71492,0.329678 z m 2.066971,-1.266853 q 0,0.88902 -0.511187,1.522446 -0.511186,0.629722 -1.55208,0.629722 -1.040893,0 -1.552079,-0.629722 -0.511187,-0.633426 -0.511187,-1.522446 0,-0.874202 0.511187,-1.515037 0.511186,-0.640835 1.552079,-0.640835 1.040894,0 1.55208,0.640835 0.511187,0.640835 0.511187,1.515037 z m -2.063267,-2.133647 z"
         style="font-weight:bold;font-family:Helvetica;-inkscape-font-specification:'Helvetica Bold'"
         id="path55239" />
      <path
         d="m 35.747367,14.390258 h -1.070528 v -0.974217 h 1.070528 z m -1.070528,0.481553 h 1.070528 v 4.03763 h -1.070528 z"
         style="font-weight:bold;font-family:Helvetica;-inkscape-font-specification:'Helvetica Bold'"
         id="path55241" />
      <path
         d="m 39.007103,14.7755 q 0.626018,0 1.022373,0.329678 0.400059,0.325974 0.400059,1.085345 v 2.718918 h -1.081641 v -2.455916 q 0,-0.318566 -0.0852,-0.488961 -0.155579,-0.311157 -0.59268,-0.311157 -0.537116,0 -0.737145,0.455623 -0.103719,0.240776 -0.103719,0.614905 v 2.185506 h -1.052007 v -4.030222 h 1.018668 v 0.588976 Q 37.999548,15.157038 38.181056,15.019981 38.50703,14.7755 39.007103,14.7755 Z m -0.388946,-0.01111 z"
         style="font-weight:bold;font-family:Helvetica;-inkscape-font-specification:'Helvetica Bold'"
         id="path55243" />
      <path
         d="m 42.226095,17.620363 q 0.03334,0.281523 0.144466,0.400058 0.196325,0.211143 0.726032,0.211143 0.311157,0 0.492665,-0.09261 0.185212,-0.09261 0.185212,-0.277818 0,-0.177804 -0.148169,-0.27041 -0.14817,-0.09261 -1.100162,-0.318566 -0.685286,-0.170395 -0.966809,-0.425988 -0.281523,-0.251889 -0.281523,-0.726033 0,-0.559341 0.437102,-0.9594 0.440805,-0.403763 1.237218,-0.403763 0.755667,0 1.229811,0.303748 0.477848,0.300044 0.548228,1.040894 h -1.05571 q -0.02223,-0.203734 -0.114832,-0.32227 -0.1741,-0.214846 -0.59268,-0.214846 -0.344495,0 -0.492665,0.107423 -0.144465,0.107423 -0.144465,0.251889 0,0.181508 0.155578,0.263002 0.155579,0.0852 1.100162,0.292635 0.629722,0.14817 0.944583,0.448214 0.311157,0.303749 0.311157,0.759371 0,0.600088 -0.448214,0.981626 -0.44451,0.377833 -1.37798,0.377833 -0.951992,0 -1.407615,-0.400059 -0.451918,-0.403763 -0.451918,-1.026076 z m 0.807526,-2.855976 z"
         style="font-weight:bold;font-family:Helvetica;-inkscape-font-specification:'Helvetica Bold'"
         id="path55245" />
      <path
         d="m 49.541988,18.164887 q 0.463031,0 0.711215,-0.329678 0.248185,-0.329678 0.248185,-0.937175 0,-0.607496 -0.248185,-0.93347 -0.248184,-0.329678 -0.711215,-0.329678 -0.463031,0 -0.71492,0.329678 -0.248185,0.325974 -0.248185,0.93347 0,0.607497 0.248185,0.937175 0.251889,0.329678 0.71492,0.329678 z m 2.06697,-1.266853 q 0,0.88902 -0.511186,1.522446 -0.511186,0.629722 -1.55208,0.629722 -1.040894,0 -1.55208,-0.629722 -0.511186,-0.633426 -0.511186,-1.522446 0,-0.874202 0.511186,-1.515037 0.511186,-0.640835 1.55208,-0.640835 1.040894,0 1.55208,0.640835 0.511186,0.640835 0.511186,1.515037 z m -2.063266,-2.133647 z"
         style="font-weight:bold;font-family:Helvetica;-inkscape-font-specification:'Helvetica Bold'"
         id="path55247" />
      <path
         d="m 54.557539,14.7755 q 0.02963,0 0.04816,0.0037 0.02223,0 0.09261,0.0037 v 1.08164 q -0.100015,-0.01111 -0.177804,-0.01482 -0.07779,-0.0037 -0.125945,-0.0037 -0.63713,0 -0.855681,0.414876 -0.12224,0.233367 -0.12224,0.718624 v 1.929913 h -1.063119 v -4.03763 h 1.007555 v 0.703807 q 0.244481,-0.403763 0.425989,-0.551933 0.29634,-0.248185 0.770483,-0.248185 z"
         style="font-weight:bold;font-family:Helvetica;-inkscape-font-specification:'Helvetica Bold'"
         id="path55249" />
      <path
         d="m 59.606428,14.782909 q 0.796413,0 1.244627,0.574158 0.451918,0.574159 0.451918,1.481699 0,0.940879 -0.444509,1.559489 -0.44451,0.618609 -1.240923,0.618609 -0.500074,0 -0.803822,-0.200029 -0.181508,-0.118536 -0.39265,-0.414876 v 0.507482 h -1.033486 v -5.452653 h 1.052007 v 1.941026 q 0.200029,-0.281523 0.440805,-0.429693 0.285227,-0.185212 0.726033,-0.185212 z m -0.27041,3.363457 q 0.407467,0 0.633426,-0.329678 0.225959,-0.329678 0.225959,-0.866794 0,-0.429693 -0.111127,-0.711216 -0.211142,-0.533412 -0.777892,-0.533412 -0.574159,0 -0.789005,0.522299 -0.111127,0.277819 -0.111127,0.718625 0,0.518594 0.229663,0.859385 0.229663,0.340791 0.700103,0.340791 z"
         style="font-weight:bold;font-family:Helvetica;-inkscape-font-specification:'Helvetica Bold'"
         id="path55251" />
      <path
         d="m 64.284893,16.94619 q -0.100015,0.06297 -0.203734,0.103719 -0.100014,0.03704 -0.277818,0.07038 l -0.237072,0.04445 q -0.333382,0.05927 -0.477848,0.144466 -0.24448,0.144466 -0.24448,0.448214 0,0.27041 0.148169,0.39265 0.151875,0.118536 0.366721,0.118536 0.340791,0 0.626018,-0.200029 0.288931,-0.20003 0.300044,-0.729737 z m -0.640835,-0.492665 q 0.292636,-0.03704 0.41858,-0.09261 0.225959,-0.09631 0.225959,-0.300044 0,-0.248184 -0.174099,-0.340791 -0.170396,-0.09631 -0.503778,-0.09631 -0.374129,0 -0.529708,0.185212 -0.111127,0.137058 -0.14817,0.370425 h -1.018668 q 0.03334,-0.529707 0.29634,-0.870498 0.41858,-0.533412 1.437248,-0.533412 0.663061,0 1.177951,0.263002 0.514891,0.263001 0.514891,0.992738 v 1.852124 q 0,0.192621 0.0074,0.466736 0.01111,0.207437 0.06297,0.281522 0.05186,0.07409 0.155579,0.122241 v 0.155578 h -1.148317 q -0.04815,-0.12224 -0.06668,-0.229663 -0.01852,-0.107424 -0.02963,-0.244481 -0.21855,0.237072 -0.503777,0.403763 -0.340791,0.196325 -0.770484,0.196325 -0.548229,0 -0.907541,-0.311156 -0.355607,-0.314861 -0.355607,-0.88902 0,-0.744554 0.574158,-1.077936 0.314861,-0.181508 0.926062,-0.259297 z m 0.05556,-1.689138 z"
         style="font-weight:bold;font-family:Helvetica;-inkscape-font-specification:'Helvetica Bold'"
         id="path55253" />
      <path
         d="m 68.515145,14.7755 q 0.626018,0 1.022372,0.329678 0.400059,0.325974 0.400059,1.085345 v 2.718918 h -1.08164 v -2.455916 q 0,-0.318566 -0.0852,-0.488961 -0.155578,-0.311157 -0.59268,-0.311157 -0.537116,0 -0.737145,0.455623 -0.103719,0.240776 -0.103719,0.614905 v 2.185506 h -1.052006 v -4.030222 h 1.018668 v 0.588976 q 0.203733,-0.311157 0.385242,-0.448214 0.325973,-0.244481 0.826047,-0.244481 z m -0.388946,-0.01111 z"
         style="font-weight:bold;font-family:Helvetica;-inkscape-font-specification:'Helvetica Bold'"
         id="path55255" />
      <path
         d="m 70.90068,13.467901 h 1.03719 v 2.941173 l 1.315008,-1.518742 h 1.307599 l -1.411318,1.544671 1.466882,2.474438 H 73.34178 l -0.966809,-1.72618 -0.437101,0.455623 v 1.270557 h -1.03719 z"
         style="font-weight:bold;font-family:Helvetica;-inkscape-font-specification:'Helvetica Bold'"
         id="path55257" />
      <path
         d="m 77.368298,14.7755 q 0.626018,0 1.022372,0.329678 0.400059,0.325974 0.400059,1.085345 v 2.718918 h -1.08164 v -2.455916 q 0,-0.318566 -0.0852,-0.488961 -0.155578,-0.311157 -0.59268,-0.311157 -0.537115,0 -0.737145,0.455623 -0.103719,0.240776 -0.103719,0.614905 v 2.185506 h -1.052006 v -4.030222 h 1.018668 v 0.588976 q 0.203734,-0.311157 0.385242,-0.448214 0.325974,-0.244481 0.826047,-0.244481 z m -0.388946,-0.01111 z"
         style="font-weight:bold;font-family:Helvetica;-inkscape-font-specification:'Helvetica Bold'"
         id="path55259" />
      <path
         d="m 81.57632,18.164887 q 0.463031,0 0.711215,-0.329678 0.248185,-0.329678 0.248185,-0.937175 0,-0.607496 -0.248185,-0.93347 -0.248184,-0.329678 -0.711215,-0.329678 -0.463031,0 -0.71492,0.329678 -0.248185,0.325974 -0.248185,0.93347 0,0.607497 0.248185,0.937175 0.251889,0.329678 0.71492,0.329678 z m 2.06697,-1.266853 q 0,0.88902 -0.511186,1.522446 -0.511186,0.629722 -1.55208,0.629722 -1.040894,0 -1.55208,-0.629722 -0.511186,-0.633426 -0.511186,-1.522446 0,-0.874202 0.511186,-1.515037 0.511186,-0.640835 1.55208,-0.640835 1.040894,0 1.55208,0.640835 0.511186,0.640835 0.511186,1.515037 z m -2.063266,-2.133647 z"
         style="font-weight:bold;font-family:Helvetica;-inkscape-font-specification:'Helvetica Bold'"
         id="path55261" />
      <path
         d="m 83.984085,15.660816 v -0.751963 h 0.563045 v -1.126091 h 1.044598 v 1.126091 h 0.655652 v 0.751963 h -0.655652 v 2.133646 q 0,0.248185 0.06297,0.311157 0.06297,0.05927 0.385241,0.05927 0.04816,0 0.100015,0 0.05556,-0.0037 0.107423,-0.0074 v 0.789004 l -0.500073,0.01852 q -0.748258,0.02593 -1.022373,-0.259298 -0.177804,-0.181508 -0.177804,-0.559341 v -2.48555 z"
         style="font-weight:bold;font-family:Helvetica;-inkscape-font-specification:'Helvetica Bold'"
         id="path55263" />
      <path
         d="m 88.518086,15.634886 q -0.366721,0 -0.570455,0.229663 -0.200029,0.229664 -0.251888,0.622314 h 1.640981 q -0.02593,-0.41858 -0.255593,-0.633427 -0.225959,-0.21855 -0.563045,-0.21855 z m 0,-0.870499 q 0.503777,0 0.90754,0.188917 0.403763,0.188917 0.666765,0.596384 0.237072,0.359312 0.307453,0.833456 0.04075,0.277818 0.03334,0.800117 h -2.763369 q 0.02222,0.607497 0.381537,0.851977 0.218551,0.151875 0.526004,0.151875 0.325973,0 0.529707,-0.185213 0.111128,-0.100014 0.196325,-0.277818 h 1.077936 q -0.04075,0.359312 -0.374129,0.729736 -0.518594,0.588976 -1.452065,0.588976 -0.770483,0 -1.359459,-0.496369 -0.588975,-0.49637 -0.588975,-1.615052 0,-1.048303 0.529707,-1.607644 0.533412,-0.559342 1.381685,-0.559342 z m 0.07408,0 z"
         style="font-weight:bold;font-family:Helvetica;-inkscape-font-specification:'Helvetica Bold'"
         id="path55265" />
      <path
         d="m 91.966741,17.620363 q 0.03334,0.281523 0.144466,0.400058 0.196325,0.211143 0.726032,0.211143 0.311157,0 0.492665,-0.09261 0.185213,-0.09261 0.185213,-0.277818 0,-0.177804 -0.14817,-0.27041 -0.14817,-0.09261 -1.100162,-0.318566 -0.685286,-0.170395 -0.966808,-0.425988 -0.281523,-0.251889 -0.281523,-0.726033 0,-0.559341 0.437101,-0.9594 0.440805,-0.403763 1.237219,-0.403763 0.755666,0 1.22981,0.303748 0.477848,0.300044 0.548229,1.040894 h -1.055711 q -0.02223,-0.203734 -0.114832,-0.32227 -0.174099,-0.214846 -0.592679,-0.214846 -0.344495,0 -0.492665,0.107423 -0.144466,0.107423 -0.144466,0.251889 0,0.181508 0.155579,0.263002 0.155578,0.0852 1.100161,0.292635 0.629722,0.14817 0.944583,0.448214 0.311157,0.303749 0.311157,0.759371 0,0.600088 -0.448214,0.981626 -0.444509,0.377833 -1.37798,0.377833 -0.951992,0 -1.407614,-0.400059 -0.451918,-0.403763 -0.451918,-1.026076 z m 0.807526,-2.855976 z"
         style="font-weight:bold;font-family:Helvetica;-inkscape-font-specification:'Helvetica Bold'"
         id="path55267" />
    </g>
    <g
       aria-label="投入硬幣或紙鈔
"
       transform="matrix(0.22968744,0,0,0.22968744,1.3929469,-18.807904)"
       id="text3154"
       style="font-size:40px;line-height:1.25;font-family:'文鼎中特黑';-inkscape-font-specification:'文鼎中特黑';white-space:pre;shape-inside:url(#rect3156);fill:#282472">
      <path
         d="m 6.1492187,116.31227 q 2.52,-0.56 5.9200003,-1.44 3.4,-0.92 6.88,-1.88 l 0.48,3.48 q -3.16,0.92 -6.4,1.84 -3.2000003,0.88 -5.8400003,1.64 z m 0.5200001,-12.92 H 20.189219 v 3.52 H 6.6692188 Z m 5.1600002,-7.880004 h 3.72 v 32.640004 q 0,1.44 -0.36,2.24 -0.36,0.84 -1.24,1.24 -0.88,0.44 -2.28,0.56 -1.4,0.12 -3.4800002,0.12 -0.08,-0.72 -0.4000001,-1.72 -0.32,-1 -0.68,-1.72 1.2800001,0.04 2.4000001,0.04 1.1600002,0 1.5600002,0 0.44,-0.04 0.6,-0.2 0.16,-0.16 0.16,-0.56 z m 12.72,1.36 h 10.64 v 3.520004 h -10.64 z m -4.52,16.160004 h 18.32 v 3.56 h -18.32 z m 17,0 h 0.76 l 0.68,-0.12 2.44,1.04 q -1.28,4.04 -3.48,7.16 -2.2,3.08 -5.08,5.36 -2.88,2.24 -6.32,3.76 -3.4,1.52 -7.2,2.44 -0.16,-0.52 -0.48,-1.16 -0.32,-0.64 -0.68,-1.28 -0.36,-0.6 -0.72,-1 3.48,-0.68 6.64,-1.96 3.2,-1.32 5.84,-3.24 2.68,-1.92 4.6,-4.52 1.96,-2.6 3,-5.88 z m -12.76,2.72 q 1.64,3.44 4.36,6.16 2.76,2.68 6.52,4.56 3.76,1.84 8.36,2.72 -0.4,0.4 -0.88,1.04 -0.44,0.64 -0.84,1.28 -0.4,0.68 -0.68,1.2 -7.16,-1.72 -12.2,-5.68 -5.04,-4 -7.92,-10.12 z m -0.56,-18.880004 h 3.56 v 4.480004 q 0,1.92 -0.52,3.92 -0.48,1.96 -1.84,3.8 -1.36,1.84 -3.96,3.2 -0.2,-0.36 -0.68,-0.88 -0.48,-0.56 -0.96,-1.08 -0.48,-0.56 -0.84,-0.8 2.32,-1.2 3.44,-2.56 1.12,-1.36 1.44,-2.84 0.36,-1.48 0.36,-2.84 z m 9.76,0 h 3.6 v 9.040004 q 0,0.88 0.12,1.24 0.12,0.36 0.6,0.36 0.24,0 0.8,0 0.56,0 1.08,0 0.56,0 0.8,0 0.48,0 1.08,-0.04 0.64,-0.08 1.04,-0.2 0.04,0.72 0.08,1.64 0.08,0.92 0.2,1.56 -0.4,0.16 -1.04,0.2 -0.64,0.04 -1.28,0.04 -0.32,0 -0.96,0 -0.6,0 -1.2,0 -0.6,0 -0.92,0 -1.64,0 -2.52,-0.48 -0.88,-0.48 -1.2,-1.56 -0.28,-1.08 -0.28,-2.8 z"
         style="font-weight:500;font-family:'Noto Sans TC';-inkscape-font-specification:'Noto Sans TC Medium'"
         id="path55270" />
      <path
         d="m 54.069142,97.832266 h 11.36 v 3.840004 h -11.36 z m 9.48,0 h 3.88 q 0,1.84 0.12,4.280004 0.16,2.4 0.68,5.16 0.52,2.72 1.6,5.64 1.08,2.92 2.84,5.8 1.8,2.88 4.52,5.6 2.72,2.68 6.56,4.96 -0.4,0.32 -1,0.88 -0.6,0.6 -1.16,1.24 -0.56,0.64 -0.88,1.12 -3.92,-2.4 -6.72,-5.28 -2.8,-2.92 -4.72,-6.16 -1.88,-3.24 -3.04,-6.52 -1.16,-3.28 -1.76,-6.36 -0.56,-3.08 -0.76,-5.72 -0.16,-2.680004 -0.16,-4.640004 z m -1.4,8.280004 4.28,0.76 q -1.4,6.04 -3.68,10.92 -2.28,4.84 -5.52,8.52 -3.2,3.68 -7.56,6.28 -0.32,-0.44 -0.96,-1 -0.64,-0.56 -1.32,-1.16 -0.64,-0.6 -1.16,-0.92 6.52,-3.36 10.32,-9.24 3.84,-5.92 5.6,-14.16 z"
         style="font-weight:500;font-family:'Noto Sans TC';-inkscape-font-specification:'Noto Sans TC Medium'"
         id="path55272" />
      <path
         d="m 101.46907,97.232266 h 21.68 v 3.400004 h -21.68 z m 3.76,22.920004 q 2.08,4.24 6.76,6.48 4.72,2.2 11.84,2.8 -0.4,0.4 -0.84,0.96 -0.4,0.6 -0.76,1.2 -0.36,0.64 -0.6,1.12 -4.96,-0.6 -8.76,-2.04 -3.8,-1.4 -6.52,-3.8 -2.68,-2.4 -4.36,-5.96 z m 5.04,-21.280004 h 3.6 v 16.200004 q 0,2.12 -0.28,4.24 -0.28,2.08 -1.04,4.04 -0.72,1.92 -2.08,3.68 -1.32,1.72 -3.48,3.16 -2.12,1.44 -5.24,2.48 -0.24,-0.4 -0.64,-0.96 -0.4,-0.52 -0.84,-1.08 -0.440004,-0.56 -0.800004,-0.92 3.040004,-0.76 5.000004,-1.92 1.96,-1.16 3.12,-2.6 1.2,-1.48 1.76,-3.12 0.56,-1.68 0.72,-3.44 0.2,-1.8 0.2,-3.56 z m -4.72,14.040004 v 3.36 h 13.28 v -3.36 z m 0,-6.08 v 3.32 h 13.28 v -3.32 z m -3.36,-2.92 h 20.12 v 15.28 h -20.12 z M 86.709066,97.472266 h 13.880004 v 3.440004 H 86.709066 Z m 4.6,12.400004 h 9.120004 v 17.8 h -9.120004 v -3.36 h 5.92 v -11.12 h -5.92 z m 0.52,-10.640004 3.48,0.76 q -0.68,3.800004 -1.76,7.480004 -1.08,3.68 -2.56,6.88 -1.48,3.2 -3.44,5.68 -0.08,-0.52 -0.36,-1.36 -0.24,-0.84 -0.56,-1.68 -0.32,-0.84 -0.6,-1.36 2.24,-3 3.64,-7.28 1.4,-4.32 2.16,-9.120004 z m -2.44,10.640004 h 3.24 v 20.92 h -3.24 z"
         style="font-weight:500;font-family:'Noto Sans TC';-inkscape-font-specification:'Noto Sans TC Medium'"
         id="path55274" />
      <path
         d="m 128.38899,101.99227 h 15.16 v 2.36 h -12.36 v 11.8 h -2.8 z m 21.92,-2.480004 h 12.84 v 2.920004 h -12.84 z m -15.04,-3.96 h 3.28 v 7.880004 h -0.4 v 12.32 h -2.48 v -12.32 h -0.4 z m 15.48,-0.04 3.16,0.68 q -0.92,3.2 -2.64,6.000004 -1.68,2.76 -3.84,4.6 -0.2,-0.32 -0.64,-0.76 -0.44,-0.44 -0.92,-0.88 -0.44,-0.48 -0.8,-0.72 1.96,-1.6 3.44,-3.92 1.48,-2.320004 2.24,-5.000004 z m -17.96,10.160004 2.04,0.4 q -0.28,1.8 -0.72,3.6 -0.44,1.8 -1.08,3.08 -0.28,-0.2 -0.84,-0.48 -0.56,-0.28 -0.96,-0.44 0.68,-1.28 1,-2.88 0.36,-1.64 0.56,-3.28 z m -4.36,-8.160004 2.68,-1.16 q 0.76,1 1.52,2.24 0.76,1.24 1.08,2.160004 l -2.76,1.32 q -0.32,-0.96 -1.04,-2.240004 -0.72,-1.32 -1.48,-2.32 z m 29.4,3.480004 3.36,0.44 q -1.48,5.52 -4.92,8.96 -3.4,3.4 -8.6,5.36 -0.12,-0.36 -0.48,-0.92 -0.32,-0.56 -0.68,-1.08 -0.36,-0.56 -0.68,-0.88 4.72,-1.48 7.8,-4.36 3.08,-2.92 4.2,-7.52 z m -6.6,0.6 q 1,2.8 2.76,5.2 1.8,2.36 4.24,4.12 2.44,1.76 5.4,2.72 -0.52,0.44 -1.12,1.24 -0.6,0.8 -0.96,1.4 -4.72,-1.76 -8.04,-5.4 -3.28,-3.64 -5.04,-8.56 z m -12.4,4.56 1.76,-0.52 q 0.6,1.52 1.04,3.36 0.44,1.8 0.6,3.08 l -1.84,0.56 q -0.12,-1.32 -0.56,-3.12 -0.4,-1.84 -1,-3.36 z m 3.96,-9.920004 3.08,1.12 q -0.88,1.28 -1.76,2.56 -0.84,1.240004 -1.6,2.120004 l -2.28,-0.96 q 0.64,-1.04 1.36,-2.400004 0.76,-1.4 1.2,-2.44 z m 0.16,19.600004 h 3.76 v 16.8 h -3.76 z m -12.04,2.36 h 26.68 v 3.2 h -23 v 9.32 h -3.68 z m 24.92,0 h 3.72 v 8.76 q 0,1.32 -0.4,2.08 -0.36,0.72 -1.44,1.12 -1.08,0.4 -2.72,0.44 -1.64,0.08 -4.04,0.08 -0.16,-0.72 -0.52,-1.6 -0.36,-0.88 -0.76,-1.56 1.16,0.04 2.24,0.08 1.12,0 1.92,0 0.8,0 1.12,0 0.52,-0.04 0.68,-0.16 0.2,-0.16 0.2,-0.52 z m -13.16,-16.2 h 2.8 v 13.16 h -2.8 z"
         style="font-weight:500;font-family:'Noto Sans TC';-inkscape-font-specification:'Noto Sans TC Medium'"
         id="path55276" />
      <path
         d="m 186.58891,95.592266 h 4.08 q -0.04,4.32 0.24,8.440004 0.28,4.08 0.8,7.8 0.52,3.72 1.24,6.8 0.76,3.08 1.64,5.36 0.92,2.24 1.92,3.48 1,1.24 2.08,1.24 0.76,0 1.12,-1.68 0.4,-1.72 0.6,-5.64 0.6,0.68 1.52,1.32 0.96,0.6 1.76,0.88 -0.32,3.6 -0.92,5.56 -0.6,1.96 -1.68,2.72 -1.08,0.8 -2.76,0.8 -2,0 -3.64,-1.48 -1.64,-1.44 -2.92,-4.04 -1.28,-2.6 -2.24,-6.12 -0.92,-3.52 -1.56,-7.64 -0.6,-4.16 -0.92,-8.68 -0.28,-4.52 -0.36,-9.120004 z m 6.16,2.28 2.28,-2.32 q 1.12,0.48 2.36,1.16 1.28,0.68 2.4,1.44 1.12,0.72 1.8,1.36 l -2.36,2.600004 q -0.68,-0.68 -1.76,-1.44 -1.04,-0.760004 -2.28,-1.480004 -1.24,-0.76 -2.44,-1.32 z m 4.68,10.000004 3.76,0.92 q -2.52,8 -6.92,14.08 -4.36,6.08 -10.44,9.92 -0.28,-0.4 -0.84,-0.96 -0.52,-0.56 -1.12,-1.12 -0.56,-0.52 -0.96,-0.88 5.96,-3.32 10.12,-8.92 4.16,-5.64 6.4,-13.04 z m -30,-6.2 h 35.2 v 3.72 h -35.2 z m -0.2,24.6 q 2.2,-0.4 5.12,-0.96 2.92,-0.6 6.16,-1.24 3.28,-0.68 6.48,-1.32 l 0.36,3.6 q -3.04,0.68 -6.16,1.36 -3.12,0.68 -6,1.32 -2.88,0.6 -5.24,1.12 z m 5.8,-14.52 v 5.92 h 7.2 v -5.92 z m -3.48,-3.24 h 14.36 v 12.4 h -14.36 z"
         style="font-weight:500;font-family:'Noto Sans TC';-inkscape-font-specification:'Noto Sans TC Medium'"
         id="path55278" />
      <path
         d="m 232.50884,100.43227 h 3.6 q -0.04,4.68 0.12,8.92 0.16,4.24 0.48,7.76 0.32,3.52 0.8,6.12 0.52,2.56 1.16,4 0.64,1.44 1.4,1.44 0.48,0 0.72,-1.52 0.24,-1.52 0.32,-4.68 0.56,0.56 1.4,1.08 0.84,0.48 1.52,0.76 -0.24,3.08 -0.72,4.8 -0.48,1.68 -1.36,2.36 -0.84,0.72 -2.24,0.72 -1.72,0 -2.96,-1.68 -1.2,-1.64 -2.04,-4.6 -0.8,-3 -1.28,-7 -0.44,-4 -0.68,-8.68 -0.2,-4.72 -0.24,-9.8 z m -7.28,10.64 h 17.92 v 3.52 h -17.92 z m 14.8,-15.120004 2.68,3.08 q -2.56,0.76 -5.68,1.440004 -3.12,0.64 -6.4,1.16 -3.24,0.48 -6.32,0.84 -0.08,-0.68 -0.44,-1.56 -0.32,-0.88 -0.64,-1.480004 2.96,-0.4 6.04,-0.96 3.12,-0.56 5.92,-1.2 2.8,-0.64 4.84,-1.32 z m -16.6,36.840004 -0.4,-3.28 1.44,-1.32 8.36,-2.52 q 0.04,0.76 0.16,1.72 0.12,0.96 0.28,1.56 -2.92,0.96 -4.76,1.6 -1.8,0.68 -2.84,1.08 -1,0.4 -1.48,0.64 -0.48,0.28 -0.76,0.52 z m -6.76,-21.2 2.8,-1 q 0.6,1.28 1.16,2.76 0.6,1.44 1.08,2.84 0.48,1.36 0.72,2.4 l -3.04,1.2 q -0.2,-1.04 -0.64,-2.44 -0.44,-1.44 -1,-2.92 -0.52,-1.52 -1.08,-2.84 z m -3.8,10.24 2.96,-0.56 q 0.4,2.04 0.72,4.4 0.32,2.32 0.4,4.08 l -3.16,0.64 q -0.04,-1.76 -0.32,-4.12 -0.24,-2.4 -0.6,-4.44 z m -4.84,-0.28 3.24,0.52 q -0.28,2.64 -0.8,5.32 -0.48,2.64 -1.12,4.48 -0.36,-0.2 -0.96,-0.4 -0.56,-0.2 -1.16,-0.4 -0.56,-0.2 -1,-0.32 0.72,-1.8 1.12,-4.28 0.44,-2.48 0.68,-4.92 z m -0.72,-10.68 q -0.08,-0.36 -0.28,-0.96 -0.2,-0.64 -0.44,-1.28 -0.24,-0.64 -0.44,-1.08 0.56,-0.16 1.12,-0.72 0.6,-0.56 1.24,-1.48 0.36,-0.44 1,-1.44 0.68,-1 1.48,-2.36 0.8,-1.4 1.6,-3.000004 0.84,-1.64 1.48,-3.24 l 3.4,1.44 q -1.08,2.2 -2.4,4.440004 -1.32,2.2 -2.76,4.2 -1.4,2 -2.8,3.6 v 0.08 q 0,0 -0.32,0.2 -0.32,0.16 -0.8,0.44 -0.44,0.28 -0.76,0.6 -0.32,0.28 -0.32,0.56 z m 0,0 -0.08,-2.64 1.64,-1.04 7.2,-0.56 q -0.12,0.68 -0.24,1.56 -0.08,0.84 -0.08,1.4 -2.44,0.24 -4,0.44 -1.52,0.2 -2.4,0.36 -0.88,0.12 -1.32,0.24 -0.44,0.12 -0.72,0.24 z m 0.28,9.16 q -0.08,-0.36 -0.32,-1 -0.2,-0.64 -0.44,-1.28 -0.2,-0.68 -0.4,-1.16 0.72,-0.12 1.48,-0.8 0.76,-0.72 1.76,-1.84 0.52,-0.56 1.56,-1.8 1.04,-1.24 2.28,-2.96 1.28,-1.76 2.56,-3.76 1.32,-2.04 2.36,-4.08 l 3.12,1.96 q -1.64,2.68 -3.56,5.36 -1.92,2.68 -4,5.08 -2.08,2.4 -4.12,4.36 v 0.12 q 0,0 -0.36,0.2 -0.36,0.16 -0.8,0.44 -0.4,0.28 -0.76,0.6 -0.36,0.28 -0.36,0.56 z m 0,0 -0.16,-2.76 1.68,-1.16 10.84,-1.48 q -0.08,0.72 -0.16,1.6 -0.04,0.88 0,1.4 -3.68,0.6 -5.96,1 -2.28,0.36 -3.52,0.6 -1.24,0.24 -1.84,0.44 -0.56,0.16 -0.88,0.36 z m 9.84,0.88 2.76,-0.88 q 0.64,1.64 1.24,3.6 0.6,1.92 0.84,3.36 l -2.96,1 q -0.2,-1.44 -0.8,-3.4 -0.56,-2 -1.08,-3.68 z m 6,11.88 q -0.16,-0.44 -0.48,-1 -0.28,-0.52 -0.64,-1.04 -0.32,-0.52 -0.6,-0.84 0.52,-0.36 1,-1.12 0.48,-0.8 0.48,-2.16 V 99.432266 h 3.52 v 29.720004 q 0,0 -0.52,0.36 -0.48,0.36 -1.12,0.92 -0.64,0.6 -1.16,1.24 -0.48,0.64 -0.48,1.12 z"
         style="font-weight:500;font-family:'Noto Sans TC';-inkscape-font-specification:'Noto Sans TC Medium'"
         id="path55280" />
      <path
         d="m 249.70876,105.67227 h 11 v 3.2 h -11 z m -2.4,6.96 h 14.68 v 3.24 h -14.68 z m 0.64,5.72 2.56,-0.64 q 0.56,1.68 1,3.68 0.48,2 0.64,3.44 l -2.72,0.76 q -0.12,-1.48 -0.56,-3.48 -0.4,-2.04 -0.92,-3.76 z m -1.2,9.6 q 1.92,-0.32 4.4,-0.72 2.52,-0.44 5.36,-0.96 2.84,-0.52 5.68,-1.04 l 0.24,3 q -3.92,0.84 -7.84,1.64 -3.92,0.84 -7,1.48 z m 12.76,-10.68 2.92,0.8 q -0.6,1.8 -1.2,3.76 -0.6,1.92 -1.16,3.24 l -2.36,-0.72 q 0.36,-0.96 0.68,-2.2 0.32,-1.28 0.64,-2.56 0.32,-1.28 0.48,-2.32 z m -5.96,-10.24 h 3.32 v 21.36 l -3.32,0.56 z m 1.28,-11.760004 3.04,1.28 q -1.2,2.36 -2.88,4.640004 -1.68,2.24 -3.6,4.2 -1.88,1.96 -3.8,3.44 -0.08,-0.44 -0.36,-1.16 -0.28,-0.72 -0.64,-1.48 -0.32,-0.76 -0.6,-1.24 2.52,-1.68 4.92,-4.24 2.4,-2.600004 3.92,-5.440004 z m -1.08,4.72 1.68,-2.72 q 1.4,0.84 2.84,1.88 1.48,1.040004 2.76,2.080004 1.28,1 2.12,1.88 l -1.76,3.08 q -0.88,-0.96 -2.16,-2.04 -1.24,-1.08 -2.68,-2.16 -1.44,-1.12 -2.8,-2.000004 z m 11.16,2.320004 3.44,0.76 q -0.4,2.24 -1,4.56 -0.56,2.28 -1.2,4.36 -0.64,2.04 -1.32,3.68 -0.32,-0.24 -0.92,-0.52 -0.6,-0.28 -1.24,-0.52 -0.6,-0.28 -1.04,-0.44 0.72,-1.52 1.32,-3.48 0.6,-1.96 1.08,-4.12 0.52,-2.2 0.88,-4.28 z m 11.16,0.4 3.24,-1.08 q 1,1.72 1.84,3.68 0.84,1.96 1.52,3.84 0.68,1.88 1.04,3.4 l -3.48,1.24 q -0.28,-1.52 -0.96,-3.44 -0.64,-1.92 -1.48,-3.92 -0.84,-2 -1.72,-3.72 z m 2.12,12.44 3.52,1.04 q -1.6,4.44 -4.28,7.64 -2.68,3.2 -6.56,5.36 -3.84,2.16 -8.96,3.48 -0.28,-0.84 -0.88,-1.8 -0.6,-0.96 -1.2,-1.6 4.72,-1 8.32,-2.8 3.64,-1.84 6.12,-4.6 2.48,-2.8 3.92,-6.72 z m -7.72,-19.640004 h 3.56 v 24.360004 h -3.56 z"
         style="font-weight:500;font-family:'Noto Sans TC';-inkscape-font-specification:'Noto Sans TC Medium'"
         id="path55282" />
    </g>
  </g>
</svg>
