<?xml version="1.0" encoding="UTF-8" standalone="no"?>
<!-- Created with Inkscape (http://www.inkscape.org/) -->

<svg
   width="500"
   height="250"
   viewBox="0 0 132.29166 66.145833"
   version="1.1"
   id="svg1"
   inkscape:version="1.4.2 (f4327f4, 2025-05-13)"
   sodipodi:docname="ticket_take.svg"
   xml:space="preserve"
   xmlns:inkscape="http://www.inkscape.org/namespaces/inkscape"
   xmlns:sodipodi="http://sodipodi.sourceforge.net/DTD/sodipodi-0.dtd"
   xmlns="http://www.w3.org/2000/svg"
   xmlns:svg="http://www.w3.org/2000/svg"><sodipodi:namedview
     id="namedview1"
     pagecolor="#ffffff"
     bordercolor="#999999"
     borderopacity="1"
     inkscape:showpageshadow="false"
     inkscape:pageopacity="0"
     inkscape:pagecheckerboard="true"
     inkscape:deskcolor="#d1d1d1"
     inkscape:document-units="mm"
     inkscape:zoom="2.0334082"
     inkscape:cx="226.71297"
     inkscape:cy="106.47149"
     inkscape:window-width="1920"
     inkscape:window-height="1009"
     inkscape:window-x="1912"
     inkscape:window-y="-8"
     inkscape:window-maximized="1"
     inkscape:current-layer="layer1"
     showgrid="false" /><defs
     id="defs1"><rect
       x="292.10549"
       y="29.210549"
       width="41.033866"
       height="48.684248"
       id="rect3" /><rect
       x="292.1055"
       y="29.210548"
       width="41.033867"
       height="48.68425"
       id="rect3-1" /><rect
       x="292.1055"
       y="29.210548"
       width="78.062501"
       height="69.512857"
       id="rect3-1-1" /><rect
       x="292.1055"
       y="29.210548"
       width="78.0625"
       height="69.512856"
       id="rect3-1-1-4" /><rect
       x="292.1055"
       y="29.210548"
       width="78.0625"
       height="69.512856"
       id="rect3-1-1-1" /></defs><g
     inkscape:label="Layer 1"
     inkscape:groupmode="layer"
     id="layer1"><rect
       style="fill:#ffffff;stroke:none;stroke-width:4;stroke-linecap:butt;stroke-linejoin:miter;stroke-dasharray:none;paint-order:fill markers stroke"
       id="rect4"
       width="117.40148"
       height="56.308548"
       x="7.3605947"
       y="1.6561338" /><g
       id="g3"
       transform="matrix(0.83729784,0.32143933,-0.32143933,0.83729784,19.571734,-16.320131)" /><rect
       style="fill:#24a2d4;stroke:#ffffff;stroke-width:0.898382;paint-order:fill markers stroke;fill-opacity:1"
       id="rect1"
       width="114.44087"
       height="52.9799"
       x="9.2089348"
       y="3.3204589" /><g
       id="g2"
       transform="matrix(0.90095845,0.14595752,0,0.86197533,6.8326588,-7.6503607)"><path
         id="rect2"
         style="fill:#ffffff;stroke-width:0.865;paint-order:fill markers stroke"
         d="m 30.577766,11.450397 h 71.564974 c 2.73925,0 4.94449,2.205242 4.94449,4.944489 v 28.756113 c 0,2.739247 -2.20524,4.94449 -4.94449,4.94449 H 30.577766 c -2.739247,0 -4.94449,-2.205243 -4.94449,-4.94449 V 16.394886 c 0,-2.739247 2.205243,-4.944489 4.94449,-4.944489 z" /><path
         id="rect2-5"
         style="fill:#24a2d4;stroke-width:0.79579;paint-order:fill markers stroke"
         d="M 32.858967,13.398115 H 100.0192 c 2.481,0 4.47835,1.997341 4.47835,4.478343 v 26.0451 c 0,2.481002 -1.99735,4.478342 -4.47835,4.478342 H 32.858967 c -2.481001,0 -4.478342,-1.99734 -4.478342,-4.478342 v -26.0451 c 0,-2.481002 1.997341,-4.478343 4.478342,-4.478343 z" /></g><path
       style="fill:#ffffff;stroke:#24a2d4;stroke-width:0.865;stroke-linecap:butt;stroke-linejoin:miter;stroke-opacity:1;stroke-dasharray:none"
       d="m 30.057296,39.946275 1.821654,9.498626 7.351675,0.195178 14.312998,3.513191 8.132386,0.325294 13.857584,-1.886714 c 2.992718,-0.650591 3.578248,-1.951772 -0.84577,-3.903544 0,0 -7.546852,0.260237 -11.840751,0.325296 -4.554136,-2.14695 -13.922643,-3.513191 -13.922643,-3.513191 0,0 7.937208,-0.845768 13.076875,2.472245 2.14695,0.845768 8.587798,-0.520472 8.587798,-0.520472 l 14.508176,-4.2939 -1.106006,-3.448132 -15.679238,3.708369 11.905811,-3.383074 -1.496359,-2.667421 -14.83347,2.732482 10.604632,-2.732482 -1.496359,-2.081889 -11.125104,2.016831 c 0,0 7.40748,-2.000674 10.019098,-2.732482 0.34215,-0.836565 -0.4625,-2.354938 -1.366239,-2.342128 -3.714857,0.05266 -12.491344,2.277067 -12.491344,2.277067 l -2.732482,0.650592 c 0,0 -3.318013,0.455415 -6.115553,0.13012 0,0 -1.951773,-0.715652 -4.879432,0.455411 z"
       id="path1"
       sodipodi:nodetypes="ccccccccccccccccccccccccccc" /><g
       id="g4"><ellipse
         style="fill:#173456;fill-opacity:1;stroke:none;stroke-width:0.933515;stroke-dasharray:none;stroke-opacity:1;paint-order:fill markers stroke"
         id="path2"
         cx="51.59185"
         cy="29.163857"
         rx="14.378057"
         ry="4.6842537" /><ellipse
         style="fill:#ffffff;fill-opacity:1;stroke:none;stroke-width:0.933515;stroke-dasharray:none;stroke-opacity:1;paint-order:fill markers stroke"
         id="path2-1"
         cx="51.59185"
         cy="28.300699"
         rx="14.378057"
         ry="4.6842537" /></g><g
       id="g4-2"
       transform="translate(32.065287,8.1897575)"><ellipse
         style="fill:#ffffff;fill-opacity:1;stroke:none;stroke-width:0.933515;stroke-dasharray:none;stroke-opacity:1;paint-order:fill markers stroke"
         id="path2-16"
         cx="51.59185"
         cy="29.163857"
         rx="14.378057"
         ry="4.6842537" /><ellipse
         style="fill:#173456;fill-opacity:1;stroke:none;stroke-width:0.933515;stroke-dasharray:none;stroke-opacity:1;paint-order:fill markers stroke"
         id="path2-1-8"
         cx="51.59185"
         cy="28.300699"
         rx="14.378057"
         ry="4.6842537" /></g></g></svg>
