<?xml version="1.0" encoding="UTF-8" standalone="no"?>
<!-- Created with Inkscape (http://www.inkscape.org/) -->

<svg
   width="500"
   height="250"
   viewBox="0 0 132.29166 66.145833"
   version="1.1"
   id="svg1"
   inkscape:version="1.4.2 (f4327f4, 2025-05-13)"
   sodipodi:docname="ticket_wait.svg"
   xmlns:inkscape="http://www.inkscape.org/namespaces/inkscape"
   xmlns:sodipodi="http://sodipodi.sourceforge.net/DTD/sodipodi-0.dtd"
   xmlns="http://www.w3.org/2000/svg"
   xmlns:svg="http://www.w3.org/2000/svg">
  <sodipodi:namedview
     id="namedview1"
     pagecolor="#ffffff"
     bordercolor="#999999"
     borderopacity="1"
     inkscape:showpageshadow="false"
     inkscape:pageopacity="0"
     inkscape:pagecheckerboard="true"
     inkscape:deskcolor="#d1d1d1"
     inkscape:document-units="mm"
     inkscape:zoom="1.4378367"
     inkscape:cx="225.33852"
     inkscape:cy="94.934284"
     inkscape:window-width="1920"
     inkscape:window-height="1009"
     inkscape:window-x="1912"
     inkscape:window-y="-8"
     inkscape:window-maximized="1"
     inkscape:current-layer="g3" />
  <defs
     id="defs1">
    <rect
       x="292.10549"
       y="29.210549"
       width="41.033866"
       height="48.684248"
       id="rect3" />
    <rect
       x="292.1055"
       y="29.210548"
       width="41.033867"
       height="48.68425"
       id="rect3-1" />
    <rect
       x="292.1055"
       y="29.210548"
       width="78.062501"
       height="69.512857"
       id="rect3-1-1" />
    <rect
       x="292.1055"
       y="29.210548"
       width="78.0625"
       height="69.512856"
       id="rect3-1-1-4" />
    <rect
       x="292.1055"
       y="29.210548"
       width="78.0625"
       height="69.512856"
       id="rect3-1-1-1" />
  </defs>
  <g
     inkscape:label="Layer 1"
     inkscape:groupmode="layer"
     id="layer1">
    <rect
       style="fill:#ffffff;stroke:none;stroke-width:4;stroke-linecap:butt;stroke-linejoin:miter;stroke-dasharray:none;paint-order:fill markers stroke"
       id="rect4"
       width="117.40148"
       height="56.308548"
       x="7.3605947"
       y="1.6561338" />
    <g
       id="g3"
       transform="matrix(0.83729784,0.32143933,-0.32143933,0.83729784,19.571734,-16.320131)">
      <path
         style="font-weight:500;font-size:15.04px;line-height:1;font-family:'Noto Sans TC';-inkscape-font-specification:'Noto Sans TC Medium';text-align:center;text-anchor:middle;fill:#008000;stroke-width:0.376002"
         d="M -1.0116909,36.462007 H 7.124949 v 1.03776 h -8.1366399 z m 0.37599995,1.83488 H 6.824149 v 0.99264 h -7.45983995 z m -0.57151995,1.83488 H 7.290389 v 1.06784 h -8.4975999 z m 3.4892799,-4.84288 h 1.38368 v 5.42944 h -1.38368 z m 2.87264,6.6928 h 1.32352 v 5.89568 q 0,0.46624 -0.12032,0.73696 -0.10528,0.27072 -0.4512,0.42112 -0.33088,0.13536 -0.84224,0.16544 -0.49632,0.03008 -1.21824,0.03008 -0.03008,-0.27072 -0.1504,-0.58656 -0.10528,-0.31584 -0.2256,-0.57152 0.46624,0.01504 0.87232,0.01504 0.42112,0.01504 0.57152,0 0.13536,0 0.18048,-0.06016 0.06016,-0.04512 0.06016,-0.16544 z m -4.81279995,2.00032 H 5.756309 v 0.9776 H 0.34190905 Z m 0,1.92512 H 5.756309 v 0.96256 H 0.34190905 Z m -0.73696,-3.92544 h 1.29344 v 2.75232 q 0,0.72192 -0.10528,1.56416 -0.09024,0.84224 -0.36096,1.6544 -0.27072,0.81216 -0.81216,1.45888 -0.10528,-0.1504 -0.28576,-0.33088 -0.18048,-0.18048 -0.37599995,-0.34592 -0.19552,-0.16544 -0.33088,-0.24064 0.45119995,-0.55648 0.66175995,-1.2032 0.21056,-0.66176 0.25568,-1.32352 0.06016,-0.66176 0.06016,-1.26336 z m 0.78208,0 H 5.560789 v 1.06784 H 0.38702905 Z m -6.60255995,-2.21088 h 4.46688 v 1.09792 h -4.46688 z m 0.72192,4.15104 h 3.72992 v 4.46688 h -3.72992 v -1.14304 h 2.4816 v -2.1808 h -2.4816 z m -0.6768,0 h 1.21824 v 5.1136 h -1.21824 z m -0.03008,-2.09056 h 4.45184 v 1.09792 h -4.45184 z m -0.39104,-4.04576 h 5.264 v 1.14304 h -5.264 z m 1.69952,-2.1056 1.2032,-0.36096 q 0.24064,0.46624 0.46624,1.03776 0.2256,0.55648 0.33088,0.96256 l -1.24832,0.43616 q -0.10528,-0.42112 -0.33088,-1.00768 -0.21056,-0.58656 -0.42112,-1.06784 z m 15.5212799,0.85728 h 1.2784 v 12.7088 h -1.2784 z m -2.1808,3.03808 h 5.1888 v 1.32352 h -5.1888 z m 2.06048,0.54144 0.87232,0.33088 q -0.2256,1.03776 -0.6016,2.1808 -0.36096,1.14304 -0.81216,2.19584 -0.4512,1.03776 -0.94752,1.75968 -0.10528,-0.31584 -0.31584,-0.72192 -0.21056,-0.40608 -0.39104,-0.70688 0.4512,-0.58656 0.87232,-1.44384 0.42112,-0.87232 0.76704,-1.81984 0.36096,-0.94752 0.55648,-1.77472 z m 2.15072,-4.72256 0.78208,1.15808 q -0.61664,0.25568 -1.38368,0.48128 -0.76704,0.21056 -1.56416,0.376 -0.79712,0.1504 -1.53408,0.27072 -0.04512,-0.24064 -0.16544,-0.54144 -0.12032,-0.31584 -0.24064,-0.54144 0.73696,-0.13536 1.48896,-0.31584 0.752,-0.19552 1.4288,-0.42112 0.69184,-0.2256 1.18816,-0.46624 z m -0.84224,5.83552 q 0.13536,0.12032 0.376,0.40608 0.25568,0.27072 0.54144,0.61664 0.3008,0.33088 0.54144,0.61664 0.24064,0.28576 0.34592,0.42112 l -0.70688,1.11296 q -0.10528,-0.24064 -0.31584,-0.6016 -0.21056,-0.36096 -0.4512,-0.752 -0.24064,-0.39104 -0.46624,-0.72192 -0.2256,-0.34592 -0.36096,-0.54144 z m 9.05408,-5.5648 1.32352,0.49632 q -0.376,0.76704 -0.79712,1.53408 -0.40608,0.76704 -0.78208,1.32352 l -1.18816,-0.48128 q 0.25568,-0.39104 0.51136,-0.88736 0.27072,-0.49632 0.51136,-1.02272 0.25568,-0.5264 0.42112,-0.96256 z m -6.90336,0.63168 1.14304,-0.54144 q 0.31584,0.42112 0.6016,0.91744 0.3008,0.49632 0.5264,0.9776 0.24064,0.46624 0.34592,0.85728 l -1.23328,0.61664 q -0.09024,-0.39104 -0.31584,-0.87232 -0.21056,-0.49632 -0.49632,-1.00768 -0.27072,-0.51136 -0.57152,-0.94752 z m 6.33184,3.24864 h 1.33856 v 8.07648 q 0,0.51136 -0.13536,0.8272 -0.12032,0.33088 -0.49632,0.49632 -0.36096,0.1504 -0.94752,0.18048 -0.57152,0.04512 -1.4288,0.04512 -0.03008,-0.28576 -0.1504,-0.6768 -0.12032,-0.376 -0.25568,-0.64672 0.58656,0.01504 1.08288,0.03008 0.51136,0 0.69184,-0.01504 0.18048,0 0.24064,-0.06016 0.06016,-0.06016 0.06016,-0.21056 z m -2.96288,-4.27136 h 1.36864 v 5.12864 h -1.36864 z m -2.45152,4.27136 h 6.03104 v 1.24832 h -6.03104 z m -0.66176,0 h 1.32352 v 4.39168 q 0,0.8272 -0.0752,1.81984 -0.06016,0.9776 -0.28576,1.91008 -0.21056,0.93248 -0.64672,1.66944 -0.12032,-0.12032 -0.33088,-0.28576 -0.19552,-0.1504 -0.42112,-0.3008 -0.21056,-0.1504 -0.36096,-0.2256 0.376,-0.64672 0.54144,-1.4288 0.16544,-0.79712 0.21056,-1.60928 0.04512,-0.8272 0.04512,-1.56416 z m 1.18816,5.53472 q 0.69184,-0.13536 1.56416,-0.31584 0.87232,-0.19552 1.83488,-0.40608 0.9776,-0.2256 1.9552,-0.46624 l 0.13536,1.11296 q -1.30848,0.34592 -2.632,0.69184 -1.32352,0.33088 -2.4064,0.58656 z m 0.25568,-2.5568 0.57152,-0.88736 q 0.63168,0.12032 1.30848,0.33088 0.69184,0.21056 1.32352,0.4512 0.63168,0.2256 1.0528,0.4512 l -0.6016,0.99264 q -0.40608,-0.2256 -1.03776,-0.48128 -0.61664,-0.25568 -1.30848,-0.48128 -0.6768,-0.24064 -1.30848,-0.376 z m 15.04,-2.60192 1.29344,0.3008 q -0.33088,1.06784 -0.87232,2.07552 -0.5264,0.99264 -1.128,1.68448 -0.12032,-0.10528 -0.33088,-0.24064 -0.19552,-0.1504 -0.40608,-0.27072 -0.21056,-0.13536 -0.376,-0.2256 0.6016,-0.61664 1.06784,-1.48896 0.48128,-0.88736 0.752,-1.83488 z m -0.1504,1.32352 h 6.30176 v 1.18816 h -6.30176 z m -1.45888,2.9328 h 8.22688 v 1.2032 h -8.22688 z m -0.03008,-5.47456 h 8.22688 v 1.18816 h -8.22688 z m 3.39904,3.11328 h 1.41376 v 2.19584 q 0,0.64672 -0.16544,1.3536 -0.16544,0.70688 -0.64672,1.41376 -0.46624,0.69184 -1.3536,1.33856 -0.87232,0.64672 -2.30112,1.15808 -0.1504,-0.2256 -0.42112,-0.54144 -0.27072,-0.31584 -0.51136,-0.49632 1.36864,-0.43616 2.16576,-0.96256 0.79712,-0.5264 1.18816,-1.09792 0.39104,-0.57152 0.51136,-1.128 0.12032,-0.57152 0.12032,-1.06784 z m -5.15872,-3.33888 h 1.24832 v 7.8208 h -1.24832 z m -1.11296,-3.11328 1.30848,0.36096 q -0.39104,1.30848 -0.93248,2.61696 -0.54144,1.30848 -1.18816,2.46656 -0.64672,1.15808 -1.36864,2.06048 -0.06016,-0.18048 -0.19552,-0.46624 -0.12032,-0.28576 -0.27072,-0.57152 -0.13536,-0.28576 -0.25568,-0.46624 0.6016,-0.752 1.14304,-1.71456 0.54144,-0.96256 0.99264,-2.06048 0.4512,-1.11296 0.76704,-2.22592 z m -1.26336,4.10592 1.32352,-1.30848 0.03008,0.03008 v 11.06944 h -1.3536 z m 4.91808,-3.48928 h 5.1888 v 1.17312 h -5.1888 z m 4.84288,0 h 0.1504 l 0.2256,-0.0752 0.9776,0.12032 q -0.09024,0.85728 -0.2256,1.75968 -0.13536,0.88736 -0.28576,1.62432 l -1.32352,-0.13536 q 0.09024,-0.5264 0.18048,-1.09792 0.10528,-0.58656 0.18048,-1.128 0.0752,-0.54144 0.12032,-0.91744 z m -1.09792,10.33248 0.9776,-0.73696 q 0.48128,0.42112 1.03776,0.93248 0.57152,0.49632 1.08288,0.99264 0.5264,0.48128 0.85728,0.84224 l -1.03776,0.84224 q -0.31584,-0.36096 -0.81216,-0.87232 -0.49632,-0.49632 -1.0528,-1.02272 -0.55648,-0.5264 -1.0528,-0.9776 z m 10.588159,-0.9776 -0.39104,-0.9776 q 0.93248,-0.34592 1.4288,-0.9024 0.49632,-0.55648 0.49632,-1.32352 l -0.21056,-1.36864 0.8272,1.23328 q -0.18048,0.18048 -0.40608,0.27072 -0.21056,0.0752 -0.43616,0.0752 -0.51136,0 -0.88736,-0.3008 -0.376,-0.31584 -0.376,-0.9024 0,-0.57152 0.376,-0.88736 0.39104,-0.31584 0.9024,-0.31584 0.70688,0 1.06784,0.51136 0.376,0.51136 0.376,1.36864 0,1.24832 -0.752,2.1808 -0.73696,0.91744 -2.01536,1.33856 z m 15.461121,-10.03168 h 1.5792 v 12.36288 h -1.5792 z m 5.29408,7.50496 h 1.5792 v 6.42208 h -1.5792 z m -9.82112,-6.19648 h 1.504 v 3.94048 h 7.73056 v -3.94048 h 1.56416 v 5.32416 h -10.79872 z m -0.72192,6.21152 h 1.5792 v 4.15104 h 9.7008 v 1.41376 h -11.28 z m 23.191677,3.69984 1.02272,-0.72192 q 0.6016,0.31584 1.2784,0.73696 0.6768,0.40608 1.2784,0.8272 0.61664,0.40608 1.02272,0.752 l -1.11296,0.8272 q -0.36096,-0.34592 -0.96256,-0.78208 -0.58656,-0.42112 -1.24832,-0.85728 -0.66176,-0.43616 -1.2784,-0.78208 z m -7.00864,-4.136 h 9.89632 v 1.09792 h -9.89632 z m -1.81984,1.9552 h 13.536 v 1.15808 h -13.536 z m 0.19552,-8.4976 h 13.05472 v 1.14304 h -13.05472 z m 2.94784,9.91136 1.30848,0.4512 q -0.42112,0.54144 -1.02272,1.0528 -0.58656,0.51136 -1.21824,0.94752 -0.63168,0.4512 -1.24832,0.76704 -0.12032,-0.12032 -0.31584,-0.3008 -0.19552,-0.18048 -0.40608,-0.36096 -0.19552,-0.18048 -0.34592,-0.28576 0.91744,-0.40608 1.8048,-1.00768 0.88736,-0.6016 1.44384,-1.26336 z m -0.73696,-6.72288 v 1.47392 h 8.67808 v -1.47392 z m -1.32352,-1.0528 h 11.40032 v 3.57952 h -11.40032 z m 3.26368,-1.69952 h 1.30848 v 4.82784 h -1.30848 z m 3.35392,0 h 1.32352 v 4.82784 h -1.32352 z m -1.66944,8.36224 h 1.41376 v 4.63232 h -1.41376 z m 9.640641,-6.70784 h 12.24256 v 7.2944 h -1.47392 v -5.89568 h -9.35488 v 5.97088 h -1.41376 z m 0.73696,5.06848 h 10.87392 v 1.39872 h -10.87392 z m 4.60224,-7.71552 h 1.48896 v 13.94208 h -1.48896 z m 10.543043,12.90432 q -0.481282,0 -0.827202,-0.34592 -0.33088,-0.36096 -0.33088,-0.88736 0,-0.54144 0.33088,-0.87232 0.34592,-0.34592 0.827202,-0.34592 0.49632,0 0.8272,0.34592 0.34592,0.33088 0.34592,0.87232 0,0.5264 -0.34592,0.88736 -0.33088,0.34592 -0.8272,0.34592 z m 4.48192,0 q -0.48128,0 -0.8272,-0.34592 -0.33088,-0.36096 -0.33088,-0.88736 0,-0.54144 0.33088,-0.87232 0.34592,-0.34592 0.8272,-0.34592 0.49632,0 0.8272,0.34592 0.34592,0.33088 0.34592,0.87232 0,0.5264 -0.34592,0.88736 -0.33088,0.34592 -0.8272,0.34592 z m 4.48193,0 q -0.48128,0 -0.8272,-0.34592 -0.33088,-0.36096 -0.33088,-0.88736 0,-0.54144 0.33088,-0.87232 0.34592,-0.34592 0.8272,-0.34592 0.49632,0 0.8272,0.34592 0.34592,0.33088 0.34592,0.87232 0,0.5264 -0.34592,0.88736 -0.33088,0.34592 -0.8272,0.34592 z"
         id="text1"
         transform="rotate(-21.001837)"
         aria-label="請稍候，出票中..." />
      <g
         id="text2"
         style="font-size:9.34155px;line-height:1;font-family:Roboto;-inkscape-font-specification:Roboto;text-align:center;text-anchor:middle;stroke-width:0.233539"
         transform="rotate(-21.001837)"
         aria-label="Thank you.&#10;Please wait for producing...">
        <path
           style="font-weight:bold;font-family:Helvetica;-inkscape-font-specification:'Helvetica Bold';fill:#008000"
           d="m 32.81497,54.277146 v 1.1905 h -2.011535 v 5.532861 h -1.414004 v -5.532861 h -2.020657 v -1.1905 z m 3.457469,1.623824 q 0.460691,0 0.834718,0.159646 0.378589,0.159645 0.620338,0.488059 0.205258,0.27824 0.250871,0.574724 0.04561,0.291924 0.04561,0.957874 v 2.919234 H 36.69664 v -3.024144 q 0,-0.401395 -0.136839,-0.647705 -0.177891,-0.346659 -0.675073,-0.346659 -0.515427,0 -0.784544,0.346659 -0.264556,0.342098 -0.264556,0.98068 v 2.691169 h -1.29541 v -6.700555 h 1.29541 v 2.376439 q 0.282801,-0.433323 0.652267,-0.602092 0.374026,-0.173329 0.784544,-0.173329 z m 5.706191,2.682046 q -0.123155,0.07754 -0.250872,0.127717 -0.123155,0.04561 -0.342098,0.08667 l -0.291923,0.05474 q -0.410517,0.07298 -0.588408,0.177891 -0.301046,0.177891 -0.301046,0.551918 0,0.332975 0.182452,0.483498 0.187013,0.145962 0.451569,0.145962 0.41964,0 0.77086,-0.246311 0.355782,-0.24631 0.369466,-0.898576 z m -0.789106,-0.606653 q 0.360343,-0.04561 0.515428,-0.114033 0.278239,-0.118593 0.278239,-0.369465 0,-0.305607 -0.214381,-0.41964 -0.20982,-0.118594 -0.620337,-0.118594 -0.460692,0 -0.652267,0.228065 -0.136839,0.168768 -0.182452,0.456131 h -1.254359 q 0.04105,-0.652267 0.364905,-1.071907 0.515427,-0.656828 1.769786,-0.656828 0.816473,0 1.450494,0.323853 0.634021,0.323853 0.634021,1.222429 v 2.280652 q 0,0.237188 0.0091,0.574725 0.01368,0.255433 0.07754,0.346659 0.06386,0.09123 0.191575,0.150523 v 0.191574 h -1.414004 q -0.0593,-0.150523 -0.0821,-0.2828 -0.02281,-0.132278 -0.03649,-0.301047 -0.269117,0.291924 -0.620337,0.497183 -0.41964,0.241749 -0.948752,0.241749 -0.675073,0 -1.117519,-0.38315 -0.437885,-0.387711 -0.437885,-1.094713 0,-0.916822 0.707002,-1.327339 0.387711,-0.223504 1.140326,-0.319291 z m 0.06842,-2.079954 z m 5.929696,0.01368 q 0.77086,0 1.258919,0.405957 0.492621,0.401394 0.492621,1.336461 v 3.347997 h -1.331901 v -3.024144 q 0,-0.392272 -0.104909,-0.602092 -0.191575,-0.38315 -0.729809,-0.38315 -0.661389,0 -0.907699,0.561041 -0.127717,0.296485 -0.127717,0.757176 v 2.691169 h -1.29541 v -4.962698 h 1.254358 v 0.725247 q 0.250872,-0.383149 0.474376,-0.551917 0.401395,-0.301047 1.017171,-0.301047 z m -0.478937,-0.01368 z m 3.416415,-1.596457 h 1.277165 v 3.621675 l 1.619263,-1.870134 h 1.61014 l -1.737856,1.902064 1.806276,3.04695 h -1.569089 l -1.1905,-2.125567 -0.538234,0.56104 v 1.564527 h -1.277165 z m 8.005088,7.653868 0.164207,0.0091 q 0.191575,0.0091 0.364904,-0.01368 0.17333,-0.02281 0.291924,-0.10491 0.114033,-0.07754 0.20982,-0.323853 0.100349,-0.24631 0.0821,-0.301046 l -1.824521,-5.190764 h 1.445933 l 1.08559,3.667289 1.026294,-3.667289 h 1.382075 l -1.705928,4.889718 q -0.492621,1.414004 -0.779983,1.75154 -0.287362,0.342098 -1.149448,0.342098 -0.17333,0 -0.27824,-0.0046 -0.10491,0 -0.31473,-0.01368 z m 1.760663,-6.057411 z m 5.464443,4.187276 q 0.570163,0 0.875771,-0.405956 0.305607,-0.405956 0.305607,-1.15401 0,-0.748053 -0.305607,-1.149448 -0.305608,-0.405956 -0.875771,-0.405956 -0.570163,0 -0.880331,0.405956 -0.305608,0.401395 -0.305608,1.149448 0,0.748054 0.305608,1.15401 0.310168,0.405956 0.880331,0.405956 z m 2.545208,-1.559966 q 0,1.094713 -0.62946,1.874696 -0.62946,0.775422 -1.911186,0.775422 -1.281727,0 -1.911187,-0.775422 -0.62946,-0.779983 -0.62946,-1.874696 0,-1.076467 0.62946,-1.865573 0.62946,-0.789105 1.911187,-0.789105 1.281726,0 1.911186,0.789105 0.62946,0.789106 0.62946,1.865573 z m -2.540646,-2.62731 z m 4.766559,0.132277 v 2.996777 q 0,0.424201 0.100349,0.638582 0.177891,0.378589 0.697879,0.378589 0.665951,0 0.912261,-0.538234 0.127717,-0.291924 0.127717,-0.770861 v -2.704853 h 1.318216 v 4.971821 h -1.263481 v -0.70244 q -0.01824,0.02281 -0.09123,0.136839 -0.07298,0.114032 -0.173329,0.200697 -0.305608,0.273678 -0.59297,0.374027 -0.282801,0.100349 -0.66595,0.100349 -1.103836,0 -1.486985,-0.793667 -0.214381,-0.437885 -0.214381,-1.290849 v -2.996777 z m 0.912261,-0.132277 z m 3.475714,3.74483 h 1.382075 v 1.359268 h -1.382075 z"
           id="path3" />
        <path
           style="font-weight:bold;font-family:Helvetica;-inkscape-font-specification:'Helvetica Bold';fill:#008000"
           d="m -4.361935,66.367825 q 0,-0.52455 -0.2782395,-0.748053 -0.2736783,-0.223504 -0.7708604,-0.223504 H -6.720129 v 1.979605 h 1.3090941 q 0.4971821,0 0.7708604,-0.241749 0.2782395,-0.241749 0.2782395,-0.766299 z m 1.3911976,-0.0091 q 0,1.1905 -0.6020921,1.683121 -0.6020921,0.492621 -1.7196115,0.492621 h -1.427688 v 2.41749 h -1.3957589 v -6.723361 h 2.9283569 q 1.0126094,0 1.6147015,0.519989 0.6020921,0.519988 0.6020921,1.61014 z m 2.27609027,4.593232 H -1.9946187 v -6.723361 h 1.29997157 z M 2.5347558,66.919743 q -0.451569,0 -0.7024407,0.282801 -0.2463104,0.282801 -0.3101687,0.766299 H 3.5428039 Q 3.5108748,67.453416 3.228074,67.18886 2.9498344,66.919743 2.5347558,66.919743 Z m 0,-1.071906 q 0.6203373,0 1.1175194,0.232626 0.4971821,0.232627 0.8210347,0.73437 0.2919234,0.442447 0.3785882,1.026293 0.050174,0.342098 0.041052,0.985242 H 1.4902173 q 0.027368,0.748054 0.4698143,1.0491 0.2691169,0.187013 0.6477051,0.187013 0.4013947,0 0.6522664,-0.228065 0.1368391,-0.123155 0.2417491,-0.342098 h 1.3273394 q -0.050174,0.442447 -0.4606917,0.898577 -0.6385825,0.725247 -1.788031,0.725247 -0.9487512,0 -1.67399848,-0.611214 -0.72524729,-0.611215 -0.72524729,-1.988729 0,-1.290849 0.65226643,-1.979605 0.65682774,-0.688757 1.70136624,-0.688757 z m 0.091226,0 z m 5.8840817,2.686608 q -0.1231552,0.07754 -0.2508717,0.127716 -0.1231552,0.04561 -0.3420977,0.08666 l -0.2919235,0.05474 q -0.4105173,0.07298 -0.5884081,0.177891 -0.3010461,0.177891 -0.3010461,0.551918 0,0.332975 0.1824522,0.483498 0.1870134,0.145962 0.451569,0.145962 0.41964,0 0.7708603,-0.24631 0.3557817,-0.246311 0.3694656,-0.898577 z M 7.7209581,67.927791 q 0.360343,-0.04561 0.5154273,-0.114032 0.2782395,-0.118594 0.2782395,-0.369466 0,-0.305607 -0.2143812,-0.41964 -0.20982,-0.118594 -0.6203373,-0.118594 -0.4606917,0 -0.6522664,0.228065 -0.1368392,0.168769 -0.1824522,0.456131 H 5.5908293 q 0.041052,-0.652267 0.3649043,-1.071907 0.5154273,-0.656827 1.7697858,-0.656827 0.8164734,0 1.4504946,0.323852 0.6340212,0.323853 0.6340212,1.22243 v 2.280651 q 0,0.237188 0.00912,0.574725 0.013684,0.255433 0.077542,0.346659 0.063858,0.09123 0.1915751,0.150523 v 0.191574 H 8.6742706 q -0.059297,-0.150523 -0.082104,-0.2828 -0.022806,-0.132278 -0.03649,-0.301046 -0.2691169,0.291923 -0.6203373,0.497182 -0.41964,0.241749 -0.9487512,0.241749 -0.6750729,0 -1.1175194,-0.38315 -0.4378851,-0.387711 -0.4378851,-1.094713 0,-0.916822 0.707002,-1.327339 0.3877109,-0.223504 1.140326,-0.319291 z m 0.06842,-2.079954 z m 4.1872763,3.516765 q 0.04105,0.346659 0.177891,0.492621 0.241749,0.259994 0.894016,0.259994 0.383149,0 0.606653,-0.114033 0.228065,-0.114032 0.228065,-0.342097 0,-0.218943 -0.182452,-0.332976 -0.182452,-0.114032 -1.354707,-0.392272 -0.843841,-0.20982 -1.1905,-0.52455 -0.346659,-0.310168 -0.346659,-0.894015 0,-0.688757 0.538234,-1.181378 0.542795,-0.497182 1.523475,-0.497182 0.930506,0 1.514353,0.374027 0.588408,0.369466 0.675073,1.281726 h -1.299972 q -0.02737,-0.250871 -0.1414,-0.396833 -0.214382,-0.264556 -0.729809,-0.264556 -0.424201,0 -0.606653,0.132278 -0.177891,0.132278 -0.177891,0.310169 0,0.223504 0.191575,0.323852 0.191574,0.10491 1.354707,0.360343 0.775422,0.182452 1.163132,0.551918 0.38315,0.374027 0.38315,0.935067 0,0.738931 -0.551918,1.208746 -0.547356,0.465253 -1.696805,0.465253 -1.172255,0 -1.733295,-0.492621 -0.556479,-0.497182 -0.556479,-1.263481 z m 0.994365,-3.516765 z m 5.149712,1.071906 q -0.451569,0 -0.70244,0.282801 -0.246311,0.282801 -0.310169,0.766299 H 19.12878 Q 19.09685,67.453416 18.81405,67.18886 18.53581,66.919743 18.120731,66.919743 Z m 0,-1.071906 q 0.620338,0 1.11752,0.232626 0.497182,0.232627 0.821035,0.73437 0.291923,0.442447 0.378588,1.026293 0.05017,0.342098 0.04105,0.985242 h -3.402732 q 0.02737,0.748054 0.469814,1.0491 0.269117,0.187013 0.647705,0.187013 0.401395,0 0.652267,-0.228065 0.136839,-0.123155 0.241749,-0.342098 h 1.327339 q -0.05017,0.442447 -0.460691,0.898577 -0.638583,0.725247 -1.788031,0.725247 -0.948752,0 -1.673999,-0.611214 -0.725247,-0.611215 -0.725247,-1.988729 0,-1.290849 0.652266,-1.979605 0.656828,-0.688757 1.701366,-0.688757 z m 0.09123,0 z m 8.08263,0.132278 h 1.318216 l 0.757177,3.580623 0.775421,-3.580623 h 1.354708 l -1.441372,4.97182 h -1.336462 l -0.779983,-3.621675 -0.789106,3.621675 h -1.350146 l -1.395759,-4.97182 h 1.395759 l 0.775422,3.566939 z m 7.662988,2.55433 q -0.123155,0.07754 -0.250871,0.127716 -0.123156,0.04561 -0.342098,0.08666 l -0.291924,0.05474 q -0.410517,0.07298 -0.588408,0.177891 -0.301046,0.177891 -0.301046,0.551918 0,0.332975 0.182452,0.483498 0.187014,0.145962 0.451569,0.145962 0.41964,0 0.770861,-0.24631 0.355781,-0.246311 0.369465,-0.898577 z m -0.789105,-0.606654 q 0.360343,-0.04561 0.515427,-0.114032 0.27824,-0.118594 0.27824,-0.369466 0,-0.305607 -0.214382,-0.41964 -0.20982,-0.118594 -0.620337,-0.118594 -0.460692,0 -0.652266,0.228065 -0.13684,0.168769 -0.182453,0.456131 h -1.254358 q 0.04105,-0.652267 0.364904,-1.071907 0.515428,-0.656827 1.769786,-0.656827 0.816473,0 1.450495,0.323852 0.634021,0.323853 0.634021,1.22243 v 2.280651 q 0,0.237188 0.0091,0.574725 0.01368,0.255433 0.07754,0.346659 0.06386,0.09123 0.191574,0.150523 v 0.191574 h -1.414004 q -0.0593,-0.150523 -0.0821,-0.2828 -0.02281,-0.132278 -0.03649,-0.301046 -0.269117,0.291923 -0.620337,0.497182 -0.41964,0.241749 -0.948751,0.241749 -0.675073,0 -1.11752,-0.38315 -0.437885,-0.387711 -0.437885,-1.094713 0,-0.916822 0.707002,-1.327339 0.387711,-0.223504 1.140326,-0.319291 z m 0.06842,-2.079954 z m 4.511129,-0.460692 h -1.318217 v -1.199623 h 1.318217 z m -1.318217,0.59297 h 1.318217 v 4.97182 h -1.318217 z m 2.066271,0.971557 v -0.925944 h 0.693319 v -1.386637 h 1.286287 v 1.386637 h 0.807351 v 0.925944 h -0.807351 v 2.627311 q 0,0.305607 0.07754,0.38315 0.07754,0.07298 0.474376,0.07298 0.0593,0 0.123155,0 0.06842,-0.0046 0.132278,-0.0091 v 0.971558 l -0.615776,0.02281 q -0.921383,0.03193 -1.25892,-0.319291 -0.218942,-0.223504 -0.218942,-0.688757 v -3.060635 z m 8.050702,-2.791518 q 0.123156,0 0.223504,0.0091 0.100349,0.0046 0.273679,0.01825 v 1.058223 q -0.109472,-0.01368 -0.369466,-0.01825 -0.255433,-0.0091 -0.355782,0.114033 -0.09579,0.118594 -0.09579,0.264556 0,0.145961 0,0.41964 h 0.852964 v 0.916822 h -0.852964 v 4.009385 h -1.29541 V 66.94255 h -0.725248 v -0.916822 h 0.711564 v -0.319292 q 0,-0.798228 0.269117,-1.099274 0.282801,-0.447008 1.363829,-0.447008 z m 3.507643,5.874959 q 0.570163,0 0.875771,-0.405956 0.305607,-0.405956 0.305607,-1.154009 0,-0.748054 -0.305607,-1.149449 -0.305608,-0.405956 -0.875771,-0.405956 -0.570163,0 -0.880331,0.405956 -0.305608,0.401395 -0.305608,1.149449 0,0.748053 0.305608,1.154009 0.310168,0.405956 0.880331,0.405956 z m 2.545208,-1.559965 q 0,1.094712 -0.62946,1.874695 -0.62946,0.775422 -1.911186,0.775422 -1.281727,0 -1.911187,-0.775422 -0.62946,-0.779983 -0.62946,-1.874695 0,-1.076468 0.62946,-1.865574 0.62946,-0.789105 1.911187,-0.789105 1.281726,0 1.911186,0.789105 0.62946,0.789106 0.62946,1.865574 z M 50.05898,65.847837 Z m 6.171445,0.01368 q 0.03649,0 0.0593,0.0046 0.02737,0 0.114033,0.0046 v 1.331901 q -0.123155,-0.01368 -0.218943,-0.01825 -0.09579,-0.0046 -0.155084,-0.0046 -0.784544,0 -1.053661,0.510866 -0.150523,0.287363 -0.150523,0.884893 v 2.376439 h -1.309094 v -4.97182 h 1.240674 v 0.866647 q 0.301046,-0.497182 0.52455,-0.679634 0.364905,-0.305607 0.948752,-0.305607 z m 6.955983,2.604504 q 0,-0.574724 -0.264556,-1.017171 -0.259994,-0.442446 -0.848403,-0.442446 -0.707002,0 -0.971557,0.670511 -0.136839,0.355782 -0.136839,0.903139 0,0.866647 0.460691,1.217868 0.273679,0.205258 0.647705,0.205258 0.542796,0 0.825596,-0.41964 0.287363,-0.41964 0.287363,-1.117519 z m -0.738932,-2.595382 q 0.871209,0 1.473301,0.643144 0.606654,0.643144 0.606654,1.88838 0,1.313655 -0.59297,2.002412 -0.588408,0.688757 -1.518914,0.688757 -0.592969,0 -0.985241,-0.296485 -0.214382,-0.164207 -0.41964,-0.478937 v 2.590821 h -1.286288 v -6.92862 h 1.245236 v 0.734369 q 0.20982,-0.323852 0.447008,-0.510866 0.433324,-0.332975 1.030854,-0.332975 z m 5.719876,-0.0091 q 0.03649,0 0.0593,0.0046 0.02737,0 0.114033,0.0046 v 1.331901 q -0.123155,-0.01368 -0.218943,-0.01825 -0.09579,-0.0046 -0.155084,-0.0046 -0.784544,0 -1.053661,0.510866 -0.150523,0.287363 -0.150523,0.884893 v 2.376439 h -1.309094 v -4.97182 h 1.240674 v 0.866647 q 0.301046,-0.497182 0.52455,-0.679634 0.364904,-0.305607 0.948751,-0.305607 z m 3.165547,4.173592 q 0.570163,0 0.87577,-0.405956 0.305607,-0.405956 0.305607,-1.154009 0,-0.748054 -0.305607,-1.149449 -0.305607,-0.405956 -0.87577,-0.405956 -0.570163,0 -0.880332,0.405956 -0.305607,0.401395 -0.305607,1.149449 0,0.748053 0.305607,1.154009 0.310169,0.405956 0.880332,0.405956 z m 2.545207,-1.559965 q 0,1.094712 -0.62946,1.874695 -0.62946,0.775422 -1.911186,0.775422 -1.281726,0 -1.911186,-0.775422 -0.62946,-0.779983 -0.62946,-1.874695 0,-1.076468 0.62946,-1.865574 0.62946,-0.789105 1.911186,-0.789105 1.281726,0 1.911186,0.789105 0.62946,0.789106 0.62946,1.865574 z M 71.33746,65.847837 Z m 5.304797,0.01368 q 0.451569,0 0.80279,0.200697 0.35122,0.196136 0.570163,0.547356 v -2.371877 h 1.318217 v 6.714238 h -1.263482 v -0.688756 q -0.278239,0.442446 -0.634021,0.643143 -0.355781,0.200698 -0.884893,0.200698 -0.871209,0 -1.468739,-0.702441 -0.59297,-0.707002 -0.59297,-1.810838 0,-1.272603 0.583847,-2.002412 0.588408,-0.729808 1.569088,-0.729808 z m 0.282801,4.150786 q 0.551918,0 0.83928,-0.410517 0.287362,-0.410518 0.287362,-1.062784 0,-0.912261 -0.460691,-1.304533 -0.282801,-0.237188 -0.656828,-0.237188 -0.570163,0 -0.83928,0.433324 -0.264556,0.428763 -0.264556,1.067345 0,0.688757 0.269117,1.103836 0.273678,0.410517 0.825596,0.410517 z m 4.885158,-4.032192 v 2.996776 q 0,0.424201 0.100348,0.638583 0.177891,0.378588 0.69788,0.378588 0.66595,0 0.91226,-0.538234 0.127717,-0.291924 0.127717,-0.77086 v -2.704853 h 1.318217 v 4.97182 h -1.263481 v -0.70244 q -0.01825,0.02281 -0.09123,0.136839 -0.07298,0.114032 -0.173329,0.200697 -0.305607,0.273678 -0.59297,0.374027 -0.2828,0.100349 -0.66595,0.100349 -1.103835,0 -1.486985,-0.793667 -0.214381,-0.437885 -0.214381,-1.290849 v -2.996776 z m 0.91226,-0.132278 z m 6.46793,1.915747 q -0.03649,-0.278239 -0.187013,-0.501743 -0.218943,-0.301046 -0.679635,-0.301046 -0.656827,0 -0.898577,0.652266 -0.127716,0.346659 -0.127716,0.921384 0,0.547356 0.127716,0.880331 0.232627,0.620337 0.875771,0.620337 0.45613,0 0.647705,-0.24631 0.191575,-0.24631 0.232626,-0.638582 h 1.32734 q -0.04561,0.592969 -0.428763,1.12208 -0.611214,0.852964 -1.810837,0.852964 -1.199623,0 -1.765225,-0.711563 -0.565601,-0.711564 -0.565601,-1.847328 0,-1.281727 0.624898,-1.99329 0.624899,-0.711563 1.724173,-0.711563 0.935067,0 1.528037,0.41964 0.59753,0.419639 0.707002,1.482423 z m -0.880332,-1.915747 z m 4.442705,-0.460692 h -1.318216 v -1.199623 h 1.318216 z m -1.318216,0.59297 h 1.318216 v 4.97182 h -1.318216 z m 5.332165,-0.118594 q 0.77086,0 1.258919,0.405956 0.492621,0.401394 0.492621,1.336462 v 3.347996 h -1.331901 v -3.024144 q 0,-0.392272 -0.104909,-0.602092 -0.191575,-0.383149 -0.729809,-0.383149 -0.661389,0 -0.9077,0.56104 -0.127716,0.296485 -0.127716,0.757176 v 2.691169 h -1.29541 v -4.962698 h 1.254358 v 0.725247 q 0.250872,-0.383149 0.474376,-0.551917 0.401395,-0.301046 1.017171,-0.301046 z m -0.478937,-0.01368 z m 5.564789,4.036753 q 0.45613,0 0.77086,-0.342097 0.31473,-0.346659 0.31473,-1.099275 0,-0.707002 -0.30104,-1.076467 -0.29649,-0.369466 -0.79823,-0.369466 -0.6842,0 -0.94419,0.643144 -0.13684,0.342098 -0.13684,0.843841 0,0.433324 0.14596,0.770861 0.26456,0.629459 0.94875,0.629459 z m -0.32385,-4.023069 q 0.37403,0 0.65227,0.114032 0.47437,0.196136 0.7663,0.720686 v -0.716124 h 1.26348 v 4.716387 q 0,0.962436 -0.32386,1.450495 -0.55648,0.83928 -2.13469,0.83928 -0.95331,0 -1.5554,-0.374027 -0.602093,-0.374027 -0.665951,-1.117519 h 1.414001 q 0.0547,0.228065 0.17789,0.328413 0.20982,0.177891 0.70701,0.177891 0.70244,0 0.93962,-0.469814 0.15509,-0.301046 0.15509,-1.012609 V 70.19932 q -0.18701,0.319292 -0.4014,0.478937 -0.38771,0.296485 -1.00804,0.296485 -0.95788,0 -1.532602,-0.670512 -0.570163,-0.675073 -0.570163,-1.824521 0,-1.108397 0.551918,-1.861012 0.551917,-0.757176 1.564527,-0.757176 z m 0.41508,-0.01368 z m 3.45747,3.74483 h 1.38207 v 1.359268 h -1.38207 z m 2.59538,0 h 1.38208 v 1.359268 h -1.38208 z m 2.59538,0 h 1.38208 v 1.359268 h -1.38208 z"
           id="path4" />
      </g>
    </g>
  </g>
</svg>
