<?xml version="1.0" encoding="UTF-8" standalone="no"?>
<!-- Created with Inkscape (http://www.inkscape.org/) -->

<svg
   width="730"
   height="100"
   viewBox="0 0 193.14579 26.458332"
   version="1.1"
   id="svg1"
   sodipodi:docname="topup_hint.svg"
   inkscape:version="1.4.2 (f4327f4, 2025-05-13)"
   xmlns:inkscape="http://www.inkscape.org/namespaces/inkscape"
   xmlns:sodipodi="http://sodipodi.sourceforge.net/DTD/sodipodi-0.dtd"
   xmlns="http://www.w3.org/2000/svg"
   xmlns:svg="http://www.w3.org/2000/svg">
  <sodipodi:namedview
     id="namedview1"
     pagecolor="#ffffff"
     bordercolor="#ffffff"
     borderopacity="1"
     inkscape:showpageshadow="0"
     inkscape:pageopacity="0"
     inkscape:pagecheckerboard="1"
     inkscape:deskcolor="#d1d1d1"
     inkscape:document-units="mm"
     inkscape:zoom="1.4289282"
     inkscape:cx="371.60719"
     inkscape:cy="57.735581"
     inkscape:window-width="1920"
     inkscape:window-height="1009"
     inkscape:window-x="1912"
     inkscape:window-y="-8"
     inkscape:window-maximized="1"
     inkscape:current-layer="layer1" />
  <defs
     id="defs1">
    <clipPath
       id="clip_0">
      <path
         transform="matrix(1,0,0,-1,0,841.92)"
         d="M 8.871e-6,0 H 595.32 V 841.92 H 8.871e-6 Z"
         fill-rule="evenodd"
         id="path1" />
    </clipPath>
    <clipPath
       id="clip_2">
      <path
         transform="matrix(1,0,0,-1,0,841.92)"
         d="M 8.871e-6,0 H 595.32 V 841.92 H 8.871e-6 Z"
         fill-rule="evenodd"
         id="path2" />
    </clipPath>
    <clipPath
       id="clip_3">
      <path
         transform="matrix(1,0,0,-1,0,841.92)"
         d="M 8.871e-6,0 H 595.32 V 841.92 H 8.871e-6 Z"
         fill-rule="evenodd"
         id="path3" />
    </clipPath>
    <clipPath
       id="clip_4">
      <path
         transform="matrix(1,0,0,-1,0,841.92)"
         d="M 8.871e-6,0 H 595.32 V 841.92 H 8.871e-6 Z"
         fill-rule="evenodd"
         id="path4" />
    </clipPath>
    <clipPath
       id="clip_5">
      <path
         transform="matrix(1,0,0,-1,0,841.92)"
         d="M 8.871e-6,0 H 595.32 V 841.92 H 8.871e-6 Z"
         fill-rule="evenodd"
         id="path5" />
    </clipPath>
    <clipPath
       id="clip_14">
      <path
         transform="matrix(1,0,0,-1,0,841.92)"
         d="M 8.871e-6,0 H 595.32 V 841.92 H 8.871e-6 Z"
         fill-rule="evenodd"
         id="path12" />
    </clipPath>
    <clipPath
       id="clip_7">
      <path
         transform="matrix(1,0,0,-1,0,841.92)"
         d="M 8.871e-6,0 H 595.32 V 841.92 H 8.871e-6 Z"
         fill-rule="evenodd"
         id="path6" />
    </clipPath>
    <clipPath
       id="clip_23">
      <path
         transform="matrix(1,0,0,-1,0,841.92)"
         d="M 8.871e-6,0 H 595.32 V 841.92 H 8.871e-6 Z"
         fill-rule="evenodd"
         id="path19" />
    </clipPath>
    <clipPath
       id="clip_10">
      <path
         transform="matrix(1,0,0,-1,0,841.92)"
         d="M 8.871e-6,0 H 595.32 V 841.92 H 8.871e-6 Z"
         fill-rule="evenodd"
         id="path8" />
    </clipPath>
    <clipPath
       id="clip_25">
      <path
         transform="matrix(1,0,0,-1,0,841.92)"
         d="M 8.871e-6,0 H 595.32 V 841.92 H 8.871e-6 Z"
         fill-rule="evenodd"
         id="path21" />
    </clipPath>
    <clipPath
       id="clip_12">
      <path
         transform="matrix(1,0,0,-1,0,841.92)"
         d="M 8.871e-6,0 H 595.32 V 841.92 H 8.871e-6 Z"
         fill-rule="evenodd"
         id="path10" />
    </clipPath>
    <clipPath
       id="clip_20">
      <path
         transform="matrix(1,0,0,-1,0,841.92)"
         d="M 8.871e-6,0 H 595.32 V 841.92 H 8.871e-6 Z"
         fill-rule="evenodd"
         id="path16" />
    </clipPath>
    <clipPath
       id="clip_18">
      <path
         transform="matrix(1,0,0,-1,0,841.92)"
         d="M 8.871e-6,0 H 595.32 V 841.92 H 8.871e-6 Z"
         fill-rule="evenodd"
         id="path14" />
    </clipPath>
    <clipPath
       id="clip_21">
      <path
         transform="matrix(1,0,0,-1,0,841.92)"
         d="M 8.871e-6,0 H 595.32 V 841.92 H 8.871e-6 Z"
         fill-rule="evenodd"
         id="path17" />
    </clipPath>
  </defs>
  <path
     id="rect3"
     style="fill:#cccccc;stroke-width:3.18193;paint-order:fill markers stroke"
     d="M 5.7509097,1.3787934 H 187.39492 c 2.15418,0 3.88841,1.7342282 3.88841,3.8884041 V 21.191136 c 0,2.154176 -1.73423,3.888404 -3.88841,3.888404 H 5.7509097 c -2.1541759,0 -3.8884041,-1.734228 -3.8884041,-3.888404 V 5.2671975 c 0,-2.1541759 1.7342282,-3.8884041 3.8884041,-3.8884041 z" />
  <g
     inkscape:label="Layer 1"
     inkscape:groupmode="layer"
     id="layer1">
    <g
       id="g3"
       transform="translate(5.52922,1.0854274)">
      <path
         style="font-size:10.5833px;line-height:1;font-family:'Noto Sans TC';-inkscape-font-specification:'Noto Sans TC';stroke-width:0.264583"
         d="m 8.8387195,3.0529833 h 0.814914 V 6.4819724 H 8.8387195 Z M 5.2827308,3.6879813 5.9706453,3.3810656 q 0.285749,0.317499 0.5609148,0.6984978 0.2857491,0.3704155 0.5079984,0.740831 0.2328326,0.3598321 0.3598322,0.6667478 L 6.669143,5.8363911 Q 6.5527267,5.5400587 6.3198941,5.1696432 6.0976449,4.7886445 5.8224791,4.3970624 5.5578966,4.0054803 5.2827308,3.6879813 Z M 12.500541,3.3175658 13.283705,3.6033149 Q 13.050873,3.9843137 12.775707,4.3970624 12.511124,4.7992278 12.235959,5.1802265 11.960793,5.550642 11.717377,5.8469744 L 11.050629,5.5718086 q 0.253999,-0.2963324 0.518582,-0.6879144 0.275166,-0.3915821 0.518581,-0.8043308 0.254,-0.423332 0.412749,-0.7619976 z M 7.3253076,7.9530511 H 8.0555553 V 11.657206 H 7.3253076 Z m 0.4339153,0 H 11.219962 V 10.979875 H 7.7592229 V 10.29196 H 10.479131 V 8.6409655 H 7.7592229 Z M 5.2615642,6.1538901 h 7.7575588 v 0.740831 H 6.0553117 V 12.789619 H 5.2615642 Z m 7.2813098,0 h 0.783165 v 5.6408989 q 0,0.338665 -0.09525,0.529165 -0.08467,0.201082 -0.338666,0.306915 -0.243416,0.08467 -0.677331,0.105833 -0.433915,0.02117 -1.05833,0.02117 -0.03175,-0.169333 -0.105833,-0.391582 -0.07408,-0.222249 -0.169333,-0.380999 0.497415,0.01058 0.899581,0.01058 0.402165,0.01058 0.539748,0 0.137583,0 0.179916,-0.05292 0.04233,-0.04233 0.04233,-0.158749 z m 9.927135,-2.1166599 h 0.825498 v 7.6093928 q 0,0.423332 -0.127,0.645581 -0.116416,0.232832 -0.433915,0.338665 -0.306916,0.105833 -0.867831,0.116417 -0.550331,0.02117 -1.344079,0.02117 -0.02117,-0.116416 -0.08467,-0.275165 -0.05292,-0.148167 -0.116416,-0.306916 -0.0635,-0.15875 -0.127,-0.275166 0.423332,0.02117 0.825497,0.03175 0.412749,0 0.709081,0 0.306916,0 0.433916,0 0.169332,-0.02117 0.232832,-0.07408 0.07408,-0.0635 0.07408,-0.232833 z m -6.233563,2.1166599 h 0.772581 v 4.8048179 h -0.772581 z m 0.328082,0 h 4.011071 V 10.112044 H 16.564528 V 9.3500466 h 3.227907 V 6.9158877 H 16.564528 Z M 15.156949,3.8043976 h 9.440304 v 0.7937475 h -9.440304 z m 10.350467,4.8471512 q 0.645582,-0.1587495 1.534579,-0.4021654 0.888997,-0.2539991 1.809744,-0.5185816 l 0.105833,0.7302476 q -0.836081,0.2539992 -1.682745,0.5079984 -0.846664,0.2434159 -1.534578,0.4550819 z m 0.127,-3.460739 h 3.545405 v 0.7514143 h -3.545405 z m 1.449912,-2.1378265 h 0.772581 v 8.7312227 q 0,0.328082 -0.08467,0.507998 -0.08467,0.179916 -0.296333,0.275166 -0.211666,0.08467 -0.560915,0.105833 -0.349249,0.03175 -0.888997,0.03175 -0.02117,-0.148167 -0.09525,-0.359833 -0.0635,-0.211666 -0.148166,-0.370415 0.370416,0.01058 0.677331,0.01058 0.317499,0 0.412749,0 0.116416,-0.01058 0.15875,-0.05292 0.05292,-0.04233 0.05292,-0.148166 z m 3.27024,0.3809988 h 2.772824 v 0.740831 h -2.772824 z m -1.227663,4.2968197 h 4.878901 v 0.7408309 h -4.878901 z m 4.603735,0 h 0.15875 l 0.148166,-0.03175 0.518582,0.2222493 q -0.359833,1.0477466 -0.952497,1.8520774 -0.592665,0.8043304 -1.365246,1.3969954 -0.772581,0.592665 -1.682745,0.99483 -0.89958,0.402166 -1.873244,0.645582 -0.02117,-0.116417 -0.09525,-0.254 -0.0635,-0.126999 -0.148167,-0.264582 -0.07408,-0.127 -0.158749,-0.211666 0.910164,-0.190499 1.756828,-0.539748 0.857247,-0.349249 1.576911,-0.867831 0.730248,-0.529165 1.269996,-1.2276627 0.550332,-0.7090811 0.846664,-1.5874949 z M 30.111152,8.27055 q 0.433915,0.9630803 1.174746,1.735661 0.740831,0.761998 1.756828,1.291163 1.015996,0.518581 2.254243,0.772581 -0.08467,0.08467 -0.1905,0.211666 -0.09525,0.137583 -0.179916,0.275165 -0.08467,0.137583 -0.137583,0.243416 -1.915577,-0.455082 -3.270239,-1.545161 -1.354663,-1.09008 -2.095494,-2.7304918 z m 0.04233,-4.8365679 h 0.751414 v 1.1853296 q 0,0.4868318 -0.126999,1.0054134 -0.127,0.5079984 -0.476249,0.9948302 -0.338665,0.4762485 -0.99483,0.846664 -0.05292,-0.084666 -0.148166,-0.1904994 -0.09525,-0.1164163 -0.201083,-0.2222493 -0.105833,-0.1164163 -0.179916,-0.1693328 0.603248,-0.3280823 0.888997,-0.7090811 0.296333,-0.3915821 0.391582,-0.7937475 0.09525,-0.4021653 0.09525,-0.7831641 z m 2.603492,0 h 0.761997 v 2.4553255 q 0,0.2222493 0.03175,0.317499 0.04233,0.084666 0.169333,0.084666 0.07408,0 0.243416,0 0.169333,0 0.338665,0 0.169333,0 0.232833,0 0.127,0 0.275166,-0.010583 0.148166,-0.021167 0.253999,-0.042333 0.02117,0.1481662 0.03175,0.3492489 0.01058,0.2010827 0.04233,0.3386656 -0.105833,0.03175 -0.264582,0.042333 -0.15875,0.010583 -0.317499,0.010583 -0.08467,0 -0.275166,0 -0.1905,0 -0.370416,0 -0.169332,0 -0.243416,0 -0.370415,0 -0.571498,-0.105833 -0.201082,-0.105833 -0.275166,-0.3492489 -0.0635,-0.2434159 -0.0635,-0.6561646 z m 5.386899,0.2645825 h 2.995074 v 0.8043308 h -2.995074 z m 2.592909,0 h 0.80433 q 0,0.4656652 0.04233,1.1006632 0.04233,0.6349979 0.179916,1.3652456 0.137583,0.7196644 0.423332,1.5028286 0.285749,0.7831641 0.77258,1.5663283 0.486832,0.7725807 1.21708,1.5028287 0.740831,0.730248 1.788578,1.344079 -0.08467,0.07408 -0.22225,0.190499 -0.126999,0.127 -0.243416,0.253999 -0.105833,0.137583 -0.179916,0.232833 -1.05833,-0.645581 -1.820327,-1.418162 Q 42.747611,10.556543 42.239613,9.7098788 41.742198,8.8632148 41.435282,8.0165509 41.13895,7.1593036 40.9802,6.3655561 40.832034,5.5612253 40.779118,4.8733109 40.736785,4.1853964 40.736785,3.6985646 Z m -0.306916,2.0743267 0.89958,0.1587495 q -0.380998,1.6086616 -0.99483,2.8998241 -0.603248,1.2911621 -1.471078,2.2754091 -0.857248,0.973664 -2.031994,1.661578 -0.0635,-0.08467 -0.201083,-0.201082 -0.126999,-0.116417 -0.275165,-0.243416 -0.137583,-0.116416 -0.243416,-0.1905 1.767411,-0.93133 2.804574,-2.5188249 1.037163,-1.5980782 1.513412,-3.8417378 z M 56.029664,4.206563 h 0.761997 q -0.01058,1.3334957 0.04233,2.5188253 0.05292,1.1747463 0.158749,2.1272432 0.105833,0.952497 0.264582,1.6404115 0.15875,0.687914 0.349249,1.05833 0.201083,0.370415 0.433916,0.370415 0.137583,0 0.211666,-0.402165 0.07408,-0.402165 0.105833,-1.259413 0.116416,0.116417 0.296332,0.22225 0.179916,0.09525 0.317499,0.158749 -0.04233,0.783164 -0.158749,1.227663 -0.116417,0.433915 -0.317499,0.613831 -0.1905,0.1905 -0.529165,0.1905 -0.433916,0 -0.761998,-0.433916 -0.317499,-0.423332 -0.539748,-1.195912 -0.22225,-0.783165 -0.359832,-1.8414946 -0.127,-1.0689133 -0.1905,-2.3283259 -0.0635,-1.269996 -0.08467,-2.6669915 z m -2.05316,3.0162404 h 4.762484 v 0.740831 h -4.762484 z m 4.032237,-4.0322372 0.571498,0.634998 Q 57.934658,4.0266469 57.119744,4.1959797 56.315413,4.3653125 55.447582,4.5028954 54.590335,4.629895 53.786004,4.7145614 53.764838,4.5769785 53.690755,4.3970624 53.616671,4.206563 53.542588,4.0901467 54.336336,3.9737304 55.161833,3.8361475 55.987331,3.6879813 56.728162,3.5292318 57.479576,3.359899 58.008741,3.1905662 Z m -4.466153,9.6413858 -0.08467,-0.698498 0.349249,-0.306915 2.254243,-0.698498 q 0.02117,0.158749 0.04233,0.359832 0.02117,0.201083 0.05292,0.328082 -0.793747,0.275166 -1.280579,0.444499 -0.486832,0.179916 -0.751414,0.285749 -0.264583,0.105833 -0.391582,0.169333 -0.116417,0.0635 -0.1905,0.116416 z M 51.84926,7.2228034 52.452508,7.0217207 q 0.169333,0.3386656 0.317499,0.7302477 0.148167,0.3809987 0.275166,0.7408309 0.127,0.3598322 0.1905,0.634998 L 52.579508,9.3817965 Q 52.526592,9.1066307 52.410175,8.7362152 52.293759,8.3657997 52.145593,7.9742177 52.00801,7.5720523 51.84926,7.2228034 Z m -1.037163,2.6987414 0.645581,-0.1164163 q 0.09525,0.5397485 0.179916,1.1747465 0.08467,0.624414 0.116417,1.079496 l -0.677331,0.137583 q -0.02117,-0.465665 -0.09525,-1.100663 -0.07408,-0.634998 -0.169333,-1.1747462 z m -1.238246,-0.0635 0.698498,0.1164163 q -0.08467,0.6984977 -0.232833,1.3969957 -0.148166,0.698498 -0.317499,1.195913 -0.07408,-0.05292 -0.201083,-0.09525 -0.116416,-0.04233 -0.243415,-0.09525 -0.127,-0.04233 -0.211666,-0.0635 0.190499,-0.486832 0.306915,-1.142997 0.127,-0.666748 0.201083,-1.312329 z M 49.309268,7.0111374 q -0.02117,-0.074083 -0.0635,-0.211666 -0.04233,-0.1375829 -0.09525,-0.2751658 -0.04233,-0.1375829 -0.08467,-0.2328326 0.137582,-0.03175 0.285749,-0.1799161 0.158749,-0.1587495 0.328082,-0.4021654 0.09525,-0.1164163 0.275166,-0.3809988 0.179916,-0.2751657 0.391582,-0.6455812 0.222249,-0.3809988 0.444498,-0.8043308 0.232833,-0.4339153 0.412749,-0.8572473 l 0.719664,0.3069157 q -0.296332,0.5926648 -0.645581,1.1853296 -0.349249,0.5926648 -0.730247,1.1218297 -0.370416,0.529165 -0.740831,0.9630803 v 0.010583 q 0,0 -0.07408,0.042333 -0.07408,0.042333 -0.179916,0.105833 -0.09525,0.0635 -0.169332,0.1269996 -0.07408,0.0635 -0.07408,0.1269996 z m 0,0 -0.02117,-0.5714982 0.391582,-0.2328326 1.92616,-0.1693328 q -0.02117,0.1481662 -0.04233,0.3280823 -0.01058,0.1799161 -0.01058,0.3069157 -0.666748,0.0635 -1.079497,0.1269996 -0.412748,0.052917 -0.645581,0.09525 -0.222249,0.03175 -0.338665,0.0635 -0.116417,0.021167 -0.179917,0.052917 z m 0.07408,2.3918257 q -0.02117,-0.084666 -0.07408,-0.211666 -0.04233,-0.1375829 -0.09525,-0.2751658 -0.04233,-0.1481662 -0.08467,-0.2434159 0.169333,-0.042333 0.370416,-0.2328326 0.201083,-0.1904994 0.465665,-0.4762484 0.137583,-0.1481662 0.402165,-0.4762485 0.275166,-0.3280823 0.613832,-0.7831642 0.338665,-0.4656652 0.677331,-0.9948302 0.349249,-0.529165 0.634998,-1.0689132 L 52.97109,5.053227 Q 52.526592,5.7728913 52.018593,6.4925557 51.510595,7.2016368 50.970847,7.8366348 50.431098,8.4716327 49.89135,8.9902144 v 0.021167 q 0,0 -0.08467,0.042333 -0.07408,0.03175 -0.169333,0.09525 -0.09525,0.052917 -0.179916,0.1269996 -0.07408,0.0635 -0.07408,0.1269996 z m 0,0 -0.03175,-0.5926648 0.391582,-0.2645825 2.92099,-0.4021654 q -0.01058,0.1481662 -0.02117,0.3386656 -0.01058,0.1904994 0,0.3069157 -1.015997,0.1587495 -1.629828,0.2645825 -0.603248,0.09525 -0.931331,0.1587495 -0.328082,0.0635 -0.476248,0.105833 -0.148166,0.042333 -0.222249,0.084666 z m 2.624658,0.2963324 0.592665,-0.1904994 q 0.169332,0.4444986 0.328082,0.9736639 0.169333,0.518581 0.243416,0.888997 l -0.634998,0.222249 q -0.0635,-0.380999 -0.222249,-0.910164 -0.15875,-0.539748 -0.306916,-0.9842465 z m 1.534578,3.1326565 q -0.04233,-0.09525 -0.105833,-0.211666 -0.05292,-0.116416 -0.126999,-0.232832 -0.07408,-0.105833 -0.148166,-0.169333 0.126999,-0.09525 0.253999,-0.285749 0.126999,-0.1905 0.126999,-0.529165 V 4.0901467 h 0.740831 v 7.9268913 q 0,0 -0.116416,0.08467 -0.105833,0.08467 -0.253999,0.211666 -0.148166,0.137582 -0.264583,0.275165 -0.105833,0.137583 -0.105833,0.243416 z m 6.995559,-7.0802273 h 2.899825 v 0.6773312 h -2.899825 z m -0.634998,1.8414942 h 3.852322 v 0.6879144 h -3.852322 z m 0.22225,1.3969955 0.560915,-0.1375829 q 0.158749,0.4656652 0.285749,1.0159968 0.137583,0.5397487 0.179916,0.9313307 l -0.603248,0.169332 Q 60.516981,10.556543 60.400565,10.016794 60.284148,9.4664629 60.125399,8.9902144 Z m -0.359832,2.7199076 q 0.497415,-0.08467 1.153579,-0.201082 0.666748,-0.127 1.418162,-0.275166 0.751415,-0.148166 1.502829,-0.296332 l 0.05292,0.645581 q -1.047746,0.222249 -2.095493,0.444498 -1.037163,0.22225 -1.841494,0.402166 z m 3.439572,-2.9844901 0.645581,0.1904994 q -0.158749,0.4868318 -0.328082,1.0265801 -0.169333,0.5291646 -0.328082,0.8995806 l -0.507999,-0.169333 q 0.09525,-0.264582 0.1905,-0.603248 0.09525,-0.3492489 0.179916,-0.6984978 0.09525,-0.3598322 0.148166,-0.6455813 z M 61.659977,6.0480571 h 0.709081 v 5.6514819 l -0.709081,0.116416 z m 0.306916,-3.0585736 0.666748,0.2751658 Q 62.316142,3.8784807 61.882227,4.4605622 61.448311,5.0426437 60.950896,5.550642 60.464064,6.0480571 59.966649,6.4290559 59.934899,6.3443895 59.8714,6.1962233 59.8079,6.0374738 59.733817,5.8893076 59.659734,5.7305581 59.596234,5.6353084 q 0.677331,-0.4656652 1.312329,-1.1641629 0.645581,-0.6984978 1.05833,-1.481662 z m -0.285749,1.1006632 0.380999,-0.5714982 q 0.359832,0.2434159 0.719664,0.529165 0.359832,0.2857491 0.677331,0.5714982 0.317499,0.2751658 0.550332,0.5185817 L 63.607304,5.7834746 Q 63.385055,5.5188921 63.056973,5.2225597 62.739474,4.9262274 62.379642,4.629895 62.019809,4.3335626 61.681144,4.0901467 Z m 2.95274,0.7619976 0.730248,0.1587495 q -0.116416,0.603248 -0.264582,1.2170794 -0.148167,0.6032481 -0.328083,1.1535797 -0.169332,0.5503316 -0.349249,0.9842468 -0.07408,-0.052917 -0.201082,-0.105833 -0.127,-0.0635 -0.253999,-0.1164163 -0.127,-0.0635 -0.22225,-0.09525 0.1905,-0.4127487 0.349249,-0.9419137 0.169333,-0.529165 0.306916,-1.1006632 0.137583,-0.5820815 0.232832,-1.1535796 z m 2.910408,0.084666 0.687914,-0.2328326 q 0.264583,0.4550818 0.497415,0.9736635 0.243416,0.5185817 0.433916,1.0159968 0.201082,0.4974151 0.296332,0.8889972 L 68.729621,7.8472181 Q 68.644955,7.455636 68.454456,6.9476376 68.27454,6.4396392 68.031124,5.9210575 67.798291,5.3918925 67.544292,4.9368107 Z m 0.582081,3.2914061 0.740831,0.2328326 q -0.412748,1.1324131 -1.121829,1.9790766 -0.709082,0.836081 -1.735662,1.418163 -1.02658,0.582081 -2.381242,0.93133 -0.0635,-0.15875 -0.190499,-0.370415 -0.127,-0.201083 -0.254,-0.328083 1.28058,-0.285749 2.254243,-0.793747 0.973664,-0.518582 1.640412,-1.269996 0.677331,-0.7619978 1.047746,-1.7991612 z m -2.02141,-5.1752335 h 0.751414 v 6.4769794 h -0.751414 z m 30.056569,0.4974151 h 4.677818 v 0.6455813 h -4.677818 z m -0.04233,1.481662 h 4.328571 v 0.5926647 h -4.328571 z m -1.15358,2.8998241 h 6.085401 V 8.6303822 H 94.965619 Z M 95.83345,3.5503984 h 0.761997 V 8.376383 H 95.83345 Z m 4.33915,5.3763162 0.60325,0.4868318 q -0.41275,0.3492489 -0.878413,0.6984976 -0.465665,0.349249 -0.846664,0.582082 L 98.616858,10.29196 Q 98.860274,10.112044 99.146023,9.8792116 99.442355,9.6357957 99.717521,9.3817965 99.992687,9.1277973 100.1726,8.9267146 Z M 97.801944,8.3234665 q 0.328082,0.7831642 0.857247,1.5028286 0.529165,0.7196639 1.195913,1.2805789 0.677326,0.560915 1.407576,0.888998 -0.0847,0.07408 -0.1905,0.179916 -0.0953,0.116416 -0.1905,0.232832 -0.0953,0.127 -0.15875,0.232833 -0.75141,-0.391582 -1.428741,-1.015997 -0.677331,-0.634998 -1.21708,-1.428745 Q 97.537361,9.4029631 97.166946,8.5351325 Z M 96.161532,6.4608058 h 4.286238 v 0.6032481 h -4.286238 z m -0.539748,6.3499802 -0.0635,-0.645582 0.328082,-0.296332 2.18016,-0.719664 q 0,0.158749 0.01058,0.349248 0.02117,0.1905 0.04233,0.306916 -0.751415,0.275166 -1.21708,0.444499 -0.465665,0.169333 -0.719664,0.275165 -0.253999,0.105833 -0.380999,0.169333 -0.116416,0.07408 -0.179916,0.116417 z M 93.960206,8.2811333 h 0.740831 q 0,0 0,0.0635 0,0.052917 0,0.1375829 0,0.084666 -0.01058,0.1375829 -0.0635,1.2594127 -0.137582,2.0425771 -0.0635,0.772581 -0.169333,1.185329 -0.09525,0.412749 -0.243416,0.582082 -0.137583,0.158749 -0.296332,0.222249 -0.15875,0.0635 -0.391583,0.09525 -0.201082,0.02117 -0.560914,0.01058 -0.349249,0 -0.730248,-0.01058 -0.02117,-0.1905 -0.08467,-0.412749 -0.05292,-0.211666 -0.169332,-0.380999 0.402165,0.04233 0.740831,0.05292 0.349249,0.01058 0.497415,0.01058 0.126999,0 0.211666,-0.02117 0.08467,-0.02117 0.158749,-0.09525 0.105833,-0.105833 0.179916,-0.476249 0.08467,-0.370415 0.148167,-1.100663 0.0635,-0.7408308 0.116416,-1.9261604 z m -2.063744,-2.402409 h 0.709081 q 0,0.5079984 -0.02117,1.0794966 -0.01058,0.5714982 -0.03175,1.1006632 -0.02117,0.5291649 -0.05292,0.920747 h -0.719664 q 0.04233,-0.4021654 0.0635,-0.9313303 0.02117,-0.5397483 0.03175,-1.1006632 0.02117,-0.5714982 0.02117,-1.0689133 z m 0.22225,2.402409 h 2.000243 v 0.6984978 h -2.08491 z m -0.04233,-2.402409 h 1.873245 V 4.2700628 h -2.27541 V 3.5503984 H 94.67987 V 6.608972 h -2.603492 z m 3.545406,6.9320617 q -0.02117,-0.08467 -0.08467,-0.211666 -0.0635,-0.127 -0.126999,-0.264583 -0.0635,-0.126999 -0.127,-0.201083 0.105833,-0.0635 0.201083,-0.190499 0.105833,-0.137583 0.105833,-0.444499 V 8.3657997 h 0.751414 v 3.7782383 q 0,0 -0.07408,0.04233 -0.07408,0.05292 -0.179916,0.116416 -0.105833,0.07408 -0.211666,0.15875 -0.105833,0.08467 -0.179916,0.169332 -0.07408,0.09525 -0.07408,0.179917 z M 106.02517,9.9532947 105.79234,9.3923798 q 0.64558,-0.2751658 0.98425,-0.6773312 0.34925,-0.4127487 0.34925,-1.0159967 l -0.1905,-0.8889972 0.5715,0.8043308 q -0.11642,0.1375829 -0.26459,0.1904994 -0.14816,0.042333 -0.29633,0.042333 -0.32808,0 -0.56091,-0.1904994 -0.23284,-0.1904994 -0.23284,-0.5609149 0,-0.3809988 0.23284,-0.5714982 0.24341,-0.1904994 0.57149,-0.1904994 0.4445,0 0.66675,0.3386656 0.23283,0.3280823 0.23283,0.8784139 0,0.8572472 -0.49741,1.4816619 -0.49742,0.6244147 -1.3335,0.9207471 z M 116.5238,3.5186485 h 5.72557 v 0.7196644 h -5.72557 z m 0.89958,6.0218975 q 0.55034,1.164163 1.83092,1.788578 1.28058,0.613831 3.1644,0.793747 -0.0741,0.07408 -0.16933,0.201083 -0.0952,0.126999 -0.16933,0.253999 -0.0741,0.127 -0.11642,0.232833 -1.30175,-0.169333 -2.31774,-0.539749 -1.016,-0.370415 -1.74625,-1.005413 -0.71966,-0.634998 -1.15358,-1.5557452 z m 1.524,-5.6938152 h 0.75141 v 4.2333198 q 0,0.5609149 -0.0635,1.1112465 -0.0529,0.5503316 -0.24341,1.0794969 -0.1905,0.518581 -0.55033,0.99483 -0.34925,0.465665 -0.93133,0.857247 -0.5715,0.391582 -1.43933,0.687915 -0.0423,-0.09525 -0.127,-0.211666 -0.0847,-0.105833 -0.17992,-0.22225 -0.0847,-0.116416 -0.16933,-0.190499 0.83608,-0.232833 1.37583,-0.571498 0.55033,-0.338666 0.86783,-0.740831 0.3175,-0.412749 0.46566,-0.8784141 0.15875,-0.4656652 0.20109,-0.952497 0.0423,-0.4868318 0.0423,-0.9630803 z m -1.50283,3.6829883 v 1.0794965 h 3.85232 V 7.5297191 Z m 0,-1.6509948 V 6.926471 h 3.85232 V 5.8787243 Z m -0.70908,-0.634998 h 5.29165 v 3.989904 h -5.29165 z m -4.02165,-1.6298281 h 3.57715 v 0.7302477 h -3.57715 z m 1.13241,3.2596563 h 2.37066 v 4.5825685 h -2.37066 v -0.709081 h 1.69333 V 7.5932189 h -1.69333 z m 0.26458,-2.8998241 0.73025,0.1587495 q -0.17992,0.9948302 -0.45508,1.9579104 -0.26458,0.952497 -0.64558,1.7885777 -0.37042,0.8254973 -0.85725,1.4604953 -0.0212,-0.09525 -0.0953,-0.2645825 -0.0635,-0.1693328 -0.13758,-0.3386656 -0.0635,-0.1693328 -0.13759,-0.2645825 0.61384,-0.814914 0.99483,-1.9896603 0.381,-1.1853296 0.60325,-2.508242 z m -0.66675,2.8998241 h 0.68792 v 5.4292325 h -0.68792 z m 10.27639,-2.0637434 h 4.00048 v 0.5397482 h -3.38665 v 3.14324 h -0.61383 z m 5.71498,-0.6667479 h 3.4184 v 0.634998 h -3.4184 z m -3.87349,-1.0794966 h 0.70908 v 2.0425769 h -0.0847 V 8.376383 h -0.53975 V 5.1061435 h -0.0847 z m 4.07457,-0.010583 0.67733,0.1375829 q -0.24341,0.846664 -0.68791,1.5663284 -0.4445,0.709081 -0.99483,1.2064961 -0.0529,-0.074083 -0.14817,-0.1587495 -0.0847,-0.09525 -0.1905,-0.1904994 -0.0952,-0.09525 -0.17991,-0.1481662 0.51858,-0.4339152 0.91016,-1.0583299 0.40216,-0.634998 0.61383,-1.3546624 z m -4.78365,2.6881581 0.47625,0.084666 q -0.0741,0.4656652 -0.20108,0.9419137 -0.11642,0.4656652 -0.28575,0.7937475 -0.0741,-0.042333 -0.20109,-0.105833 -0.127,-0.0635 -0.22225,-0.09525 0.17992,-0.3492489 0.27517,-0.7619976 0.0953,-0.423332 0.15875,-0.8572473 z m -1.10066,-2.2013263 0.56091,-0.2539992 q 0.22225,0.2645825 0.43392,0.6032481 0.21166,0.3280823 0.30691,0.5714982 l -0.60325,0.2963324 q -0.0847,-0.2539992 -0.28575,-0.5926648 -0.20108,-0.3492489 -0.41274,-0.6244147 z m 7.82105,0.8995805 0.70909,0.105833 q -0.381,1.4604953 -1.30175,2.3706591 -0.92075,0.8995805 -2.28599,1.4181621 -0.0318,-0.074083 -0.10584,-0.1904994 -0.0741,-0.1164162 -0.15875,-0.2328325 -0.0741,-0.1164163 -0.13758,-0.1904994 1.27,-0.4127487 2.11666,-1.2064962 0.84667,-0.7937475 1.16416,-2.0743267 z m -1.96849,0.1693328 q 0.28575,0.7725808 0.762,1.4287454 0.47625,0.6561646 1.13241,1.1429964 0.65617,0.4762485 1.43933,0.7302477 -0.10583,0.09525 -0.24342,0.2645824 -0.127,0.1693328 -0.20108,0.3069157 -1.23824,-0.4656651 -2.12724,-1.4287454 -0.87842,-0.9736636 -1.34408,-2.2859927 z m -3.13266,1.238246 0.40217,-0.105833 q 0.15875,0.3915821 0.28575,0.8572473 0.127,0.4656652 0.16933,0.8043308 l -0.43391,0.1164163 Q 126.86369,7.1804702 126.74727,6.714805 126.63085,6.2385565 126.4721,5.8469744 Z m 1.04775,-2.6034917 0.66675,0.2645825 q -0.22225,0.3280823 -0.46567,0.6773312 -0.23283,0.3386656 -0.4445,0.5820815 L 126.7896,4.5452286 q 0.17992,-0.2645825 0.39159,-0.634998 0.22224,-0.3809988 0.33866,-0.6667479 z m 0.11642,5.1434836 h 0.78316 v 4.4026527 h -0.78316 z m -3.22791,0.6667479 h 7.0379 v 0.6879145 h -6.2759 v 2.5188253 h -0.762 z m 6.66748,0 h 0.78316 v 2.3494928 q 0,0.296332 -0.0953,0.465665 -0.0847,0.169333 -0.32808,0.264582 -0.26458,0.07408 -0.6985,0.08467 -0.42333,0.02117 -1.09008,0.02117 -0.0317,-0.148166 -0.11641,-0.328082 -0.0741,-0.190499 -0.14817,-0.338665 0.33867,0 0.635,0.01058 0.30692,0 0.51858,0 0.22225,0 0.3175,0 0.127,-0.01058 0.16933,-0.04233 0.0529,-0.04233 0.0529,-0.137583 z m -3.56657,-4.2439031 h 0.62441 v 3.4078224 h -0.62441 z m 32.66006,0.2857491 h 4.41324 v 0.7514142 h -4.41324 z m 0.14817,0.4233319 q 0.16933,0.952497 0.47625,1.9261606 0.3175,0.9736635 0.82549,1.873244 0.51859,0.8889973 1.28058,1.6086613 0.77258,0.719665 1.87325,1.164163 -0.0847,0.08467 -0.20109,0.211666 -0.10583,0.137583 -0.20108,0.264583 -0.0952,0.137583 -0.15875,0.264582 -1.10066,-0.518581 -1.87324,-1.280579 -0.77258,-0.772581 -1.29116,-1.693328 -0.51859,-0.9313304 -0.83608,-1.9261605 -0.30692,-0.9948302 -0.48684,-1.9367439 z m 2.76224,-0.1693328 0.84666,0.1269996 q -0.22225,1.2170795 -0.58208,2.328326 -0.35983,1.1006631 -0.93133,2.0425768 -0.5715,0.9419133 -1.42874,1.6933283 -0.84667,0.751414 -2.05316,1.269996 -0.0529,-0.09525 -0.14817,-0.211666 -0.0847,-0.116417 -0.17992,-0.232833 -0.0847,-0.116416 -0.16933,-0.201083 1.16416,-0.476248 1.96849,-1.174746 0.80434,-0.698498 1.3335,-1.5769116 0.52917,-0.8784139 0.84666,-1.9049939 0.3175,-1.0265801 0.49742,-2.1589932 z M 160.52916,3.0424 l 0.8255,0.1587495 q -0.22225,0.9736636 -0.56091,1.8732441 -0.32809,0.8889971 -0.762,1.6509947 -0.43392,0.7619976 -0.96308,1.3440791 -0.0529,-0.09525 -0.15875,-0.2222493 -0.0952,-0.1375829 -0.20108,-0.2751658 -0.10584,-0.1375829 -0.1905,-0.211666 0.74083,-0.7514143 1.23824,-1.8838274 0.508,-1.1429963 0.77258,-2.4341589 z m -5.46098,2.2754094 h 3.85232 V 6.079807 h -3.85232 z m 1.64041,-2.2648261 h 0.77258 v 9.7260527 h -0.77258 z m -0.0423,2.7410746 0.51858,0.1693328 q -0.13758,0.6667479 -0.34925,1.3864123 -0.20108,0.7090811 -0.46566,1.3969955 -0.254,0.6879145 -0.55033,1.2805795 -0.28575,0.592665 -0.59267,1.005413 -0.0635,-0.169333 -0.1905,-0.370415 -0.127,-0.211666 -0.23283,-0.349249 0.29633,-0.3809989 0.5715,-0.8995806 0.28575,-0.529165 0.52916,-1.1324131 0.254,-0.6138313 0.4445,-1.2488293 0.20108,-0.6455813 0.3175,-1.2382461 z m 0.71966,1.2064962 q 0.10584,0.105833 0.29634,0.3386656 0.1905,0.2328326 0.42333,0.529165 0.23283,0.285749 0.45508,0.5820814 0.23283,0.2963324 0.41275,0.529165 0.17992,0.2328326 0.254,0.3492489 l -0.48683,0.6455813 q -0.127,-0.2328326 -0.35984,-0.5926648 -0.22224,-0.3598322 -0.49741,-0.740831 -0.26458,-0.3915821 -0.508,-0.7196643 -0.23283,-0.3386656 -0.381,-0.5397483 z"
         id="text2"
         aria-label="尚可投入 紙鈔　　張，硬幣　　枚" />
      <path
         style="font-weight:bold;font-size:6.64139px;line-height:1;font-family:Helvetica;-inkscape-font-specification:'Helvetica Bold';stroke-width:0.166035"
         d="m 8.5113625,15.087893 h 1.1317603 l -1.598733,2.983437 v 1.796548 H 7.045587 V 18.07133 L 5.3917253,15.087893 h 1.1771604 l 0.992317,2.08192 z m -0.9923171,0 z m 3.7163246,4.128169 q 0.405358,0 0.62263,-0.288615 0.217272,-0.288615 0.217272,-0.820445 0,-0.53183 -0.217272,-0.817203 -0.217272,-0.288615 -0.62263,-0.288615 -0.405358,0 -0.625873,0.288615 -0.217272,0.285373 -0.217272,0.817203 0,0.53183 0.217272,0.820445 0.220515,0.288615 0.625873,0.288615 z m 1.809519,-1.10906 q 0,0.778288 -0.447515,1.332818 -0.447516,0.551287 -1.358761,0.551287 -0.911246,0 -1.3587611,-0.551287 -0.4475155,-0.55453 -0.4475155,-1.332818 0,-0.765317 0.4475155,-1.326333 0.4475151,-0.561015 1.3587611,-0.561015 0.911245,0 1.358761,0.561015 0.447515,0.561016 0.447515,1.326333 z m -1.806276,-1.867891 z m 3.388795,0.09404 v 2.130563 q 0,0.301586 0.07134,0.454001 0.126472,0.269158 0.496159,0.269158 0.473458,0 0.648573,-0.382658 0.0908,-0.207544 0.0908,-0.548045 v -1.923019 h 0.937189 v 3.534724 h -0.898274 v -0.499401 q -0.01297,0.01621 -0.06486,0.09729 -0.05189,0.08107 -0.123228,0.142686 -0.217273,0.194572 -0.421573,0.265915 -0.201058,0.07134 -0.473459,0.07134 -0.784773,0 -1.057174,-0.564259 -0.152415,-0.311315 -0.152415,-0.917731 v -2.130563 z m 0.648574,-0.09404 z m 8.28228,0.01621 q 0.233486,0 0.460487,0.0908 0.227001,0.0908 0.411844,0.317801 0.149172,0.184844 0.201058,0.454001 0.03243,0.178358 0.03243,0.522102 l -0.0065,2.227849 h -0.946917 v -2.250549 q 0,-0.201058 -0.06486,-0.330772 -0.123229,-0.246458 -0.454001,-0.246458 -0.382658,0 -0.528587,0.317801 -0.07459,0.168629 -0.07459,0.405358 v 2.10462 h -0.930703 v -2.10462 q 0,-0.314558 -0.06486,-0.457244 -0.116743,-0.256187 -0.457244,-0.256187 -0.39563,0 -0.53183,0.256187 -0.07459,0.145929 -0.07459,0.434544 v 2.12732 H 19.592237 V 16.33964 h 0.898274 v 0.515615 q 0.171871,-0.275643 0.324286,-0.392386 0.269158,-0.207544 0.697216,-0.207544 0.405359,0 0.655059,0.178358 0.201058,0.165386 0.30483,0.424815 0.1816,-0.311315 0.450758,-0.457244 0.285372,-0.145929 0.635602,-0.145929 z m 3.904411,1.893834 q -0.08756,0.05513 -0.178358,0.0908 -0.08756,0.03243 -0.243215,0.06161 l -0.207543,0.03891 q -0.291858,0.05189 -0.41833,0.126472 -0.214029,0.126472 -0.214029,0.392387 0,0.236729 0.129714,0.343743 0.132958,0.103772 0.321044,0.103772 0.298344,0 0.548044,-0.175115 0.252944,-0.175114 0.262673,-0.638844 z m -0.561016,-0.431301 q 0.256186,-0.03243 0.366444,-0.08107 0.197815,-0.08431 0.197815,-0.262672 0,-0.217272 -0.152415,-0.298344 -0.149172,-0.08431 -0.44103,-0.08431 -0.327529,0 -0.46373,0.162143 -0.09729,0.119986 -0.129714,0.324287 h -0.891789 q 0.02919,-0.46373 0.25943,-0.762074 0.366443,-0.466973 1.258232,-0.466973 0.580473,0 1.031231,0.230244 0.450758,0.230243 0.450758,0.869088 v 1.621433 q 0,0.168629 0.0065,0.408601 0.0097,0.181601 0.05513,0.246458 0.0454,0.06486 0.1362,0.107015 v 0.1362 h -1.005288 q -0.04216,-0.107015 -0.05837,-0.201058 -0.01621,-0.09404 -0.02594,-0.214029 -0.191329,0.207544 -0.441029,0.353473 -0.298344,0.171871 -0.674517,0.171871 -0.479944,0 -0.794502,-0.2724 -0.311315,-0.275644 -0.311315,-0.778288 0,-0.651816 0.502644,-0.943674 0.275644,-0.158901 0.810717,-0.227001 z m 0.04864,-1.478747 z m 2.399721,4.306526 0.116743,0.0065 q 0.1362,0.0065 0.259429,-0.0097 0.123229,-0.01621 0.207544,-0.07459 0.08107,-0.05513 0.149171,-0.230243 0.07134,-0.175115 0.05837,-0.214029 l -1.297146,-3.690382 h 1.027988 l 0.771802,2.607264 0.729645,-2.607264 h 0.982589 l -1.212832,3.476352 q -0.35023,1.005289 -0.55453,1.245261 -0.204301,0.243215 -0.817203,0.243215 -0.123229,0 -0.197815,-0.0032 -0.07458,0 -0.223757,-0.0097 z m 1.251746,-4.306526 z m 4.864298,2.50025 q 0.02919,0.246457 0.126472,0.350229 0.171872,0.184843 0.635602,0.184843 0.272401,0 0.431301,-0.08107 0.162143,-0.08107 0.162143,-0.243215 0,-0.155658 -0.129714,-0.236729 -0.129715,-0.08107 -0.963131,-0.278887 -0.599931,-0.149172 -0.846388,-0.372929 -0.246458,-0.220515 -0.246458,-0.635602 0,-0.489673 0.382658,-0.839903 0.385901,-0.353472 1.083117,-0.353472 0.661545,0 1.076632,0.265915 0.418329,0.262672 0.479944,0.911245 h -0.924217 q -0.01946,-0.178357 -0.100529,-0.282129 -0.152414,-0.188086 -0.518858,-0.188086 -0.301587,0 -0.431302,0.09404 -0.126471,0.09404 -0.126471,0.220515 0,0.1589 0.1362,0.230243 0.1362,0.07459 0.963131,0.256187 0.551288,0.129714 0.826931,0.392387 0.272401,0.265915 0.272401,0.664787 0,0.525344 -0.392387,0.85936 -0.389144,0.330772 -1.206346,0.330772 -0.833417,0 -1.232289,-0.35023 -0.39563,-0.353472 -0.39563,-0.898273 z m 0.706945,-2.50025 z m 1.903563,0.784773 v -0.658301 h 0.492915 v -0.985832 h 0.914489 v 0.985832 h 0.573987 v 0.658301 h -0.573987 v 1.867891 q 0,0.217272 0.05513,0.272401 0.05513,0.05189 0.337258,0.05189 0.04216,0 0.08756,0 0.04864,-0.0032 0.09404,-0.0065 v 0.690731 l -0.437787,0.01621 q -0.655059,0.0227 -0.895031,-0.227001 -0.155658,-0.1589 -0.155658,-0.489672 v -2.175964 z m 3.524996,-1.112303 h -0.937188 v -0.852874 h 0.937188 z m -0.937188,0.421573 h 0.937188 v 3.534724 h -0.937188 z m 2.775894,3.534724 h -0.924217 v -4.779985 h 0.924217 z m 1.845188,0 h -0.924216 v -4.779985 h 0.924216 z m 3.69687,-3.956297 h -0.937188 v -0.852874 h 0.937188 z m -0.937188,0.421573 h 0.937188 v 3.534724 h -0.937188 z m 3.790908,-0.08432 q 0.548044,0 0.895031,0.288615 0.350229,0.285373 0.350229,0.95016 v 2.380264 h -0.946917 v -2.15002 q 0,-0.278887 -0.07459,-0.428059 -0.1362,-0.2724 -0.518858,-0.2724 -0.470216,0 -0.645331,0.398872 -0.0908,0.210786 -0.0908,0.538316 v 1.913291 H 49.883847 V 16.33964 h 0.891788 v 0.515615 q 0.178358,-0.2724 0.337258,-0.392386 0.285373,-0.21403 0.72316,-0.21403 z m -0.340501,-0.0097 z m 3.158553,2.50025 q 0.02919,0.246457 0.126472,0.350229 0.171872,0.184843 0.635602,0.184843 0.272401,0 0.431301,-0.08107 0.162143,-0.08107 0.162143,-0.243215 0,-0.155658 -0.129714,-0.236729 -0.129715,-0.08107 -0.963132,-0.278887 -0.59993,-0.149172 -0.846388,-0.372929 -0.246458,-0.220515 -0.246458,-0.635602 0,-0.489673 0.382659,-0.839903 0.385901,-0.353472 1.083117,-0.353472 0.661545,0 1.076632,0.265915 0.418329,0.262672 0.479944,0.911245 h -0.924217 q -0.01946,-0.178357 -0.100529,-0.282129 -0.152415,-0.188086 -0.518859,-0.188086 -0.301586,0 -0.431301,0.09404 -0.126472,0.09404 -0.126472,0.220515 0,0.1589 0.136201,0.230243 0.1362,0.07459 0.963131,0.256187 0.551287,0.129714 0.826931,0.392387 0.272401,0.265915 0.272401,0.664787 0,0.525344 -0.392387,0.85936 -0.389144,0.330772 -1.206346,0.330772 -0.833417,0 -1.232289,-0.35023 -0.39563,-0.353472 -0.39563,-0.898273 z m 0.706945,-2.50025 z m 3.661194,0.762073 q -0.321044,0 -0.499401,0.201058 -0.175115,0.201058 -0.220515,0.544802 h 1.436589 Q 59.716217,17.3806 59.51516,17.192513 59.317345,17.001184 59.022244,17.001184 Z m 0,-0.762073 q 0.44103,0 0.794502,0.165386 0.353473,0.165386 0.583716,0.522101 0.207543,0.314558 0.269158,0.729645 0.03567,0.243215 0.02919,0.700459 h -2.419178 q 0.01946,0.53183 0.334015,0.74586 0.191329,0.132957 0.460487,0.132957 0.285372,0 0.46373,-0.162143 0.09729,-0.08756 0.171872,-0.243215 h 0.943674 q -0.03567,0.314558 -0.32753,0.638844 -0.454001,0.515616 -1.271203,0.515616 -0.674517,0 -1.190132,-0.434544 -0.515616,-0.434544 -0.515616,-1.41389 0,-0.917731 0.46373,-1.407403 0.466973,-0.489673 1.209589,-0.489673 z m 0.06486,0 z m 4.154114,0.0097 q 0.02594,0 0.04216,0.0032 0.01946,0 0.08107,0.0032 v 0.946917 q -0.08756,-0.0097 -0.155658,-0.01297 -0.0681,-0.0032 -0.110257,-0.0032 -0.557773,0 -0.749103,0.363201 -0.107014,0.2043 -0.107014,0.629116 v 1.689533 h -0.930703 v -3.534724 h 0.88206 v 0.616144 q 0.214029,-0.353472 0.37293,-0.483187 0.259429,-0.217272 0.674516,-0.217272 z m 0.301586,0.775045 v -0.658301 h 0.492916 v -0.985832 h 0.914488 v 0.985832 h 0.573987 v 0.658301 h -0.573987 v 1.867891 q 0,0.217272 0.05513,0.272401 0.05513,0.05189 0.337258,0.05189 0.04216,0 0.08756,0 0.04864,-0.0032 0.09404,-0.0065 v 0.690731 l -0.437787,0.01621 q -0.655059,0.0227 -0.895031,-0.227001 -0.155657,-0.1589 -0.155657,-0.489672 v -2.175964 z m 30.317557,-0.768559 q 0.697216,0 1.089603,0.502644 0.39563,0.502645 0.39563,1.297147 0,0.823688 -0.389144,1.365246 -0.389144,0.541559 -1.08636,0.541559 -0.437787,0 -0.703702,-0.175115 -0.158901,-0.103771 -0.343744,-0.363201 v 0.444273 h -0.90476 v -4.773499 h 0.920974 v 1.699262 q 0.175115,-0.246458 0.385901,-0.376173 0.249701,-0.162143 0.635602,-0.162143 z m -0.236729,2.944523 q 0.356715,0 0.55453,-0.288616 0.197815,-0.288615 0.197815,-0.75883 0,-0.376173 -0.09729,-0.622631 -0.184844,-0.466972 -0.681002,-0.466972 -0.502644,0 -0.690731,0.457244 -0.09729,0.243215 -0.09729,0.629116 0,0.454001 0.201058,0.752345 0.201058,0.298344 0.612902,0.298344 z m 3.333664,-3.288267 h -0.937188 v -0.852874 h 0.937188 z m -0.937188,0.421573 h 0.937188 v 3.534724 H 96.020105 Z M 98.796,19.867878 H 97.871783 V 15.087893 H 98.796 Z m 1.84519,0 h -0.924215 v -4.779985 h 0.924215 z m 1.13825,-3.573639 q 0.25619,-0.596687 0.7491,-1.284175 h 0.69722 l -0.19782,0.363201 q -0.4086,0.749103 -0.5675,1.569548 -0.10377,0.538315 -0.10377,1.173917 0,0.992317 0.28861,1.825734 0.16863,0.492916 0.59669,1.264718 h -0.68424 l -0.23025,-0.314558 q -0.22375,-0.285373 -0.4767,-0.849631 -0.45076,-1.008532 -0.45076,-1.984634 0,-0.888546 0.37942,-1.76412 z m 2.69482,2.445122 q 0.0292,0.246457 0.12647,0.350229 0.17187,0.184843 0.6356,0.184843 0.2724,0 0.4313,-0.08107 0.16215,-0.08107 0.16215,-0.243215 0,-0.155658 -0.12972,-0.236729 -0.12971,-0.08107 -0.96313,-0.278887 -0.59993,-0.149172 -0.84639,-0.372929 -0.24646,-0.220515 -0.24646,-0.635602 0,-0.489673 0.38266,-0.839903 0.3859,-0.353472 1.08312,-0.353472 0.66154,0 1.07663,0.265915 0.41833,0.262672 0.47994,0.911245 h -0.92421 q -0.0195,-0.178357 -0.10053,-0.282129 -0.15242,-0.188086 -0.51886,-0.188086 -0.30159,0 -0.4313,0.09404 -0.12647,0.09404 -0.12647,0.220515 0,0.1589 0.1362,0.230243 0.1362,0.07459 0.96313,0.256187 0.55129,0.129714 0.82693,0.392387 0.2724,0.265915 0.2724,0.664787 0,0.525344 -0.39239,0.85936 -0.38914,0.330772 -1.20634,0.330772 -0.83342,0 -1.23229,-0.35023 -0.39563,-0.353472 -0.39563,-0.898273 z m 0.70694,-2.50025 z m 2.617,-1.229047 q 0.49291,0.687488 0.7491,1.284175 0.37941,0.875574 0.37941,1.76412 0,0.976102 -0.45075,1.984634 -0.25295,0.564258 -0.47671,0.849631 l -0.23024,0.314558 h -0.68424 q 0.42805,-0.771802 0.59668,-1.264718 0.28862,-0.833417 0.28862,-1.825734 0,-0.635602 -0.10377,-1.173917 -0.1589,-0.820445 -0.5675,-1.569548 l -0.19782,-0.363201 z m 50.10228,2.591051 q -0.0259,-0.197815 -0.13296,-0.356716 -0.15565,-0.214029 -0.48318,-0.214029 -0.46698,0 -0.63885,0.46373 -0.0908,0.246458 -0.0908,0.655059 0,0.389144 0.0908,0.625873 0.16539,0.44103 0.62263,0.44103 0.32429,0 0.46049,-0.175115 0.1362,-0.175115 0.16539,-0.454001 h 0.94367 q -0.0324,0.421572 -0.30483,0.797745 -0.43454,0.606416 -1.28742,0.606416 -0.85287,0 -1.25499,-0.505887 -0.40211,-0.505887 -0.40211,-1.313361 0,-0.911245 0.44427,-1.417133 0.44427,-0.505887 1.2258,-0.505887 0.66479,0 1.08636,0.298344 0.42482,0.298344 0.50265,1.053932 z m -0.62587,-1.362004 z m 3.79415,2.976951 q 0.40535,0 0.62263,-0.288615 0.21727,-0.288615 0.21727,-0.820445 0,-0.53183 -0.21727,-0.817203 -0.21728,-0.288615 -0.62263,-0.288615 -0.40536,0 -0.62588,0.288615 -0.21727,0.285373 -0.21727,0.817203 0,0.53183 0.21727,0.820445 0.22052,0.288615 0.62588,0.288615 z m 1.80952,-1.10906 q 0,0.778288 -0.44752,1.332818 -0.44752,0.551287 -1.35876,0.551287 -0.91125,0 -1.35876,-0.551287 -0.44752,-0.55453 -0.44752,-1.332818 0,-0.765317 0.44752,-1.326333 0.44751,-0.561015 1.35876,-0.561015 0.91124,0 1.35876,0.561015 0.44752,0.561016 0.44752,1.326333 z M 161.072,16.239111 Z m 3.41798,-0.32753 h -0.93719 v -0.852874 h 0.93719 z m -0.93719,0.421573 h 0.93719 v 3.534724 h -0.93719 z m 3.79092,-0.08432 q 0.54804,0 0.89503,0.288615 0.35023,0.285373 0.35023,0.95016 v 2.380264 h -0.94692 v -2.15002 q 0,-0.278887 -0.0746,-0.428059 -0.1362,-0.2724 -0.51886,-0.2724 -0.47022,0 -0.64533,0.398872 -0.0908,0.210786 -0.0908,0.538316 v 1.913291 H 165.3915 V 16.33964 h 0.89179 v 0.515615 q 0.17836,-0.2724 0.33726,-0.392386 0.28537,-0.21403 0.72316,-0.21403 z m -0.3405,-0.0097 z m 2.67536,0.05513 q 0.25619,-0.596687 0.7491,-1.284175 h 0.69722 l -0.19782,0.363201 q -0.4086,0.749103 -0.5675,1.569548 -0.10377,0.538315 -0.10377,1.173917 0,0.992317 0.28862,1.825734 0.16862,0.492916 0.59668,1.264718 h -0.68424 l -0.23025,-0.314558 q -0.22375,-0.285373 -0.4767,-0.849631 -0.45075,-1.008532 -0.45075,-1.984634 0,-0.888546 0.37941,-1.76412 z m 2.69483,2.445122 q 0.0292,0.246457 0.12647,0.350229 0.17187,0.184843 0.6356,0.184843 0.2724,0 0.4313,-0.08107 0.16214,-0.08107 0.16214,-0.243215 0,-0.155658 -0.12971,-0.236729 -0.12971,-0.08107 -0.96313,-0.278887 -0.59993,-0.149172 -0.84639,-0.372929 -0.24646,-0.220515 -0.24646,-0.635602 0,-0.489673 0.38266,-0.839903 0.3859,-0.353472 1.08312,-0.353472 0.66154,0 1.07663,0.265915 0.41833,0.262672 0.47994,0.911245 h -0.92421 q -0.0195,-0.178357 -0.10053,-0.282129 -0.15242,-0.188086 -0.51886,-0.188086 -0.30159,0 -0.4313,0.09404 -0.12647,0.09404 -0.12647,0.220515 0,0.1589 0.1362,0.230243 0.1362,0.07459 0.96313,0.256187 0.55129,0.129714 0.82693,0.392387 0.2724,0.265915 0.2724,0.664787 0,0.525344 -0.39239,0.85936 -0.38914,0.330772 -1.20634,0.330772 -0.83342,0 -1.23229,-0.35023 -0.39563,-0.353472 -0.39563,-0.898273 z m 0.70694,-2.50025 z m 2.61699,-1.229047 q 0.49291,0.687488 0.7491,1.284175 0.37942,0.875574 0.37942,1.76412 0,0.976102 -0.45076,1.984634 -0.25295,0.564258 -0.4767,0.849631 l -0.23025,0.314558 h -0.68424 q 0.42806,-0.771802 0.59669,-1.264718 0.28861,-0.833417 0.28861,-1.825734 0,-0.635602 -0.10377,-1.173917 -0.1589,-0.820445 -0.5675,-1.569548 l -0.19782,-0.363201 z"
         id="text3"
         aria-label="You may still insert              bill(s)                         coin(s)" />
    </g>
  </g>
</svg>
