<?xml version="1.0" encoding="UTF-8" standalone="no"?>
<!-- Created with Inkscape (http://www.inkscape.org/) -->

<svg
   width="800"
   height="120"
   viewBox="0 0 211.66667 31.75"
   version="1.1"
   id="svg1"
   inkscape:version="1.4.2 (f4327f4, 2025-05-13)"
   sodipodi:docname="tpass_confirm_row.svg"
   xmlns:inkscape="http://www.inkscape.org/namespaces/inkscape"
   xmlns:sodipodi="http://sodipodi.sourceforge.net/DTD/sodipodi-0.dtd"
   xmlns="http://www.w3.org/2000/svg"
   xmlns:svg="http://www.w3.org/2000/svg">
  <sodipodi:namedview
     id="namedview1"
     pagecolor="#7c7c7c"
     bordercolor="#999999"
     borderopacity="1"
     inkscape:showpageshadow="0"
     inkscape:pageopacity="0"
     inkscape:pagecheckerboard="true"
     inkscape:deskcolor="#d1d1d1"
     inkscape:document-units="mm"
     inkscape:zoom="0.71891835"
     inkscape:cx="364.43638"
     inkscape:cy="24.342125"
     inkscape:window-width="1920"
     inkscape:window-height="1009"
     inkscape:window-x="1912"
     inkscape:window-y="-8"
     inkscape:window-maximized="1"
     inkscape:current-layer="layer1" />
  <defs
     id="defs1" />
  <g
     inkscape:label="Layer 1"
     inkscape:groupmode="layer"
     id="layer1">
    <path
       id="rect1"
       style="fill:#f2f2f2;stroke-width:1.0827;paint-order:fill markers stroke"
       d="M 26.130111,3.3122675 H 140.58737 c 6.9322,0 12.51301,5.5808029 12.51301,12.5130115 0,6.932208 -5.58081,12.51301 -12.51301,12.51301 H 26.130111 c -6.932208,0 -12.513011,-5.580802 -12.513011,-12.51301 0,-6.9322086 5.580803,-12.5130115 12.513011,-12.5130115 z" />
    <path
       style="font-weight:500;font-size:9.19699px;line-height:1;font-family:'Noto Sans TC';-inkscape-font-specification:'Noto Sans TC Medium';fill:#282472;stroke-width:0.229924"
       d="m 30.080573,13.263463 h 3.522447 v 0.652986 h -3.522447 z m 0,1.489912 h 3.522447 v 0.652986 h -3.522447 z m -0.0092,1.489912 h 3.890327 v 0.726563 h -3.890327 z m -1.2232,-6.5298626 h 4.975572 v 1.6002766 h -0.781744 v -0.85532 h -3.448872 v 0.873714 h -0.744956 z m 2.740703,2.5935516 h 0.800138 V 16.60197 H 31.588879 Z M 30.36568,11.736762 h 3.356901 v 0.735759 H 30.36568 v 4.874405 h -0.82773 v -4.846814 l 0.744957,-0.76335 z m 0.754153,-2.9522336 0.818532,0.1747428 Q 31.5245,10.43079 30.779544,11.608004 q -0.735759,1.168018 -1.80261,1.922171 -0.04599,-0.09197 -0.137955,-0.229924 -0.08277,-0.147152 -0.18394,-0.285107 -0.09197,-0.147152 -0.174742,-0.229925 0.965684,-0.643789 1.627867,-1.673852 0.67138,-1.030063 1.011669,-2.3268386 z m 0.239121,2.2164746 0.726563,-0.285107 q 0.156349,0.266713 0.3035,0.588608 0.147152,0.321894 0.229925,0.551819 l -0.76335,0.331092 q -0.07358,-0.239122 -0.220728,-0.570214 -0.137955,-0.340288 -0.27591,-0.616198 z M 25.620033,9.4467117 h 3.044203 v 0.7909413 h -3.044203 z m 0.938093,2.7131123 h 2.01414 v 4.037478 h -2.01414 v -0.76335 h 1.259987 v -2.519975 h -1.259987 z m 0.174742,-2.4096116 0.818533,0.1287578 q -0.147152,0.9472898 -0.377077,1.8485948 -0.229925,0.892108 -0.561016,1.673852 -0.321895,0.772548 -0.763351,1.351958 -0.04598,-0.09197 -0.128757,-0.239122 -0.08277,-0.156349 -0.18394,-0.312697 -0.09197,-0.156349 -0.165546,-0.248319 0.36788,-0.496638 0.625395,-1.158821 0.266713,-0.662183 0.441456,-1.43473 0.18394,-0.781745 0.294303,-1.6094736 z m -0.48744,2.4096116 h 0.744956 v 4.73645 H 26.245428 Z M 42.101039,9.152408 h 0.827729 q 0,0 -0.0092,0.064379 0,0.064379 -0.0092,0.1471518 0,0.082773 0,0.1379548 -0.04598,1.1588204 -0.101167,1.8761864 -0.05518,0.708168 -0.137955,1.085244 -0.07358,0.36788 -0.193137,0.524229 -0.128757,0.156349 -0.275909,0.220728 -0.147152,0.05518 -0.349486,0.08277 -0.18394,0.02759 -0.469046,0.02759 -0.285107,-0.0092 -0.597805,-0.01839 -0.0092,-0.165546 -0.07358,-0.377077 -0.05518,-0.220728 -0.156349,-0.377077 0.294304,0.02759 0.542623,0.03679 0.257516,0 0.367879,0 0.110364,0 0.174743,-0.01839 0.06438,-0.01839 0.128758,-0.08277 0.08277,-0.101166 0.137955,-0.432258 0.06438,-0.340289 0.110364,-1.002472 0.05518,-0.662183 0.08277,-1.7474281 z M 40.215656,9.4651057 H 40.9974 q -0.05518,0.6897743 -0.174743,1.3151693 -0.119561,0.625396 -0.377076,1.168018 -0.257516,0.542622 -0.708169,0.984078 -0.441455,0.441455 -1.140426,0.76335 -0.07358,-0.147152 -0.220728,-0.331092 -0.137955,-0.183939 -0.27591,-0.294303 0.643789,-0.266713 1.03926,-0.64379 0.395471,-0.377076 0.607001,-0.836926 0.220728,-0.469046 0.321895,-1.002472 0.110364,-0.542622 0.147152,-1.1220323 z M 38.330273,9.152408 h 4.055872 v 0.7357592 h -4.055872 z m 0.744956,4.883602 h 0.754153 v 2.142898 q 0,0.174743 0.06438,0.229925 0.06438,0.05518 0.294304,0.05518 0.05518,0 0.174743,0 0.128758,0 0.275909,0 0.156349,0 0.285107,0 0.137955,0 0.211531,0 0.137955,0 0.211531,-0.08277 0.07358,-0.08277 0.101167,-0.331091 0.03679,-0.257516 0.04598,-0.772548 0.128758,0.08277 0.321895,0.165546 0.202334,0.08277 0.358683,0.119561 -0.04599,0.634592 -0.137955,0.984078 -0.09197,0.340289 -0.285107,0.469046 -0.193137,0.137955 -0.542622,0.137955 -0.06438,0 -0.229925,0 -0.156349,0 -0.340289,0 -0.174742,0 -0.331091,0 -0.156349,0 -0.220728,0 -0.404668,0 -0.625395,-0.09197 -0.211531,-0.08277 -0.303501,-0.294303 -0.08277,-0.211531 -0.08277,-0.588608 z m -0.772547,0.18394 0.616198,0.183939 q -0.05518,0.340289 -0.137955,0.726563 -0.08277,0.377076 -0.202333,0.735759 -0.110364,0.349485 -0.266713,0.607001 l -0.616198,-0.266713 q 0.156348,-0.257515 0.266712,-0.588607 0.119561,-0.331092 0.202334,-0.698971 0.09197,-0.36788 0.137955,-0.698971 z m 1.545094,-0.570214 0.524229,-0.331091 q 0.285106,0.312697 0.570213,0.689774 0.294304,0.377076 0.441456,0.652986 l -0.55182,0.395471 q -0.147152,-0.285107 -0.432258,-0.680578 -0.27591,-0.404667 -0.55182,-0.726562 z m 2.041732,0.404668 0.597804,-0.211531 q 0.174743,0.303501 0.331092,0.662183 0.165546,0.358683 0.294304,0.689774 0.128758,0.331092 0.193136,0.588608 l -0.662183,0.248319 q -0.05518,-0.257516 -0.174743,-0.588608 -0.110363,-0.340288 -0.266712,-0.698971 -0.147152,-0.36788 -0.312698,-0.689774 z m -3.559235,-3.467266 0.459849,-0.478243 q 0.248319,0.193137 0.533426,0.432259 0.285107,0.239121 0.542622,0.459849 0.266713,0.220728 0.423062,0.386274 l -0.478244,0.542622 Q 39.654639,11.755156 39.397124,11.516034 39.139608,11.276913 38.854501,11.037791 38.578592,10.789472 38.330273,10.587138 Z M 35.598767,9.0972261 36.334526,8.8305134 q 0.174743,0.2943037 0.331092,0.6437893 0.165546,0.3402886 0.257515,0.5886073 l -0.772547,0.303501 Q 36.07701,10.108895 35.911465,9.7502124 35.755116,9.3915298 35.598767,9.0972261 Z m -0.652986,2.5107779 h 2.823476 v 0.671381 h -2.823476 z m 0,1.241594 h 2.823476 v 0.67138 H 34.945781 Z M 34.688265,10.33882 h 3.292522 v 0.698971 h -3.292522 z m 0.643789,3.770766 h 2.400415 v 2.731506 H 35.332054 V 16.14212 h 1.664655 v -1.333563 h -1.664655 z m -0.39547,0 h 0.726562 v 3.126976 h -0.726562 z m 9.417717,-2.510779 h 2.768294 v 0.680578 h -2.768294 z m 0,1.232397 h 2.786688 v 0.67138 h -2.786688 z m -0.39547,-2.47399 h 3.550038 v 0.698971 h -3.550038 z m 0.772547,3.715584 h 2.391217 v 2.740703 h -2.391217 v -0.717366 h 1.637064 v -1.315169 h -1.637064 z m -0.377077,0 h 0.744957 v 3.154567 h -0.744957 z m 0.579411,-4.9663749 0.67138,-0.3402887 q 0.202334,0.2851067 0.395471,0.6253954 0.193136,0.3310916 0.3035,0.5886073 L 45.605092,10.366411 Q 45.494728,10.118092 45.301591,9.7594094 45.117652,9.3915298 44.933712,9.1064231 Z m 3.458068,0.018394 h 2.409611 V 9.9341522 H 48.39178 Z m -1.002472,3.7155839 h 4.046676 v 0.818532 h -4.046676 z m 3.743175,0 h 0.165546 l 0.147152,-0.02759 0.542622,0.229925 q -0.257516,0.901305 -0.698971,1.609473 -0.441456,0.698971 -1.030063,1.2232 -0.57941,0.524228 -1.287579,0.882911 -0.698971,0.358682 -1.489912,0.588607 -0.03679,-0.119561 -0.110364,-0.266713 -0.07358,-0.147151 -0.165546,-0.285106 -0.08277,-0.137955 -0.165546,-0.229925 0.717366,-0.165546 1.361155,-0.469047 0.643789,-0.312697 1.186412,-0.76335 0.542622,-0.450652 0.938093,-1.03926 0.39547,-0.588607 0.607001,-1.315169 z m -2.667127,0.726562 q 0.340289,0.744956 0.910502,1.342761 0.57941,0.588607 1.361154,1.002472 0.790942,0.413864 1.747429,0.616198 -0.09197,0.09197 -0.193137,0.229925 -0.101167,0.147152 -0.193137,0.294303 -0.09197,0.147152 -0.156349,0.266713 Q 50.442709,16.942259 49.385055,16.050151 48.336598,15.158043 47.7204,13.824479 Z M 48.226234,9.1248171 h 0.800138 V 10.15488 q 0,0.432258 -0.110364,0.892108 -0.101166,0.450652 -0.39547,0.873714 -0.294304,0.423062 -0.864517,0.744956 -0.05518,-0.09197 -0.165546,-0.211531 -0.101167,-0.128757 -0.211531,-0.248318 -0.110364,-0.119561 -0.18394,-0.174743 0.496638,-0.27591 0.73576,-0.588607 0.248318,-0.321895 0.321894,-0.652987 0.07358,-0.340288 0.07358,-0.652986 z m 2.152096,0 h 0.800138 v 2.0877169 q 0,0.193137 0.01839,0.275909 0.02759,0.08277 0.119561,0.08277 0.04599,0 0.137955,0 0.101167,0 0.193136,0 0.101167,0 0.137955,0 0.09197,0 0.211531,-0.0092 0.128758,-0.01839 0.211531,-0.04598 0.01839,0.165546 0.02759,0.377077 0.0092,0.211531 0.03679,0.358683 -0.08277,0.03679 -0.211531,0.04598 -0.128758,0.0092 -0.266713,0.0092 -0.05518,0 -0.165546,0 -0.110363,0 -0.220727,0 -0.110364,0 -0.165546,0 -0.36788,0 -0.55182,-0.110364 -0.183939,-0.110364 -0.248318,-0.349486 -0.06438,-0.248319 -0.06438,-0.652986 z m 4.368569,2.5199749 h 5.251481 v 0.827729 h -5.251481 z m 2.611945,2.161293 h 3.099386 v 0.818532 H 57.358844 Z M 56.898995,12.067854 H 57.8003 v 4.561707 L 56.898995,16.51 Z m -2.161293,1.020866 0.882911,0.08277 q -0.193137,1.397942 -0.634592,2.455596 -0.441456,1.057654 -1.232397,1.738231 -0.06438,-0.07358 -0.193137,-0.193137 -0.128757,-0.110364 -0.266712,-0.220727 -0.137955,-0.101167 -0.239122,-0.165546 0.76335,-0.579411 1.149624,-1.526701 0.39547,-0.94729 0.533425,-2.170489 z m 0.634592,1.15882 q 0.229925,0.671381 0.588608,1.085245 0.367879,0.413865 0.85532,0.634593 0.48744,0.21153 1.066851,0.294303 0.57941,0.07358 1.241593,0.07358 0.119561,0 0.358683,0 0.248319,0 0.542622,0 0.303501,0 0.607002,0 0.312697,0 0.570213,0 0.266713,-0.0092 0.423062,-0.0092 -0.06438,0.101167 -0.137955,0.257516 -0.06438,0.156349 -0.110364,0.321895 -0.04599,0.174742 -0.07358,0.3035 h -0.45985 -1.765822 q -0.809335,0 -1.499109,-0.110364 -0.680577,-0.110363 -1.232397,-0.39547 -0.542622,-0.285107 -0.974881,-0.818532 -0.423061,-0.533426 -0.717365,-1.388746 z M 53.468518,9.8145913 h 7.780653 V 11.966687 H 60.357063 V 10.64232 h -6.033225 v 1.324367 h -0.85532 z m 3.136173,-0.8369261 0.864517,-0.2483187 q 0.165546,0.2759097 0.321895,0.6161983 0.156349,0.3310917 0.220728,0.5794104 L 57.101329,10.200865 Q 57.046147,9.9617431 56.908192,9.6122575 56.770237,9.2627719 56.604691,8.9776652 Z"
       id="text1"
       aria-label="確認設定" />
    <path
       style="font-weight:bold;font-size:4.31622px;line-height:1;font-family:Helvetica;-inkscape-font-specification:'Helvetica Bold';fill:#282472;stroke-width:0.107905"
       d="m 25.602115,21.238618 q 0,-0.813506 0.436258,-1.25398 0.379356,-0.38357 0.965249,-0.38357 0.784001,0 1.146496,0.514237 0.200215,0.288732 0.214968,0.579571 h -0.649119 q -0.06323,-0.223399 -0.16228,-0.337205 -0.177033,-0.202323 -0.524775,-0.202323 -0.354065,0 -0.558495,0.286624 -0.20443,0.284516 -0.20443,0.807184 0,0.522667 0.214968,0.784001 0.217075,0.259226 0.550065,0.259226 0.341419,0 0.520559,-0.223398 0.09905,-0.12013 0.164388,-0.360388 h 0.642796 q -0.0843,0.507915 -0.432043,0.826152 -0.345635,0.318236 -0.88727,0.318236 -0.670194,0 -1.053765,-0.429935 -0.38357,-0.432044 -0.38357,-1.184432 z m 1.382539,-1.673378 z m 2.851487,2.777723 q 0.263441,0 0.404646,-0.18757 0.141204,-0.18757 0.141204,-0.533205 0,-0.345634 -0.141204,-0.531097 -0.141205,-0.18757 -0.404646,-0.18757 -0.263441,0 -0.406753,0.18757 -0.141205,0.185463 -0.141205,0.531097 0,0.345635 0.141205,0.533205 0.143312,0.18757 0.406753,0.18757 z m 1.176001,-0.720775 q 0,0.505807 -0.290839,0.866195 -0.290839,0.35828 -0.883054,0.35828 -0.592216,0 -0.883055,-0.35828 -0.290839,-0.360388 -0.290839,-0.866195 0,-0.497376 0.290839,-0.861979 0.290839,-0.364603 0.883055,-0.364603 0.592215,0 0.883054,0.364603 0.290839,0.364603 0.290839,0.861979 z m -1.173893,-1.213936 z m 2.876777,0.0063 q 0.356172,0 0.581678,0.18757 0.227613,0.185463 0.227613,0.617506 v 1.546927 h -0.615399 v -1.397292 q 0,-0.181248 -0.04847,-0.278194 -0.08852,-0.177032 -0.337205,-0.177032 -0.305591,0 -0.419398,0.259226 -0.05901,0.136989 -0.05901,0.34985 v 1.243442 h -0.598538 v -2.292992 h 0.579571 v 0.335097 q 0.115914,-0.177032 0.219183,-0.255011 0.185462,-0.139097 0.469979,-0.139097 z m -0.221291,-0.0063 z m 3.047488,-0.767141 h 0.588 v 0.547958 h -0.588 z m 0,0.838797 h 0.598538 v 2.286669 h -0.598538 z m -0.600646,-0.851442 q 0.0548,0 0.111699,0.0042 0.0569,0.0042 0.118021,0.0084 v 0.488947 q -0.04215,-0.0021 -0.08219,-0.0021 -0.04004,-0.0021 -0.09695,-0.0021 -0.141205,0 -0.172818,0.07798 -0.03161,0.07798 -0.0274,0.244474 v 0.04215 h 0.394108 v 0.423614 h -0.394108 v 1.852518 h -0.598538 v -1.852518 h -0.335097 v -0.423614 h 0.328774 v -0.147527 q 0,-0.36671 0.16228,-0.54585 0.14542,-0.168602 0.592216,-0.168602 z m 3.022196,0.786108 q 0.01686,0 0.0274,0.0021 0.01265,0 0.05269,0.0021 v 0.615399 q -0.0569,-0.0063 -0.101161,-0.0084 -0.04426,-0.0021 -0.07166,-0.0021 -0.362495,0 -0.486839,0.236043 -0.06955,0.132775 -0.06955,0.408861 v 1.098023 H 36.708793 V 20.46937 h 0.573248 v 0.40043 q 0.139097,-0.22972 0.242366,-0.314021 0.168602,-0.141205 0.438366,-0.141205 z m 2.999014,0.0042 q 0.151742,0 0.299269,0.05901 0.147527,0.05901 0.267657,0.206538 0.09695,0.120129 0.130666,0.295054 0.02108,0.115914 0.02108,0.339312 l -0.0042,1.447873 h -0.615399 v -1.462625 q 0,-0.130667 -0.04215,-0.214968 -0.08009,-0.160173 -0.295055,-0.160173 -0.248688,0 -0.343527,0.206538 -0.04847,0.109592 -0.04847,0.263441 v 1.367787 H 39.726775 V 21.39879 q 0,-0.20443 -0.04215,-0.297161 -0.07587,-0.166495 -0.297162,-0.166495 -0.257119,0 -0.345635,0.166495 -0.04847,0.09484 -0.04847,0.282409 v 1.382539 h -0.609076 v -2.292992 h 0.583786 v 0.335097 q 0.111699,-0.17914 0.210753,-0.255011 0.174924,-0.134882 0.453118,-0.134882 0.263441,0 0.425721,0.115914 0.130667,0.107484 0.198108,0.276087 0.118022,-0.202323 0.292947,-0.297162 0.185462,-0.09484 0.413075,-0.09484 z m 3.73665,1.230797 q -0.0569,0.03583 -0.115914,0.05901 -0.0569,0.02107 -0.158065,0.04004 l -0.134882,0.02529 q -0.189678,0.03372 -0.271871,0.08219 -0.139097,0.08219 -0.139097,0.255011 0,0.15385 0.0843,0.223398 0.08641,0.06744 0.208645,0.06744 0.193893,0 0.356173,-0.113806 0.164387,-0.113807 0.17071,-0.415184 z m -0.364603,-0.280301 q 0.166495,-0.02107 0.238151,-0.05269 0.128559,-0.0548 0.128559,-0.17071 0,-0.141205 -0.09905,-0.193893 -0.09695,-0.0548 -0.286624,-0.0548 -0.21286,0 -0.301376,0.105377 -0.06323,0.07798 -0.0843,0.210753 h -0.579571 q 0.01897,-0.301377 0.168602,-0.49527 0.238151,-0.303484 0.817722,-0.303484 0.377247,0 0.670194,0.149635 0.292946,0.149634 0.292946,0.564818 v 1.053764 q 0,0.109592 0.0042,0.265549 0.0063,0.118021 0.03583,0.160172 0.02951,0.04215 0.08852,0.06955 v 0.08852 h -0.653334 q -0.0274,-0.06955 -0.03794,-0.130667 -0.01054,-0.06112 -0.01686,-0.139097 -0.124344,0.134882 -0.286624,0.229721 -0.193893,0.111699 -0.438366,0.111699 -0.311914,0 -0.516345,-0.177033 -0.202323,-0.17914 -0.202323,-0.505807 0,-0.423613 0.326667,-0.613291 0.17914,-0.103269 0.526883,-0.147527 z m 0.03161,-0.961033 z m 2.739789,0.0063 q 0.356172,0 0.581678,0.18757 0.227613,0.185463 0.227613,0.617506 v 1.546927 h -0.615399 v -1.397292 q 0,-0.181248 -0.04847,-0.278194 -0.08852,-0.177032 -0.337204,-0.177032 -0.305592,0 -0.419399,0.259226 -0.05901,0.136989 -0.05901,0.34985 v 1.243442 h -0.598538 v -2.292992 h 0.579571 v 0.335097 q 0.115914,-0.177032 0.219183,-0.255011 0.185462,-0.139097 0.469979,-0.139097 z m -0.221291,-0.0063 z m 2.432088,0.0063 q 0.208646,0 0.370925,0.09273 0.16228,0.09062 0.263442,0.252904 v -1.095915 h 0.609076 v 3.102283 H 49.97569 V 22.44834 q -0.128559,0.20443 -0.292947,0.297161 -0.164387,0.09273 -0.40886,0.09273 -0.402538,0 -0.678625,-0.32456 -0.273978,-0.326667 -0.273978,-0.836689 0,-0.588 0.269763,-0.925205 0.271872,-0.337205 0.72499,-0.337205 z m 0.130667,1.917852 q 0.255011,0 0.387785,-0.189678 0.132775,-0.189678 0.132775,-0.491054 0,-0.421506 -0.212861,-0.602754 -0.130666,-0.109591 -0.303484,-0.109591 -0.263441,0 -0.387785,0.200215 -0.122237,0.198108 -0.122237,0.493162 0,0.318237 0.124344,0.510022 0.126452,0.189678 0.381463,0.189678 z m 4.440564,-0.714453 q 0,-0.265548 -0.122237,-0.469979 -0.120129,-0.20443 -0.392,-0.20443 -0.326667,0 -0.448904,0.309807 -0.06323,0.164387 -0.06323,0.417291 0,0.40043 0.212861,0.56271 0.126451,0.09484 0.299269,0.09484 0.250796,0 0.381463,-0.193893 0.132774,-0.193893 0.132774,-0.516345 z m -0.34142,-1.199184 q 0.402538,0 0.680732,0.297162 0.280301,0.297161 0.280301,0.872517 0,0.606968 -0.273978,0.925205 -0.271872,0.318237 -0.701808,0.318237 -0.273978,0 -0.455226,-0.136989 -0.09905,-0.07587 -0.193893,-0.221291 v 1.197077 H 52.287649 V 20.46937 h 0.575356 v 0.339312 q 0.09695,-0.149634 0.206538,-0.236043 0.200215,-0.15385 0.476301,-0.15385 z m 2.642841,-0.0042 q 0.01686,0 0.0274,0.0021 0.01264,0 0.05269,0.0021 v 0.615399 q -0.0569,-0.0063 -0.101161,-0.0084 -0.04426,-0.0021 -0.07166,-0.0021 -0.362495,0 -0.486839,0.236043 -0.06955,0.132775 -0.06955,0.408861 v 1.098023 H 54.934705 V 20.46937 h 0.573248 v 0.40043 q 0.139097,-0.22972 0.242366,-0.314021 0.168602,-0.141205 0.438366,-0.141205 z m 1.462626,1.928389 q 0.263441,0 0.404645,-0.18757 0.141205,-0.18757 0.141205,-0.533205 0,-0.345634 -0.141205,-0.531097 -0.141204,-0.18757 -0.404645,-0.18757 -0.263442,0 -0.406754,0.18757 -0.141204,0.185463 -0.141204,0.531097 0,0.345635 0.141204,0.533205 0.143312,0.18757 0.406754,0.18757 z m 1.176001,-0.720775 q 0,0.505807 -0.290839,0.866195 -0.290839,0.35828 -0.883055,0.35828 -0.592216,0 -0.883055,-0.35828 -0.290839,-0.360388 -0.290839,-0.866195 0,-0.497376 0.290839,-0.861979 0.290839,-0.364603 0.883055,-0.364603 0.592216,0 0.883055,0.364603 0.290839,0.364603 0.290839,0.861979 z m -1.173894,-1.213936 z m 2.975833,0.885162 q -0.01686,-0.128559 -0.08641,-0.231828 -0.101161,-0.139097 -0.314022,-0.139097 -0.303484,0 -0.415183,0.301376 -0.05901,0.160173 -0.05901,0.425721 0,0.252904 0.05901,0.406753 0.107484,0.286624 0.404645,0.286624 0.210753,0 0.29927,-0.113806 0.08852,-0.113807 0.107484,-0.295054 h 0.613291 q -0.02108,0.273979 -0.198108,0.518452 -0.282409,0.394108 -0.836689,0.394108 -0.55428,0 -0.815614,-0.328775 -0.261334,-0.328774 -0.261334,-0.853549 0,-0.592216 0.288732,-0.92099 0.288731,-0.328775 0.796646,-0.328775 0.432043,0 0.706022,0.193893 0.276087,0.193893 0.326667,0.684947 z m -0.406753,-0.885162 z m 2.341463,0.495269 q -0.208645,0 -0.324559,0.130667 -0.113807,0.130667 -0.143312,0.354065 h 0.933635 q -0.01475,-0.238151 -0.145419,-0.360388 -0.12856,-0.124344 -0.320345,-0.124344 z m 0,-0.495269 q 0.286624,0 0.516345,0.107484 0.229721,0.107484 0.379355,0.339312 0.134882,0.20443 0.174925,0.474194 0.02318,0.158065 0.01897,0.455226 h -1.572217 q 0.01264,0.345635 0.217076,0.484732 0.124344,0.08641 0.299269,0.08641 0.185462,0 0.301376,-0.105377 0.06323,-0.0569 0.111699,-0.158065 h 0.613291 q -0.02318,0.204431 -0.21286,0.415184 -0.295054,0.335097 -0.826151,0.335097 -0.438367,0 -0.773464,-0.282409 -0.335097,-0.282409 -0.335097,-0.918883 0,-0.596431 0.301377,-0.914668 0.303484,-0.318236 0.786108,-0.318236 z m 0.04215,0 z m 2.358324,0.495269 q -0.208646,0 -0.32456,0.130667 -0.113806,0.130667 -0.143312,0.354065 H 65.4302 q -0.01475,-0.238151 -0.14542,-0.360388 -0.128559,-0.124344 -0.320344,-0.124344 z m 0,-0.495269 q 0.286624,0 0.516344,0.107484 0.229721,0.107484 0.379356,0.339312 0.134882,0.20443 0.174925,0.474194 0.02318,0.158065 0.01897,0.455226 h -1.572216 q 0.01264,0.345635 0.217075,0.484732 0.124344,0.08641 0.299269,0.08641 0.185463,0 0.301377,-0.105377 0.06323,-0.0569 0.111699,-0.158065 h 0.613291 q -0.02318,0.204431 -0.21286,0.415184 -0.295055,0.335097 -0.826152,0.335097 -0.438366,0 -0.773463,-0.282409 -0.335097,-0.282409 -0.335097,-0.918883 0,-0.596431 0.301376,-0.914668 0.303485,-0.318236 0.786109,-0.318236 z m 0.04215,0 z m 2.299317,0.0063 q 0.208646,0 0.370926,0.09273 0.162279,0.09062 0.263441,0.252904 v -1.095915 h 0.609076 v 3.102283 H 67.96556 V 22.44834 q -0.128559,0.20443 -0.292947,0.297161 -0.164387,0.09273 -0.40886,0.09273 -0.402538,0 -0.678625,-0.32456 -0.273978,-0.326667 -0.273978,-0.836689 0,-0.588 0.269763,-0.925205 0.271872,-0.337205 0.72499,-0.337205 z m 0.130667,1.917852 q 0.255011,0 0.387786,-0.189678 0.132774,-0.189678 0.132774,-0.491054 0,-0.421506 -0.212861,-0.602754 -0.130666,-0.109591 -0.303484,-0.109591 -0.263441,0 -0.387785,0.200215 -0.122237,0.198108 -0.122237,0.493162 0,0.318237 0.124344,0.510022 0.126452,0.189678 0.381463,0.189678 z m 2.621764,-1.414152 v -0.427829 h 0.320345 v -0.640689 h 0.594323 v 0.640689 h 0.373033 v 0.427829 h -0.373033 v 1.213936 q 0,0.141205 0.03583,0.177033 0.03583,0.03372 0.219183,0.03372 0.0274,0 0.0569,0 0.03161,-0.0021 0.06112,-0.0042 v 0.448904 l -0.284517,0.01054 q -0.425721,0.01475 -0.581678,-0.147527 -0.101161,-0.103269 -0.101161,-0.318237 v -1.414152 z m 2.703961,1.424689 q 0.263442,0 0.404646,-0.18757 0.141204,-0.18757 0.141204,-0.533205 0,-0.345634 -0.141204,-0.531097 -0.141204,-0.18757 -0.404646,-0.18757 -0.263441,0 -0.406753,0.18757 -0.141204,0.185463 -0.141204,0.531097 0,0.345635 0.141204,0.533205 0.143312,0.18757 0.406753,0.18757 z m 1.176002,-0.720775 q 0,0.505807 -0.290839,0.866195 -0.290839,0.35828 -0.883055,0.35828 -0.592216,0 -0.883055,-0.35828 -0.290839,-0.360388 -0.290839,-0.866195 0,-0.497376 0.290839,-0.861979 0.290839,-0.364603 0.883055,-0.364603 0.592216,0 0.883055,0.364603 0.290839,0.364603 0.290839,0.861979 z m -1.173894,-1.213936 z m 3.270883,1.624905 q 0.01897,0.160172 0.08219,0.227613 0.111699,0.120129 0.413075,0.120129 0.177033,0 0.280302,-0.05269 0.105376,-0.05269 0.105376,-0.158065 0,-0.101161 -0.0843,-0.15385 -0.0843,-0.05269 -0.625936,-0.181247 -0.389893,-0.09695 -0.550065,-0.242366 -0.160172,-0.143312 -0.160172,-0.413076 0,-0.318237 0.248688,-0.54585 0.250796,-0.22972 0.703915,-0.22972 0.429936,0 0.699699,0.172817 0.271872,0.17071 0.311915,0.592216 H 76.85933 q -0.01265,-0.115914 -0.06533,-0.183355 -0.09905,-0.122237 -0.337205,-0.122237 -0.196,0 -0.280301,0.06112 -0.08219,0.06112 -0.08219,0.143312 0,0.103269 0.08852,0.149635 0.08852,0.04847 0.625936,0.166495 0.35828,0.0843 0.53742,0.255011 0.177033,0.172817 0.177033,0.432043 0,0.34142 -0.255011,0.558495 -0.252904,0.214968 -0.784001,0.214968 -0.541635,0 -0.800861,-0.227613 -0.257119,-0.22972 -0.257119,-0.583785 z m 0.459441,-1.624905 z m 2.379403,0.495269 q -0.208645,0 -0.324559,0.130667 -0.113807,0.130667 -0.143312,0.354065 h 0.933635 q -0.01475,-0.238151 -0.145419,-0.360388 -0.128559,-0.124344 -0.320345,-0.124344 z m 0,-0.495269 q 0.286624,0 0.516345,0.107484 0.229721,0.107484 0.379355,0.339312 0.134882,0.20443 0.174925,0.474194 0.02318,0.158065 0.01897,0.455226 h -1.572217 q 0.01264,0.345635 0.217076,0.484732 0.124344,0.08641 0.299269,0.08641 0.185463,0 0.301377,-0.105377 0.06323,-0.0569 0.111699,-0.158065 h 0.613291 q -0.02318,0.204431 -0.212861,0.415184 -0.295054,0.335097 -0.826151,0.335097 -0.438366,0 -0.773463,-0.282409 -0.335098,-0.282409 -0.335098,-0.918883 0,-0.596431 0.301377,-0.914668 0.303484,-0.318236 0.786108,-0.318236 z m 0.04215,0 z m 1.216043,0.510022 v -0.427829 h 0.320345 v -0.640689 h 0.594323 v 0.640689 h 0.373033 v 0.427829 h -0.373033 v 1.213936 q 0,0.141205 0.03583,0.177033 0.03583,0.03372 0.219183,0.03372 0.0274,0 0.0569,0 0.03161,-0.0021 0.06112,-0.0042 v 0.448904 l -0.284517,0.01054 q -0.425721,0.01475 -0.581678,-0.147527 -0.101161,-0.103269 -0.101161,-0.318237 v -1.414152 z m 1.437336,0 v -0.427829 h 0.320345 v -0.640689 h 0.594323 v 0.640689 h 0.373033 v 0.427829 h -0.373033 v 1.213936 q 0,0.141205 0.03583,0.177033 0.03583,0.03372 0.219183,0.03372 0.0274,0 0.0569,0 0.03161,-0.0021 0.06112,-0.0042 v 0.448904 l -0.284517,0.01054 q -0.425721,0.01475 -0.581678,-0.147527 -0.101161,-0.103269 -0.101161,-0.318237 v -1.414152 z m 2.290882,-0.722883 h -0.609076 v -0.55428 h 0.609076 z m -0.609076,0.273979 h 0.609076 v 2.297207 h -0.609076 z m 2.463702,-0.0548 q 0.356172,0 0.581678,0.18757 0.227613,0.185463 0.227613,0.617506 v 1.546927 H 85.90906 v -1.397292 q 0,-0.181248 -0.04847,-0.278194 -0.08852,-0.177032 -0.337204,-0.177032 -0.305592,0 -0.419399,0.259226 -0.05901,0.136989 -0.05901,0.34985 v 1.243442 h -0.598538 v -2.292992 h 0.579571 v 0.335097 q 0.115914,-0.177032 0.219183,-0.255011 0.185462,-0.139097 0.469979,-0.139097 z m -0.221291,-0.0063 z m 2.571187,1.865163 q 0.210753,0 0.356173,-0.158065 0.145419,-0.160172 0.145419,-0.507914 0,-0.326667 -0.139097,-0.497377 -0.136989,-0.17071 -0.368818,-0.17071 -0.316129,0 -0.436258,0.297162 -0.06323,0.158064 -0.06323,0.389892 0,0.200216 0.06744,0.356173 0.122237,0.290839 0.438366,0.290839 z M 87.91543,20.414574 q 0.172817,0 0.301376,0.05269 0.219183,0.09062 0.354065,0.33299 V 20.46937 h 0.583786 v 2.179185 q 0,0.444689 -0.149635,0.670194 -0.257118,0.387786 -0.986324,0.387786 -0.440473,0 -0.718667,-0.172818 -0.278194,-0.172817 -0.307699,-0.516344 h 0.653334 q 0.02529,0.105376 0.08219,0.151742 0.09695,0.08219 0.326667,0.08219 0.32456,0 0.434151,-0.217075 0.07166,-0.139097 0.07166,-0.467872 v -0.147527 q -0.08641,0.147527 -0.185462,0.221291 -0.17914,0.136989 -0.465764,0.136989 -0.442581,0 -0.70813,-0.309806 -0.263441,-0.311915 -0.263441,-0.843012 0,-0.51213 0.255011,-0.859872 0.255011,-0.34985 0.722883,-0.34985 z m 0.191785,-0.0063 z m 2.075913,1.624905 q 0.01897,0.160172 0.08219,0.227613 0.111699,0.120129 0.413076,0.120129 0.177032,0 0.280301,-0.05269 0.105377,-0.05269 0.105377,-0.158065 0,-0.101161 -0.0843,-0.15385 -0.0843,-0.05269 -0.625937,-0.181247 -0.389893,-0.09695 -0.550065,-0.242366 -0.160172,-0.143312 -0.160172,-0.413076 0,-0.318237 0.248688,-0.54585 0.250796,-0.22972 0.703915,-0.22972 0.429936,0 0.6997,0.172817 0.271871,0.17071 0.311914,0.592216 h -0.600646 q -0.01264,-0.115914 -0.06533,-0.183355 -0.09905,-0.122237 -0.337205,-0.122237 -0.196,0 -0.280301,0.06112 -0.08219,0.06112 -0.08219,0.143312 0,0.103269 0.08852,0.149635 0.08852,0.04847 0.625936,0.166495 0.35828,0.0843 0.53742,0.255011 0.177032,0.172817 0.177032,0.432043 0,0.34142 -0.255011,0.558495 -0.252903,0.214968 -0.784001,0.214968 -0.541635,0 -0.800861,-0.227613 -0.257118,-0.22972 -0.257118,-0.583785 z m 0.459442,-1.624905 z"
       id="text1-8"
       aria-label="Confirm and proceed to settings" />
  </g>
</svg>
