<?xml version="1.0" encoding="UTF-8" standalone="no"?>
<!-- Created with Inkscape (http://www.inkscape.org/) -->

<svg
   width="1600"
   height="400"
   viewBox="0 0 423.33334 105.83333"
   version="1.1"
   id="svg1"
   xml:space="preserve"
   inkscape:version="1.4.2 (f4327f4, 2025-05-13)"
   sodipodi:docname="tpass_rem.svg"
   xmlns:inkscape="http://www.inkscape.org/namespaces/inkscape"
   xmlns:sodipodi="http://sodipodi.sourceforge.net/DTD/sodipodi-0.dtd"
   xmlns="http://www.w3.org/2000/svg"
   xmlns:svg="http://www.w3.org/2000/svg"><sodipodi:namedview
     id="namedview1"
     pagecolor="#ffffff"
     bordercolor="#999999"
     borderopacity="1"
     inkscape:showpageshadow="0"
     inkscape:pageopacity="0"
     inkscape:pagecheckerboard="true"
     inkscape:deskcolor="#d1d1d1"
     inkscape:document-units="mm"
     inkscape:zoom="0.50835205"
     inkscape:cx="800.62626"
     inkscape:cy="292.12039"
     inkscape:window-width="1920"
     inkscape:window-height="1009"
     inkscape:window-x="1912"
     inkscape:window-y="-8"
     inkscape:window-maximized="1"
     inkscape:current-layer="layer1" /><defs
     id="defs1"><pattern
       id="EMFhbasepattern"
       patternUnits="userSpaceOnUse"
       width="6"
       height="6"
       x="0"
       y="0" /><rect
       x="8.3979025"
       y="14.69633"
       width="83.979027"
       height="96.225967"
       id="rect1" /><mask
       maskUnits="userSpaceOnUse"
       id="mask4"><rect
         style="fill:#ffffff;stroke-width:0.865;paint-order:fill markers stroke"
         id="rect5"
         width="140.24425"
         height="76.681931"
         x="271.17908"
         y="22.218187"
         ry="4.94449" /></mask></defs><g
     inkscape:label="Layer 1"
     inkscape:groupmode="layer"
     id="layer1"><path
       style="font-weight:500;font-size:16.2608px;line-height:1;font-family:'Noto Sans TC';-inkscape-font-specification:'Noto Sans TC Medium';fill:#ff0000;stroke-width:0.277878"
       d="m 24.056928,87.758523 h 5.879865 v 0.755824 h -5.879865 z m -0.222302,2.656499 h 6.335583 v 0.766939 h -6.335583 z m -0.04446,4.145915 h 6.413388 v 0.76694 H 23.790166 Z M 24.334803,89.0701 h 5.424149 v 0.744709 h -5.424149 z m 1.011471,-2.234127 h 0.933665 v 3.912501 h -0.933665 z m 2.367507,0 h 0.933665 v 3.912501 H 27.71378 Z m -1.189311,3.923616 h 0.92255 v 4.023652 h -0.92255 z m 2.111861,0.967009 h 0.955896 v 4.412676 q 0,0.355687 -0.08892,0.555757 -0.08892,0.200067 -0.333452,0.311217 -0.244531,0.10004 -0.644673,0.12228 -0.400143,0.0222 -0.978126,0.0222 -0.03334,-0.18896 -0.11115,-0.433487 -0.0778,-0.24454 -0.166726,-0.422367 0.389027,0.0111 0.722479,0.0111 0.344567,0.0111 0.444602,0 0.11115,0 0.155611,-0.0444 0.04446,-0.0334 0.04446,-0.13339 z m -4.190377,0 h 4.601634 v 0.766939 h -3.656854 v 4.668331 h -0.94478 z m 0.489064,1.444957 h 4.101456 v 0.67802 h -4.101456 z m -4.012537,1.33381 0.92255,0.211183 q -0.200071,0.700249 -0.544638,1.356036 -0.344566,0.655787 -0.722479,1.100404 -0.08892,-0.0778 -0.24453,-0.18896 -0.144497,-0.10004 -0.300107,-0.200077 -0.144495,-0.0889 -0.255646,-0.15561 0.377911,-0.400147 0.678018,-0.967014 0.300107,-0.566866 0.466832,-1.155962 z m 1.356037,0.333449 0.778054,-0.344564 q 0.277877,0.411258 0.544638,0.911427 0.277877,0.489067 0.400142,0.844747 l -0.822515,0.400147 q -0.0778,-0.24454 -0.222301,-0.555747 -0.144495,-0.32234 -0.322336,-0.644687 -0.177841,-0.333446 -0.355682,-0.611323 z m -1.000355,-4.679439 v 1.256002 h 1.422727 v -1.256002 z m 0,2.056286 v 1.278229 h 1.422727 v -1.278229 z m 0,-4.112571 v 1.256002 H 22.70089 V 88.10309 Z m -0.90032,-0.85586 h 3.256712 v 7.091411 h -3.256712 z m 17.461756,0.87809 v 0.98924 h 1.700603 v -0.98924 z m -2.534234,0 v 0.98924 h 1.645032 v -0.98924 z m -2.478657,0 v 0.98924 h 1.600568 v -0.98924 z m -0.978125,-0.800284 h 8.70309 v 2.600923 h -8.703089 z m 1.689488,5.212962 v 0.711366 h 5.301883 v -0.711366 z m 0,1.367149 v 0.722484 h 5.301883 v -0.722484 z m 0,-2.723186 v 0.700248 h 5.301883 v -0.700248 z m -1.05593,-0.700248 h 7.447087 v 4.835054 h -7.447089 z m 4.479368,5.424151 0.822515,-0.555757 q 0.633557,0.18896 1.278231,0.422377 0.644673,0.22229 1.222657,0.4446 0.589098,0.222297 1.000354,0.411257 l -1.12262,0.544647 q -0.355682,-0.18896 -0.866975,-0.411267 -0.511292,-0.21119 -1.111506,-0.4446 -0.600213,-0.222297 -1.222656,-0.411257 z m -2.556463,-0.566867 0.96701,0.433487 q -0.455718,0.27788 -1.055931,0.544637 -0.600213,0.26676 -1.244886,0.48906 -0.633559,0.222307 -1.211541,0.389027 -0.0778,-0.11115 -0.222301,-0.26676 -0.133381,-0.144497 -0.288992,-0.288997 -0.144496,-0.14449 -0.266761,-0.23342 0.600213,-0.111147 1.211541,-0.277867 0.611329,-0.16673 1.167081,-0.366797 0.555753,-0.21119 0.94478,-0.42237 z m 12.03761,-5.035126 h 5.62422 v 0.92255 h -5.62422 z M 46.009169,88.10309 h 6.391158 v 0.933665 h -6.391158 z m 0.03334,4.201492 h 6.313353 v 0.922553 h -6.313353 z m 2.645383,-5.479723 h 1.0337 v 4.012535 h -1.0337 z m 1.444957,4.257066 h 1.022586 v 4.901739 q 0,0.400147 -0.111151,0.633567 -0.100036,0.233417 -0.389028,0.344557 -0.28899,0.12227 -0.733593,0.1445 -0.444602,0.0333 -1.100391,0.0333 -0.03334,-0.21118 -0.13338,-0.500177 -0.100036,-0.27788 -0.211186,-0.489057 0.477947,0.0111 0.87809,0.0222 0.411256,0 0.544637,0 0.133381,-0.0111 0.177841,-0.0445 0.05557,-0.0444 0.05557,-0.16673 z m -3.512358,2.912146 0.878089,-0.477945 q 0.244532,0.266761 0.511293,0.611325 0.277877,0.333449 0.511293,0.65579 0.233416,0.322335 0.377912,0.577976 l -0.92255,0.555757 q -0.13338,-0.255647 -0.355681,-0.589097 -0.222302,-0.333453 -0.489063,-0.678016 -0.255646,-0.355685 -0.511293,-0.65579 z m -3.623509,-6.457849 h 2.81211 v 7.435973 h -2.81211 v -0.944781 h 1.833985 v -5.535296 h -1.833985 z m 0.05557,3.201137 h 2.245241 v 0.933664 h -2.245241 z m -0.555753,-3.201137 h 0.978125 v 8.391862 h -0.978125 z m 14.971973,6.72461 -0.288987,-0.722478 q 0.68913,-0.255647 1.055921,-0.666904 0.366799,-0.411258 0.366799,-0.978126 l -0.155614,-1.01147 0.611326,0.911435 q -0.133382,0.133381 -0.300104,0.200071 -0.155608,0.05557 -0.322339,0.05557 -0.37791,0 -0.65578,-0.222301 -0.277878,-0.233416 -0.277878,-0.666904 0,-0.422372 0.277878,-0.655788 0.288987,-0.233416 0.666897,-0.233416 0.522405,0 0.789168,0.377912 0.27787,0.377912 0.27787,1.01147 0,0.92255 -0.55575,1.611687 -0.544631,0.67802 -1.489407,0.98924 z m 7.224746,-6.65792 h 9.625584 v 1.067045 h -9.625576 z m 5.413005,3.445668 0.800285,-0.678018 q 0.477939,0.322336 1.000343,0.700248 0.533524,0.377912 1.055931,0.78917 0.522399,0.400142 0.967,0.789168 0.455712,0.389027 0.755819,0.711361 L 73.80782,94.17191 Q 73.52994,93.83846 73.096462,93.449432 72.66297,93.049289 72.151688,92.626918 71.651508,92.204546 71.117984,91.804405 70.595585,91.393147 70.106523,91.04858 Z m -0.311215,-3.067755 1.155953,0.422372 q -0.622437,1.14485 -1.511635,2.245242 -0.878089,1.10039 -1.97847,2.034054 -1.089273,0.922549 -2.356379,1.589454 -0.07777,-0.133382 -0.211185,-0.300106 -0.133382,-0.177839 -0.266761,-0.34457 -0.122265,-0.177839 -0.244529,-0.288991 0.911424,-0.4446 1.722818,-1.044813 0.811402,-0.600214 1.511643,-1.300462 0.711356,-0.711364 1.255998,-1.478303 0.555748,-0.766939 0.922547,-1.533877 z m -0.866972,2.423081 1.144844,-1.133735 v 0.01112 7.847237 h -1.144844 z m 11.6374,-1.000355 v 0.74471 h 3.412304 v -0.74471 z m 0,-1.444957 v 0.744709 h 3.412304 v -0.744709 z m -0.955885,-0.766939 h 5.368547 v 3.73466 h -5.368547 z m -0.522407,4.412678 h 6.491167 v 0.866975 h -6.491167 z m 2.678712,0.444602 h 0.989233 v 4.534946 l -0.989233,-0.411257 z m -1.278224,2.011829 q 0.288987,0.878088 0.755824,1.311573 0.466822,0.422367 1.089265,0.566867 0.633554,0.13338 1.367146,0.13338 0.122265,0 0.411255,0 0.288989,0 0.644673,0 0.355685,0 0.666908,0 0.322333,-0.0111 0.477941,-0.0111 -0.05559,0.11115 -0.122264,0.277867 -0.06672,0.16673 -0.111148,0.33345 -0.04445,0.177837 -0.06672,0.322337 h -0.455715 -1.489416 q -0.689132,0 -1.278226,-0.11115 -0.577982,-0.100037 -1.055928,-0.377907 -0.477947,-0.277877 -0.855855,-0.811394 -0.366799,-0.544643 -0.622445,-1.400502 z m 1.989579,-0.433493 h 2.523121 v 0.844744 h -2.523121 z m -2.700937,-0.722476 0.955885,0.122265 q -0.166723,1.356038 -0.611326,2.400847 -0.433486,1.033704 -1.178188,1.711731 -0.07785,-0.0889 -0.2223,-0.21119 -0.144499,-0.111157 -0.300104,-0.233417 -0.144499,-0.11115 -0.255646,-0.17784 0.722483,-0.577987 1.100383,-1.500538 0.389026,-0.922545 0.511296,-2.111858 z m -4.42377,-0.277877 q 0.666896,-0.166726 1.589445,-0.433487 0.922542,-0.266761 1.867317,-0.544638 l 0.144497,0.955895 q -0.855853,0.266762 -1.745059,0.544639 -0.878081,0.277876 -1.611671,0.489058 z m 0.122265,-3.612393 h 3.445653 v 0.978124 h -3.445653 z m 1.300449,-2.167437 h 0.967008 v 9.036546 q 0,0.38902 -0.08892,0.611327 -0.08892,0.2223 -0.311223,0.355687 -0.222293,0.12225 -0.577975,0.1556 -0.355682,0.0445 -0.889198,0.0333 -0.01113,-0.18895 -0.100038,-0.477947 -0.07777,-0.277877 -0.17784,-0.489057 0.333448,0.0111 0.611326,0.0111 0.27787,0 0.377908,0 0.111155,0 0.144499,-0.0444 0.04445,-0.0444 0.04445,-0.15562 z m 12.259874,0.01112 1.00035,0.300107 q -0.355676,0.94478 -0.844742,1.878444 -0.489058,0.933665 -1.067037,1.75618 -0.56687,0.822513 -1.167091,1.456072 -0.04445,-0.122266 -0.155608,-0.322337 -0.100038,-0.211186 -0.211185,-0.411257 -0.111148,-0.211186 -0.211186,-0.333451 0.522409,-0.533523 1.011467,-1.222657 0.500183,-0.689134 0.922554,-1.478302 0.422372,-0.800284 0.722478,-1.622799 z m -1.155966,2.96772 1.033702,-1.022584 0.01113,0.01112 v 8.325184 h -1.044819 z m 2.045177,-0.700248 h 6.857984 v 1.000355 h -6.857984 z m -0.266763,3.523473 h 7.235903 v 1.022588 H 89.65784 Z m 1.611672,-5.713139 h 1.03371 v 6.246661 h -1.03371 z m 2.956614,-0.01112 h 1.022585 v 6.26889 h -1.022585 z m -2.70096,7.29148 1.000351,0.31122 q -0.277873,0.489059 -0.644666,0.967013 -0.355685,0.466827 -0.755829,0.889204 -0.400145,0.42237 -0.778048,0.733587 -0.100038,-0.0889 -0.255654,-0.2223 -0.144491,-0.122267 -0.300099,-0.244527 -0.155623,-0.12227 -0.27788,-0.20007 0.577979,-0.411257 1.122623,-1.000364 0.544635,-0.600209 0.889202,-1.233763 z m 2.489775,0.489059 0.833625,-0.477944 q 0.377918,0.366792 0.744704,0.789164 0.377918,0.422374 0.689134,0.833631 0.322341,0.40014 0.5113,0.733597 l -0.878093,0.566867 q -0.18896,-0.344567 -0.500175,-0.778057 -0.300107,-0.422367 -0.666908,-0.855854 -0.366794,-0.444604 -0.733587,-0.811404 z m 3.612389,-2.08963 q 0.511292,-0.122266 1.155966,-0.277876 0.644673,-0.166727 1.367154,-0.355682 0.72248,-0.200071 1.42273,-0.389027 l 0.13338,0.96701 q -0.97813,0.277877 -1.978484,0.566869 -1.00035,0.277877 -1.811757,0.500174 z m 0.144498,-3.590163 h 3.812462 v 0.978125 h -3.812462 z m 1.500526,-2.189667 h 1.022596 v 9.069891 q 0,0.400137 -0.10004,0.622437 -0.0889,0.23342 -0.333452,0.344567 -0.244537,0.12227 -0.633565,0.15562 -0.389028,0.0333 -0.967007,0.0333 -0.03332,-0.20008 -0.122264,-0.477947 -0.08892,-0.27788 -0.18896,-0.477957 0.366802,0.0111 0.678026,0.0111 0.322333,0 0.43348,0 0.122272,-0.0111 0.166725,-0.0556 0.04445,-0.0444 0.04445,-0.15562 z m 2.434206,3.056641 6.02436,-0.600213 0.11115,0.978125 -6.02436,0.633559 z m 3.08998,-2.334162 0.78917,-0.533523 q 0.26677,0.244532 0.55576,0.533523 0.3001,0.288992 0.55575,0.566868 0.25564,0.277877 0.41126,0.511292 l -0.84475,0.589098 q -0.14449,-0.233416 -0.40014,-0.522407 -0.24453,-0.288992 -0.53352,-0.589098 -0.27788,-0.311222 -0.53353,-0.555753 z m -1.68948,-0.678018 h 1.06704 q 0.0444,1.467187 0.16673,2.800994 0.12226,1.322692 0.33345,2.423082 0.21118,1.089274 0.50018,1.911789 0.28899,0.822515 0.6669,1.300468 0.37791,0.466827 0.84474,0.522397 0.21119,0.0111 0.33345,-0.422367 0.13338,-0.444602 0.21119,-1.344919 0.10004,0.111145 0.26677,0.233412 0.17783,0.111152 0.34456,0.21119 0.16672,0.10003 0.26676,0.144495 -0.13338,0.967012 -0.34457,1.500529 -0.20006,0.533527 -0.46683,0.733594 -0.25564,0.21119 -0.55575,0.18896 -0.77806,-0.0667 -1.35604,-0.589097 -0.57798,-0.522417 -0.98924,-1.422728 -0.40014,-0.900323 -0.6669,-2.145208 -0.25564,-1.244887 -0.41126,-2.76765 -0.1445,-1.533877 -0.21118,-3.278941 z m 3.34563,4.06811 0.85585,0.522408 q -0.48906,1.100391 -1.28934,2.122975 -0.80029,1.022583 -1.78952,1.85621 -0.98924,0.822517 -2.07852,1.322694 -0.1445,-0.21118 -0.37791,-0.43348 -0.23341,-0.222307 -0.45572,-0.377917 0.83363,-0.333447 1.61168,-0.855858 0.77806,-0.533524 1.44496,-1.189314 0.66691,-0.666898 1.20043,-1.422725 0.53352,-0.755823 0.87809,-1.544993 z m 3.41232,-3.701314 h 8.18068 v 0.76694 h -8.18068 z m 3.56794,0.311222 h 1.0337 v 3.423438 h -1.0337 z m -4.25707,0.978125 h 9.60341 v 2.000711 h -0.98924 V 89.22571 h -7.66939 v 1.311578 h -0.94478 z m 2.47866,4.234837 h 4.62386 v 0.644674 h -4.62386 z m 0.11115,2.800993 0.4446,-0.633555 q 0.45572,0.155609 0.98924,0.366795 0.54464,0.20007 1.07816,0.41126 0.54464,0.211177 1.01147,0.411257 0.47794,0.200067 0.8114,0.355677 l -0.45571,0.744717 q -0.32234,-0.17785 -0.78917,-0.38904 -0.46684,-0.200067 -1.00036,-0.433487 -0.53352,-0.222287 -1.07816,-0.433487 -0.53352,-0.222287 -1.01147,-0.400137 z m -1.56723,-1.711718 h 6.38004 v 0.789172 h -6.38004 z m 6.19109,0 h 0.15561 l 0.15561,-0.05557 0.66691,0.422372 q -0.34457,0.455715 -0.85586,0.889202 -0.50019,0.433484 -1.05594,0.800281 -0.54463,0.35568 -1.01147,0.600217 -0.10003,-0.15561 -0.3001,-0.366797 -0.18896,-0.21119 -0.34457,-0.33345 0.44461,-0.188957 0.94478,-0.489057 0.5113,-0.300117 0.9559,-0.644681 0.45571,-0.344563 0.68913,-0.65579 z m -2.44531,-2.978835 0.92254,0.444603 q -0.67801,0.511292 -1.56722,0.955895 -0.8892,0.433486 -1.8451,0.789166 -0.95589,0.34457 -1.83398,0.600218 -0.10003,-0.111152 -0.25565,-0.244533 -0.14449,-0.133382 -0.3001,-0.266762 -0.1445,-0.144496 -0.26676,-0.222301 0.94478,-0.211186 1.90067,-0.522407 0.96701,-0.311223 1.81175,-0.70025 0.84475,-0.389026 1.43385,-0.833629 z m 0.30011,0.400142 q 0.34456,0.222301 0.8892,0.455718 0.54464,0.222301 1.21154,0.422372 0.67802,0.200071 1.4005,0.355682 0.73359,0.155611 1.45607,0.255646 -0.15561,0.155611 -0.34457,0.411256 -0.17784,0.244533 -0.27787,0.433486 -0.70025,-0.122266 -1.42273,-0.322335 -0.72248,-0.211188 -1.38939,-0.466832 -0.65578,-0.255646 -1.21153,-0.522407 -0.54464,-0.277876 -0.91144,-0.544638 z m -4.16815,-0.344567 q 0.56687,-0.100035 1.32269,-0.266761 0.76694,-0.166726 1.56722,-0.344567 l 0.0778,0.622443 q -0.70025,0.200072 -1.38938,0.389027 -0.67803,0.188956 -1.28935,0.355682 z m 0.42237,-1.07816 0.28899,-0.544638 q 0.34457,0.05557 0.74471,0.144496 0.41126,0.08892 0.77806,0.188956 0.3779,0.100036 0.63355,0.188956 l -0.28899,0.611328 q -0.24453,-0.08892 -0.62244,-0.200071 -0.3668,-0.11115 -0.77805,-0.211186 -0.40015,-0.111151 -0.75583,-0.177841 z m 6.55789,-0.577983 0.42237,0.566868 q -0.32234,0.122266 -0.71137,0.222301 -0.38903,0.100036 -0.77805,0.177841 -0.38903,0.0778 -0.71136,0.13338 l -0.34458,-0.522407 q 0.31123,-0.05557 0.70025,-0.155611 0.40015,-0.100036 0.77806,-0.211186 0.37792,-0.122266 0.64468,-0.211186 z m -2.22302,1.544992 0.26676,-0.566866 q 0.44461,0.0778 0.9559,0.211185 0.51129,0.13338 0.97813,0.277877 0.47794,0.13338 0.80028,0.266761 l -0.25565,0.655788 q -0.31122,-0.13338 -0.78916,-0.288991 -0.46684,-0.155611 -0.97813,-0.300107 -0.5113,-0.144496 -0.97813,-0.255647 z"
       id="text5-1"
       aria-label="購買時，不提供找零" /><path
       style="font-weight:bold;font-size:7.11592px;line-height:1;font-family:Helvetica;-inkscape-font-specification:'Helvetica Bold';fill:#ff0000;stroke-width:0.121603"
       d="m 20.303469,99.014856 h 0.767137 l 1.394149,2.443924 v -2.443924 h 0.681637 v 3.500814 H 22.41488 L 20.985105,100.029 v 2.48667 h -0.681636 z m 1.448773,-0.007 z m 3.182554,3.030554 q 0.296881,0 0.456008,-0.21137 0.159128,-0.21138 0.159128,-0.60089 0,-0.38952 -0.159128,-0.59851 -0.159127,-0.21139 -0.456008,-0.21139 -0.29688,0 -0.458383,0.21139 -0.159127,0.20899 -0.159127,0.59851 0,0.38951 0.159127,0.60089 0.161503,0.21137 0.458383,0.21137 z m 1.325272,-0.81226 q 0,0.57001 -0.327755,0.97614 -0.327756,0.40377 -0.995142,0.40377 -0.667385,0 -0.995141,-0.40377 -0.327756,-0.40613 -0.327756,-0.97614 0,-0.56052 0.327756,-0.97139 0.327756,-0.410887 0.995141,-0.410887 0.667386,0 0.995142,0.410887 0.327755,0.41087 0.327755,0.97139 z m -1.322897,-1.368027 z m 4.704955,0.997517 q -0.019,-0.14488 -0.09738,-0.26125 -0.114002,-0.15676 -0.353881,-0.15676 -0.342006,0 -0.467883,0.33964 -0.06651,0.1805 -0.06651,0.47975 0,0.28501 0.06651,0.45839 0.121127,0.323 0.456008,0.323 0.237504,0 0.337256,-0.12824 0.09975,-0.12826 0.121126,-0.33251 h 0.691137 q -0.02375,0.30875 -0.223254,0.58426 -0.318255,0.44414 -0.94289,0.44414 -0.624636,0 -0.919141,-0.37052 -0.294505,-0.3705 -0.294505,-0.96189 0,-0.66739 0.32538,-1.03789 0.325382,-0.370507 0.897766,-0.370507 0.486883,0 0.795638,0.218497 0.311131,0.21851 0.368131,0.77189 z m -0.458383,-0.997517 z m 3.044801,0.002 q 0.23988,0 0.434633,0.0831 0.197128,0.0831 0.323005,0.254127 0.106877,0.14488 0.130627,0.29925 0.02375,0.152 0.02375,0.49876 v 1.52003 h -0.691136 v -1.57466 q 0,-0.209 -0.07125,-0.33725 -0.09263,-0.1805 -0.351506,-0.1805 -0.268379,0 -0.408506,0.1805 -0.137754,0.17813 -0.137754,0.51064 v 1.40127 h -0.67451 v -3.488944 h 0.67451 v 1.237404 q 0.147254,-0.22563 0.339632,-0.313497 0.194753,-0.0903 0.408506,-0.0903 z m 2.971174,1.396527 q -0.06412,0.0404 -0.130626,0.0665 -0.06412,0.0237 -0.178128,0.0451 l -0.152002,0.0285 q -0.213754,0.038 -0.306381,0.0926 -0.156752,0.0926 -0.156752,0.28737 0,0.17339 0.095,0.25176 0.09738,0.0759 0.235129,0.0759 0.218503,0 0.401381,-0.12825 0.185254,-0.12824 0.192378,-0.46788 z m -0.410881,-0.31589 q 0.187628,-0.0237 0.26838,-0.0594 0.144877,-0.0617 0.144877,-0.19238 0,-0.15913 -0.111627,-0.2185 -0.109252,-0.0618 -0.323005,-0.0618 -0.239879,0 -0.339631,0.11876 -0.07125,0.0879 -0.095,0.2375 h -0.653137 q 0.02137,-0.33963 0.190003,-0.55813 0.268381,-0.342007 0.921516,-0.342007 0.425132,0 0.755263,0.168627 0.330131,0.16862 0.330131,0.6365 v 1.18754 q 0,0.1235 0.0047,0.29925 0.0071,0.133 0.04038,0.1805 0.03325,0.0475 0.09975,0.0784 v 0.0997 H 35.28521 q -0.03087,-0.0784 -0.04275,-0.14724 -0.01188,-0.0688 -0.019,-0.15676 -0.140126,0.152 -0.323004,0.25888 -0.218505,0.12588 -0.494009,0.12588 -0.351506,0 -0.581885,-0.19951 -0.228004,-0.20187 -0.228004,-0.57 0,-0.47739 0.368132,-0.69114 0.201878,-0.11639 0.593759,-0.16626 z m 0.03562,-1.083007 z m 3.087552,0.007 q 0.401381,0 0.655511,0.211377 0.256504,0.209 0.256504,0.69589 v 1.74328 h -0.693513 v -1.57466 q 0,-0.20425 -0.05462,-0.31351 -0.09975,-0.1995 -0.380007,-0.1995 -0.34438,0 -0.472632,0.29214 -0.0665,0.15437 -0.0665,0.39426 v 1.40127 h -0.674511 v -2.584047 h 0.653135 v 0.377627 q 0.130628,-0.1995 0.247005,-0.28738 0.209003,-0.156747 0.529633,-0.156747 z m -0.249379,-0.007 z m 2.897548,2.101907 q 0.237505,0 0.401382,-0.17813 0.163877,-0.1805 0.163877,-0.57238 0,-0.36814 -0.156752,-0.56052 -0.154377,-0.19238 -0.415632,-0.19238 -0.356256,0 -0.491633,0.33489 -0.07125,0.17813 -0.07125,0.43939 0,0.22563 0.076,0.40137 0.137753,0.32776 0.494008,0.32776 z M 40.39155,99.864873 q 0.194754,0 0.339631,0.0594 0.247005,0.102127 0.399007,0.375257 v -0.372877 h 0.657887 v 2.455797 q 0,0.50113 -0.168629,0.75526 -0.289755,0.43701 -1.111519,0.43701 -0.496383,0 -0.809887,-0.19476 -0.313507,-0.19475 -0.346757,-0.58187 h 0.736263 q 0.0285,0.11875 0.09263,0.171 0.109253,0.0926 0.368132,0.0926 0.365756,0 0.489258,-0.24463 0.08075,-0.15675 0.08075,-0.52725 v -0.16626 q -0.09738,0.16626 -0.209003,0.24938 -0.201879,0.15438 -0.524884,0.15438 -0.498758,0 -0.798014,-0.34913 -0.29688,-0.35151 -0.29688,-0.95002 0,-0.57714 0.28738,-0.96903 0.28738,-0.394247 0.814638,-0.394247 z m 0.21613,-0.007 z m 2.833422,0.558127 q -0.235129,0 -0.365756,0.14726 -0.128252,0.14725 -0.161503,0.399 h 1.052143 q -0.01663,-0.26837 -0.163878,-0.40613 Q 43.65723,100.416 43.441102,100.416 Z m 0,-0.558127 q 0.323005,0 0.581885,0.12113 0.258878,0.121127 0.427507,0.382377 0.152002,0.23038 0.197128,0.53439 0.02613,0.17812 0.02137,0.51301 h -1.77178 q 0.01425,0.3895 0.244629,0.54625 0.140127,0.0974 0.337256,0.0974 0.209004,0 0.33963,-0.11875 0.07125,-0.0641 0.125878,-0.17813 h 0.691137 q -0.02613,0.23038 -0.23988,0.46789 -0.332505,0.37763 -0.931016,0.37763 -0.494008,0 -0.871638,-0.31825 -0.377632,-0.31826 -0.377632,-1.03553 0,-0.67214 0.33963,-1.03077 0.342006,-0.358627 0.88589,-0.358627 z m 0.0475,0 z m 4.09932,2.101917 q 0.237503,0 0.401381,-0.17813 0.163877,-0.1805 0.163877,-0.57238 0,-0.36814 -0.156752,-0.56052 -0.154377,-0.19238 -0.415632,-0.19238 -0.356256,0 -0.491633,0.33489 -0.07125,0.17812 -0.07125,0.43938 0,0.22563 0.076,0.40138 0.137751,0.32776 0.494009,0.32776 z m -0.168629,-2.094797 q 0.194754,0 0.339631,0.0594 0.247004,0.102117 0.399006,0.375257 v -0.372877 h 0.657887 v 2.455797 q 0,0.50113 -0.168628,0.75526 -0.289755,0.43701 -1.111518,0.43701 -0.496384,0 -0.809889,-0.19476 -0.313505,-0.19475 -0.346756,-0.58189 h 0.736263 q 0.0285,0.11876 0.09263,0.17101 0.109252,0.0926 0.368131,0.0926 0.365757,0 0.489259,-0.24463 0.08075,-0.15675 0.08075,-0.52726 v -0.16625 q -0.09738,0.16625 -0.209004,0.24939 -0.201878,0.15437 -0.524884,0.15437 -0.498758,0 -0.798013,-0.34914 -0.296881,-0.3515 -0.296881,-0.95 0,-0.57715 0.287381,-0.96903 0.287379,-0.394257 0.814638,-0.394257 z m 0.216129,-0.007 z m 2.508042,-0.23989 h -0.686387 v -0.624627 h 0.686387 z m -0.686387,0.30876 h 0.686387 v 2.588797 h -0.686387 z m 2.93793,0 h 0.726757 l -0.933387,2.588797 h -0.714889 l -0.928641,-2.588797 h 0.760013 l 0.539134,1.909547 z m 2.13041,0.489257 q -0.235133,0 -0.365759,0.14725 -0.128249,0.14726 -0.161506,0.399 h 1.052146 q -0.01666,-0.26837 -0.163875,-0.40613 -0.144877,-0.14012 -0.361006,-0.14012 z m 0,-0.558127 q 0.323004,0 0.58188,0.12112 0.258883,0.121127 0.427511,0.382377 0.151997,0.23038 0.197121,0.53439 0.02613,0.17813 0.0214,0.51301 H 53.98156 q 0.01421,0.38951 0.244624,0.54626 0.140133,0.0974 0.337256,0.0974 0.209006,0 0.339632,-0.11875 0.07122,-0.0641 0.125881,-0.17813 h 0.69113 q -0.02614,0.23037 -0.239876,0.46788 -0.332503,0.37764 -0.931019,0.37764 -0.494,0 -0.871635,-0.31826 -0.377634,-0.31826 -0.377634,-1.03552 0,-0.67214 0.339632,-1.03077 0.342009,-0.358627 0.885887,-0.358627 z m 0.04753,0 z m 3.070905,0.007 q 0.401385,0 0.655513,0.211387 0.256504,0.209 0.256504,0.69588 v 1.74329 h -0.693512 v -1.57466 q 0,-0.20425 -0.05464,-0.31351 -0.09975,-0.1995 -0.38,-0.1995 -0.344384,0 -0.472633,0.29213 -0.06648,0.15438 -0.06648,0.39427 v 1.40127 h -0.674506 v -2.584047 h 0.653133 v 0.377627 q 0.130626,-0.1995 0.247008,-0.28738 0.208996,-0.156757 0.529629,-0.156757 z m -0.249374,-0.007 z m 4.092169,-0.878767 q 0.06411,0 0.116383,0.005 0.05227,0.002 0.142501,0.009 v 0.550997 q -0.05701,-0.007 -0.192378,-0.009 -0.133003,-0.005 -0.185254,0.0594 -0.0499,0.0617 -0.0499,0.13775 0,0.076 0,0.21851 h 0.444129 v 0.477377 h -0.444129 v 2.08767 H 60.64349 v -2.08767 h -0.377632 v -0.477377 h 0.37051 v -0.16626 q 0,-0.415627 0.140125,-0.572377 0.147254,-0.23275 0.710132,-0.23275 z m 1.826402,3.059054 q 0.296875,0 0.456004,-0.21138 0.15912,-0.21138 0.15912,-0.60088 0,-0.38952 -0.15912,-0.59852 -0.159129,-0.21138 -0.456004,-0.21138 -0.296883,0 -0.458381,0.21138 -0.159129,0.209 -0.159129,0.59852 0,0.3895 0.159129,0.60088 0.161498,0.21138 0.458381,0.21138 z m 1.325258,-0.81226 q 0,0.57001 -0.327747,0.97614 -0.327757,0.40376 -0.995142,0.40376 -0.66738,0 -0.995134,-0.40376 -0.327755,-0.40613 -0.327755,-0.97614 0,-0.56053 0.327755,-0.97141 0.327754,-0.410867 0.995134,-0.410867 0.667385,0 0.995142,0.410867 0.327747,0.41088 0.327747,0.97141 z m -1.322889,-1.368027 z m 3.213417,0.007 q 0.01903,0 0.03087,0.002 0.01421,0 0.05938,0.002 v 0.693517 q -0.06411,-0.007 -0.114006,-0.009 -0.0499,-0.002 -0.08074,-0.002 -0.408512,0 -0.548634,0.26602 -0.0784,0.14962 -0.0784,0.46076 v 1.23739 h -0.681629 v -2.588797 h 0.646004 v 0.451257 q 0.156752,-0.25888 0.273132,-0.35388 0.190002,-0.159127 0.494007,-0.159127 z m 1.572264,0.567647 v -0.482137 h 0.361006 v -0.722017 h 0.669754 v 0.722017 h 0.420379 v 0.482137 h -0.420379 v 1.36803 q 0,0.15912 0.04042,0.1995 0.04043,0.038 0.247006,0.038 0.03087,0 0.06411,0 0.03561,-0.002 0.06885,-0.005 v 0.50588 l -0.320625,0.0119 q -0.479762,0.0166 -0.655512,-0.16625 -0.113995,-0.11637 -0.113995,-0.35863 v -1.59335 z m 2.58165,-0.814647 h -0.686382 v -0.624637 h 0.686382 z m -0.686382,0.30876 h 0.686382 v 2.588797 h -0.686382 z m 2.888039,0.928637 q -0.01903,-0.14488 -0.09738,-0.26125 -0.114004,-0.15677 -0.353882,-0.15677 -0.342007,0 -0.46788,0.33965 -0.06648,0.1805 -0.06648,0.47976 0,0.285 0.06648,0.45838 0.121128,0.323 0.455997,0.323 0.23751,0 0.337261,-0.12824 0.09975,-0.12826 0.121128,-0.33251 h 0.691135 q -0.02377,0.30875 -0.223256,0.58425 -0.318256,0.44414 -0.942888,0.44414 -0.62463,0 -0.919139,-0.37051 -0.294498,-0.3705 -0.294498,-0.96189 0,-0.66739 0.325378,-1.03789 0.325378,-0.370517 0.897757,-0.370517 0.486884,0 0.795634,0.218507 0.311127,0.2185 0.368134,0.77189 z m -0.458389,-0.997517 z m 1.610274,-0.831267 h 0.665003 v 1.885784 l 0.843134,-0.973767 h 0.83839 l -0.904887,0.990387 0.940512,1.58654 h -0.817018 l -0.619877,-1.10677 -0.280254,0.29213 v 0.81464 h -0.665003 z m 3.733534,1.389394 q -0.235123,0 -0.365749,0.14726 -0.128257,0.14725 -0.161503,0.399 h 1.052131 q -0.01658,-0.26837 -0.163875,-0.40613 -0.144875,-0.14013 -0.361004,-0.14013 z m 0,-0.558127 q 0.323012,0 0.581885,0.12113 0.258873,0.121127 0.427509,0.382377 0.152,0.23038 0.197129,0.53439 0.02613,0.17812 0.0214,0.51301 h -1.771769 q 0.01429,0.3895 0.244629,0.54625 0.140125,0.0974 0.337254,0.0974 0.209006,0 0.33963,-0.11875 0.07122,-0.0641 0.125873,-0.17813 h 0.691127 q -0.02613,0.23038 -0.239868,0.46789 -0.332509,0.37763 -0.931014,0.37763 -0.494006,0 -0.871638,-0.31825 -0.377624,-0.31826 -0.377624,-1.03553 0,-0.67214 0.33963,-1.03077 0.342001,-0.358627 0.885882,-0.358627 z m 0.04753,0 z m 1.37039,0.574767 v -0.482137 h 0.361003 v -0.722017 h 0.669754 v 0.722017 h 0.420379 v 0.482137 h -0.420379 v 1.36803 q 0,0.15912 0.04043,0.1995 0.04043,0.038 0.247008,0.038 0.03087,0 0.06411,0 0.03561,-0.002 0.06885,-0.005 v 0.50588 l -0.320625,0.0119 q -0.479754,0.0166 -0.65551,-0.16625 -0.113997,-0.11637 -0.113997,-0.35863 v -1.59335 z m 5.020811,0.78851 q 0,-0.29926 -0.137748,-0.52964 -0.135379,-0.23038 -0.441755,-0.23038 -0.368136,0 -0.505892,0.34913 -0.07122,0.18525 -0.07122,0.47027 0,0.45126 0.239878,0.63413 0.142493,0.10688 0.337256,0.10688 0.282625,0 0.429872,-0.21851 0.149631,-0.2185 0.149631,-0.58188 z M 83.8238,99.870033 q 0.45363,0 0.767143,0.334887 0.315883,0.33487 0.315883,0.98327 0,0.684 -0.308761,1.04264 -0.306383,0.35864 -0.790886,0.35864 -0.308752,0 -0.513013,-0.15439 -0.111621,-0.0855 -0.218503,-0.24937 v 1.34901 h -0.669756 v -3.607687 h 0.648383 v 0.382387 q 0.10925,-0.16864 0.232754,-0.26601 0.225627,-0.173377 0.536756,-0.173377 z m 2.246785,0.057 v 1.560397 q 0,0.22089 0.05219,0.33251 0.09262,0.19713 0.363375,0.19713 0.346762,0 0.475011,-0.28025 0.06648,-0.15201 0.06648,-0.40139 v -1.408397 h 0.686387 v 2.588797 h -0.657892 v -0.36575 q -0.0095,0.0119 -0.04753,0.0712 -0.03798,0.0594 -0.09025,0.1045 -0.159129,0.1425 -0.30876,0.19475 -0.147247,0.0522 -0.346755,0.0522 -0.574757,0 -0.774265,-0.41325 -0.111621,-0.22801 -0.111621,-0.67214 v -1.560407 z m 0.475011,-0.0688 z m 3.22768,0.007 q 0.01903,0 0.03087,0.002 0.01421,0 0.05938,0.002 v 0.693517 q -0.06411,-0.007 -0.113998,-0.009 -0.0499,-0.002 -0.08075,-0.002 -0.408514,0 -0.548639,0.26601 -0.0784,0.14962 -0.0784,0.46076 v 1.2374 h -0.681641 v -2.588797 h 0.646008 v 0.451247 q 0.156761,-0.25887 0.273135,-0.35387 0.190002,-0.159127 0.494009,-0.159127 z m 2.033034,0.990407 q -0.01903,-0.14488 -0.09738,-0.26126 -0.114005,-0.15676 -0.353884,-0.15676 -0.342001,0 -0.467882,0.33964 -0.06648,0.1805 -0.06648,0.47976 0,0.285 0.06648,0.45838 0.121128,0.32301 0.456007,0.32301 0.237502,0 0.337256,-0.12825 0.09975,-0.12826 0.121127,-0.3325 h 0.69114 q -0.02377,0.30875 -0.223258,0.58425 -0.318259,0.44413 -0.942893,0.44413 -0.624635,0 -0.919143,-0.37051 -0.294501,-0.3705 -0.294501,-0.96189 0,-0.66739 0.325381,-1.03789 0.32538,-0.370517 0.897769,-0.370517 0.486879,0 0.795631,0.218507 0.311137,0.2185 0.368136,0.7719 z m -0.458392,-0.997527 z m 3.044801,0.002 q 0.239878,0 0.434641,0.0831 0.197123,0.0831 0.323004,0.254127 0.106876,0.14487 0.130626,0.29926 0.02377,0.152 0.02377,0.49875 v 1.52004 h -0.691132 v -1.57467 q 0,-0.209 -0.07122,-0.33725 -0.09263,-0.1805 -0.351515,-0.1805 -0.268374,0 -0.408499,0.1805 -0.137756,0.17813 -0.137756,0.51065 v 1.40127 h -0.674511 v -3.488944 h 0.674511 v 1.237394 q 0.147255,-0.22562 0.339633,-0.313497 0.194755,-0.0903 0.408506,-0.0903 z m 2.971189,1.396527 q -0.06411,0.0404 -0.130626,0.0665 -0.06411,0.0237 -0.178134,0.0451 l -0.152,0.0285 q -0.213752,0.038 -0.306384,0.0926 -0.156752,0.0926 -0.156752,0.28737 0,0.17339 0.095,0.25177 0.09738,0.0759 0.235126,0.0759 0.218505,0 0.401392,-0.12825 0.185248,-0.12825 0.192378,-0.46788 z m -0.410883,-0.31589 q 0.187625,-0.0237 0.268374,-0.0594 0.144878,-0.0617 0.144878,-0.19238 0,-0.15913 -0.111621,-0.21851 -0.109253,-0.0617 -0.323012,-0.0617 -0.239879,0 -0.339633,0.11875 -0.07122,0.0879 -0.09499,0.23751 h -0.653138 q 0.0214,-0.33964 0.190002,-0.55814 0.268374,-0.342007 0.921512,-0.342007 0.425134,0 0.75526,0.168627 0.330134,0.16863 0.330134,0.63651 v 1.18753 q 0,0.12351 0.0047,0.29925 0.0071,0.13301 0.04043,0.18051 0.03324,0.0475 0.09975,0.0784 v 0.0998 h -0.736264 q -0.03087,-0.0784 -0.04272,-0.14725 -0.01192,-0.0689 -0.01903,-0.15676 -0.140133,0.152 -0.323004,0.25889 -0.218505,0.12587 -0.494009,0.12587 -0.351507,0 -0.581887,-0.19951 -0.228004,-0.20187 -0.228004,-0.57 0,-0.47738 0.368128,-0.69114 0.201885,-0.11639 0.593763,-0.16626 z m 0.03561,-1.083007 z m 2.180295,1.831157 q 0.0214,0.18051 0.09262,0.25651 0.125873,0.13537 0.465505,0.13537 0.199508,0 0.315885,-0.0594 0.11875,-0.0594 0.11875,-0.17813 0,-0.11399 -0.095,-0.17337 -0.095,-0.0594 -0.705386,-0.20426 -0.439386,-0.10925 -0.619889,-0.27313 -0.180503,-0.1615 -0.180503,-0.46551 0,-0.35864 0.280257,-0.61514 0.282625,-0.258877 0.793262,-0.258877 0.484509,0 0.788509,0.194747 0.30639,0.19239 0.35151,0.66739 h -0.67688 q -0.0142,-0.13062 -0.0737,-0.20663 -0.11162,-0.13774 -0.380002,-0.13774 -0.220873,0 -0.315874,0.0688 -0.09263,0.0688 -0.09263,0.16149 0,0.11638 0.09975,0.16863 0.09975,0.0546 0.705396,0.18763 0.40375,0.095 0.60563,0.28739 0.19951,0.19475 0.19951,0.48689 0,0.38475 -0.28739,0.62938 -0.28501,0.24225 -0.883522,0.24225 -0.610383,0 -0.902507,-0.2565 -0.289755,-0.25888 -0.289755,-0.65789 z m 0.517759,-1.831157 z m 2.681411,0.558127 q -0.23513,0 -0.36575,0.14726 -0.12826,0.14725 -0.1615,0.399 h 1.05214 q -0.0166,-0.26838 -0.16388,-0.40613 -0.14488,-0.14013 -0.36101,-0.14013 z m 0,-0.558127 q 0.32301,0 0.58189,0.12112 0.25888,0.121137 0.42751,0.382387 0.152,0.23038 0.19713,0.53439 0.0261,0.17812 0.0214,0.513 h -1.77179 q 0.0142,0.38951 0.24463,0.54626 0.14013,0.0974 0.33725,0.0974 0.20901,0 0.33964,-0.11875 0.0712,-0.0641 0.12587,-0.17813 h 0.69114 q -0.0261,0.23038 -0.23988,0.46789 -0.3325,0.37763 -0.93102,0.37763 -0.49401,0 -0.87163,-0.31825 -0.37763,-0.31827 -0.37763,-1.03553 0,-0.67214 0.33962,-1.03077 0.34201,-0.358627 0.88589,-0.358627 z m 0.0475,0 z"
       id="text6-5"
       aria-label="No change given for ticket purchase" /><path
       id="rect2"
       style="fill:#ffdc4f;stroke-width:1.93813;paint-order:fill markers stroke"
       d="M 20.977693,57.412636 H 405.9368 c 1.22333,0 2.20817,0.984847 2.20817,2.208176 v 22.081786 c 0,1.223329 -0.98484,2.208176 -2.20817,2.208176 H 20.977693 c -1.22333,0 -2.208177,-0.984847 -2.208177,-2.208176 V 59.620812 c 0,-1.223329 0.984847,-2.208176 2.208177,-2.208176 z" /><path
       style="font-weight:500;font-size:16.8299px;line-height:1;font-family:'Noto Sans TC';-inkscape-font-specification:'Noto Sans TC Medium';fill:#282472;stroke-width:0.420747"
       d="m 20.444625,14.210963 c 0.706856,-0.157079 1.537131,-0.359038 2.490825,-0.605876 0.953695,-0.258059 1.918609,-0.521727 2.894743,-0.791006 l 0.201959,1.464202 c -0.886375,0.258058 -1.783969,0.516116 -2.692784,0.774175 -0.897595,0.246839 -1.71665,0.476847 -2.457166,0.690026 z m 0.218789,-5.436058 h 5.688506 v 1.481031 h -5.688506 z m 2.171057,-3.3154904 h 1.56518 V 19.192614 c 0,0.403917 -0.05049,0.718075 -0.151469,0.942474 -0.100979,0.235619 -0.274888,0.409528 -0.521727,0.521727 -0.246838,0.123419 -0.566606,0.201959 -0.959304,0.235619 -0.392697,0.03366 -0.880764,0.05049 -1.464201,0.05049 -0.02244,-0.201959 -0.07854,-0.443187 -0.168299,-0.723685 -0.08976,-0.280499 -0.185129,-0.521727 -0.286109,-0.723686 0.359038,0.01122 0.695636,0.01683 1.009794,0.01683 h 0.656367 c 0.123419,-0.01122 0.207569,-0.03927 0.252448,-0.08415 0.04488,-0.04488 0.06732,-0.123419 0.06732,-0.235618 z m 5.351908,0.5722166 h 4.476754 V 7.5126624 H 28.186379 Z M 26.2846,12.830911 h 7.708095 v 1.497861 H 26.2846 Z m 7.152708,0 h 0.319768 l 0.286109,-0.05049 1.026624,0.437578 c -0.359038,1.133213 -0.847105,2.137397 -1.464202,3.012552 -0.617096,0.863935 -1.329562,1.61567 -2.137397,2.255207 -0.807835,0.628316 -1.69421,1.155653 -2.659125,1.58201 -0.953694,0.426358 -1.963488,0.768566 -3.029382,1.026624 -0.04488,-0.145859 -0.112199,-0.308548 -0.201958,-0.488067 -0.08976,-0.179519 -0.18513,-0.359038 -0.286109,-0.538557 -0.100979,-0.168299 -0.201959,-0.308548 -0.302938,-0.420747 0.976134,-0.190739 1.907389,-0.465627 2.793764,-0.824665 0.897595,-0.370258 1.71665,-0.824665 2.457165,-1.363222 0.751735,-0.538557 1.396882,-1.172483 1.935439,-1.901779 0.549777,-0.729296 0.970524,-1.553961 1.262242,-2.473995 z m -5.368738,1.144433 c 0.460017,0.964915 1.071504,1.82885 1.834459,2.591805 0.774175,0.751735 1.6886,1.391272 2.743274,1.918609 1.054674,0.516117 2.227157,0.897594 3.517449,1.144433 -0.112199,0.112199 -0.235619,0.258058 -0.370258,0.437577 -0.123419,0.179519 -0.241229,0.359038 -0.353428,0.538557 -0.112199,0.190739 -0.207569,0.359038 -0.286108,0.504897 -2.008368,-0.482457 -3.719408,-1.279072 -5.13312,-2.389846 -1.413711,-1.121993 -2.524485,-2.541315 -3.33232,-4.257965 z M 27.832951,6.0316312 h 1.497861 v 1.8849489 c 0,0.5385568 -0.07293,1.0883335 -0.218788,1.6493302 -0.134639,0.5497767 -0.392698,1.0827237 -0.774176,1.5988407 -0.381477,0.516117 -0.936864,0.964914 -1.66616,1.346392 -0.0561,-0.100979 -0.151469,-0.224399 -0.286108,-0.370258 -0.134639,-0.157079 -0.269279,-0.308548 -0.403918,-0.454407 -0.134639,-0.157079 -0.252449,-0.269279 -0.353428,-0.336598 0.650756,-0.336598 1.133213,-0.695636 1.447372,-1.077114 0.314158,-0.3814777 0.516117,-0.7797853 0.605876,-1.1949228 0.100979,-0.4151375 0.151469,-0.8134452 0.151469,-1.1949229 z m 4.106496,0 h 1.514691 v 3.8035576 c 0,0.2468392 0.01683,0.4207482 0.05049,0.5217272 0.03366,0.100979 0.117809,0.151469 0.252448,0.151469 h 0.336598 0.454408 0.336598 c 0.134639,0 0.286108,-0.0056 0.454407,-0.01683 0.179519,-0.02244 0.325378,-0.05049 0.437577,-0.08415 0.01122,0.201959 0.02244,0.431968 0.03366,0.690026 0.02244,0.258059 0.05049,0.476847 0.08415,0.656366 -0.112199,0.04488 -0.258059,0.07293 -0.437578,0.08415 -0.179519,0.01122 -0.359038,0.01683 -0.538557,0.01683 h -0.403917 -0.504897 -0.387088 c -0.460017,0 -0.813445,-0.06732 -1.060284,-0.201959 -0.246838,-0.134639 -0.415137,-0.353428 -0.504897,-0.656366 -0.07854,-0.302938 -0.117809,-0.695636 -0.117809,-1.1780931 z m 8.667399,0.4039176 h 4.779692 v 1.6156705 h -4.779692 z m 3.988686,0 h 1.632501 c 0,0.5161169 0.01683,1.1163834 0.05049,1.8007994 0.04488,0.673196 0.14025,1.3968816 0.286109,2.1710568 0.145859,0.762956 0.370257,1.553961 0.673196,2.373016 0.302938,0.819055 0.701246,1.632501 1.194923,2.440336 0.504897,0.807835 1.138823,1.593231 1.901779,2.356186 0.762955,0.751735 1.68299,1.447371 2.760103,2.086908 -0.112199,0.08976 -0.252448,0.213179 -0.420747,0.370258 -0.168299,0.168299 -0.330988,0.342208 -0.488067,0.521727 -0.157079,0.179519 -0.280499,0.336598 -0.370258,0.471237 -1.099554,-0.673196 -2.042029,-1.413712 -2.827425,-2.221547 -0.785395,-0.819055 -1.447371,-1.68299 -1.985928,-2.591805 C 46.474871,15.304906 46.048514,14.390482 45.723136,13.470447 45.397758,12.550412 45.150919,11.658428 44.98262,10.794493 44.825541,9.9305581 44.718951,9.1283329 44.662852,8.3878173 44.617972,7.6360817 44.595532,6.9853255 44.595532,6.4355488 Z m -0.589046,3.4837895 1.800799,0.3197677 c -0.392697,1.69421 -0.908814,3.225731 -1.548351,4.594563 -0.639536,1.357612 -1.413711,2.552535 -2.322526,3.584769 -0.897595,1.032234 -1.957878,1.912999 -3.180851,2.642295 -0.08976,-0.123419 -0.224399,-0.263669 -0.403918,-0.420748 -0.179519,-0.157079 -0.364648,-0.319768 -0.555387,-0.488067 -0.179519,-0.168299 -0.342208,-0.297329 -0.488067,-0.387088 1.828849,-0.942474 3.276221,-2.238376 4.342115,-3.887707 1.077113,-1.66055 1.862509,-3.646478 2.356186,-5.9577847 z m 13.5649,0.5048967 h 8.835698 v 1.481032 h -8.835698 z m -2.053248,3.534279 h 12.992683 v 1.447372 H 55.518138 Z m -0.791005,5.21727 h 14.608353 v 1.464201 H 54.727133 Z m 6.395362,-8.078353 h 1.69982 v 8.785208 h -1.69982 z m -4.325285,4.998481 1.295903,-0.521727 c 0.224399,0.291718 0.437577,0.617096 0.639536,0.976134 0.213179,0.347818 0.403918,0.695636 0.572217,1.043454 0.179519,0.336598 0.308548,0.639536 0.387087,0.908815 l -1.380052,0.605876 C 58.233362,18.839185 58.115553,18.530637 57.958474,18.18282 57.801395,17.835002 57.621876,17.475964 57.419917,17.105706 57.217958,16.735448 57.010389,16.39885 56.79721,16.095912 Z m 8.970338,-0.521727 1.514691,0.572217 c -0.314159,0.527337 -0.645147,1.060283 -0.992965,1.59884 -0.347817,0.538557 -0.667585,0.998574 -0.959304,1.380052 l -1.211753,-0.521727 c 0.190739,-0.269279 0.387088,-0.577827 0.589047,-0.925645 0.201959,-0.359037 0.398307,-0.723685 0.589046,-1.093943 0.190739,-0.370258 0.347819,-0.706856 0.471238,-1.009794 z M 62.620356,6.2504199 c 0.392698,0.4375774 0.869545,0.8751548 1.430542,1.3127323 0.572217,0.4375774 1.189313,0.8527149 1.851289,1.2454126 0.661976,0.3814777 1.346392,0.7292957 2.053248,1.0434539 0.718075,0.3141583 1.413711,0.5722163 2.086907,0.7741753 -0.112199,0.112199 -0.241228,0.252449 -0.387087,0.420748 -0.145859,0.168299 -0.280499,0.336598 -0.403918,0.504897 -0.123419,0.168299 -0.230009,0.325378 -0.319768,0.471237 C 68.247153,11.776237 67.551517,11.473299 66.844661,11.114261 66.149025,10.755223 65.458999,10.351305 64.774583,9.9025084 64.101387,9.4424911 63.467461,8.9600339 62.872805,8.4551369 62.278148,7.9502399 61.750811,7.428513 61.290794,6.8899561 Z M 61.9135,5.2911156 63.394531,5.9643116 C 62.777435,6.906786 62.03692,7.7707209 61.172985,8.5561163 60.30905,9.3302917 59.360965,10.014708 58.328731,10.609364 57.296498,11.192801 56.224994,11.686478 55.11422,12.090395 55.002021,11.865996 54.844942,11.619158 54.642983,11.34988 54.441024,11.069381 54.239066,10.828153 54.037107,10.626194 55.103,10.300816 56.135234,9.8800685 57.133808,9.3639515 58.132383,8.8478346 59.041197,8.2475681 59.860252,7.5631522 60.690527,6.8787362 61.374943,6.1213907 61.9135,5.2911156 Z m 9.441573,1.8007993 H 78.65925 V 10.020318 H 77.413837 V 8.3709874 h -4.880671 v 1.6493306 h -1.178093 z m 1.060283,8.7683781 h 5.436058 v 5.16678 h -1.413711 v -3.904537 h -2.659125 v 3.921367 h -1.363222 z m 0.488068,3.4333 h 4.476753 v 1.245413 h -4.476753 z m 0.824665,-10.4850282 1.245412,0.2187887 c -0.269278,0.7741757 -0.639536,1.5146915 -1.110773,2.2215465 -0.471237,0.695636 -1.077114,1.323952 -1.817629,1.884949 -0.07854,-0.168299 -0.201959,-0.359037 -0.370258,-0.572216 -0.157079,-0.213179 -0.308549,-0.375868 -0.454408,-0.488067 0.661977,-0.448797 1.194924,-0.959304 1.598841,-1.531521 0.415137,-0.5834369 0.718076,-1.1612636 0.908815,-1.7334802 z m 0.319768,1.1276034 h 2.962062 V 11.131091 H 73.54296 Z m 2.625464,0 H 76.9426 l 0.218788,-0.05049 0.807836,0.5553868 c -0.392698,1.021014 -0.920035,1.924218 -1.582011,2.709614 -0.650756,0.774175 -1.385662,1.436151 -2.204717,1.985928 -0.807835,0.538557 -1.64372,0.976135 -2.507655,1.312733 -0.0561,-0.12342 -0.12903,-0.269279 -0.218789,-0.437578 -0.08976,-0.168299 -0.185129,-0.330988 -0.286108,-0.488067 -0.100979,-0.157079 -0.196349,-0.280498 -0.286109,-0.370258 0.830275,-0.269278 1.626891,-0.633926 2.389846,-1.093943 0.774175,-0.471238 1.452981,-1.032234 2.036418,-1.68299 0.594657,-0.650756 1.049064,-1.380052 1.363222,-2.187887 z M 73.930047,5.9306518 75.20912,5.4762445 c 0.145859,0.3141581 0.297328,0.6619761 0.454407,1.0434538 0.157079,0.3814777 0.280499,0.7068558 0.370258,0.9761342 L 74.687393,8.0343894 C 74.620074,7.765111 74.513484,7.428513 74.367625,7.0245953 74.221766,6.6206777 74.075906,6.2560299 73.930047,5.9306518 Z m 5.18361,0.2692784 h 7.438816 v 1.363222 h -7.438816 z m 1.901779,6.5636608 v 1.295903 h 3.551109 v -1.295903 z m 0,2.473996 v 1.346392 h 3.551109 v -1.346392 z m 0,-4.981651 v 1.312733 h 3.551109 V 10.255936 Z M 79.584894,8.9936937 h 6.496342 V 17.829392 H 79.584894 Z M 82.109379,6.9236159 83.62407,7.1592345 C 83.489431,7.6304718 83.349182,8.101709 83.203323,8.5729462 83.068684,9.0329635 82.945264,9.4368811 82.833065,9.784699 L 81.654972,9.4817608 C 81.733511,9.1227229 81.817661,8.7019754 81.90742,8.2195183 81.99718,7.7258412 82.0645,7.2938737 82.109379,6.9236159 Z m -0.706856,11.0572451 1.026624,0.992964 c -0.493677,0.403917 -1.071503,0.802225 -1.733479,1.194923 -0.650757,0.392697 -1.256633,0.723685 -1.81763,0.992964 -0.07854,-0.168299 -0.185129,-0.364648 -0.319768,-0.589047 -0.134639,-0.224399 -0.258059,-0.415137 -0.370258,-0.572216 0.347818,-0.168299 0.723686,-0.364648 1.127604,-0.589047 0.403917,-0.235619 0.791005,-0.476847 1.161263,-0.723685 0.370258,-0.258059 0.678806,-0.493677 0.925644,-0.706856 z m 1.649331,0.925644 0.858325,-0.992964 c 0.314158,0.190739 0.645146,0.409527 0.992964,0.656366 0.359038,0.246839 0.701246,0.499287 1.026624,0.757346 0.336598,0.246839 0.605876,0.471237 0.807835,0.673196 l -0.908815,1.110773 C 85.626828,20.898043 85.36877,20.656815 85.054612,20.387537 84.740454,20.129478 84.409466,19.87142 84.061648,19.613361 83.71383,19.344082 83.377232,19.108464 83.051854,18.906505 Z m -10.14843,-6.025104 0.908814,-0.942475 c 0.381478,0.224399 0.796616,0.465627 1.245413,0.723686 0.448797,0.258059 0.897595,0.521727 1.346392,0.791005 0.460017,0.269279 0.886375,0.532947 1.279072,0.791006 0.403918,0.258058 0.751736,0.482457 1.043454,0.673196 l -0.942474,1.127603 C 77.425057,15.764924 76.96504,15.439546 76.404043,15.069288 75.843046,14.69903 75.254,14.323162 74.636903,13.941685 74.019807,13.548987 73.441981,13.195559 72.903424,12.881401 Z m 157.410056,3.12061 c -0.38148,0 -0.71247,-0.12903 -0.99296,-0.387088 -0.2805,-0.258059 -0.42075,-0.594657 -0.42075,-1.009795 0,-0.415137 0.14025,-0.751735 0.42075,-1.009794 0.28049,-0.269278 0.61148,-0.403917 0.99296,-0.403917 0.38148,0 0.71247,0.134639 0.99296,0.403917 0.2805,0.258059 0.42075,0.594657 0.42075,1.009794 0,0.415138 -0.14025,0.751736 -0.42075,1.009795 -0.28049,0.258058 -0.61148,0.387088 -0.99296,0.387088 z m 0,8.145672 c -0.38148,0 -0.71247,-0.12903 -0.99296,-0.387088 -0.2805,-0.258059 -0.42075,-0.589047 -0.42075,-0.992964 0,-0.426358 0.14025,-0.768566 0.42075,-1.026624 0.28049,-0.258059 0.61148,-0.387088 0.99296,-0.387088 0.38148,0 0.71247,0.129029 0.99296,0.387088 0.2805,0.258058 0.42075,0.600266 0.42075,1.026624 0,0.403917 -0.14025,0.734905 -0.42075,0.992964 -0.28049,0.258058 -0.61148,0.387088 -0.99296,0.387088 z"
       id="text1"
       aria-label="投入金額　　　　　　　　："
       sodipodi:nodetypes="ccccccccccccccsccscscscsscccccccccccccccccccscccccccccccccccccccscsccccscscccsssccsccccssccsscsccccccccccsccccscccsccccccccsccccccccccccccccccccccccccccccsscccscccsccccccsscccscccccccccscccccccccccccccccccccccccccccccccccccccccccccsscccccccsccscccccccccccccccccccccccccccccccccccccscccccccccccccccsccccsccssscscssssssssssss" /><path
       style="font-weight:bold;font-size:8.39209px;line-height:1;font-family:Helvetica;-inkscape-font-specification:'Helvetica Bold';fill:#282472;stroke-width:0.209802"
       d="m 21.97976,26.416353 h 1.53254 l -0.753977,-2.376666 z m 0.07786,-3.757591 h 1.425999 l 2.139,6.04001 h -1.368632 l -0.389282,-1.241603 h -2.225051 l -0.417965,1.241603 h -1.31946 z m 0.704804,0 z m 8.523216,1.475172 q 0.295035,0 0.581874,0.114736 0.286839,0.114736 0.520407,0.401575 0.188495,0.233569 0.254058,0.573678 0.04098,0.225373 0.04098,0.659729 l -0.0082,2.81512 h -1.196528 v -2.843803 q 0,-0.254058 -0.08195,-0.417966 -0.155713,-0.311425 -0.573678,-0.311425 -0.483529,0 -0.667925,0.401575 -0.09425,0.21308 -0.09425,0.512212 v 2.659407 h -1.17604 v -2.659407 q 0,-0.397477 -0.08195,-0.577776 -0.147517,-0.323718 -0.577776,-0.323718 -0.499919,0 -0.672023,0.323718 -0.09425,0.184397 -0.09425,0.549092 v 2.688091 H 26.27415 v -4.458297 h 1.135063 v 0.651534 q 0.217178,-0.348304 0.40977,-0.495822 0.340109,-0.262253 0.881005,-0.262253 0.512213,0 0.827736,0.225374 0.254057,0.208983 0.385184,0.536799 0.229471,-0.393379 0.56958,-0.577776 0.360598,-0.184397 0.803149,-0.184397 z m 4.474689,3.741201 q 0.512212,0 0.786758,-0.364696 0.274546,-0.364695 0.274546,-1.036718 0,-0.672023 -0.274546,-1.03262 -0.274546,-0.364695 -0.786758,-0.364695 -0.512213,0 -0.790856,0.364695 -0.274546,0.360597 -0.274546,1.03262 0,0.672023 0.274546,1.036718 0.278643,0.364696 0.790856,0.364696 z m 2.286517,-1.401414 q 0,0.983448 -0.565483,1.684155 -0.565483,0.696609 -1.716936,0.696609 -1.151454,0 -1.716937,-0.696609 -0.565482,-0.700707 -0.565482,-1.684155 0,-0.967057 0.565482,-1.675959 0.565483,-0.708902 1.716937,-0.708902 1.151453,0 1.716936,0.708902 0.565483,0.708902 0.565483,1.675959 z m -2.282419,-2.360275 z m 4.282095,0.118833 v 2.692189 q 0,0.381086 0.09015,0.573678 0.159811,0.340109 0.626949,0.340109 0.598264,0 0.81954,-0.483528 0.114735,-0.262253 0.114735,-0.692512 v -2.429936 h 1.184236 v 4.466493 h -1.135063 v -0.631045 q -0.01639,0.02049 -0.08195,0.122931 -0.06556,0.102442 -0.155713,0.180298 -0.274546,0.245862 -0.532701,0.336012 -0.254057,0.09015 -0.598264,0.09015 -0.991644,0 -1.33585,-0.713 -0.192592,-0.393379 -0.192592,-1.159649 v -2.692189 z m 0.81954,-0.118833 z m 5.617949,0.01229 q 0.692511,0 1.130965,0.364695 0.442551,0.360598 0.442551,1.200627 v 3.007711 h -1.196528 v -2.716775 q 0,-0.352402 -0.09425,-0.540896 -0.172103,-0.344207 -0.655632,-0.344207 -0.594167,0 -0.815442,0.504017 -0.114736,0.266351 -0.114736,0.680218 v 2.417643 h -1.163747 v -4.458297 h 1.126868 v 0.651534 q 0.225373,-0.344207 0.42616,-0.495822 0.360598,-0.270448 0.913788,-0.270448 z m -0.430259,-0.01229 z m 2.622526,0.991643 v -0.831833 h 0.62285 v -1.245701 h 1.155552 v 1.245701 h 0.725293 v 0.831833 h -0.725293 v 2.360276 q 0,0.274546 0.06966,0.344207 0.06966,0.06556 0.426161,0.06556 0.05327,0 0.110637,0 0.06147,-0.0041 0.118834,-0.0082 v 0.87281 l -0.55319,0.02049 q -0.827735,0.02868 -1.130965,-0.286839 -0.19669,-0.200787 -0.19669,-0.618753 v -2.749557 z m 6.785793,-1.405511 h -1.184235 v -1.077695 h 1.184235 z m -1.184235,0.532701 h 1.184235 v 4.466493 h -1.184235 z m 4.790212,-0.10654 q 0.692512,0 1.130966,0.364695 0.442551,0.360598 0.442551,1.200627 v 3.007711 h -1.196528 v -2.716775 q 0,-0.352402 -0.09425,-0.540896 -0.172104,-0.344207 -0.655632,-0.344207 -0.594167,0 -0.815443,0.504017 -0.114735,0.266351 -0.114735,0.680218 v 2.417643 H 56.60123 v -4.458297 h 1.126867 v 0.651534 q 0.225374,-0.344207 0.426161,-0.495822 0.360598,-0.270448 0.913787,-0.270448 z m -0.430258,-0.01229 z m 3.991158,3.159327 q 0.03688,0.311425 0.15981,0.442551 0.217178,0.233569 0.803149,0.233569 0.344207,0 0.544994,-0.102442 0.204885,-0.102443 0.204885,-0.307328 0,-0.196689 -0.163908,-0.299132 -0.163908,-0.102442 -1.217017,-0.352402 -0.758074,-0.188494 -1.069499,-0.471236 -0.311426,-0.278643 -0.311426,-0.803149 0,-0.618752 0.483529,-1.061304 0.487626,-0.446649 1.368632,-0.446649 0.835931,0 1.360436,0.336011 0.528604,0.331914 0.60646,1.151454 h -1.167845 q -0.02459,-0.225374 -0.127028,-0.3565 -0.192592,-0.237667 -0.655632,-0.237667 -0.381086,0 -0.544994,0.118834 -0.159811,0.118833 -0.159811,0.278643 0,0.200787 0.172104,0.290937 0.172103,0.09425 1.217017,0.323718 0.696609,0.163908 1.044913,0.495822 0.344207,0.336011 0.344207,0.840028 0,0.663828 -0.495822,1.085891 -0.491724,0.417965 -1.524344,0.417965 -1.053109,0 -1.557126,-0.442551 -0.49992,-0.44665 -0.49992,-1.135063 z m 0.893298,-3.159327 z m 4.626305,0.96296 q -0.405672,0 -0.631045,0.254057 -0.221276,0.254057 -0.278644,0.688414 h 1.815281 q -0.02868,-0.463041 -0.282741,-0.700707 -0.24996,-0.241764 -0.622851,-0.241764 z m 0,-0.96296 q 0.557288,0 1.003937,0.208983 0.446649,0.208982 0.737586,0.659729 0.262253,0.397477 0.340109,0.921983 0.04507,0.307327 0.03688,0.885103 h -3.056884 q 0.02459,0.672023 0.422063,0.942471 0.241764,0.168006 0.581874,0.168006 0.360597,0 0.585971,-0.204885 0.122931,-0.110638 0.217178,-0.307328 h 1.192431 q -0.04507,0.397477 -0.413868,0.807247 -0.573678,0.651535 -1.606299,0.651535 -0.852321,0 -1.503856,-0.549092 -0.651534,-0.549092 -0.651534,-1.786597 0,-1.15965 0.585971,-1.778402 0.590069,-0.618753 1.528442,-0.618753 z m 0.08195,0 z m 5.249152,0.01229 q 0.03278,0 0.05327,0.0041 0.02459,0 0.102443,0.0041 v 1.196529 q -0.110638,-0.01229 -0.19669,-0.01639 -0.08605,-0.0041 -0.139322,-0.0041 -0.704804,0 -0.946568,0.458943 -0.135225,0.258155 -0.135225,0.794954 v 2.134901 h -1.176039 v -4.466493 h 1.114574 v 0.778563 q 0.270448,-0.446649 0.471235,-0.610557 0.327816,-0.274546 0.852322,-0.274546 z m 0.381085,0.97935 v -0.831833 h 0.62285 v -1.245701 h 1.155551 v 1.245701 h 0.725293 v 0.831833 H 75.63914 v 2.360276 q 0,0.274546 0.06966,0.344207 0.06966,0.06556 0.426161,0.06556 0.05327,0 0.110638,0 0.06146,-0.0041 0.118833,-0.0082 v 0.87281 l -0.553189,0.02049 q -0.827736,0.02868 -1.130965,-0.286839 -0.19669,-0.200787 -0.19669,-0.618753 v -2.749557 z m 5.015585,-0.02868 q -0.405672,0 -0.631046,0.254057 -0.221276,0.254057 -0.278643,0.688414 h 1.815281 q -0.02868,-0.463041 -0.282742,-0.700707 -0.249959,-0.241764 -0.62285,-0.241764 z m 0,-0.96296 q 0.557287,0 1.003936,0.208983 0.44665,0.208982 0.737586,0.659729 0.262253,0.397477 0.34011,0.921983 0.04507,0.307327 0.03688,0.885103 h -3.056884 q 0.02459,0.672023 0.422063,0.942471 0.241764,0.168006 0.581873,0.168006 0.360598,0 0.585971,-0.204885 0.122931,-0.110638 0.217178,-0.307328 h 1.192431 q -0.04507,0.397477 -0.413868,0.807247 -0.573678,0.651535 -1.606298,0.651535 -0.852322,0 -1.503856,-0.549092 -0.651534,-0.549092 -0.651534,-1.786597 0,-1.15965 0.585971,-1.778402 0.590069,-0.618753 1.528442,-0.618753 z m 0.08195,0 z m 4.470592,0.01229 q 0.405673,0 0.721196,0.180299 0.315523,0.176201 0.512212,0.491724 v -2.130804 h 1.184236 v 6.031814 H 84.711451 V 28.08002 q -0.24996,0.397477 -0.569581,0.577775 -0.31962,0.180299 -0.794954,0.180299 -0.78266,0 -1.319459,-0.631046 -0.532701,-0.635143 -0.532701,-1.626787 0,-1.143258 0.524506,-1.79889 0.528603,-0.655632 1.409608,-0.655632 z m 0.254058,3.728907 q 0.495822,0 0.753977,-0.368793 0.258155,-0.368793 0.258155,-0.954764 0,-0.81954 -0.413868,-1.171942 -0.254057,-0.213081 -0.590069,-0.213081 -0.512212,0 -0.753977,0.389282 -0.237666,0.385184 -0.237666,0.958862 0,0.618752 0.241764,0.991643 0.245862,0.368793 0.741684,0.368793 z"
       id="text2"
       aria-label="Amount inserted" /><path
       style="font-weight:500;font-size:16.8299px;line-height:1;font-family:'Noto Sans TC';-inkscape-font-specification:'Noto Sans TC Medium';fill:#ff0000;stroke-width:0.420747"
       d="m 30.677204,44.544071 1.144434,-0.807836 c 0.448797,0.235619 0.925644,0.510507 1.430541,0.824665 0.504897,0.302939 0.981745,0.611487 1.430542,0.925645 0.460017,0.302938 0.841495,0.583436 1.144433,0.841495 l -1.245413,0.925645 C 34.312463,46.995626 33.953425,46.703908 33.504628,46.37853 33.067051,46.064371 32.601423,45.744603 32.107746,45.419225 31.614069,45.093847 31.137221,44.802129 30.677204,44.544071 Z m -7.842733,-4.628223 h 11.074074 v 1.228583 H 22.834471 Z m -2.036418,2.187887 h 15.14691 v 1.295902 h -15.14691 z m 0.218788,-9.508894 h 14.608354 v 1.279072 H 21.016841 Z m 3.298661,11.090905 1.464201,0.504897 c -0.314158,0.403917 -0.695636,0.796615 -1.144433,1.178093 -0.437577,0.381477 -0.891985,0.734905 -1.363222,1.060283 -0.471237,0.336598 -0.936865,0.622706 -1.396882,0.858325 -0.08976,-0.08976 -0.207569,-0.201959 -0.353428,-0.336598 -0.145859,-0.134639 -0.297328,-0.269278 -0.454407,-0.403917 -0.145859,-0.134639 -0.274889,-0.241229 -0.387088,-0.319768 0.684416,-0.302939 1.357612,-0.678807 2.019589,-1.127604 0.661976,-0.448797 1.200533,-0.920034 1.61567,-1.413711 z M 23.490837,36.16278 v 1.64933 H 33.20169 V 36.16278 Z M 22.009806,34.984687 H 34.76687 v 4.005516 H 22.009806 Z m 3.652088,-1.901779 h 1.464201 v 5.402398 h -1.464201 z m 3.753068,0 h 1.481031 v 5.402398 h -1.481031 z m -1.868119,9.357425 h 1.582011 v 5.183609 H 27.546843 Z M 42.037387,32.77997 h 10.804797 v 1.178093 H 42.037387 Z m 1.75031,3.046212 v 1.396882 h 7.085388 v -1.396882 z m -1.396882,-0.992964 h 9.946472 v 3.36598 h -9.946472 z m 2.861083,-1.632501 h 1.279073 v 4.426264 h -1.279073 z m 2.810594,0 h 1.295902 v 4.426264 h -1.295902 z m -3.887707,8.381291 v 0.824665 h 6.429022 v -0.824665 z m 0,1.73348 v 0.841495 h 6.429022 v -0.841495 z m 0,-3.45013 v 0.807835 h 6.429022 v -0.807835 z m -1.464202,-0.942474 h 9.424745 v 6.176573 h -9.424745 z m 5.385569,7.068558 1.026624,-0.891985 c 0.471237,0.157079 0.959304,0.330988 1.464201,0.521727 0.504897,0.190739 0.981745,0.381478 1.430542,0.572217 0.460017,0.190739 0.852715,0.370258 1.178093,0.538557 l -1.380052,0.908814 c -0.415138,-0.246839 -0.964915,-0.521727 -1.64933,-0.824665 -0.673197,-0.302938 -1.363223,-0.577826 -2.070078,-0.824665 z m -2.659125,-0.908815 1.127604,0.791006 c -0.538557,0.381477 -1.194923,0.718075 -1.969099,1.009794 -0.762955,0.302938 -1.520301,0.544166 -2.272036,0.723685 -0.100979,-0.157079 -0.235619,-0.342207 -0.403918,-0.555386 -0.157079,-0.201959 -0.308548,-0.375868 -0.454407,-0.521727 0.482457,-0.100979 0.970524,-0.230009 1.464201,-0.387088 0.504897,-0.157079 0.970525,-0.325378 1.396882,-0.504897 0.437577,-0.190739 0.807835,-0.375868 1.110773,-0.555387 z m -4.914331,-13.043173 1.464202,0.420748 c -0.314158,0.976134 -0.690026,1.952268 -1.127604,2.928403 -0.426357,0.964914 -0.897594,1.879338 -1.413711,2.743273 -0.516117,0.863935 -1.060284,1.626891 -1.632501,2.288867 -0.03366,-0.123419 -0.100979,-0.291718 -0.201958,-0.504897 -0.08976,-0.213179 -0.19074,-0.426357 -0.302939,-0.639536 -0.100979,-0.213179 -0.196349,-0.387088 -0.286108,-0.521727 0.482457,-0.549777 0.936865,-1.183703 1.363222,-1.901779 0.437577,-0.718076 0.835885,-1.486642 1.194923,-2.305697 0.370258,-0.830275 0.684416,-1.66616 0.942474,-2.507655 z m -1.346392,4.342115 1.464202,-1.481032 0.05049,0.03366 v 12.656086 h -1.514691 z m 191.137176,6.133162 c -0.38148,0 -0.71247,-0.12903 -0.99296,-0.387088 -0.2805,-0.258059 -0.42075,-0.594657 -0.42075,-1.009794 0,-0.415138 0.14025,-0.751736 0.42075,-1.009794 0.28049,-0.269279 0.61148,-0.403918 0.99296,-0.403918 0.38148,0 0.71247,0.134639 0.99296,0.403918 0.2805,0.258058 0.42075,0.594656 0.42075,1.009794 0,0.415137 -0.14025,0.751735 -0.42075,1.009794 -0.28049,0.258058 -0.61148,0.387088 -0.99296,0.387088 z m 0,8.145672 c -0.38148,0 -0.71247,-0.12903 -0.99296,-0.387088 -0.2805,-0.258059 -0.42075,-0.589047 -0.42075,-0.992964 0,-0.426358 0.14025,-0.768566 0.42075,-1.026624 0.28049,-0.258059 0.61148,-0.387088 0.99296,-0.387088 0.38148,0 0.71247,0.129029 0.99296,0.387088 0.2805,0.258058 0.42075,0.600266 0.42075,1.026624 0,0.403917 -0.14025,0.734905 -0.42075,0.992964 -0.28049,0.258058 -0.61148,0.387088 -0.99296,0.387088 z"
       id="text1-1"
       aria-label="票價　　　　　　　　　　："
       sodipodi:nodetypes="cccccccscccccccccccccccccccccsccscccccccccccccccccccccccccccccccccccccccccccccccccccccccccccccccccccccccccscccccccccccccccccscccccccccccccssscscssssssssssss" /><path
       style="font-weight:bold;font-size:8.39209px;line-height:1;font-family:Helvetica;-inkscape-font-specification:'Helvetica Bold';fill:#ff0000;stroke-width:0.209802"
       d="m 24.717024,49.171481 v 1.069499 h -1.807086 v 4.970511 H 21.639651 V 50.24098 H 19.82437 v -1.069499 z m 1.696448,1.040815 h -1.184236 v -1.077695 h 1.184236 z m -1.184236,0.532702 h 1.184236 v 4.466493 h -1.184236 z m 4.982804,1.6022 q -0.03278,-0.249959 -0.168006,-0.450747 -0.196689,-0.270448 -0.610557,-0.270448 -0.590069,0 -0.807247,0.585971 -0.114736,0.311425 -0.114736,0.827736 0,0.491724 0.114736,0.790856 0.208983,0.557287 0.786758,0.557287 0.40977,0 0.581874,-0.221276 0.172103,-0.221276 0.208983,-0.573678 h 1.19243 q -0.04098,0.532701 -0.385184,1.008034 -0.549091,0.76627 -1.626786,0.76627 -1.077696,0 -1.58581,-0.639241 -0.508115,-0.639241 -0.508115,-1.659569 0,-1.151453 0.561385,-1.790694 0.561385,-0.639242 1.54893,-0.639242 0.840029,0 1.37273,0.376989 0.536799,0.376988 0.635143,1.331752 z m -0.790856,-1.721034 z m 2.77824,-1.434195 h 1.147356 v 3.253574 l 1.454684,-1.680057 h 1.446488 l -1.561224,1.708741 1.622689,2.737264 h -1.409608 l -1.0695,-1.909529 -0.483529,0.504017 v 1.405512 h -1.147356 z m 6.441585,2.397155 q -0.405673,0 -0.631046,0.254057 -0.221276,0.254058 -0.278644,0.688414 H 39.5466 q -0.02868,-0.46304 -0.282741,-0.700707 -0.24996,-0.241764 -0.62285,-0.241764 z m 0,-0.96296 q 0.557287,0 1.003936,0.208983 0.446649,0.208983 0.737586,0.65973 0.262253,0.397477 0.340109,0.921982 0.04508,0.307328 0.03688,0.885103 h -3.056885 q 0.02459,0.672023 0.422063,0.942471 0.241765,0.168006 0.581874,0.168006 0.360597,0 0.585971,-0.204885 0.122931,-0.110638 0.217178,-0.307327 h 1.192431 q -0.04507,0.397477 -0.413868,0.807247 -0.573678,0.651534 -1.606298,0.651534 -0.852322,0 -1.503856,-0.549092 -0.651535,-0.549092 -0.651535,-1.786597 0,-1.159649 0.585971,-1.778402 0.590069,-0.618753 1.528443,-0.618753 z m 0.08195,0 z m 2.364372,0.991644 v -0.831833 h 0.622851 v -1.245701 h 1.155551 v 1.245701 h 0.725293 v 0.831833 h -0.725293 v 2.360275 q 0,0.274546 0.06966,0.344207 0.06966,0.06556 0.426161,0.06556 0.05327,0 0.110638,0 0.06146,-0.0041 0.118833,-0.0082 v 0.87281 l -0.553189,0.02049 q -0.827736,0.02868 -1.130966,-0.286839 -0.196689,-0.200787 -0.196689,-0.618753 v -2.749556 z m 8.662538,1.360436 q 0,-0.51631 -0.237666,-0.913787 -0.233569,-0.397477 -0.762173,-0.397477 -0.635143,0 -0.87281,0.602362 -0.122931,0.319621 -0.122931,0.811345 0,0.778563 0.413868,1.094086 0.245862,0.184396 0.581873,0.184396 0.487627,0 0.741684,-0.376988 0.258155,-0.376989 0.258155,-1.003937 z m -0.663827,-2.331591 q 0.78266,0 1.323557,0.577775 0.544994,0.577776 0.544994,1.696448 0,1.180138 -0.532701,1.798891 -0.528603,0.618752 -1.364534,0.618752 -0.532701,0 -0.885103,-0.26635 -0.192592,-0.147517 -0.376989,-0.430259 v 2.327494 h -1.155551 v -6.224406 h 1.118672 v 0.659729 q 0.188494,-0.290936 0.401575,-0.458942 0.389281,-0.299132 0.92608,-0.299132 z m 5.138515,-0.0082 q 0.03278,0 0.05327,0.0041 0.02459,0 0.102442,0.0041 v 1.196528 q -0.110638,-0.01229 -0.19669,-0.01639 -0.08605,-0.0041 -0.139321,-0.0041 -0.704805,0 -0.946569,0.458942 -0.135224,0.258155 -0.135224,0.794954 v 2.134902 h -1.17604 v -4.466493 h 1.114574 v 0.778563 q 0.270449,-0.44665 0.471236,-0.610558 0.327816,-0.274546 0.852321,-0.274546 z m 2.040653,-0.426161 h -1.184235 v -1.077695 h 1.184235 z m -1.184235,0.532702 h 1.184235 v 4.466493 h -1.184235 z m 4.982805,1.6022 q -0.03278,-0.249959 -0.168006,-0.450747 -0.19669,-0.270448 -0.610557,-0.270448 -0.590069,0 -0.807247,0.585971 -0.114736,0.311425 -0.114736,0.827736 0,0.491724 0.114736,0.790856 0.208982,0.557287 0.786758,0.557287 0.40977,0 0.581874,-0.221276 0.172103,-0.221276 0.208982,-0.573678 h 1.192431 q -0.04098,0.532701 -0.385184,1.008034 -0.549092,0.76627 -1.626787,0.76627 -1.077695,0 -1.58581,-0.639241 -0.508115,-0.639241 -0.508115,-1.659569 0,-1.151453 0.561385,-1.790694 0.561385,-0.639242 1.548931,-0.639242 0.840029,0 1.37273,0.376989 0.536798,0.376988 0.635143,1.331752 z m -0.790856,-1.721034 z m 4.552546,0.96296 q -0.405672,0 -0.631046,0.254057 -0.221276,0.254058 -0.278643,0.688414 h 1.815281 q -0.02868,-0.46304 -0.282742,-0.700707 -0.249959,-0.241764 -0.62285,-0.241764 z m 0,-0.96296 q 0.557287,0 1.003937,0.208983 0.446649,0.208983 0.737586,0.65973 0.262252,0.397477 0.340109,0.921982 0.04507,0.307328 0.03688,0.885103 h -3.056884 q 0.02459,0.672023 0.422063,0.942471 0.241764,0.168006 0.581873,0.168006 0.360598,0 0.585971,-0.204885 0.122931,-0.110638 0.217178,-0.307327 h 1.192431 q -0.04507,0.397477 -0.413868,0.807247 -0.573678,0.651534 -1.606298,0.651534 -0.852322,0 -1.503856,-0.549092 -0.651534,-0.549092 -0.651534,-1.786597 0,-1.159649 0.585971,-1.778402 0.590069,-0.618753 1.528442,-0.618753 z m 0.08195,0 z"
       id="text2-8"
       aria-label="Ticket price" /><path
       style="font-weight:500;font-size:16.8299px;line-height:1;font-family:'Noto Sans TC';-inkscape-font-specification:'Noto Sans TC Medium';fill:#ff0000;stroke-width:0.420747"
       d="m 27.513183,57.974992 h 1.6325 v 5.587527 h -1.6325 z m -5.654847,1.077114 1.396882,-0.605877 c 0.291719,0.336598 0.577827,0.701246 0.858325,1.093944 0.291719,0.392697 0.549777,0.785395 0.774176,1.178093 0.235619,0.381477 0.420747,0.734905 0.555386,1.060283 l -1.481031,0.706856 C 23.849875,62.171247 23.675966,61.812209 23.440347,61.408292 23.215948,61.004374 22.9635,60.600456 22.683002,60.196539 22.413723,59.781401 22.138835,59.399923 21.858336,59.052106 Z m 11.444333,-0.723686 1.598841,0.572216 c -0.258059,0.415138 -0.527337,0.841496 -0.807836,1.279073 -0.280498,0.437577 -0.566606,0.852715 -0.858325,1.245413 -0.280498,0.392697 -0.544166,0.740515 -0.791005,1.043453 l -1.346392,-0.538556 c 0.258059,-0.325379 0.521727,-0.695637 0.791005,-1.110774 0.280499,-0.415137 0.544167,-0.841495 0.791006,-1.279072 0.246838,-0.437577 0.454407,-0.841495 0.622706,-1.211753 z m -8.044693,7.455646 h 1.447372 v 6.008274 h -1.447372 z m 0.875155,0 h 5.335079 v 4.947991 h -5.335079 v -1.346392 h 3.870877 v -2.238377 h -3.870877 z m -4.241135,-2.945233 h 12.403637 v 1.497861 H 23.474007 v 9.256446 h -1.582011 z m 11.427503,0 h 1.565181 v 8.903018 c 0,0.415137 -0.05049,0.740515 -0.151469,0.976134 -0.10098,0.246839 -0.302939,0.431968 -0.605877,0.555387 -0.280498,0.123419 -0.650756,0.196349 -1.110773,0.218788 -0.460017,0.03366 -1.021014,0.05049 -1.68299,0.05049 -0.02244,-0.213179 -0.08415,-0.471237 -0.185129,-0.774175 -0.100979,-0.291719 -0.213179,-0.538557 -0.336598,-0.740516 0.471237,0.01122 0.914424,0.01683 1.329562,0.01683 h 0.824665 c 0.134639,-0.01122 0.224399,-0.03927 0.269278,-0.08415 0.0561,-0.04488 0.08415,-0.129029 0.08415,-0.252448 z m 5.335078,-4.156985 h 13.009514 v 1.178093 H 38.654577 Z m 5.688507,0.387087 h 1.565181 v 6.563662 h -1.565181 z m -6.429022,1.83446 h 14.557864 v 3.702578 H 50.889915 V 62.115147 H 39.445583 v 2.490826 h -1.531521 z m 1.6325,3.854047 c 0.527337,-0.0561 1.138823,-0.13464 1.834459,-0.235619 0.706856,-0.100979 1.436152,-0.207569 2.187887,-0.319768 l 0.05049,0.942475 c -0.639536,0.145859 -1.273462,0.286108 -1.901779,0.420747 -0.617096,0.134639 -1.194922,0.258059 -1.733479,0.370258 z m 0.488067,-1.68299 0.437578,-0.807835 c 0.347818,0.0561 0.712466,0.129029 1.093943,0.218788 0.392698,0.08976 0.768566,0.185129 1.127604,0.286109 0.359037,0.100979 0.656365,0.207569 0.891984,0.319768 l -0.437577,0.908814 C 42.912542,63.887897 42.615214,63.775697 42.256176,63.663498 41.897138,63.551299 41.52127,63.444709 41.128573,63.34373 40.747095,63.231531 40.382447,63.141771 40.034629,63.074452 Z m 9.694023,-0.925645 0.656366,0.875155 c -0.314158,0.123419 -0.661976,0.241229 -1.043454,0.353428 -0.370257,0.112199 -0.746125,0.213179 -1.127603,0.302938 -0.370258,0.08976 -0.712466,0.168299 -1.026624,0.235619 L 46.66561,63.124942 c 0.302938,-0.06732 0.639536,-0.15708 1.009794,-0.269279 0.381478,-0.123419 0.751736,-0.246839 1.110774,-0.370258 0.359037,-0.134639 0.673195,-0.246839 0.942474,-0.336598 z m -3.29866,2.861083 0.336598,-0.925644 c 0.426357,0.04488 0.880765,0.1122 1.363222,0.201959 0.493677,0.08976 0.964914,0.190739 1.413711,0.302938 0.460017,0.100979 0.841495,0.207569 1.144433,0.319768 l -0.319768,1.026624 C 50.06525,65.823336 49.683772,65.711136 49.223755,65.598937 48.774958,65.475518 48.30372,65.363318 47.810043,65.262339 47.327586,65.16136 46.867569,65.07721 46.429992,65.00989 Z m -8.63374,1.093944 h 14.827143 v 1.262242 H 37.796252 Z m 4.931161,3.164021 h 1.464202 v 4.190646 h -1.464202 z m 3.685749,0 h 1.447371 v 4.190646 H 46.413162 Z M 39.075325,68.40953 h 11.444332 v 1.279073 h -9.946471 v 3.870877 h -1.497861 z m 11.090905,0 h 1.53152 v 3.668919 c 0,0.347818 -0.03927,0.617096 -0.117809,0.807835 -0.07854,0.201959 -0.235618,0.353428 -0.471237,0.454407 -0.235619,0.112199 -0.521727,0.179519 -0.858325,0.201959 -0.336598,0.02244 -0.729296,0.03366 -1.178093,0.03366 -0.03366,-0.190739 -0.10098,-0.409527 -0.201959,-0.656366 -0.08976,-0.246839 -0.185129,-0.465627 -0.286108,-0.656366 0.302938,0.01122 0.577826,0.01683 0.824665,0.01683 h 0.521727 c 0.08976,-0.01122 0.151469,-0.03366 0.185129,-0.06732 0.03366,-0.02244 0.05049,-0.07293 0.05049,-0.151469 z m -5.772656,-1.817629 1.733479,0.05049 c -0.157079,0.471237 -0.325378,0.931255 -0.504897,1.380052 -0.168299,0.448797 -0.325378,0.841495 -0.471237,1.178093 l -1.396882,-0.13464 c 0.123419,-0.359037 0.246839,-0.768565 0.370258,-1.228582 0.123419,-0.460017 0.213179,-0.875155 0.269279,-1.245413 z m 9.710852,0.134639 c 0.706856,-0.157079 1.537131,-0.359037 2.490826,-0.605876 0.953694,-0.258059 1.918608,-0.521727 2.894743,-0.791006 l 0.201958,1.464202 c -0.886375,0.258059 -1.783969,0.516117 -2.692784,0.774175 -0.897595,0.246839 -1.71665,0.476847 -2.457165,0.690026 z m 0.218789,-5.436058 h 5.688506 v 1.481032 h -5.688506 z m 2.171057,-3.31549 h 1.565181 v 13.733199 c 0,0.403917 -0.05049,0.718075 -0.151469,0.942474 -0.100979,0.235619 -0.274888,0.409528 -0.521727,0.521727 -0.246839,0.123419 -0.566607,0.201959 -0.959304,0.235619 -0.392698,0.03366 -0.880765,0.05049 -1.464202,0.05049 -0.02244,-0.201959 -0.07854,-0.443188 -0.168299,-0.723686 -0.08976,-0.280499 -0.185129,-0.521727 -0.286108,-0.723686 0.359038,0.01122 0.695636,0.01683 1.009794,0.01683 h 0.656366 c 0.123419,-0.01122 0.207569,-0.03927 0.252449,-0.08415 0.04488,-0.04488 0.06732,-0.123419 0.06732,-0.235618 z m 5.351909,0.572216 h 4.476753 v 1.481032 h -4.476753 z m -1.901779,6.79928 h 7.708094 v 1.497862 h -7.708094 z m 7.152708,0 h 0.319768 l 0.286108,-0.05049 1.026624,0.437577 c -0.359038,1.133213 -0.847105,2.137397 -1.464201,3.012552 -0.617097,0.863935 -1.329563,1.615671 -2.137398,2.255207 -0.807835,0.628316 -1.69421,1.155653 -2.659124,1.582011 -0.953695,0.426357 -1.963489,0.768565 -3.029382,1.026624 -0.04488,-0.145859 -0.1122,-0.308548 -0.201959,-0.488067 -0.08976,-0.179519 -0.185129,-0.359038 -0.286108,-0.538557 -0.100979,-0.168299 -0.201959,-0.308549 -0.302939,-0.420748 0.976135,-0.190739 1.907389,-0.465627 2.793764,-0.824665 0.897595,-0.370258 1.71665,-0.824665 2.457166,-1.363222 0.751735,-0.538557 1.396881,-1.172483 1.935438,-1.901779 0.549777,-0.729295 0.970524,-1.55396 1.262243,-2.473995 z m -5.368739,1.144434 c 0.460017,0.964914 1.071504,1.828849 1.83446,2.591804 0.774175,0.751736 1.6886,1.391272 2.743273,1.918609 1.054674,0.516117 2.227157,0.897594 3.51745,1.144433 -0.112199,0.112199 -0.235619,0.258059 -0.370258,0.437578 -0.123419,0.179519 -0.241229,0.359038 -0.353428,0.538557 -0.112199,0.190739 -0.207569,0.359038 -0.286108,0.504897 -2.008369,-0.482457 -3.719409,-1.279073 -5.13312,-2.389846 -1.413712,-1.121993 -2.524486,-2.541315 -3.332321,-4.257965 z m -0.235618,-7.943714 h 1.497861 v 1.884949 c 0,0.538557 -0.07293,1.088334 -0.218789,1.649331 -0.134639,0.549777 -0.392698,1.082723 -0.774175,1.59884 -0.381478,0.516117 -0.936865,0.964915 -1.66616,1.346392 -0.0561,-0.100979 -0.15147,-0.224399 -0.286109,-0.370258 -0.134639,-0.157079 -0.269278,-0.308548 -0.403917,-0.454407 -0.134639,-0.157079 -0.252449,-0.269278 -0.353428,-0.336598 0.650756,-0.336598 1.133213,-0.695636 1.447371,-1.077114 0.314158,-0.381477 0.516117,-0.779785 0.605877,-1.194922 0.100979,-0.415138 0.151469,-0.813446 0.151469,-1.194923 z m 4.106495,0 h 1.514692 v 3.803558 c 0,0.246839 0.01683,0.420748 0.05049,0.521727 0.03366,0.100979 0.11781,0.151469 0.252449,0.151469 h 0.336598 0.454407 0.336598 c 0.134639,0 0.286108,-0.0056 0.454407,-0.01683 0.179519,-0.02244 0.325379,-0.05049 0.437578,-0.08415 0.01122,0.201959 0.02244,0.431967 0.03366,0.690026 0.02244,0.258058 0.05049,0.476847 0.08415,0.656366 -0.112199,0.04488 -0.258058,0.07293 -0.437577,0.08415 -0.179519,0.01122 -0.359038,0.01683 -0.538557,0.01683 h -0.403918 -0.504897 -0.387087 c -0.460017,0 -0.813445,-0.06732 -1.060284,-0.201959 -0.246839,-0.134639 -0.415138,-0.353427 -0.504897,-0.656366 -0.07854,-0.302938 -0.11781,-0.695636 -0.11781,-1.178093 z m 8.667397,0.403918 h 4.779692 v 1.615671 h -4.779692 z m 3.988687,0 h 1.6325 c 0,0.516117 0.01683,1.116384 0.05049,1.800799 0.04488,0.673197 0.140249,1.396883 0.286108,2.171058 0.145859,0.762955 0.370258,1.553961 0.673196,2.373016 0.302939,0.819055 0.701246,1.6325 1.194923,2.440335 0.504897,0.807835 1.138824,1.593231 1.901779,2.356186 0.762955,0.751736 1.68299,1.447372 2.760104,2.086908 -0.112199,0.08976 -0.252449,0.213179 -0.420748,0.370258 -0.168299,0.168299 -0.330988,0.342208 -0.488067,0.521727 -0.157079,0.179519 -0.280498,0.336598 -0.370258,0.471237 -1.099553,-0.673196 -2.042028,-1.413712 -2.827423,-2.221547 -0.785395,-0.819055 -1.447371,-1.68299 -1.985928,-2.591805 -0.527337,-0.908815 -0.953695,-1.823239 -1.279073,-2.743273 -0.325378,-0.920035 -0.572216,-1.81202 -0.740515,-2.675955 -0.157079,-0.863935 -0.263669,-1.66616 -0.319768,-2.406675 -0.04488,-0.751736 -0.06732,-1.402492 -0.06732,-1.952269 z m -0.589047,3.48379 1.8008,0.319768 c -0.392698,1.69421 -0.908815,3.225731 -1.548351,4.594563 -0.639536,1.357612 -1.413711,2.552535 -2.322526,3.584768 -0.897595,1.032234 -1.957879,1.912999 -3.180852,2.642295 -0.08976,-0.123419 -0.224398,-0.263669 -0.403917,-0.420748 -0.179519,-0.157079 -0.364648,-0.319768 -0.555387,-0.488067 -0.179519,-0.168299 -0.342208,-0.297328 -0.488067,-0.387087 1.828849,-0.942475 3.276221,-2.238377 4.342114,-3.887708 1.077114,-1.66055 1.862509,-3.646478 2.356186,-5.957784 z m 13.564902,0.504897 h 8.835703 v 1.481031 h -8.835703 z m -2.053248,3.534279 h 12.992681 v 1.447371 H 89.177939 Z m -0.791005,5.217269 h 14.608356 v 1.464201 H 88.386934 Z m 6.395362,-8.078352 h 1.69982 v 8.785208 h -1.69982 z m -4.325284,4.99848 1.295902,-0.521727 c 0.224399,0.291719 0.437577,0.617097 0.639536,0.976134 0.213179,0.347818 0.403918,0.695636 0.572217,1.043454 0.179519,0.336598 0.308549,0.639536 0.387088,0.908815 l -1.380052,0.605876 c -0.07854,-0.269278 -0.196349,-0.577826 -0.353428,-0.925644 -0.157079,-0.347818 -0.336598,-0.706856 -0.538557,-1.077114 -0.201959,-0.370258 -0.409527,-0.706856 -0.622706,-1.009794 z m 8.970337,-0.521727 1.514691,0.572217 c -0.31416,0.527337 -0.64515,1.060283 -0.992964,1.59884 -0.347818,0.538557 -0.667586,0.998575 -0.959304,1.380052 l -1.211753,-0.521727 c 0.190739,-0.269278 0.387087,-0.577826 0.589046,-0.925644 0.201959,-0.359038 0.398308,-0.723686 0.589047,-1.093944 0.190739,-0.370257 0.347818,-0.706855 0.471237,-1.009794 z m -3.147191,-9.323765 c 0.392697,0.437577 0.869544,0.875155 1.430541,1.312732 0.572217,0.437578 1.189313,0.852716 1.851289,1.245413 0.661972,0.381478 1.346392,0.729296 2.053252,1.043454 0.71807,0.314158 1.41371,0.572216 2.0869,0.774175 -0.1122,0.112199 -0.24123,0.252449 -0.38708,0.420748 -0.14586,0.168299 -0.2805,0.336598 -0.40392,0.504897 -0.12342,0.168299 -0.23001,0.325378 -0.31977,0.471237 -0.68441,-0.246839 -1.38005,-0.549777 -2.08691,-0.908814 -0.695634,-0.359038 -1.385659,-0.762956 -2.070075,-1.211753 -0.673196,-0.460017 -1.307122,-0.942475 -1.901779,-1.447372 -0.594657,-0.504897 -1.121994,-1.026624 -1.582011,-1.565181 z m -0.706856,-0.959304 1.481031,0.673196 c -0.617097,0.942475 -1.357612,1.80641 -2.221547,2.591805 -0.863935,0.774175 -1.812019,1.458591 -2.844253,2.053248 -1.032234,0.583436 -2.103738,1.077113 -3.214511,1.481031 -0.112199,-0.224399 -0.269278,-0.471237 -0.471237,-0.740516 -0.201959,-0.280498 -0.403918,-0.521727 -0.605877,-0.723686 1.065894,-0.325378 2.098128,-0.746125 3.096702,-1.262242 0.998574,-0.516117 1.907389,-1.116384 2.726444,-1.8008 0.830275,-0.684415 1.514691,-1.441761 2.053248,-2.272036 z m 9.441578,1.800799 h 7.30417 v 2.928403 h -1.24541 v -1.64933 h -4.88067 v 1.64933 h -1.17809 z m 1.06028,8.768379 h 5.43606 v 5.166779 h -1.41371 v -3.904537 h -2.65913 v 3.921367 h -1.36322 z m 0.48807,3.433299 h 4.47675 v 1.245413 h -4.47675 z m 0.82466,-10.485028 1.24542,0.218789 c -0.26928,0.774175 -0.63954,1.514691 -1.11078,2.221547 -0.47123,0.695636 -1.07711,1.323952 -1.81763,1.884949 -0.0785,-0.168299 -0.20196,-0.359038 -0.37025,-0.572217 -0.15708,-0.213179 -0.30855,-0.375868 -0.45441,-0.488067 0.66197,-0.448797 1.19492,-0.959304 1.59884,-1.531521 0.41514,-0.583437 0.71808,-1.161263 0.90881,-1.73348 z m 0.31977,1.127603 h 2.96206 v 1.194923 h -3.46695 z m 2.62547,0 h 0.26927 l 0.21879,-0.05049 0.80784,0.555386 c -0.3927,1.021014 -0.92004,1.924219 -1.58201,2.709615 -0.65076,0.774175 -1.38567,1.436151 -2.20472,1.985928 -0.80783,0.538557 -1.64372,0.976134 -2.50765,1.312732 -0.0561,-0.123419 -0.129,-0.269278 -0.21879,-0.437577 -0.0898,-0.168299 -0.18513,-0.330988 -0.28611,-0.488067 -0.10098,-0.157079 -0.19635,-0.280499 -0.28611,-0.370258 0.83027,-0.269279 1.62689,-0.633927 2.38985,-1.093944 0.77417,-0.471237 1.45298,-1.032234 2.03641,-1.68299 0.59466,-0.650756 1.04907,-1.380052 1.36323,-2.187887 z m -2.74328,-4.005516 1.27908,-0.454407 c 0.14585,0.314158 0.29732,0.661976 0.4544,1.043454 0.15708,0.381477 0.2805,0.706855 0.37026,0.976134 l -1.34639,0.538557 c -0.0673,-0.269279 -0.17391,-0.605877 -0.31977,-1.009794 -0.14586,-0.403918 -0.29172,-0.768566 -0.43758,-1.093944 z m 5.18361,0.269279 h 7.43882 v 1.363221 h -7.43882 z m 1.90178,6.563661 v 1.295902 h 3.55111 v -1.295902 z m 0,2.473995 v 1.346392 h 3.55111 v -1.346392 z m 0,-4.98165 v 1.312732 h 3.55111 v -1.312732 z m -1.43054,-1.262243 h 6.49634 v 8.835698 h -6.49634 z m 2.52448,-2.070078 1.5147,0.235619 c -0.13464,0.471237 -0.27489,0.942475 -0.42075,1.413712 -0.13464,0.460017 -0.25806,0.863934 -0.37026,1.211752 l -1.17809,-0.302938 c 0.0785,-0.359038 0.16269,-0.779785 0.25245,-1.262242 0.0898,-0.493677 0.15707,-0.925645 0.20195,-1.295903 z m -0.70685,11.057245 1.02662,0.992964 c -0.49367,0.403918 -1.0715,0.802226 -1.73348,1.194923 -0.65075,0.392698 -1.25663,0.723686 -1.81763,0.992964 -0.0785,-0.168299 -0.18513,-0.364647 -0.31976,-0.589046 -0.13464,-0.224399 -0.25806,-0.415138 -0.37026,-0.572217 0.34781,-0.168299 0.72368,-0.364647 1.1276,-0.589046 0.40392,-0.235619 0.79101,-0.476847 1.16126,-0.723686 0.37026,-0.258059 0.67881,-0.493677 0.92565,-0.706856 z m 1.64933,0.925645 0.85832,-0.992965 c 0.31416,0.190739 0.64515,0.409528 0.99297,0.656367 0.35903,0.246838 0.70124,0.499286 1.02662,0.757345 0.3366,0.246839 0.60588,0.471237 0.80784,0.673196 l -0.90882,1.110774 c -0.20196,-0.213179 -0.46002,-0.454408 -0.77417,-0.723686 -0.31416,-0.258059 -0.64515,-0.516117 -0.99297,-0.774176 -0.34781,-0.269278 -0.68441,-0.504896 -1.00979,-0.706855 z m -10.14843,-6.025105 0.90881,-0.942474 c 0.38148,0.224399 0.79662,0.465627 1.24542,0.723685 0.44879,0.258059 0.89759,0.521727 1.34639,0.791006 0.46001,0.269278 0.88637,0.532946 1.27907,0.791005 0.40392,0.258059 0.75174,0.482457 1.04345,0.673196 l -0.94247,1.127603 c -0.35904,-0.280498 -0.81906,-0.605876 -1.38005,-0.976134 -0.561,-0.370258 -1.15005,-0.746126 -1.76714,-1.127603 -0.6171,-0.392698 -1.19493,-0.746126 -1.73348,-1.060284 z m 123.75025,3.12061 c -0.38148,0 -0.71247,-0.12903 -0.99296,-0.387088 -0.2805,-0.258059 -0.42075,-0.594657 -0.42075,-1.009794 0,-0.415138 0.14025,-0.751736 0.42075,-1.009794 0.28049,-0.269279 0.61148,-0.403918 0.99296,-0.403918 0.38148,0 0.71247,0.134639 0.99296,0.403918 0.2805,0.258058 0.42075,0.594656 0.42075,1.009794 0,0.415137 -0.14025,0.751735 -0.42075,1.009794 -0.28049,0.258058 -0.61148,0.387088 -0.99296,0.387088 z m 0,8.145672 c -0.38148,0 -0.71247,-0.12903 -0.99296,-0.387088 -0.2805,-0.258059 -0.42075,-0.589047 -0.42075,-0.992964 0,-0.426358 0.14025,-0.768566 0.42075,-1.026624 0.28049,-0.258059 0.61148,-0.387088 0.99296,-0.387088 0.38148,0 0.71247,0.129029 0.99296,0.387088 0.2805,0.258058 0.42075,0.600266 0.42075,1.026624 0,0.403917 -0.14025,0.734905 -0.42075,0.992964 -0.28049,0.258058 -0.61148,0.387088 -0.99296,0.387088 z"
       id="text1-9"
       aria-label="尚需投入金額　　　　　　："
       sodipodi:nodetypes="ccccccccccccccccsccccsccccccccccccccccccccccccsccccccsccsccccccccccccccccccccccccccccccsccsccccccccccccccccccccccccccccccccccccccccccccsccscccsccsccccccscccccccccccccccsccscscscsscccccccccccccccccccscccccccccccccccccccscsccccscscccsssccsccccssccsscsccccccccccsccccscccsccccccccsccccccccccccccccccccccccccccccsscccscccsccccccsscccscccccccccsccccccccccccccccccccccccccccccccccccccccccccccscccccccsccscccccccccccccccccccccccccccccccccccccscccccccccccccccsccccsccssscscssssssssssss" /><path
       style="font-weight:bold;font-size:8.39209px;line-height:1;font-family:Helvetica;-inkscape-font-specification:'Helvetica Bold';fill:#ff0000;stroke-width:0.209802"
       d="m 21.590479,76.223349 v 1.622689 h 1.430097 q 0.426161,0 0.639241,-0.09834 0.376989,-0.172104 0.376989,-0.680219 0,-0.549091 -0.364695,-0.737586 -0.204885,-0.10654 -0.614655,-0.10654 z m 1.729229,-1.049011 q 0.635144,0.01229 0.975253,0.155712 0.344207,0.14342 0.581873,0.422064 0.19669,0.229471 0.311426,0.508114 0.114735,0.278644 0.114735,0.635144 0,0.430258 -0.217178,0.848224 -0.217178,0.413868 -0.717097,0.585971 0.417965,0.168006 0.590068,0.479431 0.176202,0.307327 0.176202,0.942471 v 0.405672 q 0,0.413868 0.03278,0.561385 0.04917,0.233569 0.229471,0.344207 v 0.151615 h -1.38912 q -0.05737,-0.200787 -0.08195,-0.323718 -0.04917,-0.254058 -0.05327,-0.520408 l -0.0082,-0.561385 q -0.0082,-0.577776 -0.21308,-0.770368 -0.200787,-0.192592 -0.758074,-0.192592 h -1.303069 v 2.368471 h -1.233408 v -6.04001 z m 4.736941,2.417643 q -0.405672,0 -0.631045,0.254057 -0.221276,0.254058 -0.278644,0.688414 h 1.815281 q -0.02868,-0.46304 -0.282741,-0.700707 -0.24996,-0.241764 -0.622851,-0.241764 z m 0,-0.96296 q 0.557288,0 1.003937,0.208983 0.446649,0.208983 0.737586,0.65973 0.262253,0.397477 0.340109,0.921982 0.04508,0.307328 0.03688,0.885104 h -3.056884 q 0.02459,0.672022 0.422063,0.942471 0.241765,0.168005 0.581874,0.168005 0.360597,0 0.585971,-0.204885 0.122931,-0.110638 0.217178,-0.307327 h 1.192431 q -0.04508,0.397477 -0.413868,0.807247 -0.573678,0.651534 -1.606299,0.651534 -0.852321,0 -1.503855,-0.549092 -0.651535,-0.549092 -0.651535,-1.786597 0,-1.159649 0.585971,-1.778402 0.590069,-0.618753 1.528442,-0.618753 z m 0.08195,0 z m 7.814314,0.02049 q 0.295035,0 0.581874,0.114736 0.286839,0.114735 0.520408,0.401574 0.188494,0.233569 0.254057,0.573678 0.04098,0.225374 0.04098,0.65973 l -0.0082,2.81512 h -1.196529 v -2.843804 q 0,-0.254057 -0.08195,-0.417965 -0.155712,-0.311426 -0.573678,-0.311426 -0.483528,0 -0.667925,0.401575 -0.09425,0.21308 -0.09425,0.512212 v 2.659408 h -1.17604 V 78.55494 q 0,-0.397476 -0.08195,-0.577775 -0.147517,-0.323719 -0.577776,-0.323719 -0.499919,0 -0.672022,0.323719 -0.09425,0.184396 -0.09425,0.549092 v 2.688091 H 30.94143 V 76.75605 h 1.135063 v 0.651534 q 0.217178,-0.348304 0.40977,-0.495821 0.340109,-0.262253 0.881006,-0.262253 0.512212,0 0.827735,0.225373 0.254057,0.208983 0.385184,0.536799 0.229471,-0.393379 0.56958,-0.577776 0.360598,-0.184396 0.803149,-0.184396 z m 4.933631,2.393057 q -0.110638,0.06966 -0.225374,0.114735 -0.110638,0.04098 -0.307327,0.07786 l -0.262253,0.04917 q -0.368793,0.06556 -0.528604,0.15981 -0.270448,0.159811 -0.270448,0.495822 0,0.299132 0.163908,0.434356 0.168006,0.131127 0.405673,0.131127 0.376988,0 0.692511,-0.221276 0.31962,-0.221276 0.331914,-0.807247 z m -0.708903,-0.544994 q 0.323719,-0.04098 0.463041,-0.102443 0.249959,-0.10654 0.249959,-0.331914 0,-0.274545 -0.192592,-0.376988 -0.188494,-0.10654 -0.557287,-0.10654 -0.413868,0 -0.585971,0.204885 -0.122931,0.151615 -0.163908,0.40977 h -1.126868 q 0.03688,-0.585971 0.327816,-0.96296 0.463041,-0.590068 1.589908,-0.590068 0.733488,0 1.303069,0.290936 0.56958,0.290937 0.56958,1.098184 v 2.04885 q 0,0.21308 0.0082,0.51631 0.01229,0.229471 0.06966,0.311425 0.05737,0.08195 0.172104,0.135224 v 0.172104 h -1.270287 q -0.05327,-0.135224 -0.07376,-0.254058 -0.02049,-0.118833 -0.03278,-0.270448 -0.241765,0.262253 -0.557288,0.44665 -0.376988,0.217178 -0.852321,0.217178 -0.60646,0 -1.003937,-0.344207 -0.393379,-0.348305 -0.393379,-0.983448 0,-0.823638 0.635144,-1.192431 0.348304,-0.200787 1.024425,-0.286839 z m 0.06147,-1.868552 z m 4.052627,-0.413867 h -1.184235 v -1.077695 h 1.184235 z m -1.184235,0.532701 h 1.184235 v 4.466493 h -1.184235 z m 4.79021,-0.10654 q 0.692512,0 1.130966,0.364695 0.442551,0.360597 0.442551,1.200626 v 3.007712 h -1.196528 v -2.716775 q 0,-0.352403 -0.09425,-0.540897 -0.172104,-0.344207 -0.655632,-0.344207 -0.594167,0 -0.815443,0.504018 -0.114735,0.26635 -0.114735,0.680218 v 2.417643 H 45.430898 V 76.75605 h 1.126867 v 0.651534 q 0.225374,-0.344206 0.426161,-0.495821 0.360598,-0.270448 0.913787,-0.270448 z m -0.430258,-0.01229 z m 4.282096,-0.413867 h -1.184235 v -1.077695 h 1.184235 z m -1.184235,0.532701 h 1.184235 v 4.466493 h -1.184235 z m 4.790213,-0.10654 q 0.692511,0 1.130965,0.364695 0.442551,0.360597 0.442551,1.200626 v 3.007712 h -1.196528 v -2.716775 q 0,-0.352403 -0.09425,-0.540897 -0.172104,-0.344207 -0.655632,-0.344207 -0.594167,0 -0.815442,0.504018 -0.114736,0.26635 -0.114736,0.680218 v 2.417643 H 52.888713 V 76.75605 h 1.126868 v 0.651534 q 0.225373,-0.344206 0.42616,-0.495821 0.360598,-0.270448 0.913788,-0.270448 z m -0.430259,-0.01229 z m 4.999192,3.626465 q 0.40977,0 0.692511,-0.307327 0.282742,-0.311426 0.282742,-0.987546 0,-0.635144 -0.270448,-0.967057 -0.266351,-0.331914 -0.717098,-0.331914 -0.614655,0 -0.848224,0.577776 -0.122931,0.307327 -0.122931,0.758074 0,0.389282 0.131126,0.692511 0.237667,0.565483 0.852322,0.565483 z m -0.290937,-3.614171 q 0.336012,0 0.585971,0.102442 0.426161,0.176201 0.688414,0.647437 v -0.643339 h 1.135063 v 4.237022 q 0,0.864614 -0.290937,1.303068 -0.499919,0.753977 -1.917723,0.753977 -0.85642,0 -1.397316,-0.336011 -0.540896,-0.336012 -0.598264,-1.003937 h 1.270287 q 0.04917,0.204885 0.15981,0.295035 0.188494,0.15981 0.635144,0.15981 0.631045,0 0.844126,-0.422063 0.139322,-0.270448 0.139322,-0.90969 v -0.286839 q -0.168006,0.286839 -0.360598,0.430259 -0.348305,0.26635 -0.905592,0.26635 -0.860517,0 -1.376827,-0.602362 -0.512212,-0.606459 -0.512212,-1.63908 0,-0.995741 0.495821,-1.671861 0.495822,-0.680218 1.405511,-0.680218 z m 0.372891,-0.01229 z m 7.920853,2.413546 q -0.110637,0.06966 -0.225373,0.114735 -0.110638,0.04098 -0.307328,0.07786 l -0.262252,0.04917 q -0.368793,0.06556 -0.528604,0.15981 -0.270448,0.159811 -0.270448,0.495822 0,0.299132 0.163908,0.434356 0.168006,0.131127 0.405672,0.131127 0.376989,0 0.692512,-0.221276 0.31962,-0.221276 0.331913,-0.807247 z m -0.708902,-0.544994 q 0.323719,-0.04098 0.46304,-0.102443 0.24996,-0.10654 0.24996,-0.331914 0,-0.274545 -0.192592,-0.376988 -0.188494,-0.10654 -0.557287,-0.10654 -0.413868,0 -0.585971,0.204885 -0.122931,0.151615 -0.163908,0.40977 h -1.126868 q 0.03688,-0.585971 0.327816,-0.96296 0.463041,-0.590068 1.589908,-0.590068 0.733488,0 1.303069,0.290936 0.56958,0.290937 0.56958,1.098184 v 2.04885 q 0,0.21308 0.0082,0.51631 0.01229,0.229471 0.06966,0.311425 0.05737,0.08195 0.172104,0.135224 v 0.172104 h -1.270287 q -0.05327,-0.135224 -0.07376,-0.254058 -0.02049,-0.118833 -0.03278,-0.270448 -0.241764,0.262253 -0.557287,0.44665 -0.376988,0.217178 -0.852321,0.217178 -0.60646,0 -1.003937,-0.344207 -0.393379,-0.348305 -0.393379,-0.983448 0,-0.823638 0.635143,-1.192431 0.348305,-0.200787 1.024425,-0.286839 z m 0.06147,-1.868552 z m 7.843,0.02049 q 0.295034,0 0.581873,0.114736 0.286839,0.114735 0.520408,0.401574 0.188494,0.233569 0.254057,0.573678 0.04098,0.225374 0.04098,0.65973 l -0.0082,2.81512 h -1.196529 v -2.843804 q 0,-0.254057 -0.08195,-0.417965 -0.155712,-0.311426 -0.573678,-0.311426 -0.483528,0 -0.667925,0.401575 -0.09425,0.21308 -0.09425,0.512212 v 2.659408 H 72.72158 V 78.55494 q 0,-0.397476 -0.08195,-0.577775 -0.147517,-0.323719 -0.577775,-0.323719 -0.49992,0 -0.672023,0.323719 -0.09425,0.184396 -0.09425,0.549092 v 2.688091 H 70.111345 V 76.75605 h 1.135063 v 0.651534 q 0.217178,-0.348304 0.40977,-0.495821 0.340109,-0.262253 0.881006,-0.262253 0.512212,0 0.827735,0.225373 0.254058,0.208983 0.385184,0.536799 0.229471,-0.393379 0.56958,-0.577776 0.360598,-0.184396 0.80315,-0.184396 z m 4.474686,3.7412 q 0.512213,0 0.786759,-0.364695 0.274546,-0.364696 0.274546,-1.036718 0,-0.672023 -0.274546,-1.032621 -0.274546,-0.364695 -0.786759,-0.364695 -0.512212,0 -0.790856,0.364695 -0.274546,0.360598 -0.274546,1.032621 0,0.672022 0.274546,1.036718 0.278644,0.364695 0.790856,0.364695 z m 2.286517,-1.401413 q 0,0.983448 -0.565483,1.684154 -0.565482,0.696609 -1.716936,0.696609 -1.151454,0 -1.716936,-0.696609 -0.565483,-0.700706 -0.565483,-1.684154 0,-0.967058 0.565483,-1.67596 0.565482,-0.708902 1.716936,-0.708902 1.151454,0 1.716936,0.708902 0.565483,0.708902 0.565483,1.67596 z m -2.282419,-2.360276 z m 4.282098,0.118834 v 2.692189 q 0,0.381086 0.09015,0.573678 0.15981,0.340109 0.626948,0.340109 0.598264,0 0.81954,-0.483529 0.114736,-0.262253 0.114736,-0.692511 v -2.429936 h 1.184235 v 4.466493 h -1.135063 v -0.631046 q -0.01639,0.02049 -0.08195,0.122931 -0.06556,0.102443 -0.155713,0.180299 -0.274546,0.245862 -0.532701,0.336011 -0.254057,0.09015 -0.598264,0.09015 -0.991643,0 -1.33585,-0.713 -0.192592,-0.393379 -0.192592,-1.159649 v -2.692189 z m 0.81954,-0.118834 z m 5.617949,0.01229 q 0.692511,0 1.130965,0.364695 0.442552,0.360597 0.442552,1.200626 v 3.007712 h -1.196529 v -2.716775 q 0,-0.352403 -0.09425,-0.540897 -0.172103,-0.344207 -0.655632,-0.344207 -0.594166,0 -0.815442,0.504018 -0.114736,0.26635 -0.114736,0.680218 v 2.417643 H 87.854388 V 76.75605 h 1.126868 v 0.651534 q 0.225374,-0.344206 0.426161,-0.495821 0.360597,-0.270448 0.913787,-0.270448 z m -0.430259,-0.01229 z m 2.622526,0.991644 v -0.831833 h 0.622851 v -1.245701 h 1.155551 v 1.245701 h 0.725293 v 0.831833 h -0.725293 v 2.360275 q 0,0.274546 0.06966,0.344207 0.06966,0.06556 0.426161,0.06556 0.05327,0 0.110638,0 0.06147,-0.0041 0.118833,-0.0082 v 0.87281 l -0.553189,0.02049 q -0.827736,0.02868 -1.130966,-0.286839 -0.196689,-0.200787 -0.196689,-0.618752 v -2.749557 z m 7.232439,-0.97935 q 0.40567,0 0.7212,0.180298 0.31552,0.176201 0.51221,0.491724 v -2.130804 h 1.18423 v 6.031815 h -1.13506 v -0.618753 q -0.24996,0.397477 -0.56958,0.577776 -0.31962,0.180299 -0.794954,0.180299 -0.782661,0 -1.31946,-0.631046 -0.532701,-0.635144 -0.532701,-1.626787 0,-1.143258 0.524506,-1.79889 0.528603,-0.655632 1.409609,-0.655632 z m 0.254057,3.728907 q 0.495823,0 0.753973,-0.368793 0.25816,-0.368793 0.25816,-0.954765 0,-0.81954 -0.41387,-1.171942 -0.25406,-0.21308 -0.59007,-0.21308 -0.51221,0 -0.753974,0.389281 -0.237667,0.385184 -0.237667,0.958862 0,0.618753 0.241765,0.991644 0.245862,0.368793 0.741683,0.368793 z m 4.388633,-3.622367 v 2.692189 q 0,0.381086 0.0902,0.573678 0.15981,0.340109 0.62695,0.340109 0.59826,0 0.81954,-0.483529 0.11474,-0.262253 0.11474,-0.692511 v -2.429936 h 1.18423 v 4.466493 h -1.13506 v -0.631046 q -0.0164,0.02049 -0.082,0.122931 -0.0656,0.102443 -0.15571,0.180299 -0.27454,0.245862 -0.5327,0.336011 -0.25406,0.09015 -0.59826,0.09015 -0.99165,0 -1.33585,-0.713 -0.1926,-0.393379 -0.1926,-1.159649 v -2.692189 z m 0.81954,-0.118834 z m 4.90495,0.96296 q -0.40567,0 -0.63104,0.254057 -0.22128,0.254058 -0.27864,0.688414 h 1.81528 q -0.0287,-0.46304 -0.28275,-0.700707 -0.24995,-0.241764 -0.62285,-0.241764 z m 0,-0.96296 q 0.55729,0 1.00394,0.208983 0.44665,0.208983 0.73759,0.65973 0.26225,0.397477 0.34011,0.921982 0.0451,0.307328 0.0369,0.885104 h -3.05689 q 0.0246,0.672022 0.42206,0.942471 0.24177,0.168005 0.58188,0.168005 0.3606,0 0.58597,-0.204885 0.12293,-0.110638 0.21718,-0.307327 h 1.19243 q -0.0451,0.397477 -0.41387,0.807247 -0.57368,0.651534 -1.6063,0.651534 -0.85232,0 -1.50385,-0.549092 -0.65154,-0.549092 -0.65154,-1.786597 0,-1.159649 0.58597,-1.778402 0.59007,-0.618753 1.52844,-0.618753 z m 0.082,0 z"
       id="text2-9"
       aria-label="Remaining amount due" /></g></svg>
