<?xml version="1.0" encoding="UTF-8" standalone="no"?>
<!-- Created with Inkscape (http://www.inkscape.org/) -->

<svg
   width="1600"
   height="500"
   viewBox="0 0 423.33334 132.29166"
   version="1.1"
   id="svg1"
   xml:space="preserve"
   inkscape:version="1.4.2 (f4327f4, 2025-05-13)"
   sodipodi:docname="tpass_progress.svg"
   xmlns:inkscape="http://www.inkscape.org/namespaces/inkscape"
   xmlns:sodipodi="http://sodipodi.sourceforge.net/DTD/sodipodi-0.dtd"
   xmlns="http://www.w3.org/2000/svg"
   xmlns:svg="http://www.w3.org/2000/svg"><sodipodi:namedview
     id="namedview1"
     pagecolor="#ffffff"
     bordercolor="#999999"
     borderopacity="1"
     inkscape:showpageshadow="0"
     inkscape:pageopacity="0"
     inkscape:pagecheckerboard="true"
     inkscape:deskcolor="#d1d1d1"
     inkscape:document-units="mm"
     inkscape:zoom="0.35945918"
     inkscape:cx="731.6547"
     inkscape:cy="471.54172"
     inkscape:window-width="1920"
     inkscape:window-height="1009"
     inkscape:window-x="1912"
     inkscape:window-y="-8"
     inkscape:window-maximized="1"
     inkscape:current-layer="layer1" /><defs
     id="defs1"><pattern
       id="EMFhbasepattern"
       patternUnits="userSpaceOnUse"
       width="6"
       height="6"
       x="0"
       y="0" /><rect
       x="8.3979025"
       y="14.69633"
       width="83.979027"
       height="96.225967"
       id="rect1" /><mask
       maskUnits="userSpaceOnUse"
       id="mask4"><rect
         style="fill:#ffffff;stroke-width:0.865;paint-order:fill markers stroke"
         id="rect5"
         width="140.24425"
         height="76.681931"
         x="271.17908"
         y="22.218187"
         ry="4.94449" /></mask></defs><g
     inkscape:label="Layer 1"
     inkscape:groupmode="layer"
     id="layer1"><g
       id="text9"
       style="font-weight:bold;font-size:10.5833px;line-height:1;font-family:Helvetica;-inkscape-font-specification:'Helvetica Bold';stroke-width:0.264583"
       aria-label="Configuration in progress...&#10;Do not move your card"><path
         style="font-family:'Helvetica Neue';-inkscape-font-specification:'Helvetica Neue Bold';text-align:center;text-anchor:middle;fill:#ff0000"
         d="M 150.42641,108.97064 H 148.786 c -0.14817,1.13241 -0.71967,1.69332 -1.72508,1.69332 -0.61383,0 -1.09008,-0.22225 -1.44991,-0.68791 -0.35984,-0.46567 -0.53975,-1.0795 -0.53975,-1.86266 0,-0.4445 0.0635,-0.84667 0.1905,-1.22766 0.127,-0.37042 0.33866,-0.68792 0.65616,-0.94192 0.3175,-0.254 0.6985,-0.381 1.16416,-0.381 0.4445,0 0.80434,0.10584 1.10067,0.33867 0.29633,0.23283 0.48683,0.55033 0.5715,0.97366 h 1.61924 c -0.0635,-0.78316 -0.40216,-1.42874 -1.00541,-1.93674 -0.61383,-0.508 -1.36525,-0.762 -2.25425,-0.762 -1.12183,0 -2.02141,0.37042 -2.69874,1.12183 -0.67733,0.74083 -1.00541,1.68274 -1.00541,2.81516 0,1.18533 0.32808,2.14841 0.99483,2.86807 0.66675,0.71967 1.54516,1.09008 2.64582,1.09008 1.00542,0 1.79917,-0.28575 2.38125,-0.83608 0.57149,-0.56091 0.91016,-1.31233 0.99483,-2.26482 z m 3.64064,-2.70933 c -0.85724,0 -1.54516,0.26458 -2.06374,0.79375 -0.52916,0.52916 -0.78316,1.22766 -0.78316,2.09549 0,0.87842 0.254,1.57691 0.77258,2.10608 0.508,0.52916 1.19591,0.79375 2.05316,0.79375 0.84666,0 1.53458,-0.26459 2.04257,-0.79375 0.508,-0.52917 0.77259,-1.22766 0.77259,-2.10608 0,-0.86783 -0.26459,-1.56633 -0.77259,-2.09549 -0.50799,-0.52917 -1.18533,-0.79375 -2.02141,-0.79375 z m -0.0423,1.143 c 0.41275,0 0.74083,0.15875 0.97366,0.46566 0.23284,0.30692 0.35984,0.73025 0.35984,1.27 0,0.56091 -0.11642,0.99483 -0.34925,1.31233 -0.23283,0.3175 -0.55033,0.47625 -0.96308,0.47625 -0.42333,0 -0.74083,-0.15875 -0.97367,-0.46567 -0.23283,-0.3175 -0.34925,-0.75141 -0.34925,-1.30175 0,-0.55033 0.11642,-0.97366 0.34925,-1.28057 0.23284,-0.3175 0.55034,-0.47625 0.9525,-0.47625 z m 8.96406,4.47673 v -3.65124 c 0,-0.62441 -0.16934,-1.11124 -0.508,-1.44991 -0.33867,-0.33866 -0.80433,-0.508 -1.38641,-0.508 -0.762,0 -1.36525,0.30692 -1.80975,0.91017 v -0.762 h -1.42874 v 5.46098 h 1.49224 v -2.93157 c 0,-0.9525 0.39158,-1.43933 1.18533,-1.43933 0.35983,0 0.61383,0.10583 0.74083,0.30692 0.127,0.20108 0.1905,0.49741 0.1905,0.87841 v 3.18557 z m 1.4605,0 h 1.50282 v -4.46615 h 1.03717 v -1.00541 h -1.03717 v -0.32809 c 0,-0.22225 0.0423,-0.38099 0.127,-0.47624 0.0847,-0.0952 0.23284,-0.14817 0.43392,-0.14817 0.1905,0 0.381,0.0106 0.55033,0.0318 v -1.12183 c -0.0423,0 -0.16933,0 -0.35983,-0.0212 -0.1905,-0.0106 -0.32808,-0.0212 -0.43392,-0.0212 -0.59266,0 -1.03716,0.15875 -1.35466,0.45508 -0.3175,0.30691 -0.47625,0.70908 -0.47625,1.20649 v 0.42334 h -0.89958 v 1.00541 h 0.89958 z m 3.43957,0 h 1.50283 v -5.47156 h -1.50283 z m 1.50283,-7.55647 h -1.50283 v 1.23824 h 1.50283 z m 6.43464,2.09549 h -1.41816 v 0.73025 c -0.21166,-0.30692 -0.43391,-0.52917 -0.68791,-0.66675 -0.254,-0.13758 -0.56092,-0.21167 -0.94192,-0.21167 -0.71966,0 -1.30174,0.254 -1.73566,0.762 -0.4445,0.508 -0.65616,1.17475 -0.65616,2.01083 0,0.81491 0.20108,1.47108 0.62441,1.95791 0.42333,0.48683 0.98425,0.73025 1.70391,0.73025 0.6985,0 1.25942,-0.28575 1.67216,-0.84667 l -0.0106,0.61383 c -0.0106,0.48684 -0.0952,0.83608 -0.254,1.06892 -0.16933,0.23283 -0.48683,0.34925 -0.9525,0.34925 -0.32808,0 -0.58208,-0.0635 -0.75141,-0.16934 -0.17992,-0.10583 -0.29633,-0.28575 -0.34925,-0.52916 h -1.49224 c 0.14816,1.13241 0.99483,1.70391 2.56116,1.70391 0.89958,0 1.57691,-0.21167 2.02141,-0.635 0.44449,-0.42333 0.66674,-1.0795 0.66674,-1.96849 z m -2.69874,1.02658 c 0.39158,0 0.6985,0.13758 0.92075,0.41275 0.23283,0.27516 0.33866,0.65616 0.33866,1.14299 0,0.48684 -0.10583,0.87842 -0.33866,1.17475 -0.22225,0.28575 -0.52917,0.43392 -0.92075,0.43392 -0.381,0 -0.68791,-0.14817 -0.92075,-0.43392 -0.23283,-0.28575 -0.34924,-0.66675 -0.34924,-1.143 0,-0.50799 0.11641,-0.89958 0.33866,-1.17474 0.22225,-0.27517 0.52917,-0.41275 0.93133,-0.41275 z m 9.04872,-1.02658 h -1.49224 v 2.81516 c 0,1.03716 -0.40217,1.54516 -1.18533,1.54516 -0.21167,0 -0.381,-0.0212 -0.508,-0.0847 -0.127,-0.0635 -0.22225,-0.15875 -0.27517,-0.28575 -0.0635,-0.127 -0.0953,-0.24341 -0.11641,-0.37041 -0.0212,-0.127 -0.0212,-0.28575 -0.0212,-0.49742 v -3.12207 h -1.51341 v 3.6724 c 0,0.64559 0.15875,1.13242 0.49741,1.4605 0.33867,0.32808 0.80434,0.48683 1.40758,0.48683 0.762,0 1.35467,-0.30691 1.778,-0.93133 v 0.77258 h 1.42874 z m 4.69899,-0.0953 c -0.14816,-0.0212 -0.26458,-0.0318 -0.32808,-0.0318 -0.8255,0 -1.40758,0.381 -1.76741,1.13241 v -1.00541 h -1.42875 v 5.46098 h 1.50283 v -2.49766 c 0,-0.52916 0.11642,-0.94191 0.34925,-1.25941 0.23283,-0.3175 0.59267,-0.47625 1.09008,-0.47625 0.16933,0 0.37042,0.0212 0.58208,0.0635 z m 5.65148,5.55623 c -0.127,-0.29633 -0.1905,-0.78316 -0.1905,-1.48166 v -2.36008 c 0,-1.18532 -0.79374,-1.77799 -2.38124,-1.77799 -1.60866,0 -2.44474,0.61383 -2.52941,1.84149 h 1.40758 c 0.0423,-0.30691 0.14817,-0.51858 0.3175,-0.64558 0.15875,-0.127 0.41275,-0.1905 0.762,-0.1905 0.65616,0 0.98425,0.24342 0.98425,0.73025 0,0.21167 -0.0952,0.35983 -0.27517,0.43392 -0.17992,0.0847 -0.52917,0.15875 -1.05833,0.22225 -0.24342,0.0318 -0.43392,0.0635 -0.5715,0.0847 -0.127,0.0212 -0.30691,0.0635 -0.52916,0.10584 -0.21167,0.0529 -0.381,0.11641 -0.508,0.19049 -0.127,0.0847 -0.254,0.17992 -0.39158,0.29634 -0.13759,0.127 -0.23284,0.27516 -0.29634,0.4445 -0.0635,0.17991 -0.0953,0.38099 -0.0953,0.61383 0,0.51858 0.17992,0.92074 0.51859,1.21708 0.34924,0.29633 0.82549,0.43391 1.42874,0.43391 0.71967,0 1.31233,-0.22225 1.76741,-0.68791 0.0212,0.21166 0.0635,0.39158 0.10583,0.52916 z m -1.65099,-2.65641 v 0.61384 c 0,0.38099 -0.11642,0.68791 -0.35983,0.89958 -0.24342,0.21166 -0.5715,0.3175 -0.97367,0.3175 -0.254,0 -0.45508,-0.0635 -0.60325,-0.1905 -0.14816,-0.127 -0.22224,-0.30692 -0.22224,-0.52917 0,-0.23283 0.0847,-0.42333 0.23283,-0.55033 0.13758,-0.10583 0.42333,-0.20108 0.86783,-0.26458 0.52916,-0.0847 0.889,-0.1905 1.05833,-0.29634 z m 5.65148,-2.80457 h -1.11125 v -1.65099 h -1.49225 v 1.65099 h -0.91016 v 1.016 h 0.91016 v 2.83632 c 0,0.65617 0.11642,1.10066 0.34925,1.3335 0.23284,0.23283 0.68792,0.33866 1.34408,0.33866 0.23284,0 0.53975,-0.0106 0.91017,-0.0423 v -1.143 c -0.127,0.0212 -0.27517,0.0212 -0.45509,0.0212 -0.16933,0 -0.29633,-0.0106 -0.38099,-0.0317 -0.0847,-0.0212 -0.14817,-0.0741 -0.1905,-0.14817 -0.0423,-0.0847 -0.0741,-0.15875 -0.0741,-0.23283 -0.0106,-0.0741 -0.0106,-0.1905 -0.0106,-0.34925 v -2.57174 h 1.11125 z m 2.26481,-2.07433 h -1.50283 v 1.27 h 1.50283 z m 0,2.07433 h -1.50283 v 5.46098 h 1.50283 z m 3.87349,-0.15875 c -0.85725,0 -1.54517,0.26458 -2.06375,0.79375 -0.52916,0.52916 -0.78316,1.22766 -0.78316,2.09549 0,0.87842 0.254,1.57691 0.77258,2.10608 0.508,0.52916 1.19591,0.79375 2.05316,0.79375 0.84666,0 1.53458,-0.26459 2.04258,-0.79375 0.508,-0.52917 0.77258,-1.22766 0.77258,-2.10608 0,-0.86783 -0.26458,-1.56633 -0.77258,-2.09549 -0.508,-0.52917 -1.18533,-0.79375 -2.02141,-0.79375 z m -0.0423,1.143 c 0.41275,0 0.74083,0.15875 0.97367,0.46566 0.23283,0.30692 0.35983,0.73025 0.35983,1.27 0,0.56091 -0.11642,0.99483 -0.34925,1.31233 -0.23283,0.3175 -0.55033,0.47625 -0.96308,0.47625 -0.42333,0 -0.74083,-0.15875 -0.97366,-0.46567 -0.23284,-0.3175 -0.34925,-0.75141 -0.34925,-1.30175 0,-0.55033 0.11641,-0.97366 0.34925,-1.28057 0.23283,-0.3175 0.55033,-0.47625 0.95249,-0.47625 z m 8.96406,4.47673 v -3.65124 c 0,-0.62441 -0.16933,-1.11124 -0.508,-1.44991 -0.33867,-0.33866 -0.80433,-0.508 -1.38641,-0.508 -0.762,0 -1.36525,0.30692 -1.80975,0.91017 v -0.762 h -1.42874 v 5.46098 h 1.49224 v -2.93157 c 0,-0.9525 0.39159,-1.43933 1.18533,-1.43933 0.35984,0 0.61383,0.10583 0.74083,0.30692 0.127,0.20108 0.1905,0.49741 0.1905,0.87841 v 3.18557 z m 5.61974,-7.53531 h -1.50283 v 1.27 h 1.50283 z m 0,2.07433 h -1.50283 v 5.46098 h 1.50283 z m 6.3288,5.46098 v -3.65124 c 0,-0.62441 -0.16933,-1.11124 -0.508,-1.44991 -0.33866,-0.33866 -0.80433,-0.508 -1.38641,-0.508 -0.762,0 -1.36524,0.30692 -1.80974,0.91017 v -0.762 h -1.42875 v 5.46098 h 1.49225 v -2.93157 c 0,-0.9525 0.39158,-1.43933 1.18533,-1.43933 0.35983,0 0.61383,0.10583 0.74083,0.30692 0.127,0.20108 0.1905,0.49741 0.1905,0.87841 v 3.18557 z m 5.49274,-5.46098 h -1.41817 v 7.39773 h 1.49225 v -2.61408 c 0.381,0.55033 0.94191,0.81492 1.68274,0.81492 0.70909,0 1.28058,-0.254 1.7145,-0.77259 0.43391,-0.51858 0.65616,-1.20649 0.65616,-2.06374 0,-0.87841 -0.22225,-1.58749 -0.66674,-2.11666 -0.4445,-0.52916 -1.03717,-0.79375 -1.76742,-0.79375 -0.74083,0 -1.30174,0.27517 -1.69332,0.8255 z m 1.32291,1.05833 c 0.40216,0 0.71966,0.15875 0.9525,0.45508 0.23283,0.30692 0.34924,0.71967 0.34924,1.24883 0,0.51858 -0.11641,0.92075 -0.34924,1.21708 -0.23284,0.29633 -0.53975,0.4445 -0.94192,0.4445 -0.41275,0 -0.73025,-0.14817 -0.96308,-0.4445 -0.23283,-0.29633 -0.34925,-0.70908 -0.34925,-1.23825 0,-0.52916 0.10584,-0.94191 0.33867,-1.23824 0.23283,-0.29633 0.55033,-0.4445 0.96308,-0.4445 z m 7.27072,-1.15358 c -0.14816,-0.0212 -0.26458,-0.0318 -0.32808,-0.0318 -0.8255,0 -1.40758,0.381 -1.76741,1.13241 v -1.00541 h -1.42875 v 5.46098 h 1.50283 v -2.49766 c 0,-0.52916 0.11642,-0.94191 0.34925,-1.25941 0.23283,-0.3175 0.59267,-0.47625 1.09008,-0.47625 0.16933,0 0.37042,0.0212 0.58208,0.0635 z m 3.06917,-0.0635 c -0.85725,0 -1.54516,0.26458 -2.06374,0.79375 -0.52917,0.52916 -0.78317,1.22766 -0.78317,2.09549 0,0.87842 0.254,1.57691 0.77258,2.10608 0.508,0.52916 1.19592,0.79375 2.05316,0.79375 0.84667,0 1.53458,-0.26459 2.04258,-0.79375 0.508,-0.52917 0.77258,-1.22766 0.77258,-2.10608 0,-0.86783 -0.26458,-1.56633 -0.77258,-2.09549 -0.508,-0.52917 -1.18533,-0.79375 -2.02141,-0.79375 z m -0.0423,1.143 c 0.41274,0 0.74083,0.15875 0.97366,0.46566 0.23283,0.30692 0.35983,0.73025 0.35983,1.27 0,0.56091 -0.11641,0.99483 -0.34925,1.31233 -0.23283,0.3175 -0.55033,0.47625 -0.96308,0.47625 -0.42333,0 -0.74083,-0.15875 -0.97366,-0.46567 -0.23283,-0.3175 -0.34925,-0.75141 -0.34925,-1.30175 0,-0.55033 0.11642,-0.97366 0.34925,-1.28057 0.23283,-0.3175 0.55033,-0.47625 0.9525,-0.47625 z m 9.0593,-0.98425 h -1.41817 v 0.73025 c -0.21166,-0.30692 -0.43391,-0.52917 -0.68791,-0.66675 -0.254,-0.13758 -0.56091,-0.21167 -0.94191,-0.21167 -0.71967,0 -1.30175,0.254 -1.73566,0.762 -0.4445,0.508 -0.65617,1.17475 -0.65617,2.01083 0,0.81491 0.20108,1.47108 0.62442,1.95791 0.42333,0.48683 0.98424,0.73025 1.70391,0.73025 0.69849,0 1.25941,-0.28575 1.67216,-0.84667 l -0.0106,0.61383 c -0.0106,0.48684 -0.0952,0.83608 -0.25399,1.06892 -0.16934,0.23283 -0.48684,0.34925 -0.9525,0.34925 -0.32808,0 -0.58208,-0.0635 -0.75142,-0.16934 -0.17991,-0.10583 -0.29633,-0.28575 -0.34924,-0.52916 h -1.49225 c 0.14817,1.13241 0.99483,1.70391 2.56116,1.70391 0.89958,0 1.57691,-0.21167 2.02141,-0.635 0.4445,-0.42333 0.66675,-1.0795 0.66675,-1.96849 z m -2.69874,1.02658 c 0.39158,0 0.69849,0.13758 0.92074,0.41275 0.23284,0.27516 0.33867,0.65616 0.33867,1.14299 0,0.48684 -0.10583,0.87842 -0.33867,1.17475 -0.22225,0.28575 -0.52916,0.43392 -0.92074,0.43392 -0.381,0 -0.68792,-0.14817 -0.92075,-0.43392 -0.23283,-0.28575 -0.34925,-0.66675 -0.34925,-1.143 0,-0.50799 0.11642,-0.89958 0.33867,-1.17474 0.22224,-0.27517 0.52916,-0.41275 0.93133,-0.41275 z m 7.47181,-1.12183 c -0.14817,-0.0212 -0.26458,-0.0318 -0.32808,-0.0318 -0.8255,0 -1.40758,0.381 -1.76741,1.13241 v -1.00541 h -1.42875 v 5.46098 h 1.50283 v -2.49766 c 0,-0.52916 0.11642,-0.94191 0.34925,-1.25941 0.23283,-0.3175 0.59266,-0.47625 1.09008,-0.47625 0.16933,0 0.37041,0.0212 0.58208,0.0635 z m 5.5139,3.8629 h -1.43933 c -0.21166,0.52917 -0.58208,0.79375 -1.11124,0.79375 -0.40217,0 -0.71967,-0.11641 -0.94192,-0.37041 -0.22225,-0.24342 -0.33866,-0.60325 -0.33866,-1.0795 h 3.91582 v -0.14817 c 0,-0.95249 -0.24342,-1.71449 -0.73025,-2.27541 -0.48683,-0.56091 -1.143,-0.84666 -1.96849,-0.84666 -0.80433,0 -1.4605,0.27517 -1.9685,0.8255 -0.51858,0.55033 -0.77258,1.24883 -0.77258,2.09549 0,0.86783 0.254,1.55575 0.762,2.07433 0.508,0.52916 1.18533,0.78316 2.02141,0.78316 0.635,0 1.17475,-0.15875 1.62983,-0.48683 0.45508,-0.3175 0.77258,-0.77258 0.94191,-1.36525 z m -1.44991,-1.60866 h -2.39183 c 0.0423,-0.381 0.17992,-0.67733 0.39159,-0.89958 0.22224,-0.21166 0.49741,-0.32808 0.82549,-0.32808 0.35983,0 0.635,0.11642 0.8255,0.34925 0.20108,0.23283 0.3175,0.51858 0.34925,0.87841 z m 7.00614,-0.5715 c -0.0212,-0.59266 -0.254,-1.03716 -0.68792,-1.32291 -0.4445,-0.27516 -1.00541,-0.42333 -1.68274,-0.42333 -0.762,0 -1.35467,0.14817 -1.76741,0.43392 -0.42334,0.29633 -0.62442,0.70908 -0.62442,1.23824 0,0.14817 0.0106,0.27517 0.0317,0.39158 0.0212,0.127 0.0741,0.23284 0.13758,0.32809 0.0635,0.0953 0.127,0.17991 0.17992,0.24341 0.0635,0.0741 0.14817,0.13758 0.26458,0.20108 0.11642,0.0635 0.21167,0.10584 0.27517,0.14817 0.0741,0.0423 0.1905,0.0741 0.33866,0.11642 0.14817,0.0423 0.26459,0.0741 0.32809,0.0953 0.0635,0.0212 0.17991,0.0423 0.34924,0.0741 0.16934,0.0423 0.28575,0.0635 0.32809,0.0741 0.0212,0.0106 0.0529,0.0212 0.0847,0.0212 0.4445,0.10583 0.74083,0.1905 0.89958,0.27517 0.16934,0.0847 0.24342,0.23283 0.24342,0.43391 0,0.21167 -0.0847,0.37042 -0.26458,0.49742 -0.17992,0.127 -0.42333,0.17991 -0.73025,0.17991 -0.71966,0 -1.11125,-0.29633 -1.16416,-0.91016 h -1.42875 c 0.0106,0.65616 0.254,1.14299 0.73025,1.46049 0.48683,0.3175 1.09008,0.47625 1.83091,0.47625 0.78316,0 1.38641,-0.15875 1.83091,-0.49741 0.4445,-0.32809 0.66675,-0.78317 0.66675,-1.35467 0,-0.23283 -0.0423,-0.44449 -0.13758,-0.63499 -0.0847,-0.17992 -0.1905,-0.32809 -0.3175,-0.43392 -0.11642,-0.10583 -0.28575,-0.21166 -0.508,-0.29633 -0.21167,-0.0847 -0.40217,-0.14817 -0.55033,-0.1905 -0.14817,-0.0423 -0.35984,-0.0847 -0.61383,-0.127 -0.0317,-0.0106 -0.0847,-0.0212 -0.16934,-0.0318 -0.43391,-0.0952 -0.74083,-0.17992 -0.91016,-0.254 -0.16933,-0.0847 -0.254,-0.22225 -0.254,-0.41275 0,-0.16933 0.0741,-0.30691 0.22225,-0.40216 0.14816,-0.0952 0.35983,-0.13759 0.62441,-0.13759 0.3175,0 0.56092,0.0529 0.73025,0.16934 0.16933,0.10583 0.26458,0.30691 0.30692,0.58208 z m 5.68323,0 c -0.0212,-0.59266 -0.254,-1.03716 -0.68791,-1.32291 -0.4445,-0.27516 -1.00542,-0.42333 -1.68275,-0.42333 -0.762,0 -1.35466,0.14817 -1.76741,0.43392 -0.42333,0.29633 -0.62441,0.70908 -0.62441,1.23824 0,0.14817 0.0106,0.27517 0.0317,0.39158 0.0212,0.127 0.0741,0.23284 0.13758,0.32809 0.0635,0.0953 0.127,0.17991 0.17991,0.24341 0.0635,0.0741 0.14817,0.13758 0.26459,0.20108 0.11641,0.0635 0.21166,0.10584 0.27516,0.14817 0.0741,0.0423 0.1905,0.0741 0.33867,0.11642 0.14816,0.0423 0.26458,0.0741 0.32808,0.0953 0.0635,0.0212 0.17992,0.0423 0.34925,0.0741 0.16933,0.0423 0.28575,0.0635 0.32808,0.0741 0.0212,0.0106 0.0529,0.0212 0.0847,0.0212 0.4445,0.10583 0.74083,0.1905 0.89958,0.27517 0.16933,0.0847 0.24341,0.23283 0.24341,0.43391 0,0.21167 -0.0847,0.37042 -0.26458,0.49742 -0.17991,0.127 -0.42333,0.17991 -0.73025,0.17991 -0.71966,0 -1.11124,-0.29633 -1.16416,-0.91016 h -1.42874 c 0.0106,0.65616 0.254,1.14299 0.73024,1.46049 0.48684,0.3175 1.09008,0.47625 1.83091,0.47625 0.78317,0 1.38642,-0.15875 1.83092,-0.49741 0.44449,-0.32809 0.66674,-0.78317 0.66674,-1.35467 0,-0.23283 -0.0423,-0.44449 -0.13758,-0.63499 -0.0847,-0.17992 -0.1905,-0.32809 -0.3175,-0.43392 -0.11641,-0.10583 -0.28575,-0.21166 -0.508,-0.29633 -0.21166,-0.0847 -0.40216,-0.14817 -0.55033,-0.1905 -0.14816,-0.0423 -0.35983,-0.0847 -0.61383,-0.127 -0.0318,-0.0106 -0.0847,-0.0212 -0.16933,-0.0318 -0.43392,-0.0952 -0.74083,-0.17992 -0.91017,-0.254 -0.16933,-0.0847 -0.254,-0.22225 -0.254,-0.41275 0,-0.16933 0.0741,-0.30691 0.22225,-0.40216 0.14817,-0.0952 0.35984,-0.13759 0.62442,-0.13759 0.3175,0 0.56091,0.0529 0.73025,0.16934 0.16933,0.10583 0.26458,0.30691 0.30691,0.58208 z m 2.80458,2.2225 h -1.67216 v 1.65099 h 1.67216 z m 2.94217,0 h -1.67216 v 1.65099 h 1.67216 z m 2.94215,0 h -1.67216 v 1.65099 h 1.67216 z"
         id="path10" /><path
         style="font-family:'Helvetica Neue';-inkscape-font-specification:'Helvetica Neue Bold';text-align:center;text-anchor:middle;fill:#ff0000"
         d="m 154.96665,122.80716 h 3.04799 c 1.16417,0 2.06375,-0.3175 2.69875,-0.97367 0.63499,-0.64558 0.95249,-1.57691 0.95249,-2.79399 0,-1.2065 -0.3175,-2.13783 -0.95249,-2.79399 -0.635,-0.64558 -1.53458,-0.97366 -2.69875,-0.97366 h -3.04799 z m 1.64042,-1.37583 v -4.78366 h 1.20649 c 0.73025,0 1.28058,0.21167 1.64041,0.62442 0.35984,0.41275 0.53975,1.00541 0.53975,1.76741 0,1.59808 -0.73025,2.39183 -2.19074,2.39183 z m 8.72063,-4.24391 c -0.85725,0 -1.54517,0.26459 -2.06375,0.79375 -0.52916,0.52917 -0.78316,1.22766 -0.78316,2.09549 0,0.87842 0.254,1.57692 0.77258,2.10608 0.508,0.52917 1.19591,0.79375 2.05316,0.79375 0.84666,0 1.53458,-0.26458 2.04258,-0.79375 0.50799,-0.52916 0.77258,-1.22766 0.77258,-2.10608 0,-0.86783 -0.26459,-1.56632 -0.77258,-2.09549 -0.508,-0.52916 -1.18533,-0.79375 -2.02141,-0.79375 z m -0.0423,1.143 c 0.41275,0 0.74083,0.15875 0.97367,0.46566 0.23283,0.30692 0.35983,0.73025 0.35983,1.27 0,0.56092 -0.11642,0.99483 -0.34925,1.31233 -0.23283,0.3175 -0.55033,0.47625 -0.96308,0.47625 -0.42333,0 -0.74083,-0.15875 -0.97366,-0.46567 -0.23284,-0.3175 -0.34925,-0.75141 -0.34925,-1.30174 0,-0.55033 0.11641,-0.97367 0.34925,-1.28058 0.23283,-0.3175 0.55033,-0.47625 0.95249,-0.47625 z m 11.90622,4.47674 v -3.65124 c 0,-0.62442 -0.16934,-1.11125 -0.508,-1.44992 -0.33867,-0.33866 -0.80433,-0.50799 -1.38642,-0.50799 -0.76199,0 -1.36524,0.30691 -1.80974,0.91016 v -0.762 h -1.42874 v 5.46099 h 1.49224 v -2.93158 c 0,-0.9525 0.39158,-1.43933 1.18533,-1.43933 0.35983,0 0.61383,0.10584 0.74083,0.30692 0.127,0.20108 0.1905,0.49741 0.1905,0.87841 v 3.18558 z m 3.82057,-5.61974 c -0.85725,0 -1.54516,0.26459 -2.06374,0.79375 -0.52917,0.52917 -0.78317,1.22766 -0.78317,2.09549 0,0.87842 0.254,1.57692 0.77258,2.10608 0.508,0.52917 1.19592,0.79375 2.05316,0.79375 0.84667,0 1.53458,-0.26458 2.04258,-0.79375 0.508,-0.52916 0.77258,-1.22766 0.77258,-2.10608 0,-0.86783 -0.26458,-1.56632 -0.77258,-2.09549 -0.508,-0.52916 -1.18533,-0.79375 -2.02141,-0.79375 z m -0.0423,1.143 c 0.41275,0 0.74083,0.15875 0.97366,0.46566 0.23283,0.30692 0.35983,0.73025 0.35983,1.27 0,0.56092 -0.11641,0.99483 -0.34925,1.31233 -0.23283,0.3175 -0.55033,0.47625 -0.96308,0.47625 -0.42333,0 -0.74083,-0.15875 -0.97366,-0.46567 -0.23283,-0.3175 -0.34925,-0.75141 -0.34925,-1.30174 0,-0.55033 0.11642,-0.97367 0.34925,-1.28058 0.23283,-0.3175 0.55033,-0.47625 0.9525,-0.47625 z m 6.82623,-0.98425 h -1.11125 v -1.65099 h -1.49225 v 1.65099 h -0.91016 v 1.016 h 0.91016 v 2.83632 c 0,0.65617 0.11642,1.10067 0.34925,1.3335 0.23283,0.23283 0.68792,0.33866 1.34408,0.33866 0.23283,0 0.53975,-0.0106 0.91017,-0.0423 v -1.14299 c -0.127,0.0212 -0.27517,0.0212 -0.45509,0.0212 -0.16933,0 -0.29633,-0.0106 -0.381,-0.0318 -0.0847,-0.0212 -0.14816,-0.0741 -0.19049,-0.14816 -0.0423,-0.0847 -0.0741,-0.15875 -0.0741,-0.23284 -0.0106,-0.0741 -0.0106,-0.1905 -0.0106,-0.34925 v -2.57174 h 1.11125 z m 12.07553,5.46099 v -3.67241 c 0,-0.59266 -0.16933,-1.05833 -0.48683,-1.40758 -0.3175,-0.34925 -0.78316,-0.52916 -1.37583,-0.52916 -0.762,0 -1.35466,0.30691 -1.78858,0.89958 -0.27516,-0.59267 -0.79374,-0.89958 -1.54516,-0.89958 -0.73025,0 -1.31233,0.30691 -1.73566,0.89958 v -0.75142 h -1.42874 v 5.46099 h 1.50282 v -2.96333 c 0,-0.9525 0.35984,-1.42874 1.09008,-1.42874 0.3175,0 0.53975,0.0952 0.65617,0.28574 0.10583,0.1905 0.16933,0.4445 0.16933,0.78317 v 3.32316 h 1.50283 V 119.738 c 0,-0.86783 0.34925,-1.31233 1.04775,-1.31233 0.34925,0 0.58208,0.10583 0.69849,0.29633 0.10584,0.1905 0.16934,0.46567 0.16934,0.8255 v 3.25966 z m 3.86291,-5.61974 c -0.85725,0 -1.54516,0.26459 -2.06375,0.79375 -0.52916,0.52917 -0.78316,1.22766 -0.78316,2.09549 0,0.87842 0.254,1.57692 0.77258,2.10608 0.508,0.52917 1.19591,0.79375 2.05316,0.79375 0.84666,0 1.53458,-0.26458 2.04258,-0.79375 0.508,-0.52916 0.77258,-1.22766 0.77258,-2.10608 0,-0.86783 -0.26458,-1.56632 -0.77258,-2.09549 -0.508,-0.52916 -1.18533,-0.79375 -2.02141,-0.79375 z m -0.0423,1.143 c 0.41275,0 0.74084,0.15875 0.97367,0.46566 0.23283,0.30692 0.35983,0.73025 0.35983,1.27 0,0.56092 -0.11642,0.99483 -0.34925,1.31233 -0.23283,0.3175 -0.55033,0.47625 -0.96308,0.47625 -0.42333,0 -0.74083,-0.15875 -0.97366,-0.46567 -0.23284,-0.3175 -0.34925,-0.75141 -0.34925,-1.30174 0,-0.55033 0.11641,-0.97367 0.34925,-1.28058 0.23283,-0.3175 0.55033,-0.47625 0.95249,-0.47625 z m 7.21781,-0.98425 -1.16416,3.72532 -1.16416,-3.72532 h -1.5875 l 1.87325,5.46099 h 1.68274 l 1.85208,-5.46099 z m 7.23899,3.76766 h -1.43933 c -0.21167,0.52916 -0.58208,0.79374 -1.11125,0.79374 -0.40216,0 -0.71966,-0.11641 -0.94191,-0.37041 -0.22225,-0.24342 -0.33867,-0.60325 -0.33867,-1.0795 h 3.91583 v -0.14816 c 0,-0.9525 -0.24342,-1.7145 -0.73025,-2.27541 -0.48683,-0.56092 -1.143,-0.84667 -1.9685,-0.84667 -0.80433,0 -1.46049,0.27517 -1.96849,0.8255 -0.51858,0.55033 -0.77258,1.24883 -0.77258,2.09549 0,0.86783 0.254,1.55575 0.762,2.07433 0.50799,0.52917 1.18533,0.78316 2.02141,0.78316 0.63499,0 1.17474,-0.15874 1.62982,-0.48683 0.45509,-0.3175 0.77259,-0.77258 0.94192,-1.36524 z m -1.44991,-1.60866 h -2.39183 c 0.0423,-0.381 0.17992,-0.67734 0.39158,-0.89958 0.22225,-0.21167 0.49742,-0.32809 0.8255,-0.32809 0.35983,0 0.635,0.11642 0.8255,0.34925 0.20108,0.23283 0.3175,0.51858 0.34925,0.87842 z m 10.29754,-2.159 h -1.55575 l -1.2065,3.71474 -1.24882,-3.71474 h -1.61925 l 1.97908,5.21757 c 0.0212,0.0847 0.0423,0.15875 0.0423,0.21167 0,0.23283 -0.0741,0.41274 -0.20108,0.53974 -0.127,0.127 -0.3175,0.1905 -0.56092,0.1905 h -0.73024 v 1.23825 c 0.48683,0.0106 0.81491,0.0106 1.00541,0.0106 0.22225,0 0.42333,-0.0106 0.59266,-0.0529 0.16934,-0.0318 0.32809,-0.0953 0.46567,-0.1905 0.13758,-0.10584 0.24341,-0.1905 0.32808,-0.26459 0.0847,-0.0847 0.16933,-0.22225 0.26458,-0.41274 0.0952,-0.20109 0.16934,-0.35984 0.21167,-0.46567 0.0423,-0.10583 0.11642,-0.29633 0.21167,-0.5715 z m 3.21731,-0.15875 c -0.85725,0 -1.54516,0.26459 -2.06375,0.79375 -0.52916,0.52917 -0.78316,1.22766 -0.78316,2.09549 0,0.87842 0.254,1.57692 0.77258,2.10608 0.508,0.52917 1.19591,0.79375 2.05316,0.79375 0.84667,0 1.53458,-0.26458 2.04258,-0.79375 0.508,-0.52916 0.77258,-1.22766 0.77258,-2.10608 0,-0.86783 -0.26458,-1.56632 -0.77258,-2.09549 -0.508,-0.52916 -1.18533,-0.79375 -2.02141,-0.79375 z m -0.0423,1.143 c 0.41275,0 0.74084,0.15875 0.97367,0.46566 0.23283,0.30692 0.35983,0.73025 0.35983,1.27 0,0.56092 -0.11642,0.99483 -0.34925,1.31233 -0.23283,0.3175 -0.55033,0.47625 -0.96308,0.47625 -0.42333,0 -0.74083,-0.15875 -0.97366,-0.46567 -0.23283,-0.3175 -0.34925,-0.75141 -0.34925,-1.30174 0,-0.55033 0.11642,-0.97367 0.34925,-1.28058 0.23283,-0.3175 0.55033,-0.47625 0.95249,-0.47625 z m 8.9429,-0.98425 h -1.49225 v 2.81516 c 0,1.03716 -0.40216,1.54516 -1.18533,1.54516 -0.21166,0 -0.381,-0.0212 -0.508,-0.0847 -0.127,-0.0635 -0.22225,-0.15875 -0.27516,-0.28575 -0.0635,-0.127 -0.0952,-0.24342 -0.11642,-0.37042 -0.0212,-0.127 -0.0212,-0.28575 -0.0212,-0.49741 v -3.12208 h -1.51342 v 3.67241 c 0,0.64558 0.15875,1.13241 0.49742,1.46049 0.33866,0.32809 0.80433,0.48683 1.40758,0.48683 0.76199,0 1.35466,-0.30691 1.77799,-0.93133 v 0.77259 h 1.42875 z m 4.69899,-0.0953 c -0.14817,-0.0212 -0.26459,-0.0317 -0.32808,-0.0317 -0.8255,0 -1.40758,0.381 -1.76742,1.13242 v -1.00542 h -1.42874 v 5.46099 h 1.50283 v -2.49766 c 0,-0.52917 0.11641,-0.94192 0.34925,-1.25942 0.23283,-0.3175 0.59266,-0.47624 1.09008,-0.47624 0.16933,0 0.37041,0.0212 0.58208,0.0635 z m 8.72063,3.45016 h -1.44991 c -0.127,0.74083 -0.508,1.10066 -1.16416,1.10066 -0.40217,0 -0.71966,-0.14816 -0.94191,-0.4445 -0.22225,-0.29633 -0.32809,-0.71966 -0.32809,-1.25941 0,-0.56091 0.10584,-0.99483 0.33867,-1.31233 0.23283,-0.3175 0.55033,-0.47625 0.96308,-0.47625 0.60325,0 0.96308,0.3175 1.0795,0.94192 h 1.47107 c -0.0635,-0.635 -0.32808,-1.13242 -0.78316,-1.50283 -0.46566,-0.37042 -1.05833,-0.56092 -1.77799,-0.56092 -0.84667,0 -1.53458,0.27517 -2.04258,0.80433 -0.508,0.53975 -0.762,1.24883 -0.762,2.12725 0,0.85724 0.254,1.54516 0.762,2.06374 0.508,0.508 1.17475,0.77258 2.02141,0.77258 0.71966,0 1.31233,-0.20108 1.77799,-0.59266 0.46567,-0.40217 0.74083,-0.9525 0.83608,-1.66158 z m 5.94781,2.10608 c -0.127,-0.29634 -0.1905,-0.78317 -0.1905,-1.48167 v -2.36007 c 0,-1.18533 -0.79375,-1.778 -2.38124,-1.778 -1.60866,0 -2.44474,0.61383 -2.52941,1.8415 h 1.40758 c 0.0423,-0.30692 0.14817,-0.51858 0.3175,-0.64558 0.15875,-0.127 0.41275,-0.1905 0.762,-0.1905 0.65616,0 0.98424,0.24341 0.98424,0.73024 0,0.21167 -0.0953,0.35984 -0.27516,0.43392 -0.17992,0.0847 -0.52917,0.15875 -1.05833,0.22225 -0.24342,0.0318 -0.43392,0.0635 -0.5715,0.0847 -0.127,0.0212 -0.30692,0.0635 -0.52917,0.10583 -0.21166,0.0529 -0.38099,0.11641 -0.50799,0.1905 -0.127,0.0847 -0.254,0.17991 -0.39159,0.29633 -0.13758,0.127 -0.23283,0.27517 -0.29633,0.4445 -0.0635,0.17991 -0.0952,0.381 -0.0952,0.61383 0,0.51858 0.17992,0.92075 0.51858,1.21708 0.34925,0.29633 0.8255,0.43391 1.42875,0.43391 0.71966,0 1.31233,-0.22224 1.76741,-0.68791 0.0212,0.21167 0.0635,0.39158 0.10583,0.52917 z m -1.65099,-2.65641 v 0.61383 c 0,0.381 -0.11642,0.68791 -0.35984,0.89958 -0.24341,0.21166 -0.57149,0.3175 -0.97366,0.3175 -0.254,0 -0.45508,-0.0635 -0.60325,-0.1905 -0.14816,-0.127 -0.22225,-0.30692 -0.22225,-0.52917 0,-0.23283 0.0847,-0.42333 0.23284,-0.55033 0.13758,-0.10583 0.42333,-0.20108 0.86783,-0.26458 0.52916,-0.0847 0.88899,-0.1905 1.05833,-0.29633 z m 6.19122,-2.89983 c -0.14817,-0.0212 -0.26458,-0.0317 -0.32808,-0.0317 -0.8255,0 -1.40758,0.381 -1.76741,1.13242 v -1.00542 h -1.42875 v 5.46099 h 1.50283 v -2.49766 c 0,-0.52917 0.11641,-0.94192 0.34925,-1.25942 0.23283,-0.3175 0.59266,-0.47624 1.09008,-0.47624 0.16933,0 0.37041,0.0212 0.58208,0.0635 z m 5.7044,5.55624 v -7.53531 h -1.49225 v 2.75165 c -0.16933,-0.26458 -0.41274,-0.46566 -0.70908,-0.60324 -0.29633,-0.14817 -0.61383,-0.21167 -0.95249,-0.21167 -0.73025,0 -1.31233,0.254 -1.74625,0.78316 -0.43391,0.51859 -0.64558,1.2065 -0.64558,2.06375 0,0.88899 0.22225,1.58749 0.66675,2.11666 0.4445,0.52916 1.04775,0.78316 1.79916,0.78316 0.74083,0 1.29116,-0.27516 1.65099,-0.84666 v 0.6985 z m -1.44991,-2.74108 c 0,0.53975 -0.10583,0.9525 -0.33867,1.24883 -0.22225,0.29633 -0.53975,0.4445 -0.95249,0.4445 -0.40217,0 -0.71967,-0.15875 -0.9525,-0.45508 -0.23283,-0.29634 -0.33867,-0.70908 -0.33867,-1.23825 0,-0.52916 0.10584,-0.93133 0.33867,-1.22766 0.22225,-0.29633 0.53975,-0.4445 0.9525,-0.4445 0.40216,0 0.71966,0.14817 0.95249,0.4445 0.23284,0.29633 0.33867,0.6985 0.33867,1.22766 z"
         id="path11" /></g><g
       id="g8"
       transform="matrix(1.2764547,0,0,1.2764547,-32.556939,-8.9876336)"><g
         id="g2"
         transform="matrix(0.71809869,0.27567867,-0.27567867,0.71809869,133.58421,7.5271782)"><g
           id="g3"
           transform="translate(-31.876774,-9.8767252)"><path
             id="rect1-8"
             style="fill:none;fill-opacity:1;stroke:#282472;stroke-width:4;stroke-opacity:1;paint-order:fill markers stroke"
             d="m 32.860222,16.05154 h 66.571224 c 1.082094,0 1.953234,0.871143 1.953234,1.953234 v 30.136284 c 0,1.082092 -0.87114,1.953234 -1.953234,1.953234 H 32.860222 c -1.082092,0 -1.953234,-0.871142 -1.953234,-1.953234 V 18.004774 c 0,-1.082091 0.871142,-1.953234 1.953234,-1.953234 z" /><path
             id="path3"
             style="fill:#282472;fill-opacity:1;stroke-width:3.54779;paint-order:fill markers stroke"
             transform="rotate(-21.001837,42.58102,-81.049787)"
             d="M 46.799441,60.242474 A 12.800006,12.800006 0 0 1 33.999435,73.04248 12.800006,12.800006 0 0 1 21.19943,60.242474 12.800006,12.800006 0 0 1 33.999435,47.442468 12.800006,12.800006 0 0 1 46.799441,60.242474 Z" /><path
             style="font-weight:bold;font-size:29.3412px;line-height:1;font-family:Helvetica;-inkscape-font-specification:'Helvetica Bold';fill:#282472;fill-opacity:1;stroke-width:0.73353"
             d="m 68.165836,39.93776 q 1.131814,-0.143268 1.647577,-0.515764 0.902586,-0.659031 0.902586,-2.277954 0,-1.232101 -0.845279,-1.948439 -0.501436,-0.415476 -1.704884,-0.859606 z M 66.804794,24.966298 q -1.246428,0.02865 -1.848152,0.673357 -0.601724,0.630378 -0.601724,1.733538 0,1.203448 0.902586,1.905459 0.501437,0.386822 1.54729,0.716338 z M 68.19449,46.012305 H 66.804794 V 43.16128 Q 63.982423,42.846091 62.592727,41.929179 60.142852,40.281602 60.185832,36.31309 h 3.868225 q 0.200574,1.805171 0.558743,2.421222 0.558744,0.959893 2.191994,1.246428 v -6.117526 l -1.160467,-0.343842 q -2.736411,-0.802298 -3.868225,-2.234974 -1.117487,-1.432676 -1.117487,-3.452749 0,-1.332388 0.429803,-2.421222 0.444129,-1.088833 1.232101,-1.876805 1.0172,-1.0172 2.263628,-1.404022 0.759318,-0.243555 2.220647,-0.358169 v -1.905459 h 1.361042 v 1.934112 q 2.335262,0.186248 3.66765,1.146141 2.421222,1.532963 2.507183,4.971385 h -3.767938 q -0.114614,-1.275082 -0.429802,-1.862479 -0.544417,-1.0172 -1.977093,-1.117487 v 5.458495 q 3.409768,1.174794 4.584563,2.07738 1.934112,1.504309 1.934112,4.24072 0,3.610343 -2.65045,5.243593 -1.618924,1.002873 -3.839571,1.174795 z"
             id="text3"
             transform="rotate(-0.00747371)"
             aria-label="$" /><path
             style="font-weight:bold;font-size:23.6151px;line-height:1;font-family:Helvetica;-inkscape-font-specification:'Helvetica Bold';fill:#ffffff;stroke-width:0.590377"
             d="m 85.540815,59.845249 q 0.910934,-0.115308 1.326044,-0.415109 0.726441,-0.530418 0.726441,-1.833399 0,-0.99165 -0.680318,-1.56819 -0.403579,-0.334394 -1.372167,-0.691849 z M 84.445388,47.795552 q -1.00318,0.02306 -1.487474,0.541948 -0.484294,0.507355 -0.484294,1.395228 0,0.968588 0.726441,1.533598 0.403578,0.311332 1.245327,0.57654 z m 1.118489,16.938761 h -1.118489 v -2.294632 q -2.27157,-0.253677 -3.390058,-0.991649 -1.971769,-1.326044 -1.937176,-4.520078 h 3.113319 q 0.161431,1.452882 0.449701,1.948707 0.449702,0.772564 1.764214,1.00318 V 54.956185 L 83.511393,54.679446 Q 81.309008,54.03372 80.398074,52.880639 79.49867,51.727558 79.49867,50.101714 q 0,-1.072366 0.345925,-1.948707 0.357455,-0.876342 0.991649,-1.510537 0.818688,-0.818687 1.821869,-1.130019 0.611132,-0.196024 1.787275,-0.28827 v -1.533598 h 1.095427 v 1.556659 q 1.879522,0.149901 2.951888,0.922465 1.948707,1.233797 2.017892,4.001192 h -3.032604 q -0.09225,-1.026243 -0.345924,-1.499006 -0.438171,-0.818687 -1.591252,-0.899403 v 4.393239 q 2.744333,0.945526 3.68986,1.671967 1.556659,1.210736 1.556659,3.413121 0,2.905764 -2.1332,4.220276 -1.302981,0.807157 -3.090257,0.945527 z"
             id="text3-5"
             transform="rotate(-0.00747371)"
             aria-label="$" /></g></g><path
         style="fill:#ff0000;stroke:none;stroke-width:0.377688px;stroke-linecap:butt;stroke-linejoin:miter;stroke-opacity:1"
         d="m 186.37975,33.489036 c 2.23276,-12.871175 19.53851,-8.281393 19.53851,-8.281393 l 5.01499,-6.129444 5.20075,19.502776 -15.23074,0.371473 4.0863,-7.615362 c 0,0 -10.20414,-4.546314 -18.60981,2.15195 z"
         id="path4"
         sodipodi:nodetypes="ccccccc" /><g
         id="g7"
         transform="matrix(2.1260248,0.80967896,-0.80967896,2.1260248,94.068177,-92.838793)"
         style="fill:#ffcc00;stroke:none"><path
           id="rect6"
           style="fill:#ffcc00;stroke:none;stroke-width:0.475981;paint-order:fill markers stroke"
           d="m 84.996823,26.656441 6.252881,6.059668 c 0.692819,0.671412 0.710054,1.769691 0.03864,2.462511 l -9.748161,10.058983 c -0.671412,0.692819 -1.76969,0.710054 -2.462511,0.03864 l -6.252881,-6.059666 c -0.692818,-0.671412 -0.710054,-1.769692 -0.03864,-2.462511 l 9.748161,-10.058984 c 0.671412,-0.69282 1.769691,-0.710054 2.462511,-0.03864 z" /></g><path
         d="m 181.53351,148.52864 h -0.86013 v -6.52267 h 0.86013 z m 6.37036,-2.06969 q -0.12096,1.03484 -0.76606,1.59931 -0.64062,0.55998 -1.70682,0.55998 -1.15581,0 -1.85467,-0.82878 -0.69437,-0.82877 -0.69437,-2.21753 v -0.62718 q 0,-0.90941 0.32255,-1.59931 0.32703,-0.68989 0.92285,-1.05724 0.59582,-0.37183 1.37979,-0.37183 1.03933,0 1.66651,0.58238 0.62718,0.5779 0.73022,1.60379 h -0.86462 q -0.11199,-0.77949 -0.4883,-1.12892 -0.37183,-0.34943 -1.04381,-0.34943 -0.82429,0 -1.29468,0.60926 -0.4659,0.60926 -0.4659,1.7337 v 0.63166 q 0,1.06173 0.4435,1.68891 0.44351,0.62718 1.24093,0.62718 0.71677,0 1.09756,-0.32255 0.38527,-0.32703 0.5107,-1.1334 z m 8.24294,0 q -0.12096,1.03484 -0.76606,1.59931 -0.64062,0.55998 -1.70682,0.55998 -1.15581,0 -1.85467,-0.82878 -0.69437,-0.82877 -0.69437,-2.21753 v -0.62718 q 0,-0.90941 0.32255,-1.59931 0.32703,-0.68989 0.92285,-1.05724 0.59582,-0.37183 1.37979,-0.37183 1.03933,0 1.66651,0.58238 0.62718,0.5779 0.73022,1.60379 h -0.86462 q -0.11199,-0.77949 -0.4883,-1.12892 -0.37183,-0.34943 -1.04381,-0.34943 -0.82429,0 -1.29468,0.60926 -0.4659,0.60926 -0.4659,1.7337 v 0.63166 q 0,1.06173 0.4435,1.68891 0.44351,0.62718 1.24093,0.62718 0.71677,0 1.09756,-0.32255 0.38527,-0.32703 0.5107,-1.1334 z m 4.77553,0.36734 h -2.73272 l -0.61374,1.70235 h -0.88701 l 2.4908,-6.52267 h 0.75262 l 2.49528,6.52267 h -0.88253 z m -2.47288,-0.70781 h 2.21753 l -1.11101,-3.05079 z m 7.24841,-0.22848 h -1.53212 v 2.63864 h -0.86461 v -6.52267 h 2.15929 q 1.10205,0 1.69339,0.50174 0.59582,0.50175 0.59582,1.46043 0,0.60927 -0.33151,1.06173 -0.32703,0.45247 -0.91389,0.67646 l 1.53211,2.76855 v 0.0538 h -0.92285 z m -1.53212,-0.70333 h 1.32156 q 0.64062,0 1.01693,-0.33151 0.38079,-0.33151 0.38079,-0.88702 0,-0.60478 -0.36287,-0.92733 -0.35839,-0.32255 -1.03933,-0.32703 h -1.31708 z m 4.78897,3.34197 v -6.52267 h 1.84123 q 0.85117,0 1.50523,0.3763 0.65406,0.37631 1.00797,1.07069 0.35839,0.69438 0.36287,1.59483 v 0.41663 q 0,0.92285 -0.35839,1.61723 -0.35391,0.69437 -1.01693,1.0662 -0.65854,0.37183 -1.53659,0.38079 z m 0.86014,-5.81486 v 5.11152 h 0.90493 q 0.99453,0 1.54555,-0.61822 0.5555,-0.61822 0.5555,-1.76058 v -0.38079 q 0,-1.111 -0.52414,-1.72475 -0.51966,-0.61822 -1.47835,-0.62718 z"
         id="text7"
         style="font-size:9.17475px;line-height:1;font-family:Roboto;-inkscape-font-specification:Roboto;stroke-width:0.229369"
         transform="rotate(-24.450765)"
         aria-label="IC CARD" /></g><path
       style="font-weight:500;font-size:15.3675px;line-height:1;font-family:'Noto Sans TC';-inkscape-font-specification:'Noto Sans TC Medium';text-align:center;text-anchor:middle;fill:#ff0000;stroke-width:0.384189"
       d="m 82.826471,97.88446 v -9.819832 h -3.304012 v -1.506015 h 8.436758 v 1.506015 h -3.31938 v 9.819832 z m 7.099786,0 V 86.558613 h 3.426953 q 1.275503,0 2.243655,0.338085 0.968153,0.322717 1.521383,1.075725 0.568597,0.73764 0.568597,2.02851 0,1.2294 -0.55323,2.02851 -0.55323,0.783742 -1.521382,1.183297 -0.952785,0.384188 -2.197553,0.384188 h -1.705792 v 4.287532 z m 1.782631,-5.732077 h 1.552117 q 1.336973,0 1.997775,-0.522495 0.660803,-0.522495 0.660803,-1.628955 0,-1.137195 -0.691538,-1.567485 -0.691537,-0.43029 -2.043877,-0.43029 h -1.47528 z m 5.762216,5.732077 3.749666,-11.325847 h 2.05925 l 3.74967,11.325847 h -1.8902 l -1.82874,-6.147 q -0.27661,-0.92205 -0.53786,-1.859467 -0.26125,-0.952785 -0.52249,-1.90557 h -0.0615 q -0.24588,0.968152 -0.5225,1.90557 -0.26125,0.937417 -0.53786,1.859467 l -1.828734,6.147 z m 2.120715,-3.211807 v -1.41381 h 5.286421 v 1.41381 z m 12.155691,3.426952 q -1.16793,0 -2.21292,-0.445657 -1.02962,-0.445658 -1.81337,-1.2294 l 1.04499,-1.2294 q 0.6147,0.599332 1.39845,0.968152 0.79911,0.36882 1.62895,0.36882 1.01426,0 1.55212,-0.445657 0.55323,-0.445658 0.55323,-1.152563 0,-0.522495 -0.23051,-0.829845 -0.23052,-0.322717 -0.64544,-0.537862 -0.39955,-0.215145 -0.92205,-0.445658 l -1.56748,-0.67617 q -0.55323,-0.230512 -1.0911,-0.599332 -0.52249,-0.384188 -0.87594,-0.952785 -0.33809,-0.583965 -0.33809,-1.41381 0,-0.891315 0.47639,-1.59822 0.4764,-0.706905 1.32161,-1.10646 0.84521,-0.414923 1.92094,-0.414923 0.99888,0 1.8902,0.384188 0.89131,0.384187 1.52138,1.04499 l -0.90668,1.137195 q -0.53786,-0.476393 -1.15256,-0.73764 -0.59934,-0.276615 -1.35234,-0.276615 -0.87595,0 -1.38308,0.399555 -0.50713,0.384187 -0.50713,1.04499 0,0.49176 0.26125,0.814477 0.26125,0.30735 0.67617,0.522495 0.43029,0.199778 0.87595,0.384188 l 1.55212,0.660802 q 0.67617,0.276615 1.19866,0.67617 0.5225,0.399555 0.81448,0.968153 0.29198,0.568597 0.29198,1.41381 0,0.906682 -0.47639,1.65969 -0.47639,0.73764 -1.36771,1.198665 -0.89131,0.445657 -2.13608,0.445657 z m 9.01949,0 q -1.16793,0 -2.21292,-0.445657 -1.02962,-0.445658 -1.81337,-1.2294 l 1.04499,-1.2294 q 0.6147,0.599332 1.39845,0.968152 0.79911,0.36882 1.62895,0.36882 1.01426,0 1.55212,-0.445657 0.55323,-0.445658 0.55323,-1.152563 0,-0.522495 -0.23051,-0.829845 -0.23052,-0.322717 -0.64544,-0.537862 -0.39955,-0.215145 -0.92205,-0.445658 l -1.56748,-0.67617 q -0.55323,-0.230512 -1.0911,-0.599332 -0.52249,-0.384188 -0.87594,-0.952785 -0.33809,-0.583965 -0.33809,-1.41381 0,-0.891315 0.47639,-1.59822 0.4764,-0.706905 1.32161,-1.10646 0.84521,-0.414923 1.92094,-0.414923 0.99888,0 1.8902,0.384188 0.89131,0.384187 1.52138,1.04499 l -0.90668,1.137195 q -0.53786,-0.476393 -1.15256,-0.73764 -0.59934,-0.276615 -1.35234,-0.276615 -0.87595,0 -1.38308,0.399555 -0.50713,0.384187 -0.50713,1.04499 0,0.49176 0.26125,0.814477 0.26125,0.30735 0.67617,0.522495 0.43029,0.199778 0.87595,0.384188 l 1.55212,0.660802 q 0.67617,0.276615 1.19866,0.67617 0.5225,0.399555 0.81448,0.968153 0.29198,0.568597 0.29198,1.41381 0,0.906682 -0.47639,1.65969 -0.47639,0.73764 -1.36771,1.198665 -0.89131,0.445657 -2.13608,0.445657 z m 4.81002,2.551005 4.27217,-15.044782 h 1.21403 l -4.24143,15.044782 z m 7.11515,-14.030527 h 5.34789 v 1.275502 h -5.34789 z m 1.72116,10.4499 h 4.11849 v 1.183297 h -4.11849 z m 0,-2.52027 h 4.14922 v 1.121827 h -4.14922 z M 132.016,89.493805 h 7.89889 v 1.275503 H 132.016 Z m 2.90445,-4.456575 h 1.35234 v 5.271053 h -1.35234 z m 4.05702,0.476393 1.30624,0.36882 q -1.2294,2.95056 -3.21181,5.194215 -1.9824,2.228287 -4.56414,3.62673 -0.0615,-0.153675 -0.23052,-0.384188 -0.15367,-0.230512 -0.32271,-0.445657 -0.16905,-0.230513 -0.30735,-0.36882 2.5049,-1.214033 4.37973,-3.25791 1.87484,-2.043878 2.95056,-4.73319 z m -4.10312,6.592657 h 3.62673 v 1.183298 h -3.62673 v 5.824282 h -1.3216 v -6.162367 l 0.79911,-0.845213 z m 3.04277,0 h 1.38307 v 6.792435 h -1.38307 z m 2.58174,-6.33141 h 4.56414 v 1.367708 h -3.1196 V 99.17533 h -1.44454 z m 4.22606,0 h 0.27661 l 0.21515,-0.0461 1.06036,0.660802 q -0.44566,1.091093 -0.99889,2.33586 -0.55323,1.2294 -1.07573,2.27439 0.75301,0.706905 1.1372,1.35234 0.39955,0.630068 0.55323,1.214033 0.15367,0.583965 0.15367,1.121827 0,0.768375 -0.19977,1.321605 -0.18441,0.537863 -0.63007,0.829845 -0.41492,0.276615 -1.06036,0.36882 -0.27661,0.03073 -0.6608,0.03073 -0.36882,0 -0.73764,-0.01537 -0.0154,-0.291983 -0.12294,-0.706905 -0.0922,-0.414923 -0.27662,-0.706905 0.35346,0.03073 0.64544,0.0461 0.29198,0 0.52249,-0.01537 0.19978,0 0.36882,-0.0461 0.18441,-0.0461 0.30735,-0.12294 0.24588,-0.138307 0.33809,-0.43029 0.10757,-0.291982 0.0922,-0.706905 0,-0.691537 -0.39955,-1.53675 -0.38419,-0.845212 -1.47528,-1.797997 0.26125,-0.583965 0.53786,-1.260135 0.29198,-0.67617 0.55323,-1.35234 0.26125,-0.67617 0.47639,-1.275503 0.23052,-0.6147 0.39956,-1.04499 z m 5.68597,4.502678 v 2.15145 h 7.9911 v -2.15145 z m -1.2294,-0.937418 h 10.51137 v 4.026285 h -10.51137 z m 2.56637,-1.65969 h 5.40936 v 0.98352 h -5.40936 z m 2.02851,1.982408 h 1.19867 v 3.227175 h -1.19867 z m -2.5971,1.029622 1.01425,-0.322717 q 0.26125,0.399555 0.47639,0.875947 0.23052,0.476393 0.30735,0.829845 l -1.07572,0.36882 q -0.0768,-0.36882 -0.27662,-0.86058 -0.19977,-0.49176 -0.44565,-0.891315 z m 5.33252,-0.384187 1.2294,0.338085 q -0.26125,0.49176 -0.5225,0.98352 -0.24588,0.476392 -0.46102,0.814477 l -0.99889,-0.322717 q 0.18441,-0.36882 0.41492,-0.891315 0.23052,-0.522495 0.33809,-0.92205 z m -6.43898,3.6882 h 8.86704 v 5.117377 h -1.49064 v -4.133857 h -5.94723 v 4.195327 h -1.42917 z m 0.82984,1.8441 h 7.16126 v 0.98352 h -7.16126 z m 0,1.859467 h 7.17662 v 0.998888 h -7.17662 z m 3.33475,-12.877965 1.29087,0.461025 q -0.82985,1.075725 -2.02851,1.936305 -1.19867,0.86058 -2.59711,1.521383 -1.39844,0.645435 -2.85835,1.091092 -0.0768,-0.138307 -0.21515,-0.353452 -0.13831,-0.215145 -0.29198,-0.43029 -0.15368,-0.215145 -0.29198,-0.338085 1.41381,-0.36882 2.75078,-0.92205 1.33697,-0.568598 2.42806,-1.306238 1.10646,-0.753007 1.81337,-1.65969 z m 0.90668,0.599333 q 0.5225,0.522495 1.26014,1.014255 0.753,0.476392 1.62895,0.891315 0.89132,0.414922 1.8441,0.73764 0.96815,0.322717 1.90557,0.537862 -0.23051,0.18441 -0.50713,0.522495 -0.26124,0.338085 -0.41492,0.599333 -0.93742,-0.261248 -1.90557,-0.645435 -0.96815,-0.399555 -1.87483,-0.891315 -0.89132,-0.507128 -1.67506,-1.091093 -0.76838,-0.583965 -1.36771,-1.214032 z m 13.96906,2.243655 0.92205,-0.79911 q 0.72227,0.261247 1.55212,0.599332 0.82984,0.338085 1.58285,0.691538 0.76837,0.353452 1.29087,0.660802 l -0.98352,0.891315 q -0.47639,-0.291982 -1.2294,-0.660802 -0.73764,-0.36882 -1.56749,-0.73764 -0.81447,-0.36882 -1.56748,-0.645435 z m -1.45991,1.10646 h 7.80669 v 1.075725 h -6.50046 v 6.853905 h -1.30623 z m 7.29956,0 h 1.30624 v 6.654127 q 0,0.476393 -0.12294,0.722273 -0.10758,0.24588 -0.43029,0.399555 -0.30735,0.138307 -0.81448,0.169042 -0.49176,0.03073 -1.2294,0.03073 -0.0307,-0.261247 -0.13831,-0.568597 -0.10757,-0.30735 -0.23051,-0.537863 0.47639,0.01537 0.87595,0.01537 0.39955,0 0.53786,0 0.13831,-0.01537 0.18441,-0.06147 0.0615,-0.0461 0.0615,-0.18441 z m -7.20736,-3.273278 h 7.51471 v 1.091093 h -7.51471 z m 0.69154,5.486198 h 6.96148 v 1.04499 h -6.96148 z m 0,2.21292 h 6.96148 v 1.091092 h -6.96148 z m 2.82762,-3.949448 h 1.26013 v 7.422503 h -1.26013 z m 3.50379,-3.74967 h 0.32272 l 0.29198,-0.07684 0.87595,0.691537 q -0.5225,0.49176 -1.1833,0.98352 -0.6608,0.49176 -1.38308,0.92205 -0.72227,0.414923 -1.42917,0.73764 -0.13831,-0.199777 -0.36882,-0.445657 -0.21515,-0.24588 -0.38419,-0.384188 0.6147,-0.276615 1.2294,-0.645435 0.63007,-0.36882 1.16793,-0.768375 0.53786,-0.399555 0.86058,-0.753007 z m -11.46416,0.07684 1.07573,-0.660803 q 0.36882,0.36882 0.73764,0.79911 0.38419,0.43029 0.72227,0.829845 0.33809,0.399555 0.55323,0.706905 l -1.10646,0.79911 q -0.21514,-0.322717 -0.55323,-0.753007 -0.32272,-0.43029 -0.7069,-0.875948 -0.36882,-0.461025 -0.72228,-0.845212 z m -0.49176,2.904457 h 3.31938 v 1.183298 h -3.31938 z m 2.91983,6.88464 q 0.44566,1.014255 1.2294,1.506015 0.78374,0.49176 1.90557,0.645435 1.13719,0.153675 2.59711,0.153675 0.81447,0 1.81336,-0.03073 0.99889,-0.03074 2.01314,-0.07684 1.01426,-0.0461 1.82874,-0.12294 -0.10758,0.153675 -0.19978,0.399555 -0.0922,0.24588 -0.16904,0.507127 -0.0615,0.261248 -0.10758,0.461025 -0.753,0.0461 -1.62895,0.07684 -0.87595,0.03074 -1.78263,0.0461 -0.90668,0.01537 -1.78263,0.01537 -1.35234,0 -2.4127,-0.12294 -1.04499,-0.12294 -1.85947,-0.445658 -0.79911,-0.322717 -1.39844,-0.937417 -0.59933,-0.630068 -1.02962,-1.65969 z m -0.0615,-3.104235 h 0.35345 l 0.23051,-0.03074 0.70691,0.261248 q -0.38419,2.504902 -1.30624,4.17996 -0.92205,1.65969 -2.22829,2.535637 -0.0922,-0.153675 -0.26124,-0.353452 -0.16905,-0.18441 -0.35346,-0.36882 -0.18441,-0.169043 -0.33808,-0.261248 1.24477,-0.768375 2.07461,-2.21292 0.82985,-1.444545 1.12183,-3.50379 z m -2.61248,1.383075 v -1.075725 l 0.59934,-0.30735 h 2.4588 v 1.152563 h -2.12072 q -0.29198,0 -0.5686,0.07684 -0.27661,0.06147 -0.36882,0.153675 z m 0,0 q -0.0307,-0.169042 -0.1383,-0.399555 -0.0922,-0.230512 -0.18441,-0.461025 -0.0922,-0.24588 -0.16905,-0.384187 0.18441,-0.0461 0.36882,-0.138308 0.18441,-0.107572 0.39956,-0.338085 0.18441,-0.169042 0.50713,-0.583965 0.32271,-0.414922 0.69153,-0.92205 0.38419,-0.522495 0.70691,-0.998887 0.33808,-0.49176 0.53786,-0.79911 v -0.0461 l 0.41492,-0.169042 0.90669,0.414922 q -0.27662,0.399555 -0.66081,0.937418 -0.36882,0.522495 -0.78374,1.091092 -0.41492,0.55323 -0.82984,1.075725 -0.39956,0.507128 -0.73764,0.875948 0,0 -0.15368,0.0922 -0.15367,0.07684 -0.36882,0.215145 -0.19978,0.12294 -0.35345,0.276615 -0.15368,0.138307 -0.15368,0.261247 z m 15.75169,-4.072387 h 4.62562 v 1.137195 h -4.62562 z m 0,2.059245 h 4.65635 v 1.121827 h -4.65635 z m -0.6608,-4.133858 h 5.93185 v 1.16793 h -5.93185 z m 1.29087,6.20847 h 3.99555 v 4.579515 H 179.4401 V 97.08535 h 2.73541 v -2.197552 h -2.73541 z m -0.63007,0 h 1.24477 v 5.271053 h -1.24477 z m 0.96815,-8.29845 1.12183,-0.568597 q 0.33809,0.476392 0.6608,1.04499 0.32272,0.55323 0.50713,0.98352 l -1.16793,0.645435 q -0.18441,-0.414923 -0.50713,-1.014255 -0.30735,-0.6147 -0.6147,-1.091093 z m 5.77818,0.03074 h 4.02629 v 1.35234 h -4.02629 z m -1.67505,6.20847 h 6.7617 v 1.367708 h -6.7617 z m 6.25457,0 h 0.27661 l 0.24588,-0.0461 0.90669,0.384187 q -0.43029,1.506015 -1.16793,2.689313 -0.73764,1.16793 -1.72116,2.043877 -0.96816,0.875948 -2.15145,1.47528 -1.16793,0.599333 -2.48954,0.98352 -0.0615,-0.199777 -0.18441,-0.445657 -0.12294,-0.24588 -0.27661,-0.476393 -0.13831,-0.230512 -0.27662,-0.384187 1.19867,-0.276615 2.27439,-0.783743 1.07573,-0.522495 1.98241,-1.275502 0.90668,-0.753008 1.56748,-1.736528 0.66081,-0.98352 1.01426,-2.197552 z m -4.45658,1.214033 q 0.5686,1.244767 1.52139,2.243655 0.96815,0.98352 2.27439,1.675057 1.3216,0.691538 2.91982,1.029623 -0.15367,0.153675 -0.32272,0.384187 -0.16904,0.24588 -0.32271,0.49176 -0.15368,0.24588 -0.26125,0.445658 -2.5049,-0.630068 -4.27217,-2.120715 -1.75189,-1.490648 -2.78151,-3.718935 z m -0.39955,-7.422503 h 1.33697 v 1.72116 q 0,0.722273 -0.18441,1.490648 -0.16904,0.753007 -0.6608,1.459912 -0.49176,0.706905 -1.44455,1.244768 -0.0922,-0.153675 -0.27661,-0.353453 -0.16904,-0.215145 -0.35345,-0.414922 -0.18441,-0.199778 -0.30735,-0.291983 0.82984,-0.461025 1.2294,-0.98352 0.41492,-0.537862 0.53786,-1.091092 0.12294,-0.568598 0.12294,-1.091093 z m 3.59599,0 h 1.33698 v 3.488423 q 0,0.322717 0.0307,0.461025 0.0461,0.138307 0.19978,0.138307 0.0768,0 0.23051,0 0.16904,0 0.32272,0 0.16904,0 0.23051,0 0.15368,0 0.35345,-0.01537 0.21515,-0.03074 0.35346,-0.07684 0.0307,0.276615 0.0461,0.630068 0.0154,0.353452 0.0615,0.599332 -0.13831,0.06147 -0.35345,0.07684 -0.21515,0.01537 -0.44566,0.01537 -0.0922,0 -0.27662,0 -0.18441,0 -0.36882,0 -0.18441,0 -0.27661,0 -0.6147,0 -0.92205,-0.18441 -0.30735,-0.18441 -0.41492,-0.583965 -0.10758,-0.414922 -0.10758,-1.091092 z m 7.29957,4.210695 h 8.77484 v 1.383075 h -8.77484 z m 4.36437,3.611363 h 5.17884 v 1.367707 h -5.17884 z m -0.76838,-2.904458 h 1.50602 v 7.62228 l -1.50602,-0.199777 z m -3.61136,1.705793 1.47528,0.138307 q -0.32272,2.33586 -1.06036,4.103123 -0.73764,1.767262 -2.05924,2.904457 -0.10758,-0.12294 -0.32272,-0.322717 -0.21515,-0.18441 -0.44566,-0.36882 -0.23051,-0.169043 -0.39955,-0.276615 1.2755,-0.968153 1.92093,-2.551005 0.66081,-1.582853 0.89132,-3.62673 z m 1.06036,1.936305 q 0.38418,1.121827 0.98352,1.813365 0.6147,0.691537 1.42917,1.060357 0.81448,0.353453 1.78263,0.49176 0.96816,0.12294 2.07462,0.12294 0.19977,0 0.59933,0 0.41492,0 0.90668,0 0.50713,0 1.01426,0 0.52249,0 0.95278,0 0.44566,-0.01537 0.70691,-0.01537 -0.10758,0.169042 -0.23052,0.43029 -0.10757,0.261247 -0.18441,0.537862 -0.0768,0.291983 -0.12294,0.507128 h -0.76837 -2.95056 q -1.35234,0 -2.5049,-0.18441 -1.1372,-0.18441 -2.05925,-0.660803 -0.90668,-0.476392 -1.62895,-1.367707 -0.70691,-0.891315 -1.19867,-2.320493 z m -3.18108,-7.407135 h 13.00091 v 3.595995 h -1.49065 v -2.21292 H 195.4684 v 2.21292 h -1.42918 z m 5.24032,-1.398443 1.44455,-0.414922 q 0.27661,0.461025 0.53786,1.029622 0.26125,0.55323 0.36882,0.968153 l -1.52138,0.461025 q -0.0922,-0.399555 -0.32272,-0.98352 -0.23051,-0.583965 -0.50713,-1.060358 z m 10.37307,2.428065 h 12.50915 v 7.453238 h -1.50602 v -6.02406 h -9.55858 v 6.100897 h -1.44455 z m 0.75301,5.178848 h 11.1107 v 1.429177 h -11.1107 z m 4.70245,-7.883528 h 1.52139 v 14.245673 h -1.52139 z m 14.8911,10.26549 -0.39955,-0.998887 q 0.95278,-0.353453 1.45991,-0.92205 0.50713,-0.568598 0.50713,-1.35234 l -0.21515,-1.398443 0.84522,1.260135 q -0.18441,0.18441 -0.41493,0.276615 -0.21514,0.07684 -0.44565,0.07684 -0.5225,0 -0.90669,-0.30735 -0.38418,-0.322718 -0.38418,-0.92205 0,-0.583965 0.38418,-0.906683 0.39956,-0.322717 0.92205,-0.322717 0.72228,0 1.0911,0.522495 0.38418,0.522495 0.38418,1.398442 0,1.275503 -0.76837,2.228288 -0.75301,0.937417 -2.05925,1.367707 z m 15.29068,-9.066825 h 8.31381 v 1.060358 h -8.31381 z m 0.38418,1.874835 h 7.62228 v 1.014255 h -7.62228 z m -0.58396,1.874835 h 8.68264 v 1.091093 h -8.68264 z m 3.56526,-4.948335 h 1.41381 v 5.547668 h -1.41381 z m 2.93519,6.838538 h 1.35234 v 6.02406 q 0,0.476392 -0.12294,0.753007 -0.10757,0.276615 -0.46102,0.43029 -0.33809,0.138308 -0.86058,0.169043 -0.50713,0.03074 -1.24477,0.03074 -0.0307,-0.276615 -0.15368,-0.599333 -0.10757,-0.322717 -0.23051,-0.583965 0.47639,0.01537 0.89132,0.01537 0.43029,0.01537 0.58396,0 0.13831,0 0.18441,-0.06147 0.0615,-0.0461 0.0615,-0.169043 z m -4.9176,2.043877 h 5.5323 v 0.998888 h -5.5323 z m 0,1.96704 h 5.5323 v 0.98352 h -5.5323 z m -0.75301,-4.010917 h 1.32161 v 2.812252 q 0,0.73764 -0.10757,1.59822 -0.0922,0.86058 -0.36882,1.690425 -0.27662,0.829845 -0.82985,1.490648 -0.10757,-0.153675 -0.29198,-0.338085 -0.18441,-0.18441 -0.38419,-0.353453 -0.19978,-0.169042 -0.33808,-0.24588 0.46102,-0.568597 0.67617,-1.2294 0.21514,-0.67617 0.26124,-1.35234 0.0615,-0.67617 0.0615,-1.29087 z m 0.79911,0 h 5.28642 v 1.091092 h -5.28642 z m -6.74633,-2.259023 h 4.56415 v 1.121828 h -4.56415 z m 0.73764,4.24143 h 3.81114 v 4.564148 h -3.81114 v -1.16793 h 2.53564 v -2.228288 h -2.53564 z m -0.69154,0 h 1.24477 v 5.22495 h -1.24477 z m -0.0307,-2.136082 h 4.54878 v 1.121827 h -4.54878 z m -0.39956,-4.133858 h 5.37863 v 1.16793 h -5.37863 z m 1.73653,-2.15145 1.2294,-0.36882 q 0.24588,0.476393 0.47639,1.060358 0.23052,0.568597 0.33809,0.98352 l -1.2755,0.445657 q -0.10758,-0.43029 -0.33809,-1.029622 -0.21514,-0.599333 -0.43029,-1.091093 z m 16.59689,1.96704 h 9.63543 v 1.444545 h -9.63543 z m 9.23587,0 h 1.49065 q 0,0 0,0.153675 0,0.138308 -0.0154,0.322718 0,0.169042 -0.0154,0.261247 -0.0922,2.627843 -0.21514,4.456575 -0.12294,1.828733 -0.26125,3.01203 -0.13831,1.183298 -0.32272,1.8441 -0.16904,0.660803 -0.41492,0.952785 -0.27661,0.384188 -0.58396,0.537863 -0.30735,0.153675 -0.73764,0.215145 -0.38419,0.0461 -0.98352,0.03073 -0.59934,0 -1.24477,-0.03073 -0.0154,-0.322718 -0.13831,-0.73764 -0.12294,-0.414923 -0.32272,-0.722273 0.67617,0.06147 1.2294,0.07684 0.55323,0.01537 0.82985,0.01537 0.21514,0 0.35345,-0.0461 0.15368,-0.06147 0.29198,-0.230513 0.18441,-0.199777 0.33809,-0.829845 0.16904,-0.630067 0.29198,-1.767262 0.13831,-1.152563 0.24588,-2.919825 0.10757,-1.767263 0.18441,-4.256798 z m -8.80558,-2.366595 1.50602,0.353453 q -0.43029,1.41381 -1.02962,2.76615 -0.58397,1.336972 -1.30624,2.489535 -0.70691,1.137195 -1.50602,2.013142 -0.1383,-0.138307 -0.38418,-0.30735 -0.23052,-0.18441 -0.4764,-0.353452 -0.24588,-0.18441 -0.43029,-0.276615 0.79911,-0.783743 1.47528,-1.828733 0.69154,-1.060357 1.24477,-2.305125 0.55323,-1.244767 0.90668,-2.551005 z m 2.27439,2.858355 1.45992,0.322718 q -0.5686,1.96704 -1.36771,3.703567 -0.79911,1.736528 -1.82873,3.165705 -1.01426,1.41381 -2.24366,2.474168 -0.12294,-0.138308 -0.35345,-0.322718 -0.21515,-0.18441 -0.46103,-0.36882 -0.23051,-0.199777 -0.39955,-0.30735 1.24477,-0.952785 2.22829,-2.27439 0.99888,-1.336972 1.73652,-2.95056 0.73764,-1.628955 1.2294,-3.44232 z m 3.38085,0.03074 1.49065,0.215145 q -0.44566,2.39733 -1.12183,4.471943 -0.6608,2.059245 -1.62895,3.718935 -0.95279,1.65969 -2.28976,2.873722 -0.10757,-0.12294 -0.35345,-0.30735 -0.23051,-0.18441 -0.47639,-0.36882 -0.24588,-0.169042 -0.43029,-0.276615 1.33697,-1.091092 2.27439,-2.64321 0.93741,-1.552117 1.55211,-3.488422 0.63007,-1.951673 0.98352,-4.195328 z m 15.41361,-2.88909 1.42918,0.261248 q -0.67617,1.183297 -1.75189,2.259022 -1.07573,1.075725 -2.65858,1.936305 -0.0922,-0.153675 -0.26125,-0.338085 -0.15367,-0.199777 -0.33808,-0.36882 -0.16905,-0.18441 -0.32272,-0.291982 1.45991,-0.691538 2.42806,-1.628955 0.96816,-0.937418 1.47528,-1.828733 z m -0.18441,1.336973 h 3.62673 v 1.183297 h -4.47194 z m 3.10424,0 h 0.26125 l 0.26124,-0.06147 0.92205,0.43029 q -0.46102,1.214032 -1.19866,2.182185 -0.72227,0.952785 -1.65969,1.675057 -0.93742,0.722273 -2.02851,1.244768 -1.09109,0.522495 -2.27439,0.86058 -0.10757,-0.261248 -0.33809,-0.599333 -0.21514,-0.353452 -0.41492,-0.55323 1.07573,-0.261247 2.07461,-0.706905 1.01426,-0.445657 1.87484,-1.060357 0.86058,-0.630068 1.50601,-1.429178 0.66081,-0.79911 1.01426,-1.751895 z m -4.77929,2.289757 0.90668,-0.73764 q 0.39955,0.230513 0.79911,0.522495 0.41492,0.291983 0.76837,0.599333 0.36882,0.30735 0.59934,0.568597 l -0.95279,0.79911 q -0.21514,-0.261247 -0.5686,-0.568597 -0.35345,-0.30735 -0.76837,-0.6147 -0.39956,-0.322718 -0.78374,-0.568598 z m 2.65857,2.243655 1.42918,0.261248 q -0.73764,1.29087 -1.9363,2.474167 -1.1833,1.183298 -2.95056,2.105348 -0.0922,-0.153675 -0.24588,-0.338085 -0.15368,-0.199778 -0.33809,-0.384188 -0.16904,-0.18441 -0.32272,-0.276615 1.0911,-0.522495 1.93631,-1.152562 0.84521,-0.645435 1.44454,-1.336973 0.6147,-0.691537 0.98352,-1.35234 z m -0.21514,1.41381 h 3.50379 v 1.214033 h -4.36437 z m 3.04276,0 h 0.29199 l 0.26124,-0.06147 0.92205,0.399555 q -0.46102,1.47528 -1.2755,2.58174 -0.81448,1.10646 -1.8902,1.90557 -1.07573,0.79911 -2.3666,1.321605 -1.2755,0.537863 -2.70468,0.86058 -0.10757,-0.276615 -0.32271,-0.645435 -0.19978,-0.36882 -0.41493,-0.599332 1.32161,-0.230513 2.50491,-0.67617 1.18329,-0.461025 2.16681,-1.137195 0.98352,-0.691538 1.7058,-1.613588 0.73764,-0.92205 1.12182,-2.120715 z m -5.11737,2.535638 0.98352,-0.814478 q 0.44565,0.24588 0.92205,0.568598 0.47639,0.322717 0.89131,0.660802 0.41492,0.338085 0.67617,0.645435 l -1.04499,0.891315 q -0.24588,-0.30735 -0.64543,-0.645435 -0.39956,-0.353452 -0.87595,-0.691537 -0.46103,-0.353453 -0.90668,-0.6147 z m -5.16348,-8.48286 h 1.41381 v 12.9087 h -1.41381 z m -2.38197,2.981295 h 5.60914 v 1.367707 h -5.60914 z m 2.4588,0.537862 0.87595,0.384188 q -0.23051,0.814477 -0.55323,1.705792 -0.32272,0.875948 -0.7069,1.736528 -0.36882,0.86058 -0.79911,1.613587 -0.43029,0.753008 -0.87595,1.29087 -0.10757,-0.30735 -0.32272,-0.691537 -0.21514,-0.399555 -0.38419,-0.660803 0.41493,-0.461025 0.81448,-1.091092 0.39956,-0.645435 0.76838,-1.367708 0.38418,-0.73764 0.67617,-1.490647 0.30735,-0.753008 0.50712,-1.429178 z m 2.25903,-4.67172 0.99888,1.121828 q -0.753,0.291982 -1.67505,0.537862 -0.90669,0.230513 -1.87484,0.414923 -0.96815,0.169042 -1.87483,0.30735 -0.0461,-0.24588 -0.16905,-0.568598 -0.12294,-0.322717 -0.24588,-0.55323 0.86058,-0.138307 1.7519,-0.322717 0.90668,-0.199778 1.70579,-0.43029 0.81448,-0.24588 1.38308,-0.507128 z m -0.95279,6.193103 q 0.13831,0.107572 0.43029,0.414922 0.29198,0.291983 0.63007,0.630068 0.35345,0.338085 0.63007,0.645435 0.27661,0.291982 0.38418,0.43029 l -0.84521,1.137195 q -0.13831,-0.24588 -0.38419,-0.6147 -0.23051,-0.36882 -0.52249,-0.753008 -0.27662,-0.399555 -0.53786,-0.753007 -0.26125,-0.353453 -0.44566,-0.568598 z m 11.89444,3.611362 h 7.08442 v 1.075725 h -7.08442 z m -0.38419,-7.361032 h 7.68375 v 1.091092 h -7.68375 z m 3.21181,-1.260135 h 1.33697 v 11.18754 h -1.33697 z m -3.24254,11.12607 q 0.93741,-0.09221 2.16681,-0.18441 1.24477,-0.107573 2.62785,-0.230513 1.38307,-0.138307 2.75078,-0.261247 l 0.0154,1.10646 q -1.30624,0.153675 -2.64321,0.291982 -1.32161,0.153675 -2.53564,0.276615 -1.21403,0.138308 -2.19755,0.230513 z m 1.64432,-5.178848 v 0.937418 h 4.57951 V 92.22922 Z m 0,-1.8441 v 0.937418 h 4.57951 V 90.38512 Z m -1.1833,-0.952785 h 6.99221 v 4.687088 h -6.99221 z m 6.34678,-4.395105 0.67617,1.091093 q -0.93742,0.199777 -2.13608,0.353452 -1.1833,0.153675 -2.4588,0.24588 -1.26014,0.07684 -2.4127,0.12294 -0.0307,-0.230512 -0.13831,-0.537862 -0.0922,-0.30735 -0.19978,-0.522495 0.86058,-0.0461 1.76727,-0.12294 0.92205,-0.07684 1.81336,-0.169043 0.89132,-0.09221 1.67506,-0.199777 0.79911,-0.12294 1.41381,-0.261248 z m 0.84521,3.411585 h 5.4401 v 1.35234 h -5.4401 z m 4.8715,0 h 1.39844 q 0,0 0,0.138308 0,0.138307 -0.0154,0.291982 0,0.153675 0,0.261248 -0.0615,2.39733 -0.12294,4.072387 -0.0615,1.65969 -0.15367,2.720048 -0.0768,1.060357 -0.21515,1.644322 -0.12294,0.583965 -0.30735,0.845213 -0.23051,0.338085 -0.50712,0.476392 -0.26125,0.138308 -0.6147,0.18441 -0.33809,0.06147 -0.84522,0.06147 -0.50712,0 -1.04499,-0.03073 -0.0307,-0.291982 -0.15367,-0.691537 -0.10757,-0.399555 -0.27662,-0.691538 0.53787,0.0461 0.98352,0.06147 0.44566,0 0.67617,0 0.18441,0 0.30735,-0.0461 0.12294,-0.0461 0.23052,-0.199778 0.1383,-0.169042 0.23051,-0.706905 0.10757,-0.537862 0.16904,-1.552117 0.0768,-1.029623 0.13831,-2.627843 0.0768,-1.59822 0.12294,-3.887977 z m -3.18107,-3.31938 h 1.39844 q -0.0154,1.890203 -0.0615,3.62673 -0.0307,1.736528 -0.19978,3.288645 -0.15367,1.53675 -0.55323,2.873723 -0.38419,1.336972 -1.07572,2.428065 -0.67617,1.091092 -1.76727,1.920937 -0.10757,-0.169042 -0.29198,-0.384187 -0.16904,-0.199778 -0.36882,-0.384188 -0.19978,-0.18441 -0.38419,-0.291982 1.02963,-0.753008 1.65969,-1.736528 0.63007,-0.998887 0.96816,-2.21292 0.35345,-1.2294 0.47639,-2.658577 0.13831,-1.444545 0.16904,-3.058133 0.0307,-1.613587 0.0307,-3.411585 z m 6.20847,5.34789 h 13.89222 v 1.429178 h -13.89222 z m 6.74634,-3.549892 h 5.6245 v 1.398442 h -5.6245 z m -0.95279,-2.013143 h 1.52138 v 6.239205 h -1.52138 z m 0.0615,6.500453 h 1.52138 v 7.760587 h -1.52138 z m 1.50602,3.088867 0.76837,-1.121827 q 0.58397,0.215145 1.2755,0.49176 0.70691,0.276615 1.41381,0.568597 0.70691,0.276615 1.33698,0.55323 0.63006,0.276615 1.07572,0.507128 l -0.79911,1.29087 q -0.43029,-0.230513 -1.04499,-0.522495 -0.6147,-0.291983 -1.3216,-0.599333 -0.69154,-0.322717 -1.39845,-0.6147 -0.69153,-0.30735 -1.30623,-0.55323 z m 10.75724,-5.916487 h 7.945 v 1.459912 h -7.945 z m 6.43898,-3.672833 h 1.50602 v 4.54878 h -1.50602 z m -6.91537,0.18441 h 1.45991 v 5.240318 q 0,1.16793 -0.0768,2.366595 -0.0768,1.183297 -0.32272,2.33586 -0.24588,1.137195 -0.753,2.197552 -0.50713,1.060358 -1.35234,1.982408 -0.12294,-0.169043 -0.32272,-0.384188 -0.18441,-0.215145 -0.39956,-0.414922 -0.19977,-0.199778 -0.38418,-0.322718 0.96815,-1.091092 1.42917,-2.381962 0.46103,-1.29087 0.58397,-2.658578 0.13831,-1.383075 0.13831,-2.720047 z m 0.43029,7.222725 h 8.52896 v 6.853905 h -1.52138 v -5.393992 h -7.00758 z m 14.19957,5.77818 q -0.49176,0 -0.84521,-0.353452 -0.33808,-0.36882 -0.33808,-0.906683 0,-0.55323 0.33808,-0.891315 0.35345,-0.353452 0.84521,-0.353452 0.50713,0 0.84522,0.353452 0.35345,0.338085 0.35345,0.891315 0,0.537863 -0.35345,0.906683 -0.33809,0.353452 -0.84522,0.353452 z m 4.57953,0 q -0.49176,0 -0.84521,-0.353452 -0.33808,-0.36882 -0.33808,-0.906683 0,-0.55323 0.33808,-0.891315 0.35345,-0.353452 0.84521,-0.353452 0.50713,0 0.84522,0.353452 0.35345,0.338085 0.35345,0.891315 0,0.537863 -0.35345,0.906683 -0.33809,0.353452 -0.84522,0.353452 z m 4.5795,0 q -0.49176,0 -0.84521,-0.353452 -0.33809,-0.36882 -0.33809,-0.906683 0,-0.55323 0.33809,-0.891315 0.35345,-0.353452 0.84521,-0.353452 0.50713,0 0.84521,0.353452 0.35346,0.338085 0.35346,0.891315 0,0.537863 -0.35346,0.906683 -0.33808,0.353452 -0.84521,0.353452 z"
       id="text8"
       aria-label="TPASS/都會通設定中，請勿移動卡片..." /></g></svg>
